<?xml version="1.0" encoding="utf-8"?>
<!-- Generator: Adobe Illustrator 24.0.1, SVG Export Plug-In . SVG Version: 6.00 Build 0)  -->
<svg version="1.1" id="Layer_1" xmlns="http://www.w3.org/2000/svg" xmlns:xlink="http://www.w3.org/1999/xlink" x="0px" y="0px"
	 viewBox="0 0 70 70" style="enable-background:new 0 0 70 70;" xml:space="preserve">
<style type="text/css">
	.st0{fill:#F47D3A;}
	.st1{fill:#1B75BC;}
</style>
<g>
	<g>
		<path class="st0" d="M33.3,27.9c1.3,0,2.6,0,3.9,0c0,9.1,0,18.2,0,27.3c-1.3,0-2.5,0-3.9,0C33.3,46.1,33.3,37,33.3,27.9z"/>
		<path class="st0" d="M20.1,15.5c1.3,0,2.6,0,3.9,0c0,8.4,0,16.7,0,25.1c-1.3,0-2.6,0-3.9,0C20.1,32.3,20.1,23.9,20.1,15.5z"/>
		<path class="st0" d="M46.4,38c1.3,0,2.6,0,3.9,0c0,5.7,0,11.4,0,17.2c-1.3,0-2.6,0-3.9,0C46.4,49.4,46.4,43.7,46.4,38z"/>
		<path class="st0" d="M50.3,15.5c0,5.7,0,11.4,0,17.1c-1.3,0-2.6,0-3.9,0c0-5.7,0-11.4,0-17.1C47.7,15.5,49,15.5,50.3,15.5z"/>
		<path class="st0" d="M35.2,22.8c1,0,2,0,3.1,0c0.8,0,1.4,0.5,1.4,1.4c0,0.7,0,1.4,0,2.1c0,0.8-0.5,1.3-1.3,1.3c-2.1,0-4.2,0-6.3,0
			c-0.8,0-1.3-0.5-1.3-1.3c0-0.7,0-1.4,0-2.1c0-0.8,0.5-1.3,1.3-1.3C33.1,22.8,34.1,22.8,35.2,22.8z"/>
		<path class="st0" d="M48.3,32.9c1,0,2,0,3,0c0.9,0,1.4,0.5,1.4,1.4c0,0.7,0,1.4,0,2.1c0,0.9-0.5,1.4-1.4,1.4c-2,0-4.1,0-6.1,0
			c-0.9,0-1.4-0.5-1.4-1.3c0-0.7,0-1.4,0-2.1c0-0.8,0.5-1.3,1.3-1.3C46.2,32.9,47.3,32.9,48.3,32.9z"/>
		<path class="st0" d="M22.1,40.9c1,0,2,0,3.1,0c0.8,0,1.3,0.5,1.3,1.3c0,0.7,0,1.4,0,2.1c0,0.8-0.5,1.3-1.4,1.3c-1.6,0-3.2,0-4.7,0
			c-0.5,0-1,0-1.5,0c-0.8,0-1.3-0.5-1.3-1.3c0-0.7,0-1.4,0-2.1c0-0.8,0.5-1.3,1.3-1.3C20,40.9,21,40.9,22.1,40.9z"/>
		<path class="st0" d="M24,55.1c-1.3,0-2.6,0-3.9,0c0-3,0-6.1,0-9.1c1.3,0,2.6,0,3.9,0C24,49,24,52.1,24,55.1z"/>
		<path class="st0" d="M33.3,15.5c1.3,0,2.5,0,3.8,0c0,2.3,0,4.7,0,7c-1.3,0-2.5,0-3.8,0C33.3,20.2,33.3,17.9,33.3,15.5z"/>
	</g>
	<path class="st1" d="M35.2,68.7c-4.5,0-8.9-0.9-13-2.6c-4-1.7-7.5-4.1-10.6-7.2s-5.5-6.6-7.2-10.6c-1.7-4.1-2.6-8.5-2.6-13
		c0-4.5,0.9-8.9,2.6-13c1.7-4,4.1-7.5,7.2-10.6s6.6-5.5,10.6-7.2c4.1-1.7,8.5-2.6,13-2.6c4.5,0,8.9,0.9,13,2.6
		c4,1.7,7.5,4.1,10.6,7.2c3.1,3.1,5.5,6.6,7.2,10.6c1.7,4.1,2.6,8.5,2.6,13c0,4.5-0.9,8.9-2.6,13c-1.7,4-4.1,7.5-7.2,10.6
		c-3.1,3.1-6.6,5.5-10.6,7.2C44.1,67.8,39.7,68.7,35.2,68.7z M35.2,6.4c-15.9,0-28.9,13-28.9,28.9s13,28.9,28.9,28.9
		s28.9-13,28.9-28.9S51.1,6.4,35.2,6.4z"/>
</g>
</svg>
