<?xml version="1.0" encoding="utf-8"?>
<!-- Generator: Adobe Illustrator 24.0.1, SVG Export Plug-In . SVG Version: 6.00 Build 0)  -->
<svg version="1.1" id="Layer_1" xmlns="http://www.w3.org/2000/svg" xmlns:xlink="http://www.w3.org/1999/xlink" x="0px" y="0px"
	 viewBox="0 0 1283.3 737.1" style="enable-background:new 0 0 1283.3 737.1;" xml:space="preserve">
<style type="text/css">
	.st0{fill:#FFFFFF;}
	.st1{fill:url(#Path_151_2_);}
	.st2{fill:url(#Path_152_2_);}
	.st3{fill:#F1F3F9;}
	.st4{fill:url(#Path_878_1_);}
	.st5{fill:url(#Path_879_1_);}
	.st6{fill:#F2F4F9;}
	.st7{fill:url(#Path_151-2_2_);}
	.st8{fill:url(#Path_152-2_2_);}
	.st9{fill:url(#Path_151-3_3_);}
	.st10{fill:url(#Path_152-3_3_);}
	.st11{fill:url(#Path_151-3_4_);}
	.st12{fill:url(#Path_152-3_4_);}
	.st13{fill:url(#Path_151-3_5_);}
	.st14{fill:url(#Path_152-3_5_);}
	.st15{fill:url(#SVGID_1_);}
	.st16{fill:#FFB29C;}
	.st17{fill:#FFEBE5;}
	.st18{fill:#C7C7C7;}
	.st19{fill:#B5B5B5;}
	.st20{fill:#696969;}
	.st21{fill:#5C5C5C;}
	.st22{fill:#BD4F4F;}
	.st23{fill:#CC6464;}
	.st24{fill:#8A8A8A;}
	.st25{fill:#B33434;}
	.st26{fill:#E1A4A4;}
	.st27{fill:#542418;}
	.st28{fill:#FFC98C;}
	.st29{fill:#F0B46E;}
	.st30{fill:#F5EFC9;}
	.st31{fill:#B05656;}
	.st32{fill:#E6DFB3;}
	.st33{fill:#5C83BB;}
	.st34{fill:#1F54A2;}
	.st35{fill:#85A2CC;}
	.st36{fill:#452921;}
	.st37{fill:#4F3229;}
	.st38{fill:#3D1B12;}
	.st39{fill:#556873;}
	.st40{fill:#6A818F;}
	.st41{fill:#354047;}
	.st42{fill:#E3AA68;}
	.st43{fill:#AB5454;}
	.st44{fill:#E4E4E4;}
	.st45{fill:#909090;}
	.st46{fill:#C4C4C4;}
	.st47{fill:#DEDEDE;}
	.st48{fill:#CFCFCF;}
	.st49{fill:#E0E0E0;}
	.st50{fill:#ADADAD;}
	.st51{fill:#BF4949;}
	.st52{fill:#FFF699;}
	.st53{fill:#FCFCFC;}
	.st54{fill:#A3A3A3;}
	.st55{fill:#8A4633;}
	.st56{fill:#AD6A40;}
</style>
<rect x="3" class="st0" width="1277.3" height="737.1"/>
<g id="Shadows">
</g>
<g>
	<g id="Group_30_1_" transform="translate(159.07 605.079)">
		
			<linearGradient id="Path_151_2_" gradientUnits="userSpaceOnUse" x1="671.3737" y1="-350.0224" x2="671.3737" y2="-351.5055" gradientTransform="matrix(38.4 0 0 125.0701 -25470.6777 43888.8086)">
			<stop  offset="0.247" style="stop-color:#FFFFFF"/>
			<stop  offset="0.516" style="stop-color:#F8F9FD"/>
			<stop  offset="0.905" style="stop-color:#E5E9F6"/>
			<stop  offset="1" style="stop-color:#DFE4F4"/>
		</linearGradient>
		<path id="Path_151_1_" class="st1" d="M282.1,111.5l56-32.8V-74l-56,32.8V111.5z"/>
		
			<linearGradient id="Path_152_2_" gradientUnits="userSpaceOnUse" x1="670.9114" y1="-350.0224" x2="670.9114" y2="-351.5055" gradientTransform="matrix(38.4 0 0 125.0701 -25509.0762 43888.8086)">
			<stop  offset="0.247" style="stop-color:#FFFFFF"/>
			<stop  offset="0.641" style="stop-color:#F6F7FC"/>
			<stop  offset="1" style="stop-color:#E9EDF7"/>
		</linearGradient>
		<path id="Path_152_1_" class="st2" d="M282.1,111.5l-56.3-32.8V-74l56.3,32.8V111.5z"/>
		<path id="Path_153_1_" class="st3" d="M282.1-41.3l-56-33l56-32.9l56,32.8L282.1-41.3z"/>
	</g>
	<g id="Group_614">
		
			<linearGradient id="Path_878_1_" gradientUnits="userSpaceOnUse" x1="1479.0873" y1="-348.7061" x2="1479.0873" y2="-349.7891" gradientTransform="matrix(41.5601 0 0 135.37 -60254.3711 47895.4609)">
			<stop  offset="0.247" style="stop-color:#FFFFFF"/>
			<stop  offset="0.882" style="stop-color:#E6EAF6"/>
			<stop  offset="1" style="stop-color:#E1E5F4"/>
		</linearGradient>
		<path id="Path_878" class="st4" d="M1195.4,691.1l42.5-26V544.5l-42.5,26V691.1z"/>
		
			<linearGradient id="Path_879_1_" gradientUnits="userSpaceOnUse" x1="1479.0646" y1="-348.7061" x2="1479.0646" y2="-349.7891" gradientTransform="matrix(41.5601 0 0 135.37 -60295.9297 47895.4609)">
			<stop  offset="0.247" style="stop-color:#FFFFFF"/>
			<stop  offset="1" style="stop-color:#EBEEF7"/>
		</linearGradient>
		<path id="Path_879" class="st5" d="M1195.4,691.1l-42.5-26V544.5l42.5,26V691.1z"/>
		<path id="Path_880" class="st6" d="M1195.4,570.4l-42.5-26l42.5-26l42.5,26L1195.4,570.4z"/>
	</g>
	<g id="Group_660" transform="translate(376.07 643.129)">
		
			<linearGradient id="Path_151-2_2_" gradientUnits="userSpaceOnUse" x1="-763.5374" y1="-348.2093" x2="-763.5374" y2="-349.5402" gradientTransform="matrix(54.046 0 0 176.04 41587.5938 61313.5547)">
			<stop  offset="0.247" style="stop-color:#FFFFFF"/>
			<stop  offset="0.516" style="stop-color:#F8F9FD"/>
			<stop  offset="0.905" style="stop-color:#E5E9F6"/>
			<stop  offset="1" style="stop-color:#DFE4F4"/>
		</linearGradient>
		<path id="Path_151-2_1_" class="st7" d="M293,14.8l56.9-41.5v-192.8L293-178V14.8z"/>
		
			<linearGradient id="Path_152-2_2_" gradientUnits="userSpaceOnUse" x1="-763.5912" y1="-348.2093" x2="-763.5912" y2="-349.5408" gradientTransform="matrix(54.046 0 0 176.04 41533.5508 61313.5547)">
			<stop  offset="0.247" style="stop-color:#FFFFFF"/>
			<stop  offset="0.641" style="stop-color:#F6F7FC"/>
			<stop  offset="1" style="stop-color:#E9EDF7"/>
		</linearGradient>
		<path id="Path_152-2_1_" class="st8" d="M293,14.8l-57-41.6v-192.8l56.9,41.5V14.8H293z"/>
		<path id="Path_153-2_1_" class="st3" d="M293-178l-57-41.5l56.9-41.3l56.9,41.5L293-178z"/>
	</g>
	<g id="Group_98_1_" transform="translate(1097.07 620.079)">
		
			<linearGradient id="Path_151-3_3_" gradientUnits="userSpaceOnUse" x1="-4953.3906" y1="-347.6799" x2="-4953.3906" y2="-348.1415" gradientTransform="matrix(54.046 0 0 176.04 267645.0313 61298.6055)">
			<stop  offset="0.247" style="stop-color:#FFFFFF"/>
			<stop  offset="0.516" style="stop-color:#F8F9FD"/>
			<stop  offset="0.905" style="stop-color:#E5E9F6"/>
			<stop  offset="1" style="stop-color:#DFE4F4"/>
		</linearGradient>
		<path id="Path_151-3" class="st9" d="M-93,93l54.2-29.1V11.8L-93,40.7V93z"/>
		
			<linearGradient id="Path_152-3_3_" gradientUnits="userSpaceOnUse" x1="-4953.394" y1="-347.6799" x2="-4953.394" y2="-348.1415" gradientTransform="matrix(54.046 0 0 176.04 267591 61298.6055)">
			<stop  offset="0.247" style="stop-color:#FFFFFF"/>
			<stop  offset="0.641" style="stop-color:#F6F7FC"/>
			<stop  offset="1" style="stop-color:#E9EDF7"/>
		</linearGradient>
		<path id="Path_152-3" class="st10" d="M-93,93l-54.2-29.1V11.8L-93,40.7C-93,40.7-93,93-93,93z"/>
		<path id="Path_153-3" class="st3" d="M-93,40.7l-54.4-29l54.2-29l54.4,29L-93,40.7z"/>
	</g>
	<g id="Group_98_2_" transform="translate(1097.07 620.079)">
		
			<linearGradient id="Path_151-3_4_" gradientUnits="userSpaceOnUse" x1="-4957.2559" y1="-347.7757" x2="-4957.2559" y2="-348.2793" gradientTransform="matrix(54.046 0 0 176.04 267645.0313 61298.6055)">
			<stop  offset="0.247" style="stop-color:#FFFFFF"/>
			<stop  offset="0.516" style="stop-color:#F8F9FD"/>
			<stop  offset="0.905" style="stop-color:#E5E9F6"/>
			<stop  offset="1" style="stop-color:#DFE4F4"/>
		</linearGradient>
		<path id="Path_151-3_1_" class="st11" d="M-300.2,76.2l50.9-31.7v-56.9L-300.2,19V76.2z"/>
		
			<linearGradient id="Path_152-3_4_" gradientUnits="userSpaceOnUse" x1="-4957.1968" y1="-347.7757" x2="-4957.1968" y2="-348.2793" gradientTransform="matrix(54.046 0 0 176.04 267591 61298.6055)">
			<stop  offset="0.247" style="stop-color:#FFFFFF"/>
			<stop  offset="0.641" style="stop-color:#F6F7FC"/>
			<stop  offset="1" style="stop-color:#E9EDF7"/>
		</linearGradient>
		<path id="Path_152-3_1_" class="st12" d="M-300.2,76.2l-50.9-31.7v-56.9l50.9,31.5V76.2z"/>
		<path id="Path_153-3_1_" class="st3" d="M-300.2,19.1l-50.9-31.5l50.9-31.5l50.9,31.5L-300.2,19.1z"/>
	</g>
	<g id="Group_98_3_" transform="translate(1097.07 620.079)">
		
			<linearGradient id="Path_151-3_5_" gradientUnits="userSpaceOnUse" x1="-4960.6733" y1="-347.8462" x2="-4960.6733" y2="-348.4007" gradientTransform="matrix(54.046 0 0 176.04 267645.0313 61298.6055)">
			<stop  offset="0.247" style="stop-color:#FFFFFF"/>
			<stop  offset="0.516" style="stop-color:#F8F9FD"/>
			<stop  offset="0.905" style="stop-color:#E5E9F6"/>
			<stop  offset="1" style="stop-color:#DFE4F4"/>
		</linearGradient>
		<path id="Path_151-3_2_" class="st13" d="M-485,63.8l50.9-34.9v-62.7L-485,0.9V63.8z"/>
		
			<linearGradient id="Path_152-3_5_" gradientUnits="userSpaceOnUse" x1="-4960.6143" y1="-347.8462" x2="-4960.6143" y2="-348.4007" gradientTransform="matrix(54.046 0 0 176.04 267591 61298.6055)">
			<stop  offset="0.247" style="stop-color:#FFFFFF"/>
			<stop  offset="0.641" style="stop-color:#F6F7FC"/>
			<stop  offset="1" style="stop-color:#E9EDF7"/>
		</linearGradient>
		<path id="Path_152-3_2_" class="st14" d="M-485,63.8l-50.9-34.9v-62.7L-485,0.9V63.8z"/>
		<path id="Path_153-3_2_" class="st3" d="M-485,1l-50.9-34.7l50.9-34.7l50.9,34.7L-485,1z"/>
	</g>
</g>
<linearGradient id="SVGID_1_" gradientUnits="userSpaceOnUse" x1="81.0218" y1="1118.0299" x2="652.1637" y2="308.2334" gradientTransform="matrix(1 0 0 -1 0 1076)">
	<stop  offset="0.247" style="stop-color:#FFFFFF"/>
	<stop  offset="0.516" style="stop-color:#F8F9FD"/>
	<stop  offset="0.905" style="stop-color:#E5E9F6"/>
	<stop  offset="1" style="stop-color:#DFE4F4"/>
</linearGradient>
<path class="st15" d="M0,737.1V0h741.2c-2,12.9-2.9,255.3-364.6,299.8C73.2,337.2,0,737.1,0,737.1z"/>
<g>
	<ellipse class="st16" cx="959.7" cy="569.9" rx="162.9" ry="4.6"/>
	<g>
		<path class="st17" d="M926.5,397.7h-55.6c-8.4,0-15.3-6.8-15.3-15.3v-55.6c0-8.4,6.8-15.3,15.3-15.3h55.6
			c8.4,0,15.3,6.8,15.3,15.3v55.6C941.7,390.8,934.9,397.7,926.5,397.7z"/>
		<path class="st17" d="M899.8,239.5h-53.5c-9,0-16.3-7.3-16.3-16.3v-53.5c0-9,7.3-16.3,16.3-16.3h53.5c9,0,16.3,7.3,16.3,18.5v53.5
			C916.1,232.2,908.8,239.5,899.8,239.5z"/>
		<path class="st17" d="M1019.4,340.2h-55.6c-8.4,0-15.3-6.8-15.3-15.3v-55.6c0-8.4,6.8-15.3,15.3-15.3h55.6
			c8.4,0,15.3,6.8,15.3,15.3v55.6C1034.6,333.3,1027.8,340.2,1019.4,340.2z"/>
		<path class="st17" d="M1115,301h-55.6c-8.4,0-15.3-6.8-15.3-15.3V144.7c0-8.4,6.8-15.3,15.3-15.3h55.6c8.4,0,15.3,6.8,15.3,15.3
			v141.1C1130.2,294.2,1123.4,301,1115,301z"/>
		<path class="st17" d="M1157,439.3h-136.7c-8.4,0-15.3-6.8-15.3-15.3v-55.6c0-8.4,6.8-15.3,15.3-15.3H1157
			c8.4,0,15.3,6.8,15.3,15.3V424C1172.3,432.4,1165.4,439.3,1157,439.3z"/>
		<path class="st17" d="M1126.4,536.9h-106c-8.4,0-15.3-6.8-15.3-15.3v-55.6c0-8.4,6.8-15.3,15.3-15.3h106c8.4,0,15.3,6.8,15.3,15.3
			v55.6C1141.6,530,1134.8,536.9,1126.4,536.9z"/>
	</g>
	<g>
		<rect x="1032.3" y="497.7" class="st18" width="9.5" height="35.5"/>
		<polygon class="st19" points="1032.3,499.6 1039.5,500.6 1039.5,533.3 1041.8,533.3 1041.8,497.7 1032.3,497.7 		"/>
		<rect x="1031" y="531.8" class="st20" width="12.2" height="24.8"/>
		<rect x="1002.7" y="556.6" class="st20" width="68.7" height="2.4"/>
		<rect x="1035.8" y="557.8" class="st20" width="2.5" height="7.6"/>
		<circle class="st18" cx="1037.1" cy="567.3" r="3.5"/>
		<g>
			<path class="st20" d="M1032.8,567.3L1032.8,567.3c0-2.4,1.9-4.3,4.2-4.3c2.3,0,4.2,1.8,4.2,4.1l-1.4,0c-0.1-1.5-1.3-2.7-2.8-2.7
				c-1.6,0-2.8,1.3-2.8,2.8L1032.8,567.3z"/>
		</g>
		<rect x="1002.7" y="557.8" class="st20" width="2.5" height="7.6"/>
		<circle class="st18" cx="1004" cy="567.3" r="3.5"/>
		<g>
			<path class="st20" d="M999.7,567.3L999.7,567.3c0-2.4,1.9-4.3,4.2-4.3c2.3,0,4.2,1.8,4.2,4.1l-1.4,0c-0.1-1.5-1.3-2.7-2.8-2.7
				c-1.6,0-2.8,1.3-2.8,2.8L999.7,567.3z"/>
		</g>
		<rect x="1068.9" y="557.8" class="st20" width="2.5" height="7.6"/>
		<circle class="st18" cx="1070.1" cy="567.3" r="3.5"/>
		<g>
			<path class="st20" d="M1065.9,567.3L1065.9,567.3c0-2.4,1.9-4.3,4.2-4.3c2.3,0,4.2,1.8,4.2,4.1l-1.4,0c-0.1-1.5-1.3-2.7-2.8-2.7
				c-1.6,0-2.8,1.3-2.8,2.8L1065.9,567.3z"/>
		</g>
		<polygon class="st20" points="1021.7,491.3 1023.2,498.5 1052.1,498.5 1055.6,489.2 		"/>
		<path class="st21" d="M1052.1,498.5l3.5-9.4l-33.8,2.1l0.6,3c8.8,2.1,25.8,0.2,25.8,0.2l-1,4H1052.1z"/>
		<path class="st22" d="M1034,494l-36.7-1.9c0,0-6.1-13.6,18.4-21.4c24.5-7.8,30.8-13.1,33.2-24.3c2.4-11.2,10.3-79.6,10.3-79.6
			h40.5c0,0-2.1,20.4-2.3,22.7c-0.1,2.3-0.3,64.5-7.9,74.7c-7.6,10.2-19.8,19-25.7,20.7S1034,494,1034,494z"/>
		<g>
			<path class="st23" d="M1034.7,494c-2.1,0-3.8-1.6-4-3.7c-0.2-2.2,1.5-4.1,3.7-4.3c9.9-0.8,37.3-4.4,44.6-11.7
				c8.8-8.8,14.9-29.8,15.9-103.6c0-2.2,1.8-4,4-4c0,0,0,0,0.1,0c2.2,0,4,1.9,4,4.1c-1.1,76.8-7.8,98.7-18.3,109.1
				c-10.6,10.6-45.6,13.7-49.6,14C1034.9,494,1034.8,494,1034.7,494z"/>
		</g>
		<rect x="1040.6" y="531.8" class="st21" width="2.5" height="24.8"/>
	</g>
	<polygon class="st24" points="831.6,570.3 845.1,443.4 896.4,443.4 907.9,570.3 913.8,570.3 904.4,434.1 836.6,434.1 825.3,570.3 	
		"/>
	<g>
		<g>
			<path class="st22" d="M874.1,419.2c-0.3,0-0.6,0-0.9,0l0.2-1.7c1.8,0.2,3.1-0.3,4-1.5c0.9-1.3,0.9-2.9,0.4-3.8
				c-0.7-1.6-4.1-0.2-4.2-0.2l-0.7-1.6c1.8-0.8,5.2-1.5,6.4,1c0.8,1.7,0.5,4-0.6,5.6C877.8,418.5,876.1,419.2,874.1,419.2z"/>
		</g>
		<path class="st25" d="M875.3,411.5l-0.1-1.7c-0.8,0.1-1.6,0.4-2.2,0.6l0.7,1.6C873.7,412,874.5,411.7,875.3,411.5z M875.6,417.3
			c-0.6,0.2-1.4,0.3-2.2,0.2l-0.2,1.7c0.3,0,0.6,0,0.9,0c0.6,0,1.1-0.1,1.6-0.2L875.6,417.3z"/>
		<path class="st22" d="M872.5,428H857c-0.7,0-1.3-0.6-1.3-1.3v-21c0-0.7,0.6-1.3,1.3-1.3h15.5c0.7,0,1.3,0.6,1.3,1.3v21
			C873.8,427.4,873.2,428,872.5,428z"/>
		<rect x="857.5" y="405.2" class="st26" width="1.7" height="22.8"/>
	</g>
	<g>
		<path class="st27" d="M999.8,308.5c0,0-4-3.2-2.1-9.6c2-6.4,9.2-9.5,9.2-9.5l-0.4,1.1c0,0,12.6-7.1,30.7-2.1l-1,0.6
			c0,0,12.5,3.9,13.3,24.1l-2-3.2c0,0,0.8,11.9,1,15.6c0.2,3.7,0.4,13.9,1,16.7l-4.8-5.9c0,0-2.4,9.7-3.9,11.5l-2.6-6.6
			c0,0-1.6,2.9-4.4,4.5C1033.8,345.7,1038.5,312.3,999.8,308.5z"/>
		<path class="st28" d="M1017.5,352.7l-0.6-3.3l17-7.9l2.3,6.2c0,0,0.2,4.2-2.5,6.7c-2.8,2.5-7.3,5.1-9.3,6.1c-2,1-5.4-1.9-5.4-1.9
			L1017.5,352.7z"/>
		<path class="st29" d="M1033.9,341.5l-17,7.9l0.6,3.3l0,0c3.7,1.2,7.7,0.2,10.9-2.6c2.6-2.3,4.8-4.7,6.3-6.5L1033.9,341.5z"/>
		<path class="st30" d="M1014.3,355.5l8.9,3.6l20-6.4c0,0-4.3,16.9-6.4,19.9c-2.1,3-13.6,12.5-13.6,12.5s-6.8-10.2-8.8-16
			C1012.5,363.3,1014.3,355.5,1014.3,355.5z"/>
		<path class="st23" d="M1021.2,365.5c0,0-2.3,8-2.2,13.2s4.2,6.5,4.2,6.5l6.7-5.6c0,0-2.3-10.3-2.1-14
			C1027.8,365.5,1022.6,364.9,1021.2,365.5z"/>
		<path class="st31" d="M1029.1,380.1l0.7-0.6c0,0-2.3-10.3-2.1-14c0,0-3.8-0.4-5.8-0.2l-0.8,0.2c0,0,4.7,0.9,5.3,0.9
			C1026.6,366.4,1027.4,376.2,1029.1,380.1z"/>
		<path class="st32" d="M1015.7,361.9l2.4,3.7c0,0,2.9-3.8,5.5-6.1c0,0,4.7,2.3,6.2,7c0,0,6.1-2.2,11.4-9.8c0,0,1.7-2.3,1.7-2.3
			c0-0.1-0.2-1.6-0.6-1.7c-0.4-0.1-4.3,0.4-5.1,0.8c-0.8,0.4-11.7,5.1-11.7,5.1l-2.3,0.4L1015.7,361.9z"/>
		<path class="st23" d="M1020.2,359.9c-0.1,0.2,0.4,3.7,1,5.5c0,0,4.5,0.3,6.6,0l0.5-5.5l-5-0.8L1020.2,359.9z"/>
		<path class="st31" d="M1020.6,362.7c0.9-1.1,2-2.2,3.1-3.1c0,0,2.4,1.2,4.3,3.6l0.3-3.2l-5-0.8l-3,1.1
			C1020.3,360.7,1020.4,361.6,1020.6,362.7z"/>
		<path class="st33" d="M992.8,362.5c0,0-3.5,2.7-5.7,6.1c-2.3,3.5-18.6,29.5-18.6,29.5l-47,18.5c0,0,7.3,3.8,8.3,10.2
			c0,0,45.6-12.3,51.2-15.5c0,0,15-15,16.4-16.7S992.8,362.5,992.8,362.5z"/>
		<path class="st34" d="M995.7,396.4c-4.1-18-3.2-32.3-3.2-32.3c-1.9,7.5-0.3,29.6-0.3,29.6l-11.4,17.7
			C980.9,411.4,991.4,400.8,995.7,396.4L995.7,396.4z"/>
		<path class="st28" d="M897.9,426.9c0,0,3.2-7.2,8.9-8.9c5.7-1.7,14.6-1.3,14.6-1.3s8,3.7,8.3,10.2H897.9z"/>
		<path class="st33" d="M1053.1,355.6c0,0,12.7,3.8,14.8,6.3c0,0-1.6,53.2,0,62.9c1.6,9.7,3.4,19.6,3.6,33.9l-66.6-2.5
			c0,0-0.2-18-1.9-27.7c-1.8-9.7-8.9-36.5-10.1-49.2c-1.2-12.7,0-17,0-17l22.3-8c0,0-3,7.6-0.7,14.6c2.3,7,8.6,14.6,8.6,14.6
			s8.2-4.1,11.5-8.4c3.3-4.3,11.6-19.2,11.6-19.2L1053.1,355.6z"/>
		<path class="st35" d="M1008,357l-15.2,5.5c0,0-3.5,2.7-5.7,6.1c-2.3,3.5-18.6,29.5-18.6,29.5l-29.9,11.8c-0.3,0.6-0.5,1-0.6,1.5
			l31.2-12.3c0,0,17.9-27.6,18.9-30c0,0,2.3-3.8,4.5-5.4l15-5.8L1008,357z"/>
		<path class="st34" d="M1067.9,424.8c-0.6-3.8-0.8-14.3-0.7-25.6c-5.5-6.4-15.6-8.9-15.6-8.9s2.4,13.5,4.4,17.5
			c2,4,2.8,8.9,2.8,8.9l-28.9,4c0,0,1,9.5,1.5,9.8c0.4,0.2,28.9,2.9,38,3.5C1068.9,430.8,1068.3,427.8,1067.9,424.8z"/>
		<path class="st34" d="M1023,383.7c0,0,1.3,9.4,3.2,15.6c1.9,6.2,3.9,34,4.6,38.8v18.2h0.7v-18.2c0,0-2.3-31.5-4.5-38.8l-3.3-15.6
			H1023z"/>
		<path class="st29" d="M998.5,423.4c0,0-0.1-4.3,2.5-4.5c2.7-0.2,3.5,0,3.5,0l-0.4,4.5H998.5z"/>
		<path class="st30" d="M928.1,559.5c0,0,0.9,2.8,1.1,5.1c0.2,2.3,0,5.8,0,5.8h-52.7c0,0,0.6-3.7,1.7-5.8c1.1-2.1,5.7-3,10.7-3.2
			c4.6-0.2,13.2-2.6,16-4.1c0.2-0.1,0.4-0.2,0.6-0.3C907.4,555.5,928.1,559.5,928.1,559.5z"/>
		<path class="st36" d="M877.2,567c-0.5,1.7-0.7,3.3-0.7,3.3h52.7c0,0,0.1-1.6,0.1-3.3H877.2z"/>
		<path class="st36" d="M1032.6,456.3h-27.8c0,0-47,10.7-52.7,14.6c-5.7,3.9-46,86.2-46,86.2l22.1,2.5l44.5-63.4
			c0,0,60.9-17.1,61.6-18.2C1035.1,477,1038.6,467,1032.6,456.3z"/>
		<path class="st37" d="M954.9,557.8c0,0,16.4-77.3,18.5-81.2c2.1-3.9,8.6-6.8,15-8.6c6.4-1.8,44.2-11.8,44.2-11.8l38.8,2.5
			c0,0-1.1,17.1-11.8,21.4c-10.7,4.3-60.9,11.6-60.9,11.6L978.8,561L954.9,557.8z"/>
		<path class="st30" d="M954.9,557.8c0,0-11.9,3.9-16.6,4.8c-4.6,0.9-7.5,2.3-8.9,4.1s-0.9,4.5-0.9,4.5l51-0.4c0,0,0.4-5-0.7-9.8
			L954.9,557.8z"/>
		<path class="st36" d="M928.5,571.2l51-0.4c0,0,0.2-1.5,0.1-3.8l-50.5,0.2C928.1,569,928.5,571.2,928.5,571.2z"/>
		<path class="st33" d="M1027.8,410.1l34.2-9.4l-10.4-10.4c0,0-3.5-11.8,2.7-21.1c6.1-9.4,11.8-7.3,13.6-7.2s13.6,23.8,20,42
			c0,0-0.8,11.2-7.8,14.4l-44.1,5.1C1036,423.4,1037.6,414.4,1027.8,410.1z"/>
		<path class="st35" d="M1027.8,410.1c0.3,0.2,0.7,0.3,1,0.5c4.2-1.2,36-10.5,41.6-10.8c0,0-6,0.3-8.4,1L1027.8,410.1z"/>
		<path class="st28" d="M1003.2,423.4c0,0-1.2-3.4,1-6c2.2-2.6,4.1-5.1,7.2-5.9c3.1-0.8,12.6-1.8,16.4-1.4c0,0,4.7,1.2,7.2,4.6
			c2.4,3.3,1.2,8.8,1.2,8.8L1003.2,423.4z"/>
		<path class="st29" d="M1025,423.4h11.1c-1.8-1.6-4.8-4.2-6.6-3.8C1028.2,419.8,1026.2,421.8,1025,423.4z"/>
		<path class="st29" d="M1019.1,423.4c0.5-2.6,1.7-5.4,1.7-5.4c-1.5,1.2-2.8,3.9-3.3,5.4L1019.1,423.4z"/>
		<path class="st29" d="M1013.2,423.4c1-2.3,1.9-5.4,1.9-5.4c-1.6,1-3,3.9-3.8,5.4L1013.2,423.4z"/>
		<path class="st29" d="M1008,423.4c0.8-2.7,1.9-6.7,1.9-6.7c-1.8,1-3.1,4.8-3.8,6.7L1008,423.4z"/>
		<path class="st35" d="M1023,383.7c0,0,14.2-7.9,19.5-31.5l11.1,2.7c0,0-6.3,9.8-12.3,13.8l2.1,2.1
			C1043.4,370.8,1033.4,383.2,1023,383.7z"/>
		<path class="st35" d="M1023,383.7c0,0-9.2-15.8-7.9-29.3l-7.8,2.4c0,0,2.1,9.3,4.5,13.1l-1.9,0.8
			C1009.9,370.8,1015.2,380.8,1023,383.7z"/>
		<path class="st34" d="M1051,388.3c0,0-4.8-22.6,13.8-26.6C1064.8,361.8,1049,365,1051,388.3z"/>
		<path class="st30" d="M1023.2,359.1c0,0,9.3-5.2,13-11.3c0,0,4.2,2.1,7.2,4.6c0,0-7,10.3-12.4,13.1
			C1031,365.5,1027.6,359.8,1023.2,359.1z"/>
		<path class="st30" d="M1023.2,359.1c0,0-4.7-4.1-5.7-6.4c0,0-2.7,0.9-3.9,2.4c0,0,0.6,6.6,3.3,10.4
			C1016.9,365.5,1020.9,359.8,1023.2,359.1z"/>
		<path class="st30" d="M1039.1,423.1c0.2-1.7,0.4-5.4-0.9-8.3c-1.4-3.3-5.2-5.2-6.5-5.8l-4,1.1c9.8,4.4,8.3,13.4,8.3,13.4
			L1039.1,423.1z"/>
		<path class="st28" d="M999.8,308.5c0,0-0.4,6.9,0.5,11.8c0.9,4.9,1.1,11.2,1.5,14.5c0.4,3.3,3.1,7.4,10,11.8
			c6.9,4.4,6.7,3.8,8.4,3.8c1.7,0,12.2-5.3,15-9.9c2.9-4.5,3.7-4.9,4.6-11.1c0.9-6.2,2.2-22.6-7.7-29.9
			C1022.3,292.3,1005.4,290.9,999.8,308.5z"/>
		<path class="st27" d="M999.8,308.5c0,0,3.2-4.7,7.1-4.5c0,0,9.5-3.7,16-1.8c0,0,3.7,4.9,4.8,8.6l0.6-5.7c0,0,3.9,8.9,4.4,14.4
			c0.4,5.5,0.6,7.2,0.6,7.2s2.8-6.9,4.5-7.5c1.7-0.5,5.1,1.8,5.1,1.8s5.9-16.1-8.4-24.8c-14.3-8.6-20.5-4.9-26.5-2.5
			C1001.9,296.3,999.9,304.1,999.8,308.5z"/>
		<path class="st38" d="M1048.6,325.4c-0.2-3.7-1-15.6-1-15.6l2,3.2c-0.1-2.7-0.4-5.2-0.9-7.3c-1.1-1.4-1.9-2.3-1.9-2.3l-2,4.7
			c0,0-4.7-7-7.9-11.6c-3.2-4.7-13.9-7.4-13.9-7.4s4.9,3.4,7.7,6.3s6.2,10.4,7.2,12.8c1,2.4,1.8,19.8-1,24.5
			c-0.8,1.4-1.9,3.3-3.1,5.3c0.5,4.6,0.1,7.8,0.1,7.8c2.9-1.6,4.4-4.5,4.4-4.5l2.6,6.6c1.5-1.7,3.9-11.5,3.9-11.5l4.8,5.9
			C1049,339.3,1048.8,329.1,1048.6,325.4z"/>
		<path class="st38" d="M1041.8,303.8c-0.6-0.9-1.3-1.9-2-2.9c-1.3-1.6-3.1-3.2-5.3-4.5c-2.3-1.4-4.4-2.5-6.3-3.3
			c0.9,0.7,1.7,1.5,2.4,2.3c2.8,2.9,6.2,10.4,7.2,12.8c0.5,1.2,0.9,6,0.9,11.1c1.8,0.2,4.2,1.8,4.2,1.8S1046.3,312,1041.8,303.8z"/>
		<path class="st39" d="M1038.7,310.7c-2-10.9-7.4-24.5-27.8-22.6l-4.4,2.3c0,0,14.9-3.9,23.4,7c3.5,4.5,5.2,9.5,6,13.8
			C1036.7,311.1,1037.7,310.8,1038.7,310.7z"/>
		
			<ellipse transform="matrix(0.9972 -7.444765e-02 7.444765e-02 0.9972 -21.0491 78.1568)" class="st39" cx="1037.8" cy="321.4" rx="7.7" ry="11.3"/>
		<path class="st40" d="M1045.6,319.9c0.4,5-2.1,9.2-5.4,9.5c-3.4,0.3-6.4-3.6-6.8-8.5c-0.4-5,2.1-9.2,5.4-9.5
			C1042.2,311.1,1045.2,314.9,1045.6,319.9z"/>
		<g>
			<path class="st40" d="M1017.7,343.1c-0.4,0-0.7-0.3-0.8-0.6c-0.1-0.5,0.2-0.9,0.6-1c3.7-1,10-2.7,10.9-3.2
				c0.7-0.4,3.7-4.6,6.1-8.3c0.3-0.4,0.8-0.5,1.2-0.2c0.4,0.3,0.5,0.8,0.2,1.2c-1.2,1.9-5.3,8-6.7,8.8c-1.4,0.8-9.7,3-11.4,3.4
				C1017.8,343.1,1017.8,343.1,1017.7,343.1z"/>
		</g>
		<circle class="st39" cx="1016.7" cy="342.4" r="2.3"/>
		<path class="st41" d="M1008.9,319.9c0.2,1.3-0.1,2.5-0.7,2.6c-0.6,0.1-1.3-0.9-1.5-2.2c-0.2-1.3,0.1-2.5,0.7-2.6
			C1007.9,317.6,1008.6,318.6,1008.9,319.9z"/>
		<path class="st41" d="M1021.4,319.5c0.1,1.3-0.3,2.4-1,2.5c-0.6,0-1.2-1-1.3-2.3c-0.1-1.3,0.3-2.4,1-2.5
			C1020.7,317.1,1021.3,318.1,1021.4,319.5z"/>
		<g>
			<path class="st27" d="M1016.9,312.9c-0.2,0-0.3-0.1-0.4-0.2c-0.2-0.2-0.2-0.6,0.1-0.8c0.1-0.1,3-2.5,7-1.1
				c0.3,0.1,0.4,0.4,0.3,0.7c-0.1,0.3-0.4,0.4-0.7,0.3c-3.4-1.2-6,0.9-6,0.9C1017.1,312.8,1017,312.9,1016.9,312.9z"/>
		</g>
		<g>
			<path class="st27" d="M1003.8,314.9c-0.1,0-0.3,0-0.4-0.1c-0.2-0.2-0.2-0.5,0-0.8c1.7-1.9,5.5-1.1,5.7-1.1
				c0.3,0.1,0.5,0.3,0.4,0.6c-0.1,0.3-0.4,0.5-0.6,0.4c-0.9-0.2-3.6-0.5-4.7,0.7C1004.1,314.9,1004,314.9,1003.8,314.9z"/>
		</g>
		<path class="st42" d="M1015.1,328.9c0,0-3.4,0.4-4,0c-0.6-0.4,1.5-0.7,2.5-0.6C1014.6,328.4,1015.1,328.9,1015.1,328.9z"/>
		<path class="st43" d="M1011.8,336.9c0,0,6.1,0.1,9.4-1.3c0,0-1.2,3.5-4.7,3.6C1013.1,339.3,1011.8,336.9,1011.8,336.9z"/>
		<path class="st23" d="M1017.3,337.1c-1.3,0.2-2.5,1.2-3.1,1.8c0.6,0.2,1.4,0.4,2.3,0.4c2.2,0,3.5-1.4,4.1-2.5
			C1019.9,336.8,1018.6,336.9,1017.3,337.1z"/>
		<path class="st30" d="M1011.8,336.9c0,0,0.2,0.4,0.8,0.9c2.1-0.1,5.6-0.3,8-1c0.4-0.7,0.6-1.2,0.6-1.2
			C1017.9,337,1011.8,336.9,1011.8,336.9z"/>
	</g>
	<g>
		<polygon class="st44" points="976,404.6 874.5,403.5 862.5,332.7 964,333.7 		"/>
		<polygon class="st45" points="930.5,373.8 931.8,404.1 944,404.2 		"/>
		<polygon class="st46" points="911.3,425.7 897.4,373.8 930.5,373.8 944.9,424.8 		"/>
		<polygon class="st19" points="911.3,425.7 944.9,424.8 943.7,420.5 909.9,420.5 		"/>
		<polygon class="st47" points="927.4,373.8 941.8,424.8 944.9,424.8 930.5,373.8 		"/>
		<polygon class="st48" points="940.6,420.5 941.8,424.8 944.9,424.8 943.7,420.5 		"/>
		<rect x="953.8" y="423.4" class="st49" width="82.2" height="4.5"/>
		<rect x="884" y="423.4" class="st50" width="85.2" height="4.5"/>
		<rect x="884" y="423.4" class="st46" width="71.4" height="4.5"/>
		<circle class="st51" cx="964.2" cy="397.7" r="1.4"/>
		<path class="st52" d="M964.6,392.3c0,0.8-0.6,1.4-1.4,1.4s-1.4-0.6-1.4-1.4c0-0.8,0.6-1.4,1.4-1.4S964.6,391.5,964.6,392.3z"/>
		<polygon class="st53" points="960.8,333.7 973.2,404.5 976,404.6 964,333.7 		"/>
		<path class="st45" d="M897,346l2.6,15.3l1.7-0.3l-2.6-15.3L897,346z M901.9,346l2.6,15.3l1.7-0.3l-2.6-15.3L901.9,346z M906.8,346
			l2.6,15.3l1.7-0.3l-2.6-15.3L906.8,346z M911.7,346l2.6,15.3l1.7-0.3l-2.6-15.3L911.7,346z M916.6,346l2.6,15.3l1.7-0.3l-2.6-15.3
			L916.6,346z M923.1,345.7l-1.7,0.3l2.6,15.3l1.7-0.3L923.1,345.7z"/>
	</g>
	<polygon class="st54" points="983.8,570.8 997.3,443.5 1048.6,443.5 1060.1,570.8 1066,570.8 1056.6,434.1 988.7,434.1 
		977.5,570.8 	"/>
	<g>
		<path class="st33" d="M898.9,279.3l2.9,1.3l0.4-1l-2.9-1.3L898.9,279.3z M925.3,291.3l5.4,2.5l0.4-1l-5.4-2.5L925.3,291.3z
			 M910.9,284.8l5.4,2.5l0.4-1l-5.4-2.5L910.9,284.8z M939.7,297.9l5.4,2.5l0.4-1l-5.4-2.5L939.7,297.9z M968.5,311l5.4,2.5l0.4-1
			l-5.4-2.5L968.5,311z M954.1,304.5l5.4,2.5l0.4-1l-5.4-2.5L954.1,304.5z M983.4,316.6l-0.4,1l2.9,1.3l0.4-1L983.4,316.6z"/>
		<path class="st33" d="M1015.1,274.6l-0.5-6.4l1.1-0.1l0.5,6.4L1015.1,274.6z M1013.9,257.5l-0.5-6.4l1.1-0.1l0.5,6.4L1013.9,257.5
			z"/>
		<path class="st33" d="M1066.3,323l-0.3-1l6.1-2l0.3,1L1066.3,323z M1082.5,317.6l-0.3-1l6.1-2l0.3,1L1082.5,317.6z M1098.7,312.2
			l-0.3-1l6.1-2l0.3,1L1098.7,312.2z"/>
		<path class="st33" d="M1098,237.4l-5.4-3.4l0.6-0.9l5.4,3.4L1098,237.4z M1083.6,228.3l-5.4-3.4l0.6-0.9l5.4,3.4L1083.6,228.3z
			 M1069.1,219.1l-5.4-3.4l0.6-0.9l5.4,3.4L1069.1,219.1z"/>
		<path class="st33" d="M909.1,228l-0.4-1l6-2.3l0.4,1L909.1,228z M925.1,221.9l-0.4-1l6-2.3l0.4,1L925.1,221.9z M941,215.7l-0.4-1
			l6-2.3l0.4,1L941,215.7z"/>
	</g>
	<g>
		<polygon class="st33" points="911.1,189.4 907.2,185.8 911.1,182.2 912,183.1 909.1,185.8 912,188.5 		"/>
		<polygon class="st33" points="1120,165.5 1116.1,161.8 1120,158.2 1120.8,159.1 1117.9,161.8 1120.8,164.5 		"/>
		<polygon class="st33" points="1148.3,388.8 1144.4,385.1 1148.3,381.5 1149.2,382.4 1146.3,385.1 1149.2,387.8 		"/>
		<g>
			<polygon class="st33" points="818.9,320.8 815.1,317.1 818.9,313.5 819.8,314.5 816.9,317.1 819.8,319.8 			"/>
		</g>
		<g>
			<polygon class="st33" points="825.7,320.8 821.8,317.1 825.7,313.5 826.6,314.5 823.7,317.1 826.6,319.8 			"/>
		</g>
		<g>
			<polygon class="st33" points="1062.7,276.2 1058.8,272.6 1062.7,268.9 1063.6,269.9 1060.7,272.6 1063.6,275.3 			"/>
		</g>
		<g>
			<polygon class="st33" points="1069.5,276.2 1065.6,272.6 1069.5,268.9 1070.4,269.9 1067.5,272.6 1070.4,275.3 			"/>
		</g>
	</g>
	<g>
		<g>
			<path class="st33" d="M841.9,184.9c-32.3,0-58.5,26.2-58.5,58.5c0,32.3,26.2,58.5,58.5,58.5c32.3,0,58.5-26.2,58.5-58.5
				C900.4,211.1,874.2,184.9,841.9,184.9z M841.9,298.3c-30.3,0-54.9-24.6-54.9-54.9s24.6-54.9,54.9-54.9s54.9,24.6,54.9,54.9
				S872.3,298.3,841.9,298.3z"/>
		</g>
		<path class="st33" d="M839.8,295.4c-0.7,0-1.4-0.1-2.1-0.1l0-0.5c0.7,0.1,1.4,0.1,2.1,0.1L839.8,295.4z M844.1,295.4l0-0.5
			c0.7,0,1.4-0.1,2.1-0.1l0,0.5C845.5,295.3,844.8,295.3,844.1,295.4z M833.4,294.7c-0.7-0.1-1.4-0.2-2.1-0.4l0.1-0.5
			c0.7,0.1,1.4,0.3,2.1,0.4L833.4,294.7z M850.5,294.7l-0.1-0.5c0.7-0.1,1.4-0.2,2.1-0.4l0.1,0.5
			C851.9,294.5,851.2,294.6,850.5,294.7z M827.1,293.3c-0.7-0.2-1.4-0.4-2-0.7l0.2-0.5c0.7,0.2,1.3,0.4,2,0.6L827.1,293.3z
			 M856.7,293.3l-0.2-0.5c0.7-0.2,1.4-0.4,2-0.6l0.2,0.5C858.1,292.8,857.4,293.1,856.7,293.3z M821,291c-0.7-0.3-1.3-0.6-2-0.9
			l0.2-0.5c0.6,0.3,1.3,0.6,1.9,0.9L821,291z M862.8,291l-0.2-0.5c0.6-0.3,1.3-0.6,1.9-0.9l0.2,0.5
			C864.1,290.4,863.4,290.7,862.8,291z M815.3,288.1c-0.6-0.4-1.2-0.7-1.8-1.1l0.3-0.4c0.6,0.4,1.2,0.8,1.8,1.1L815.3,288.1z
			 M868.5,288.1l-0.3-0.5c0.6-0.4,1.2-0.7,1.8-1.1l0.3,0.4C869.7,287.3,869.1,287.7,868.5,288.1z M810,284.5
			c-0.6-0.4-1.1-0.9-1.7-1.4l0.3-0.4c0.5,0.5,1.1,0.9,1.7,1.3L810,284.5z M873.8,284.5l-0.3-0.4c0.6-0.4,1.1-0.9,1.6-1.3l0.3,0.4
			C874.9,283.6,874.4,284,873.8,284.5z M805.2,280.2c-0.5-0.5-1-1-1.5-1.5l0.4-0.4c0.5,0.5,1,1,1.5,1.5L805.2,280.2z M878.6,280.2
			l-0.4-0.4c0.5-0.5,1-1,1.5-1.5l0.4,0.4C879.7,279.2,879.2,279.7,878.6,280.2z M800.9,275.4c-0.4-0.6-0.9-1.1-1.3-1.7l0.4-0.3
			c0.4,0.6,0.8,1.1,1.3,1.7L800.9,275.4z M882.9,275.4l-0.4-0.3c0.4-0.6,0.9-1.1,1.3-1.7l0.4,0.3
			C883.8,274.2,883.4,274.8,882.9,275.4z M797.2,270.1c-0.4-0.6-0.7-1.2-1.1-1.9l0.5-0.3c0.3,0.6,0.7,1.2,1.1,1.8L797.2,270.1z
			 M886.6,270l-0.5-0.3c0.4-0.6,0.7-1.2,1.1-1.8l0.5,0.3C887.3,268.8,886.9,269.4,886.6,270z M794.3,264.3c-0.3-0.7-0.6-1.3-0.8-2
			l0.5-0.2c0.3,0.7,0.5,1.3,0.8,2L794.3,264.3z M889.5,264.3l-0.5-0.2c0.3-0.6,0.6-1.3,0.8-2l0.5,0.2
			C890.1,263,889.8,263.7,889.5,264.3z M792.1,258.3c-0.2-0.7-0.4-1.4-0.6-2.1l0.5-0.1c0.2,0.7,0.4,1.4,0.6,2L792.1,258.3z
			 M891.7,258.3l-0.5-0.2c0.2-0.7,0.4-1.4,0.6-2l0.5,0.1C892.1,256.9,891.9,257.6,891.7,258.3z M790.6,252c-0.1-0.7-0.2-1.4-0.3-2.1
			l0.5-0.1c0.1,0.7,0.2,1.4,0.3,2.1L790.6,252z M893.2,252l-0.5-0.1c0.1-0.7,0.2-1.4,0.3-2.1l0.5,0.1
			C893.4,250.6,893.3,251.3,893.2,252z M790,245.6c0-0.7,0-1.4,0-2.1h0.5c0,0.7,0,1.4,0,2.1L790,245.6z M893.8,245.6l-0.5,0
			c0-0.7,0-1.4,0-2.1h0.5C893.9,244.2,893.9,244.9,893.8,245.6z M893.3,241.2c0-0.7-0.1-1.4-0.1-2.1l0.5,0c0.1,0.7,0.1,1.4,0.1,2.1
			L893.3,241.2z M790.6,239.2l-0.5,0c0.1-0.7,0.1-1.4,0.2-2.1l0.5,0.1C790.8,237.8,790.7,238.5,790.6,239.2z M892.6,234.9
			c-0.1-0.7-0.2-1.4-0.4-2.1l0.5-0.1c0.1,0.7,0.3,1.4,0.4,2.1L892.6,234.9z M791.5,232.9l-0.5-0.1c0.1-0.7,0.3-1.4,0.5-2.1l0.5,0.1
			C791.8,231.5,791.7,232.2,791.5,232.9z M891.2,228.7c-0.2-0.7-0.4-1.4-0.7-2l0.5-0.2c0.2,0.7,0.5,1.4,0.7,2L891.2,228.7z
			 M793.2,226.8l-0.5-0.2c0.2-0.7,0.5-1.4,0.7-2l0.5,0.2C793.7,225.4,793.4,226.1,793.2,226.8z M889,222.7c-0.3-0.6-0.6-1.3-0.9-1.9
			l0.5-0.2c0.3,0.6,0.6,1.3,0.9,1.9L889,222.7z M795.7,220.9l-0.5-0.2c0.3-0.6,0.6-1.3,1-1.9l0.5,0.3
			C796.3,219.6,796,220.2,795.7,220.9z M886.1,217.1c-0.4-0.6-0.7-1.2-1.1-1.8l0.4-0.3c0.4,0.6,0.8,1.2,1.1,1.8L886.1,217.1z
			 M798.8,215.3l-0.4-0.3c0.4-0.6,0.8-1.2,1.2-1.8l0.4,0.3C799.6,214.1,799.2,214.7,798.8,215.3z M882.5,211.8
			c-0.4-0.6-0.9-1.1-1.3-1.6l0.4-0.3c0.5,0.5,0.9,1.1,1.4,1.7L882.5,211.8z M802.6,210.2l-0.4-0.3c0.5-0.5,0.9-1.1,1.4-1.6l0.4,0.4
			C803.6,209.1,803.1,209.7,802.6,210.2z M878.2,207c-0.5-0.5-1-1-1.5-1.5l0.4-0.4c0.5,0.5,1,1,1.6,1.5L878.2,207z M807,205.6
			l-0.4-0.4c0.5-0.5,1.1-1,1.6-1.4l0.3,0.4C808.1,204.7,807.6,205.1,807,205.6z M873.5,202.8c-0.6-0.4-1.1-0.9-1.7-1.3l0.3-0.4
			c0.6,0.4,1.2,0.8,1.7,1.3L873.5,202.8z M812,201.6l-0.3-0.4c0.6-0.4,1.2-0.8,1.8-1.2l0.3,0.4C813.1,200.8,812.6,201.2,812,201.6z
			 M868.2,199.2c-0.6-0.4-1.2-0.7-1.9-1.1l0.3-0.5c0.6,0.3,1.3,0.7,1.9,1.1L868.2,199.2z M817.4,198.2l-0.3-0.5
			c0.6-0.3,1.3-0.7,1.9-1l0.2,0.5C818.6,197.5,818,197.9,817.4,198.2z M862.5,196.3c-0.7-0.3-1.3-0.6-2-0.8l0.2-0.5
			c0.7,0.3,1.3,0.5,2,0.8L862.5,196.3z M823.2,195.5L823,195c0.7-0.3,1.3-0.5,2-0.7l0.2,0.5C824.5,195,823.8,195.3,823.2,195.5z
			 M856.5,194.1c-0.7-0.2-1.4-0.4-2.1-0.6l0.1-0.5c0.7,0.2,1.4,0.4,2.1,0.6L856.5,194.1z M829.2,193.6l-0.1-0.5
			c0.7-0.2,1.4-0.3,2.1-0.5l0.1,0.5C830.6,193.2,829.9,193.4,829.2,193.6z M850.3,192.7c-0.7-0.1-1.4-0.2-2.1-0.3l0.1-0.5
			c0.7,0.1,1.4,0.2,2.1,0.3L850.3,192.7z M835.5,192.4l-0.1-0.5c0.7-0.1,1.4-0.2,2.1-0.2l0,0.5C836.9,192.2,836.2,192.3,835.5,192.4
			z M844,192c-0.7,0-1.4,0-2.1,0l0-0.5h0c0.7,0,1.4,0,2.1,0L844,192z"/>
		<path class="st33" d="M807.3,229.2V260c0,4.3,3.5,7.8,7.8,7.8h24.2c3.2,6.2,11.3,8.1,11.7,8.2c0.1,0,0.1,0,0.2,0
			c0.3,0,0.5-0.2,0.6-0.4c0.1-0.3,0-0.7-0.2-0.9c-2.8-2.1-4-4.8-4.4-6.9H873c4.3,0,7.8-3.5,7.8-7.8v-30.7c0-4.3-3.5-7.8-7.8-7.8h-58
			C810.8,221.4,807.3,224.9,807.3,229.2z M808.7,229.2c0-3.5,2.9-6.4,6.4-6.4h58c3.5,0,6.4,2.9,6.4,6.4V260c0,3.5-2.9,6.4-6.4,6.4
			h-26.7c-0.2,0-0.4,0.1-0.5,0.2c-0.1,0.2-0.2,0.4-0.2,0.5c0.2,1.8,0.9,4.2,2.7,6.4c-2.6-1.1-6.3-3.2-8-6.8
			c-0.1-0.2-0.4-0.4-0.6-0.4h-24.6c-3.5,0-6.4-2.9-6.4-6.4V229.2z M866.8,234.6H828c-0.6,0-1.1,0.5-1.1,1.1c0,0.6,0.5,1.1,1.1,1.1
			h38.8c0.6,0,1.1-0.5,1.1-1.1C867.9,235.1,867.4,234.6,866.8,234.6z M866.8,240.5h-43.3c-0.6,0-1.1,0.5-1.1,1.1s0.5,1.1,1.1,1.1
			h43.3c0.6,0,1.1-0.5,1.1-1.1S867.4,240.5,866.8,240.5z M823.5,248.5h23.8c0.6,0,1.1-0.5,1.1-1.1s-0.5-1.1-1.1-1.1h-23.8
			c-0.6,0-1.1,0.5-1.1,1.1S822.9,248.5,823.5,248.5z M866.8,246.4h-11.5c-0.6,0-1.1,0.5-1.1,1.1s0.5,1.1,1.1,1.1h11.5
			c0.6,0,1.1-0.5,1.1-1.1S867.4,246.4,866.8,246.4z M846.9,253.3c0-0.6-0.5-1.1-1.1-1.1h-22.4c-0.6,0-1.1,0.5-1.1,1.1
			s0.5,1.1,1.1,1.1h22.4C846.5,254.4,846.9,253.9,846.9,253.3z"/>
	</g>
	<g>
		<g>
			<path class="st33" d="M1007.7,122.8c-32.3,0-58.5,26.2-58.5,58.5c0,32.3,26.2,58.5,58.5,58.5s58.5-26.2,58.5-58.5
				C1066.3,149,1040,122.8,1007.7,122.8z M1007.7,236.2c-30.3,0-54.9-24.6-54.9-54.9c0-30.3,24.6-54.9,54.9-54.9
				s54.9,24.6,54.9,54.9C1062.6,211.6,1038.1,236.2,1007.7,236.2z"/>
		</g>
		<path class="st33" d="M1005.6,233.2c-0.7,0-1.4-0.1-2.1-0.1l0-0.5c0.7,0.1,1.4,0.1,2.1,0.1L1005.6,233.2z M1009.9,233.2l0-0.5
			c0.7,0,1.4-0.1,2.1-0.1l0,0.5C1011.3,233.1,1010.6,233.2,1009.9,233.2z M999.2,232.6c-0.7-0.1-1.4-0.2-2.1-0.4l0.1-0.5
			c0.7,0.1,1.4,0.3,2.1,0.4L999.2,232.6z M1016.3,232.6l-0.1-0.5c0.7-0.1,1.4-0.2,2.1-0.4l0.1,0.5
			C1017.7,232.3,1017,232.4,1016.3,232.6z M992.9,231.1c-0.7-0.2-1.4-0.4-2-0.7l0.2-0.5c0.7,0.2,1.3,0.4,2,0.6L992.9,231.1z
			 M1022.6,231.1l-0.2-0.5c0.7-0.2,1.4-0.4,2-0.6l0.2,0.5C1023.9,230.7,1023.2,230.9,1022.6,231.1z M986.9,228.9
			c-0.7-0.3-1.3-0.6-2-0.9l0.2-0.5c0.6,0.3,1.3,0.6,1.9,0.9L986.9,228.9z M1028.6,228.9l-0.2-0.5c0.6-0.3,1.3-0.6,1.9-0.9l0.2,0.5
			C1029.9,228.3,1029.3,228.6,1028.6,228.9z M981.1,226c-0.6-0.4-1.2-0.7-1.8-1.1l0.3-0.4c0.6,0.4,1.2,0.8,1.8,1.1L981.1,226z
			 M1034.3,225.9l-0.3-0.5c0.6-0.4,1.2-0.7,1.8-1.1l0.3,0.4C1035.6,225.2,1034.9,225.6,1034.3,225.9z M975.8,222.3
			c-0.6-0.4-1.1-0.9-1.7-1.4l0.3-0.4c0.5,0.5,1.1,0.9,1.7,1.3L975.8,222.3z M1039.6,222.3l-0.3-0.4c0.5-0.4,1.1-0.9,1.6-1.3l0.3,0.4
			C1040.8,221.4,1040.2,221.9,1039.6,222.3z M971,218c-0.5-0.5-1-1-1.5-1.5l0.4-0.4c0.5,0.5,1,1,1.5,1.5L971,218z M1044.5,218
			l-0.4-0.4c0.5-0.5,1-1,1.5-1.5l0.4,0.4C1045.5,217,1045,217.5,1044.5,218z M966.7,213.2c-0.4-0.6-0.9-1.1-1.3-1.7l0.4-0.3
			c0.4,0.6,0.8,1.1,1.3,1.7L966.7,213.2z M1048.7,213.2l-0.4-0.3c0.4-0.6,0.9-1.1,1.3-1.7l0.4,0.3
			C1049.6,212.1,1049.2,212.7,1048.7,213.2z M963.1,207.9c-0.4-0.6-0.7-1.2-1.1-1.9l0.5-0.3c0.3,0.6,0.7,1.2,1.1,1.8L963.1,207.9z
			 M1052.4,207.9l-0.5-0.3c0.4-0.6,0.7-1.2,1.1-1.8l0.5,0.3C1053.1,206.7,1052.7,207.3,1052.4,207.9z M960.1,202.2
			c-0.3-0.7-0.6-1.3-0.8-2l0.5-0.2c0.3,0.7,0.5,1.3,0.8,2L960.1,202.2z M1055.3,202.2l-0.5-0.2c0.3-0.6,0.6-1.3,0.8-2l0.5,0.2
			C1055.9,200.9,1055.6,201.5,1055.3,202.2z M957.9,196.2c-0.2-0.7-0.4-1.4-0.6-2.1l0.5-0.1c0.2,0.7,0.4,1.4,0.6,2L957.9,196.2z
			 M1057.6,196.1l-0.5-0.2c0.2-0.7,0.4-1.4,0.6-2l0.5,0.1C1057.9,194.7,1057.8,195.4,1057.6,196.1z M956.5,189.9
			c-0.1-0.7-0.2-1.4-0.3-2.1l0.5-0.1c0.1,0.7,0.2,1.4,0.3,2.1L956.5,189.9z M1059,189.8l-0.5-0.1c0.1-0.7,0.2-1.4,0.3-2.1l0.5,0.1
			C1059.2,188.4,1059.1,189.1,1059,189.8z M955.8,183.5c0-0.7,0-1.4,0-2.1h0.5c0,0.7,0,1.4,0,2.1L955.8,183.5z M1059.7,183.4l-0.5,0
			c0-0.7,0-1.4,0-2.1h0.5C1059.7,182,1059.7,182.7,1059.7,183.4z M1059.1,179.1c0-0.7-0.1-1.4-0.1-2.1l0.5,0
			c0.1,0.7,0.1,1.4,0.1,2.1L1059.1,179.1z M956.5,177.1l-0.5,0c0.1-0.7,0.1-1.4,0.2-2.1l0.5,0.1
			C956.6,175.7,956.5,176.4,956.5,177.1z M1058.5,172.8c-0.1-0.7-0.2-1.4-0.4-2.1l0.5-0.1c0.1,0.7,0.3,1.4,0.4,2.1L1058.5,172.8z
			 M957.4,170.8l-0.5-0.1c0.1-0.7,0.3-1.4,0.5-2.1l0.5,0.1C957.7,169.4,957.5,170.1,957.4,170.8z M1057,166.6
			c-0.2-0.7-0.4-1.4-0.7-2l0.5-0.2c0.2,0.7,0.5,1.4,0.7,2L1057,166.6z M959,164.6l-0.5-0.2c0.2-0.7,0.5-1.4,0.7-2l0.5,0.2
			C959.5,163.3,959.3,163.9,959,164.6z M1054.8,160.6c-0.3-0.6-0.6-1.3-0.9-1.9l0.5-0.2c0.3,0.6,0.6,1.3,0.9,1.9L1054.8,160.6z
			 M961.5,158.7l-0.5-0.2c0.3-0.6,0.6-1.3,1-1.9l0.5,0.3C962.1,157.4,961.8,158.1,961.5,158.7z M1051.9,154.9
			c-0.4-0.6-0.7-1.2-1.1-1.8l0.4-0.3c0.4,0.6,0.8,1.2,1.1,1.8L1051.9,154.9z M964.6,153.2l-0.4-0.3c0.4-0.6,0.8-1.2,1.2-1.8l0.4,0.3
			C965.4,152,965,152.6,964.6,153.2z M1048.3,149.7c-0.4-0.6-0.9-1.1-1.3-1.6l0.4-0.3c0.5,0.5,0.9,1.1,1.4,1.7L1048.3,149.7z
			 M968.5,148.1l-0.4-0.3c0.5-0.5,0.9-1.1,1.4-1.6l0.4,0.4C969.4,147,968.9,147.5,968.5,148.1z M1044.1,144.9c-0.5-0.5-1-1-1.5-1.5
			l0.4-0.4c0.5,0.5,1,1,1.6,1.5L1044.1,144.9z M972.9,143.5l-0.4-0.4c0.5-0.5,1.1-1,1.6-1.4l0.3,0.4
			C973.9,142.5,973.4,143,972.9,143.5z M1039.3,140.7c-0.6-0.4-1.1-0.9-1.7-1.3l0.3-0.4c0.6,0.4,1.2,0.8,1.7,1.3L1039.3,140.7z
			 M977.8,139.4l-0.3-0.4c0.6-0.4,1.2-0.8,1.8-1.2l0.3,0.4C979,138.6,978.4,139,977.8,139.4z M1034,137.1c-0.6-0.4-1.2-0.7-1.9-1.1
			l0.3-0.5c0.6,0.3,1.3,0.7,1.9,1.1L1034,137.1z M983.2,136.1l-0.3-0.5c0.6-0.3,1.3-0.7,1.9-1l0.2,0.5
			C984.5,135.4,983.8,135.7,983.2,136.1z M1028.4,134.1c-0.7-0.3-1.3-0.6-2-0.8l0.2-0.5c0.7,0.3,1.3,0.5,2,0.8L1028.4,134.1z
			 M989,133.4l-0.2-0.5c0.7-0.3,1.3-0.5,2-0.7l0.2,0.5C990.3,132.9,989.6,133.1,989,133.4z M1022.4,132c-0.7-0.2-1.4-0.4-2.1-0.6
			l0.1-0.5c0.7,0.2,1.4,0.4,2.1,0.6L1022.4,132z M995.1,131.4l-0.1-0.5c0.7-0.2,1.4-0.3,2.1-0.5l0.1,0.5
			C996.4,131.1,995.7,131.2,995.1,131.4z M1016.1,130.5c-0.7-0.1-1.4-0.2-2.1-0.3l0.1-0.5c0.7,0.1,1.4,0.2,2.1,0.3L1016.1,130.5z
			 M1001.3,130.2l-0.1-0.5c0.7-0.1,1.4-0.2,2.1-0.2l0,0.5C1002.7,130.1,1002,130.2,1001.3,130.2z M1009.8,129.9c-0.7,0-1.4,0-2.1,0
			l0-0.5h0c0.7,0,1.4,0,2.1,0L1009.8,129.9z"/>
		<path class="st33" d="M1029.9,162.6h-45c-2.2,0-4,1.8-4,4v28c0,2.2,1.8,4,4,4h45c2.2,0,4-1.8,4-4v-28
			C1033.9,164.5,1032.1,162.6,1029.9,162.6z M1032.5,194.7c0,1.5-1.2,2.7-2.7,2.7h-45c-1.5,0-2.7-1.2-2.7-2.7v-28
			c0-1.5,1.2-2.7,2.7-2.7h45c1.5,0,2.7,1.2,2.7,2.7V194.7z M1028.8,167.3l-21.4,12.6l-22-12.6c-0.3-0.2-0.8-0.1-0.9,0.3
			c-0.2,0.3-0.1,0.8,0.3,0.9l22.3,12.8c0.1,0.1,0.2,0.1,0.3,0.1c0.1,0,0.2,0,0.4-0.1l21.8-12.8c0.3-0.2,0.4-0.6,0.2-1
			C1029.6,167.2,1029.1,167.1,1028.8,167.3z"/>
	</g>
	<g>
		<g>
			<path class="st33" d="M1161.4,216c-32.3,0-58.5,26.2-58.5,58.5c0,32.3,26.2,58.5,58.5,58.5s58.5-26.2,58.5-58.5
				C1219.9,242.2,1193.7,216,1161.4,216z M1161.4,329.5c-30.3,0-54.9-24.6-54.9-54.9c0-30.3,24.6-54.9,54.9-54.9
				s54.9,24.6,54.9,54.9C1216.3,304.9,1191.7,329.5,1161.4,329.5z"/>
		</g>
		<path class="st33" d="M1159.3,326.5c-0.7,0-1.4-0.1-2.1-0.1l0-0.5c0.7,0.1,1.4,0.1,2.1,0.1L1159.3,326.5z M1163.6,326.5l0-0.5
			c0.7,0,1.4-0.1,2.1-0.1l0,0.5C1165,326.4,1164.3,326.5,1163.6,326.5z M1152.9,325.8c-0.7-0.1-1.4-0.2-2.1-0.4l0.1-0.5
			c0.7,0.1,1.4,0.3,2.1,0.4L1152.9,325.8z M1170,325.8l-0.1-0.5c0.7-0.1,1.4-0.2,2.1-0.4l0.1,0.5
			C1171.4,325.6,1170.7,325.7,1170,325.8z M1146.6,324.4c-0.7-0.2-1.4-0.4-2-0.7l0.2-0.5c0.7,0.2,1.3,0.4,2,0.6L1146.6,324.4z
			 M1176.2,324.4l-0.2-0.5c0.7-0.2,1.4-0.4,2-0.6l0.2,0.5C1177.6,324,1176.9,324.2,1176.2,324.4z M1140.5,322.2
			c-0.7-0.3-1.3-0.6-2-0.9l0.2-0.5c0.6,0.3,1.3,0.6,1.9,0.9L1140.5,322.2z M1182.3,322.2l-0.2-0.5c0.6-0.3,1.3-0.6,1.9-0.9l0.2,0.5
			C1183.6,321.6,1182.9,321.9,1182.3,322.2z M1134.8,319.2c-0.6-0.4-1.2-0.7-1.8-1.1l0.3-0.4c0.6,0.4,1.2,0.8,1.8,1.1L1134.8,319.2z
			 M1188,319.2l-0.3-0.5c0.6-0.4,1.2-0.7,1.8-1.1l0.3,0.4C1189.2,318.5,1188.6,318.8,1188,319.2z M1129.5,315.6
			c-0.6-0.4-1.1-0.9-1.7-1.4l0.3-0.4c0.5,0.5,1.1,0.9,1.7,1.3L1129.5,315.6z M1193.3,315.6l-0.3-0.4c0.5-0.4,1.1-0.9,1.6-1.3
			l0.3,0.4C1194.4,314.7,1193.9,315.1,1193.3,315.6z M1124.6,311.3c-0.5-0.5-1-1-1.5-1.5l0.4-0.4c0.5,0.5,1,1,1.5,1.5L1124.6,311.3z
			 M1198.1,311.3l-0.4-0.4c0.5-0.5,1-1,1.5-1.5l0.4,0.4C1199.1,310.3,1198.6,310.8,1198.1,311.3z M1120.4,306.5
			c-0.4-0.6-0.9-1.1-1.3-1.7l0.4-0.3c0.4,0.6,0.8,1.1,1.3,1.7L1120.4,306.5z M1202.4,306.5l-0.4-0.3c0.4-0.6,0.9-1.1,1.3-1.7
			l0.4,0.3C1203.3,305.4,1202.8,305.9,1202.4,306.5z M1116.7,301.2c-0.4-0.6-0.7-1.2-1.1-1.9l0.5-0.3c0.3,0.6,0.7,1.2,1.1,1.8
			L1116.7,301.2z M1206,301.2l-0.5-0.3c0.4-0.6,0.7-1.2,1.1-1.8l0.5,0.3C1206.8,299.9,1206.4,300.6,1206,301.2z M1113.8,295.5
			c-0.3-0.7-0.6-1.3-0.8-2l0.5-0.2c0.3,0.7,0.5,1.3,0.8,2L1113.8,295.5z M1209,295.4l-0.5-0.2c0.3-0.6,0.6-1.3,0.8-2l0.5,0.2
			C1209.6,294.1,1209.3,294.8,1209,295.4z M1111.6,289.4c-0.2-0.7-0.4-1.4-0.6-2.1l0.5-0.1c0.2,0.7,0.4,1.4,0.6,2L1111.6,289.4z
			 M1211.2,289.4l-0.5-0.2c0.2-0.7,0.4-1.4,0.6-2l0.5,0.1C1211.6,288,1211.4,288.7,1211.2,289.4z M1110.1,283.1
			c-0.1-0.7-0.2-1.4-0.3-2.1l0.5-0.1c0.1,0.7,0.2,1.4,0.3,2.1L1110.1,283.1z M1212.7,283.1l-0.5-0.1c0.1-0.7,0.2-1.4,0.3-2.1
			l0.5,0.1C1212.9,281.7,1212.8,282.4,1212.7,283.1z M1109.5,276.7c0-0.7,0-1.4,0-2.1l0.5,0c0,0.7,0,1.4,0,2.1L1109.5,276.7z
			 M1213.3,276.7l-0.5,0c0-0.7,0-1.4,0-2.1h0.5C1213.4,275.3,1213.4,276,1213.3,276.7z M1212.8,272.4c0-0.7-0.1-1.4-0.1-2.1l0.5,0
			c0.1,0.7,0.1,1.4,0.1,2.1L1212.8,272.4z M1110.1,270.3l-0.5,0c0.1-0.7,0.1-1.4,0.2-2.1l0.5,0.1
			C1110.3,268.9,1110.2,269.6,1110.1,270.3z M1212.1,266c-0.1-0.7-0.2-1.4-0.4-2.1l0.5-0.1c0.1,0.7,0.3,1.4,0.4,2.1L1212.1,266z
			 M1111,264l-0.5-0.1c0.1-0.7,0.3-1.4,0.5-2.1l0.5,0.1C1111.3,262.6,1111.2,263.3,1111,264z M1210.7,259.8c-0.2-0.7-0.4-1.4-0.7-2
			l0.5-0.2c0.2,0.7,0.5,1.4,0.7,2L1210.7,259.8z M1112.7,257.9l-0.5-0.2c0.2-0.7,0.5-1.4,0.7-2l0.5,0.2
			C1113.2,256.5,1112.9,257.2,1112.7,257.9z M1208.5,253.8c-0.3-0.6-0.6-1.3-0.9-1.9l0.5-0.2c0.3,0.6,0.6,1.3,0.9,1.9L1208.5,253.8z
			 M1115.2,252l-0.5-0.2c0.3-0.6,0.6-1.3,1-1.9l0.5,0.3C1115.8,250.7,1115.5,251.4,1115.2,252z M1205.6,248.2
			c-0.4-0.6-0.7-1.2-1.1-1.8l0.4-0.3c0.4,0.6,0.8,1.2,1.1,1.8L1205.6,248.2z M1118.3,246.4l-0.4-0.3c0.4-0.6,0.8-1.2,1.2-1.8
			l0.4,0.3C1119.1,245.3,1118.7,245.8,1118.3,246.4z M1202,242.9c-0.4-0.6-0.9-1.1-1.3-1.6l0.4-0.3c0.5,0.5,0.9,1.1,1.4,1.7
			L1202,242.9z M1122.1,241.3l-0.4-0.3c0.5-0.5,0.9-1.1,1.4-1.6l0.4,0.4C1123.1,240.3,1122.6,240.8,1122.1,241.3z M1197.7,238.2
			c-0.5-0.5-1-1-1.5-1.5l0.4-0.4c0.5,0.5,1,1,1.6,1.5L1197.7,238.2z M1126.5,236.7l-0.4-0.4c0.5-0.5,1.1-1,1.6-1.4l0.3,0.4
			C1127.6,235.8,1127.1,236.2,1126.5,236.7z M1193,233.9c-0.6-0.4-1.1-0.9-1.7-1.3l0.3-0.4c0.6,0.4,1.2,0.8,1.7,1.3L1193,233.9z
			 M1131.5,232.7l-0.3-0.4c0.6-0.4,1.2-0.8,1.8-1.2l0.3,0.4C1132.7,231.9,1132.1,232.3,1131.5,232.7z M1187.7,230.3
			c-0.6-0.4-1.2-0.7-1.9-1.1l0.3-0.5c0.6,0.3,1.3,0.7,1.9,1.1L1187.7,230.3z M1136.9,229.3l-0.3-0.5c0.6-0.3,1.3-0.7,1.9-1l0.2,0.5
			C1138.1,228.7,1137.5,229,1136.9,229.3z M1182,227.4c-0.7-0.3-1.3-0.6-2-0.8l0.2-0.5c0.7,0.3,1.3,0.5,2,0.8L1182,227.4z
			 M1142.7,226.6l-0.2-0.5c0.7-0.3,1.3-0.5,2-0.7l0.2,0.5C1144,226.1,1143.3,226.4,1142.7,226.6z M1176,225.2
			c-0.7-0.2-1.4-0.4-2.1-0.6l0.1-0.5c0.7,0.2,1.4,0.4,2.1,0.6L1176,225.2z M1148.7,224.7l-0.1-0.5c0.7-0.2,1.4-0.3,2.1-0.5l0.1,0.5
			C1150.1,224.4,1149.4,224.5,1148.7,224.7z M1169.8,223.8c-0.7-0.1-1.4-0.2-2.1-0.3l0.1-0.5c0.7,0.1,1.4,0.2,2.1,0.3L1169.8,223.8z
			 M1155,223.5l-0.1-0.5c0.7-0.1,1.4-0.2,2.1-0.2l0,0.5C1156.4,223.4,1155.7,223.4,1155,223.5z M1163.5,223.2c-0.7,0-1.4,0-2.1,0
			l0-0.5h0c0.7,0,1.4,0,2.1,0L1163.5,223.2z"/>
		<g>
			<g>
				<path class="st33" d="M1165.1,306.5c-7,0-14-2.3-19.8-7c-0.8-0.7-1.3-1.6-1.4-2.7c-0.1-1,0.3-2,1.1-2.8l7.1-7.1
					c1.4-1.4,3.8-1.4,5.2,0l6.2,6.2c0.9,0.9,2.4,0.9,3.2,0l16.7-16.7c0.9-0.9,0.9-2.3,0-3.2l-6.2-6.2c-0.7-0.7-1.1-1.6-1.1-2.6
					c0-1,0.4-1.9,1.1-2.6l7.1-7.1c0,0,0,0,0,0c0.7-0.7,1.7-1.1,2.8-1.1c1,0.1,2,0.6,2.7,1.4c10.2,12.6,9.2,30.7-2.3,42.2
					C1181.3,303.3,1173.2,306.5,1165.1,306.5z M1154.7,287.2c-0.6,0-1.2,0.2-1.6,0.7l-7.1,7.1c-0.5,0.5-0.7,1.1-0.7,1.7
					c0,0.6,0.3,1.3,0.9,1.7c12,9.7,29.4,8.8,40.3-2.2c11-11,11.9-28.3,2.2-40.3c-0.4-0.5-1-0.8-1.7-0.9c-0.6,0-1.3,0.2-1.7,0.7
					l-7.1,7.1c-0.4,0.4-0.7,1-0.7,1.6c0,0.6,0.2,1.2,0.7,1.6l6.2,6.2c1.4,1.4,1.4,3.7,0,5.2l-16.7,16.7c-1.4,1.4-3.8,1.4-5.2,0
					l-6.2-6.2C1155.8,287.4,1155.3,287.2,1154.7,287.2z"/>
			</g>
		</g>
		<g>
			<path class="st33" d="M1151.7,276.3C1151.7,276.3,1151.7,276.3,1151.7,276.3c-0.3,0-0.6-0.2-0.7-0.5l-5-21.1l-3,12.2
				c-0.1,0.3-0.4,0.5-0.7,0.5h-13.9c-0.4,0-0.7-0.3-0.7-0.7c0-0.4,0.3-0.7,0.7-0.7h13.4l3.5-14.4c0.1-0.3,0.4-0.5,0.7-0.5
				c0.3,0,0.6,0.2,0.7,0.5l5.1,21.5l2.1-6.6c0.1-0.3,0.4-0.5,0.7-0.5h11.1c0.4,0,0.7,0.3,0.7,0.7s-0.3,0.7-0.7,0.7h-10.6l-2.7,8.5
				C1152.3,276.1,1152,276.3,1151.7,276.3z"/>
		</g>
	</g>
	<path class="st55" d="M1065.6,434.1H830.2c-1.6,0-2.8-1.3-2.8-2.8v-1.5c0-1.6,1.3-2.8,2.8-2.8h235.4c1.6,0,2.8,1.3,2.8,2.8v1.5
		C1068.4,432.8,1067.1,434.1,1065.6,434.1z"/>
	<path class="st56" d="M997.4,434.1H825.2c-1.3,0-2.4-1.1-2.4-2.4v-2.4c0-1.3,1.1-2.4,2.4-2.4h172.2c1.3,0,2.4,1.1,2.4,2.4v2.4
		C999.8,433,998.7,434.1,997.4,434.1z"/>
</g>
</svg>
