<?xml version="1.0" encoding="utf-8"?>
<!-- Generator: Adobe Illustrator 24.0.1, SVG Export Plug-In . SVG Version: 6.00 Build 0)  -->
<svg version="1.1" id="Layer_1" xmlns="http://www.w3.org/2000/svg" xmlns:xlink="http://www.w3.org/1999/xlink" x="0px" y="0px"
	 viewBox="0 0 200 162.5" style="enable-background:new 0 0 200 162.5;" xml:space="preserve">
<style type="text/css">
	.st0{fill:#60AEE2;}
	.st1{fill:#F99775;}
</style>
<g>
	<path class="st0" d="M92.6,160c-6.3-1.4-12.7-2.3-18.7-4.4c-22.4-7.9-38-23.1-47.2-45c-2.5-5.9,1-11,6.8-9.9c2,0.4,4.7,2.3,5.1,4
		c2,8.1,7.4,9.8,14.7,8.7c1.2-0.2,2.6,0,4,0c-0.3-2.2-0.7-4.2-0.8-6.1c-0.1-3.5,1.9-6.1,5-6.7c3.4-0.6,6.4,0.9,7.8,4
		c0.2,0.5,0.4,1.1,0.5,1.7c2.1,7.1,2.1,7.1,9.6,7.1c16.3,0,32.5,0,49.2,0c0.6-2.2,1.2-4.4,1.7-6.6c1.3-5,4.6-7.2,9-6.1
		c3.4,0.9,5.1,4.6,4.2,9.2c-0.2,1-0.5,2-0.9,3.5c4.8,0,9.4,0.1,13.9-0.1c0.7,0,1.6-0.9,2-1.6c1.2-2.1,2.2-4.4,3.3-6.6
		c2.1-4.4,5.5-5.8,9.4-4.1c3.4,1.5,4.6,5.2,2.9,9.3c-5.2,12.9-13.3,23.7-24.2,32.4c-12.1,9.6-25.8,15.2-41.2,16.8
		c-0.4,0-0.8,0.3-1.3,0.5C102.5,160,97.6,160,92.6,160z M77.2,127c4.3,8,8.9,15.1,17.3,18.2c3.3,1.2,7.6,1.3,10.9,0.2
		c8.8-3,13.5-10.2,17.7-18.5C107.7,127,92.8,127,77.2,127z M133.2,137.1c0.3,0.2,0.5,0.5,0.8,0.7c4.3-3.3,8.5-6.7,12.8-10
		c-0.2-0.3-0.4-0.5-0.6-0.8c-2.7,0-5.4,0-8.1,0c-0.8,1.8-1.6,3.5-2.4,5.2C134.9,133.8,134.1,135.4,133.2,137.1z M54.1,126.9
		c-0.1,0.3-0.2,0.6-0.4,0.9c4.2,3.3,8.4,6.5,12.6,9.8c-0.8-3.6-2.2-6.7-3.8-9.6c-0.3-0.5-1-1-1.6-1
		C58.7,126.8,56.4,126.9,54.1,126.9z"/>
	<path class="st0" d="M107.5,0.9c6.3,1.4,12.7,2.3,18.7,4.4c22.3,7.9,37.9,23,47.1,44.7c2.6,6.1-0.7,11.3-6.6,10.2
		c-2-0.4-4.6-2.3-5.1-4.1c-2.1-7.8-7-10-14.3-8.7c-1.4,0.2-2.8,0-4.4,0c0.3,2.3,0.7,4.2,0.8,6.1c0.1,3.4-1.7,5.9-4.6,6.6
		c-3.4,0.8-6.5-0.6-7.9-3.7c-0.3-0.6-0.5-1.3-0.7-2c-2.1-7.1-2.1-7.1-9.3-7.1c-16.4,0-32.7,0-49.5,0c-0.7,2.5-1.3,4.9-2,7.3
		c-1.3,4.5-4.2,6.3-8.4,5.5c-3.4-0.7-5.2-3.9-4.6-8.3c0.2-1.4,0.5-2.8,0.9-4.5c-4.6,0-9.1-0.1-13.5,0.1c-0.7,0-1.7,0.8-2.1,1.4
		c-1.3,2.3-2.4,4.8-3.7,7.2c-2.1,4-5.6,5.3-9.4,3.5c-3.2-1.6-4.5-5.3-2.9-9.1c10.2-22.9,26.8-38.8,51-46.3C82,2.8,87.4,2,92.6,0.9
		C97.6,0.9,102.5,0.9,107.5,0.9z M122.6,33.9c-2.3-7.1-10-15.9-16.3-18.1c-3.2-1.1-7.1-1.7-10.2-0.8c-9.6,2.6-14.5,10.3-19,18.9
		C92.5,33.9,107.4,33.9,122.6,33.9z M53.6,32.9c0.2,0.4,0.3,0.7,0.5,1.1c2.1,0,4.2,0.1,6.2-0.1c0.8-0.1,1.8-0.6,2.1-1.2
		c1.6-2.9,2.9-5.9,4.3-8.9c-0.2-0.2-0.4-0.4-0.6-0.5C62.1,26.5,57.8,29.7,53.6,32.9z M147.2,33.6c-5-3.8-9.2-7.1-13.5-10.3
		C137.7,34.5,137.9,34.7,147.2,33.6z"/>
	<path class="st1" d="M100.1,76.7c-2.3,5.5-4.5,10.2-6.3,15c-1,2.7-3,1.9-4.7,1.8c-1.3-0.1-3.2-0.7-3.6-1.6c-3-8-5.8-16.1-8.5-24.1
		c0.4-0.3,0.6-0.5,0.7-0.5c7-0.5,7-0.5,9,6.2c1.1,3.6,2.1,7.2,3.4,11.8c2.3-5.7,4.3-10.4,6-15.3c0.8-2.4,2.1-2.8,4.3-2.9
		c2.5-0.1,3.5,0.9,4.2,3.1c1.5,4.8,3.3,9.5,5.4,15.1c1.5-5.2,3-9.5,3.9-13.9c0.7-3.4,2.3-4.8,5.7-4.2c1,0.2,2.1,0,3.7,0
		c-2.2,6.4-4.3,12.5-6.4,18.5c-0.4,1.2-1.1,2.4-1.2,3.7c-0.6,3.6-2.7,5.1-6.1,4.2c-1.2-0.3-2.7-1.2-3.2-2.2
		C104.2,86.8,102.3,82.1,100.1,76.7z"/>
	<path class="st1" d="M153.1,76.8c-2.3,5.4-4.5,10-6.2,14.7c-1.2,3.2-3.6,1.8-5.6,2.1c-1.9,0.3-2.6-0.7-3.2-2.4
		c-2.7-7.9-5.4-15.7-8.3-24c2.5,0,4.6-0.3,6.6,0.1c0.9,0.2,1.9,1.5,2.2,2.5c1.5,4.8,2.9,9.6,4.5,15.4c2.1-5.3,3.9-9.9,5.6-14.4
		c0.9-2.4,1.8-3.8,4.9-3.8c2.9,0.1,3.4,1.7,4.1,3.7c1.5,4.5,3.2,9,5.2,14.5c1.5-5.2,2.9-9.5,3.8-13.8c0.7-3.3,2.2-4.9,5.7-4.3
		c1,0.2,2.1,0,3.7,0c-0.9,2.7-1.6,5.1-2.4,7.5c-1.9,5.5-3.8,11.1-6,16.5c-0.4,1-2,2.1-3.1,2.3c-1.9,0.2-4.3,1-5.4-1.8
		C157.4,86.9,155.4,82.2,153.1,76.8z"/>
	<path class="st1" d="M47,76.8c-2.2,5.1-4.3,9.6-5.9,14.2c-1.1,3.2-3.5,2.4-5.7,2.6c-2.5,0.3-2.9-1.3-3.5-3
		c-2.6-7.6-5.3-15.2-8.2-23.4c2.3,0,4.1-0.3,5.9,0.1c1.1,0.2,2.5,1.2,2.8,2.2c1.6,4.9,2.9,9.9,4.6,15.8c2.2-5.5,4.3-10.2,5.9-15
		c0.9-2.7,2.3-3.1,4.9-3.2c2.8-0.1,3.2,1.6,3.9,3.5c1.6,4.6,3.3,9.2,5.2,14.7c1.5-5.3,2.9-9.5,3.8-13.8c0.7-3.3,2.1-5,5.7-4.3
		c1,0.2,2.1,0,3.7,0c-0.7,2.3-1.3,4.2-1.9,6.1c-2,5.9-4.1,11.7-6.1,17.6c-0.6,1.6-1.1,3-3.3,2.7c-2.2-0.3-4.6,0.8-5.7-2.5
		C51.4,86.6,49.3,82.1,47,76.8z"/>
</g>
</svg>
