<?xml version="1.0" encoding="utf-8"?>
<!-- Generator: Adobe Illustrator 24.0.1, SVG Export Plug-In . SVG Version: 6.00 Build 0)  -->
<svg version="1.1" id="Layer_1" xmlns="http://www.w3.org/2000/svg" xmlns:xlink="http://www.w3.org/1999/xlink" x="0px" y="0px"
	 viewBox="0 0 70 70" style="enable-background:new 0 0 70 70;" xml:space="preserve">
<style type="text/css">
	.st0{fill:#F47D3A;}
	.st1{fill:#1B75BC;}
	.st2{fill:#FFFFFF;}
</style>
<path class="st0" d="M68.3,43.7c-0.4,0.9-0.6,1.9-1.2,2.8c-1.2,1.7-2.9,2.4-4.9,2.4c-10,0-20,0-30.1,0c-8,0-15.9,0-23.9,0
	c-3,0-5.1-1.6-5.9-4.4c-0.2-0.6-0.2-1.2-0.2-1.8c0-5,0-9.9,0-14.9c0-3.6,2.5-6.1,6.1-6.1c17.9,0,35.7,0,53.6,0
	c3.4,0,5.9,1.9,6.5,5.1c0,0,0,0.1,0,0.1C68.3,32.5,68.3,38.1,68.3,43.7z M45,31c-0.2-0.9-0.8-1.4-1.7-1.5c-0.9-0.1-1.6,0.4-2,1.1
	c-0.6,1.1-1.1,2.3-1.7,3.4c-0.1,0.2-0.2,0.4-0.4,0.7c-0.7-1.4-1.4-2.7-2-4c-0.4-0.8-1.1-1.2-2-1.2c-0.9,0-1.6,0.4-2,1.2
	c-0.6,1.2-1.2,2.3-1.8,3.5c-0.1,0.1-0.2,0.3-0.3,0.5c-0.7-1.4-1.3-2.6-2-3.9c-0.4-0.8-1-1.4-1.9-1.3c-1,0.1-1.5,0.6-1.8,1.6
	c-0.3-1.1-1-1.6-2-1.6c-1,0-1.6,0.7-1.9,1.5c-0.3,0.7-0.7,1.4-1.1,2.1c-0.3,0.5-0.5,1-0.8,1.6c-0.7-1.4-1.4-2.7-2-4
	c-0.4-0.8-1-1.3-1.9-1.3c-0.9,0-1.5,0.5-1.8,1.3c-0.6,1.2-1.2,2.4-1.8,3.5c-0.1,0.1-0.2,0.3-0.3,0.4c-0.7-1.5-1.4-2.9-2.2-4.3
	c-0.5-1-1.5-1.3-2.5-0.8c-1,0.5-1.4,1.5-0.9,2.4c1.3,2.7,2.6,5.3,4,7.9c0.8,1.4,2.6,1.4,3.4,0c0.3-0.5,0.6-1.1,0.9-1.7
	c0.4-0.8,0.8-1.7,1.3-2.6c0.2,0.3,0.3,0.4,0.3,0.6c0.6,1.2,1.2,2.4,1.8,3.6c0.8,1.5,2.4,1.5,3.4,0.1c0.1-0.2,0.2-0.4,0.4-0.6
	c1.3-2.5,2.6-5.1,3.9-7.7c0.1,0.1,0.1,0.2,0.2,0.3c1.2,2.5,2.5,5.1,3.7,7.6c0.4,0.8,0.9,1.2,1.8,1.3c0.9,0,1.5-0.4,1.9-1.2
	c0.7-1.2,1.3-2.4,2-3.6c0.1-0.1,0.2-0.3,0.3-0.4c0.1,0.3,0.2,0.5,0.3,0.6c0.6,1.1,1.1,2.2,1.7,3.4c0.4,0.8,1,1.3,1.9,1.3
	c0.9,0,1.5-0.5,1.8-1.3c0.1-0.2,0.2-0.3,0.2-0.5c1.2-2.5,2.5-4.9,3.7-7.5c1.3,2.6,2.6,5.1,3.8,7.7c0.4,0.8,0.9,1.4,1.8,1.5
	c1,0.1,1.7-0.4,2.2-1.3c0.5-1.1,1.1-2.3,1.7-3.4c0.1-0.1,0.2-0.3,0.3-0.5c0.7,1.4,1.4,2.7,2,4.1c0.4,0.7,0.9,1.2,1.8,1.2
	c0.8,0,1.4-0.3,1.7-1c1.3-2.6,2.7-5.3,4-7.9c0.5-1,0-1.9-0.9-2.4c-1-0.5-2-0.2-2.5,0.7c-0.7,1.2-1.2,2.5-1.9,3.7
	c-0.1,0.2-0.2,0.4-0.4,0.7c-0.7-1.4-1.4-2.7-2-4c-0.4-0.8-1-1.2-1.9-1.2c-0.9,0-1.5,0.4-1.8,1.2c-0.6,1.2-1.2,2.3-1.8,3.5
	c-0.1,0.1-0.2,0.3-0.3,0.5c-0.7-1.3-1.3-2.6-1.9-3.8c-0.2-0.4-0.4-0.8-0.8-1C47,29,45.7,29.5,45,31z"/>
<g>
	<path class="st1" d="M37.4,6.4C46,7.1,53,10.9,58.5,17.8c-0.3,0-0.4,0-0.6,0c-2.7,0-5.3,0-8,0c-0.4,0-0.6-0.2-0.8-0.5
		c-1-2.1-2.2-4.1-3.7-5.9C43.2,8.9,40.7,7.1,37.4,6.4z"/>
	<path class="st1" d="M33,64.2c-8.4-0.4-16.6-5.3-21-11.4c0.2,0,0.4,0,0.6,0c2.6,0,5.3,0,7.9,0c0.5,0,0.7,0.1,0.9,0.6
		c1.3,2.7,2.9,5.2,5.1,7.3c1.8,1.7,3.8,2.9,6.2,3.4C32.8,64.1,32.9,64.1,33,64.2z"/>
	<path class="st1" d="M33,6.4c-3.3,0.7-5.8,2.6-7.9,5.1c-1.5,1.7-2.7,3.7-3.7,5.8c-0.2,0.5-0.5,0.7-1,0.6c-2.8,0-5.6,0-8.5,0
		C17.4,10.9,24.4,7.1,33,6.4z"/>
	<path class="st1" d="M58.4,52.8C53,59.6,46,63.5,37.5,64.3c1.2-0.5,2.4-0.9,3.6-1.5c2.6-1.4,4.5-3.5,6.1-6c0.7-1.2,1.3-2.4,2-3.6
		c0.1-0.2,0.4-0.4,0.6-0.4c2.8,0,5.6,0,8.5,0C58.2,52.8,58.3,52.8,58.4,52.8z"/>
	<path class="st1" d="M33.1,52.8c0,2.5,0,4.9,0,7.4c-3.7-1.3-5.9-4.1-7.7-7.4C28,52.8,30.5,52.8,33.1,52.8z"/>
	<path class="st1" d="M33.1,10.3c0,2.6,0,5,0,7.4c-2.5,0-5.1,0-7.7,0C27.2,14.5,29.3,11.7,33.1,10.3z"/>
	<path class="st1" d="M37.3,17.8c0-2.5,0-4.9,0-7.4c3.7,1.3,5.9,4.2,7.7,7.4C42.4,17.8,39.8,17.8,37.3,17.8z"/>
	<path class="st1" d="M37.3,52.8c2.6,0,5.1,0,7.7,0c-1.8,3.3-3.9,6.1-7.7,7.5C37.3,57.7,37.3,55.3,37.3,52.8z"/>
</g>
<path class="st2" d="M45,31c0.7-1.6,2.1-2,3.2-1.1c0.3,0.3,0.6,0.7,0.8,1c0.6,1.2,1.3,2.5,1.9,3.8c0.1-0.2,0.2-0.3,0.3-0.5
	c0.6-1.2,1.2-2.3,1.8-3.5c0.4-0.8,1-1.2,1.8-1.2c0.9,0,1.5,0.4,1.9,1.2c0.6,1.3,1.3,2.6,2,4c0.2-0.3,0.3-0.5,0.4-0.7
	c0.6-1.2,1.2-2.5,1.9-3.7c0.5-1,1.5-1.2,2.5-0.7c1,0.5,1.4,1.5,0.9,2.4c-1.3,2.7-2.6,5.3-4,7.9c-0.3,0.7-1,1-1.7,1
	c-0.8,0-1.4-0.5-1.8-1.2c-0.7-1.3-1.3-2.7-2-4.1c-0.1,0.2-0.2,0.3-0.3,0.5c-0.6,1.1-1.2,2.3-1.7,3.4c-0.4,0.9-1.1,1.4-2.2,1.3
	c-1-0.1-1.4-0.6-1.8-1.5c-1.2-2.6-2.5-5.1-3.8-7.7c-1.3,2.5-2.5,5-3.7,7.5c-0.1,0.2-0.2,0.3-0.2,0.5c-0.4,0.8-0.9,1.3-1.8,1.3
	c-0.9,0-1.5-0.5-1.9-1.3c-0.5-1.1-1.1-2.2-1.7-3.4c-0.1-0.2-0.2-0.4-0.3-0.6c-0.1,0.2-0.2,0.3-0.3,0.4c-0.7,1.2-1.4,2.4-2,3.6
	c-0.4,0.8-1,1.2-1.9,1.2c-0.9,0-1.4-0.5-1.8-1.3c-1.2-2.5-2.5-5.1-3.7-7.6c-0.1-0.1-0.1-0.2-0.2-0.3c-1.3,2.6-2.6,5.1-3.9,7.7
	c-0.1,0.2-0.2,0.4-0.4,0.6c-0.9,1.4-2.6,1.4-3.4-0.1c-0.6-1.2-1.2-2.4-1.8-3.6c-0.1-0.2-0.2-0.3-0.3-0.6c-0.5,0.9-0.9,1.8-1.3,2.6
	c-0.3,0.6-0.5,1.1-0.9,1.7c-0.8,1.4-2.6,1.4-3.4,0c-1.4-2.6-2.7-5.3-4-7.9c-0.5-1-0.1-1.9,0.9-2.4c1-0.5,2-0.2,2.5,0.8
	c0.7,1.4,1.4,2.8,2.2,4.3c0.1-0.2,0.2-0.3,0.3-0.4c0.6-1.2,1.2-2.3,1.8-3.5c0.4-0.8,1-1.3,1.8-1.3c0.9,0,1.5,0.5,1.9,1.3
	c0.6,1.3,1.3,2.6,2,4c0.3-0.6,0.6-1.1,0.8-1.6c0.4-0.7,0.7-1.4,1.1-2.1c0.4-0.9,0.9-1.5,1.9-1.5c1,0,1.7,0.6,2,1.6
	c0.3-1,0.9-1.6,1.8-1.6c1-0.1,1.5,0.5,1.9,1.3c0.6,1.3,1.3,2.6,2,3.9c0.1-0.2,0.2-0.3,0.3-0.5c0.6-1.2,1.2-2.3,1.8-3.5
	c0.4-0.8,1.1-1.2,2-1.2c0.9,0,1.6,0.4,2,1.2c0.6,1.3,1.3,2.6,2,4c0.2-0.3,0.3-0.5,0.4-0.7c0.6-1.1,1.1-2.3,1.7-3.4
	c0.4-0.8,1.1-1.3,2-1.1C44.2,29.6,44.7,30.1,45,31z"/>
</svg>
