<?xml version="1.0" encoding="utf-8"?>
<!-- Generator: Adobe Illustrator 24.0.1, SVG Export Plug-In . SVG Version: 6.00 Build 0)  -->
<svg version="1.1" id="Layer_1" xmlns="http://www.w3.org/2000/svg" xmlns:xlink="http://www.w3.org/1999/xlink" x="0px" y="0px"
	 viewBox="0 0 200 162.5" style="enable-background:new 0 0 200 162.5;" xml:space="preserve">
<style type="text/css">
	.st0{fill:#60AEE2;}
	.st1{fill:#768F99;}
	.st2{fill:#F99775;}
</style>
<g>
	<path class="st0" d="M4.7,140c0.4-0.5,0.8-1.1,1.2-1.6c4.7-8.3,9.4-16.5,14.1-24.8c0.7-1.2,1.3-1.7,2.7-1.7c52.2,0,104.5,0,156.7,0
		c1.4,0,2.1,0.5,2.8,1.7c4.7,8.3,9.4,16.5,14.1,24.8c0.3,0.6,0.8,1.1,1.2,1.6c0,4,0,8,0,12c-0.6,0-1.1,0-1.7,0
		c-41.9,0-83.8,0-125.8,0c-21.7,0-43.5,0-65.2,0C4.7,148,4.7,144,4.7,140z M129.9,130.4c-1.6-2.8-3-5.4-4.5-7.9
		c-0.2-0.4-0.9-0.6-1.4-0.6c-15.3,0-30.7,0-46,0c-0.5,0-1.1,0.1-1.3,0.4c-1.6,2.6-3,5.2-4.6,8.1C91.5,130.4,110.5,130.4,129.9,130.4
		z"/>
	<path class="st1" d="M32.4,18.4c0,25.4,0,50.7,0,76.1c-3.6,0-7,0-10.7,0c0-0.7,0-1.3,0-2c0-25.6,0-51.2,0-76.8c0-5.2,3-8.2,8.2-8.2
		c47.5,0,94.9,0,142.4,0c5,0,8.1,3,8.1,7.8c0,25.8,0,51.7,0,77.5c0,0.5,0,1,0,1.6c-3.6,0-7,0-10.6,0c0-25.3,0-50.7,0-76.1
		C123.9,18.4,78.2,18.4,32.4,18.4z"/>
	<path class="st2" d="M104.5,91c0.4,0.3,0.8,0.8,1.2,1c2.8,1.7,4,4.4,3.2,7.3c-0.7,2.7-3.3,4.6-6.1,4.6c-2.9,0-5.4-1.9-6.1-4.6
		c-0.8-2.9,0.5-5.7,3.2-7.3c0.4-0.3,0.8-0.7,1-1.4c-8.8,0-17.6,0-26.4,0c-0.1,0.1-0.2,0.2-0.3,0.3c0.5,0.4,0.9,0.9,1.5,1.3
		c2.5,1.6,3.7,4.3,2.9,7.1c-0.8,2.8-3.2,4.6-6.1,4.7c-2.9,0-5.3-1.8-6.2-4.6c-0.8-2.7,0.3-5.6,2.8-7.1c0.6-0.4,1.1-0.8,1.6-1.2
		c-0.1-0.2-0.2-0.4-0.3-0.6c-1.5,0-3-0.1-4.5,0c-0.5,0-1,0.5-1.3,0.8c-0.6,0.6-1,1.3-1.6,1.8c-1,0.9-2.2,0.9-3.3,0.1
		c-1.1-0.9-1.3-2.1-0.6-3.2c0.9-1.4,2-2.8,3.2-3.9c0.6-0.6,1.8-0.7,2.8-0.7c13.9,0,27.7,0,41.6,0c1,0,1.9-0.1,3.5-0.2
		c-1.3-2.7-2.3-5.1-3.5-7.4c-0.2-0.4-1.2-0.4-1.9-0.4c-13.2,0-26.3,0-39.5-0.1c-2.9,0-3.5-0.6-3.8-3.6c-0.8-8.2-1.7-16.4-2.5-24.6
		c-0.1-0.6-0.1-1.1-0.1-1.7c-0.1-2.2,0.6-3,2.7-3.2c9.3-1.1,18.5-2.2,27.8-3.4c8.5-1,17-2,25.6-3.1c0.6-0.1,1.3-0.7,1.5-1.3
		c1.6-4.7,5.3-6.8,9.7-7.9c1.4-0.4,2.5,0.2,3,1.5c0.5,1.3,0,2.5-1.2,3.2c-0.3,0.2-0.6,0.3-0.9,0.4c-4,0.7-5.6,3.4-6.6,7
		c-2.9,10.9-6.1,21.6-9.1,32.5c-0.2,0.9-0.1,2,0.2,2.8c0.7,1.9,1.8,3.7,2.6,5.6c2.1,5.1-0.4,8.8-5.8,8.9c-1.2,0-2.4,0-3.5,0
		C104.7,90.6,104.6,90.8,104.5,91z M114.4,42.9c-3.7,0.4-7.2,0.9-10.8,1.3c-0.3,1.6-0.5,3.1-0.9,4.9c2-0.2,3.7-0.3,5.4-0.4
		C113.3,48.4,113.3,48.4,114.4,42.9z M100.4,44.6c-3.4,0.4-6.7,0.7-10,1.2c-0.4,0-0.9,0.6-0.9,0.9c-0.2,1.1-0.2,2.3-0.2,3.6
		c2.2-0.2,4.1-0.4,6-0.5C99.9,49.5,99.9,49.5,100.4,44.6z M101.3,57c3.1-0.2,5.9-0.3,8.6-0.5c0.3,0,0.8-0.4,0.9-0.7
		c0.5-1.4,0.9-2.9,1.3-4.6c-3.5,0.3-6.8,0.6-10,0.9C101.9,53.8,101.6,55.2,101.3,57z M99.1,52.4c-3.5,0.3-6.8,0.6-10.2,0.9
		c-0.1,1.5-0.3,2.9-0.4,4.5c3.4-0.2,6.5-0.4,9.7-0.6C98.5,55.7,98.8,54.2,99.1,52.4z M109.6,59.5c-3,0.2-5.9,0.4-8.9,0.6
		c-0.3,1.7-0.6,3.2-0.9,4.8c1.5,0,2.8,0,4.1,0c4.6,0,4.6,0,5.6-4.5C109.7,60.2,109.6,60,109.6,59.5z M86.6,46.3
		c-3.8,0.5-7.3,0.9-10.7,1.3c0,1.5,0,2.7,0,4c3.6-0.3,7-0.6,10.4-1C86.3,49.1,86.4,47.9,86.6,46.3z M75.9,54.5c0,1.5,0,2.7,0,4.1
		c3.3-0.2,6.4-0.4,9.6-0.6c0.1-1.5,0.3-2.9,0.4-4.4C82.4,53.9,79.2,54.2,75.9,54.5z M87.9,65c3.1,0,6,0,8.9,0
		c0.3-1.7,0.5-3.1,0.8-4.8c-3.3,0.2-6.3,0.4-9.4,0.6C88.2,62.3,88.1,63.6,87.9,65z M76,65.3c3.1,0,5.9,0,8.9,0
		c0.1-1.5,0.2-2.8,0.3-4.3C82,61.2,79,61.4,76,61.6C76,63,76,64.1,76,65.3z M96.2,68.2c-2.7,0-5.2,0-7.8,0c-0.3,0-0.8,0.5-0.9,0.9
		c-0.1,1,0,2,0,3.2c2.4,0,4.7,0,7,0c0.4,0,1-0.5,1.1-0.9C96,70.4,96.1,69.3,96.2,68.2z M107.5,67.9c-2.6,0-5,0-7.5,0
		c-0.3,0-0.7,0.5-0.8,0.8c-0.3,1.1-0.4,2.3-0.6,3.6c2.6,0,5,0,7.6,0C106.6,70.9,107,69.5,107.5,67.9z M84.7,68.4c-2.9,0-5.6,0-8.4,0
		c0,1.4,0,2.5,0,3.7c2.8,0,5.4,0,8.1,0C84.5,70.9,84.6,69.7,84.7,68.4z M72.6,51.8c0-1.4,0-2.6,0-3.9c-2.9,0.4-5.7,0.7-8.6,1.1
		c0.2,1.3,0.3,2.4,0.5,3.6C67.4,52.3,70,52.1,72.6,51.8z M72.7,58.8c0-1.4,0-2.7,0-4c-2.7,0.3-5.2,0.5-7.9,0.8
		c0.1,1.3,0.3,2.5,0.4,3.8C67.8,59.1,70.2,58.9,72.7,58.8z M72.9,61.7c-2.5,0.2-4.9,0.3-7.4,0.5c0.1,1.3,0.2,2.3,0.3,3.3
		c2.5,0,4.8,0,7.1,0C72.9,64.2,72.9,63.1,72.9,61.7z M66.6,72.2c2.2,0,4.4,0,6.5,0c0-1.2,0-2.3,0-3.5c-2.3,0-4.5,0-6.8,0
		c0.1,0.9,0.1,1.6,0.1,2.3C66.4,71.4,66.5,71.7,66.6,72.2z M105.1,96.4c-0.9,0.6-1.6,1.5-2.4,1.5c-0.7,0-1.4-0.9-2.2-1.5
		c-0.7,1.1-0.7,2.5,0.6,3.3c0.8,0.5,2.3,0.6,3.2,0.2C105.6,99.1,105.8,97.7,105.1,96.4z M74.5,96.1c-1.8,2.5-2.9,2.5-4.3-0.1
		c-0.8,1.3-0.8,2.5,0.3,3.5c1,1,2.3,1,3.4,0.2C75.2,98.8,75.4,97.5,74.5,96.1z"/>
	<path d="M145.9,70c-2.2,2-4,3.6-5.9,5.3c2.5,2.4,4.8,4.6,7,6.6c-2.2,2.2-4.2,4.1-6.4,6.3c-1.9-2.1-4-4.4-6.6-7.1
		c-1.9,2.2-3.5,4-5.5,6.2c-2.2-8.1-4.2-15.7-6.3-23.6C130.1,65.7,137.7,67.8,145.9,70z"/>
</g>
</svg>
