<?xml version="1.0" encoding="utf-8"?>
<!-- Generator: Adobe Illustrator 24.0.1, SVG Export Plug-In . SVG Version: 6.00 Build 0)  -->
<svg version="1.1" id="Layer_1" xmlns="http://www.w3.org/2000/svg" xmlns:xlink="http://www.w3.org/1999/xlink" x="0px" y="0px"
	 viewBox="0 0 1283.3 737.1" style="enable-background:new 0 0 1283.3 737.1;" xml:space="preserve">
<style type="text/css">
	.st0{fill:#FFFFFF;}
	.st1{fill:url(#Path_151_2_);}
	.st2{fill:url(#Path_152_2_);}
	.st3{fill:#F1F3F9;}
	.st4{fill:url(#Path_878_1_);}
	.st5{fill:url(#Path_879_1_);}
	.st6{fill:#F2F4F9;}
	.st7{fill:url(#Path_151-2_2_);}
	.st8{fill:url(#Path_152-2_2_);}
	.st9{fill:url(#Path_151-3_2_);}
	.st10{fill:url(#Path_152-3_2_);}
	.st11{fill:url(#Path_151-3_3_);}
	.st12{fill:url(#Path_152-3_3_);}
	.st13{fill:url(#SVGID_1_);}
	.st14{fill:#C4DFE8;}
	.st15{fill:#06BFAD;}
	.st16{fill:#FEE5BF;}
	.st17{fill:#FEB546;}
	.st18{fill:#F4A640;}
	.st19{fill:#DAEEF7;}
	.st20{fill:#55769F;}
	.st21{fill:#02CCC0;}
	.st22{fill:#FF5B7E;}
	.st23{fill:#E03268;}
	.st24{fill:#07085B;}
	.st25{fill:#333333;}
	.st26{opacity:0.3;fill:#DAEEF7;}
	.st27{opacity:0.5;fill:#DAEEF7;}
	.st28{fill:#FFC0BB;}
	.st29{opacity:0.6;fill:#FC8D84;}
	.st30{fill:#F99893;}
	.st31{opacity:0.3;fill:#F99893;}
	.st32{fill:#446284;}
</style>
<rect x="3" class="st0" width="1277.3" height="737.1"/>
<g id="Shadows">
</g>
<g>
	<g id="Group_30_1_" transform="translate(159.07 605.079)">
		
			<linearGradient id="Path_151_2_" gradientUnits="userSpaceOnUse" x1="734.0778" y1="174.3038" x2="734.0778" y2="175.787" gradientTransform="matrix(38.4 0 0 -125.0701 -27852.1895 21895.5918)">
			<stop  offset="0.247" style="stop-color:#FFFFFF"/>
			<stop  offset="0.516" style="stop-color:#F8F9FD"/>
			<stop  offset="0.905" style="stop-color:#E5E9F6"/>
			<stop  offset="1" style="stop-color:#DFE4F4"/>
		</linearGradient>
		<path id="Path_151_1_" class="st1" d="M308.4,95.4l56-32.8V-90.1l-56,32.8V95.4z"/>
		
			<linearGradient id="Path_152_2_" gradientUnits="userSpaceOnUse" x1="733.6155" y1="174.3038" x2="733.6155" y2="175.787" gradientTransform="matrix(38.4 0 0 -125.0701 -27890.5879 21895.5918)">
			<stop  offset="0.247" style="stop-color:#FFFFFF"/>
			<stop  offset="0.641" style="stop-color:#F6F7FC"/>
			<stop  offset="1" style="stop-color:#E9EDF7"/>
		</linearGradient>
		<path id="Path_152_1_" class="st2" d="M308.4,95.4l-56.3-32.8V-90.1l56.3,32.8V95.4z"/>
		<path id="Path_153_1_" class="st3" d="M308.4-57.4l-56-33l56-32.9l56,32.8L308.4-57.4z"/>
	</g>
	<g id="Group_614">
		
			<linearGradient id="Path_878_1_" gradientUnits="userSpaceOnUse" x1="1700.1503" y1="777.947" x2="1700.1503" y2="778.6133" gradientTransform="matrix(41.5601 0 0 -135.37 -69461.5156 105998.1875)">
			<stop  offset="0.247" style="stop-color:#FFFFFF"/>
			<stop  offset="0.882" style="stop-color:#E6EAF6"/>
			<stop  offset="1" style="stop-color:#E1E5F4"/>
		</linearGradient>
		<path id="Path_878" class="st4" d="M1177.5,687.5l38.8-16v-74.2l-38.8,16V687.5z"/>
		
			<linearGradient id="Path_879_1_" gradientUnits="userSpaceOnUse" x1="1700.2166" y1="777.947" x2="1700.2166" y2="778.6133" gradientTransform="matrix(41.5601 0 0 -135.37 -69503.0703 105998.1875)">
			<stop  offset="0.247" style="stop-color:#FFFFFF"/>
			<stop  offset="1" style="stop-color:#EBEEF7"/>
		</linearGradient>
		<path id="Path_879" class="st5" d="M1177.5,687.5l-38.8-16v-74.2l38.8,16V687.5z"/>
		<path id="Path_880" class="st6" d="M1177.5,613.2l-38.8-16l38.8-16l38.8,16L1177.5,613.2z"/>
	</g>
	<g id="Group_660" transform="translate(376.07 643.129)">
		
			<linearGradient id="Path_151-2_2_" gradientUnits="userSpaceOnUse" x1="-917.3626" y1="134.2279" x2="-917.3626" y2="135.5589" gradientTransform="matrix(54.046 0 0 -176.04 49871.2305 23647.2793)">
			<stop  offset="0.247" style="stop-color:#FFFFFF"/>
			<stop  offset="0.516" style="stop-color:#F8F9FD"/>
			<stop  offset="0.905" style="stop-color:#E5E9F6"/>
			<stop  offset="1" style="stop-color:#DFE4F4"/>
		</linearGradient>
		<path id="Path_151-2_1_" class="st7" d="M263,17.8l56.9-41.5v-192.8L263-175V17.8z"/>
		
			<linearGradient id="Path_152-2_2_" gradientUnits="userSpaceOnUse" x1="-917.4164" y1="134.2279" x2="-917.4164" y2="135.5594" gradientTransform="matrix(54.046 0 0 -176.04 49817.1875 23647.2793)">
			<stop  offset="0.247" style="stop-color:#FFFFFF"/>
			<stop  offset="0.641" style="stop-color:#F6F7FC"/>
			<stop  offset="1" style="stop-color:#E9EDF7"/>
		</linearGradient>
		<path id="Path_152-2_1_" class="st8" d="M263,17.8l-57-41.6v-192.8l56.9,41.5V17.8H263z"/>
		<path id="Path_153-2_1_" class="st3" d="M263-175l-57-41.5l56.9-41.3l56.9,41.5L263-175z"/>
	</g>
	<g id="Group_98_1_" transform="translate(1097.07 620.079)">
		
			<linearGradient id="Path_151-3_2_" gradientUnits="userSpaceOnUse" x1="-5827.9688" y1="156.888" x2="-5827.9688" y2="157.297" gradientTransform="matrix(54.046 0 0 -176.04 314895.8438 27690.0645)">
			<stop  offset="0.247" style="stop-color:#FFFFFF"/>
			<stop  offset="0.516" style="stop-color:#F8F9FD"/>
			<stop  offset="0.905" style="stop-color:#E5E9F6"/>
			<stop  offset="1" style="stop-color:#DFE4F4"/>
		</linearGradient>
		<path id="Path_151-3" class="st9" d="M-103,71.5l40.9-25.8V-0.5L-103,25.1V71.5z"/>
		
			<linearGradient id="Path_152-3_2_" gradientUnits="userSpaceOnUse" x1="-5827.7251" y1="156.888" x2="-5827.7251" y2="157.297" gradientTransform="matrix(54.046 0 0 -176.04 314841.7813 27690.0645)">
			<stop  offset="0.247" style="stop-color:#FFFFFF"/>
			<stop  offset="0.641" style="stop-color:#F6F7FC"/>
			<stop  offset="1" style="stop-color:#E9EDF7"/>
		</linearGradient>
		<path id="Path_152-3" class="st10" d="M-103,71.5l-40.9-25.8V-0.5l40.9,25.6C-103,25.1-103,71.5-103,71.5z"/>
		<path id="Path_153-3" class="st3" d="M-103,25.1l-41-25.7l40.9-25.7l41,25.7L-103,25.1z"/>
	</g>
	<g id="Group_98_2_" transform="translate(1097.07 620.079)">
		
			<linearGradient id="Path_151-3_3_" gradientUnits="userSpaceOnUse" x1="-5831.6831" y1="156.9465" x2="-5831.6831" y2="157.5168" gradientTransform="matrix(54.046 0 0 -176.04 314895.8438 27690.0645)">
			<stop  offset="0.247" style="stop-color:#FFFFFF"/>
			<stop  offset="0.516" style="stop-color:#F8F9FD"/>
			<stop  offset="0.905" style="stop-color:#E5E9F6"/>
			<stop  offset="1" style="stop-color:#DFE4F4"/>
		</linearGradient>
		<path id="Path_151-3_1_" class="st11" d="M-312.1,61.2l57.6-35.9v-64.5l-57.6,35.7V61.2z"/>
		
			<linearGradient id="Path_152-3_3_" gradientUnits="userSpaceOnUse" x1="-5831.7485" y1="156.9465" x2="-5831.7485" y2="157.5168" gradientTransform="matrix(54.046 0 0 -176.04 314841.7813 27690.0645)">
			<stop  offset="0.247" style="stop-color:#FFFFFF"/>
			<stop  offset="0.641" style="stop-color:#F6F7FC"/>
			<stop  offset="1" style="stop-color:#E9EDF7"/>
		</linearGradient>
		<path id="Path_152-3_1_" class="st12" d="M-312.1,61.2l-57.6-35.9v-64.5l57.6,35.7V61.2z"/>
		<path id="Path_153-3_1_" class="st3" d="M-312.1-3.4l-57.7-35.7l57.6-35.7l57.7,35.7L-312.1-3.4z"/>
	</g>
</g>
<linearGradient id="SVGID_1_" gradientUnits="userSpaceOnUse" x1="81.0218" y1="-718.0299" x2="652.1637" y2="91.7666" gradientTransform="matrix(1 0 0 1 0 676)">
	<stop  offset="0.247" style="stop-color:#FFFFFF"/>
	<stop  offset="0.516" style="stop-color:#F8F9FD"/>
	<stop  offset="0.905" style="stop-color:#E5E9F6"/>
	<stop  offset="1" style="stop-color:#DFE4F4"/>
</linearGradient>
<path class="st13" d="M0,737.1V0h741.2c-2,12.9-2.9,255.3-364.6,299.8C73.2,337.2,0,737.1,0,737.1z"/>
<g>
	<path class="st14" d="M793.7,563.4h376.2c2.1,0,3.8-1.7,3.8-3.8v0c0-2.1-1.7-3.8-3.8-3.8H793.7c-2.1,0-3.8,1.7-3.8,3.8v0
		C789.9,561.7,791.6,563.4,793.7,563.4z"/>
	<g>
		<path class="st15" d="M754,283.7c-8.9,6.9,3.9,16.7,7.4,19.2c-1.2,4.1-1.9,7.9-2.4,11.4c-2.8-4.7-1.9-10.2-4.5-12.5
			c-2.9-2.6-7.7-3.1-7,4.6c0.5,6,8.2,8.5,11.4,9.3c-0.7,6.1-0.5,11.1-0.1,14.8c-4-4.8-3.6-11.3-6.9-13.5c-3.6-2.4-8.9-2.4-7.2,5.9
			c1.4,6.9,10.9,8.5,14.2,8.8c0.4,3.4,1,5.3,1.1,5.5c1.1,4,2.5,7.7,3.9,11.2c-3.6-4.2-4.3-9.7-7.6-11.3c-3.9-1.9-9.1-1.1-6.3,6.9
			c2.3,6.3,11.2,6.8,14.8,6.8c3.2,7.3,6.8,13.5,10.6,18.9c-4.5-2.4-9.1-9.1-14-9.8c-3.2-0.5-4.8,1.2-5.6,2.8
			c-0.7,1.3-0.7,2.8-0.1,4.1c3.3,7.5,16.5,4.9,20.4,3.9c4.8,6.6,9.7,11.8,14.2,15.8c-2.3-1.2-5.9-3.1-7.6-4.1
			c-2.8-1.6-7.5-2.4-10.2-0.8c-0.1,0.1-0.2,0.1-0.3,0.2c-2,1.3-2.6,3.9-1.7,6.1c3.7,8.5,18.4,1.7,21.5,0.2c0,0,0.1,0.1,0.1,0.1
			c11.5,9.8,21,13.4,21.4,13.6l0.6-1.5c-0.1,0-9.2-3.5-20-12.5c4.7-14.2-1.4-21.5-5.1-20.9c-3.8,0.5-7.3,5.3-2.8,10.2
			c2.6,2.9,4.7,6.5,6,9c-4.5-4-9.6-9.3-14.6-16c12.1-15.8,1.7-22.4-2.6-20c-4.3,2.5-4,6.1-1.1,10.9c1.9,3.2,2.7,6.4,3,8.2
			c-3.8-5.3-7.4-11.4-10.5-18.5c3.4-1,11.9-4.3,12.1-11.1c0.2-8.5-5-7.6-8.1-4.6c-2.8,2.8-1.3,9.2-4.4,14.6c-1.7-4-3.2-8.2-4.6-12.8
			c0-0.1-1.2-4-1.4-10.6c3.5-0.6,12.3-2.8,13.3-9.5c1.3-8.4-4-8.2-7.5-5.5c-3.1,2.3-2.5,8.5-5.9,13.5c-0.1-5.6,0.5-12.8,2.9-21
			c3.7-0.7,12.1-2.9,13.1-9.5c1.3-8.4-4-8.2-7.5-5.5c-3.1,2.4-2.4,8.7-6,13.7l-0.2,0c0-2.3,0.2-7.1,0.3-9.5c0.2-3.1-1.1-7.3-3.7-8.9
			C756.3,282.4,754,283.7,754,283.7z"/>
		<path class="st16" d="M906.7,222.5c-17.4-1.4-13,23.2-11.5,29.8c-5.6,3.4-10.4,7-14.6,10.6c1.7-8.3,8.5-13.7,7.9-19.1
			c-0.7-6-5.7-11.6-12.8-2.1c-5.7,7.5,0.5,18.4,3.4,22.6c-7.1,6.2-12.2,12.2-15.6,16.9c0.5-9.7,7.6-16.7,6.2-22.7
			c-1.6-6.5-7.8-12-14.4-0.7c-5.5,9.4,3.7,21.1,7.1,24.9c-3,4.3-4.4,7.2-4.5,7.5c-2.8,5.8-5.2,11.4-7.2,16.9
			c0.2-8.5,5.1-15.6,3.1-20.8c-2.5-6.3-9.4-10.8-14.4,1.4c-4,9.6,5.8,19.5,10,23.2c-4,11.6-6.3,22.7-7.5,32.8
			c-2.7-7.4-1-20-5.9-25.9c-3.2-3.9-6.8-3.6-9.3-2.6c-2.1,0.8-3.7,2.5-4.4,4.7c-4.1,12.1,13.8,22.8,19.3,25.8
			c-1.4,12.5-1.1,23.7-0.2,32.9c-1.4-3.8-3.5-9.6-4.5-12.7c-1.5-4.8-6.1-10.5-10.8-11.6c-0.2,0-0.4-0.1-0.6-0.1
			c-3.6-0.6-7.1,1.8-8.2,5.3c-4.6,13.7,19.3,21.2,24.5,22.6c0,0.1,0,0.1,0,0.2c3,23.2,10.2,37.4,10.5,38l2.2-1.1
			c-0.1-0.1-6.9-13.6-10-35.3c20.2-11.5,20.8-26.1,16-29.4c-5-3.4-13.9-1.5-13.9,8.8c0,6-1.4,12.3-2.5,16.6
			c-1.1-9.3-1.4-20.7,0-33.6c30.4-5.5,25.3-24,17.9-25.6c-7.5-1.7-11,2.8-12.6,11.4c-1.1,5.7-3.5,10.2-5.1,12.6
			c1.2-10,3.5-20.8,7.3-32.3c5,2.3,18.2,7.4,25.5-0.2c9.1-9.5,2.2-14-4.6-13.7c-6.2,0.3-11,9.2-20.3,12.2c2.2-6.3,4.9-12.8,8.1-19.4
			c0.1-0.1,2.8-5.8,9.4-13.6c4.7,3,17.1,9.6,25.2,3c10.2-8.3,3.9-13.6-2.8-14.2c-6-0.5-11.7,7.2-20.9,9.4c5.7-6.5,14-14.2,25.3-21.2
			c4.9,3,17,9.3,24.9,2.8c10.2-8.3,3.9-13.6-2.8-14.2c-6.1-0.5-11.9,7.5-21.3,9.5l-0.1-0.2c2.4-2.6,7.6-8,10.3-10.5
			c3.5-3.3,6.3-9.6,5-14.1C910.9,223.4,906.7,222.5,906.7,222.5z"/>
		<g>
			
				<rect x="1070" y="324.5" transform="matrix(0.9388 0.3446 -0.3446 0.9388 202.3288 -362.8879)" class="st17" width="104.2" height="126.5"/>
			
				<rect x="1071.6" y="315.6" transform="matrix(0.9388 0.3446 -0.3446 0.9388 197.7341 -355.0054)" class="st18" width="52.1" height="126.5"/>
			<g>
				<path class="st19" d="M1109.4,327.4L1109.4,327.4c-1.1-0.5-1.5-1.7-1-2.7c1.7-3.4,5.7-10.8,11.8-17.6
					c11-12.3,23.5-16.7,36.1-12.7c7,2.2,12.2,6.6,15.4,12.9c7.4,14.3,2.7,34.6,0.9,41.1c-0.3,1.1-1.5,1.7-2.6,1.4l0,0
					c-1-0.3-1.6-1.4-1.3-2.4c1.6-6,6-25.3-0.6-38.2c-2.8-5.3-7.1-9-13.1-10.9c-11.1-3.5-21.8,0.4-31.9,11.6
					c-5.8,6.4-9.6,13.5-11.2,16.7C1111.5,327.4,1110.4,327.8,1109.4,327.4z"/>
			</g>
		</g>
		<path class="st20" d="M813.3,440.6c7.8,2.8,13.6,6.9,17.9,11.7c-1.5,3.2-3.3,6.9-3.3,6.9l6.1-3.5c14.1,19.8,7,48.1,7,48.1
			c-17.2-5.9-26.3-14.4-30.6-23.2c1.8-1.8,4.4-4.4,4.4-4.4l-5.7,1.5c-1.7-4.5-2.3-9-2.2-13.3c3-0.8,6.3-1.7,6.3-1.7l-6-2.4
			C808.3,449.1,813.3,440.6,813.3,440.6z"/>
		<g>
			<path class="st21" d="M755.4,452.7c17.2-2.4,32.1-0.4,44.8,4.3c0.2,7.4,0.6,16.2,0.6,16.2l7.9-12.5
				c45.8,23.2,60.1,82.8,60.1,82.8c-37.8,5.9-63.1-1-79.9-13.3c1.5-5.1,3.9-12.6,3.9-12.6l-9.1,8.4c-7.6-6.7-13.1-14.6-17.2-22.6
				c4.8-4.3,10.1-9.4,10.1-9.4l-13.6,1.4C754.3,473.5,755.4,452.7,755.4,452.7z"/>
			<path class="st15" d="M788.9,530.2c1.5-5.1,3.9-12.6,3.9-12.6l-9.1,8.4c-7.6-6.7-13.1-14.6-17.2-22.6c4.8-4.3,10.1-9.4,10.1-9.4
				l-13.6,1.4c-8.6-21.9-7.5-42.7-7.5-42.7c56.1,22.3,113.3,90.8,113.3,90.8C830.9,549.5,805.7,542.5,788.9,530.2z"/>
		</g>
		<g>
			<path class="st22" d="M752.7,530.2c7.9-8.4,16.4-13.5,25-16.3c3.2,3.7,7,8.1,7,8.1l-1.1-9.7c33.3-7,65.4,18,65.4,18
				c-17.1,18.8-33.1,25.6-46.9,26.2c-1.3-3.3-3.2-8.1-3.2-8.1l-1.3,8.1c-6.7-0.3-12.9-2.1-18.3-4.6c0.7-4.2,1.3-9,1.3-9l-6.5,6.4
				C760.7,541.4,752.7,530.2,752.7,530.2z"/>
			<path class="st23" d="M802.1,556.5c-1.3-3.3-3.2-8.1-3.2-8.1l-1.3,8.1c-6.7-0.3-12.9-2.1-18.3-4.6c0.7-4.2,1.3-9,1.3-9l-6.5,6.4
				c-13.5-7.8-21.6-19-21.6-19c38.3-11.7,96.4,0.1,96.4,0.1C831.9,549,815.9,555.9,802.1,556.5z"/>
		</g>
		<path class="st24" d="M810.3,480.6c1.8-1.8,4.4-4.4,4.4-4.4l-5.7,1.5c-1.7-4.5-2.3-9-2.2-13.3c3-0.8,6.3-1.7,6.3-1.7l-6-2.4
			c1.2-11.1,6.3-19.6,6.3-19.6c18.6,21.8,27.6,63.2,27.6,63.2C823.7,497.9,814.7,489.4,810.3,480.6z"/>
		<g>
			<path class="st22" d="M1118.7,438.7l55.9-76.9c2.1-2.9,6.1-3.5,9-1.4l43.3,31.5c2.9,2.1,3.5,6.1,1.4,9l-55.9,76.9
				c-2.1,2.9-6.1,3.5-9,1.4l-43.3-31.5C1117.2,445.5,1116.6,441.5,1118.7,438.7z"/>
			
				<rect x="1127.7" y="417.2" transform="matrix(-0.5881 0.8088 -0.8088 -0.5881 2220.9138 -279.7045)" class="st25" width="107.9" height="16.9"/>
			<path class="st25" d="M1167.3,400.5l21.7-29.9c0.3-0.4,0.8-0.5,1.2-0.2l0.2,0.1c0.4,0.3,0.5,0.8,0.2,1.2l-21.7,29.9
				c-0.3,0.4-0.8,0.5-1.2,0.2l-0.2-0.1C1167.1,401.4,1167,400.9,1167.3,400.5z"/>
			<path class="st25" d="M1167.2,392.4l17.9-24.6c0.3-0.4,0.8-0.5,1.2-0.2l0.2,0.1c0.4,0.3,0.5,0.8,0.2,1.2l-17.9,24.6
				c-0.3,0.4-0.8,0.5-1.2,0.2l-0.2-0.1C1167,393.3,1167,392.8,1167.2,392.4z"/>
			<path class="st25" d="M1159.5,394.8l21.7-29.9c0.3-0.4,0.8-0.5,1.2-0.2l0.2,0.1c0.4,0.3,0.5,0.8,0.2,1.2l-21.7,29.9
				c-0.3,0.4-0.8,0.5-1.2,0.2l-0.2-0.1C1159.3,395.7,1159.3,395.2,1159.5,394.8z"/>
			<path class="st25" d="M1129.4,436.3l6.8-9.4c1.2-1.7,3.6-2,5.2-0.8l3.3,2.4c1.7,1.2,2,3.6,0.8,5.2l-6.8,9.4
				c-1.2,1.7-3.6,2-5.2,0.8l-3.3-2.4C1128.6,440.3,1128.2,437.9,1129.4,436.3z"/>
		</g>
		<g>
			<path class="st20" d="M818.6,373l62.4,71.7c2.3,2.7,2,6.7-0.6,9.1L840,488.9c-2.7,2.3-6.7,2-9.1-0.6l-62.4-71.7
				c-2.3-2.7-2-6.7,0.6-9.1l40.4-35.2C812.2,370,816.3,370.3,818.6,373z"/>
			
				<rect x="763.2" y="428.8" transform="matrix(-0.6567 -0.7541 0.7541 -0.6567 1024.0691 1340.6398)" class="st25" width="107.9" height="16.9"/>
			<path class="st25" d="M844.9,428.9l24.3,27.9c0.3,0.4,0.3,0.9-0.1,1.2l-0.2,0.2c-0.4,0.3-0.9,0.3-1.2-0.1l-24.3-27.9
				c-0.3-0.4-0.3-0.9,0.1-1.2l0.2-0.2C844.1,428.5,844.6,428.5,844.9,428.9z"/>
			<path class="st25" d="M852.8,430.6l20,23c0.3,0.4,0.3,0.9-0.1,1.2l-0.2,0.2c-0.4,0.3-0.9,0.3-1.2-0.1l-20-23
				c-0.3-0.4-0.3-0.9,0.1-1.2l0.2-0.2C851.9,430.2,852.5,430.2,852.8,430.6z"/>
			<path class="st25" d="M852.2,422.6l24.3,27.9c0.3,0.4,0.3,0.9-0.1,1.2l-0.2,0.2c-0.4,0.3-0.9,0.3-1.2-0.1l-24.3-27.9
				c-0.3-0.4-0.3-0.9,0.1-1.2l0.2-0.2C851.3,422.2,851.9,422.2,852.2,422.6z"/>
			<path class="st25" d="M818.5,383.9l7.6,8.8c1.4,1.6,1.2,3.9-0.4,5.3l-3.1,2.7c-1.6,1.4-3.9,1.2-5.3-0.4l-7.6-8.8
				c-1.4-1.6-1.2-3.9,0.4-5.3l3.1-2.7C814.8,382.2,817.2,382.4,818.5,383.9z"/>
		</g>
		<g>
			<path class="st20" d="M1149.3,406.5c-9,3.6-15.6,8.6-20.4,14.4c1.9,3.6,4.2,8,4.2,8l-7.2-3.8c-15.7,23.8-6.2,56.5-6.2,56.5
				c19.9-7.6,30.2-17.9,34.9-28.4c-2.1-2-5.4-5-5.4-5l6.7,1.5c1.8-5.3,2.3-10.7,2.1-15.7c-3.5-0.8-7.4-1.7-7.4-1.7l7-3.1
				C1155.6,416.2,1149.3,406.5,1149.3,406.5z"/>
			<path class="st24" d="M1154.5,453.1c-2.1-2-5.4-5-5.4-5l6.7,1.5c1.8-5.3,2.3-10.7,2.1-15.7c-3.5-0.8-7.4-1.7-7.4-1.7l7-3.1
				c-1.9-12.9-8.1-22.7-8.1-22.7c-20.9,26.2-29.7,75-29.7,75C1139.5,474,1149.7,463.7,1154.5,453.1z"/>
		</g>
		<g>
			<path class="st21" d="M1226.5,427.3c-20.1-3.1-37.5-1-52.4,4.4c-0.3,8.6-0.9,18.9-0.9,18.9l-9.1-14.7
				c-53.9,26.5-71.4,96.1-71.4,96.1c44.2,7.5,73.8-0.4,93.7-14.5c-1.7-6-4.4-14.8-4.4-14.8l10.6,9.9c9-7.8,15.6-16.9,20.4-26.2
				c-5.5-5.1-11.7-11.1-11.7-11.1l15.9,1.9C1227.5,451.6,1226.5,427.3,1226.5,427.3z"/>
			<path class="st15" d="M1186.3,517.4c-1.7-6-4.4-14.8-4.4-14.8l10.6,9.9c9-7.8,15.6-16.9,20.4-26.2c-5.5-5.1-11.7-11.1-11.7-11.1
				l15.9,1.9c10.4-25.5,9.3-49.9,9.3-49.9c-65.9,25.4-133.8,104.7-133.8,104.7C1136.8,539.4,1166.4,531.6,1186.3,517.4z"/>
		</g>
		<g>
			<path class="st17" d="M1212,520.2c-10.7-8.3-21.4-12.8-31.8-14.6c-3,4.9-6.7,10.6-6.7,10.6l-0.4-11.4
				c-39.8-2.3-72.6,32.2-72.6,32.2c23.1,18.7,42.8,23.9,58.9,22.2c0.9-4,2.3-10,2.3-10l2.9,9.2c7.7-1.6,14.5-4.7,20.4-8.5
				c-1.5-4.8-3.1-10.2-3.1-10.2l8.6,6.3C1204.7,534.6,1212,520.2,1212,520.2z"/>
			<path class="st18" d="M1159.4,559.2c0.9-4,2.3-10,2.3-10l2.9,9.2c7.7-1.6,14.5-4.7,20.4-8.5c-1.5-4.8-3.1-10.2-3.1-10.2l8.6,6.3
				c14.3-11.4,21.7-25.8,21.7-25.8c-46.4-6.8-111.5,16.9-111.5,16.9C1123.6,555.8,1143.3,560.9,1159.4,559.2z"/>
		</g>
		<path class="st17" d="M1093.2,185.7c0,0-0.4,3.8-3.4,4.1c3,0.3,3.4,4.1,3.4,4.1s0.4-3.8,3.4-4.1
			C1093.6,189.5,1093.2,185.7,1093.2,185.7z"/>
		<path class="st17" d="M1027.6,310.5c0,0-0.7,6.5-5.8,6.9c5.1,0.4,5.8,6.9,5.8,6.9s0.7-6.5,5.8-6.9
			C1028.2,317,1027.6,310.5,1027.6,310.5z"/>
		<path class="st17" d="M861.3,187.7c0,0-0.3,3.3-2.9,3.5c2.6,0.2,2.9,3.5,2.9,3.5s0.3-3.3,2.9-3.5
			C861.6,191,861.3,187.7,861.3,187.7z"/>
		<path class="st24" d="M1203.2,236.6c0,0-0.7,6.5-5.8,7c5.2,0.5,5.8,7,5.8,7s0.7-6.5,5.8-7C1203.9,243.1,1203.2,236.6,1203.2,236.6
			z"/>
		<path class="st21" d="M1127.8,260.5c0,0-0.7,7.1-6.3,7.6c5.6,0.5,6.3,7.6,6.3,7.6s0.7-7.1,6.3-7.6
			C1128.5,267.6,1127.8,260.5,1127.8,260.5z"/>
		<path class="st21" d="M967.7,186.3c0,0-0.7,7.1-6.3,7.6c5.6,0.5,6.3,7.6,6.3,7.6s0.7-7.1,6.3-7.6
			C968.4,193.4,967.7,186.3,967.7,186.3z"/>
		<path class="st24" d="M1041.5,155.8c0,0-0.7,7.1-6.3,7.6c5.6,0.5,6.3,7.6,6.3,7.6s0.7-7.1,6.3-7.6
			C1042.2,162.9,1041.5,155.8,1041.5,155.8z"/>
		<path class="st22" d="M1160.4,164.7c0,0-0.7,7.1-6.3,7.6c5.6,0.5,6.3,7.6,6.3,7.6s0.7-7.1,6.3-7.6
			C1161.1,171.7,1160.4,164.7,1160.4,164.7z"/>
		<path class="st22" d="M825.9,224.6c0,0-0.7,7.1-6.3,7.6c5.6,0.5,6.3,7.6,6.3,7.6s0.7-7.1,6.3-7.6
			C826.6,231.7,825.9,224.6,825.9,224.6z"/>
		<path class="st22" d="M961,262.6c0,0-0.4,4-3.6,4.3c3.2,0.3,3.6,4.3,3.6,4.3s0.4-4,3.6-4.3C961.4,266.6,961,262.6,961,262.6z"/>
		<g>
			<path class="st25" d="M869.7,556.3h213.2c20.3,0,36.8-16.5,36.8-36.8V383.4c0-20.3-16.5-36.8-36.8-36.8H869.7
				c-20.3,0-36.8,16.5-36.8,36.8v136.1C832.9,539.8,849.4,556.3,869.7,556.3z"/>
			<g>
				<path class="st19" d="M853.3,548.1h247.3c6.5,0,11.7-5.3,11.7-11.7V366.6c0-6.5-5.3-11.7-11.7-11.7H853.3V548.1z"/>
				
					<rect x="865.5" y="380.5" transform="matrix(-1 -4.490642e-11 4.490642e-11 -1 1967.2858 925.3201)" class="st0" width="236.4" height="164.3"/>
				<path class="st22" d="M865.5,385v-12.2c0-4.2,3.4-7.6,7.6-7.6h221.3c4.2,0,7.6,3.4,7.6,7.6V385H865.5z"/>
				<path class="st0" d="M880.4,379.9h92.2c2.6,0,4.8-2.1,4.8-4.8v0c0-2.6-2.1-4.8-4.8-4.8h-92.2c-2.6,0-4.8,2.1-4.8,4.8v0
					C875.6,377.8,877.8,379.9,880.4,379.9z"/>
				<path class="st0" d="M1082.3,374.6c-0.3,2.7,1.9,5,4.7,4.7c1.9-0.2,3.4-1.7,3.6-3.6c0.3-2.7-1.9-5-4.7-4.7
					C1084.1,371.2,1082.6,372.7,1082.3,374.6z"/>
				<path class="st0" d="M1064.1,374.6c-0.3,2.7,1.9,5,4.7,4.7c1.9-0.2,3.4-1.7,3.6-3.6c0.3-2.7-1.9-5-4.7-4.7
					C1065.9,371.2,1064.4,372.7,1064.1,374.6z"/>
				<path class="st0" d="M1046,374.6c-0.3,2.7,1.9,5,4.7,4.7c1.9-0.2,3.4-1.7,3.6-3.6c0.3-2.7-1.9-5-4.7-4.7
					C1047.7,371.2,1046.2,372.7,1046,374.6z"/>
				<g>
					<path class="st19" d="M949.1,475h69.1c4.6,0,8.3-3.7,8.3-8.3v-48.4c0-4.6-3.7-8.3-8.3-8.3h-69.1c-4.6,0-8.3,3.7-8.3,8.3v48.4
						C940.8,471.3,944.5,475,949.1,475z"/>
					<g>
						<g>
							<g>
								<path class="st22" d="M990,460.7c0-2.1,1.7-3.8,3.8-3.8c2.1,0,3.8,1.7,3.8,3.8s-1.7,3.8-3.8,3.8
									C991.7,464.6,990,462.9,990,460.7z M991.2,460.7c0,1.5,1.2,2.7,2.7,2.7s2.7-1.2,2.7-2.7s-1.2-2.7-2.7-2.7
									S991.2,459.3,991.2,460.7z"/>
							</g>
							<g>
								<path class="st22" d="M974.5,460.7c0-2.1,1.7-3.8,3.8-3.8c2.1,0,3.8,1.7,3.8,3.8s-1.7,3.8-3.8,3.8
									C976.2,464.6,974.5,462.9,974.5,460.7z M975.7,460.7c0,1.5,1.2,2.7,2.7,2.7s2.7-1.2,2.7-2.7s-1.2-2.7-2.7-2.7
									S975.7,459.3,975.7,460.7z"/>
							</g>
							<path class="st22" d="M956,421.4l9.9,2.2c0.2,0,0.4,0.2,0.4,0.4l1,5h0l0.1,0.6l5.4,26.8c0,0.2,0.3,0.4,0.6,0.4h24.8
								c0.3,0,0.6-0.2,0.6-0.5l0,0c0-0.3-0.3-0.5-0.6-0.5h-23.9c-0.3,0-0.5-0.2-0.6-0.4l-0.6-2.9c-0.1-0.3,0.2-0.6,0.6-0.6h28.3
								c0.2,0,0.5-0.1,0.6-0.3l9-21.9c0.1-0.3-0.1-0.7-0.6-0.7h-42.1c-0.3,0-0.5-0.2-0.6-0.4l-1.1-5.4c0-0.2-0.2-0.4-0.4-0.4
								l-10.7-2.3c-0.3-0.1-0.6,0.1-0.7,0.4l0,0C955.5,421.1,955.7,421.3,956,421.4z M1007,438.1l-2.3,5.6c-0.1,0.2-0.3,0.3-0.6,0.3
								h-6.1c-0.4,0-0.6-0.3-0.6-0.6l1.3-5.6c0.1-0.2,0.3-0.4,0.6-0.4h7.1C1006.9,437.4,1007.1,437.8,1007,438.1z M997.5,438
								l-1.3,5.6c-0.1,0.2-0.3,0.4-0.6,0.4h-5.9c-0.3,0-0.6-0.2-0.6-0.5v-5.6c0-0.3,0.3-0.5,0.6-0.5h7.2
								C997.3,437.4,997.6,437.7,997.5,438z M987.4,436.4h-6.6c-0.3,0-0.6-0.2-0.6-0.5l-0.7-5.3c0-0.3,0.2-0.6,0.6-0.6h7.2
								c0.3,0,0.6,0.2,0.6,0.5v5.3C988,436.2,987.7,436.4,987.4,436.4z M981,437.4h6.3c0.3,0,0.6,0.2,0.6,0.5v5.6
								c0,0.3-0.3,0.5-0.6,0.5h-5.6c-0.3,0-0.6-0.2-0.6-0.5l-0.7-5.6C980.4,437.7,980.7,437.4,981,437.4z M989.1,435.9v-5.3
								c0-0.3,0.3-0.5,0.6-0.5h9c0.4,0,0.6,0.3,0.6,0.6L998,436c-0.1,0.2-0.3,0.4-0.6,0.4h-7.7C989.4,436.4,989.1,436.2,989.1,435.9
								z M989.7,445.1h5.5c0.4,0,0.6,0.3,0.6,0.6l-1.1,4.8c-0.1,0.2-0.3,0.4-0.6,0.4h-4.3c-0.3,0-0.6-0.2-0.6-0.5v-4.8
								C989.1,445.3,989.4,445.1,989.7,445.1z M988,445.6v4.8c0,0.3-0.3,0.5-0.6,0.5h-4.8c-0.3,0-0.6-0.2-0.6-0.5l-0.6-4.8
								c0-0.3,0.2-0.6,0.6-0.6h5.4C987.7,445.1,988,445.3,988,445.6z M980.2,445.5l0.6,4.8c0,0.3-0.2,0.6-0.6,0.6h-6.7
								c-0.3,0-0.5-0.2-0.6-0.4l-1-4.8c-0.1-0.3,0.2-0.6,0.6-0.6h7.1C979.9,445.1,980.2,445.3,980.2,445.5z M979.4,444h-7.3
								c-0.3,0-0.5-0.2-0.6-0.4l-1.1-5.6c-0.1-0.3,0.2-0.6,0.6-0.6h7.7c0.3,0,0.6,0.2,0.6,0.5l0.7,5.6
								C980,443.8,979.7,444,979.4,444z M970,436l-1.1-5.3c-0.1-0.3,0.2-0.6,0.6-0.6h8.3c0.3,0,0.6,0.2,0.6,0.5l0.7,5.3
								c0,0.3-0.2,0.6-0.6,0.6h-7.9C970.3,436.4,970,436.2,970,436z M1001.1,430h8.4c0.4,0,0.7,0.3,0.6,0.7l-2.2,5.3
								c-0.1,0.2-0.3,0.3-0.6,0.3h-7.5c-0.4,0-0.6-0.3-0.6-0.6l1.2-5.3C1000.6,430.2,1000.8,430,1001.1,430z M1003.9,445.7l-2,4.8
								c-0.1,0.2-0.3,0.3-0.6,0.3h-4.9c-0.4,0-0.6-0.3-0.6-0.6l1.1-4.8c0.1-0.2,0.3-0.4,0.6-0.4h5.7
								C1003.7,445.1,1004,445.4,1003.9,445.7z"/>
						</g>
					</g>
				</g>
				<g>
					<path class="st22" d="M957,534.4h53.2c3.4,0,6.2-2.8,6.2-6.2v0c0-3.4-2.8-6.2-6.2-6.2H957c-3.4,0-6.2,2.8-6.2,6.2l0,0
						C950.8,531.7,953.6,534.4,957,534.4z"/>
					<g>
						<path class="st0" d="M996.2,528.7c0.1-0.2,0.1-0.3,0.2-0.4c0.1-0.1,0.2-0.2,0.3-0.3c0.1-0.1,0.3-0.1,0.4-0.2
							c-0.1,0-0.2-0.1-0.3-0.2c-0.1-0.1-0.2-0.2-0.2-0.3c-0.1-0.1-0.1-0.2-0.1-0.3c0-0.1,0-0.2,0-0.4c0-0.2,0-0.4,0.1-0.6
							c0.1-0.2,0.2-0.3,0.3-0.4c0.1-0.1,0.3-0.2,0.5-0.3c0.2-0.1,0.5-0.1,0.8-0.1h1.2c0.1,0,0.1,0,0.2,0.1c0.1,0,0.1,0.1,0.1,0.2
							v4.8c0,0.1,0,0.2-0.1,0.2c-0.1,0-0.1,0.1-0.2,0.1H998c-0.2,0-0.4,0-0.5,0c-0.2,0-0.3-0.1-0.4-0.1c-0.1-0.1-0.3-0.1-0.4-0.2
							c-0.1-0.1-0.2-0.2-0.3-0.3c-0.1-0.1-0.1-0.2-0.2-0.4c0-0.1-0.1-0.3-0.1-0.5C996.1,529,996.1,528.9,996.2,528.7z M997.2,527.2
							c0,0.1,0.1,0.2,0.2,0.3c0.1,0.1,0.2,0.1,0.3,0.2c0.1,0,0.3,0.1,0.4,0.1h0.8V526h-0.7c-0.2,0-0.4,0-0.5,0.1
							c-0.1,0-0.2,0.1-0.3,0.2c-0.1,0.1-0.1,0.2-0.2,0.3c0,0.1-0.1,0.2-0.1,0.4C997.2,526.9,997.2,527.1,997.2,527.2z M996.9,529.6
							c0.1,0.1,0.1,0.2,0.2,0.3c0.1,0.1,0.2,0.1,0.3,0.2c0.1,0,0.3,0.1,0.4,0.1h1v-1.9h-0.8c-0.2,0-0.4,0-0.6,0.1
							c-0.1,0-0.3,0.1-0.4,0.2c-0.1,0.1-0.2,0.2-0.2,0.3c-0.1,0.1-0.1,0.3-0.1,0.4C996.9,529.4,996.9,529.5,996.9,529.6z"/>
						<path class="st0" d="M991,525.5C991,525.5,991,525.5,991,525.5C991.1,525.4,991.1,525.4,991,525.5c0.1-0.1,0.1-0.1,0.2-0.1
							c0,0,0.1,0,0.2,0c0.1,0,0.1,0,0.2,0c0,0,0.1,0,0.1,0c0,0,0,0,0.1,0c0,0,0,0,0,0.1v3.3c0,0.2,0,0.4,0.1,0.6
							c0.1,0.2,0.1,0.3,0.3,0.4c0.1,0.1,0.2,0.2,0.4,0.3c0.2,0.1,0.3,0.1,0.6,0.1c0.2,0,0.4,0,0.5-0.1c0.2-0.1,0.3-0.2,0.4-0.3
							c0.1-0.1,0.2-0.3,0.3-0.5c0.1-0.2,0.1-0.4,0.1-0.6v-3.2c0,0,0,0,0-0.1c0,0,0,0,0.1,0c0,0,0.1,0,0.1,0c0,0,0.1,0,0.2,0
							c0.1,0,0.1,0,0.2,0c0,0,0.1,0,0.1,0c0,0,0,0,0.1,0c0,0,0,0,0,0.1v3.3c0,0.3,0,0.6-0.1,0.9s-0.2,0.5-0.4,0.6
							c-0.2,0.2-0.4,0.3-0.6,0.4c-0.2,0.1-0.5,0.1-0.8,0.1c-0.3,0-0.6,0-0.9-0.1c-0.3-0.1-0.5-0.2-0.6-0.4c-0.2-0.2-0.3-0.4-0.4-0.6
							c-0.1-0.3-0.1-0.5-0.1-0.9V525.5z"/>
						<path class="st0" d="M986.7,530.3C986.7,530.3,986.7,530.2,986.7,530.3c0-0.1,0.1-0.1,0.1-0.1c0,0,0,0,0.1,0h2.1v-1.9h-1.8
							c0,0,0,0-0.1,0c0,0,0,0,0,0c0,0,0-0.1,0-0.1c0,0,0-0.1,0-0.1c0-0.1,0-0.1,0-0.1s0-0.1,0-0.1c0,0,0,0,0-0.1c0,0,0,0,0.1,0h1.8
							V526h-2.1c0,0,0,0-0.1,0c0,0,0,0,0-0.1c0,0,0-0.1,0-0.1c0,0,0-0.1,0-0.1c0-0.1,0-0.1,0-0.1c0,0,0-0.1,0-0.1c0,0,0,0,0-0.1
							c0,0,0,0,0.1,0h2.5c0.1,0,0.1,0,0.2,0.1c0.1,0,0.1,0.1,0.1,0.2v4.8c0,0.1,0,0.2-0.1,0.2c-0.1,0-0.1,0.1-0.2,0.1h-2.6
							c0,0,0,0-0.1,0c0,0,0,0,0-0.1c0,0,0-0.1,0-0.1c0,0,0-0.1,0-0.1C986.7,530.4,986.7,530.4,986.7,530.3z"/>
						<path class="st0" d="M979.6,525.5C979.6,525.5,979.6,525.5,979.6,525.5C979.6,525.5,979.6,525.4,979.6,525.5
							c0.1-0.1,0.1-0.1,0.2-0.1c0,0,0.1,0,0.2,0c0.1,0,0.1,0,0.2,0c0,0,0.1,0,0.1,0c0,0,0,0,0.1,0c0,0,0,0,0,0.1v2.9
							c0,0.2,0,0.4,0,0.7c0,0.2,0,0.5,0,0.7h0c0.1-0.1,0.1-0.3,0.2-0.4c0.1-0.1,0.1-0.3,0.2-0.4c0.1-0.1,0.1-0.3,0.2-0.4
							c0.1-0.1,0.1-0.3,0.2-0.4l1.3-2.3c0-0.1,0.1-0.2,0.1-0.2c0-0.1,0.1-0.1,0.1-0.1c0,0,0.1-0.1,0.1-0.1c0.1,0,0.1,0,0.2,0h0.3
							c0.1,0,0.1,0,0.2,0.1c0.1,0,0.1,0.1,0.1,0.2v4.9c0,0,0,0,0,0.1c0,0,0,0-0.1,0c0,0-0.1,0-0.1,0c0,0-0.1,0-0.2,0
							c-0.1,0-0.1,0-0.2,0c0,0-0.1,0-0.1,0c0,0,0,0-0.1,0c0,0,0,0,0-0.1v-3.2c0-0.2,0-0.4,0-0.6c0-0.2,0-0.4,0-0.6h0
							c-0.1,0.2-0.2,0.3-0.2,0.5c-0.1,0.2-0.2,0.3-0.3,0.5l-1.6,3c-0.1,0.1-0.1,0.2-0.2,0.3c0,0.1-0.1,0.1-0.1,0.2
							c0,0-0.1,0.1-0.2,0.1c-0.1,0-0.1,0-0.2,0h-0.2c0,0-0.1,0-0.1,0c0,0-0.1,0-0.1-0.1c0,0-0.1-0.1-0.1-0.1c0,0,0-0.1,0-0.1V525.5z
							"/>
						<path class="st0" d="M973.8,526.9c0.1-0.3,0.2-0.6,0.4-0.8c0.2-0.2,0.4-0.4,0.7-0.5c0.3-0.1,0.6-0.2,1-0.2
							c0.4,0,0.8,0.1,1.1,0.2c0.3,0.1,0.6,0.3,0.8,0.6c0.2,0.2,0.4,0.5,0.5,0.9c0.1,0.3,0.2,0.7,0.2,1.1c0,0.4,0,0.8-0.1,1.2
							c-0.1,0.3-0.2,0.6-0.4,0.8c-0.2,0.2-0.4,0.4-0.7,0.5c-0.3,0.1-0.6,0.2-1,0.2c-0.4,0-0.8-0.1-1.1-0.2c-0.3-0.1-0.6-0.3-0.8-0.6
							c-0.2-0.2-0.4-0.5-0.5-0.9c-0.1-0.3-0.2-0.7-0.2-1.2C973.7,527.6,973.7,527.2,973.8,526.9z M974.5,528.9
							c0.1,0.3,0.1,0.5,0.3,0.7c0.1,0.2,0.3,0.4,0.5,0.5c0.2,0.1,0.5,0.2,0.8,0.2c0.3,0,0.6-0.1,0.8-0.2c0.2-0.1,0.4-0.3,0.5-0.4
							c0.1-0.2,0.2-0.4,0.3-0.7c0.1-0.3,0.1-0.6,0.1-0.9c0-0.3,0-0.6-0.1-0.8c-0.1-0.3-0.1-0.5-0.3-0.7c-0.1-0.2-0.3-0.3-0.5-0.5
							c-0.2-0.1-0.5-0.2-0.8-0.2c-0.3,0-0.6,0.1-0.8,0.2c-0.2,0.1-0.4,0.3-0.5,0.4c-0.1,0.2-0.2,0.4-0.3,0.7
							c-0.1,0.3-0.1,0.5-0.1,0.8C974.4,528.4,974.5,528.6,974.5,528.9z"/>
						<path class="st0" d="M966.1,525.7c0-0.1,0-0.1,0-0.1c0,0,0-0.1,0-0.1c0,0,0.1,0,0.1,0c0,0,0.1,0,0.2,0c0.1,0,0.1,0,0.2,0
							c0,0,0.1,0,0.1,0c0,0,0,0,0.1,0c0,0,0,0,0,0.1l1.2,4.5h0l1.2-4.5c0,0,0-0.1,0-0.1c0,0,0,0,0.1,0c0,0,0.1,0,0.1,0
							c0,0,0.1,0,0.2,0c0.1,0,0.1,0,0.2,0c0.1,0,0.1,0,0.1,0c0,0,0,0,0.1,0c0,0,0,0,0,0.1l1.1,4.5h0l1.2-4.5c0,0,0-0.1,0-0.1
							c0,0,0,0,0.1,0c0,0,0.1,0,0.1,0c0,0,0.1,0,0.2,0c0.1,0,0.2,0,0.2,0c0.1,0,0.1,0,0.1,0c0,0,0,0,0,0.1c0,0,0,0.1,0,0.1l-1.4,4.9
							c0,0,0,0.1,0,0.1c0,0-0.1,0-0.1,0.1c0,0-0.1,0-0.1,0c-0.1,0-0.1,0-0.2,0c-0.1,0-0.2,0-0.2,0c-0.1,0-0.1,0-0.1,0
							c0,0-0.1,0-0.1-0.1c0,0,0-0.1,0-0.1l-1-4h0l-1.1,4c0,0,0,0.1,0,0.1c0,0,0,0-0.1,0.1c0,0-0.1,0-0.1,0c-0.1,0-0.1,0-0.2,0
							c-0.1,0-0.2,0-0.2,0c-0.1,0-0.1,0-0.1,0c0,0-0.1,0-0.1-0.1c0,0,0-0.1,0-0.1L966.1,525.7z"/>
					</g>
				</g>
				<g>
					
						<rect x="940.6" y="504.8" transform="matrix(-1 -4.488333e-11 4.488333e-11 -1 1967.2856 1012.2849)" class="st19" width="86.1" height="2.7"/>
					
						<rect x="940.6" y="511.1" transform="matrix(-1 -4.490420e-11 4.490420e-11 -1 1967.2856 1024.8395)" class="st19" width="86.1" height="2.7"/>
					
						<rect x="940.6" y="498.5" transform="matrix(-1 -4.490420e-11 4.490420e-11 -1 1967.2856 999.7299)" class="st19" width="86.1" height="2.7"/>
					
						<rect x="940.6" y="492.2" transform="matrix(-1 -4.490420e-11 4.490420e-11 -1 1967.2856 987.1746)" class="st19" width="86.1" height="2.7"/>
					
						<rect x="940.6" y="486" transform="matrix(-1 -4.490420e-11 4.490420e-11 -1 1967.2856 974.6194)" class="st19" width="86.1" height="2.7"/>
				</g>
			</g>
			<path class="st26" d="M835.5,450.9c-0.4,4.5,3.4,8.2,7.8,7.8c3.5-0.3,6.4-3.1,6.7-6.7c0.4-4.5-3.4-8.2-7.8-7.8
				C838.6,444.5,835.8,447.3,835.5,450.9z"/>
			<g>
				<path class="st19" d="M839.7,453.6v-4.3c0-0.5,0.4-0.9,0.9-0.9h4.3c0.5,0,0.9,0.4,0.9,0.9v4.3c0,0.5-0.4,0.9-0.9,0.9h-4.3
					C840.1,454.5,839.7,454.1,839.7,453.6z M840.6,448.7c-0.3,0-0.6,0.3-0.6,0.6v4.3c0,0.3,0.3,0.6,0.6,0.6h4.3
					c0.3,0,0.6-0.3,0.6-0.6v-4.3c0-0.3-0.3-0.6-0.6-0.6H840.6z"/>
			</g>
		</g>
		<path class="st27" d="M1104.4,295.5c-1.4-5.9-6.6-10.3-12.9-10.3c-1.2,0-2.3,0.1-3.3,0.4c-3.1-6.6-9.8-11.2-17.7-11.2
			c-2,0-4,0.3-5.8,0.9c-4.2-7-11.8-11.6-20.6-11.6c-10.4,0-19.2,6.6-22.6,15.8c-2.4-1.3-5.1-2.1-8-2.1c-9.1,0-16.5,7.4-16.5,16.5
			c0,0.5,0,1.1,0.1,1.6H1104.4z"/>
		<path class="st27" d="M1171.5,249.1c-0.8-3.4-3.8-5.9-7.5-5.9c-0.7,0-1.3,0.1-1.9,0.2c-1.8-3.8-5.7-6.5-10.2-6.5
			c-1.2,0-2.3,0.2-3.3,0.5c-2.4-4-6.8-6.7-11.9-6.7c-6,0-11.1,3.8-13,9.1c-1.4-0.8-2.9-1.2-4.6-1.2c-5.3,0-9.5,4.3-9.5,9.5
			c0,0.3,0,0.6,0,0.9H1171.5z"/>
		<path class="st27" d="M1023.3,211.5c-0.4-1.5-1.7-2.7-3.4-2.7c-0.3,0-0.6,0-0.9,0.1c-0.8-1.7-2.6-2.9-4.6-2.9
			c-0.5,0-1,0.1-1.5,0.2c-1.1-1.8-3.1-3-5.4-3c-2.7,0-5,1.7-5.9,4.1c-0.6-0.3-1.3-0.5-2.1-0.5c-2.4,0-4.3,1.9-4.3,4.3
			c0,0.1,0,0.3,0,0.4H1023.3z"/>
		<path class="st27" d="M939,233.8c0.8-3.4,3.8-5.9,7.5-5.9c0.7,0,1.3,0.1,1.9,0.2c1.8-3.8,5.7-6.5,10.2-6.5c1.2,0,2.3,0.2,3.3,0.5
			c2.4-4,6.8-6.7,11.9-6.7c6,0,11.1,3.8,13,9.1c1.4-0.8,2.9-1.2,4.6-1.2c5.3,0,9.5,4.3,9.5,9.5c0,0.3,0,0.6,0,0.9H939z"/>
		<g>
			<path class="st22" d="M871.8,433.3c-3.8-2.1-7.8-2.3-11.4-0.6c-5.1,2.4-9.5,8.4-13.1,18c-0.9,2.4-1.7,4.8-2.2,6.8
				c-0.6-2-1.3-4.4-2.3-6.9c-3.6-9.6-8-15.7-13.1-18c-3.6-1.7-7.6-1.5-11.4,0.7c-7,3.9-10,9.7-8.2,16.1c1.4,5,5.8,9.9,12.1,13.4
				c5.9,3.2,12.8,5,19.6,5c0.6,0,1.2,0,1.8,0l0.9,0l2.1,0.1c0.6,0,1.2,0,1.8,0c6.8,0,13.7-1.8,19.6-5c6.3-3.5,10.7-8.4,12.1-13.4
				C881.9,443.1,878.9,437.2,871.8,433.3z M816.4,447.6c-0.9-3.3,0.8-6.2,5-8.5c1.3-0.7,2.4-1,3.3-1c0.9,0,1.6,0.3,2.2,0.5
				c3.3,1.5,6.8,6.6,9.7,14.3c1.1,3,2,5.9,2.6,8.2C827.8,460.2,818.1,453.8,816.4,447.6z M873.7,447.6c-1.7,6.1-11.4,12.6-22.8,13.5
				c0.6-2.2,1.5-5.1,2.6-8.2c2.9-7.7,6.3-12.7,9.6-14.3c0.5-0.3,1.3-0.5,2.2-0.5c0.9,0,2,0.2,3.3,1
				C872.9,441.5,874.6,444.3,873.7,447.6z"/>
			<path class="st17" d="M889.2,557.2l-84.9,0.1c-4.6,0-8.3-3.7-8.3-8.3l-0.1-74.9c0-4.6,3.7-8.3,8.3-8.3l84.9-0.1
				c4.6,0,8.3,3.7,8.3,8.3l0.1,74.9C897.5,553.5,893.8,557.2,889.2,557.2z"/>
			<path class="st18" d="M897.5,511.4L796,511.5l0-35.1c0-5.9,4.8-10.6,10.6-10.7l80.2-0.1c5.9,0,10.6,4.8,10.7,10.6L897.5,511.4z"
				/>
			<path class="st17" d="M899.2,499.9l-105,0.1c-3,0-5.5-2.4-5.5-5.5l0-23.2c0-3,2.4-5.5,5.5-5.5l105-0.1c3,0,5.5,2.4,5.5,5.5
				l0,23.2C904.7,497.4,902.2,499.9,899.2,499.9z"/>
			<rect x="835.8" y="465.7" class="st22" width="23.1" height="91.5"/>
			<rect x="835.8" y="499.9" class="st23" width="23.1" height="11.6"/>
		</g>
		<g>
			<path class="st24" d="M855.3,494.4l-1.7,3.7c-0.1,0.3,0,0.7,0.3,0.8l8.8,3.9c0.6,0.3,1.2-0.4,0.9-1l-3.4-5.3
				C860.1,496.6,857.5,497.1,855.3,494.4z"/>
			<path class="st24" d="M843.9,494l-1.7,3.7c-0.1,0.3,0,0.7,0.3,0.8l8.8,3.9c0.6,0.3,1.2-0.4,0.9-1l-3.4-5.3
				C848.8,496.1,846.1,496.6,843.9,494z"/>
			<path class="st22" d="M833.7,372.9c0,0,9.5-1.6,12.7,9l-4,5.9c0,0-8.3-3.2-8.3-3.5C834.1,384.1,833.7,372.9,833.7,372.9z"/>
			<path class="st22" d="M818.4,377.7c0,0-2.8,4.2-4.2,5.8c-3.6,4.2-4,2.9-6.2,6.5c-2.4,3.9,0,6.3,1.4,7.4c1.4,1.1-0.9,5.2,1.6,7.6
				c3.4,3,6.5,0.2,8.8,1.9c2.3,1.7,2.8,4.2,8.3,3.7c5.5-0.5,5.4-18.4,5.4-18.4s-4.5-9.5-4.7-9.6
				C828.6,382.6,818.4,377.7,818.4,377.7z"/>
			<path class="st22" d="M846.4,382c0,0,0.3,3.3,1.4,5.2c2.7,4.8,4.2,3.2,5.7,7.1c1.6,4.3-1.2,6.2-2.8,7c-1.6,0.8-0.1,5.3-3,7.1
				c-3.9,2.4-6.4-1-9,0.2c-2.6,1.2-3.5,3.6-8.8,2.1c-5.3-1.5-1.9-19.1-1.9-19.1s6.2-8.5,6.4-8.5C834.6,383.1,846.4,382,846.4,382z"
				/>
			<path class="st28" d="M832.6,403.2c0,0-9.1-1.7-13.3-1.5c-4.2,0.1,2.5,11.1,2.5,11.1l6.9,0.2c0,0,4.2-4.7,3.9-5.2
				c-0.3-0.5,0-4.1,0-4.1L832.6,403.2z"/>
			<g>
				<path class="st28" d="M824.5,394.4l-2.4,7.3c0,0,2.1,4.3,8.5,2.5c0,0-0.7-1.5,0.3-4.6C831.8,396.4,824.5,394.4,824.5,394.4z"/>
				<path class="st29" d="M824.5,394.4l-1.1,3.4c0.7,2.5,2.9,4.2,7,4.7c0-0.7,0.1-1.7,0.5-3C831.8,396.4,824.5,394.4,824.5,394.4z"
					/>
				<g>
					<path class="st30" d="M839.2,389.1c-0.5,1.2-0.2,2.5,0.8,2.9c1,0.4,2.1-0.2,2.7-1.4c0.5-1.2,0.2-2.5-0.8-2.9
						C840.9,387.3,839.7,387.9,839.2,389.1z"/>
					<path class="st28" d="M839.4,394.5c0.6-1.5,1-3.2,1.1-4.6c0-0.3,0.1-0.6,0.2-0.9c0.2-1.2,0.3-2.5,0-3.9
						c-0.8-4.3-4.4-7.7-8.8-8.1c-5.9-0.6-10.9,3.9-11.1,9.7c-0.6-0.4-1.3-0.5-2-0.2c-1.2,0.5-1.7,2.1-1.1,3.6
						c0.6,1.5,2.1,2.3,3.3,1.8c0.2-0.1,0.3-0.2,0.5-0.3c0.4,4.9,4.3,8.8,9.1,8.9C834.4,400.6,837.9,398.4,839.4,394.5z"/>
					<path class="st30" d="M833.1,386.9c-0.2,0.5-0.3,1.1-0.3,1.7c0,0.3,0,0.6,0,0.9c0,0.3,0.1,0.6,0.3,0.9c0.2,0.3,0.3,0.4,0.4,0.6
						c0,0.2-0.1,0.4-0.2,0.6c-0.3,0.4-0.8,0.6-1.4,0.7c0.6,0.1,1.2,0,1.7-0.4c0.2-0.2,0.4-0.6,0.4-0.9c0-0.4-0.2-0.6-0.4-0.9
						c-0.1-0.2-0.2-0.4-0.2-0.7c-0.1-0.3-0.1-0.5-0.1-0.8C833.2,388.1,833.2,387.5,833.1,386.9z"/>
					<path class="st25" d="M829.8,387.6c0.1,0.6-0.4,1.1-1,1c-0.3-0.1-0.6-0.4-0.7-0.7c-0.1-0.6,0.4-1.1,1-1
						C829.5,387,829.8,387.3,829.8,387.6z"/>
					<path class="st25" d="M837.3,388.2c0.1,0.6-0.4,1.1-1,1c-0.3-0.1-0.6-0.4-0.7-0.7c-0.1-0.6,0.4-1.1,1-1
						C837,387.6,837.3,387.9,837.3,388.2z"/>
					<path class="st31" d="M829.7,394.5c0,0,1.3-0.4,2.4,0.3c0,0,1.3-0.8,2.3,0c0,0-0.5,1.9-2.6,1.8
						C829.7,396.4,829.7,394.5,829.7,394.5z"/>
					<path class="st30" d="M828.6,393.8c0.2,0.2,0.5,0.4,0.7,0.5c0.3,0.2,0.5,0.3,0.8,0.4c0.5,0.2,1.1,0.4,1.7,0.5
						c0.6,0.1,1.2,0,1.8-0.2c0.6-0.2,1.1-0.5,1.6-0.8c-0.2,0.2-0.5,0.4-0.7,0.6c-0.3,0.2-0.5,0.3-0.8,0.4c-0.3,0.1-0.6,0.2-0.9,0.2
						c-0.3,0-0.6,0-0.9,0c-0.6-0.1-1.2-0.2-1.8-0.5C829.5,394.6,829,394.3,828.6,393.8z"/>
					<path class="st22" d="M830.9,385.8c-0.5-0.1-0.9-0.2-1.3-0.3c-0.4,0-0.8,0-1.2,0c-0.4,0.1-0.8,0.2-1.2,0.4
						c-0.3,0.1-1,0.5-1.2,0.6c0.2-0.4,0.5-0.8,0.9-1.1c0.4-0.3,0.9-0.5,1.3-0.6c0.5-0.1,1,0,1.4,0.1
						C830.1,385.2,830.6,385.4,830.9,385.8z"/>
					<path class="st22" d="M834.7,386.1c0.3-0.3,0.8-0.5,1.3-0.6c0.5-0.1,1-0.1,1.5,0c0.5,0.1,0.9,0.4,1.3,0.7
						c0.3,0.3,0.6,0.8,0.7,1.2c-0.2-0.1-0.8-0.6-1.1-0.8c-0.3-0.2-0.7-0.4-1.1-0.5c-0.4-0.1-0.8-0.2-1.2-0.2
						C835.6,386,835.2,386,834.7,386.1z"/>
				</g>
			</g>
			<path class="st18" d="M816.7,447.9c0,0-2.7,12.7,9.5,15.7c12.2,3,27.7,3.3,27.7,3.3l0.3,29.6l6.4,0.7c0,0,19.2-39.8-3.4-47.7
				l-20.7-1.2l-8.5-1.1c0,0-8.5-2.7-8.6-2.3C819.3,445.3,816.9,448.1,816.7,447.9z"/>
			<path class="st17" d="M805.3,447.2c0,0-2.7,12.7,9.5,15.7c12.2,3,27.7,3.3,27.7,3.3l0.3,29.6l6.4,0.7c0,0,19.2-39.8-3.4-47.7
				l-20.7-1.2l-8.5-1.1c0,0-8.5-2.7-8.6-2.3C807.9,444.7,805.5,447.5,805.3,447.2z"/>
			<path class="st0" d="M846.2,467.1c-0.4-0.1-0.7-0.1-1.1-0.2c-0.3-0.1-0.7-0.2-1-0.3c-0.2-0.1-0.3-0.1-0.5-0.2
				c0.2,0,0.3-0.1,0.5-0.1c0.3-0.1,0.7-0.3,0.9-0.5c0.3-0.2,0.6-0.4,0.8-0.7c0.2-0.3,0.4-0.5,0.6-0.8l-0.4,0.4
				c-0.1,0.1-0.2,0.2-0.4,0.4c-0.2,0.2-0.5,0.4-0.8,0.6c-0.3,0.2-0.6,0.3-0.9,0.4c-0.3,0.1-0.7,0.2-1,0.2l-0.6,0l0.5,0.2
				c0.3,0.2,0.7,0.3,1,0.4c0.4,0.1,0.7,0.2,1.1,0.2c0.4,0.1,0.7,0.1,1.1,0.1c0.4,0,0.7,0,1.1,0C846.9,467.2,846.6,467.2,846.2,467.1
				z"/>
			<path class="st28" d="M843,421c0,0,0.8,20.7,3.2,24l-12.8-2.9v-22.6L843,421z"/>
			<path class="st21" d="M837.5,423.8c0,0-1.8,5.2-2.1,8c-0.8,6.9,0.1,11.7,1.5,15.7c2,5.5-14.3,3.5-14.7,3.3
				c-0.3-0.2-14.3-5.6-14.3-5.6l-2.7-7.7v-13.7l0.7-6.2L837.5,423.8z"/>
			<path class="st28" d="M798.5,417.6l10.3,3.5c0,0-1.8,16.4-1.2,18.8c0.5,2,7.9,6,12.6,8.2c0.8,0.4,1.6,0.5,2.4,0.4
				c2.7-0.2,7.5-0.6,8.2-0.7c1.2-0.1,4.4,0,4.5,0.4c0.1,0.4-2.5,0-4.2,0.3c-0.2,0-0.1,0.4-0.1,0.4c0.9,0,3.2,0.1,4,0.4
				c0.9,0.3-2.4,0.1-4.2,0.4c-0.1,0-0.2,0.4-0.1,0.5c0.2,0.2,1,0.4,3.1,0.6c3.6,0.4,0.1,0.8,0.1,0.8s-0.3-0.1-3.4-0.5
				c-0.1,0-0.2,0.3-0.1,0.5c0.3,0.3,1,0.8,1.9,1c1.1,0.3,0.3,0.6,0.3,0.6s-2.2-0.6-3.4-0.7c-0.9-0.1-5.2,0.3-7,0.4l-0.1-0.3
				c-2.4-0.1-21.4-0.6-23.3-12.4C797,427.9,798.5,417.6,798.5,417.6z"/>
			<g>
				<path class="st24" d="M873.1,429.3h-32.7l-9.3,22.6h-15.8c-0.4,0-0.8,0.4-0.8,0.8l0,0c0,0.4,0.4,0.8,0.8,0.8h46.9L873.1,429.3z"
					/>
				<path class="st19" d="M856.9,442.3c-0.2,1-1,1.6-1.9,1.4c-0.8-0.2-1.4-1.1-1.2-2.1c0.2-1,1-1.6,1.9-1.4
					C856.5,440.4,857.1,441.3,856.9,442.3z"/>
			</g>
			<path class="st21" d="M832.6,403.2c0,0-6.2,7.3-13.3-1.5c0,0-7.8-0.6-13.5,3.4c-5.7,4.1-9.2,13.2-9.2,13.2s10.4,5.2,13,5.5h28.9
				c0,0,4.4-0.3,8.7-2.5C847.1,421.3,846.3,406.7,832.6,403.2z"/>
			<path class="st24" d="M813.3,415.5c-0.3,0.9-0.5,1.8-0.7,2.7c-0.4,1.8-0.9,3.5-1.2,5.3c-0.6,0-1.2-0.1-1.8-0.1
				c-3-0.5-5-1.4-7.6-2.5c-4-1.8-3.5-1.6-5.5-2.6c2.3,1.5,3.6,2.2,5.3,3c2.3,1.1,4.6,2.1,7.7,2.6c1.4,0.2,1.8,0.1,2.3,0.1
				c0.2-1.3,0.4-2.7,1.1-5.7l0.6-2.7l0.6-2.7C813.9,413.7,813.6,414.6,813.3,415.5z"/>
			<path class="st24" d="M836.1,410.7c0.4,1.1,0.8,2.1,1.1,3.2c0.3,1.1,0.6,2.2,0.8,3.3c0.2,0.9,0.3,2.2,0.3,3.3
				c0,1.1-1.7,6.3-2.2,7.4c0.7-0.9,2.5-6.2,2.6-7.3c0.1-1.2,0-2.3-0.2-3.5c-0.2-1.1-0.5-2.2-0.9-3.3
				C837.2,412.8,836.7,411.7,836.1,410.7z"/>
			<path class="st22" d="M820.8,386.7c0,0,10.7-2.6,15.8-9.8c0,0,0.1-6.6-9.7-5.1C817.4,373.2,815.1,382.5,820.8,386.7z"/>
		</g>
		<g>
			<path class="st24" d="M997.6,378.3l1.8,4c0.1,0.3,0,0.7-0.3,0.9l-9.4,4.2c-0.7,0.3-1.3-0.5-0.9-1.1l3.6-5.6
				C992.4,380.6,995.3,381.2,997.6,378.3z"/>
			<path class="st24" d="M1009.5,378.3l1.8,4c0.1,0.3,0,0.7-0.3,0.9l-9.4,4.2c-0.7,0.3-1.3-0.5-0.9-1.1l3.6-5.6
				C1004.3,380.6,1007.2,381.2,1009.5,378.3z"/>
			<path class="st24" d="M1029.8,268l1,6.2l2.1-8.3c0,0-3-1.4-3.1-0.9C1029.6,265.5,1029.8,268,1029.8,268z"/>
			<polygon class="st28" points="1046.5,281.4 1047.4,292.2 1037.9,291.8 1039,282.2 			"/>
			<path class="st30" d="M1038.5,286.8l0.5-4.5l7.5-0.8l0.3,3.7C1045.3,286.7,1042.6,288.2,1038.5,286.8z"/>
			<g>
				<path class="st30" d="M1032.6,274.2c0.6,1.2,0.3,2.5-0.7,3c-0.9,0.5-2.2-0.1-2.8-1.3c-0.6-1.2-0.3-2.5,0.7-3
					S1032,273,1032.6,274.2z"/>
				<path class="st28" d="M1031.2,275c-0.1-0.3-0.1-0.6-0.2-0.9c-0.3-1.2-0.4-2.5-0.2-3.9c0.7-4.4,4.2-7.9,8.6-8.6
					c6-0.8,11.2,3.6,11.6,9.4c0.6-0.4,1.3-0.5,2-0.3c1.2,0.5,1.8,2.1,1.2,3.6c-0.6,1.6-2.1,2.4-3.3,2c-0.2-0.1-0.3-0.2-0.5-0.3
					c-0.2,5-4,9.1-8.9,9.3c-2.4,0.1-4.6-0.7-6.4-2.2C1032.9,281.6,1031.7,277.9,1031.2,275z"/>
				<path class="st30" d="M1038.7,271.8c0,0.6,0,1.2-0.1,1.7c0,0.5-0.1,1.1-0.3,1.5c-0.2,0.3-0.4,0.5-0.4,0.9c0,0.4,0.2,0.7,0.4,0.9
					c0.5,0.4,1.2,0.5,1.8,0.3c-0.6-0.1-1.1-0.3-1.4-0.7c-0.1-0.2-0.2-0.4-0.2-0.6c0-0.2,0.1-0.3,0.3-0.6c0.2-0.3,0.2-0.6,0.3-0.9
					c0-0.3,0-0.6,0-0.9C1039,272.9,1038.9,272.3,1038.7,271.8z"/>
				<path class="st25" d="M1042,272.3c-0.1,0.6,0.5,1.1,1.1,1c0.3-0.1,0.6-0.4,0.7-0.7c0.1-0.6-0.5-1.1-1.1-1
					C1042.4,271.7,1042.1,272,1042,272.3z"/>
				<path class="st25" d="M1034.4,273.2c-0.1,0.6,0.5,1.1,1.1,1c0.3-0.1,0.6-0.4,0.7-0.7c0.1-0.6-0.5-1.1-1.1-1
					C1034.8,272.6,1034.5,272.9,1034.4,273.2z"/>
				<path class="st30" d="M1043.5,278.5c-0.2,0.2-0.5,0.4-0.7,0.6c-0.3,0.2-0.5,0.3-0.8,0.5c-0.5,0.3-1.1,0.5-1.7,0.5
					c-0.6,0.1-1.2,0-1.8-0.1c-0.6-0.2-1.1-0.4-1.7-0.8c0.6,0.5,1,0.7,1.6,0.9c0.6,0.2,1.2,0.3,1.9,0.2c0.6-0.1,1.2-0.3,1.8-0.6
					C1042.6,279.4,1043.1,279,1043.5,278.5z"/>
				<path class="st24" d="M1040.9,270.5c0.5-0.1,0.9-0.2,1.3-0.3c0.4-0.1,0.8-0.1,1.2,0c0.4,0.1,0.8,0.1,1.2,0.3
					c0.3,0.1,1,0.5,1.2,0.6c-0.2-0.4-0.5-0.8-0.9-1.1c-0.4-0.3-0.9-0.5-1.4-0.5c-0.5-0.1-1,0-1.5,0.2
					C1041.6,269.9,1041.2,270.1,1040.9,270.5z"/>
				<path class="st24" d="M1037,271c-0.4-0.3-0.8-0.5-1.3-0.6c-0.5-0.1-1-0.1-1.5,0.1c-0.5,0.2-0.9,0.4-1.2,0.8
					c-0.3,0.3-0.6,0.8-0.7,1.2c0.2-0.1,0.8-0.7,1.1-0.8c0.3-0.2,0.7-0.4,1.1-0.5c0.4-0.1,0.8-0.2,1.2-0.2
					C1036.1,270.9,1036.5,270.9,1037,271z"/>
			</g>
			<path class="st15" d="M1041.3,332.1c0,0,2,13.5-11,15.8c-13,2.3-29.2,1.6-29.2,1.6l-2.3,31l-6.8,0.3c0,0-17.5-43,6.7-49.8
				l21.8,0.1l9-0.6c0,0,9.1-2.2,9.2-1.8C1038.7,329.2,1041,332.3,1041.3,332.1z"/>
			<path class="st21" d="M1053.2,332.2c0,0,2,13.5-11,15.8c-13,2.3-29.2,1.6-29.2,1.6l-2.3,31l-6.8,0.3c0,0-17.5-43,6.7-49.8
				l21.8,0.1l9-0.6c0,0,9.1-2.2,9.2-1.8C1050.7,329.3,1053,332.4,1053.2,332.2z"/>
			<path class="st22" d="M1036.8,287.9c0,0-9,1.1-11.2,3c-2.3,1.9-13.2,29-13.2,29l9.1,10.7l19.4,0.1c0,0,14.5,7.8,23.6,0.4
				c9.1-7.4,4.4-33.2-0.9-38.7c-5.3-5.6-14.7-5.4-14.7-5.4S1040.4,293.1,1036.8,287.9z"/>
			<path class="st0" d="M1054.2,301.5c-0.3,1.5-0.5,3-0.7,4.5c-0.1,0.8-0.1,1.5-0.2,2.3c0,0.8,0,1.5,0,2.3c0,1.5,0.1,3,0.4,4.5
				c0.3,1.5,0.6,3,1.3,4.4c-0.5-1.4-0.7-2.9-0.9-4.4c-0.2-1.5-0.2-3-0.2-4.5c0-1.5,0-3,0.1-4.5C1054,304.5,1054.1,303,1054.2,301.5z
				"/>
			<path class="st0" d="M1027.3,300.5c-0.4,2.2-0.8,4.4-1.3,6.6c-0.5,2.2-0.9,4.4-1.4,6.6c-0.5,2.2-1.1,4.3-1.8,6.4
				c-0.4,1.1-0.7,2.1-1.2,3.1c-0.5,1-1,2-1.7,2.9c0.8-0.8,1.4-1.7,2-2.7c0.5-1,1-2,1.4-3.1c0.4-1.1,0.7-2.1,1.1-3.2
				c0.3-1.1,0.6-2.2,0.9-3.3c0.3-1.1,0.5-2.2,0.7-3.3c0.2-1.1,0.4-2.2,0.6-3.3C1026.9,304.9,1027.2,302.7,1027.3,300.5z"/>
			<path class="st28" d="M1022.8,324.5c0.1-0.5,3.5-1,4.7-1c1,0,7.3-0.3,9.4-0.4l-0.2,0.6l0,2.4l0.4,1.6c-1.9,0.1-6.5,0.3-7.5,0.5
				c-1.3,0.3-3.5,1.2-3.5,1.2s-0.9-0.2,0.3-0.7c0.9-0.4,1.6-1,1.9-1.4c0.2-0.2,0-0.5-0.1-0.5c-3.2,0.8-3.5,1-3.5,1s-3.8,0,0-0.9
				c2.2-0.5,3-0.8,3.2-1.1c0.1-0.1-0.1-0.5-0.2-0.5c-1.9-0.1-5.4,0.6-4.5,0.1c0.8-0.4,3.2-0.8,4.2-0.9c0.1,0,0.2-0.4-0.1-0.4
				C1025.5,324.1,1022.8,324.9,1022.8,324.5z"/>
			<path class="st0" d="M1056.4,319c-0.8,0.2-1.6,0.4-2.4,0.6c-0.8,0.2-1.6,0.3-2.4,0.5c-1.6,0.3-3.2,0.5-4.8,0.8
				c-1.6,0.2-3.2,0.4-4.8,0.6c-1.6,0.2-3.2,0.3-4.8,0.4l-0.2,0l0,0.2c-0.1,0.5-0.2,1.1-0.3,1.6c-0.1,0.5-0.1,1.1-0.1,1.6
				c0,0.5,0.1,1.1,0.1,1.6c0.1,0.5,0.3,1.1,0.5,1.6l0,0l0,0l1.8,1.2c0.6,0.4,1.2,0.8,1.8,1.2c-0.6-0.4-1.1-0.9-1.7-1.3l-1.7-1.3
				l0.1,0.1c-0.2-0.5-0.3-1-0.4-1.5c-0.1-0.5-0.1-1-0.1-1.5c0-0.5,0.1-1,0.1-1.6c0.1-0.5,0.2-1,0.3-1.5l-0.3,0.2
				c0.8,0,1.6-0.1,2.4-0.1c0.8-0.1,1.6-0.1,2.4-0.2c1.6-0.2,3.2-0.4,4.8-0.6c1.6-0.3,3.2-0.6,4.8-0.9c0.8-0.2,1.6-0.4,2.3-0.6
				C1054.9,319.6,1055.6,319.3,1056.4,319z"/>
			<path class="st24" d="M982.3,306.4h35l9.9,24.2h16.9c0.5,0,0.9,0.4,0.9,0.9l0,0c0,0.5-0.4,0.9-0.9,0.9H994L982.3,306.4z"/>
			<path class="st19" d="M999.7,320.2c0.2,1,1.1,1.7,2,1.5c0.9-0.2,1.5-1.2,1.3-2.2c-0.2-1-1.1-1.7-2-1.5
				C1000.1,318.2,999.5,319.2,999.7,320.2z"/>
			<path class="st24" d="M1029.6,262.1c0,0-3,0.1,0.1-2.4c3.1-2.5,11.6-5.5,17-2.6c0,0,1.1-2.3,2.6-1.7c1.6,0.5-1,2.1-1,2.1
				s2-0.1,2.6,0.9c0.4,0.7-0.8,0.8-1.4,0.7c1.1,0.2,5.5,2.9,3.3,11.7c-0.8-0.2-5.2-6.6-5.2-6.6s-10.1,5.6-9.1,1.2
				c0,0-10.5,6.5-9,1.1C1029.5,266.4,1025.4,266.7,1029.6,262.1z"/>
			<path class="st24" d="M1052.8,270.8c0,0-0.8-0.3-1.7,0.4c-0.9,0.7-0.8,3.2-0.8,3.2s-4.3,2.8-3.8-9c0.5-12.5,3.6,1,3.6,1
				L1052.8,270.8z"/>
		</g>
	</g>
	<g>
		<polygon class="st28" points="1118.1,523.6 1120.1,552.1 1118.2,556.4 1113.9,553.8 1108.4,523.1 		"/>
		<path class="st20" d="M1099.1,478.3l23-2.4v67.7c0,1.4-0.9,2.6-2.1,3c-1.8,0.6-4.6,1.1-7.8,0.1c-1.1-0.4-2-1.3-2.2-2.5
			L1099.1,478.3z"/>
		<path class="st24" d="M1113.5,552.1v5c0,0.4,0.3,0.7,0.8,0.7h11.8c0.9,0,1.2-1.1,0.5-1.6l-6.4-4.2
			C1120.1,552.1,1117.3,554,1113.5,552.1z"/>
		<polygon class="st28" points="1087.2,523.6 1085.3,552.1 1087.2,556.4 1091.5,553.8 1096.9,523.1 		"/>
		<path class="st20" d="M1113.9,478.3l-23-2.4l-6.7,66c0,1.4,0.9,2.6,2.1,3c1.8,0.6,4.6,1.1,7.8,0.1c1.1-0.4,2-1.3,2.2-2.5
			L1113.9,478.3z"/>
		<path class="st24" d="M1091.8,552.1v5c0,0.4-0.3,0.7-0.8,0.7h-11.8c-0.9,0-1.2-1.1-0.5-1.6l6.4-4.2
			C1085.3,552.1,1088,554,1091.8,552.1z"/>
		<path class="st23" d="M1121.5,434.9c0,0,1.2-5.6-10.8-5.6c-12,0-9.8,6.2-9.8,6.2l10.3,2.9L1121.5,434.9z"/>
		<path class="st32" d="M1122.1,494.1c0,0-8.3-2.8-7.1-10.2c1.1-7.5-0.2-1.7,0.4-1.7c0.5,0,5-0.4,5-0.4l2.4,1.3l-1.4,4.8l0.9,2.4
			L1122.1,494.1z"/>
		<path class="st28" d="M1073.8,429.8c-0.1-0.1-1.7-2.3-1.9-2.9c-0.2-0.6-1.6-5.3-2.3-5.8c-0.7-0.4-1.1,0.4-1.1,0.4
			s-0.9-1.8-1.8-0.5c0,0-1-1-1.5-0.7c-0.5,0.3,0.1,1.9,0.1,1.9s0.1,0.5-0.4-0.1c-0.7-0.9-2.9-4.7-3.6-4.4c-1.1,0.6,3,6.8,3,6.8
			s-1.6-1.5-2.4-0.7c-0.1,0.1-0.1,0.3,0.1,0.3c0.4,0.2,1.1,0.7,1.5,1.4c0.5,0.8,0.5,2.1,3.8,3.3l1.5,2.4
			C1069,431.3,1072.8,431.7,1073.8,429.8C1073.8,429.8,1073.8,429.8,1073.8,429.8z"/>
		<image style="overflow:visible;" width="41" height="27" xlink:href="7F6C6382.png"  transform="matrix(1 0 0 1 1067 425.1)">
		</image>
		<path class="st22" d="M1120.2,434h-19.6c-0.4,0-0.8,0-1.2,0c-0.7,0-3,0.5-4.3,7.2c-1.6,8.1-7.3,35.9-4.1,38.3
			c3.3,2.4,26.8,7,30.1,2.6C1124.4,477.7,1126.9,438.4,1120.2,434z"/>
		<path class="st28" d="M1106.4,434C1106.4,433.9,1106.3,433.9,1106.4,434l0.1-5.4l5.9,1.3l0.5,4.1
			C1112.9,434,1109,437.7,1106.4,434z"/>
		<path class="st29" d="M1106.4,432.3l0.1-3.7l6,2l0.2,1.4C1111.3,432.4,1108.8,433,1106.4,432.3z"/>
		<path class="st30" d="M1102.4,420.8c0.3,1.1-0.1,2.2-1,2.4c-0.9,0.3-1.8-0.4-2.2-1.5c-0.3-1.1,0.1-2.2,1-2.4
			C1101.1,419.1,1102.1,419.7,1102.4,420.8z"/>
		<path class="st28" d="M1101.7,425.4c-0.4-1.4-0.5-2.8-0.5-4.1c0-0.3,0-0.5,0-0.8c-0.1-1.1,0-2.2,0.3-3.3c1.1-3.7,4.6-6.2,8.4-6.2
			c5.2,0.1,9.1,4.5,8.6,9.5c0.6-0.3,1.2-0.3,1.7,0c1,0.5,1.2,2,0.6,3.2c-0.7,1.2-2,1.8-3,1.3c-0.1-0.1-0.3-0.2-0.4-0.3
			c-0.8,4.2-4.6,7.2-8.7,6.8C1105.4,431.2,1102.6,428.9,1101.7,425.4z"/>
		<path class="st25" d="M1110.6,420.5c-0.2,0.5,0.3,1,0.8,1c0.3,0,0.6-0.2,0.7-0.5c0.2-0.5-0.3-1-0.8-1
			C1111,419.9,1110.7,420.2,1110.6,420.5z"/>
		<path class="st25" d="M1104.1,420.2c-0.2,0.5,0.3,1,0.8,1c0.3,0,0.6-0.2,0.7-0.5c0.2-0.5-0.3-1-0.8-1
			C1104.4,419.7,1104.2,419.9,1104.1,420.2z"/>
		<path class="st30" d="M1110.2,425.9c-0.4,0.3-0.8,0.4-1.2,0.6c-0.4,0.1-0.8,0.2-1.3,0.2c-0.4,0-0.8-0.1-1.2-0.3
			c-0.4-0.2-0.8-0.4-1.1-0.7c0.4,0.4,0.7,0.6,1,0.8c0.2,0.1,0.4,0.2,0.6,0.2c0.2,0.1,0.4,0.1,0.7,0.1c0.4,0,0.9-0.1,1.3-0.2
			C1109.5,426.4,1109.9,426.2,1110.2,425.9z"/>
		<path class="st24" d="M1109.8,419c0.4-0.1,0.8-0.2,1.1-0.2c0.4,0,0.7,0,1.1,0c0.3,0.1,0.7,0.1,1,0.3c0.5,0.2,0.8,0.4,1,0.6
			c-0.2-0.3-0.4-0.7-0.8-0.9c-0.3-0.3-0.7-0.4-1.2-0.5c-0.4-0.1-0.9,0-1.3,0.1C1110.5,418.5,1110.1,418.7,1109.8,419z"/>
		<path class="st24" d="M1106.8,418.9c-0.2-0.3-0.6-0.6-0.9-0.8c-0.4-0.2-0.8-0.3-1.2-0.2c-0.4,0-0.9,0.1-1.2,0.4
			c-0.4,0.2-0.7,0.5-0.9,0.9c0.3-0.1,0.6-0.3,1.1-0.5c0.3-0.1,0.7-0.2,1-0.2c0.4,0,0.7,0,1.1,0.1
			C1106,418.6,1106.4,418.7,1106.8,418.9z"/>
		<path class="st30" d="M1107.7,419.4c0.1,0.5,0.1,1.1,0.1,1.6c0,0.3-0.1,0.6-0.1,0.8c-0.1,0.3-0.2,0.6-0.4,0.8
			c-0.2,0.2-0.4,0.3-0.4,0.5c-0.1,0.2,0,0.4,0.1,0.6c0.2,0.4,0.7,0.7,1.2,0.8c-0.5,0-1.2-0.1-1.6-0.6c-0.2-0.2-0.3-0.6-0.3-0.9
			c0.1-0.4,0.3-0.5,0.5-0.8c0.1-0.2,0.2-0.4,0.3-0.6c0.1-0.2,0.1-0.5,0.2-0.7C1107.5,420.5,1107.6,420,1107.7,419.4z"/>
		<path class="st28" d="M1116.2,487.2c-0.5-0.1-0.8-0.2-1.2-0.3c-0.1-0.4-0.1-0.8-0.2-1.2c1.3-0.2,3.2-0.5,4.7-0.7l2.1,3.7l0.3,0.9
			c-0.3,0.4-0.6,0.8-0.6,0.8c-0.9,0.9-1.7,1.6-2.3,2.2c-1.3-0.9-2.8-2.3-3.6-4.2c0.3-0.3,0.6-0.6,0.8-0.8
			C1116.4,487.5,1116.3,487.3,1116.2,487.2z"/>
		<image style="overflow:visible;" width="28" height="58" xlink:href="7F6C6387.png"  transform="matrix(1 0 0 1 1116 433.1)">
		</image>
		<path class="st24" d="M1102.1,416l-0.9,5.3c-0.9-3.4-0.7-5.7-0.5-6.4c0-0.1,0-0.3,0.1-0.4c0.2-1.3,2.5-2.6,2.5-2.6
			c-1.5-1.4-1.2-4.1-1.2-4.1c0.5,1.8,2.3,2.4,2.3,2.4c-1.3-3.1-0.6-4.9-0.6-4.9c0.2,1.9,3.6,2.6,3.6,2.6c-0.3-1.4-0.6-2.6-0.6-2.6
			c0.6,0.9,2.8,3,6.4,3.2c3.6,0.2,4,3.8,4,3.8c2.5,1.9,1.8,6.6,1.1,9.4l-0.7-4.4c0-0.2,0-0.4-0.1-0.6c0-0.1,0-0.3-0.1-0.4l0,0l0,0
			c-0.6-2.2-3.1-2.7-3.1-2.7c-4.6,2.5-9.3-0.1-9.3-0.1C1102.6,414.3,1102.1,416,1102.1,416z"/>
		<path class="st19" d="M1113.3,446.1c0-0.1,0.1-0.2,0.1-0.3c-0.5-4.2,1.6-10.6,2.1-11.8h0.4c-0.2,0.6-2.6,7.4-2.1,11.6
			c0.3,0,0.5,0.3,0.4,0.5c0,0.3-0.3,0.5-0.5,0.4C1113.4,446.6,1113.2,446.3,1113.3,446.1z"/>
		<path class="st19" d="M1098.8,445.3c0-0.1,0.1-0.2,0.1-0.3c-0.5-3.6,1.1-8.9,1.8-11h0.4c-0.7,2-2.3,7.3-1.8,10.9
			c0.3,0,0.5,0.3,0.4,0.5c0,0.3-0.3,0.5-0.5,0.4S1098.8,445.6,1098.8,445.3z"/>
	</g>
	<g>
		<polygon class="st28" points="1035.3,556.5 1042,535.8 1033.5,533.9 1033.9,536.5 1031,554.7 1034,557.4 		"/>
		<polygon class="st28" points="1058.4,532.9 1055.7,555.6 1052.5,557.4 1050.9,554.6 1049,532.1 		"/>
		<path class="st17" d="M1059.2,537.1c-2.4,0.7-6,1.2-10.6,0.5l-0.7-6.4l-3.2-1.4l-2.4,7.6c-1.9,0.3-5.5,0.3-10.4-1.6l2.2-12.5h25.2
			c0,2.1,0,4.2,0,6.1C1059.3,532,1059.3,534.6,1059.2,537.1z"/>
		<path class="st21" d="M1056.6,548.3l-0.9,7.4l-3.2,1.7l-1.5-2.8l-0.5-6.1C1053.1,548.6,1055.4,548.4,1056.6,548.3z"/>
		<path class="st24" d="M1050.9,554.6v3.9c0,0.3,0.3,0.6,0.6,0.6h9c0.7,0,0.9-0.9,0.4-1.2l-5.1-3.2
			C1055.8,554.6,1053.8,556,1050.9,554.6z"/>
		<path class="st21" d="M1032.2,547.3c3.1,1.6,5.8,0.9,5.8,0.9l0,0l-2.6,8.2l-1.3,0.9l-3-2.7L1032.2,547.3L1032.2,547.3z"/>
		<path class="st24" d="M1035.9,554.6v3.9c0,0.3-0.3,0.6-0.6,0.6h-9c-0.7,0-0.9-0.9-0.4-1.2l5.1-3.2
			C1031,554.6,1033,556,1035.9,554.6z"/>
		
			<rect x="1044.2" y="492.3" transform="matrix(-1 -4.479806e-11 4.479806e-11 -1 2093.7734 989.8803)" class="st28" width="5.4" height="5.4"/>
		<path class="st30" d="M1044.2,495.5v-3.2h5.4v2.7C1048.4,495.6,1046.7,496,1044.2,495.5z"/>
		<path class="st28" d="M1036.4,483.4c0.5-0.3,1.1-0.2,1.7,0.1c-0.2-5,3.9-9.2,9-9c5.1-0.2,9.2,4,9,9c0.6-0.3,1.2-0.3,1.7-0.1
			c1,0.5,1.3,1.9,0.7,3.2c-0.6,1.3-1.9,1.9-3,1.4c-0.1-0.1-0.3-0.2-0.4-0.3c-0.6,4.1-4,7.2-8,7.1c-4,0.1-7.5-3-8-7.1
			c-0.1,0.1-0.2,0.2-0.4,0.3c-1,0.5-2.3-0.1-3-1.4C1035.1,485.3,1035.4,483.9,1036.4,483.4z"/>
		<path class="st28" d="M1053,496.3c0,0-6.3,5.8-12.1,0.1L1053,496.3z"/>
		<path class="st28" d="M1014.5,484.1c0-0.2-2-1.9-1.7-2c0.2-0.1,2.3,1.3,2.3,1.2c0.1-0.1-1.9-1.8-1.7-2.1c0.2-0.3,2.3,1.6,2.4,1.4
			c0.1-0.3-2.1-2.2-1.8-2.4c0.2-0.2,2.7,1.9,3.5,2.5c0.1,0.1,0.3,0,0.3-0.1c0.2-2,0.4-2.2,0.6-2.1c0.1,0.1,0.8,2.4,1.2,4
			c7.6,8,20.5,13.6,20.5,13.6s4.7,11.4-1.9,8.9c-5.8-2.1-17.6-15.6-20.4-18.9l0,0l-1.1-1.1l0,0c0,0,0,0,0,0
			c-0.4-0.2-0.7-0.4-0.7-0.4c-3.5-2.8-3.5-2.9-3.4-3.1C1012.7,483.5,1014.5,484.3,1014.5,484.1z"/>
		<path class="st28" d="M1080.3,484.1c0-0.2,2-1.9,1.7-2c-0.2-0.1-2.3,1.3-2.3,1.2c-0.1-0.1,1.9-1.8,1.7-2.1
			c-0.2-0.3-2.3,1.6-2.4,1.4c-0.1-0.3,2.1-2.2,1.8-2.4c-0.2-0.2-2.7,1.9-3.5,2.5c-0.1,0.1-0.3,0-0.3-0.1c-0.2-2-0.4-2.2-0.6-2.1
			c-0.1,0.1-0.8,2.4-1.2,4c-7.6,8-20.5,13.6-20.5,13.6s-4.7,11.4,1.9,8.9c5.8-2.1,17.6-15.6,20.4-18.9l0,0l1.1-1.1l0,0c0,0,0,0,0,0
			c0.4-0.2,0.7-0.4,0.7-0.4c3.5-2.8,3.5-2.9,3.4-3.1C1082.1,483.5,1080.3,484.3,1080.3,484.1z"/>
		<path class="st22" d="M1030.5,492.5l6.7,2.8c1.4,0.6,2.8,0.9,4.2,1.1l0,0c5.2,5.2,11-0.1,11-0.1h0c1.6-0.1,3.2-0.5,4.7-1.1
			l6.5-2.7c0,0,0.5,4.7,2.9,8.6l-7.8,4.8l0.6,17.6c0,0-20.7,1.4-25.2-0.2l1-17.5l-7.6-4.7C1030.6,497.7,1030.5,492.5,1030.5,492.5z"
			/>
		<path class="st17" d="M1055.3,505.4c0,0-10,0.4-16.2,0c0,0-0.5,11.2-1.7,15.7c-0.3,1.1-1.2,1.9-2.3,2.1l-0.9,0.2
			c0,0,2.5,2.2,2.6,2.2c0.1,0,7.3-0.1,7.4-0.1s15.2-2.1,15.2-2.1s-1.6,0.1-2.6-1.2S1055.3,505.4,1055.3,505.4z"/>
		<path class="st18" d="M1053.6,508L1053.6,508c0.6,0,1.1-0.5,1.1-1.1v-10.2c0-0.6-0.5-1.1-1.1-1.1l0,0c-0.6,0-1.1,0.5-1.1,1.1v10.2
			C1052.5,507.5,1053,508,1053.6,508z"/>
		<path class="st18" d="M1040.7,508L1040.7,508c0.6,0,1.1-0.5,1.1-1.1v-10.2c0-0.6-0.5-1.1-1.1-1.1l0,0c-0.6,0-1.1,0.5-1.1,1.1v10.2
			C1039.7,507.5,1040.1,508,1040.7,508z"/>
		<path class="st19" d="M1056.9,504.4c0,0.1,0.1,0.2,0.1,0.3c0.1,0.2,0.2,0.4,0.4,0.6c0.1,0.2,0.3,0.3,0.5,0.4
			c0.2,0.1,0.4,0.2,0.6,0.2l0.2,0l-0.2,0.1c-0.1,0.1-0.2,0.1-0.4,0.2c-0.1,0-0.2,0.1-0.4,0.1c-0.2,0-0.5,0-0.7-0.1
			c0.1,0,0.2,0,0.4,0c0.1,0,0.2,0,0.4,0c0.1,0,0.2,0,0.3-0.1c0,0,0.1,0,0.1,0c-0.2,0-0.3-0.1-0.5-0.2c-0.2-0.1-0.4-0.3-0.6-0.5
			l-0.1-0.1c0-0.1-0.1-0.1-0.1-0.2c-0.1-0.1-0.1-0.2-0.1-0.3C1056.9,504.7,1056.9,504.5,1056.9,504.4c-0.1-0.1-0.1-0.2-0.1-0.3
			C1056.8,504.2,1056.9,504.3,1056.9,504.4z"/>
		<path class="st19" d="M1037.1,504.3c0,0.1-0.1,0.2-0.1,0.3c-0.1,0.2-0.2,0.4-0.4,0.6c-0.1,0.2-0.3,0.3-0.5,0.4
			c-0.2,0.1-0.4,0.2-0.6,0.2l-0.2,0l0.2,0.1c0.1,0.1,0.2,0.1,0.4,0.2c0.1,0,0.2,0.1,0.4,0.1c0.2,0,0.5,0,0.7-0.1c-0.1,0-0.2,0-0.4,0
			c-0.1,0-0.2,0-0.4,0c-0.1,0-0.2,0-0.3-0.1c0,0-0.1,0-0.1,0c0.2,0,0.3-0.1,0.5-0.2c0.2-0.1,0.4-0.3,0.6-0.5l0.1-0.1
			c0-0.1,0.1-0.1,0.1-0.2c0.1-0.1,0.1-0.2,0.1-0.3C1037.1,504.6,1037.1,504.5,1037.1,504.3c0.1-0.1,0.1-0.2,0.1-0.3
			C1037.2,504.1,1037.1,504.2,1037.1,504.3z"/>
		<path class="st18" d="M1047.1,516L1047.1,516c2.7,0,5-2.2,5-5v-0.2h-9.9v0.2C1042.2,513.8,1044.4,516,1047.1,516z"/>
		<path class="st19" d="M1053,506.8c0,0.3,0.3,0.6,0.6,0.6c0.3,0,0.6-0.3,0.6-0.6s-0.3-0.6-0.6-0.6
			C1053.2,506.2,1053,506.5,1053,506.8z"/>
		<path class="st19" d="M1040.1,506.8c0,0.3,0.3,0.6,0.6,0.6c0.3,0,0.6-0.3,0.6-0.6s-0.3-0.6-0.6-0.6
			C1040.4,506.2,1040.1,506.5,1040.1,506.8z"/>
		<path class="st25" d="M1044.8,485.5c0.1,0.5-0.3,1-0.8,0.9c-0.3,0-0.5-0.3-0.6-0.5c-0.1-0.5,0.3-1,0.8-0.9
			C1044.5,485,1044.8,485.2,1044.8,485.5z"/>
		<path class="st25" d="M1051,485.6c0.1,0.5-0.3,1-0.8,0.9c-0.3,0-0.5-0.3-0.6-0.5c-0.1-0.5,0.3-1,0.8-0.9
			C1050.7,485.1,1051,485.3,1051,485.6z"/>
		<path class="st24" d="M1045.6,484.2c-0.4-0.1-0.7-0.2-1-0.3c-0.3-0.1-0.7-0.1-1,0c-0.3,0-0.7,0.1-1,0.2c-0.4,0.2-0.8,0.4-1,0.5
			c0.2-0.3,0.5-0.7,0.8-0.8c0.3-0.2,0.7-0.4,1.1-0.4c0.4,0,0.8,0,1.2,0.2C1045.1,483.6,1045.4,483.8,1045.6,484.2z"/>
		<path class="st24" d="M1048.6,484.1c0.2-0.3,0.6-0.5,0.9-0.7c0.4-0.2,0.8-0.2,1.2-0.2c0.4,0,0.8,0.2,1.1,0.4
			c0.3,0.2,0.6,0.5,0.8,0.8c-0.2-0.1-0.5-0.3-1-0.5c-0.3-0.1-0.6-0.2-1-0.2c-0.3,0-0.7,0-1,0C1049.3,483.9,1048.9,484,1048.6,484.1z
			"/>
		<path class="st24" d="M1053.2,472.5c0,0-2.5-2.1-8.3-1.8c-5.8,0.3-6.9,3.4-7.2,7.6l0.3,5.1c0,0,1.5-1.5,3.4-5.8
			c0,0,3.2,3.6,4.6,3.2c1.4-0.4-0.5-3-0.5-3s6.6,5.7,10.4,5.6c0,0,2-6.6-0.8-9c0,0,2.2,0.1,2.3-0.3c0.1-0.4-1-1.1-3.1-0.8
			c0,0,1.5-2.9,0.7-3.2S1053.2,472.5,1053.2,472.5z"/>
		<path class="st0" d="M1050.2,489.5c-0.2,1-1.3,1.7-2.6,1.7c-1.3,0-2.5-0.6-2.7-1.6L1050.2,489.5z"/>
		<path class="st30" d="M1047.4,484.6c0,0.4,0,0.8,0.1,1.1c0,0.2,0.1,0.4,0.2,0.6c0.1,0.2,0.2,0.4,0.3,0.5c0.2,0.1,0.3,0.2,0.3,0.3
			c0.1,0.1,0,0.3,0,0.4c-0.1,0.3-0.4,0.5-0.8,0.7c0.4,0,0.8-0.2,1-0.5c0.1-0.2,0.2-0.4,0.1-0.7c-0.1-0.2-0.2-0.3-0.4-0.5
			c-0.1-0.1-0.2-0.2-0.3-0.4c-0.1-0.2-0.1-0.3-0.2-0.5C1047.6,485.4,1047.5,485,1047.4,484.6z"/>
		<g>
			
				<rect x="1001" y="486.1" transform="matrix(0.9388 0.3446 -0.3446 0.9388 233.1708 -317.6004)" class="st17" width="18.2" height="22.1"/>
			
				<rect x="1001.2" y="484.5" transform="matrix(0.9388 0.3446 -0.3446 0.9388 232.3673 -316.2213)" class="st18" width="9.1" height="22.1"/>
			<g>
				<path class="st19" d="M1007.9,486.6L1007.9,486.6c-0.2-0.1-0.3-0.3-0.2-0.5c0.3-0.6,1-1.9,2.1-3.1c1.9-2.2,4.1-2.9,6.3-2.2
					c1.2,0.4,2.1,1.1,2.7,2.3c1.3,2.5,0.5,6.1,0.2,7.2c-0.1,0.2-0.3,0.3-0.4,0.2l0,0c-0.2-0.1-0.3-0.2-0.2-0.4
					c0.3-1,1.1-4.4-0.1-6.7c-0.5-0.9-1.3-1.6-2.3-1.9c-1.9-0.6-3.8,0.1-5.6,2c-1,1.1-1.7,2.4-2,2.9
					C1008.2,486.6,1008,486.7,1007.9,486.6z"/>
			</g>
		</g>
		<g>
			
				<rect x="1074.2" y="486.8" transform="matrix(-0.9388 0.3446 -0.3446 -0.9388 2271.9373 591.9221)" class="st17" width="18.2" height="22.1"/>
			
				<rect x="1083.1" y="485.2" transform="matrix(-0.9388 0.3446 -0.3446 -0.9388 2279.699 587.3973)" class="st18" width="9.1" height="22.1"/>
			<g>
				<path class="st19" d="M1085.6,487.3L1085.6,487.3c0.2-0.1,0.3-0.3,0.2-0.5c-0.3-0.6-1-1.9-2.1-3.1c-1.9-2.2-4.1-2.9-6.3-2.2
					c-1.2,0.4-2.1,1.1-2.7,2.3c-1.3,2.5-0.5,6.1-0.2,7.2c0.1,0.2,0.3,0.3,0.4,0.2l0,0c0.2-0.1,0.3-0.2,0.2-0.4
					c-0.3-1-1.1-4.4,0.1-6.7c0.5-0.9,1.3-1.6,2.3-1.9c1.9-0.6,3.8,0.1,5.6,2c1,1.1,1.7,2.4,2,2.9
					C1085.2,487.3,1085.4,487.4,1085.6,487.3z"/>
			</g>
		</g>
	</g>
</g>
</svg>
