<?xml version="1.0" encoding="utf-8"?>
<!-- Generator: Adobe Illustrator 24.0.1, SVG Export Plug-In . SVG Version: 6.00 Build 0)  -->
<svg version="1.1" id="Layer_1" xmlns="http://www.w3.org/2000/svg" xmlns:xlink="http://www.w3.org/1999/xlink" x="0px" y="0px"
	 viewBox="0 0 70 70" style="enable-background:new 0 0 70 70;" xml:space="preserve">
<style type="text/css">
	.st0{fill:#F47D3A;}
	.st1{fill:#1B75BC;}
	.st2{fill:#7AA9C8;}
</style>
<g>
	<path class="st0" d="M22.1,63.5c0-4.7,0-9.3,0-14c9.3,0,18.5,0,27.7,0c0,4.7,0,9.3,0,14C40.6,63.5,31.4,63.5,22.1,63.5z"/>
	<g>
		<path class="st1" d="M35.5,3.2c2.7,0.1,5.4,0.4,7.8,1.5c3.2,1.5,4.9,3.9,5.6,6.9c0.5,2.1,0.5,4.3,0.8,6.4c0.1,0.4,0.2,0.9,0.5,1.2
			c0.6,0.8,0.8,1.7,0.4,2.6c-1.6,3-2.7,6.3-5.2,8.9c-2.7,2.8-6,4.6-10.4,4.5c-3-0.1-5.5-1.2-7.7-2.9c-2-1.5-3.4-3.4-4.5-5.5
			c-0.7-1.5-1.6-2.9-2.3-4.4c-0.6-1.1-0.6-2.2,0.4-3.3c0.2-0.2,0.2-0.5,0.2-0.8c0.2-2.3,0.2-4.6,0.8-6.8c1.2-4.9,4.7-7.4,10.5-8
			C33.3,3.3,34.4,3.2,35.5,3.2z M27.1,17c-0.2,0.4-0.5,0.9-0.7,1.4c-0.8,1.7-0.8,1.7-2.9,1.4c-0.8-0.1-1.5,0.4-1.4,1.1
			c0,0.4,0.2,0.8,0.4,1.2c0.6,1.1,1.3,2.1,1.8,3.2c1.2,2.6,2.9,4.8,5.5,6.4c2.8,1.7,5.9,2.2,9.1,1.1c3.8-1.3,6-3.9,7.5-7.1
			c0.4-0.8,0.9-1.6,1.3-2.4c0.4-0.7,0.8-1.4,1-2.2c0.3-0.9-0.6-1.6-1.6-1.3c-0.5,0.1-0.9,0.2-1.4,0.4c-0.7,0.2-1.1,0.1-1.3-0.5
			c-0.1-0.4-0.4-0.7-0.5-1c-0.1-0.4-0.4-0.4-0.8-0.4c-2,0.1-4.1,0.3-6.1,0.1C33.7,18,30.5,17.5,27.1,17z"/>
		<path class="st1" d="M25.3,32.2c3,4.7,5.9,9.3,9,14c-0.5,0-0.8,0-1.1,0c-4.1,0-8.2,0-12.2,0c-1.1,0-2.7,1.4-2.7,2.3
			c0,4.7,0,9.3,0,14c0,0.3,0,0.6,0,1c-0.4,0-0.8,0-1.2,0c-2,0-3.9,0.1-5.8-0.1c-3.1-0.3-4.8-2.7-3.9-5.3c2.6-7.3,5.2-14.6,7.8-22
			c0.6-1.6,1.8-2.5,3.7-2.9C20.9,33,23.1,32.6,25.3,32.2z"/>
		<path class="st1" d="M53.7,63.6c0-0.3,0-0.6,0-0.9c0-4.7,0-9.3,0-14c0-1.2-1.5-2.5-2.9-2.5c-4.3,0-8.7,0-13,0c-0.3,0-0.6,0-1.1,0
			c0.1-0.3,0.2-0.4,0.3-0.6c2.7-4.3,5.5-8.5,8.2-12.8c0.2-0.4,0.4-0.6,1-0.5c2,0.4,3.9,0.7,5.9,1c1.9,0.3,3.1,1.3,3.7,2.9
			c2.6,7.3,5.2,14.6,7.8,22c0.9,2.7-1.1,5.2-4.4,5.3C57.5,63.6,55.7,63.6,53.7,63.6z"/>
	</g>
	<path class="st2" d="M56.5,65.1c0,1,0,1.9,0,2.9c-14,0-27.9,0-41.9,0c0-0.9,0-1.9,0-2.9C28.5,65.1,42.4,65.1,56.5,65.1z"/>
</g>
</svg>
