<?xml version="1.0" encoding="utf-8"?>
<!-- Generator: Adobe Illustrator 24.0.1, SVG Export Plug-In . SVG Version: 6.00 Build 0)  -->
<svg version="1.1" id="Layer_1" xmlns="http://www.w3.org/2000/svg" xmlns:xlink="http://www.w3.org/1999/xlink" x="0px" y="0px"
	 viewBox="0 0 1283.3 737.1" style="enable-background:new 0 0 1283.3 737.1;" xml:space="preserve">
<style type="text/css">
	.st0{fill:#FFFFFF;}
	.st1{fill:url(#Path_151_2_);}
	.st2{fill:url(#Path_152_2_);}
	.st3{fill:#F1F3F9;}
	.st4{fill:url(#Path_878_1_);}
	.st5{fill:url(#Path_879_1_);}
	.st6{fill:#F2F4F9;}
	.st7{fill:url(#Path_151-2_2_);}
	.st8{fill:url(#Path_152-2_2_);}
	.st9{fill:url(#Path_151-3_2_);}
	.st10{fill:url(#Path_152-3_2_);}
	.st11{fill:url(#Path_151-3_3_);}
	.st12{fill:url(#Path_152-3_3_);}
	.st13{fill:url(#SVGID_1_);}
	.st14{opacity:0.3;fill:url(#SVGID_2_);}
	.st15{opacity:0.3;}
	.st16{fill:url(#SVGID_3_);}
	.st17{fill:url(#SVGID_4_);}
	.st18{fill:url(#SVGID_5_);}
	.st19{fill:url(#SVGID_6_);}
	.st20{fill:url(#SVGID_7_);}
	.st21{fill:url(#SVGID_8_);}
	.st22{opacity:0.56;fill:#FFFFFF;}
	.st23{fill:url(#SVGID_9_);}
	.st24{fill:url(#SVGID_10_);}
	.st25{fill:url(#SVGID_11_);}
	.st26{fill:url(#SVGID_12_);}
	.st27{fill:url(#SVGID_13_);}
	.st28{fill:url(#SVGID_14_);}
	.st29{fill:url(#SVGID_15_);}
	.st30{fill:url(#SVGID_16_);}
	.st31{fill:url(#SVGID_17_);}
	.st32{fill:url(#SVGID_18_);}
	.st33{fill:url(#SVGID_19_);}
	.st34{fill:url(#SVGID_20_);}
	.st35{fill:url(#SVGID_21_);}
	.st36{fill:url(#SVGID_22_);}
	.st37{fill:url(#SVGID_23_);}
	.st38{fill:url(#SVGID_24_);}
	.st39{fill:url(#SVGID_25_);}
	.st40{fill:url(#SVGID_26_);}
	.st41{fill:url(#SVGID_27_);}
	.st42{fill:url(#SVGID_28_);}
	.st43{fill:url(#SVGID_29_);}
	.st44{fill:url(#SVGID_30_);}
	.st45{fill:url(#SVGID_31_);}
	.st46{fill:url(#SVGID_32_);}
	.st47{fill:url(#SVGID_33_);}
	.st48{fill:url(#SVGID_34_);}
	.st49{fill:url(#SVGID_35_);}
	.st50{fill:url(#SVGID_36_);}
	.st51{fill:url(#SVGID_37_);}
	.st52{fill:url(#SVGID_38_);}
	.st53{fill:url(#SVGID_39_);}
	.st54{fill:url(#SVGID_40_);}
	.st55{fill:url(#SVGID_41_);}
	.st56{fill:url(#SVGID_42_);}
	.st57{fill:url(#SVGID_43_);}
	.st58{fill:url(#SVGID_44_);}
	.st59{fill:url(#SVGID_45_);}
	.st60{fill:url(#SVGID_46_);}
	.st61{fill:url(#SVGID_47_);}
	.st62{fill:url(#SVGID_48_);}
	.st63{fill:url(#SVGID_49_);}
	.st64{fill:url(#SVGID_50_);}
	.st65{fill:url(#SVGID_51_);}
	.st66{fill:url(#SVGID_52_);}
	.st67{fill:url(#SVGID_53_);}
	.st68{fill:url(#SVGID_54_);}
	.st69{fill:url(#SVGID_55_);}
	.st70{fill:url(#SVGID_56_);}
	.st71{fill:url(#SVGID_57_);}
	.st72{fill:url(#SVGID_58_);}
	.st73{fill:url(#SVGID_59_);}
	.st74{fill:url(#SVGID_60_);}
	.st75{fill:url(#SVGID_61_);}
	.st76{fill:url(#SVGID_62_);}
	.st77{fill:url(#SVGID_63_);}
	.st78{fill:url(#SVGID_64_);}
	.st79{fill:url(#SVGID_65_);}
	.st80{fill:url(#SVGID_66_);}
	.st81{fill:url(#SVGID_67_);}
	.st82{fill:url(#SVGID_68_);}
	.st83{fill:url(#SVGID_69_);}
	.st84{fill:url(#SVGID_70_);}
</style>
<rect x="3" class="st0" width="1277.3" height="737.1"/>
<g id="Shadows">
</g>
<g>
	<g id="Group_30_1_" transform="translate(159.07 605.079)">
		
			<linearGradient id="Path_151_2_" gradientUnits="userSpaceOnUse" x1="510.6058" y1="-184.154" x2="510.6058" y2="-185.6371" gradientTransform="matrix(38.4 0 0 125.0701 -19299.6777 23087.2422)">
			<stop  offset="0.247" style="stop-color:#FFFFFF"/>
			<stop  offset="0.516" style="stop-color:#F8F9FD"/>
			<stop  offset="0.905" style="stop-color:#E5E9F6"/>
			<stop  offset="1" style="stop-color:#DFE4F4"/>
		</linearGradient>
		<path id="Path_151_1_" class="st1" d="M279.6,55.1l56-32.8v-152.7l-56,32.8V55.1z"/>
		
			<linearGradient id="Path_152_2_" gradientUnits="userSpaceOnUse" x1="510.1435" y1="-184.154" x2="510.1435" y2="-185.6371" gradientTransform="matrix(38.4 0 0 125.0701 -19338.0762 23087.2422)">
			<stop  offset="0.247" style="stop-color:#FFFFFF"/>
			<stop  offset="0.641" style="stop-color:#F6F7FC"/>
			<stop  offset="1" style="stop-color:#E9EDF7"/>
		</linearGradient>
		<path id="Path_152_1_" class="st2" d="M279.6,55.1l-56.3-32.8v-152.7l56.3,32.8V55.1z"/>
		<path id="Path_153_1_" class="st3" d="M279.6-97.7l-56-33l56-32.9l56,32.8L279.6-97.7z"/>
	</g>
	<g id="Group_614">
		
			<linearGradient id="Path_878_1_" gradientUnits="userSpaceOnUse" x1="1316.889" y1="-182.8118" x2="1316.889" y2="-183.4781" gradientTransform="matrix(41.5601 0 0 135.37 -53561.9531 25394.4102)">
			<stop  offset="0.247" style="stop-color:#FFFFFF"/>
			<stop  offset="0.882" style="stop-color:#E6EAF6"/>
			<stop  offset="1" style="stop-color:#E1E5F4"/>
		</linearGradient>
		<path id="Path_878" class="st4" d="M1148.7,647.2l38.8-16V557l-38.8,16V647.2z"/>
		
			<linearGradient id="Path_879_1_" gradientUnits="userSpaceOnUse" x1="1316.9554" y1="-182.8118" x2="1316.9554" y2="-183.4781" gradientTransform="matrix(41.5601 0 0 135.37 -53603.5117 25394.4102)">
			<stop  offset="0.247" style="stop-color:#FFFFFF"/>
			<stop  offset="1" style="stop-color:#EBEEF7"/>
		</linearGradient>
		<path id="Path_879" class="st5" d="M1148.7,647.2l-38.8-16V557l38.8,16V647.2z"/>
		<path id="Path_880" class="st6" d="M1148.7,572.9l-38.8-16l38.8-16l38.8,16L1148.7,572.9z"/>
	</g>
	<g id="Group_660" transform="translate(376.07 643.129)">
		
			<linearGradient id="Path_151-2_2_" gradientUnits="userSpaceOnUse" x1="-926.5727" y1="-182.4839" x2="-926.5727" y2="-183.8149" gradientTransform="matrix(54.046 0 0 176.04 50340.1836 32101.9551)">
			<stop  offset="0.247" style="stop-color:#FFFFFF"/>
			<stop  offset="0.516" style="stop-color:#F8F9FD"/>
			<stop  offset="0.905" style="stop-color:#E5E9F6"/>
			<stop  offset="1" style="stop-color:#DFE4F4"/>
		</linearGradient>
		<path id="Path_151-2_1_" class="st7" d="M234.2-22.5L291.1-64v-192.8l-56.9,41.5V-22.5z"/>
		
			<linearGradient id="Path_152-2_2_" gradientUnits="userSpaceOnUse" x1="-926.6265" y1="-182.4839" x2="-926.6265" y2="-183.8154" gradientTransform="matrix(54.046 0 0 176.04 50286.1406 32101.9551)">
			<stop  offset="0.247" style="stop-color:#FFFFFF"/>
			<stop  offset="0.641" style="stop-color:#F6F7FC"/>
			<stop  offset="1" style="stop-color:#E9EDF7"/>
		</linearGradient>
		<path id="Path_152-2_1_" class="st8" d="M234.2-22.5l-57-41.6v-192.8l56.9,41.5v192.9H234.2z"/>
		<path id="Path_153-2_1_" class="st3" d="M234.2-215.3l-57-41.5l56.9-41.3l56.9,41.5L234.2-215.3z"/>
	</g>
	<g id="Group_98_1_" transform="translate(1097.07 620.079)">
		
			<linearGradient id="Path_151-3_2_" gradientUnits="userSpaceOnUse" x1="-5116.1787" y1="-182.094" x2="-5116.1787" y2="-182.503" gradientTransform="matrix(54.046 0 0 176.04 276397.625 32087.0078)">
			<stop  offset="0.247" style="stop-color:#FFFFFF"/>
			<stop  offset="0.516" style="stop-color:#F8F9FD"/>
			<stop  offset="0.905" style="stop-color:#E5E9F6"/>
			<stop  offset="1" style="stop-color:#DFE4F4"/>
		</linearGradient>
		<path id="Path_151-3" class="st9" d="M-131.8,31.2l40.9-25.8v-46.2l-40.9,25.6V31.2z"/>
		
			<linearGradient id="Path_152-3_2_" gradientUnits="userSpaceOnUse" x1="-5115.9355" y1="-182.094" x2="-5115.9355" y2="-182.503" gradientTransform="matrix(54.046 0 0 176.04 276343.5938 32087.0078)">
			<stop  offset="0.247" style="stop-color:#FFFFFF"/>
			<stop  offset="0.641" style="stop-color:#F6F7FC"/>
			<stop  offset="1" style="stop-color:#E9EDF7"/>
		</linearGradient>
		<path id="Path_152-3" class="st10" d="M-131.8,31.2l-40.9-25.8v-46.2l40.9,25.6C-131.8-15.2-131.8,31.2-131.8,31.2z"/>
		<path id="Path_153-3" class="st3" d="M-131.8-15.2l-41-25.7l40.9-25.7l41,25.7L-131.8-15.2z"/>
	</g>
	<g id="Group_98_2_" transform="translate(1097.07 620.079)">
		
			<linearGradient id="Path_151-3_3_" gradientUnits="userSpaceOnUse" x1="-5119.8931" y1="-182.1525" x2="-5119.8931" y2="-182.7228" gradientTransform="matrix(54.046 0 0 176.04 276397.625 32087.0078)">
			<stop  offset="0.247" style="stop-color:#FFFFFF"/>
			<stop  offset="0.516" style="stop-color:#F8F9FD"/>
			<stop  offset="0.905" style="stop-color:#E5E9F6"/>
			<stop  offset="1" style="stop-color:#DFE4F4"/>
		</linearGradient>
		<path id="Path_151-3_1_" class="st11" d="M-340.9,20.9l57.6-35.9v-64.5l-57.6,35.7V20.9z"/>
		
			<linearGradient id="Path_152-3_3_" gradientUnits="userSpaceOnUse" x1="-5119.959" y1="-182.1525" x2="-5119.959" y2="-182.7228" gradientTransform="matrix(54.046 0 0 176.04 276343.5938 32087.0078)">
			<stop  offset="0.247" style="stop-color:#FFFFFF"/>
			<stop  offset="0.641" style="stop-color:#F6F7FC"/>
			<stop  offset="1" style="stop-color:#E9EDF7"/>
		</linearGradient>
		<path id="Path_152-3_1_" class="st12" d="M-340.9,20.9L-398.5-15v-64.5l57.6,35.7V20.9z"/>
		<path id="Path_153-3_1_" class="st3" d="M-340.9-43.7l-57.7-35.7l57.6-35.7l57.7,35.7L-340.9-43.7z"/>
	</g>
</g>
<linearGradient id="SVGID_1_" gradientUnits="userSpaceOnUse" x1="81.0218" y1="1118.0299" x2="652.1637" y2="308.2334" gradientTransform="matrix(1 0 0 -1 0 1076)">
	<stop  offset="0.247" style="stop-color:#FFFFFF"/>
	<stop  offset="0.516" style="stop-color:#F8F9FD"/>
	<stop  offset="0.905" style="stop-color:#E5E9F6"/>
	<stop  offset="1" style="stop-color:#DFE4F4"/>
</linearGradient>
<path class="st13" d="M0,737.1V0h741.2c-2,12.9-2.9,255.3-364.6,299.8C73.2,337.2,0,737.1,0,737.1z"/>
<g>
	<linearGradient id="SVGID_2_" gradientUnits="userSpaceOnUse" x1="1261.358" y1="563.1763" x2="954.1943" y2="294.4083">
		<stop  offset="0" style="stop-color:#B37CFF"/>
		<stop  offset="1" style="stop-color:#F895E7"/>
	</linearGradient>
	<path class="st14" d="M1209.2,423.6c-39.7,93.5-145.4,145.8-237.1,131.7c-14.9-2.3-55.8-9.1-92.1-41.4
		c-69.7-62.2-84.6-185.3-28.4-272.1c40.9-63.2,114.3-99,184-97.2c15,0.4,72.6,2.8,123.2,44.5c7.4,6.1,23.8,20.7,38.6,43.8
		C1232,287.1,1235,362.7,1209.2,423.6z"/>
	<g>
		<g>
			<g class="st15">
				
					<linearGradient id="SVGID_3_" gradientUnits="userSpaceOnUse" x1="1614.1934" y1="659.886" x2="1725.4454" y2="659.886" gradientTransform="matrix(0.9682 -0.2503 0.2503 0.9682 -879.9981 -27.5698)">
					<stop  offset="0" style="stop-color:#B37CFF"/>
					<stop  offset="1" style="stop-color:#F895E7"/>
				</linearGradient>
				<path class="st16" d="M861.3,249.2c-1,0.2-2-0.3-2.3-1.2c-0.8-2.1-1.5-4.2-2.1-6.3c-0.3-1,0.3-2.1,1.4-2.4c0,0,0,0,0,0
					c1-0.3,2.1,0.3,2.4,1.4c0.6,2,1.2,4,2,6c0.4,1-0.1,2.1-1.1,2.5C861.4,249.2,861.4,249.2,861.3,249.2z M857.2,232.8
					c-0.1,0-0.1,0-0.2,0c-1.1,0.1-2.1-0.6-2.2-1.7c-0.3-2.2-0.5-4.4-0.6-6.6c-0.1-1.1,0.8-2,1.8-2c1.1-0.1,2,0.8,2,1.9
					c0.1,2.1,0.3,4.2,0.6,6.3C858.7,231.6,858.1,232.5,857.2,232.8z M856.8,215.8c-0.2,0.1-0.4,0.1-0.7,0.1c-1.1-0.1-1.9-1-1.8-2.1
					c0.2-2.2,0.5-4.4,0.9-6.6c0.2-1.1,1.2-1.8,2.3-1.6c1.1,0.2,1.8,1.2,1.6,2.3c-0.4,2.1-0.6,4.2-0.8,6.3
					C858.1,214.9,857.5,215.6,856.8,215.8z M860.2,199.1c-0.3,0.1-0.7,0.1-1.1,0c-1-0.3-1.6-1.4-1.3-2.5c0.7-2.1,1.5-4.2,2.3-6.2
					c0.4-1,1.6-1.5,2.6-1c1,0.4,1.5,1.6,1,2.6c-0.8,1.9-1.6,3.9-2.2,5.9C861.3,198.5,860.8,199,860.2,199.1z M867.2,183.7
					c-0.5,0.1-1,0.1-1.5-0.2c-0.9-0.6-1.2-1.8-0.7-2.7c1.1-1.9,2.4-3.8,3.6-5.6c0.6-0.9,1.8-1.1,2.7-0.4c0.9,0.6,1.1,1.8,0.4,2.7
					c-1.2,1.7-2.4,3.5-3.5,5.3C868.1,183.2,867.7,183.5,867.2,183.7z M877.5,170.1c-0.6,0.2-1.3,0-1.8-0.5c-0.8-0.7-0.8-2-0.1-2.8
					c1.5-1.6,3.1-3.2,4.8-4.6c0.8-0.7,2-0.6,2.8,0.2c0.7,0.8,0.6,2-0.2,2.8c-1.6,1.4-3.1,2.9-4.5,4.4
					C878.2,169.9,877.8,170,877.5,170.1z M945.5,147.7c-0.3,0.1-0.5,0.1-0.8,0c-2.1-0.4-4.2-0.6-6.3-0.8c-1.1-0.1-1.9-1-1.8-2.1
					c0.1-1.1,1-1.9,2.1-1.8c2.2,0.2,4.4,0.5,6.6,0.9c1.1,0.2,1.8,1.2,1.6,2.3C946.8,147,946.3,147.6,945.5,147.7z M890.5,159.2
					c-0.8,0.2-1.6-0.1-2.1-0.8c-0.6-0.9-0.3-2.1,0.5-2.7c1.8-1.2,3.8-2.4,5.7-3.4c0.9-0.5,2.1-0.2,2.6,0.8c0.5,0.9,0.2,2.1-0.8,2.6
					c-1.8,1-3.7,2.1-5.4,3.3C890.9,159.1,890.7,159.2,890.5,159.2z M928.6,146.7c-0.1,0-0.3,0.1-0.4,0.1c-2.1,0.1-4.2,0.3-6.3,0.6
					c-1.1,0.1-2.1-0.6-2.2-1.7c-0.1-1.1,0.6-2.1,1.7-2.2c2.2-0.3,4.4-0.5,6.6-0.6c1.1-0.1,2,0.8,2,1.8
					C930.1,145.7,929.5,146.5,928.6,146.7z M905.6,151.5c-1,0.2-2-0.3-2.3-1.2c-0.4-1,0.1-2.1,1.1-2.5c2.1-0.8,4.2-1.5,6.3-2.1
					c0,0,0,0,0,0c1-0.3,2.1,0.3,2.4,1.4c0.3,1-0.3,2.1-1.4,2.4c-2,0.6-4,1.2-6,2C905.8,151.5,905.7,151.5,905.6,151.5z"/>
				
					<linearGradient id="SVGID_4_" gradientUnits="userSpaceOnUse" x1="1730.8534" y1="630.5861" x2="1737.3507" y2="630.5861" gradientTransform="matrix(0.9682 -0.2503 0.2503 0.9682 -879.9981 -27.5698)">
					<stop  offset="0" style="stop-color:#B37CFF"/>
					<stop  offset="1" style="stop-color:#F895E7"/>
				</linearGradient>
				<path class="st17" d="M958.8,151.3c-0.4,0.1-0.8,0.1-1.2-0.1c-0.9-0.3-1.9-0.7-2.9-1c-1-0.3-1.6-1.4-1.3-2.5
					c0.3-1,1.4-1.6,2.5-1.3c1,0.3,2,0.7,3,1c1,0.4,1.5,1.5,1.2,2.5C959.9,150.7,959.4,151.2,958.8,151.3z"/>
			</g>
			<g class="st15">
				
					<linearGradient id="SVGID_5_" gradientUnits="userSpaceOnUse" x1="1764.5765" y1="680.2351" x2="1769.0349" y2="680.2351" gradientTransform="matrix(0.9682 -0.2503 0.2503 0.9682 -879.9981 -27.5698)">
					<stop  offset="0" style="stop-color:#B37CFF"/>
					<stop  offset="1" style="stop-color:#F895E7"/>
				</linearGradient>
				<path class="st18" d="M1002,192.1c-0.9,0.2-1.9-0.2-2.3-1.1c-0.4-0.9-0.8-1.9-1.3-2.8c-0.5-1-0.1-2.1,0.9-2.6
					c1-0.5,2.1-0.1,2.6,0.9c0.5,1,0.9,1.9,1.3,2.9c0.4,1,0,2.1-1,2.6C1002.2,192,1002.1,192.1,1002,192.1z"/>
				
					<linearGradient id="SVGID_6_" gradientUnits="userSpaceOnUse" x1="1655.3954" y1="730.9487" x2="1769.9875" y2="730.9487" gradientTransform="matrix(0.9682 -0.2503 0.2503 0.9682 -879.9981 -27.5698)">
					<stop  offset="0" style="stop-color:#B37CFF"/>
					<stop  offset="1" style="stop-color:#F895E7"/>
				</linearGradient>
				<path class="st19" d="M951.5,296.1c-0.9,0.2-1.7,0.4-2.6,0.6c-1.1,0.2-2.1-0.4-2.3-1.5c-0.2-1.1,0.4-2.1,1.5-2.3
					c2-0.5,4.1-1,6-1.6c1-0.3,2.1,0.3,2.4,1.3c0.3,1-0.3,2.1-1.3,2.4C954,295.4,952.8,295.8,951.5,296.1z M938.7,298.3
					c-0.1,0-0.2,0-0.3,0.1c-2.2,0.2-4.4,0.3-6.5,0.3c-1.1,0-2-0.9-1.9-2c0-1.1,0.9-2,2-1.9c2.1,0,4.2-0.1,6.2-0.3
					c1.1-0.1,2,0.7,2.1,1.8C940.2,297.2,939.6,298,938.7,298.3z M964.8,291.3c-0.9,0.2-1.8-0.2-2.3-1.1c-0.5-1,0-2.1,0.9-2.6
					c1.9-0.9,3.7-1.8,5.5-2.9c0.9-0.5,2.1-0.2,2.7,0.7c0.5,0.9,0.2,2.1-0.7,2.7c-1.9,1.1-3.8,2.1-5.8,3
					C965,291.2,964.9,291.3,964.8,291.3z M922,297.8c-0.2,0.1-0.5,0.1-0.8,0c-2.2-0.3-4.3-0.7-6.4-1.2c-1.1-0.2-1.7-1.3-1.5-2.3
					c0.2-1.1,1.3-1.7,2.3-1.5c2,0.5,4.1,0.8,6.1,1.1c1.1,0.1,1.8,1.1,1.7,2.2C923.3,297,922.7,297.6,922,297.8z M979,282.6
					c-0.7,0.2-1.5-0.1-2-0.7c-0.7-0.9-0.5-2.1,0.3-2.7c1.6-1.3,3.2-2.6,4.7-4c0.8-0.7,2-0.7,2.8,0.1c0.7,0.8,0.7,2-0.1,2.8
					c-1.6,1.5-3.3,2.9-5,4.2C979.5,282.4,979.3,282.5,979,282.6z M991,270.9c-0.6,0.2-1.2,0-1.7-0.4c-0.8-0.7-0.9-1.9-0.3-2.7
					c1.3-1.6,2.6-3.3,3.8-5c0.6-0.9,1.8-1.1,2.7-0.5c0.9,0.6,1.1,1.8,0.5,2.7c-1.2,1.8-2.6,3.5-3.9,5.2
					C991.8,270.6,991.4,270.8,991,270.9z M1000.2,257c-0.4,0.1-0.9,0.1-1.4-0.1c-1-0.5-1.3-1.7-0.9-2.6c0.9-1.8,1.8-3.7,2.6-5.7
					c0.4-1,1.5-1.5,2.5-1.1c1,0.4,1.5,1.5,1.1,2.5c-0.8,2-1.7,4-2.7,6C1001.2,256.5,1000.7,256.8,1000.2,257z M1006.1,241.3
					c-0.3,0.1-0.6,0.1-1,0c-1-0.3-1.7-1.3-1.4-2.4c0.5-2,0.9-4,1.3-6.1c0.2-1.1,1.2-1.8,2.2-1.6c1.1,0.2,1.8,1.2,1.6,2.2
					c-0.4,2.1-0.8,4.3-1.3,6.4C1007.3,240.6,1006.7,241.1,1006.1,241.3z M1008.4,224.7c-0.2,0-0.4,0.1-0.5,0.1c-1.1,0-1.9-0.9-1.9-2
					c0.1-2.1,0-4.2-0.1-6.2c-0.1-1.1,0.8-2,1.8-2.1c1.1-0.1,2,0.8,2.1,1.8c0.1,2.2,0.2,4.4,0.1,6.5
					C1009.8,223.8,1009.2,224.5,1008.4,224.7z M1007,208.1c0,0-0.1,0-0.1,0c-1.1,0.2-2.1-0.5-2.3-1.5c-0.3-1.5-0.6-3-1-4.5
					c-0.1-0.5-0.3-1.1-0.4-1.6c-0.3-1,0.3-2.1,1.3-2.4c1-0.3,2.1,0.3,2.4,1.3c0.2,0.6,0.3,1.1,0.5,1.7c0.4,1.5,0.8,3.1,1.1,4.7
					C1008.6,206.8,1008,207.8,1007,208.1z"/>
				
					<linearGradient id="SVGID_7_" gradientUnits="userSpaceOnUse" x1="1643.9735" y1="755.0996" x2="1650.3878" y2="755.0996" gradientTransform="matrix(0.9682 -0.2503 0.2503 0.9682 -879.9981 -27.5698)">
					<stop  offset="0" style="stop-color:#B37CFF"/>
					<stop  offset="1" style="stop-color:#F895E7"/>
				</linearGradient>
				<path class="st20" d="M905.7,293.7c-0.4,0.1-0.8,0.1-1.2-0.1c-1-0.4-2-0.8-3-1.2c-1-0.4-1.5-1.6-1-2.6c0.4-1,1.6-1.5,2.6-1
					c0.9,0.4,1.9,0.8,2.8,1.1c1,0.4,1.5,1.5,1.1,2.5C906.8,293.1,906.3,293.5,905.7,293.7z"/>
			</g>
			<g>
				
					<linearGradient id="SVGID_8_" gradientUnits="userSpaceOnUse" x1="1956.2511" y1="809.2065" x2="1547.5062" y2="629.7579" gradientTransform="matrix(0.9682 -0.2503 0.2503 0.9682 -879.9981 -27.5698)">
					<stop  offset="0" style="stop-color:#A737D5"/>
					<stop  offset="1" style="stop-color:#EF497A"/>
				</linearGradient>
				<path class="st21" d="M902.6,271.1c0.3,0.2,0.7,0.2,1.1,0l9.1-6.3c4.8,2,9.9,3.3,15.2,3.7l5.2,9.8c0.2,0.3,0.6,0.5,0.9,0.5
					l13.2-2c0.4-0.1,0.7-0.4,0.8-0.7l2-10.9c4.9-2,9.5-4.8,13.4-8.1l10.6,3.3c0.4,0.1,0.8,0,1-0.3l7.9-10.7c0.2-0.3,0.2-0.7,0-1.1
					l-6.3-9.1c2-4.8,3.3-9.9,3.7-15.2l9.8-5.2c0.3-0.2,0.5-0.6,0.5-0.9l-2-13.2c-0.1-0.4-0.4-0.7-0.7-0.8l-10.9-2
					c-2-4.9-4.8-9.5-8.1-13.4l3.3-10.6c0.1-0.4,0-0.8-0.3-1l-10.7-7.9c-0.3-0.2-0.7-0.2-1.1,0l-9.1,6.3c-4.8-2-9.9-3.3-15.2-3.7
					l-5.2-9.8c-0.2-0.3-0.6-0.5-0.9-0.5l-13.2,2c-0.4,0.1-0.7,0.4-0.8,0.7l-2,10.9c-4.9,2-9.5,4.8-13.4,8.1l-10.6-3.3
					c-0.4-0.1-0.8,0-1,0.3l-7.9,10.7c-0.2,0.3-0.2,0.7,0,1.1l6.3,9.1c-2,4.8-3.3,9.9-3.7,15.2l-9.8,5.2c-0.3,0.2-0.5,0.6-0.5,0.9
					l2,13.2c0.1,0.4,0.4,0.7,0.7,0.8l10.9,2c2,4.9,4.8,9.5,8.1,13.4l-3.3,10.6c-0.1,0.4,0,0.8,0.3,1L902.6,271.1z"/>
				<path class="st22" d="M935.2,233.1c-6.3,1.6-13.1-1.6-15.7-7.8c-2.9-6.8,0.3-14.7,7.1-17.5c3.3-1.4,6.9-1.4,10.2-0.1
					c3.3,1.3,5.9,3.9,7.3,7.2c2.9,6.8-0.3,14.7-7.1,17.5C936.4,232.7,935.8,232.9,935.2,233.1z M929.3,210.2c-0.5,0.1-1,0.3-1.4,0.5
					c-5.2,2.2-7.7,8.2-5.5,13.4c2.2,5.2,8.2,7.7,13.4,5.5c5.2-2.2,7.7-8.2,5.5-13.4c-1.1-2.5-3-4.5-5.6-5.5
					C933.6,209.8,931.4,209.6,929.3,210.2z"/>
				<path class="st22" d="M940.3,251.7c-1.1,0.3-2.2,0.5-3.3,0.7l0,0c-0.4,0.1-0.7,0.1-1.1,0.1c-1.7,0.2-3.5,0.3-5.3,0.2
					c0,0,0,0-0.1,0c-0.1,0-0.1,0-0.2,0c-0.1,0-0.3,0-0.4,0c-0.3,0-0.6-0.3-0.7-0.6c0-0.1,0-0.2,0-0.2c0-0.4,0.4-0.8,0.8-0.7
					c2.2,0.1,4.5,0,6.7-0.3c11-1.7,19.8-8.9,23.9-18.4c2.3-5.3,3.2-11.2,2.3-17.3c-0.2-1.1-0.4-2.1-0.6-3.2c-1.8-7-5.9-13-11.8-17.4
					c-6.7-5-15-7-23.3-5.7c-17.1,2.6-28.8,18.6-26.2,35.7c0.2,1.1,0.4,2.1,0.6,3.1c1.1,4.4,3.3,8.6,6.2,12.1
					c0.1,0.1,0.1,0.2,0.2,0.3c0.1,0.3,0,0.6-0.3,0.8c-0.3,0.3-0.8,0.2-1.1-0.1c-3.1-3.7-5.3-8.1-6.5-12.7c-0.3-1.1-0.5-2.2-0.7-3.3
					c-2.7-17.9,9.6-34.7,27.5-37.5c8.7-1.3,17.4,0.8,24.4,6c6.2,4.5,10.5,10.9,12.4,18.2c0.3,1.1,0.5,2.2,0.7,3.3
					c1.3,8.7-0.8,17.4-6,24.5C954,245.5,947.6,249.8,940.3,251.7z"/>
			</g>
		</g>
		<g>
			<g class="st15">
				
					<linearGradient id="SVGID_9_" gradientUnits="userSpaceOnUse" x1="1548.0151" y1="752.5406" x2="1551.186" y2="752.5406" gradientTransform="matrix(0.9682 -0.2503 0.2503 0.9682 -879.9981 -27.5698)">
					<stop  offset="0" style="stop-color:#B37CFF"/>
					<stop  offset="1" style="stop-color:#F895E7"/>
				</linearGradient>
				<path class="st23" d="M809.7,315.7c-0.5,0.1-1.1-0.1-1.3-0.5c-0.5-0.9-1-1.8-1.5-2.7c-0.3-0.6-0.1-1.3,0.5-1.6
					c0.6-0.3,1.3-0.1,1.6,0.5c0.4,0.9,0.9,1.7,1.4,2.6c0.3,0.6,0.2,1.3-0.4,1.7C809.9,315.6,809.8,315.6,809.7,315.7z"/>
				
					<linearGradient id="SVGID_10_" gradientUnits="userSpaceOnUse" x1="1546.7317" y1="716.9175" x2="1608.8824" y2="716.9175" gradientTransform="matrix(0.9682 -0.2503 0.2503 0.9682 -879.9981 -27.5698)">
					<stop  offset="0" style="stop-color:#B37CFF"/>
					<stop  offset="1" style="stop-color:#F895E7"/>
				</linearGradient>
				<path class="st24" d="M805.7,307.3c-0.6,0.2-1.2-0.2-1.4-0.7c-0.6-1.7-1.1-3.4-1.6-5.1c-0.1-0.4-0.2-0.7-0.3-1.1
					c-0.2-0.6,0.3-1.3,0.9-1.5c0.6-0.2,1.3,0.2,1.4,0.9c0.1,0.3,0.2,0.7,0.3,1c0.4,1.6,0.9,3.2,1.5,4.8c0.2,0.6-0.1,1.3-0.7,1.5
					C805.8,307.3,805.8,307.3,805.7,307.3z M802.8,295.1c-0.1,0-0.1,0-0.2,0c-0.7,0.1-1.3-0.4-1.3-1.1c-0.2-2.1-0.3-4.3-0.3-6.4
					c0-0.7,0.6-1.2,1.2-1.2c0.7,0,1.2,0.6,1.2,1.2c0,2,0.1,4.1,0.3,6.1C803.8,294.4,803.4,295,802.8,295.1z M803,282.6
					c-0.1,0-0.3,0-0.5,0c-0.7-0.1-1.1-0.7-1-1.4c0.3-2.1,0.7-4.2,1.3-6.3c0.2-0.6,0.8-1,1.5-0.9c0.6,0.2,1,0.8,0.9,1.5
					c-0.5,2-0.9,4-1.2,6C803.8,282.1,803.5,282.5,803,282.6z M806.2,270.5c-0.2,0.1-0.5,0.1-0.8,0c-0.6-0.3-0.9-1-0.7-1.6
					c0.8-2,1.7-3.9,2.8-5.8c0.3-0.6,1.1-0.8,1.6-0.5c0.6,0.3,0.8,1.1,0.5,1.6c-1,1.8-1.9,3.6-2.6,5.5
					C806.9,270.2,806.6,270.4,806.2,270.5z M812.3,259.6c-0.3,0.1-0.7,0-1-0.2c-0.5-0.4-0.7-1.1-0.3-1.7c1.3-1.7,2.6-3.4,4.1-4.9
					c0.5-0.5,1.2-0.5,1.7-0.1c0.5,0.5,0.5,1.2,0.1,1.7c-1.4,1.5-2.7,3.1-3.9,4.7C812.8,259.4,812.6,259.5,812.3,259.6z M820.9,250.5
					c-0.4,0.1-0.9,0-1.2-0.4c-0.4-0.5-0.4-1.3,0.2-1.7c1.6-1.4,3.4-2.6,5.2-3.8c0.6-0.4,1.3-0.2,1.7,0.4c0.4,0.6,0.2,1.3-0.4,1.7
					c-1.7,1.1-3.4,2.3-4.9,3.6C821.2,250.4,821.1,250.4,820.9,250.5z M831.4,243.7c-0.5,0.1-1.1-0.1-1.4-0.6c-0.3-0.6,0-1.3,0.6-1.6
					c1.9-0.9,3.9-1.7,5.9-2.4c0.6-0.2,1.3,0.1,1.5,0.8c0.2,0.6-0.1,1.3-0.8,1.5c-1.9,0.6-3.8,1.4-5.7,2.3
					C831.6,243.7,831.5,243.7,831.4,243.7z M849.5,238.9c-0.1,0-0.1,0-0.2,0c-1.8,0.1-3.5,0.4-5.3,0.7c-0.3,0-0.5,0.1-0.8,0.2
					c-0.7,0.1-1.3-0.3-1.4-0.9c-0.1-0.7,0.3-1.3,0.9-1.4c0.3-0.1,0.6-0.1,0.8-0.2c1.8-0.3,3.7-0.6,5.5-0.7c0.7-0.1,1.2,0.4,1.3,1.1
					C850.4,238.2,850,238.8,849.5,238.9z"/>
			</g>
			<g class="st15">
				
					<linearGradient id="SVGID_11_" gradientUnits="userSpaceOnUse" x1="1574.4666" y1="776.4977" x2="1645.401" y2="776.4977" gradientTransform="matrix(0.9682 -0.2503 0.2503 0.9682 -879.9981 -27.5698)">
					<stop  offset="0" style="stop-color:#B37CFF"/>
					<stop  offset="1" style="stop-color:#F895E7"/>
				</linearGradient>
				<path class="st25" d="M866.8,338.6c-0.6,0.2-1.3-0.2-1.5-0.9c-0.2-0.6,0.2-1.3,0.8-1.5c1.9-0.5,3.8-1.2,5.7-1.9
					c0.6-0.2,1.3,0,1.6,0.7c0.3,0.6,0,1.3-0.7,1.6C870.8,337.4,868.8,338.1,866.8,338.6C866.8,338.6,866.8,338.6,866.8,338.6z
					 M860.7,339.9c0,0-0.1,0-0.1,0c-2.1,0.3-4.2,0.5-6.3,0.5c-0.7,0-1.2-0.5-1.2-1.2c0-0.7,0.5-1.2,1.2-1.2c2-0.1,4-0.2,6-0.5
					c0.7-0.1,1.3,0.4,1.4,1C861.7,339.2,861.3,339.7,860.7,339.9z M878.2,334c-0.5,0.1-1.1-0.1-1.4-0.6c-0.3-0.6-0.1-1.3,0.5-1.6
					c1.7-1,3.5-2.1,5.1-3.3c0.5-0.4,1.3-0.3,1.7,0.3c0.4,0.5,0.3,1.3-0.3,1.7c-1.7,1.2-3.5,2.4-5.3,3.4
					C878.4,333.9,878.3,333.9,878.2,334z M848.4,340.2c-0.1,0-0.3,0-0.4,0c-2.1-0.2-4.2-0.5-6.2-1c-0.6-0.1-1.1-0.8-0.9-1.4
					c0.1-0.6,0.8-1.1,1.4-0.9c2,0.4,4,0.8,5.9,0.9c0.7,0.1,1.1,0.7,1.1,1.3C849.3,339.7,848.9,340.1,848.4,340.2z M888.1,326.7
					c-0.4,0.1-0.9,0-1.2-0.3c-0.5-0.5-0.4-1.2,0.1-1.7c1.5-1.4,2.8-2.8,4.1-4.4c0.4-0.5,1.2-0.6,1.7-0.2c0.5,0.4,0.6,1.2,0.2,1.7
					c-1.3,1.6-2.8,3.2-4.3,4.6C888.5,326.6,888.3,326.7,888.1,326.7z M896,317.3c-0.3,0.1-0.7,0-1-0.2c-0.6-0.4-0.7-1.1-0.4-1.7
					c1.1-1.7,2.1-3.4,3-5.2c0.3-0.6,1-0.8,1.6-0.6c0.6,0.3,0.8,1,0.6,1.6c-0.9,1.9-2,3.7-3.1,5.5C896.5,317,896.3,317.2,896,317.3z
					 M901.4,306.2c-0.2,0.1-0.5,0.1-0.7,0c-0.6-0.2-1-0.9-0.7-1.5c0.7-1.9,1.2-3.8,1.6-5.8c0.1-0.6,0.8-1.1,1.4-0.9
					c0.7,0.1,1.1,0.8,0.9,1.4c-0.4,2-1,4.1-1.7,6.1C902.1,305.9,901.8,306.1,901.4,306.2z"/>
				
					<linearGradient id="SVGID_12_" gradientUnits="userSpaceOnUse" x1="1566.6691" y1="780.9332" x2="1571.5201" y2="780.9332" gradientTransform="matrix(0.9682 -0.2503 0.2503 0.9682 -879.9981 -27.5698)">
					<stop  offset="0" style="stop-color:#B37CFF"/>
					<stop  offset="1" style="stop-color:#F895E7"/>
				</linearGradient>
				<path class="st26" d="M836.4,337.5c-0.2,0.1-0.5,0.1-0.7,0c-1-0.3-1.9-0.7-2.9-1.1c-0.6-0.3-0.9-1-0.6-1.6
					c0.3-0.6,1-0.9,1.6-0.6c0.9,0.4,1.8,0.7,2.7,1.1c0.6,0.2,1,0.9,0.7,1.5C837.1,337.1,836.7,337.4,836.4,337.5z"/>
			</g>
			<g>
				
					<linearGradient id="SVGID_13_" gradientUnits="userSpaceOnUse" x1="1924.1823" y1="882.1375" x2="1515.4376" y2="702.689" gradientTransform="matrix(0.9682 -0.2503 0.2503 0.9682 -879.9981 -27.5698)">
					<stop  offset="0" style="stop-color:#A737D5"/>
					<stop  offset="1" style="stop-color:#EF497A"/>
				</linearGradient>
				<path class="st27" d="M833.4,322.2c0.2,0.2,0.5,0.2,0.7,0l6.1-4.2c3.2,1.4,6.6,2.2,10.2,2.5l3.5,6.6c0.1,0.2,0.4,0.4,0.6,0.3
					l8.8-1.3c0.3,0,0.5-0.2,0.5-0.5l1.3-7.3c3.3-1.3,6.3-3.2,9-5.4l7.1,2.2c0.2,0.1,0.5,0,0.7-0.2l5.3-7.2c0.2-0.2,0.2-0.5,0-0.7
					l-4.2-6.1c1.4-3.2,2.2-6.6,2.5-10.2l6.6-3.5c0.2-0.1,0.4-0.4,0.3-0.6l-1.3-8.8c0-0.3-0.2-0.5-0.5-0.5l-7.3-1.3
					c-1.3-3.3-3.2-6.3-5.4-9l2.2-7.1c0.1-0.2,0-0.5-0.2-0.7l-7.2-5.3c-0.2-0.2-0.5-0.2-0.7,0l-6.1,4.2c-3.2-1.4-6.6-2.2-10.2-2.5
					l-3.5-6.6c-0.1-0.2-0.4-0.4-0.6-0.3l-8.8,1.3c-0.3,0-0.5,0.2-0.5,0.5l-1.3,7.3c-3.3,1.3-6.3,3.2-9,5.4l-7.1-2.2
					c-0.2-0.1-0.5,0-0.7,0.2l-5.3,7.2c-0.2,0.2-0.2,0.5,0,0.7l4.2,6.1c-1.4,3.2-2.2,6.6-2.5,10.2l-6.6,3.5c-0.2,0.1-0.4,0.4-0.3,0.6
					l1.3,8.8c0,0.3,0.2,0.5,0.5,0.5l7.3,1.3c1.3,3.3,3.2,6.3,5.4,9l-2.2,7.1c-0.1,0.2,0,0.5,0.2,0.7L833.4,322.2z"/>
				<path class="st22" d="M855.3,296.9c-1.9,0.5-3.9,0.4-5.7-0.4c-2.3-0.9-4-2.7-5-4.9c-2-4.6,0.2-10,4.9-11.9
					c4.6-1.9,10,0.2,11.9,4.9c0.9,2.2,1,4.7,0,7c-0.9,2.3-2.7,4-4.9,5C856.1,296.6,855.7,296.7,855.3,296.9z M851.3,281.5
					c-0.3,0.1-0.6,0.2-0.9,0.3c-3.4,1.4-5,5.4-3.6,8.8c0.7,1.6,2,2.9,3.7,3.6c1.7,0.7,3.5,0.7,5.1,0l0,0c1.6-0.7,2.9-2,3.6-3.7
					c0.7-1.7,0.7-3.5,0-5.1C857.9,282.3,854.5,280.7,851.3,281.5z"/>
				<path class="st22" d="M858.8,309.8c-0.7,0.2-1.5,0.3-2.3,0.5c-1.5,0.2-3.1,0.3-4.6,0.2c-0.1,0-0.1,0-0.2,0c-0.5,0-1-0.4-1.1-0.9
					c0-0.1,0-0.2,0-0.4c0-0.7,0.6-1.2,1.3-1.1c1.4,0.1,2.9,0,4.3-0.2l0,0c0.1,0,0.2,0,0.2,0c3.4-0.5,6.5-1.9,9.1-4
					c1.4-1.1,2.7-2.4,3.8-3.9c0,0,0,0,0,0c0,0,0.1-0.1,0.1-0.1c3.2-4.4,4.5-9.7,3.7-15.1c-0.1-0.7-0.2-1.4-0.4-2
					c-1.2-4.5-3.8-8.4-7.6-11.2c-4.4-3.2-9.7-4.5-15.1-3.7c-5.4,0.8-10.1,3.7-13.3,8c-3.2,4.4-4.5,9.7-3.7,15.1
					c0.1,0.7,0.2,1.4,0.4,2c0.7,2.9,2.1,5.6,4,7.8c0.1,0.1,0.2,0.3,0.2,0.5c0.1,0.4,0,0.9-0.4,1.2c-0.5,0.4-1.3,0.4-1.7-0.2
					c-2.1-2.6-3.6-5.6-4.5-8.8c-0.2-0.7-0.3-1.5-0.5-2.3c-0.9-6,0.6-12,4.1-16.9c3.6-4.9,8.9-8.1,14.9-9c6-0.9,12,0.6,16.9,4.1
					c4.3,3.1,7.2,7.5,8.5,12.6c0.2,0.7,0.4,1.5,0.5,2.3C877.3,296,869.9,307,858.8,309.8z"/>
			</g>
		</g>
		<g>
			<g class="st15">
				
					<linearGradient id="SVGID_14_" gradientUnits="userSpaceOnUse" x1="-2619.4185" y1="6142.3784" x2="-2616.582" y2="6142.3784" gradientTransform="matrix(-0.9525 0.3044 -0.3044 -0.9525 465.5992 6859.1665)">
					<stop  offset="0" style="stop-color:#B37CFF"/>
					<stop  offset="1" style="stop-color:#F895E7"/>
				</linearGradient>
				<path class="st28" d="M1088.5,209.5c0.4-0.1,0.9,0,1.2,0.4c0.5,0.8,1,1.5,1.5,2.3c0.3,0.5,0.1,1.2-0.4,1.5
					c-0.5,0.3-1.2,0.1-1.5-0.4c-0.4-0.8-0.9-1.5-1.4-2.2c-0.3-0.5-0.2-1.2,0.3-1.5C1088.3,209.5,1088.4,209.5,1088.5,209.5z"/>
				
					<linearGradient id="SVGID_15_" gradientUnits="userSpaceOnUse" x1="-2620.5664" y1="6110.5142" x2="-2564.9741" y2="6110.5142" gradientTransform="matrix(-0.9525 0.3044 -0.3044 -0.9525 465.5992 6859.1665)">
					<stop  offset="0" style="stop-color:#B37CFF"/>
					<stop  offset="1" style="stop-color:#F895E7"/>
				</linearGradient>
				<path class="st29" d="M1092.5,216.7c0.5-0.2,1.1,0.1,1.3,0.6c0.6,1.4,1.2,2.9,1.7,4.4c0.1,0.3,0.2,0.6,0.3,1
					c0.2,0.6-0.2,1.2-0.7,1.3c-0.6,0.2-1.2-0.2-1.3-0.7c-0.1-0.3-0.2-0.6-0.3-0.9c-0.5-1.4-1-2.9-1.6-4.2c-0.2-0.5,0-1.2,0.6-1.4
					C1092.4,216.8,1092.4,216.7,1092.5,216.7z M1095.6,227.5c0,0,0.1,0,0.2,0c0.6-0.1,1.1,0.3,1.2,0.9c0.3,1.9,0.5,3.8,0.6,5.7
					c0,0.6-0.4,1.1-1,1.1c-0.6,0-1.1-0.4-1.1-1c-0.1-1.8-0.3-3.6-0.6-5.4C1094.8,228.1,1095.1,227.6,1095.6,227.5z M1096.1,238.6
					c0.1,0,0.3-0.1,0.4,0c0.6,0,1,0.6,1,1.2c-0.2,1.9-0.4,3.8-0.8,5.7c-0.1,0.6-0.7,1-1.3,0.8c-0.6-0.1-1-0.7-0.8-1.3
					c0.4-1.8,0.6-3.6,0.8-5.4C1095.4,239.1,1095.7,238.8,1096.1,238.6z M1093.8,249.6c0.2-0.1,0.4-0.1,0.7,0
					c0.6,0.2,0.9,0.8,0.7,1.4c-0.6,1.8-1.4,3.6-2.2,5.3c-0.3,0.5-0.9,0.8-1.4,0.5c-0.5-0.3-0.8-0.9-0.5-1.4c0.8-1.6,1.5-3.3,2.1-5.1
					C1093.3,249.9,1093.5,249.7,1093.8,249.6z M1088.9,259.7c0.3-0.1,0.6-0.1,0.9,0.1c0.5,0.3,0.6,1,0.3,1.5c-1,1.6-2.2,3.2-3.4,4.6
					c-0.4,0.5-1.1,0.5-1.5,0.1s-0.5-1.1-0.1-1.5c1.2-1.4,2.3-2.9,3.2-4.4C1088.5,259.9,1088.7,259.7,1088.9,259.7z M1081.8,268.2
					c0.4-0.1,0.8,0,1.1,0.3c0.4,0.4,0.4,1.1-0.1,1.5c-1.4,1.3-2.9,2.5-4.4,3.6c-0.5,0.3-1.2,0.2-1.5-0.2c-0.3-0.5-0.2-1.2,0.2-1.5
					c1.5-1.1,2.9-2.2,4.2-3.5C1081.5,268.4,1081.6,268.3,1081.8,268.2z M1072.7,274.8c0.5-0.2,1,0,1.3,0.5c0.3,0.5,0.1,1.2-0.4,1.5
					c-1.7,0.9-3.4,1.7-5.2,2.4c-0.6,0.2-1.2-0.1-1.4-0.6c-0.2-0.6,0-1.2,0.6-1.4c1.7-0.7,3.4-1.5,4.9-2.3
					C1072.6,274.8,1072.6,274.8,1072.7,274.8z M1056.8,280c0.1,0,0.1,0,0.2,0c1.6-0.2,3.1-0.5,4.7-0.9c0.2-0.1,0.5-0.1,0.7-0.2
					c0.6-0.2,1.2,0.2,1.3,0.8c0.2,0.6-0.2,1.2-0.8,1.3c-0.2,0.1-0.5,0.1-0.7,0.2c-1.6,0.4-3.3,0.7-4.9,0.9c-0.6,0.1-1.1-0.3-1.2-0.9
					C1056,280.6,1056.3,280.2,1056.8,280z"/>
			</g>
			<g class="st15">
				
					<linearGradient id="SVGID_16_" gradientUnits="userSpaceOnUse" x1="-2595.7578" y1="6163.8076" x2="-2532.3086" y2="6163.8076" gradientTransform="matrix(-0.9525 0.3044 -0.3044 -0.9525 465.5992 6859.1665)">
					<stop  offset="0" style="stop-color:#B37CFF"/>
					<stop  offset="1" style="stop-color:#F895E7"/>
				</linearGradient>
				<path class="st30" d="M1036.4,191.8c0.6-0.2,1.2,0.1,1.3,0.7c0.2,0.6-0.1,1.2-0.7,1.4c-1.7,0.6-3.4,1.2-5,2
					c-0.5,0.2-1.2,0-1.4-0.5c-0.3-0.5,0-1.2,0.5-1.4C1032.8,193.1,1034.6,192.4,1036.4,191.8
					C1036.3,191.8,1036.3,191.8,1036.4,191.8z M1041.7,190.4c0,0,0.1,0,0.1,0c1.8-0.4,3.7-0.6,5.6-0.8c0.6,0,1.1,0.4,1.2,1
					c0,0.6-0.4,1.1-1,1.2c-1.8,0.1-3.6,0.4-5.3,0.8c-0.6,0.1-1.2-0.3-1.3-0.8C1040.8,191.1,1041.2,190.6,1041.7,190.4z
					 M1026.4,196.6c0.5-0.1,1,0,1.2,0.4c0.3,0.5,0.2,1.2-0.3,1.5c-1.5,1-3,2-4.4,3.2c-0.5,0.4-1.1,0.3-1.5-0.1
					c-0.4-0.5-0.3-1.1,0.1-1.5c1.4-1.2,3-2.3,4.6-3.3C1026.2,196.6,1026.3,196.6,1026.4,196.6z M1052.6,189.5c0.1,0,0.2-0.1,0.4-0.1
					c1.9,0.1,3.8,0.3,5.6,0.6c0.6,0.1,1,0.7,0.9,1.2c-0.1,0.6-0.7,1-1.2,0.9c-1.8-0.3-3.6-0.5-5.4-0.5c-0.6,0-1.1-0.5-1-1.1
					C1051.9,190,1052.2,189.6,1052.6,189.5z M1017.9,203.5c0.4-0.1,0.8,0,1.1,0.2c0.4,0.4,0.4,1.1,0,1.5c-1.2,1.3-2.4,2.7-3.5,4.1
					c-0.4,0.5-1,0.6-1.5,0.2c-0.5-0.4-0.6-1-0.2-1.5c1.1-1.5,2.3-3,3.6-4.3C1017.6,203.7,1017.7,203.6,1017.9,203.5z M1011.3,212.4
					c0.3-0.1,0.6-0.1,0.9,0.1c0.5,0.3,0.7,1,0.4,1.5c-0.9,1.6-1.7,3.2-2.4,4.8c-0.2,0.5-0.9,0.8-1.4,0.6c-0.5-0.2-0.8-0.9-0.6-1.4
					c0.7-1.7,1.6-3.4,2.5-5.1C1010.9,212.6,1011.1,212.4,1011.3,212.4z M1007.1,222.5c0.2-0.1,0.4-0.1,0.6,0
					c0.6,0.2,0.9,0.8,0.7,1.3c-0.5,1.7-0.9,3.5-1.2,5.3c-0.1,0.6-0.6,1-1.2,0.9c-0.6-0.1-1-0.6-0.9-1.2c0.3-1.8,0.7-3.7,1.2-5.5
					C1006.5,222.9,1006.7,222.6,1007.1,222.5z"/>
				
					<linearGradient id="SVGID_17_" gradientUnits="userSpaceOnUse" x1="-2602.7327" y1="6167.7749" x2="-2598.3933" y2="6167.7749" gradientTransform="matrix(-0.9525 0.3044 -0.3044 -0.9525 465.5992 6859.1665)">
					<stop  offset="0" style="stop-color:#B37CFF"/>
					<stop  offset="1" style="stop-color:#F895E7"/>
				</linearGradient>
				<path class="st31" d="M1063.6,191.3c0.2-0.1,0.4-0.1,0.6,0c0.9,0.3,1.8,0.5,2.6,0.9c0.6,0.2,0.9,0.8,0.7,1.4
					c-0.2,0.6-0.8,0.9-1.4,0.7c-0.8-0.3-1.7-0.6-2.5-0.8c-0.6-0.2-0.9-0.8-0.7-1.3C1063,191.7,1063.2,191.4,1063.6,191.3z"/>
			</g>
			<g>
				
					<linearGradient id="SVGID_18_" gradientUnits="userSpaceOnUse" x1="-2282.9446" y1="6258.2998" x2="-2648.5583" y2="6097.7871" gradientTransform="matrix(-0.9525 0.3044 -0.3044 -0.9525 465.5992 6859.1665)">
					<stop  offset="0" style="stop-color:#A737D5"/>
					<stop  offset="1" style="stop-color:#EF497A"/>
				</linearGradient>
				<path class="st32" d="M1066.9,204.8c-0.2-0.1-0.4-0.1-0.6,0l-5.2,4.1c-2.9-1.1-6-1.7-9.2-1.7l-3.4-5.7c-0.1-0.2-0.4-0.3-0.6-0.3
					l-7.8,1.6c-0.2,0-0.4,0.2-0.4,0.5l-0.8,6.6c-2.9,1.4-5.5,3.2-7.7,5.3l-6.4-1.6c-0.2-0.1-0.5,0-0.6,0.2l-4.3,6.7
					c-0.1,0.2-0.1,0.4,0,0.6l4.1,5.2c-1.1,2.9-1.7,6-1.7,9.2l-5.7,3.4c-0.2,0.1-0.3,0.4-0.3,0.6l1.6,7.8c0,0.2,0.2,0.4,0.5,0.4
					l6.6,0.8c1.4,2.9,3.2,5.5,5.3,7.7l-1.6,6.4c-0.1,0.2,0,0.5,0.2,0.6l6.7,4.3c0.2,0.1,0.4,0.1,0.6,0l5.2-4.1
					c2.9,1.1,6,1.7,9.2,1.7l3.4,5.7c0.1,0.2,0.4,0.3,0.6,0.3l7.8-1.6c0.2,0,0.4-0.2,0.4-0.5l0.8-6.6c2.9-1.4,5.5-3.2,7.7-5.3
					l6.4,1.6c0.2,0.1,0.5,0,0.6-0.2l4.3-6.7c0.1-0.2,0.1-0.4,0-0.6l-4.1-5.2c1.1-2.9,1.7-6,1.7-9.2l5.7-3.4c0.2-0.1,0.3-0.4,0.3-0.6
					l-1.6-7.8c0-0.2-0.2-0.4-0.5-0.4l-6.6-0.8c-1.4-2.9-3.2-5.5-5.3-7.7l1.6-6.4c0.1-0.2,0-0.5-0.2-0.6L1066.9,204.8z"/>
				<path class="st22" d="M1048.7,228.6c1.7-0.5,3.4-0.5,5.1,0.1c2.1,0.7,3.7,2.2,4.7,4.1c2,4,0.3,8.9-3.7,10.9
					c-4,2-8.9,0.3-10.9-3.7c-1-2-1.1-4.2-0.4-6.2c0.7-2.1,2.2-3.7,4.1-4.7C1048,228.8,1048.4,228.7,1048.7,228.6z M1053,242
					c0.3-0.1,0.5-0.2,0.8-0.3c3-1.5,4.2-5.1,2.7-8c-0.7-1.4-1.9-2.5-3.4-3c-1.5-0.5-3.1-0.4-4.6,0.3l0,0c-1.4,0.7-2.5,1.9-3,3.4
					c-0.5,1.5-0.4,3.1,0.3,4.6C1047.1,241.7,1050.2,242.9,1053,242z"/>
				<path class="st22" d="M1044.9,217.1c0.6-0.2,1.3-0.4,2-0.5c1.4-0.3,2.7-0.4,4.1-0.4c0.1,0,0.1,0,0.2,0c0.5,0,0.9,0.3,1,0.7
					c0,0.1,0.1,0.2,0.1,0.3c0,0.6-0.5,1.1-1.1,1.1c-1.3,0-2.6,0.1-3.8,0.4l0,0c-0.1,0-0.1,0-0.2,0c-3,0.7-5.7,2-7.9,4
					c-1.2,1.1-2.3,2.3-3.2,3.7c0,0,0,0,0,0c0,0,0,0.1-0.1,0.1c-2.6,4.1-3.5,8.9-2.5,13.7c0.1,0.6,0.3,1.2,0.5,1.8
					c1.3,4,3.8,7.3,7.4,9.6c4.1,2.6,8.9,3.5,13.6,2.5c4.7-1,8.8-3.8,11.5-7.9c2.6-4.1,3.5-8.9,2.5-13.7c-0.1-0.6-0.3-1.2-0.5-1.8
					c-0.8-2.5-2.2-4.9-4-6.8c-0.1-0.1-0.2-0.3-0.2-0.4c-0.1-0.4,0-0.8,0.3-1.1c0.4-0.4,1.1-0.4,1.5,0.1c2,2.2,3.5,4.8,4.4,7.6
					c0.2,0.7,0.4,1.3,0.5,2c1.1,5.3,0.1,10.7-2.8,15.3c-3,4.5-7.5,7.7-12.8,8.8c-5.3,1.1-10.7,0.1-15.3-2.8c-4-2.6-6.8-6.4-8.3-10.8
					c-0.2-0.7-0.4-1.3-0.5-2C1029.1,230.4,1035.1,220.3,1044.9,217.1z"/>
			</g>
		</g>
	</g>
	<g>
		<g>
			<linearGradient id="SVGID_19_" gradientUnits="userSpaceOnUse" x1="908.9498" y1="384.0589" x2="1092.4255" y2="394.8516">
				<stop  offset="0" style="stop-color:#2B3582"/>
				<stop  offset="1" style="stop-color:#150E42"/>
			</linearGradient>
			<path class="st33" d="M1053,539.1h-94.9c-5.7,0-10.3-4.6-10.3-10.3V250.7c0-5.7,4.6-10.3,10.3-10.3h94.9
				c5.7,0,10.3,4.6,10.3,10.3v278.1C1063.3,534.5,1058.7,539.1,1053,539.1z"/>
			<linearGradient id="SVGID_20_" gradientUnits="userSpaceOnUse" x1="1078.7462" y1="263.4157" x2="738.181" y2="652.3991">
				<stop  offset="0" style="stop-color:#2B3582"/>
				<stop  offset="1" style="stop-color:#150E42"/>
			</linearGradient>
			<path class="st34" d="M1009.6,539.1h-82.9c-9,0-16.3-7.3-16.3-16.3V256.7c0-9,7.3-16.3,16.3-16.3h82.9c9,0,16.3,7.3,16.3,16.3
				v266.1C1025.9,531.8,1018.6,539.1,1009.6,539.1z"/>
			<linearGradient id="SVGID_21_" gradientUnits="userSpaceOnUse" x1="977.7938" y1="227.1481" x2="963.8334" y2="290.5282">
				<stop  offset="0" style="stop-color:#5AB6FF"/>
				<stop  offset="1" style="stop-color:#2F68E3"/>
			</linearGradient>
			<path class="st35" d="M1013.7,275.3h-88.2c-2.5,0-4.5-2-4.5-4.5v-12.5c0-2.5,2-4.5,4.5-4.5h88.2c2.5,0,4.5,2,4.5,4.5v12.5
				C1018.1,273.3,1016.1,275.3,1013.7,275.3z M925.4,254.9c-1.8,0-3.4,1.5-3.4,3.4v12.5c0,1.8,1.5,3.4,3.4,3.4h88.2
				c1.8,0,3.4-1.5,3.4-3.4v-12.5c0-1.8-1.5-3.4-3.4-3.4H925.4z"/>
			<linearGradient id="SVGID_22_" gradientUnits="userSpaceOnUse" x1="977.7938" y1="261.5121" x2="963.8334" y2="324.8923">
				<stop  offset="0" style="stop-color:#5AB6FF"/>
				<stop  offset="1" style="stop-color:#2F68E3"/>
			</linearGradient>
			<path class="st36" d="M1013.7,309.7h-88.2c-2.5,0-4.5-2-4.5-4.5v-12.5c0-2.5,2-4.5,4.5-4.5h88.2c2.5,0,4.5,2,4.5,4.5v12.5
				C1018.1,307.7,1016.1,309.7,1013.7,309.7z M925.4,289.3c-1.8,0-3.4,1.5-3.4,3.4v12.5c0,1.8,1.5,3.4,3.4,3.4h88.2
				c1.8,0,3.4-1.5,3.4-3.4v-12.5c0-1.8-1.5-3.4-3.4-3.4H925.4z"/>
			<linearGradient id="SVGID_23_" gradientUnits="userSpaceOnUse" x1="977.7938" y1="297.9846" x2="963.8334" y2="361.3648">
				<stop  offset="0" style="stop-color:#5AB6FF"/>
				<stop  offset="1" style="stop-color:#2F68E3"/>
			</linearGradient>
			<path class="st37" d="M1013.7,346.1h-88.2c-2.5,0-4.5-2-4.5-4.5v-12.5c0-2.5,2-4.5,4.5-4.5h88.2c2.5,0,4.5,2,4.5,4.5v12.5
				C1018.1,344.1,1016.1,346.1,1013.7,346.1z M925.4,325.8c-1.8,0-3.4,1.5-3.4,3.4v12.5c0,1.8,1.5,3.4,3.4,3.4h88.2
				c1.8,0,3.4-1.5,3.4-3.4v-12.5c0-1.8-1.5-3.4-3.4-3.4H925.4z"/>
			<linearGradient id="SVGID_24_" gradientUnits="userSpaceOnUse" x1="977.7938" y1="332.3487" x2="963.8334" y2="395.7288">
				<stop  offset="0" style="stop-color:#5AB6FF"/>
				<stop  offset="1" style="stop-color:#2F68E3"/>
			</linearGradient>
			<path class="st38" d="M1013.7,380.5h-88.2c-2.5,0-4.5-2-4.5-4.5v-12.5c0-2.5,2-4.5,4.5-4.5h88.2c2.5,0,4.5,2,4.5,4.5V376
				C1018.1,378.5,1016.1,380.5,1013.7,380.5z M925.4,360.1c-1.8,0-3.4,1.5-3.4,3.4V376c0,1.8,1.5,3.4,3.4,3.4h88.2
				c1.8,0,3.4-1.5,3.4-3.4v-12.5c0-1.8-1.5-3.4-3.4-3.4H925.4z"/>
			<linearGradient id="SVGID_25_" gradientUnits="userSpaceOnUse" x1="977.2354" y1="370.9615" x2="963.275" y2="434.3416">
				<stop  offset="0" style="stop-color:#5AB6FF"/>
				<stop  offset="1" style="stop-color:#2F68E3"/>
			</linearGradient>
			<path class="st39" d="M1013.1,419.1h-88.2c-2.5,0-4.5-2-4.5-4.5v-12.5c0-2.5,2-4.5,4.5-4.5h88.2c2.5,0,4.5,2,4.5,4.5v12.5
				C1017.6,417.1,1015.6,419.1,1013.1,419.1z M924.9,398.8c-1.8,0-3.4,1.5-3.4,3.4v12.5c0,1.8,1.5,3.4,3.4,3.4h88.2
				c1.8,0,3.4-1.5,3.4-3.4v-12.5c0-1.8-1.5-3.4-3.4-3.4H924.9z"/>
			<linearGradient id="SVGID_26_" gradientUnits="userSpaceOnUse" x1="977.2354" y1="407.434" x2="963.275" y2="470.8141">
				<stop  offset="0" style="stop-color:#5AB6FF"/>
				<stop  offset="1" style="stop-color:#2F68E3"/>
			</linearGradient>
			<path class="st40" d="M1013.1,455.6h-88.2c-2.5,0-4.5-2-4.5-4.5v-12.5c0-2.5,2-4.5,4.5-4.5h88.2c2.5,0,4.5,2,4.5,4.5v12.5
				C1017.6,453.6,1015.6,455.6,1013.1,455.6z M924.9,435.2c-1.8,0-3.4,1.5-3.4,3.4v12.5c0,1.8,1.5,3.4,3.4,3.4h88.2
				c1.8,0,3.4-1.5,3.4-3.4v-12.5c0-1.8-1.5-3.4-3.4-3.4H924.9z"/>
			<linearGradient id="SVGID_27_" gradientUnits="userSpaceOnUse" x1="977.2354" y1="441.798" x2="963.275" y2="505.1781">
				<stop  offset="0" style="stop-color:#5AB6FF"/>
				<stop  offset="1" style="stop-color:#2F68E3"/>
			</linearGradient>
			<path class="st41" d="M1013.1,489.9h-88.2c-2.5,0-4.5-2-4.5-4.5v-12.5c0-2.5,2-4.5,4.5-4.5h88.2c2.5,0,4.5,2,4.5,4.5v12.5
				C1017.6,487.9,1015.6,489.9,1013.1,489.9z M924.9,469.6c-1.8,0-3.4,1.5-3.4,3.4v12.5c0,1.8,1.5,3.4,3.4,3.4h88.2
				c1.8,0,3.4-1.5,3.4-3.4v-12.5c0-1.8-1.5-3.4-3.4-3.4H924.9z"/>
			<linearGradient id="SVGID_28_" gradientUnits="userSpaceOnUse" x1="977.7938" y1="481.5276" x2="963.8334" y2="544.9077">
				<stop  offset="0" style="stop-color:#5AB6FF"/>
				<stop  offset="1" style="stop-color:#2F68E3"/>
			</linearGradient>
			<path class="st42" d="M1013.7,529.7h-88.2c-2.5,0-4.5-2-4.5-4.5v-12.5c0-2.5,2-4.5,4.5-4.5h88.2c2.5,0,4.5,2,4.5,4.5v12.5
				C1018.1,527.7,1016.1,529.7,1013.7,529.7z M925.4,509.3c-1.8,0-3.4,1.5-3.4,3.4v12.5c0,1.8,1.5,3.4,3.4,3.4h88.2
				c1.8,0,3.4-1.5,3.4-3.4v-12.5c0-1.8-1.5-3.4-3.4-3.4H925.4z"/>
			<linearGradient id="SVGID_29_" gradientUnits="userSpaceOnUse" x1="929.0161" y1="260.349" x2="927.5277" y2="267.1064">
				<stop  offset="0" style="stop-color:#5AB6FF"/>
				<stop  offset="1" style="stop-color:#2F68E3"/>
			</linearGradient>
			<circle class="st43" cx="928.1" cy="264.3" r="2.1"/>
			<linearGradient id="SVGID_30_" gradientUnits="userSpaceOnUse" x1="928.0854" y1="295.4308" x2="926.597" y2="302.1881">
				<stop  offset="0" style="stop-color:#5AB6FF"/>
				<stop  offset="1" style="stop-color:#2F68E3"/>
			</linearGradient>
			<circle class="st44" cx="927.2" cy="299.4" r="2.1"/>
			<linearGradient id="SVGID_31_" gradientUnits="userSpaceOnUse" x1="928.0854" y1="331.4075" x2="926.597" y2="338.1648">
				<stop  offset="0" style="stop-color:#5AB6FF"/>
				<stop  offset="1" style="stop-color:#2F68E3"/>
			</linearGradient>
			<circle class="st45" cx="927.2" cy="335.4" r="2.1"/>
			<linearGradient id="SVGID_32_" gradientUnits="userSpaceOnUse" x1="928.0854" y1="365.7715" x2="926.597" y2="372.5289">
				<stop  offset="0" style="stop-color:#5AB6FF"/>
				<stop  offset="1" style="stop-color:#2F68E3"/>
			</linearGradient>
			<circle class="st46" cx="927.2" cy="369.8" r="2.1"/>
			<linearGradient id="SVGID_33_" gradientUnits="userSpaceOnUse" x1="928.0854" y1="404.3843" x2="926.597" y2="411.1416">
				<stop  offset="0" style="stop-color:#5AB6FF"/>
				<stop  offset="1" style="stop-color:#2F68E3"/>
			</linearGradient>
			<circle class="st47" cx="927.2" cy="408.4" r="2.1"/>
			<linearGradient id="SVGID_34_" gradientUnits="userSpaceOnUse" x1="928.0854" y1="440.8568" x2="926.597" y2="447.6141">
				<stop  offset="0" style="stop-color:#5AB6FF"/>
				<stop  offset="1" style="stop-color:#2F68E3"/>
			</linearGradient>
			<circle class="st48" cx="927.2" cy="444.8" r="2.1"/>
			<linearGradient id="SVGID_35_" gradientUnits="userSpaceOnUse" x1="927.3409" y1="475.2209" x2="925.8525" y2="481.9781">
				<stop  offset="0" style="stop-color:#5AB6FF"/>
				<stop  offset="1" style="stop-color:#2F68E3"/>
			</linearGradient>
			<circle class="st49" cx="926.5" cy="479.2" r="2.1"/>
			<linearGradient id="SVGID_36_" gradientUnits="userSpaceOnUse" x1="928.0854" y1="514.9504" x2="926.597" y2="521.7078">
				<stop  offset="0" style="stop-color:#5AB6FF"/>
				<stop  offset="1" style="stop-color:#2F68E3"/>
			</linearGradient>
			<circle class="st50" cx="927.2" cy="518.9" r="2.1"/>
		</g>
		<g>
			<linearGradient id="SVGID_37_" gradientUnits="userSpaceOnUse" x1="1047.3101" y1="387.3728" x2="1230.7858" y2="398.1655">
				<stop  offset="0" style="stop-color:#2B3582"/>
				<stop  offset="1" style="stop-color:#150E42"/>
			</linearGradient>
			<path class="st51" d="M1191.4,542.4h-94.9c-5.7,0-10.3-4.6-10.3-10.3V254c0-5.7,4.6-10.3,10.3-10.3h94.9
				c5.7,0,10.3,4.6,10.3,10.3v278.1C1201.6,537.8,1197,542.4,1191.4,542.4z"/>
			<linearGradient id="SVGID_38_" gradientUnits="userSpaceOnUse" x1="1217.1064" y1="266.7296" x2="876.5413" y2="655.713">
				<stop  offset="0" style="stop-color:#2B3582"/>
				<stop  offset="1" style="stop-color:#150E42"/>
			</linearGradient>
			<path class="st52" d="M1148,542.4h-82.9c-9,0-16.3-7.3-16.3-16.3V260c0-9,7.3-16.3,16.3-16.3h82.9c9,0,16.3,7.3,16.3,16.3v266.1
				C1164.2,535.1,1156.9,542.4,1148,542.4z"/>
			<linearGradient id="SVGID_39_" gradientUnits="userSpaceOnUse" x1="1116.1541" y1="230.462" x2="1102.1936" y2="293.8421">
				<stop  offset="0" style="stop-color:#5AB6FF"/>
				<stop  offset="1" style="stop-color:#2F68E3"/>
			</linearGradient>
			<path class="st53" d="M1152,278.6h-88.2c-2.5,0-4.5-2-4.5-4.5v-12.5c0-2.5,2-4.5,4.5-4.5h88.2c2.5,0,4.5,2,4.5,4.5v12.5
				C1156.5,276.6,1154.5,278.6,1152,278.6z M1063.8,258.3c-1.8,0-3.4,1.5-3.4,3.4v12.5c0,1.8,1.5,3.4,3.4,3.4h88.2
				c1.8,0,3.4-1.5,3.4-3.4v-12.5c0-1.8-1.5-3.4-3.4-3.4H1063.8z"/>
			<linearGradient id="SVGID_40_" gradientUnits="userSpaceOnUse" x1="1116.1541" y1="264.826" x2="1102.1936" y2="328.2061">
				<stop  offset="0" style="stop-color:#5AB6FF"/>
				<stop  offset="1" style="stop-color:#2F68E3"/>
			</linearGradient>
			<path class="st54" d="M1152,313h-88.2c-2.5,0-4.5-2-4.5-4.5V296c0-2.5,2-4.5,4.5-4.5h88.2c2.5,0,4.5,2,4.5,4.5v12.5
				C1156.5,311,1154.5,313,1152,313z M1063.8,292.6c-1.8,0-3.4,1.5-3.4,3.4v12.5c0,1.8,1.5,3.4,3.4,3.4h88.2c1.8,0,3.4-1.5,3.4-3.4
				V296c0-1.8-1.5-3.4-3.4-3.4H1063.8z"/>
			<linearGradient id="SVGID_41_" gradientUnits="userSpaceOnUse" x1="1116.1541" y1="301.2985" x2="1102.1936" y2="364.6786">
				<stop  offset="0" style="stop-color:#5AB6FF"/>
				<stop  offset="1" style="stop-color:#2F68E3"/>
			</linearGradient>
			<path class="st55" d="M1152,349.4h-88.2c-2.5,0-4.5-2-4.5-4.5v-12.5c0-2.5,2-4.5,4.5-4.5h88.2c2.5,0,4.5,2,4.5,4.5V345
				C1156.5,347.4,1154.5,349.4,1152,349.4z M1063.8,329.1c-1.8,0-3.4,1.5-3.4,3.4V345c0,1.8,1.5,3.4,3.4,3.4h88.2
				c1.8,0,3.4-1.5,3.4-3.4v-12.5c0-1.8-1.5-3.4-3.4-3.4H1063.8z"/>
			<linearGradient id="SVGID_42_" gradientUnits="userSpaceOnUse" x1="1116.1541" y1="335.6626" x2="1102.1936" y2="399.0427">
				<stop  offset="0" style="stop-color:#5AB6FF"/>
				<stop  offset="1" style="stop-color:#2F68E3"/>
			</linearGradient>
			<path class="st56" d="M1152,383.8h-88.2c-2.5,0-4.5-2-4.5-4.5v-12.5c0-2.5,2-4.5,4.5-4.5h88.2c2.5,0,4.5,2,4.5,4.5v12.5
				C1156.5,381.8,1154.5,383.8,1152,383.8z M1063.8,363.5c-1.8,0-3.4,1.5-3.4,3.4v12.5c0,1.8,1.5,3.4,3.4,3.4h88.2
				c1.8,0,3.4-1.5,3.4-3.4v-12.5c0-1.8-1.5-3.4-3.4-3.4H1063.8z"/>
			<linearGradient id="SVGID_43_" gradientUnits="userSpaceOnUse" x1="1115.5956" y1="374.2753" x2="1101.6351" y2="437.6555">
				<stop  offset="0" style="stop-color:#5AB6FF"/>
				<stop  offset="1" style="stop-color:#2F68E3"/>
			</linearGradient>
			<path class="st57" d="M1151.5,422.4h-88.2c-2.5,0-4.5-2-4.5-4.5v-12.5c0-2.5,2-4.5,4.5-4.5h88.2c2.5,0,4.5,2,4.5,4.5V418
				C1155.9,420.4,1153.9,422.4,1151.5,422.4z M1063.2,402.1c-1.8,0-3.4,1.5-3.4,3.4V418c0,1.8,1.5,3.4,3.4,3.4h88.2
				c1.8,0,3.4-1.5,3.4-3.4v-12.5c0-1.8-1.5-3.4-3.4-3.4H1063.2z"/>
			<linearGradient id="SVGID_44_" gradientUnits="userSpaceOnUse" x1="1115.5956" y1="410.7478" x2="1101.6351" y2="474.128">
				<stop  offset="0" style="stop-color:#5AB6FF"/>
				<stop  offset="1" style="stop-color:#2F68E3"/>
			</linearGradient>
			<path class="st58" d="M1151.5,458.9h-88.2c-2.5,0-4.5-2-4.5-4.5v-12.5c0-2.5,2-4.5,4.5-4.5h88.2c2.5,0,4.5,2,4.5,4.5v12.5
				C1155.9,456.9,1153.9,458.9,1151.5,458.9z M1063.2,438.5c-1.8,0-3.4,1.5-3.4,3.4v12.5c0,1.8,1.5,3.4,3.4,3.4h88.2
				c1.8,0,3.4-1.5,3.4-3.4v-12.5c0-1.8-1.5-3.4-3.4-3.4H1063.2z"/>
			<linearGradient id="SVGID_45_" gradientUnits="userSpaceOnUse" x1="1115.5956" y1="445.1119" x2="1101.6351" y2="508.492">
				<stop  offset="0" style="stop-color:#5AB6FF"/>
				<stop  offset="1" style="stop-color:#2F68E3"/>
			</linearGradient>
			<path class="st59" d="M1151.5,493.3h-88.2c-2.5,0-4.5-2-4.5-4.5v-12.5c0-2.5,2-4.5,4.5-4.5h88.2c2.5,0,4.5,2,4.5,4.5v12.5
				C1155.9,491.3,1153.9,493.3,1151.5,493.3z M1063.2,472.9c-1.8,0-3.4,1.5-3.4,3.4v12.5c0,1.8,1.5,3.4,3.4,3.4h88.2
				c1.8,0,3.4-1.5,3.4-3.4v-12.5c0-1.8-1.5-3.4-3.4-3.4H1063.2z"/>
			<linearGradient id="SVGID_46_" gradientUnits="userSpaceOnUse" x1="1116.1541" y1="484.8415" x2="1102.1936" y2="548.2216">
				<stop  offset="0" style="stop-color:#5AB6FF"/>
				<stop  offset="1" style="stop-color:#2F68E3"/>
			</linearGradient>
			<path class="st60" d="M1152,533h-88.2c-2.5,0-4.5-2-4.5-4.5V516c0-2.5,2-4.5,4.5-4.5h88.2c2.5,0,4.5,2,4.5,4.5v12.5
				C1156.5,531,1154.5,533,1152,533z M1063.8,512.6c-1.8,0-3.4,1.5-3.4,3.4v12.5c0,1.8,1.5,3.4,3.4,3.4h88.2c1.8,0,3.4-1.5,3.4-3.4
				V516c0-1.8-1.5-3.4-3.4-3.4H1063.8z"/>
			<linearGradient id="SVGID_47_" gradientUnits="userSpaceOnUse" x1="1067.3763" y1="263.6629" x2="1065.8879" y2="270.4202">
				<stop  offset="0" style="stop-color:#5AB6FF"/>
				<stop  offset="1" style="stop-color:#2F68E3"/>
			</linearGradient>
			<circle class="st61" cx="1066.5" cy="267.7" r="2.1"/>
			<linearGradient id="SVGID_48_" gradientUnits="userSpaceOnUse" x1="1066.4457" y1="298.7447" x2="1064.9573" y2="305.502">
				<stop  offset="0" style="stop-color:#5AB6FF"/>
				<stop  offset="1" style="stop-color:#2F68E3"/>
			</linearGradient>
			<circle class="st62" cx="1065.6" cy="302.7" r="2.1"/>
			<linearGradient id="SVGID_49_" gradientUnits="userSpaceOnUse" x1="1066.4457" y1="334.7213" x2="1064.9573" y2="341.4787">
				<stop  offset="0" style="stop-color:#5AB6FF"/>
				<stop  offset="1" style="stop-color:#2F68E3"/>
			</linearGradient>
			<circle class="st63" cx="1065.6" cy="338.7" r="2.1"/>
			<linearGradient id="SVGID_50_" gradientUnits="userSpaceOnUse" x1="1066.4457" y1="369.0854" x2="1064.9573" y2="375.8427">
				<stop  offset="0" style="stop-color:#5AB6FF"/>
				<stop  offset="1" style="stop-color:#2F68E3"/>
			</linearGradient>
			<circle class="st64" cx="1065.6" cy="373.1" r="2.1"/>
			<linearGradient id="SVGID_51_" gradientUnits="userSpaceOnUse" x1="1066.4457" y1="407.6982" x2="1064.9573" y2="414.4555">
				<stop  offset="0" style="stop-color:#5AB6FF"/>
				<stop  offset="1" style="stop-color:#2F68E3"/>
			</linearGradient>
			<circle class="st65" cx="1065.6" cy="411.7" r="2.1"/>
			<linearGradient id="SVGID_52_" gradientUnits="userSpaceOnUse" x1="1066.4457" y1="444.1707" x2="1064.9573" y2="450.928">
				<stop  offset="0" style="stop-color:#5AB6FF"/>
				<stop  offset="1" style="stop-color:#2F68E3"/>
			</linearGradient>
			<circle class="st66" cx="1065.6" cy="448.2" r="2.1"/>
			<linearGradient id="SVGID_53_" gradientUnits="userSpaceOnUse" x1="1065.7012" y1="478.5347" x2="1064.2128" y2="485.292">
				<stop  offset="0" style="stop-color:#5AB6FF"/>
				<stop  offset="1" style="stop-color:#2F68E3"/>
			</linearGradient>
			<circle class="st67" cx="1064.8" cy="482.5" r="2.1"/>
			<linearGradient id="SVGID_54_" gradientUnits="userSpaceOnUse" x1="1066.4457" y1="518.2643" x2="1064.9573" y2="525.0216">
				<stop  offset="0" style="stop-color:#5AB6FF"/>
				<stop  offset="1" style="stop-color:#2F68E3"/>
			</linearGradient>
			<circle class="st68" cx="1065.6" cy="522.3" r="2.1"/>
		</g>
	</g>
	<g>
		<g>
			<linearGradient id="SVGID_55_" gradientUnits="userSpaceOnUse" x1="917.4797" y1="393.9754" x2="918.7062" y2="372.3073">
				<stop  offset="0" style="stop-color:#A737D5"/>
				<stop  offset="1" style="stop-color:#EF497A"/>
			</linearGradient>
			<path class="st69" d="M901.6,367.6c-0.2,0.3-10.9,8.2-10.9,8.2s2.4,17,12,23.7c10.6,7.4,25.5-6.1,25.5-6.1s11.9,2.8,18.2-21.9
				c1.5-5.7-6.9-6.2-17-5.1C916.4,367.8,901.6,367.6,901.6,367.6z"/>
			<linearGradient id="SVGID_56_" gradientUnits="userSpaceOnUse" x1="962.1047" y1="438.4789" x2="838.0916" y2="551.3625">
				<stop  offset="0" style="stop-color:#FDF53F"/>
				<stop  offset="1" style="stop-color:#D93C65"/>
			</linearGradient>
			<path class="st70" d="M881.5,425.5c4.2-2.9,8.8-5.1,13.8-6.4c1.8-0.5,11.8,2.4,18,2.3c8.5-0.2,17.1-4.1,24.1-2.3
				c6.9,1.7,12.6,4,15.9,6.3c9.8,7,15.6,20,19.1,32.9c-6.6,6.8-15,9.9-15,9.9l-1.5,62.7l-37.1,19l-42.3-21.2l1.5-61.2
				c0,0-13.4-6.3-14.4-8.5C862.6,456.5,869.7,433.7,881.5,425.5z"/>
			<linearGradient id="SVGID_57_" gradientUnits="userSpaceOnUse" x1="854.9882" y1="445.0573" x2="925.4082" y2="615.1628">
				<stop  offset="0" style="stop-color:#F9B776"/>
				<stop  offset="1" style="stop-color:#F47960"/>
			</linearGradient>
			<path class="st71" d="M864.2,458.5c0,0-18,49.9,23,70.4c8.5-1.1,5.2-15.3,5.2-15.3s-17.8-3.9-12.5-45.6
				C875.1,464,864.2,458.5,864.2,458.5z"/>
			
				<linearGradient id="SVGID_58_" gradientUnits="userSpaceOnUse" x1="-7574.9004" y1="444.6917" x2="-7504.4805" y2="614.7972" gradientTransform="matrix(-1 0 0 1 -6595.0742 0)">
				<stop  offset="0" style="stop-color:#F9B776"/>
				<stop  offset="1" style="stop-color:#F47960"/>
			</linearGradient>
			<path class="st72" d="M971.5,458.5c0,0,12.4,52.1-23,70.4c-8.5-1.1-5.2-15.3-5.2-15.3s14.4-7.1,12.5-45.6
				C960.6,464,971.5,458.5,971.5,458.5z"/>
			<linearGradient id="SVGID_59_" gradientUnits="userSpaceOnUse" x1="917.5388" y1="467.0974" x2="913.8836" y2="615.133">
				<stop  offset="0" style="stop-color:#2B3582"/>
				<stop  offset="1" style="stop-color:#150E42"/>
			</linearGradient>
			<path class="st73" d="M953.2,532.4H880c-2.2,0-4.1-1.8-4.1-4.1v-46.8c0-2.2,1.8-4.1,4.1-4.1h73.2c2.2,0,4.1,1.8,4.1,4.1v46.8
				C957.2,530.6,955.4,532.4,953.2,532.4z"/>
			<g>
				
					<linearGradient id="SVGID_60_" gradientUnits="userSpaceOnUse" x1="965.755" y1="522.6487" x2="1004.2371" y2="522.6487" gradientTransform="matrix(1 7.700000e-03 -7.700000e-03 1 -1.9252 26.1615)">
					<stop  offset="0" style="stop-color:#2C759E"/>
					<stop  offset="1" style="stop-color:#051042"/>
				</linearGradient>
				<path class="st74" d="M992.9,548.7c-9.3-2.1-30.8-1-30.8-1l-0.9,2.4l-1.4,11.8c0,0,20.5,3.7,30.6,3.7c1,0,2-0.2,2.8-0.4
					c0.3-0.3,0.6-0.6,0.9-0.9C998.3,559.5,997.1,552.6,992.9,548.7z"/>
				<linearGradient id="SVGID_61_" gradientUnits="userSpaceOnUse" x1="985.205" y1="486.8618" x2="944.5845" y2="596.8866">
					<stop  offset="0" style="stop-color:#F9B776"/>
					<stop  offset="1" style="stop-color:#F47960"/>
				</linearGradient>
				<path class="st75" d="M955.9,547l3.6,0.2c2,0.1,3.8,1,5.1,2.6c1.3,1.6,2,3.7,1.9,5.9c-0.1,1.7-0.8,3.3-2,4.5
					c-1.2,1.1-2.7,1.7-4.3,1.6l-5.6-0.4L955.9,547z"/>
			</g>
			<g>
				
					<linearGradient id="SVGID_62_" gradientUnits="userSpaceOnUse" x1="-8148.9067" y1="468.5891" x2="-8110.4082" y2="468.5891" gradientTransform="matrix(-0.9998 -2.000000e-02 -2.000000e-02 0.9998 -7271.4932 -75.417)">
					<stop  offset="0" style="stop-color:#2C759E"/>
					<stop  offset="1" style="stop-color:#051042"/>
				</linearGradient>
				<path class="st76" d="M833.5,547.5c9.3-1.8,30.8,0,30.8,0l0.8,2.4l1.2,11.8c0,0-20.6,3.1-30.6,2.7c-1,0-2-0.2-2.8-0.5
					c-0.3-0.3-0.6-0.6-0.9-0.9C827.8,558.2,829.2,551.4,833.5,547.5z"/>
				<linearGradient id="SVGID_63_" gradientUnits="userSpaceOnUse" x1="903.821" y1="453.7057" x2="863.1792" y2="563.7885">
					<stop  offset="0" style="stop-color:#F9B776"/>
					<stop  offset="1" style="stop-color:#F47960"/>
				</linearGradient>
				<path class="st77" d="M870.5,547l-3.6,0c-2,0-3.8,0.9-5.2,2.5c-1.4,1.6-2.1,3.7-2,5.8c0,1.7,0.7,3.4,1.9,4.5
					c1.1,1.2,2.7,1.8,4.2,1.7l5.6-0.2L870.5,547z"/>
			</g>
			<linearGradient id="SVGID_64_" gradientUnits="userSpaceOnUse" x1="1002.4222" y1="484.7379" x2="896.8238" y2="564.0629">
				<stop  offset="0" style="stop-color:#CB236D"/>
				<stop  offset="1" style="stop-color:#4C246D"/>
			</linearGradient>
			<path class="st78" d="M995.5,511.8c-4.2-9.7-14.5-11.3-23.3-6.7c-0.2,0.2-55.8,28.7-104.8,41.2c1.4,4.5,2.1,9.3,2.3,14
				c0,1,0,2.1-0.1,3.1c37.6-1.9,78.4-14.5,113.5-25.5C994,534.3,1000.2,522.5,995.5,511.8z"/>
			<linearGradient id="SVGID_65_" gradientUnits="userSpaceOnUse" x1="906.929" y1="555.8847" x2="879.2531" y2="485.3113">
				<stop  offset="0" style="stop-color:#CB236D"/>
				<stop  offset="1" style="stop-color:#4C246D"/>
			</linearGradient>
			<path class="st79" d="M956.2,560.9c-0.1-5.4,0.9-10.5,3.2-15.2c0.1-0.2,0.1-0.4,0.2-0.6c-2.8-0.9-6.4-2-11.2-3.7
				c-34.8-11.9-61.4-23.9-86.7-37.8c-9.8-5.4-21-1.8-24.2,9.9c-2.8,10.4,3.4,19.3,12.7,22.4c28.1,9.3,13.5,6.7,22.6,9.7
				c24.6,7.6,55.2,14.5,83.4,16.4C956.2,561.7,956.2,561.3,956.2,560.9z"/>
			<linearGradient id="SVGID_66_" gradientUnits="userSpaceOnUse" x1="916.8068" y1="459.1024" x2="915.8699" y2="377.5793">
				<stop  offset="0" style="stop-color:#F9B776"/>
				<stop  offset="1" style="stop-color:#F47960"/>
			</linearGradient>
			<path class="st80" d="M895.3,419.1c0,0,3.7,16.2,21.9,15.9c18.5-0.3,20.2-15.9,20.2-15.9l-12.1-2.6l-1-13.5l-18.2,1.3l-0.3,12.8
				L895.3,419.1z"/>
			
				<linearGradient id="SVGID_67_" gradientUnits="userSpaceOnUse" x1="1009.2466" y1="-285.2711" x2="1012.1655" y2="-356.2105" gradientTransform="matrix(0.987 0.1608 -0.1608 0.987 -127.9079 533.125)">
				<stop  offset="0" style="stop-color:#F9B776"/>
				<stop  offset="1" style="stop-color:#F47960"/>
			</linearGradient>
			<path class="st81" d="M908.6,364.8c0,0-20.9,40.4,3.9,50.2c17.4,6.9,28.4-26.8,25.1-36c-5-14.1-8.4-12.5-8.4-12.5L908.6,364.8z"
				/>
			<linearGradient id="SVGID_68_" gradientUnits="userSpaceOnUse" x1="929.5977" y1="326.7931" x2="921.3188" y2="359.6018">
				<stop  offset="0" style="stop-color:#A737D5"/>
				<stop  offset="1" style="stop-color:#EF497A"/>
			</linearGradient>
			<path class="st82" d="M942.7,361.1c10.3,2.8,1.5,25.2-14,19.9c-15.5-5.3-21.6-5.2-24-0.9c-2.4,4.3-2.9,19.4-8.2,11.9
				c-5.7-8.2-9-24.6-1.9-29.9c6.3-4.7,7.8-12.1,15.3-11.8c10,0.3,17.8-4.1,22.3-0.9C937.4,353,935.1,359,942.7,361.1z"/>
			
				<linearGradient id="SVGID_69_" gradientUnits="userSpaceOnUse" x1="629.075" y1="905.5872" x2="633.649" y2="794.4185" gradientTransform="matrix(0.9911 -0.1329 0.1329 0.9911 160.7923 -390.837)">
				<stop  offset="0" style="stop-color:#F9B776"/>
				<stop  offset="1" style="stop-color:#F47960"/>
			</linearGradient>
			<path class="st83" d="M903.7,383.5c0,0-4.4-4.8-5.2,1c-0.7,5.8,1.6,13.2,4.3,9.1C905.5,389.6,903.7,383.5,903.7,383.5z"/>
		</g>
		<linearGradient id="SVGID_70_" gradientUnits="userSpaceOnUse" x1="917.1274" y1="455.6981" x2="914.7609" y2="568.948">
			<stop  offset="0" style="stop-color:#53D8FF"/>
			<stop  offset="1" style="stop-color:#3840F7"/>
		</linearGradient>
		<path class="st84" d="M921.4,492.4c0.4,2.9-1.1,5.6-4,6c-2.9,0.4-5.6-1.6-6.1-4.5c-0.4-2.9,0.9-5.8,3.8-6.2
			C918,487.2,921,489.5,921.4,492.4z"/>
	</g>
</g>
</svg>
