<?xml version="1.0" encoding="utf-8"?>
<!-- Generator: Adobe Illustrator 24.0.1, SVG Export Plug-In . SVG Version: 6.00 Build 0)  -->
<svg version="1.1" id="Layer_1" xmlns="http://www.w3.org/2000/svg" xmlns:xlink="http://www.w3.org/1999/xlink" x="0px" y="0px"
	 viewBox="0 0 247.2 73.6" style="enable-background:new 0 0 247.2 73.6;" xml:space="preserve">
<style type="text/css">
	.st0{fill:#F46B27;}
	.st1{fill:#FF7427;}
	.st2{fill:url(#SVGID_1_);}
	.st3{fill:url(#SVGID_2_);}
	.st4{fill:url(#SVGID_3_);}
	.st5{fill:url(#SVGID_4_);}
	.st6{fill:url(#SVGID_5_);}
	.st7{fill:#1A74BB;}
	.st8{fill:#202C35;}
</style>
<g>
	<polygon class="st0" points="58,32.3 54.3,25.9 58,19.5 65.5,19.5 69.2,25.9 65.5,32.3 	"/>
	<polygon class="st0" points="30.2,17.8 27.2,12.5 30.2,7.3 36.3,7.3 39.3,12.5 36.3,17.8 	"/>
	<polygon class="st1" points="66.8,8.9 65.2,6.2 66.8,3.4 70,3.4 71.6,6.2 70,8.9 	"/>
	<polygon class="st1" points="52.3,12.5 49.7,8.1 52.3,3.7 57.4,3.7 59.9,8.1 57.4,12.5 	"/>
	<g>
		
			<linearGradient id="SVGID_1_" gradientUnits="userSpaceOnUse" x1="39.3" y1="70.2086" x2="39.3" y2="10.8076" gradientTransform="matrix(1 0 0 -1 0 76)">
			<stop  offset="0" style="stop-color:#6FCCDD"/>
			<stop  offset="0.5054" style="stop-color:#49A3DA"/>
			<stop  offset="1" style="stop-color:#3F67B1"/>
		</linearGradient>
		<path class="st2" d="M40.8,33.4c0-0.8-0.7-1.5-1.5-1.5s-1.5,0.7-1.5,1.5s0.7,1.5,1.5,1.5S40.8,34.2,40.8,33.4z"/>
		
			<linearGradient id="SVGID_2_" gradientUnits="userSpaceOnUse" x1="32.7" y1="70.2054" x2="32.7" y2="10.8119" gradientTransform="matrix(1 0 0 -1 0 76)">
			<stop  offset="0" style="stop-color:#6FCCDD"/>
			<stop  offset="0.5054" style="stop-color:#49A3DA"/>
			<stop  offset="1" style="stop-color:#3F67B1"/>
		</linearGradient>
		<path class="st3" d="M45.1,48.8l5.5,9l3.6,1L63.3,43L60,37.3h-5.3l-6.6-11.5l2.7-4.6L48,16.4h-5.1l-3.6,6.3h-12l-3.6-6.3h-6.2
			l-5.3,9.2l7,10.8c0.1,0,0.1,0,0.2,0c2.1,0,3.7,1.7,3.7,3.7c0,2.1-1.7,3.7-3.7,3.7c-2.1,0-3.7-1.7-3.7-3.7c0-0.9,0.3-1.7,0.9-2.4
			l-6-9.2L2.1,42.9l8,13.9L27,45.7l2.1-7.7l0.5-0.3c0,0,5.8-3.6,6-3.7c0-0.2-0.1-0.4-0.1-0.6c0-2.1,1.7-3.7,3.7-3.7
			c2.1,0,3.7,1.7,3.7,3.7c0,2.1-1.7,3.7-3.7,3.7c-0.8,0-1.5-0.2-2.1-0.6c-0.2,0.2-0.5,0.3-0.6,0.4l-4.9,3l-2.1,7.7L11.6,59.4
			l4.2,7.2l14.3-9c0-0.1,0-0.1,0-0.2c0-2.1,1.7-3.7,3.7-3.7c2.1,0,3.7,1.7,3.7,3.7c0,2.1-1.7,3.7-3.7,3.7c-0.9,0-1.7-0.3-2.4-0.9
			l-14.1,8.9l0.1,0.2H48l4.6-8l-4-1.1l-0.3-0.5c0,0-6-9.9-6.2-10.1c-0.2,0-0.4,0.1-0.6,0.1c-2.1,0-3.7-1.7-3.7-3.7
			c0-2.1,1.7-3.7,3.7-3.7c2.1,0,3.7,1.7,3.7,3.7c0,0.8-0.2,1.5-0.6,2.1C44.9,48.4,45,48.6,45.1,48.8z"/>
		
			<linearGradient id="SVGID_3_" gradientUnits="userSpaceOnUse" x1="33.8" y1="70.1908" x2="33.8" y2="10.8136" gradientTransform="matrix(1 0 0 -1 0 76)">
			<stop  offset="0" style="stop-color:#6FCCDD"/>
			<stop  offset="0.5054" style="stop-color:#49A3DA"/>
			<stop  offset="1" style="stop-color:#3F67B1"/>
		</linearGradient>
		<path class="st4" d="M35.3,57.5c0-0.8-0.7-1.5-1.5-1.5s-1.5,0.7-1.5,1.5S33,59,33.8,59S35.3,58.3,35.3,57.5z"/>
		
			<linearGradient id="SVGID_4_" gradientUnits="userSpaceOnUse" x1="19.3" y1="70.2067" x2="19.3" y2="10.8098" gradientTransform="matrix(1 0 0 -1 0 76)">
			<stop  offset="0" style="stop-color:#6FCCDD"/>
			<stop  offset="0.5054" style="stop-color:#49A3DA"/>
			<stop  offset="1" style="stop-color:#3F67B1"/>
		</linearGradient>
		<path class="st5" d="M20.8,40.1c0-0.8-0.7-1.5-1.5-1.5s-1.5,0.7-1.5,1.5s0.7,1.5,1.5,1.5C20.1,41.6,20.8,40.9,20.8,40.1z"/>
		
			<linearGradient id="SVGID_5_" gradientUnits="userSpaceOnUse" x1="41.6" y1="70.2006" x2="41.6" y2="10.8135" gradientTransform="matrix(1 0 0 -1 0 76)">
			<stop  offset="0" style="stop-color:#6FCCDD"/>
			<stop  offset="0.5054" style="stop-color:#49A3DA"/>
			<stop  offset="1" style="stop-color:#3F67B1"/>
		</linearGradient>
		<path class="st6" d="M40.1,46.1c0,0.8,0.7,1.5,1.5,1.5s1.5-0.7,1.5-1.5s-0.7-1.5-1.5-1.5S40.1,45.3,40.1,46.1z"/>
	</g>
	<path class="st7" d="M95.9,43.6h6.6l-11,18.3c-0.6,1-1.2,1.8-1.8,2.4c-0.6,0.6-1.1,1-1.6,1.2c-0.5,0.3-0.9,0.4-1.3,0.4
		S86.2,66,86,66h-3.5l-2.3-4.1L80.1,62c-0.6,1-1.2,1.8-1.8,2.4c-0.6,0.6-1.1,1-1.6,1.2c-0.5,0.3-0.9,0.4-1.3,0.4s-0.6,0.1-0.8,0.1
		h-6.5V50h6.1v11L84,43.6h7l-7.7,13l2.2,4.4L95.9,43.6z"/>
	<path class="st7" d="M116.8,56.6h-8.5c-0.1,0.5-0.2,0.9-0.4,1.4c-0.1,0.5-0.2,0.9-0.3,1.4c0,0.3,0,0.5,0.3,0.8
		c0.2,0.3,0.5,0.4,0.8,0.5c1.7,0.3,3.4,0.4,5.1,0.3c1.7,0,3.4-0.2,5.1-0.6l-1.6,5.6c-4.2,0.6-8.3,0.7-12.5,0.3
		c-0.9-0.1-1.7-0.4-2.3-0.9c-0.6-0.5-1-1.2-1.3-1.9c-0.3-0.7-0.5-1.5-0.5-2.4s0-1.7,0.1-2.4c0.3-1.5,0.6-3,1.1-4.5s1-2.9,1.6-4.3
		c-0.3,0.1-0.6,0.2-0.9,0.2c-0.3,0.1-0.6,0.1-1,0.2c-0.3,0.1-0.7,0.2-1,0.4c-0.4,0.2-0.7,0.5-1.1,0.9c-0.1,0.1-0.1,0.1-0.1,0.1
		c-0.1,0.1-0.2,0.1-0.3,0c-0.1,0-0.1-0.1-0.1-0.3c0.6-1.2,1.3-2.2,2.1-3.2c0.8-1,1.6-1.8,2.6-2.5s2-1.2,3.2-1.6
		c1.2-0.4,2.5-0.6,3.9-0.6h12.9l-1.6,5.4h-9.5c-0.4,0-0.7,0.1-1,0.4c-0.3,0.3-0.5,0.6-0.7,0.9c-0.2,0.4-0.4,0.7-0.5,1.1
		c-0.2,0.4-0.3,0.7-0.5,1c0.2,0,0.4,0,0.6,0c0.3,0,0.7,0,1.2,0c0.6,0,1.4,0,2.4,0s2.4,0,4.1,0L116.8,56.6z"/>
	<path class="st7" d="M139.3,43.6c0.5,0,1,0,1.5,0.1c0.5,0,0.9,0.1,1.4,0.1c0.4,0.1,0.8,0.1,1.1,0.2s0.6,0.2,0.8,0.3
		c0.7,0.5,1.2,1.3,1.5,2.1c0.3,0.9,0.3,1.9-0.1,3c-0.2,0.6-0.4,1.1-0.8,1.7c-0.3,0.6-0.7,1.1-1.2,1.5c-0.5,0.5-0.9,0.9-1.5,1.3
		c-0.5,0.4-1.1,0.7-1.6,0.9c2.1,1,2.7,2.7,1.9,5.2c-0.4,1.3-1,2.5-2,3.4c-0.9,0.9-2,1.6-3.2,2c-0.5,0.2-1.2,0.3-1.9,0.4
		c-0.8,0.1-1.7,0.1-2.8,0.1h-11.7l5.4-17.6c-0.8,0.2-1.4,0.5-2,0.8s-1.1,0.7-1.4,1.2c-0.1,0.1-0.2,0.2-0.4,0.2
		c-0.1,0-0.2-0.1-0.2-0.3c0.7-1.3,1.3-2.3,1.9-3.2s1.3-1.6,2.1-2.1c0.8-0.5,1.8-0.9,2.9-1.1c1.1-0.2,2.6-0.3,4.3-0.3L139.3,43.6
		L139.3,43.6z M131.8,62c0.4,0,0.7,0,0.9,0s0.5,0,0.7-0.1c0.2,0,0.4-0.1,0.6-0.2c0.2-0.1,0.4-0.2,0.5-0.3c0.4-0.3,0.8-0.6,1.1-1
		s0.5-0.8,0.7-1.2c0.3-0.9,0.2-1.6-0.4-2c-0.3-0.2-0.6-0.3-0.9-0.4s-0.8-0.1-1.5-0.1h-3.4l-1.6,5.2L131.8,62L131.8,62z M134.6,52.8
		c0.7,0,1.3,0,1.6-0.1c0.4-0.1,0.7-0.2,1.1-0.4c0.4-0.3,0.8-0.6,1.1-1s0.5-0.8,0.7-1.2c0.3-0.9,0.1-1.6-0.5-2
		c-0.2-0.2-0.4-0.3-0.6-0.3l0,0h-5.3l-1.5,5H134.6z"/>
	<path class="st1" d="M148.1,66l6.6-22.4h12.2c1,0,1.9,0.1,2.8,0.4s1.7,0.8,2.4,1.5c0.4,0.4,0.7,0.9,0.9,1.5s0.3,1.1,0.3,1.7
		c0,0.4-0.1,0.9-0.2,1.6c-0.1,0.7-0.3,1.5-0.5,2.3c-0.2,0.9-0.4,1.8-0.7,2.7s-0.5,1.8-0.8,2.7s-0.5,1.6-0.8,2.3s-0.5,1.2-0.7,1.5
		c-0.4,0.5-0.8,1.1-1.2,1.6s-0.9,1-1.4,1.3c-0.5,0.4-1.1,0.7-1.7,0.9c-0.6,0.2-1.2,0.3-1.8,0.3L148.1,66z M160.4,61.4
		c0.5,0,1,0,1.4-0.1c0.4,0,0.7-0.1,0.9-0.3c0.3-0.1,0.5-0.3,0.6-0.5c0.2-0.2,0.3-0.5,0.5-0.8c0.1-0.2,0.3-0.5,0.5-1s0.4-1.1,0.7-1.8
		s0.5-1.4,0.7-2.1s0.5-1.5,0.7-2.1c0.2-0.7,0.4-1.3,0.5-1.8s0.2-0.9,0.2-1.2s0-0.5-0.1-0.8s-0.2-0.5-0.4-0.7s-0.3-0.4-0.6-0.5
		c-0.2-0.1-0.5-0.2-0.8-0.2h-5.1l-4,13.8L160.4,61.4L160.4,61.4z"/>
	<path class="st1" d="M195.6,55.2c-0.6,2.2-1.4,4.4-2.3,6.6c-0.5,1.1-1.2,2-2.2,2.7c-1,0.7-2.1,1.2-3.2,1.3
		c-0.9,0.2-1.9,0.3-2.8,0.4c-0.9,0.1-1.9,0.1-2.8,0.1c-0.7,0-1.4,0-2.1,0c-0.7,0-1.5-0.1-2.2-0.2s-1.4-0.3-2-0.6
		c-0.6-0.2-1.2-0.6-1.6-1c-0.5-0.4-0.8-1-1-1.6s-0.3-1.4-0.2-2.3c0.1-1,0.3-2.1,0.5-3.2c0.2-1.1,0.5-2.2,0.9-3.3s0.7-2.2,1.1-3.2
		c0.4-1,0.8-2,1.1-3c0.2-0.5,0.5-1,1-1.5s1.1-1,2-1.4c0.8-0.4,1.9-0.8,3.1-1c1.3-0.3,2.8-0.4,4.6-0.4c0.9,0,1.8,0,2.9,0.1
		c1,0,2,0.2,2.9,0.5s1.8,0.7,2.5,1.2c0.7,0.6,1.2,1.4,1.5,2.5v0.8C196.6,50.7,196.2,53,195.6,55.2z M188.6,54.9
		c0.5-1.7,1-3.4,1.3-5.1c0.1-0.5,0.1-0.8-0.2-1.1c-0.2-0.3-0.5-0.5-0.8-0.6s-0.7-0.2-1.2-0.3c-0.4,0-0.8-0.1-1.1-0.1s-0.7,0-1.1,0.1
		c-0.4,0-0.8,0.1-1.2,0.3c-0.4,0.1-0.7,0.3-1,0.5s-0.5,0.5-0.7,0.9c-0.6,1.6-1.2,3.2-1.7,4.8s-1,3.3-1.3,5c-0.1,0.4-0.1,0.8,0,1.1
		s0.2,0.6,0.5,0.8c0.2,0.2,0.5,0.4,0.8,0.5s0.7,0.1,1.1,0.1c0.4,0,0.8,0,1.3,0s1-0.1,1.4-0.2c0.5-0.1,0.8-0.3,1.2-0.6
		c0.3-0.3,0.6-0.6,0.7-1.1C187.5,58.2,188.1,56.6,188.6,54.9z"/>
	<path class="st1" d="M218.5,55.2c-0.6,2.2-1.4,4.4-2.3,6.6c-0.5,1.1-1.2,2-2.2,2.7c-1,0.7-2.1,1.2-3.2,1.3
		c-0.9,0.2-1.9,0.3-2.8,0.4c-0.9,0.1-1.9,0.1-2.8,0.1c-0.7,0-1.4,0-2.1,0c-0.7,0-1.5-0.1-2.2-0.2s-1.4-0.3-2-0.6
		c-0.6-0.2-1.2-0.6-1.6-1c-0.5-0.4-0.8-1-1-1.6s-0.3-1.4-0.2-2.3c0.1-1,0.3-2.1,0.5-3.2c0.3-1.1,0.5-2.2,0.9-3.3s0.7-2.2,1.1-3.2
		c0.4-1,0.8-2,1.1-3c0.2-0.5,0.5-1,1-1.5s1.1-1,1.9-1.4c0.8-0.4,1.9-0.8,3.1-1c1.3-0.3,2.8-0.4,4.6-0.4c0.9,0,1.8,0,2.9,0.1
		c1,0,2,0.2,2.9,0.5s1.8,0.7,2.5,1.2s1.2,1.4,1.5,2.5v0.8C219.6,50.7,219.1,53,218.5,55.2z M211.6,54.9c0.5-1.7,1-3.4,1.3-5.1
		c0.1-0.5,0-0.8-0.2-1.1s-0.5-0.5-0.8-0.6s-0.7-0.2-1.2-0.3c-0.4,0-0.8-0.1-1.1-0.1s-0.7,0-1.1,0.1c-0.4,0-0.8,0.1-1.2,0.3
		c-0.4,0.1-0.7,0.3-1,0.5s-0.5,0.5-0.7,0.9c-0.6,1.6-1.2,3.2-1.7,4.8c-0.5,1.7-1,3.3-1.3,5c-0.1,0.4-0.1,0.8,0,1.1s0.2,0.6,0.5,0.8
		c0.2,0.2,0.5,0.4,0.8,0.5s0.7,0.1,1.1,0.1c0.4,0,0.8,0,1.3,0s1-0.1,1.4-0.2c0.5-0.1,0.8-0.3,1.2-0.6c0.3-0.3,0.6-0.6,0.7-1.1
		C210.5,58.2,211.1,56.6,211.6,54.9z"/>
	<path class="st1" d="M230.6,59.6h-4.1l-1.9,6.4H218l6.8-22.3h11.3c0.8,0,1.5,0.1,2.3,0.3s1.4,0.5,2,0.9s1.1,0.9,1.5,1.6
		s0.6,1.4,0.6,2.3c0,1.2-0.2,2.3-0.5,3.5c-0.3,1.1-0.8,2.2-1.5,3.2c-0.5,0.7-1,1.4-1.6,2.1c-0.6,0.7-1.3,1.2-2.1,1.6l2.3,7h-6.3
		L230.6,59.6z M231.1,55c0.6,0,1,0,1.4-0.1s0.7-0.2,0.9-0.3c0.3-0.1,0.5-0.3,0.6-0.5s0.3-0.4,0.5-0.6c0.5-0.5,0.8-1.1,1.1-1.7
		c0.2-0.6,0.4-1.3,0.4-2c0-0.2,0-0.5-0.1-0.8s-0.2-0.5-0.4-0.7s-0.4-0.4-0.6-0.5c-0.2-0.1-0.5-0.2-0.8-0.2H230l-2.2,7.3L231.1,55
		L231.1,55z"/>
	<g>
		<path class="st8" d="M78.6,37.5h-0.9l-1.3-6.8l-3,9.8h-4.2l4.3-14.2h4.3c0.2,0,0.5,0,0.7,0.1s0.4,0.2,0.6,0.3
			c0.2,0.1,0.4,0.3,0.5,0.5s0.2,0.4,0.3,0.6l0.6,3.2l2.7-3.4c0.3-0.4,0.7-0.7,1.2-1s1-0.4,1.4-0.4h3.8l-4.2,14.2h-4.3L84,31
			L78.6,37.5z"/>
		<path class="st8" d="M87.7,26.4h4.1l1.8,5.5l5.4-5.5h4.5l-8.4,8.1l-1.9,6.1H89l1.9-6.2L87.7,26.4z"/>
	</g>
</g>
</svg>
