<?xml version="1.0" encoding="utf-8"?>
<!-- Generator: Adobe Illustrator 24.0.1, SVG Export Plug-In . SVG Version: 6.00 Build 0)  -->
<svg version="1.1" id="Layer_1" xmlns="http://www.w3.org/2000/svg" xmlns:xlink="http://www.w3.org/1999/xlink" x="0px" y="0px"
	 viewBox="0 0 1283.3 737.1" style="enable-background:new 0 0 1283.3 737.1;" xml:space="preserve">
<style type="text/css">
	.st0{fill:#FFFFFF;}
	.st1{fill:url(#Path_151_2_);}
	.st2{fill:url(#Path_152_2_);}
	.st3{fill:#F1F3F9;}
	.st4{fill:url(#Path_878_1_);}
	.st5{fill:url(#Path_879_1_);}
	.st6{fill:#F2F4F9;}
	.st7{fill:url(#Path_151-2_2_);}
	.st8{fill:url(#Path_152-2_2_);}
	.st9{fill:url(#Path_151-3_2_);}
	.st10{fill:url(#Path_152-3_2_);}
	.st11{fill:url(#Path_151-3_3_);}
	.st12{fill:url(#Path_152-3_3_);}
	.st13{fill:url(#SVGID_1_);}
	.st14{fill:#5793CE;}
	.st15{fill:#396CAA;}
	.st16{fill:#D4ECFF;}
	.st17{fill:#EFEFEF;}
	.st18{fill:#173D7A;}
	.st19{fill:#FAFDFF;}
	.st20{opacity:0.4;fill:#D4ECFF;enable-background:new    ;}
	.st21{fill:#274F89;}
	.st22{fill:#FF2C9C;}
	.st23{fill:#D3008D;}
	.st24{fill:#FFC2B0;}
</style>
<rect x="3" class="st0" width="1277.3" height="737.1"/>
<g id="Shadows">
</g>
<g>
	<g id="Group_30_1_" transform="translate(159.07 605.079)">
		
			<linearGradient id="Path_151_2_" gradientUnits="userSpaceOnUse" x1="239.9361" y1="146.4014" x2="239.9361" y2="147.8849" gradientTransform="matrix(38.4 0 0 -125.0701 -8877.165 18405.8398)">
			<stop  offset="0.247" style="stop-color:#FFFFFF"/>
			<stop  offset="0.516" style="stop-color:#F8F9FD"/>
			<stop  offset="0.905" style="stop-color:#E5E9F6"/>
			<stop  offset="1" style="stop-color:#DFE4F4"/>
		</linearGradient>
		<path id="Path_151_1_" class="st1" d="M308.4,95.4l56-32.8V-90.1l-56,32.8V95.4z"/>
		
			<linearGradient id="Path_152_2_" gradientUnits="userSpaceOnUse" x1="239.4734" y1="146.4014" x2="239.4734" y2="147.8849" gradientTransform="matrix(38.4 0 0 -125.0701 -8915.5635 18405.8398)">
			<stop  offset="0.247" style="stop-color:#FFFFFF"/>
			<stop  offset="0.641" style="stop-color:#F6F7FC"/>
			<stop  offset="1" style="stop-color:#E9EDF7"/>
		</linearGradient>
		<path id="Path_152_1_" class="st2" d="M308.4,95.4l-56.3-32.8V-90.1l56.3,32.8V95.4z"/>
		<path id="Path_153_1_" class="st3" d="M308.4-57.4l-56-33l56-32.9l56,32.8L308.4-57.4z"/>
	</g>
	<g id="Group_614">
		
			<linearGradient id="Path_878_1_" gradientUnits="userSpaceOnUse" x1="886.2175" y1="750.2655" x2="886.2175" y2="750.9318" gradientTransform="matrix(41.5601 0 0 -135.37 -35634.3906 102250.9375)">
			<stop  offset="0.247" style="stop-color:#FFFFFF"/>
			<stop  offset="0.882" style="stop-color:#E6EAF6"/>
			<stop  offset="1" style="stop-color:#E1E5F4"/>
		</linearGradient>
		<path id="Path_878" class="st4" d="M1177.5,687.5l38.8-16v-74.2l-38.8,16V687.5z"/>
		
			<linearGradient id="Path_879_1_" gradientUnits="userSpaceOnUse" x1="886.284" y1="750.2655" x2="886.284" y2="750.9318" gradientTransform="matrix(41.5601 0 0 -135.37 -35675.9492 102250.9375)">
			<stop  offset="0.247" style="stop-color:#FFFFFF"/>
			<stop  offset="1" style="stop-color:#EBEEF7"/>
		</linearGradient>
		<path id="Path_879" class="st5" d="M1177.5,687.5l-38.8-16v-74.2l38.8,16V687.5z"/>
		<path id="Path_880" class="st6" d="M1177.5,613.2l-38.8-16l38.8-16l38.8,16L1177.5,613.2z"/>
	</g>
	<g id="Group_660" transform="translate(376.07 643.129)">
		
			<linearGradient id="Path_151-2_2_" gradientUnits="userSpaceOnUse" x1="-983.7918" y1="107.1659" x2="-983.7918" y2="108.4966" gradientTransform="matrix(54.046 0 0 -176.04 53461.4375 18883.2813)">
			<stop  offset="0.247" style="stop-color:#FFFFFF"/>
			<stop  offset="0.516" style="stop-color:#F8F9FD"/>
			<stop  offset="0.905" style="stop-color:#E5E9F6"/>
			<stop  offset="1" style="stop-color:#DFE4F4"/>
		</linearGradient>
		<path id="Path_151-2_1_" class="st7" d="M263,17.8l56.9-41.5v-192.8L263-175V17.8z"/>
		
			<linearGradient id="Path_152-2_2_" gradientUnits="userSpaceOnUse" x1="-983.8456" y1="107.1659" x2="-983.8456" y2="108.4975" gradientTransform="matrix(54.046 0 0 -176.04 53407.3945 18883.2813)">
			<stop  offset="0.247" style="stop-color:#FFFFFF"/>
			<stop  offset="0.641" style="stop-color:#F6F7FC"/>
			<stop  offset="1" style="stop-color:#E9EDF7"/>
		</linearGradient>
		<path id="Path_152-2_1_" class="st8" d="M263,17.8L206-23.8v-192.8l56.9,41.5V17.8z"/>
		<path id="Path_153-2_1_" class="st3" d="M263-175L206-216.5l56.9-41.3l56.9,41.5L263-175z"/>
	</g>
	<g id="Group_98_1_" transform="translate(1097.07 620.079)">
		
			<linearGradient id="Path_151-3_2_" gradientUnits="userSpaceOnUse" x1="-4452.397" y1="129.826" x2="-4452.397" y2="130.235" gradientTransform="matrix(54.046 0 0 -176.04 240551.7188 22926.0645)">
			<stop  offset="0.247" style="stop-color:#FFFFFF"/>
			<stop  offset="0.516" style="stop-color:#F8F9FD"/>
			<stop  offset="0.905" style="stop-color:#E5E9F6"/>
			<stop  offset="1" style="stop-color:#DFE4F4"/>
		</linearGradient>
		<path id="Path_151-3" class="st9" d="M-103,71.5l40.9-25.8V-0.5L-103,25.1V71.5z"/>
		
			<linearGradient id="Path_152-3_2_" gradientUnits="userSpaceOnUse" x1="-4452.1538" y1="129.826" x2="-4452.1538" y2="130.235" gradientTransform="matrix(54.046 0 0 -176.04 240497.6719 22926.0645)">
			<stop  offset="0.247" style="stop-color:#FFFFFF"/>
			<stop  offset="0.641" style="stop-color:#F6F7FC"/>
			<stop  offset="1" style="stop-color:#E9EDF7"/>
		</linearGradient>
		<path id="Path_152-3" class="st10" d="M-103,71.5l-40.9-25.8V-0.5l40.9,25.6V71.5z"/>
		<path id="Path_153-3" class="st3" d="M-103,25.1l-41-25.7l40.9-25.7l41,25.7L-103,25.1z"/>
	</g>
	<g id="Group_98_2_" transform="translate(1097.07 620.079)">
		
			<linearGradient id="Path_151-3_3_" gradientUnits="userSpaceOnUse" x1="-4456.1118" y1="129.8845" x2="-4456.1118" y2="130.4548" gradientTransform="matrix(54.046 0 0 -176.04 240551.7188 22926.0645)">
			<stop  offset="0.247" style="stop-color:#FFFFFF"/>
			<stop  offset="0.516" style="stop-color:#F8F9FD"/>
			<stop  offset="0.905" style="stop-color:#E5E9F6"/>
			<stop  offset="1" style="stop-color:#DFE4F4"/>
		</linearGradient>
		<path id="Path_151-3_1_" class="st11" d="M-312.1,61.2l57.6-35.9v-64.5l-57.6,35.7V61.2z"/>
		
			<linearGradient id="Path_152-3_3_" gradientUnits="userSpaceOnUse" x1="-4456.1772" y1="129.8845" x2="-4456.1772" y2="130.4548" gradientTransform="matrix(54.046 0 0 -176.04 240497.6719 22926.0645)">
			<stop  offset="0.247" style="stop-color:#FFFFFF"/>
			<stop  offset="0.641" style="stop-color:#F6F7FC"/>
			<stop  offset="1" style="stop-color:#E9EDF7"/>
		</linearGradient>
		<path id="Path_152-3_1_" class="st12" d="M-312.1,61.2l-57.6-35.9v-64.5l57.6,35.7V61.2z"/>
		<path id="Path_153-3_1_" class="st3" d="M-312.1-3.4l-57.7-35.7l57.6-35.7l57.7,35.7L-312.1-3.4z"/>
	</g>
</g>
<linearGradient id="SVGID_1_" gradientUnits="userSpaceOnUse" x1="81.0218" y1="-380.0299" x2="652.1637" y2="429.7666" gradientTransform="matrix(1 0 0 1 0 338)">
	<stop  offset="0.247" style="stop-color:#FFFFFF"/>
	<stop  offset="0.516" style="stop-color:#F8F9FD"/>
	<stop  offset="0.905" style="stop-color:#E5E9F6"/>
	<stop  offset="1" style="stop-color:#DFE4F4"/>
</linearGradient>
<path class="st13" d="M0,737.1V0h741.2c-2,12.9-2.9,255.3-364.6,299.8C73.2,337.2,0,737.1,0,737.1z"/>
<g>
	<g>
		<g>
			<path class="st14" d="M1087.8,274.4c-0.5,0-1-0.5-1-1.2V227c0-0.6,0.4-1.2,1-1.2s1,0.5,1,1.2v46.3
				C1088.8,273.9,1088.3,274.4,1087.8,274.4z"/>
			<g>
				<g>
					<rect x="1084.4" y="224.1" class="st14" width="6.9" height="17.4"/>
					<path class="st14" d="M1090.2,243.1c-1.4,1-3.5,1-4.9,0c-1.4-1-1.4-2.3,0-3.3c1.4-1,3.5-1,4.9,0
						C1091.6,240.7,1091.6,242.2,1090.2,243.1z"/>
				</g>
				<g>
					<rect x="1082.2" y="199.9" class="st14" width="11.3" height="27.2"/>
					<path class="st15" d="M1084.4,227v5.9c2,1.1,4.9,1.1,6.9,0V227C1089.3,225.9,1086.4,225.9,1084.4,227z"/>
					<path class="st14" d="M1091.8,229.8c-2.2,1.5-5.8,1.5-8,0c-2.2-1.5-2.2-3.8,0-5.3c2.2-1.5,5.8-1.5,8,0
						C1094,225.9,1094,228.3,1091.8,229.8z"/>
				</g>
			</g>
		</g>
		<g>
			<path class="st14" d="M1126.8,299.8c-0.5,0-1-0.5-1-1.2v-46.3c0-0.6,0.4-1.2,1-1.2s1,0.5,1,1.2v46.3
				C1127.7,299.4,1127.3,299.8,1126.8,299.8z"/>
			<g>
				<g>
					<rect x="1123.4" y="249.5" class="st14" width="6.9" height="17.4"/>
					<path class="st14" d="M1129.2,268.5c-1.4,1-3.5,1-4.9,0c-1.4-1-1.4-2.3,0-3.3c1.4-1,3.5-1,4.9,0
						C1130.6,266.1,1130.6,267.6,1129.2,268.5z"/>
				</g>
				<g>
					<rect x="1121.1" y="225.3" class="st14" width="11.3" height="27.2"/>
					<path class="st15" d="M1123.4,252.4v5.9c2,1.1,4.9,1.1,6.9,0v-5.9C1128.3,251.3,1125.4,251.3,1123.4,252.4z"/>
					<path class="st14" d="M1130.8,255.2c-2.2,1.5-5.8,1.5-8,0c-2.2-1.5-2.2-3.8,0-5.3c2.2-1.5,5.8-1.5,8,0
						C1133,251.3,1133,253.8,1130.8,255.2z"/>
				</g>
			</g>
		</g>
		<g>
			<g>
				<polygon class="st14" points="1164.7,270.5 1179.8,260.2 1165.4,239.5 1161.6,246.6 				"/>
				<path class="st14" d="M1055.1,156.5l24.1-16.1c0,0-0.9,16-0.9,16.1l-13.9,5L1055.1,156.5z"/>
				<path class="st14" d="M1168.9,218.3c-1.8-1.2-3.6-1.9-5.2-2.2c-2.5-14.8-11.3-30.5-21.9-37.5c-3.2-2.1-6.2-3.3-9-3.5
					c-1.5-17.9-12.2-38.3-25.3-47c-6.8-4.6-13-5.1-17.6-2.3l0,0l-0.2,0.1c-0.1,0.1-0.2,0.1-0.3,0.2l-14.2,9.7l4.7,4.3
					c-4.3,2.1-6.9,7.7-6.9,15.8c0,15,9.1,33.3,20.4,40.7l75.6,62.5c8.4,5.7,15.2,1.1,15.2-10.2
					C1184.1,237.6,1177.3,223.9,1168.9,218.3z"/>
				<path class="st14" d="M1073.7,149.2l32.6-22.1c-6.3-3.8-12-4.2-16.3-1.5l0,0l-0.2,0.1c-0.1,0.1-0.2,0.1-0.3,0.2l-14.2,9.7
					l4.7,4.3C1077,141.5,1074.8,144.7,1073.7,149.2z"/>
				<path class="st14" d="M1133.9,214.1l23.8-16.2c-4.1-8.2-9.7-15.4-15.9-19.5c-0.9-0.5-1.6-1.1-2.5-1.5l-30.3,20.5L1133.9,214.1z"
					/>
				<path class="st16" d="M1081.9,137.5l10.6,7l19.4-13.2c-1.4-1.3-2.9-2.5-4.4-3.4c-2.3-1.6-4.6-2.7-6.8-3.3L1081.9,137.5z"/>
				<path class="st16" d="M1155,193.2l-19,13l6.6,8.5l17.3-11.8C1158.6,199.5,1157,196.2,1155,193.2z"/>
				<path class="st16" d="M1154,228.4c-1.8-1.2-3.6-1.9-5.2-2.2c-2.5-14.8-11.3-30.5-21.9-37.5c-3.2-2.1-6.2-3.3-9-3.5
					c-1.5-17.9-12.2-38.3-25.3-47c-14.1-9.4-25.5-1.8-25.5,17c0,0.6,0,1.3,0,1.9c-10.2-5.5-18.3,0.7-18.3,14.8
					c0,15,9.1,33.3,20.4,40.7l84.8,56.6c8.4,5.7,15.2,1.1,15.2-10.2C1169.2,247.8,1162.4,234,1154,228.4z"/>
				<g>
					<path class="st0" d="M1067.3,157.1c0-0.6,0-1.3,0-1.9c0,0,0,0,0-0.1c-5.7-2.6-10.6-1.5-13.6,2.7
						C1057,154.5,1061.8,154.1,1067.3,157.1z"/>
					<path class="st0" d="M1155.3,227c-1.8-1.2-3.6-1.9-5.2-2.2c-2.5-14.8-11.3-30.5-21.9-37.5c-3.2-2.1-6.2-3.3-9-3.5
						c-1.5-17.9-12.2-38.3-25.3-47c-8.7-5.9-16.5-5.1-21,0.9c4.7-4.6,11.8-4.8,19.8,0.5c13.1,8.7,23.8,29.1,25.3,47
						c2.8,0.2,5.8,1.4,9,3.5c10.6,7,19.5,22.8,21.9,37.5c1.6,0.3,3.4,1,5.2,2.2c8.4,5.7,15.2,19.3,15.2,30.6c0,4.1-0.9,7.2-2.5,9.4
						c2.2-2,3.6-5.8,3.6-10.8C1170.5,246.4,1163.7,232.6,1155.3,227z"/>
				</g>
				<g>
					<path class="st15" d="M1065.5,161.5l6.4,3.4l-0.3-8.1c0-0.5,0-1.2,0-1.7c0-7.2,1.9-12.5,5.3-14.8c3.4-2.2,8.3-1.6,13.8,2
						c11.6,7.8,21.9,26.8,23.1,43.2l0.3,4.2l3.6,0.3c2.2,0.2,4.6,1.2,7.1,2.9c9.3,6.2,17.6,20.6,19.8,34.2l0.5,3.4l3,0.5
						c1.2,0.2,2.5,0.7,3.7,1.6c7.1,4.8,13.1,16.8,13.1,26.3c0,3.5-0.9,6.2-2.3,7.1c-1.5,1-3.8,0.5-6.5-1.3l-84.8-56.6
						c-9.8-6.6-18.2-23.2-18.2-36.5c0-5.2,1.3-9.1,3.6-10.8c1-0.7,2.1-1.1,3.4-1.1C1061.8,159.9,1063.6,160.5,1065.5,161.5z"/>
				</g>
			</g>
			<g>
				<polygon class="st14" points="1107.7,223.1 1109.9,221.7 1107.8,219.7 				"/>
				<polygon class="st14" points="1101,188.1 1103.2,186.8 1103.2,188.1 				"/>
				<polygon class="st14" points="1114.1,214.8 1116.3,213.6 1112.1,208.7 				"/>
				<g>
					<path class="st14" d="M1109.3,221.7l-10.6-7.2c-0.5-0.3-1-1.3-1-2v-14.2l12.6,8.5v14.2C1110.3,221.7,1109.8,222,1109.3,221.7z"
						/>
					<path class="st14" d="M1103.2,186.8l-11.4,8.5c-0.5,0.3-0.1,1.7,0.6,2.2l11.6,8l11.6,8c0.7,0.5,1.2-0.3,0.6-1.3l-11.3-24.1
						C1104.5,187,1103.7,186.4,1103.2,186.8z"/>
				</g>
				<g>
					<path class="st16" d="M1107.1,222.9l-10.6-7.2c-0.5-0.3-1-1.3-1-2v-14.2l12.6,8.5v14.2C1108,222.9,1107.6,223.3,1107.1,222.9z"
						/>
					<path class="st16" d="M1100.9,188.1l-11.4,8.5c-0.5,0.3-0.1,1.7,0.6,2.2l11.6,8l11.6,8c0.7,0.5,1.2-0.3,0.6-1.3l-11.2-24.2
						C1102.3,188.3,1101.4,187.8,1100.9,188.1z"/>
				</g>
			</g>
		</g>
		<path class="st16" d="M1086.7,238.4c0,0.7-0.5,1.2-1.1,0.7c-0.6-0.4-1.1-1.4-1.1-2.1c0-0.7,0.5-1.2,1.1-0.7
			C1086.2,236.7,1086.7,237.7,1086.7,238.4z"/>
		<path class="st16" d="M1125.8,264.2c0,0.7-0.5,1.2-1.1,0.7c-0.6-0.4-1.1-1.4-1.1-2.1s0.5-1.2,1.1-0.7
			C1125.4,262.5,1125.8,263.5,1125.8,264.2z"/>
	</g>
	<g>
		<path class="st17" d="M820.4,461.2L796,444.9c-10.1-6.8-10.1-17.8,0-24.6l22.2-14.8c4.6-3,4.6-8,0-11l-19.3-12.9
			c-10.1-6.8-10.1-17.8,0-24.6l24.2-16.2c10.1-6.8,26.7-6.8,36.8,0l15.6,10.3l-10.1,6.8l-15.6-10.3c-4.6-3-11.9-3-16.4,0l-24.2,16.2
			c-4.6,3-4.6,8,0,11l19.3,12.9c10.1,6.8,10.1,17.8,0,24.6l-22.2,14.8c-4.6,3-4.6,8,0,11l24.3,16.3L820.4,461.2z"/>
	</g>
	<g>
		<g>
			<path class="st14" d="M788.6,419.6l-0.3-0.6v2.8l0,0c-0.1,4.6,2.5,9.1,7.6,12.6l24.3,16.3l10.1-6.8L806,427.5
				c-1.4-1-2.3-2-2.9-3.2c-5.4-0.4-9.7-3.7-13.5-7.8C789.3,417.6,788.8,418.6,788.6,419.6z"/>
			<path class="st18" d="M859.8,330.2c-10.1-6.8-26.7-6.8-36.8,0l-24.2,16.2c-3,2-5.1,4.4-6.3,6.9c3.9,4.3,7.8,9,13.9,8.2
				c-1.6-2.8-0.7-6.1,2.6-8.3l24.2-16.2c4.6-3,11.9-3,16.4,0l15.6,10.3l10.1-6.8L859.8,330.2z"/>
			<path class="st14" d="M832.3,380.6c-1.1-1.2-2.3-2.3-3.9-3.4l-19.3-12.9c-1.2-0.7-2-1.7-2.6-2.7c-6.1,0.7-9.9-3.9-13.9-8.2
				c-0.4,0.9-0.7,1.8-1,2.8l-0.3-0.4v3l0,0c0,4.5,2.6,9,7.6,12.4l19.3,12.9c3,2,3.9,4.8,3.1,7.4
				C825.2,390.1,828.4,384.4,832.3,380.6z"/>
			<path class="st18" d="M835.6,386.9c-0.5-2.2-1.6-4.4-3.3-6.3c-3.9,3.8-7,9.5-11.1,10.8c-0.5,1.4-1.5,2.7-3.1,3.6L796,409.7
				c-3,2-5,4.4-6.3,6.8c3.8,4.1,8.1,7.4,13.5,7.8c-1.2-2.7-0.2-5.7,2.9-7.8l22.2-14.8c5-3.4,7.6-7.8,7.6-12.2l0,0v-0.1l0,0v-3
				L835.6,386.9z"/>
			<g>
				<path class="st0" d="M798.8,367.9l19.3,12.9c2,1.4,3.2,3.1,3.4,4.9c0.2-2.2-0.9-4.5-3.4-6.1l-19.3-12.9
					c-4.8-3.2-7.4-7.5-7.6-11.7C791,359.6,793.5,364.4,798.8,367.9z"/>
				<path class="st0" d="M820.4,446.3L796,430c-4.8-3.2-7.4-7.5-7.6-11.7c-0.2,4.7,2.2,9.4,7.6,12.9l24.3,16.3l10.1-6.8l-1-0.6
					L820.4,446.3z"/>
				<path class="st0" d="M865.3,343.1l-15.6-10.3c-4.6-3-11.9-3-16.4,0L809.1,349c-2.6,1.7-3.6,3.9-3.4,6.1c0.2-1.8,1.3-3.5,3.4-4.9
					l24.2-16.2c4.6-3,11.9-3,16.4,0l15.6,10.3l10.1-6.8l-1-0.6L865.3,343.1z"/>
				<path class="st0" d="M828.3,397.4l-22.2,14.8c-2.6,1.7-3.6,3.9-3.4,6.1c0.2-1.8,1.3-3.5,3.4-4.9l22.2-14.8
					c5.3-3.5,7.8-8.3,7.6-12.9C835.6,390,833.2,394.2,828.3,397.4z"/>
			</g>
			<g>
				<g>
					<path class="st16" d="M820.4,447.6l-24.3-16.3c-10.1-6.8-10.1-17.8,0-24.6l22.2-14.8c4.6-3,4.6-8,0-11L799,367.9
						c-10.1-6.8-10.1-17.8,0-24.6l24.2-16.2c10.1-6.8,26.7-6.8,36.8,0l15.6,10.3l-10.1,6.8l-15.6-10.3c-4.6-3-11.9-3-16.4,0
						l-24.2,16.2c-4.6,3-4.6,8,0,11l19.3,12.9c10.1,6.8,10.1,17.8,0,24.6l-22.2,14.8c-4.6,3-4.6,8,0,11l24.3,16.3L820.4,447.6z"/>
				</g>
				<g>
					<path class="st14" d="M832.5,438.4L832.5,438.4c-0.4-0.3-1.1-0.3-1.7,0.1l-11.2,7.5c-1.3,0.9-2.3,3-2.3,4.7
						c0,0.9,0.2,1.4,0.6,1.7l12,8.1l14.5-14.2L832.5,438.4z"/>
					<path class="st14" d="M842.8,446.6l-11.2,7.5c-1.3,0.9-2.3,3-2.3,4.7s1.1,2.5,2.3,1.6l11.2-7.5c1.3-0.9,2.3-3,2.3-4.7
						C845.1,446.4,844.1,445.8,842.8,446.6z"/>
				</g>
			</g>
		</g>
		<path class="st14" d="M863.9,325.2L863.9,325.2c-0.4-0.3-1.1-0.3-1.7,0.1l-11.2,7.5c-1.3,0.9-2.3,3-2.3,4.7c0,0.9,0.2,1.4,0.6,1.7
			l12,8.1l14.5-14.2L863.9,325.2z"/>
		<g>
			<g>
				<g>
					<path class="st17" d="M917.8,427.7l-58.2-38.5c-2.1-1.4-1.8-3.9,0.6-5.5l33.5-22.4c2.5-1.6,6.2-1.8,8.3-0.4l58.2,38.5
						c2.1,1.4,1.8,3.9-0.6,5.5l-33.5,22.4C923.7,429,920,429.2,917.8,427.7z"/>
					<path class="st15" d="M965.5,386.5L965.5,386.5V229l-54.1-16.4l-9.9-6.6c-2.2-1.5-6.3-1.4-9,0.4l-9.3,6.2h-28.8l8.5,152
						c-0.1,1.1,0.4,2,1.5,2.8l53.9,47.1c2.2,1.5,6.3,1.4,9-0.4l35.9-24C964.8,389,965.6,387.7,965.5,386.5z"/>
					<path class="st16" d="M897.3,204.9c-1.7,0-3.4,0.5-4.8,1.5l-9.3,6.2h-28.8v157.9c-0.1,1.1,0.4,2,1.5,2.8l62.5,41.3
						c1.1,0.7,2.6,1.1,4.2,1.1l0.6-158.9L897.3,204.9z"/>
					<path class="st14" d="M919,414.8c1.9,1,4.8,1,7.1-0.1V254.8H919V414.8z"/>
					<path class="st16" d="M918.4,256.6l-62.5-41.3c-2.2-1.5-2-4.2,0.6-6l35.9-24c2.7-1.8,6.6-1.9,9-0.4l62.5,41.3
						c2.2,1.5,2,4.2-0.6,6l-35.9,24C924.6,258,920.7,258.2,918.4,256.6z"/>
					<path class="st19" d="M963.2,229.2l-35.9,24c-2.7,1.8-6.6,1.9-9,0.4l-62.5-41.2c-0.5-0.3-0.9-0.7-1.2-1.2
						c-0.7,1.5-0.4,3.1,1.2,4.1l62.5,41.3c2.2,1.5,6.3,1.4,9-0.4l35.9-24c2-1.4,2.7-3.3,1.8-4.8
						C964.7,228.1,964.1,228.7,963.2,229.2z"/>
					<g>
						<path class="st18" d="M920.2,240l-41.6-27.9c-1.1-0.7-1-1.9,0.3-2.8l16.8-11.2c1.3-0.9,3.1-1,4.2-0.2l41.6,27.9
							c1.1,0.7,1,1.9-0.3,2.8l-16.8,11.2C923.2,240.5,921.2,240.6,920.2,240z"/>
						<g>
							<path class="st16" d="M897.7,213.2l-2.5-1.6c-0.1-0.1-0.1-0.3,0-0.4l2.3-1.6c0.2-0.1,0.4-0.1,0.5,0l2.5,1.6
								c0.1,0.1,0.1,0.3,0,0.4l-2.3,1.6C898.1,213.4,897.9,213.4,897.7,213.2z"/>
							<path class="st16" d="M905.8,218.7l-2.5-1.6c-0.1-0.1-0.1-0.3,0-0.4l2.3-1.6c0.2-0.1,0.4-0.1,0.5,0l2.5,1.6
								c0.1,0.1,0.1,0.3,0,0.4l-2.3,1.6C906.2,218.8,905.9,218.8,905.8,218.7z"/>
							<path class="st16" d="M913.8,224l-2.5-1.6c-0.1-0.1-0.1-0.3,0-0.4l2.3-1.6c0.2-0.1,0.4-0.1,0.5,0l2.5,1.6
								c0.1,0.1,0.1,0.3,0,0.4l-2.3,1.6C914.2,224.1,914,224.1,913.8,224z"/>
							<path class="st16" d="M921.9,229.3l-2.5-1.6c-0.1-0.1-0.1-0.3,0-0.4l2.3-1.6c0.2-0.1,0.4-0.1,0.5,0l2.5,1.6
								c0.1,0.1,0.1,0.3,0,0.4l-2.3,1.6C922.3,229.4,922,229.4,921.9,229.3z"/>
						</g>
						<path class="st14" d="M878.6,212.1L878.6,212.1c0.1,0,0.2-0.1,0.3-0.2l16.8-11.2c1.3-0.9,3.1-1,4.2-0.2l41.6,27.9
							c1-0.9,1.1-1.9,0-2.6l-41.6-27.9c-1.1-0.7-3-0.6-4.2,0.2l-16.8,11.1C877.6,210,877.5,211.3,878.6,212.1z"/>
					</g>
				</g>
				<g>
					<path class="st18" d="M934.4,287.9l23.7-15.7c1.3-0.9,2.5-3.3,2.5-5.3v-9.8c0-2-1.1-3-2.5-2.1l-23.7,15.7
						c-1.3,0.9-2.5,3.3-2.5,5.3v9.8C931.9,287.8,933,288.7,934.4,287.9z"/>
					<path class="st0" d="M959.2,254.6c0.3,0.4,0.6,1.1,0.6,2v9.8c0,2-1.1,4.5-2.5,5.3l-23.7,15.7c-0.4,0.3-0.9,0.3-1.2,0.3
						c0.4,0.5,1.1,0.5,1.8,0.1l23.7-15.7c1.3-0.9,2.5-3.3,2.5-5.3v-9.8C960.4,255.7,959.9,254.8,959.2,254.6z"/>
					<g>
						<path class="st15" d="M941.5,277.2l2.1-1.5c0.3-0.2,0.5-0.7,0.5-1.2v-2.7c0-0.4-0.2-0.6-0.5-0.4l-2.1,1.5
							c-0.3,0.2-0.5,0.7-0.5,1.2v2.7C941,277.2,941.2,277.4,941.5,277.2z"/>
						<path class="st0" d="M948.7,272.4l2.1-1.5c0.3-0.2,0.5-0.7,0.5-1.2v-2.7c0-0.4-0.2-0.6-0.5-0.4l-2.1,1.5
							c-0.3,0.2-0.5,0.7-0.5,1.2v2.7C948.2,272.4,948.4,272.6,948.7,272.4z"/>
					</g>
				</g>
				<g>
					<path class="st18" d="M934.4,358.7L958,343c1.3-0.9,2.5-3.3,2.5-5.3v-9.8c0-2-1.1-3-2.5-2.1l-23.7,15.7
						c-1.3,0.9-2.5,3.3-2.5,5.3v9.8C931.9,358.6,933,359.5,934.4,358.7z"/>
					<path class="st0" d="M959.2,325.4c0.3,0.4,0.6,1.1,0.6,2v9.8c0,2-1.1,4.5-2.5,5.3l-23.7,15.7c-0.4,0.3-0.9,0.3-1.2,0.3
						c0.4,0.5,1.1,0.5,1.8,0.1L958,343c1.3-0.9,2.5-3.3,2.5-5.3v-9.8C960.4,326.5,959.9,325.6,959.2,325.4z"/>
					<g>
						<path class="st15" d="M941.5,348l2.1-1.5c0.3-0.2,0.5-0.7,0.5-1.2v-2.7c0-0.4-0.2-0.6-0.5-0.4l-2.1,1.5
							c-0.3,0.2-0.5,0.7-0.5,1.2v2.7C941,348,941.2,348.2,941.5,348z"/>
						<path class="st0" d="M948.7,343.2l2.1-1.5c0.3-0.2,0.5-0.7,0.5-1.2v-2.7c0-0.4-0.2-0.6-0.5-0.4l-2.1,1.5
							c-0.3,0.2-0.5,0.7-0.5,1.2v2.7C948.2,343.1,948.4,343.3,948.7,343.2z"/>
					</g>
				</g>
				<g>
					<path class="st18" d="M934.4,394.1l23.7-15.7c1.3-0.9,2.5-3.3,2.5-5.3v-9.8c0-2-1.1-3-2.5-2.1l-23.7,15.7
						c-1.3,0.9-2.5,3.3-2.5,5.3v9.8C931.9,394,933,394.9,934.4,394.1z"/>
					<path class="st0" d="M959.2,360.8c0.3,0.4,0.6,1.1,0.6,2v9.8c0,2-1.1,4.5-2.5,5.3l-23.7,15.7c-0.4,0.3-0.9,0.3-1.2,0.3
						c0.4,0.5,1.1,0.5,1.8,0.1l23.7-15.7c1.3-0.9,2.5-3.3,2.5-5.3v-9.8C960.4,361.9,959.9,361,959.2,360.8z"/>
					<g>
						<path class="st15" d="M941.5,383.4l2.1-1.5c0.3-0.2,0.5-0.7,0.5-1.2v-2.7c0-0.4-0.2-0.6-0.5-0.4l-2.1,1.5
							c-0.3,0.2-0.5,0.7-0.5,1.2v2.7C941,383.4,941.2,383.6,941.5,383.4z"/>
						<path class="st0" d="M948.7,378.5l2.1-1.5c0.3-0.2,0.5-0.7,0.5-1.2v-2.7c0-0.4-0.2-0.6-0.5-0.4l-2.1,1.5
							c-0.3,0.2-0.5,0.7-0.5,1.2v2.7C948.2,378.5,948.4,378.7,948.7,378.5z"/>
					</g>
				</g>
				<g>
					<path class="st18" d="M934.4,323.3l23.7-15.7c1.3-0.9,2.5-3.3,2.5-5.3v-9.8c0-2-1.1-3-2.5-2.1L934.4,306
						c-1.3,0.9-2.5,3.3-2.5,5.3v9.8C931.9,323.2,933,324.1,934.4,323.3z"/>
					<path class="st0" d="M959.2,290c0.3,0.4,0.6,1.1,0.6,2v9.8c0,2-1.1,4.5-2.5,5.3l-23.7,15.7c-0.4,0.3-0.9,0.3-1.2,0.3
						c0.4,0.5,1.1,0.5,1.8,0.1l23.7-15.7c1.3-0.9,2.5-3.3,2.5-5.3v-9.8C960.4,291.1,959.9,290.2,959.2,290z"/>
					<g>
						<path class="st15" d="M941.5,312.6l2.1-1.5c0.3-0.2,0.5-0.7,0.5-1.2v-2.7c0-0.4-0.2-0.6-0.5-0.4l-2.1,1.5
							c-0.3,0.2-0.5,0.7-0.5,1.2v2.7C941,312.6,941.2,312.8,941.5,312.6z"/>
						<path class="st0" d="M948.7,307.8l2.1-1.5c0.3-0.2,0.5-0.7,0.5-1.2v-2.7c0-0.4-0.2-0.6-0.5-0.4l-2.1,1.5
							c-0.3,0.2-0.5,0.7-0.5,1.2v2.7C948.2,307.7,948.4,307.9,948.7,307.8z"/>
					</g>
				</g>
			</g>
			<g>
				<path class="st14" d="M913.9,277.9l-54.6-36.5c-1.2-0.9-2.2-3-2.2-4.9v-12c0-1.9,1-2.8,2.2-1.9l54.6,36.5c1.2,0.9,2.2,3,2.2,4.9
					v12C916.1,277.7,915.1,278.7,913.9,277.9z"/>
				<path class="st20" d="M912.3,273.6l-51.4-34.4c-0.6-0.4-1.2-1.5-1.2-2.5v-9.1c0-1,0.5-1.4,1.2-1l51.4,34.4
					c0.6,0.4,1.2,1.5,1.2,2.5v9.1C913.5,273.6,912.9,274,912.3,273.6z"/>
				<path class="st16" d="M871.6,241.8l-7.7-5.1c-0.6-0.4-1.1-1.5-1.1-2.5l0,0c0-1,0.5-1.4,1.1-1l7.7,5.1c0.6,0.4,1.1,1.5,1.1,2.5
					l0,0C872.6,241.8,872.2,242.2,871.6,241.8z"/>
				<path class="st18" d="M878.2,244.5c0,1-0.5,1.3-1.3,0.9c-0.7-0.4-1.3-1.6-1.3-2.6s0.5-1.3,1.3-0.9
					C877.5,242.5,878.2,243.6,878.2,244.5z"/>
				<path class="st18" d="M882.5,247.5c0,1-0.5,1.3-1.3,0.9c-0.7-0.4-1.3-1.6-1.3-2.6c0-1,0.5-1.3,1.3-0.9
					C882,245.4,882.5,246.5,882.5,247.5z"/>
				<path class="st16" d="M887,250.5c0,1-0.5,1.3-1.3,0.9c-0.7-0.4-1.3-1.6-1.3-2.6c0-1,0.5-1.3,1.3-0.9
					C886.5,248.4,887,249.5,887,250.5z"/>
				<path class="st18" d="M891.4,253.4c0,1-0.5,1.3-1.3,0.9c-0.7-0.4-1.3-1.6-1.3-2.6c0-1,0.5-1.3,1.3-0.9
					C890.9,251.3,891.4,252.5,891.4,253.4z"/>
				<path class="st18" d="M910.2,268.6l-2.6-1.7c-0.4-0.2-0.7-1-0.7-1.6v-3.2c0-0.6,0.3-0.9,0.7-0.6l2.6,1.7c0.4,0.2,0.7,1,0.7,1.6
					v3.2C910.8,268.6,910.5,268.8,910.2,268.6z"/>
			</g>
			<g>
				<path class="st14" d="M913.9,299.1l-54.6-36.5c-1.2-0.9-2.2-3-2.2-4.9v-12c0-1.9,1-2.8,2.2-1.9l54.6,36.5c1.2,0.9,2.2,3,2.2,4.9
					v12C916.1,299.1,915.1,299.9,913.9,299.1z"/>
				<path class="st20" d="M912.3,294.9l-51.4-34.4c-0.6-0.4-1.2-1.5-1.2-2.5V249c0-1,0.5-1.4,1.2-1l51.4,34.4
					c0.6,0.4,1.2,1.5,1.2,2.5v9.1C913.5,294.8,912.9,295.2,912.3,294.9z"/>
				<path class="st16" d="M871.6,263l-7.7-5.1c-0.6-0.4-1.1-1.5-1.1-2.5l0,0c0-1,0.5-1.4,1.1-1l7.7,5.1c0.6,0.4,1.1,1.5,1.1,2.5l0,0
					C872.6,263,872.2,263.5,871.6,263z"/>
				<path class="st0" d="M878.2,265.8c0,1-0.5,1.3-1.3,0.9c-0.7-0.4-1.3-1.6-1.3-2.6c0-1,0.5-1.3,1.3-0.9
					C877.5,263.7,878.2,264.8,878.2,265.8z"/>
				<path class="st18" d="M882.5,268.7c0,1-0.5,1.3-1.3,0.9c-0.7-0.4-1.3-1.6-1.3-2.6c0-1,0.5-1.3,1.3-0.9
					C882,266.7,882.5,267.8,882.5,268.7z"/>
				<path class="st16" d="M887,271.7c0,1-0.5,1.3-1.3,0.9c-0.7-0.4-1.3-1.6-1.3-2.6s0.5-1.3,1.3-0.9
					C886.5,269.6,887,270.8,887,271.7z"/>
				<path class="st18" d="M891.4,274.7c0,1-0.5,1.3-1.3,0.9c-0.7-0.4-1.3-1.6-1.3-2.6s0.5-1.3,1.3-0.9
					C890.9,272.6,891.4,273.7,891.4,274.7z"/>
				<path class="st18" d="M910.2,289.8l-2.6-1.7c-0.4-0.2-0.7-1-0.7-1.6v-3.2c0-0.6,0.3-0.9,0.7-0.6l2.6,1.7c0.4,0.2,0.7,1,0.7,1.6
					v3.2C910.8,289.8,910.5,290.1,910.2,289.8z"/>
			</g>
			<g>
				<path class="st14" d="M913.9,320.4l-54.6-36.5c-1.2-0.9-2.2-3-2.2-4.9v-12.2c0-1.9,1-2.8,2.2-1.9l54.6,36.5
					c1.2,0.9,2.2,3,2.2,4.9v12C916.1,320.3,915.1,321.1,913.9,320.4z"/>
				<path class="st20" d="M912.3,316.1l-51.4-34.4c-0.6-0.4-1.2-1.5-1.2-2.5v-9.1c0-1,0.5-1.4,1.2-1l51.4,34.4
					c0.6,0.4,1.2,1.5,1.2,2.5v9.1C913.5,316.1,912.9,316.6,912.3,316.1z"/>
				<path class="st16" d="M871.6,284.4l-7.7-5.1c-0.6-0.4-1.1-1.5-1.1-2.5l0,0c0-1,0.5-1.4,1.1-1l7.7,5.1c0.6,0.4,1.1,1.5,1.1,2.5
					l0,0C872.6,284.2,872.2,284.7,871.6,284.4z"/>
				<path class="st0" d="M878.2,287c0,1-0.5,1.3-1.3,0.9c-0.7-0.4-1.3-1.6-1.3-2.6c0-1,0.5-1.3,1.3-0.9
					C877.5,285,878.2,286.1,878.2,287z"/>
				<path class="st18" d="M882.5,290c0,1-0.5,1.3-1.3,0.9c-0.7-0.4-1.3-1.6-1.3-2.6s0.5-1.3,1.3-0.9C882,287.9,882.5,289,882.5,290z
					"/>
				<path class="st16" d="M887,293c0,1-0.5,1.3-1.3,0.9c-0.7-0.4-1.3-1.6-1.3-2.6s0.5-1.3,1.3-0.9C886.5,290.9,887,292,887,293z"/>
				<path class="st18" d="M891.4,295.9c0,1-0.5,1.3-1.3,0.9c-0.7-0.4-1.3-1.6-1.3-2.6s0.5-1.3,1.3-0.9
					C890.9,293.8,891.4,295,891.4,295.9z"/>
				<path class="st18" d="M910.2,311.1l-2.6-1.7c-0.4-0.2-0.7-1-0.7-1.6v-3.2c0-0.6,0.3-0.9,0.7-0.6l2.6,1.7c0.4,0.2,0.7,1,0.7,1.6
					v3.2C910.8,311,910.5,311.3,910.2,311.1z"/>
			</g>
			<g>
				<path class="st14" d="M913.9,341.6l-54.6-36.5c-1.2-0.9-2.2-3-2.2-4.9v-12c0-1.9,1-2.8,2.2-1.9l54.6,36.5c1.2,0.9,2.2,3,2.2,4.9
					v12C916.1,341.5,915.1,342.4,913.9,341.6z"/>
				<path class="st20" d="M912.3,337.3l-51.4-34.4c-0.6-0.4-1.2-1.5-1.2-2.5v-9.1c0-1,0.5-1.4,1.2-1l51.4,34.4
					c0.6,0.4,1.2,1.5,1.2,2.5v9.1C913.5,337.3,912.9,337.8,912.3,337.3z"/>
				<path class="st16" d="M871.6,305.6l-7.7-5.1c-0.6-0.4-1.1-1.5-1.1-2.5l0,0c0-1,0.5-1.4,1.1-1l7.7,5.1c0.6,0.4,1.1,1.5,1.1,2.5
					l0,0C872.6,305.6,872.2,306,871.6,305.6z"/>
				<path class="st18" d="M878.2,308.2c0,1-0.5,1.3-1.3,0.9c-0.7-0.4-1.3-1.6-1.3-2.6s0.5-1.3,1.3-0.9
					C877.5,306.2,878.2,307.3,878.2,308.2z"/>
				<path class="st18" d="M882.5,311.2c0,1-0.5,1.3-1.3,0.9c-0.7-0.4-1.3-1.6-1.3-2.6s0.5-1.3,1.3-0.9
					C882,309.2,882.5,310.3,882.5,311.2z"/>
				<path class="st16" d="M887,314.2c0,1-0.5,1.3-1.3,0.9c-0.7-0.4-1.3-1.6-1.3-2.6s0.5-1.3,1.3-0.9
					C886.5,312.1,887,313.2,887,314.2z"/>
				<path class="st18" d="M891.4,317.2c0,1-0.5,1.3-1.3,0.9c-0.7-0.4-1.3-1.6-1.3-2.6s0.5-1.3,1.3-0.9S891.4,316.2,891.4,317.2z"/>
				<path class="st16" d="M910.2,332.3l-2.6-1.7c-0.4-0.2-0.7-1-0.7-1.6v-3.2c0-0.6,0.3-0.9,0.7-0.6l2.6,1.7c0.4,0.2,0.7,1,0.7,1.6
					v3.2C910.8,332.3,910.5,332.5,910.2,332.3z"/>
			</g>
			<g>
				<path class="st14" d="M913.9,362.8l-54.6-36.5c-1.2-0.9-2.2-3-2.2-4.9v-12c0-1.9,1-2.8,2.2-1.9l54.6,36.5c1.2,0.9,2.2,3,2.2,4.9
					v12C916.1,362.8,915.1,363.7,913.9,362.8z"/>
				<path class="st20" d="M912.3,358.6l-51.4-34.4c-0.6-0.4-1.2-1.5-1.2-2.5v-9c0-1,0.5-1.4,1.2-1l51.4,34.4
					c0.6,0.4,1.2,1.5,1.2,2.5v9.1C913.5,358.6,912.9,359,912.3,358.6z"/>
				<path class="st16" d="M871.6,326.8l-7.7-5.1c-0.6-0.4-1.1-1.5-1.1-2.5l0,0c0-1,0.5-1.4,1.1-1l7.7,5.1c0.6,0.4,1.1,1.5,1.1,2.5
					l0,0C872.6,326.8,872.2,327.2,871.6,326.8z"/>
				<path class="st18" d="M878.2,329.5c0,1-0.5,1.3-1.3,0.9c-0.7-0.4-1.3-1.6-1.3-2.6s0.5-1.3,1.3-0.9
					C877.5,327.4,878.2,328.6,878.2,329.5z"/>
				<path class="st0" d="M882.5,332.4c0,1-0.5,1.3-1.3,0.9c-0.7-0.4-1.3-1.6-1.3-2.6s0.5-1.3,1.3-0.9
					C882,330.4,882.5,331.6,882.5,332.4z"/>
				<path class="st16" d="M887,335.4c0,1-0.5,1.3-1.3,0.9c-0.7-0.4-1.3-1.6-1.3-2.6s0.5-1.3,1.3-0.9
					C886.5,333.4,887,334.5,887,335.4z"/>
				<path class="st0" d="M891.4,338.4c0,1-0.5,1.3-1.3,0.9s-1.3-1.6-1.3-2.6c0-1,0.5-1.3,1.3-0.9
					C890.9,336.4,891.4,337.4,891.4,338.4z"/>
				<path class="st16" d="M910.2,353.5l-2.6-1.7c-0.4-0.2-0.7-1-0.7-1.6V347c0-0.6,0.3-0.9,0.7-0.6l2.6,1.7c0.4,0.2,0.7,1,0.7,1.6
					v3.2C910.8,353.5,910.5,353.9,910.2,353.5z"/>
			</g>
			<g>
				<path class="st14" d="M913.9,384l-54.6-36.5c-1.2-0.9-2.2-3-2.2-4.9v-12c0-1.9,1-2.8,2.2-1.9l54.6,36.5c1.2,0.9,2.2,3,2.2,4.9
					v12C916.1,384,915.1,384.9,913.9,384z"/>
				<path class="st20" d="M912.3,379.9l-51.4-34.4c-0.6-0.4-1.2-1.5-1.2-2.5v-9.1c0-1,0.5-1.4,1.2-1l51.4,34.4
					c0.6,0.4,1.2,1.5,1.2,2.5v9.1C913.5,379.8,912.9,380.3,912.3,379.9z"/>
				<path class="st16" d="M871.6,348l-7.7-5.1c-0.6-0.4-1.1-1.5-1.1-2.5l0,0c0-1,0.5-1.4,1.1-1l7.7,5.1c0.6,0.4,1.1,1.5,1.1,2.5l0,0
					C872.6,348,872.2,348.4,871.6,348z"/>
				<path class="st18" d="M878.2,350.8c0,1-0.5,1.3-1.3,0.9c-0.7-0.4-1.3-1.6-1.3-2.6s0.5-1.3,1.3-0.9
					C877.5,348.6,878.2,349.8,878.2,350.8z"/>
				<path class="st18" d="M882.5,353.8c0,1-0.5,1.3-1.3,0.9c-0.7-0.4-1.3-1.6-1.3-2.6s0.5-1.3,1.3-0.9
					C882,351.6,882.5,352.8,882.5,353.8z"/>
				<path class="st16" d="M887,356.6c0,1-0.5,1.3-1.3,0.9c-0.7-0.4-1.3-1.6-1.3-2.6s0.5-1.3,1.3-0.9
					C886.5,354.6,887,355.8,887,356.6z"/>
				<path class="st18" d="M891.4,359.6c0,1-0.5,1.3-1.3,0.9c-0.7-0.4-1.3-1.6-1.3-2.6s0.5-1.3,1.3-0.9
					C890.9,357.6,891.4,358.7,891.4,359.6z"/>
				<path class="st18" d="M910.2,374.8l-2.6-1.7c-0.4-0.2-0.7-1-0.7-1.6v-3.2c0-0.6,0.3-0.9,0.7-0.6l2.6,1.7c0.4,0.2,0.7,1,0.7,1.6
					v3.2C910.8,374.8,910.5,375.1,910.2,374.8z"/>
			</g>
			<g>
				<path class="st14" d="M913.9,405.4l-54.6-36.5c-1.2-0.9-2.2-3-2.2-4.9v-12c0-1.9,1-2.8,2.2-1.9l54.6,36.5c1.2,0.9,2.2,3,2.2,4.9
					v11.9C916.1,405.3,915.1,406.1,913.9,405.4z"/>
				<path class="st20" d="M912.3,401.1l-51.4-34.4c-0.6-0.4-1.2-1.5-1.2-2.5v-9.1c0-1,0.5-1.4,1.2-1l51.4,34.4
					c0.6,0.4,1.2,1.5,1.2,2.5v9.1C913.5,401.1,912.9,401.5,912.3,401.1z"/>
				<path class="st16" d="M871.6,369.3l-7.7-5.1c-0.6-0.4-1.1-1.5-1.1-2.5l0,0c0-1,0.5-1.4,1.1-1l7.7,5.1c0.6,0.4,1.1,1.5,1.1,2.5
					l0,0C872.6,369.3,872.2,369.8,871.6,369.3z"/>
				<path class="st0" d="M879.6,373.2c0,1.7-1.1,2.5-2.3,1.6c-1.3-0.9-2.3-3-2.3-4.8c0-1.7,1.1-2.5,2.3-1.6
					C878.5,369.2,879.6,371.4,879.6,373.2z"/>
				<path class="st18" d="M888.7,379.3c0,1-0.5,1.3-1.3,0.9c-0.7-0.4-1.3-1.6-1.3-2.6s0.5-1.3,1.3-0.9
					C888.2,377.2,888.7,378.4,888.7,379.3z"/>
				<path class="st16" d="M893.2,382.3c0,1-0.5,1.3-1.3,0.9c-0.7-0.4-1.3-1.6-1.3-2.6s0.5-1.3,1.3-0.9
					C892.7,380.2,893.2,381.4,893.2,382.3z"/>
				<path class="st18" d="M897.6,385.3c0,1-0.5,1.3-1.3,0.9c-0.7-0.4-1.3-1.6-1.3-2.6c0-1,0.5-1.3,1.3-0.9S897.6,384.4,897.6,385.3z
					"/>
				<path class="st16" d="M910.2,396.1l-2.6-1.7c-0.4-0.2-0.7-1-0.7-1.6v-3.2c0-0.6,0.3-0.9,0.7-0.6l2.6,1.7c0.4,0.2,0.7,1,0.7,1.6
					v3.2C910.8,396.1,910.5,396.3,910.2,396.1z"/>
			</g>
		</g>
		<g>
			<g>
				<g>
					<path class="st17" d="M1005.7,486.2l-58.2-38.5c-2.1-1.4-1.8-3.9,0.6-5.5l33.5-22.4c2.5-1.6,6.2-1.8,8.3-0.4l58.2,38.5
						c2.1,1.4,1.8,3.9-0.6,5.5l-33.5,22.4C1011.5,487.5,1007.8,487.6,1005.7,486.2z"/>
					<path class="st15" d="M1053.2,444.9L1053.2,444.9V287.4L999.2,271l-9.9-6.6c-2.2-1.5-6.3-1.4-9,0.4L971,271h-28.8l8.5,152
						c-0.1,1.1,0.4,2,1.5,2.8l53.9,47.1c2.2,1.5,6.3,1.4,9-0.4l35.9-24C1052.6,447.4,1053.3,446.1,1053.2,444.9z"/>
					<path class="st16" d="M985.1,263.4c-1.7,0-3.4,0.5-4.8,1.5L971,271h-28.8v157.9c-0.1,1.1,0.4,2,1.5,2.8l62.5,41.3
						c1.1,0.7,2.6,1.1,4.2,1.1l0.6-158.9L985.1,263.4z"/>
					<path class="st14" d="M1006.8,473.2c1.9,1,4.8,1,7.1-0.1V313.1h-7.1V473.2z"/>
					<path class="st16" d="M1006.2,315.1l-62.5-41.3c-2.2-1.5-2-4.2,0.6-6l35.9-24c2.7-1.8,6.6-1.9,9-0.4l62.5,41.3
						c2.2,1.5,2,4.2-0.6,6l-35.9,24C1012.5,316.4,1008.6,316.6,1006.2,315.1z"/>
					<path class="st19" d="M1051.1,287.7l-35.9,24c-2.7,1.8-6.6,1.9-9,0.4l-62.5-41.3c-0.5-0.3-0.9-0.7-1.2-1.2
						c-0.7,1.5-0.4,3.1,1.2,4.1l62.5,41.3c2.2,1.5,6.3,1.4,9-0.4l35.9-24c2-1.4,2.7-3.3,1.8-4.8
						C1052.5,286.5,1051.9,287.1,1051.1,287.7z"/>
					<g>
						<path class="st18" d="M1008,298.3l-41.6-27.9c-1.1-0.7-1-1.9,0.3-2.8l16.8-11.2c1.3-0.9,3.1-1,4.2-0.2l41.6,27.9
							c1.1,0.7,1,1.9-0.3,2.8l-16.8,11.2C1010.9,299,1009.1,299.1,1008,298.3z"/>
						<g>
							<path class="st16" d="M985.5,271.7l-2.5-1.6c-0.1-0.1-0.1-0.3,0-0.4l2.3-1.6c0.2-0.1,0.4-0.1,0.5,0l2.5,1.6
								c0.1,0.1,0.1,0.3,0,0.4l-2.3,1.6C986,271.8,985.6,271.8,985.5,271.7z"/>
							<path class="st16" d="M993.6,277l-2.5-1.6c-0.1-0.1-0.1-0.3,0-0.4l2.3-1.6c0.2-0.1,0.4-0.1,0.5,0l2.5,1.6
								c0.1,0.1,0.1,0.3,0,0.4l-2.3,1.6C993.9,277.1,993.7,277.1,993.6,277z"/>
							<path class="st16" d="M1001.6,282.4l-2.5-1.6c-0.1-0.1-0.1-0.3,0-0.4l2.3-1.6c0.2-0.1,0.4-0.1,0.5,0l2.5,1.6
								c0.1,0.1,0.1,0.3,0,0.4l-2.3,1.6C1002.1,282.5,1001.8,282.5,1001.6,282.4z"/>
							<path class="st16" d="M1009.7,287.8l-2.5-1.6c-0.1-0.1-0.1-0.3,0-0.4l2.3-1.6c0.2-0.1,0.4-0.1,0.5,0l2.5,1.6
								c0.1,0.1,0.1,0.3,0,0.4l-2.3,1.6C1010,287.9,1009.8,287.9,1009.7,287.8z"/>
						</g>
						<path class="st14" d="M966.3,270.4L966.3,270.4c0.1,0,0.2-0.1,0.3-0.2l16.8-11.2c1.3-0.9,3.1-1,4.2-0.2l41.6,27.9
							c1-0.9,1.1-1.9,0-2.6l-41.6-27.9c-1.1-0.7-3-0.6-4.2,0.2l-16.8,11.2C965.5,268.5,965.3,269.7,966.3,270.4z"/>
					</g>
				</g>
				<g>
					<path class="st18" d="M1022.2,346.3l23.7-15.7c1.3-0.9,2.5-3.3,2.5-5.3v-9.8c0-2-1.1-3-2.5-2.1l-23.7,15.7
						c-1.3,0.9-2.5,3.3-2.5,5.3v9.8C1019.7,346.2,1020.8,347.1,1022.2,346.3z"/>
					<path class="st0" d="M1046.9,313c0.3,0.4,0.6,1.1,0.6,2v9.8c0,2-1.1,4.5-2.5,5.3l-23.7,15.7c-0.4,0.3-0.9,0.3-1.2,0.3
						c0.4,0.5,1.1,0.5,1.8,0.1l23.7-15.7c1.3-0.9,2.5-3.3,2.5-5.3v-9.8C1048.2,314.1,1047.7,313.2,1046.9,313z"/>
					<g>
						<path class="st15" d="M1029.2,335.6l2.1-1.5c0.3-0.2,0.5-0.7,0.5-1.2v-2.7c0-0.4-0.2-0.6-0.5-0.4l-2.1,1.5
							c-0.3,0.2-0.5,0.7-0.5,1.2v2.7C1028.7,335.6,1029,335.8,1029.2,335.6z"/>
						<path class="st0" d="M1036.5,330.7l2.1-1.5c0.3-0.2,0.5-0.7,0.5-1.2v-2.6c0-0.4-0.2-0.6-0.5-0.4l-2.1,1.5
							c-0.3,0.2-0.5,0.7-0.5,1.2v2.7C1036,330.7,1036.3,330.9,1036.5,330.7z"/>
					</g>
				</g>
				<g>
					<path class="st18" d="M1022.2,417.1l23.7-15.7c1.3-0.9,2.5-3.3,2.5-5.3v-9.8c0-2-1.1-3-2.5-2.1l-23.7,15.7
						c-1.3,0.9-2.5,3.3-2.5,5.3v9.8C1019.7,417,1020.8,417.9,1022.2,417.1z"/>
					<path class="st0" d="M1046.9,383.8c0.3,0.4,0.6,1.1,0.6,2v9.8c0,2-1.1,4.5-2.5,5.3l-23.7,15.7c-0.4,0.3-0.9,0.3-1.2,0.3
						c0.4,0.5,1.1,0.5,1.8,0.1l23.7-15.7c1.3-0.9,2.5-3.3,2.5-5.3v-9.8C1048.2,384.9,1047.7,383.9,1046.9,383.8z"/>
					<g>
						<path class="st15" d="M1029.2,406.4l2.1-1.5c0.3-0.2,0.5-0.7,0.5-1.2v-2.7c0-0.4-0.2-0.6-0.5-0.4l-2.1,1.5
							c-0.3,0.2-0.5,0.7-0.5,1.2v2.7C1028.7,406.4,1029,406.6,1029.2,406.4z"/>
						<path class="st0" d="M1036.5,401.5l2.1-1.5c0.3-0.2,0.5-0.7,0.5-1.2v-2.7c0-0.4-0.2-0.6-0.5-0.4l-2.1,1.5
							c-0.3,0.2-0.5,0.7-0.5,1.2v2.7C1036,401.5,1036.3,401.7,1036.5,401.5z"/>
					</g>
				</g>
				<g>
					<path class="st18" d="M1022.2,452.4l23.7-15.7c1.3-0.9,2.5-3.3,2.5-5.3v-9.8c0-2-1.1-3-2.5-2.1l-23.7,15.7
						c-1.3,0.9-2.5,3.3-2.5,5.3v9.8C1019.7,452.4,1020.8,453.3,1022.2,452.4z"/>
					<path class="st0" d="M1046.9,419.2c0.3,0.4,0.6,1.1,0.6,2v9.8c0,2-1.1,4.5-2.5,5.3l-23.7,15.7c-0.4,0.3-0.9,0.3-1.2,0.3
						c0.4,0.5,1.1,0.5,1.8,0.1l23.7-15.7c1.3-0.9,2.5-3.3,2.5-5.3v-9.8C1048.2,420.2,1047.7,419.3,1046.9,419.2z"/>
					<g>
						<path class="st15" d="M1029.2,441.8l2.1-1.5c0.3-0.2,0.5-0.7,0.5-1.2v-2.7c0-0.4-0.2-0.6-0.5-0.4l-2.1,1.5
							c-0.3,0.2-0.5,0.7-0.5,1.2v2.7C1028.7,441.8,1029,442,1029.2,441.8z"/>
						<path class="st0" d="M1036.5,436.9l2.1-1.5c0.3-0.2,0.5-0.7,0.5-1.2v-2.7c0-0.4-0.2-0.6-0.5-0.4l-2.1,1.5
							c-0.3,0.2-0.5,0.7-0.5,1.2v2.7C1036,436.9,1036.3,437.1,1036.5,436.9z"/>
					</g>
				</g>
				<g>
					<path class="st18" d="M1022.2,381.7l23.7-15.7c1.3-0.9,2.5-3.3,2.5-5.3v-9.8c0-2-1.1-3-2.5-2.1l-23.7,15.7
						c-1.3,0.9-2.5,3.3-2.5,5.3v9.8C1019.7,381.6,1020.8,382.5,1022.2,381.7z"/>
					<path class="st0" d="M1046.9,348.4c0.3,0.4,0.6,1.1,0.6,2v9.8c0,2-1.1,4.5-2.5,5.3l-23.7,15.7c-0.4,0.3-0.9,0.3-1.2,0.3
						c0.4,0.5,1.1,0.5,1.8,0.1l23.7-15.7c1.3-0.9,2.5-3.3,2.5-5.3v-9.8C1048.2,349.5,1047.7,348.5,1046.9,348.4z"/>
					<g>
						<path class="st15" d="M1029.2,371l2.1-1.5c0.3-0.2,0.5-0.7,0.5-1.2v-2.7c0-0.4-0.2-0.6-0.5-0.4l-2.1,1.5
							c-0.3,0.2-0.5,0.7-0.5,1.2v2.7C1028.7,371,1029,371.2,1029.2,371z"/>
						<path class="st0" d="M1036.5,366.1l2.1-1.5c0.3-0.2,0.5-0.7,0.5-1.2v-2.7c0-0.4-0.2-0.6-0.5-0.4l-2.1,1.5
							c-0.3,0.2-0.5,0.7-0.5,1.2v2.7C1036,366.1,1036.3,366.3,1036.5,366.1z"/>
					</g>
				</g>
			</g>
			<g>
				<path class="st14" d="M1001.6,336.3l-54.5-36.5c-1.2-0.9-2.2-3-2.2-4.9v-12c0-1.9,1-2.8,2.2-1.9l54.6,36.5
					c1.2,0.9,2.2,3,2.2,4.9v12C1003.9,336.2,1002.9,337,1001.6,336.3z"/>
				<path class="st20" d="M1000.1,332l-51.4-34.4c-0.6-0.4-1.2-1.5-1.2-2.5v-9.1c0-1,0.5-1.4,1.2-1l51.4,34.4
					c0.6,0.4,1.2,1.5,1.2,2.5v9.1C1001.2,332,1000.8,332.4,1000.1,332z"/>
				<path class="st16" d="M959.4,300.2l-7.7-5.1c-0.6-0.4-1.1-1.5-1.1-2.5l0,0c0-1,0.5-1.4,1.1-1l7.7,5.1c0.6,0.4,1.1,1.5,1.1,2.5
					l0,0C960.5,300.2,959.9,300.7,959.4,300.2z"/>
				<path class="st18" d="M965.9,302.9c0,1-0.5,1.3-1.3,0.9c-0.7-0.4-1.3-1.6-1.3-2.6c0-1,0.5-1.3,1.3-0.9
					C965.4,300.8,965.9,301.9,965.9,302.9z"/>
				<path class="st18" d="M970.4,305.9c0,1-0.5,1.3-1.3,0.9c-0.7-0.4-1.3-1.6-1.3-2.6c0-1,0.5-1.3,1.3-0.9
					C969.9,303.9,970.4,304.9,970.4,305.9z"/>
				<path class="st16" d="M974.8,308.9c0,1-0.5,1.3-1.3,0.9c-0.7-0.4-1.3-1.6-1.3-2.6s0.5-1.3,1.3-0.9
					C974.2,306.7,974.8,307.9,974.8,308.9z"/>
				<path class="st18" d="M979.2,311.9c0,1-0.5,1.3-1.3,0.9c-0.7-0.4-1.3-1.6-1.3-2.6c0-1,0.5-1.3,1.3-0.9
					C978.7,309.7,979.2,310.9,979.2,311.9z"/>
				<path class="st18" d="M997.9,327l-2.6-1.7c-0.4-0.2-0.7-1-0.7-1.6v-3.2c0-0.6,0.3-0.9,0.7-0.6l2.6,1.7c0.4,0.2,0.7,1,0.7,1.6
					v3.2C998.6,327,998.3,327.2,997.9,327z"/>
			</g>
			<g>
				<path class="st14" d="M1001.6,357.5L947.1,321c-1.2-0.9-2.2-3-2.2-4.9v-12c0-1.9,1-2.8,2.2-1.9l54.6,36.5c1.2,0.9,2.2,3,2.2,4.9
					v12C1003.9,357.5,1002.9,358.3,1001.6,357.5z"/>
				<path class="st20" d="M1000.1,353.2l-51.4-34.4c-0.6-0.4-1.2-1.5-1.2-2.5v-9c0-1,0.5-1.4,1.2-1l51.4,34.4
					c0.6,0.4,1.2,1.5,1.2,2.5v9.1C1001.2,353.2,1000.8,353.7,1000.1,353.2z"/>
				<path class="st16" d="M959.4,321.5l-7.7-5.1c-0.6-0.4-1.1-1.5-1.1-2.5l0,0c0-1,0.5-1.4,1.1-1l7.7,5.1c0.6,0.4,1.1,1.5,1.1,2.5
					l0,0C960.5,321.5,959.9,321.9,959.4,321.5z"/>
				<path class="st0" d="M965.9,324.1c0,1-0.5,1.3-1.3,0.9c-0.7-0.4-1.3-1.6-1.3-2.6s0.5-1.3,1.3-0.9
					C965.4,322,965.9,323.3,965.9,324.1z"/>
				<path class="st18" d="M970.4,327.1c0,1-0.5,1.3-1.3,0.9c-0.7-0.4-1.3-1.6-1.3-2.6c0-1,0.5-1.3,1.3-0.9
					C969.9,325.1,970.4,326.1,970.4,327.1z"/>
				<path class="st16" d="M974.8,330.1c0,1-0.5,1.3-1.3,0.9c-0.7-0.4-1.3-1.6-1.3-2.6c0-1,0.5-1.3,1.3-0.9
					C974.2,328.1,974.8,329.1,974.8,330.1z"/>
				<path class="st18" d="M979.2,333.1c0,1-0.5,1.3-1.3,0.9c-0.7-0.4-1.3-1.6-1.3-2.6s0.5-1.3,1.3-0.9
					C978.7,331.1,979.2,332.1,979.2,333.1z"/>
				<path class="st18" d="M997.9,348.2l-2.6-1.7c-0.4-0.2-0.7-1-0.7-1.6v-3.2c0-0.6,0.3-0.9,0.7-0.6l2.6,1.7c0.4,0.2,0.7,1,0.7,1.6
					v3.2C998.6,348.2,998.3,348.4,997.9,348.2z"/>
			</g>
			<g>
				<path class="st14" d="M1001.6,378.7l-54.5-36.5c-1.2-0.9-2.2-3-2.2-4.9v-12c0-1.9,1-2.8,2.2-1.9l54.6,36.5
					c1.2,0.9,2.2,3,2.2,4.9v12C1003.9,378.7,1002.9,379.6,1001.6,378.7z"/>
				<path class="st20" d="M1000.1,374.5l-51.4-34.4c-0.6-0.4-1.2-1.5-1.2-2.5v-9.1c0-1,0.5-1.4,1.2-1l51.4,34.4
					c0.6,0.4,1.2,1.5,1.2,2.5v9.1C1001.2,374.4,1000.8,375,1000.1,374.5z"/>
				<path class="st16" d="M959.4,342.7l-7.7-5.1c-0.6-0.4-1.1-1.5-1.1-2.5l0,0c0-1,0.5-1.4,1.1-1l7.7,5.1c0.6,0.4,1.1,1.5,1.1,2.5
					l0,0C960.5,342.7,959.9,343.1,959.4,342.7z"/>
				<path class="st0" d="M965.9,345.4c0,1-0.5,1.3-1.3,0.9c-0.7-0.4-1.3-1.6-1.3-2.6c0-1,0.5-1.3,1.3-0.9
					C965.4,343.3,965.9,344.5,965.9,345.4z"/>
				<path class="st18" d="M970.4,348.3c0,1-0.5,1.3-1.3,0.9c-0.7-0.4-1.3-1.6-1.3-2.6s0.5-1.3,1.3-0.9
					C969.9,346.3,970.4,347.5,970.4,348.3z"/>
				<path class="st16" d="M974.8,351.3c0,1-0.5,1.3-1.3,0.9c-0.7-0.4-1.3-1.6-1.3-2.6c0-1,0.5-1.3,1.3-0.9
					C974.2,349.3,974.8,350.5,974.8,351.3z"/>
				<path class="st18" d="M979.2,354.3c0,1-0.5,1.3-1.3,0.9c-0.7-0.4-1.3-1.6-1.3-2.6c0-1,0.5-1.3,1.3-0.9
					C978.7,352.2,979.2,353.3,979.2,354.3z"/>
				<path class="st18" d="M997.9,369.4l-2.6-1.7c-0.4-0.2-0.7-1-0.7-1.6v-3.2c0-0.6,0.3-0.9,0.7-0.6l2.6,1.7c0.4,0.2,0.7,1,0.7,1.6
					v3.2C998.6,369.4,998.3,369.8,997.9,369.4z"/>
			</g>
			<g>
				<path class="st14" d="M1001.6,400l-54.5-36.6c-1.2-0.9-2.2-3-2.2-4.9v-12c0-1.9,1-2.8,2.2-1.9l54.6,36.5c1.2,0.9,2.2,3,2.2,4.9
					v12C1003.9,399.9,1002.9,400.8,1001.6,400z"/>
				<path class="st20" d="M1000.1,395.8l-51.4-34.4c-0.6-0.4-1.2-1.5-1.2-2.5v-9.1c0-1,0.5-1.4,1.2-1l51.4,34.4
					c0.6,0.4,1.2,1.5,1.2,2.5v9.1C1001.2,395.8,1000.8,396.2,1000.1,395.8z"/>
				<path class="st16" d="M959.4,364l-7.7-5.1c-0.6-0.4-1.1-1.5-1.1-2.5l0,0c0-1,0.5-1.4,1.1-1l7.7,5.1c0.6,0.4,1.1,1.5,1.1,2.5l0,0
					C960.5,363.9,959.9,364.3,959.4,364z"/>
				<path class="st18" d="M965.9,366.7c0,1-0.5,1.3-1.3,0.9c-0.7-0.4-1.3-1.6-1.3-2.6s0.5-1.3,1.3-0.9
					C965.4,364.6,965.9,365.7,965.9,366.7z"/>
				<path class="st18" d="M970.4,369.6c0,1-0.5,1.3-1.3,0.9c-0.7-0.4-1.3-1.6-1.3-2.6s0.5-1.3,1.3-0.9
					C969.9,367.5,970.4,368.7,970.4,369.6z"/>
				<path class="st16" d="M974.8,372.6c0,1-0.5,1.3-1.3,0.9c-0.7-0.4-1.3-1.6-1.3-2.6c0-1,0.5-1.3,1.3-0.9
					C974.2,370.5,974.8,371.7,974.8,372.6z"/>
				<path class="st18" d="M979.2,375.5c0,1-0.5,1.3-1.3,0.9c-0.7-0.4-1.3-1.6-1.3-2.6s0.5-1.3,1.3-0.9
					C978.7,373.5,979.2,374.7,979.2,375.5z"/>
				<path class="st16" d="M997.9,390.8l-2.6-1.7c-0.4-0.2-0.7-1-0.7-1.6v-3.2c0-0.6,0.3-0.9,0.7-0.6l2.6,1.7c0.4,0.2,0.7,1,0.7,1.6
					v3.2C998.6,390.6,998.3,391,997.9,390.8z"/>
			</g>
			<g>
				<path class="st14" d="M1001.6,421.2l-54.5-36.5c-1.2-0.9-2.2-3-2.2-4.9v-12c0-1.9,1-2.8,2.2-1.9l54.6,36.5
					c1.2,0.9,2.2,3,2.2,4.9v12C1003.9,421.1,1002.9,422,1001.6,421.2z"/>
				<path class="st20" d="M1000.1,417l-51.4-34.4c-0.6-0.4-1.2-1.5-1.2-2.5V371c0-1,0.5-1.4,1.2-1l51.4,34.4
					c0.6,0.4,1.2,1.5,1.2,2.5v9.1C1001.2,417,1000.8,417.4,1000.1,417z"/>
				<path class="st16" d="M959.4,385.2l-7.7-5.1c-0.6-0.4-1.1-1.5-1.1-2.5l0,0c0-1,0.5-1.4,1.1-1l7.7,5.1c0.6,0.4,1.1,1.5,1.1,2.5
					l0,0C960.5,385.2,959.9,385.6,959.4,385.2z"/>
				<path class="st18" d="M965.9,387.9c0,1-0.5,1.3-1.3,0.9c-0.7-0.4-1.3-1.6-1.3-2.6s0.5-1.3,1.3-0.9
					C965.4,385.7,965.9,386.9,965.9,387.9z"/>
				<path class="st0" d="M970.4,390.9c0,1-0.5,1.3-1.3,0.9c-0.7-0.4-1.3-1.6-1.3-2.6s0.5-1.3,1.3-0.9
					C969.9,388.8,970.4,389.9,970.4,390.9z"/>
				<path class="st16" d="M974.8,393.8c0,1-0.5,1.3-1.3,0.9c-0.7-0.4-1.3-1.6-1.3-2.6c0-1,0.5-1.3,1.3-0.9
					C974.2,391.8,974.8,392.9,974.8,393.8z"/>
				<path class="st0" d="M979.2,396.8c0,1-0.5,1.3-1.3,0.9c-0.7-0.4-1.3-1.6-1.3-2.6s0.5-1.3,1.3-0.9
					C978.7,394.7,979.2,395.9,979.2,396.8z"/>
				<path class="st16" d="M997.9,412l-2.6-1.7c-0.4-0.2-0.7-1-0.7-1.6v-3.2c0-0.6,0.3-0.9,0.7-0.6l2.6,1.7c0.4,0.2,0.7,1,0.7,1.6
					v3.2C998.6,412,998.3,412.2,997.9,412z"/>
			</g>
			<g>
				<path class="st14" d="M1001.6,442.5L947.1,406c-1.2-0.9-2.2-3-2.2-4.9v-12c0-1.9,1-2.8,2.2-1.9l54.6,36.5c1.2,0.9,2.2,3,2.2,4.9
					v12C1003.9,442.5,1002.9,443.3,1001.6,442.5z"/>
				<path class="st20" d="M1000.1,438.2l-51.4-34.4c-0.6-0.4-1.2-1.5-1.2-2.5v-9.1c0-1,0.5-1.4,1.2-1l51.4,34.4
					c0.6,0.4,1.2,1.5,1.2,2.5v9.1C1001.2,438.2,1000.8,438.6,1000.1,438.2z"/>
				<path class="st16" d="M959.4,406.4l-7.7-5.1c-0.6-0.4-1.1-1.5-1.1-2.5l0,0c0-1,0.5-1.4,1.1-1l7.7,5.1c0.6,0.4,1.1,1.5,1.1,2.5
					l0,0C960.5,406.4,959.9,406.9,959.4,406.4z"/>
				<path class="st18" d="M965.9,409.1c0,1-0.5,1.3-1.3,0.9c-0.7-0.4-1.3-1.6-1.3-2.6s0.5-1.3,1.3-0.9
					C965.4,407,965.9,408.2,965.9,409.1z"/>
				<path class="st18" d="M970.4,412.1c0,1-0.5,1.3-1.3,0.9c-0.7-0.4-1.3-1.6-1.3-2.6c0-1,0.5-1.3,1.3-0.9
					C969.9,410.1,970.4,411.2,970.4,412.1z"/>
				<path class="st16" d="M974.8,415.1c0,1-0.5,1.3-1.3,0.9c-0.7-0.4-1.3-1.6-1.3-2.6c0-1,0.5-1.3,1.3-0.9
					C974.2,413,974.8,414.1,974.8,415.1z"/>
				<path class="st18" d="M979.2,418c0,1-0.5,1.3-1.3,0.9c-0.7-0.4-1.3-1.6-1.3-2.6s0.5-1.3,1.3-0.9
					C978.7,416,979.2,417.1,979.2,418z"/>
				<path class="st18" d="M997.9,433.2l-2.6-1.7c-0.4-0.2-0.7-1-0.7-1.6v-3.2c0-0.6,0.3-0.9,0.7-0.6l2.6,1.7c0.4,0.2,0.7,1,0.7,1.6
					v3.2C998.6,433.2,998.3,433.5,997.9,433.2z"/>
			</g>
			<g>
				<path class="st14" d="M1001.6,463.7l-54.5-36.5c-1.2-0.9-2.2-3-2.2-4.9v-12c0-1.9,1-2.8,2.2-1.9l54.6,36.5
					c1.2,0.9,2.2,3,2.2,4.9v12C1003.9,463.7,1002.9,464.5,1001.6,463.7z"/>
				<path class="st20" d="M1000.1,459.5l-51.4-34.4c-0.6-0.4-1.2-1.5-1.2-2.5v-9.1c0-1,0.5-1.4,1.2-1l51.4,34.4
					c0.6,0.4,1.2,1.5,1.2,2.5v9.1C1001.2,459.5,1000.8,459.9,1000.1,459.5z"/>
				<path class="st16" d="M959.4,427.7l-7.7-5.1c-0.6-0.4-1.1-1.5-1.1-2.5l0,0c0-1,0.5-1.4,1.1-1l7.7,5.1c0.6,0.4,1.1,1.5,1.1,2.5
					l0,0C960.5,427.6,959.9,428.1,959.4,427.7z"/>
				<path class="st0" d="M967.3,431.6c0,1.7-1.1,2.5-2.3,1.6c-1.3-0.9-2.3-3-2.3-4.8c0-1.7,1.1-2.5,2.3-1.6
					C966.2,427.6,967.3,429.8,967.3,431.6z"/>
				<path class="st18" d="M976.6,437.8c0,1-0.5,1.3-1.3,0.9c-0.7-0.4-1.3-1.6-1.3-2.6c0-1,0.5-1.3,1.3-0.9
					C975.9,435.7,976.6,436.8,976.6,437.8z"/>
				<path class="st16" d="M980.9,440.8c0,1-0.5,1.3-1.3,0.9c-0.7-0.4-1.3-1.6-1.3-2.6s0.5-1.3,1.3-0.9
					C980.4,438.6,980.9,439.8,980.9,440.8z"/>
				<path class="st18" d="M985.4,443.7c0,1-0.5,1.3-1.3,0.9c-0.7-0.4-1.3-1.6-1.3-2.6s0.5-1.3,1.3-0.9
					C984.9,441.6,985.4,442.8,985.4,443.7z"/>
				<path class="st16" d="M997.9,454.4l-2.6-1.7c-0.4-0.2-0.7-1-0.7-1.6v-3.2c0-0.6,0.3-0.9,0.7-0.6l2.6,1.7c0.4,0.2,0.7,1,0.7,1.6
					v3.2C998.6,454.4,998.3,454.7,997.9,454.4z"/>
			</g>
		</g>
		<g>
			<g>
				<path class="st16" d="M1064.3,277l-2.3-1.6v-3.9c0-4.2-2.6-9.3-5.7-11.4l-17.8-11.8c-3.1-2.1-5.7-0.4-5.7,3.8v42.2l-2.3-39.9
					v-3.9c0-6,3.6-8.3,8.1-5.3l17.8,11.8c4.5,3,8.1,10.2,8.1,16.1v3.9H1064.3z"/>
			</g>
			<path class="st16" d="M1056.3,282.3l8-5.3l-1.6-6.5l-2.2-6.6c0,0-3.8-5-4.2-5.1c-0.3-0.1-10.9-7-10.9-7l-8.7-7.4l-4.2,0.2
				l-7.8,5.1l5.5,2.7c0,0,3.2,1.8,3.8,2c0.7,0.2,3.8,3.6,3.9,3.7c0.1,0,3.8,1.8,3.8,1.8l0.9-0.1l6.8,5.5l2.2,1.2l1.2,2.2l1.8,5.9
				L1056.3,282.3z"/>
			<path class="st15" d="M1032.8,294.3l-8,5.3l-0.5-44.4c0-0.1,1.7-2.9,1.7-2.9l4.4-1l3.4,3l-1.1-0.5l-0.4,0.3l0.5,1L1032.8,294.3
				L1032.8,294.3z"/>
			<g>
				<path class="st14" d="M1056.3,282.3l-2.3-1.6v-3.9c0-4.2-2.6-9.3-5.7-11.4l-17.8-11.8c-3.1-2.1-5.7-0.4-5.7,3.8v42.2l-2.3-1.6
					v-42.2c0-6,3.6-8.3,8.1-5.3l17.8,11.8c4.5,3,8.1,10.2,8.1,16.1v3.9H1056.3z"/>
			</g>
		</g>
		<g>
			<g>
				<g>
					<path class="st17" d="M1091.1,533.4l-40.8-27c-1.5-1-1.3-2.8,0.4-3.9l23.5-15.7c1.7-1.2,4.4-1.3,5.9-0.3l40.8,27
						c1.5,1,1.3,2.8-0.4,3.9l-23.5,15.7C1095.2,534.3,1092.6,534.5,1091.1,533.4z"/>
					<path class="st15" d="M1141.1,464.8L1141.1,464.8V307.4L1087,291l-9.9-6.6c-2.2-1.5-6.3-1.4-9,0.4l-9.3,6.2h-28.8l8.5,152
						c-0.1,1.1,0.4,2,1.5,2.8l53.9,47.1c2.2,1.5,6.3,1.4,9-0.4l35.9-24C1140.4,467.4,1141.2,466,1141.1,464.8z"/>
					<path class="st16" d="M1072.9,283.3c-1.7,0-3.4,0.5-4.8,1.5l-9.3,6.2h-28.8v157.9c-0.1,1.1,0.4,2,1.5,2.8l62.5,41.3
						c1.1,0.7,2.6,1.1,4.2,1.1l0.6-158.9L1072.9,283.3z"/>
					<path class="st14" d="M1094.6,493.2c1.9,1,4.8,1,7.1-0.1V333.2h-7.1V493.2z"/>
					<path class="st16" d="M1094.1,335.1l-62.5-41.3c-2.2-1.5-2-4.2,0.6-6l35.9-24c2.7-1.8,6.6-1.9,9-0.4l62.5,41.3
						c2.2,1.5,2,4.2-0.6,6l-35.9,24C1100.3,336.4,1096.3,336.6,1094.1,335.1z"/>
					<path class="st19" d="M1138.9,307.7l-35.9,24c-2.7,1.8-6.6,1.9-9,0.4l-62.5-41.3c-0.5-0.3-0.9-0.7-1.2-1.2
						c-0.7,1.5-0.4,3.1,1.2,4.1l62.5,41.3c2.2,1.5,6.3,1.4,9-0.4l35.9-24c2-1.4,2.7-3.3,1.8-4.8
						C1140.3,306.4,1139.7,307.1,1138.9,307.7z"/>
					<g>
						<path class="st18" d="M1095.8,318.4l-41.6-27.9c-1.1-0.7-1-1.9,0.3-2.8l16.8-11.2c1.3-0.9,3.1-1,4.2-0.2l41.6,27.9
							c1.1,0.7,1,1.9-0.3,2.8l-16.8,11.2C1098.7,319,1096.8,319,1095.8,318.4z"/>
						<g>
							<path class="st16" d="M1073.4,291.7l-2.5-1.6c-0.1-0.1-0.1-0.3,0-0.4l2.3-1.6c0.2-0.1,0.4-0.1,0.5,0l2.5,1.6
								c0.1,0.1,0.1,0.3,0,0.4l-2.3,1.6C1073.7,291.7,1073.5,291.8,1073.4,291.7z"/>
							<path class="st16" d="M1081.4,297l-2.5-1.6c-0.1-0.1-0.1-0.3,0-0.4l2.3-1.6c0.2-0.1,0.4-0.1,0.5,0l2.5,1.6
								c0.1,0.1,0.1,0.3,0,0.4l-2.3,1.6C1081.8,297.1,1081.6,297.1,1081.4,297z"/>
							<path class="st16" d="M1089.5,302.4l-2.5-1.6c-0.1-0.1-0.1-0.3,0-0.4l2.3-1.6c0.2-0.1,0.4-0.1,0.5,0l2.5,1.6
								c0.1,0.1,0.1,0.3,0,0.4l-2.3,1.6C1089.9,302.5,1089.6,302.5,1089.5,302.4z"/>
							<path class="st16" d="M1097.5,307.7l-2.5-1.6c-0.1-0.1-0.1-0.3,0-0.4l2.3-1.6c0.2-0.1,0.4-0.1,0.5,0l2.5,1.6
								c0.1,0.1,0.1,0.3,0,0.4l-2.3,1.6C1097.9,307.8,1097.7,307.8,1097.5,307.7z"/>
						</g>
						<path class="st14" d="M1054.2,290.4L1054.2,290.4c0.1,0,0.2-0.1,0.3-0.2l16.8-11.2c1.3-0.9,3.1-1,4.2-0.2l41.6,27.9
							c1-0.9,1.1-1.9,0-2.6l-41.6-27.9c-1.1-0.7-3-0.6-4.2,0.2l-16.8,11.2C1053.2,288.4,1053.1,289.7,1054.2,290.4z"/>
					</g>
				</g>
				<g>
					<path class="st18" d="M1109.9,366.2l23.7-15.7c1.3-0.9,2.5-3.3,2.5-5.3v-9.8c0-2-1.1-3-2.5-2.1l-23.7,15.7
						c-1.3,0.9-2.5,3.3-2.5,5.3v9.8C1107.6,366.2,1108.7,367.2,1109.9,366.2z"/>
					<path class="st0" d="M1134.8,333.1c0.3,0.4,0.6,1.1,0.6,2v9.8c0,2-1.1,4.5-2.5,5.3l-23.7,15.7c-0.4,0.3-0.9,0.3-1.2,0.3
						c0.4,0.5,1.1,0.5,1.8,0.1l23.7-15.7c1.3-0.9,2.5-3.3,2.5-5.3v-9.8C1136.1,334,1135.5,333.2,1134.8,333.1z"/>
					<g>
						<path class="st15" d="M1117.1,355.6l2.1-1.5c0.3-0.2,0.5-0.7,0.5-1.2v-2.7c0-0.4-0.2-0.6-0.5-0.4l-2.1,1.5
							c-0.3,0.2-0.5,0.7-0.5,1.2v2.7C1116.6,355.6,1116.8,355.8,1117.1,355.6z"/>
						<path class="st0" d="M1124.3,350.8l2.1-1.5c0.3-0.2,0.5-0.7,0.5-1.2v-2.7c0-0.4-0.2-0.6-0.5-0.4l-2.1,1.5
							c-0.3,0.2-0.5,0.7-0.5,1.2v2.7C1123.8,350.8,1124,351,1124.3,350.8z"/>
					</g>
				</g>
				<g>
					<path class="st18" d="M1109.9,437l23.7-15.7c1.3-0.9,2.5-3.3,2.5-5.3v-9.8c0-2-1.1-3-2.5-2.1l-23.7,15.7
						c-1.3,0.9-2.5,3.3-2.5,5.3v9.8C1107.6,436.9,1108.7,437.9,1109.9,437z"/>
					<path class="st0" d="M1134.8,403.8c0.3,0.4,0.6,1.1,0.6,2v9.8c0,2-1.1,4.5-2.5,5.3l-23.7,15.7c-0.4,0.3-0.9,0.3-1.2,0.3
						c0.4,0.5,1.1,0.5,1.8,0.1l23.7-15.7c1.3-0.9,2.5-3.3,2.5-5.3v-9.8C1136.1,404.8,1135.5,404,1134.8,403.8z"/>
					<g>
						<path class="st15" d="M1117.1,426.4l2.1-1.5c0.3-0.2,0.5-0.7,0.5-1.2V421c0-0.4-0.2-0.6-0.5-0.4l-2.1,1.5
							c-0.3,0.2-0.5,0.7-0.5,1.2v2.7C1116.6,426.4,1116.8,426.6,1117.1,426.4z"/>
						<path class="st0" d="M1124.3,421.6l2.1-1.5c0.3-0.2,0.5-0.7,0.5-1.2v-2.7c0-0.4-0.2-0.6-0.5-0.4l-2.1,1.5
							c-0.3,0.2-0.5,0.7-0.5,1.2v2.7C1123.8,421.6,1124,421.8,1124.3,421.6z"/>
					</g>
				</g>
				<g>
					<path class="st18" d="M1109.9,472.4l23.7-15.7c1.3-0.9,2.5-3.3,2.5-5.3v-9.8c0-2-1.1-3-2.5-2.1l-23.7,15.7
						c-1.3,0.9-2.5,3.3-2.5,5.3v9.8C1107.6,472.3,1108.7,473.3,1109.9,472.4z"/>
					<path class="st0" d="M1134.8,439.2c0.3,0.4,0.6,1.1,0.6,2v9.8c0,2-1.1,4.5-2.5,5.3l-23.7,15.7c-0.4,0.3-0.9,0.3-1.2,0.3
						c0.4,0.5,1.1,0.5,1.8,0.1l23.7-15.7c1.3-0.9,2.5-3.3,2.5-5.3v-9.8C1136.1,440.2,1135.5,439.4,1134.8,439.2z"/>
					<g>
						<path class="st15" d="M1117.1,461.8l2.1-1.5c0.3-0.2,0.5-0.7,0.5-1.2v-2.7c0-0.4-0.2-0.6-0.5-0.4l-2.1,1.5
							c-0.3,0.2-0.5,0.7-0.5,1.2v2.7C1116.6,461.8,1116.8,462,1117.1,461.8z"/>
						<path class="st0" d="M1124.3,457l2.1-1.5c0.3-0.2,0.5-0.7,0.5-1.2v-2.7c0-0.4-0.2-0.6-0.5-0.4l-2.1,1.5
							c-0.3,0.2-0.5,0.7-0.5,1.2v2.7C1123.8,457,1124,457.1,1124.3,457z"/>
						<path class="st0" d="M1122.7,475l2.1-1.5c0.3-0.2,0.5-0.7,0.5-1.2v-2.7c0-0.4-0.2-0.6-0.5-0.4l-2.1,1.5
							c-0.3,0.2-0.5,0.7-0.5,1.2v2.7C1122.2,475,1122.4,475.2,1122.7,475z"/>
					</g>
				</g>
				<g>
					<path class="st18" d="M1109.9,401.6l23.7-15.7c1.3-0.9,2.5-3.3,2.5-5.3v-9.8c0-2-1.1-3-2.5-2.1l-23.7,15.7
						c-1.3,0.9-2.5,3.3-2.5,5.3v9.8C1107.6,401.6,1108.7,402.5,1109.9,401.6z"/>
					<path class="st0" d="M1134.8,368.5c0.3,0.4,0.6,1.1,0.6,2v9.8c0,2-1.1,4.5-2.5,5.3l-23.7,15.7c-0.4,0.3-0.9,0.3-1.2,0.3
						c0.4,0.5,1.1,0.5,1.8,0.1l23.7-15.7c1.3-0.9,2.5-3.3,2.5-5.3v-9.8C1136.1,369.4,1135.5,368.6,1134.8,368.5z"/>
					<g>
						<path class="st15" d="M1117.1,391l2.1-1.5c0.3-0.2,0.5-0.7,0.5-1.2v-2.7c0-0.4-0.2-0.6-0.5-0.4l-2.1,1.5
							c-0.3,0.2-0.5,0.7-0.5,1.2v2.7C1116.6,391,1116.8,391.2,1117.1,391z"/>
						<path class="st0" d="M1124.3,386.2l2.1-1.5c0.3-0.2,0.5-0.7,0.5-1.2v-2.7c0-0.4-0.2-0.6-0.5-0.4l-2.1,1.5
							c-0.3,0.2-0.5,0.7-0.5,1.2v2.7C1123.8,386.2,1124,386.4,1124.3,386.2z"/>
					</g>
				</g>
			</g>
			<g>
				<path class="st14" d="M1089.5,356.2l-54.6-36.5c-1.2-0.9-2.2-3-2.2-4.9v-12c0-1.9,1-2.8,2.2-1.9l54.6,36.5
					c1.2,0.9,2.2,3,2.2,4.9v12C1091.7,356.2,1090.8,357.1,1089.5,356.2z"/>
				<path class="st20" d="M1087.9,351.9l-51.4-34.4c-0.6-0.4-1.2-1.5-1.2-2.5V306c0-1,0.5-1.4,1.2-1l51.4,34.4
					c0.6,0.4,1.2,1.5,1.2,2.5v9.1C1089,351.9,1088.5,352.4,1087.9,351.9z"/>
				<path class="st16" d="M1047.1,320.2l-7.7-5.1c-0.6-0.4-1.1-1.5-1.1-2.5l0,0c0-1,0.5-1.4,1.1-1l7.7,5.1c0.6,0.4,1.1,1.5,1.1,2.5
					l0,0C1048.3,320.2,1047.8,320.6,1047.1,320.2z"/>
				<path class="st18" d="M1053.8,322.8c0,1-0.5,1.3-1.3,0.9c-0.7-0.4-1.3-1.6-1.3-2.6s0.5-1.3,1.3-0.9
					C1053.2,320.8,1053.8,322,1053.8,322.8z"/>
				<path class="st18" d="M1058.1,325.8c0,1-0.5,1.3-1.3,0.9c-0.7-0.4-1.3-1.6-1.3-2.6s0.5-1.3,1.3-0.9
					C1057.6,323.8,1058.1,325,1058.1,325.8z"/>
				<path class="st16" d="M1062.6,328.8c0,1-0.5,1.3-1.3,0.9s-1.3-1.6-1.3-2.6c0-1,0.5-1.3,1.3-0.9
					C1062.1,326.8,1062.6,327.9,1062.6,328.8z"/>
				<path class="st18" d="M1067.1,331.8c0,1-0.5,1.3-1.3,0.9c-0.7-0.4-1.3-1.6-1.3-2.6s0.5-1.3,1.3-0.9
					C1066.4,329.8,1067.1,330.8,1067.1,331.8z"/>
				<path class="st18" d="M1085.7,346.9l-2.6-1.7c-0.4-0.2-0.7-1-0.7-1.6v-3.2c0-0.6,0.3-0.9,0.7-0.6l2.6,1.7c0.4,0.2,0.7,1,0.7,1.6
					v3.2C1086.5,346.9,1086.2,347.3,1085.7,346.9z"/>
			</g>
			<g>
				<path class="st14" d="M1089.5,377.4l-54.6-36.5c-1.2-0.9-2.2-3-2.2-4.9v-12c0-1.9,1-2.8,2.2-1.9l54.6,36.5
					c1.2,0.9,2.2,3,2.2,4.9v12C1091.7,377.4,1090.8,378.3,1089.5,377.4z"/>
				<path class="st20" d="M1087.9,373.3l-51.4-34.4c-0.6-0.4-1.2-1.5-1.2-2.5v-9.1c0-1,0.5-1.4,1.2-1l51.4,34.3
					c0.6,0.4,1.2,1.5,1.2,2.5v9.1C1089,373.3,1088.5,373.7,1087.9,373.3z"/>
				<path class="st16" d="M1047.1,341.5l-7.7-5.1c-0.6-0.4-1.1-1.5-1.1-2.5l0,0c0-1,0.5-1.4,1.1-1l7.7,5.1c0.6,0.4,1.1,1.5,1.1,2.5
					l0,0C1048.3,341.4,1047.8,341.8,1047.1,341.5z"/>
				<path class="st0" d="M1053.8,344.2c0,1-0.5,1.3-1.3,0.9c-0.7-0.4-1.3-1.6-1.3-2.6s0.5-1.3,1.3-0.9S1053.8,343.2,1053.8,344.2z"
					/>
				<path class="st18" d="M1058.1,347.1c0,1-0.5,1.3-1.3,0.9s-1.3-1.6-1.3-2.6c0-1,0.5-1.3,1.3-0.9
					C1057.6,345,1058.1,346.2,1058.1,347.1z"/>
				<path class="st16" d="M1062.6,350c0,1-0.5,1.3-1.3,0.9c-0.7-0.4-1.3-1.6-1.3-2.6s0.5-1.3,1.3-0.9
					C1062.1,348,1062.6,349.2,1062.6,350z"/>
				<path class="st18" d="M1067.1,353c0,1-0.5,1.3-1.3,0.9c-0.7-0.4-1.3-1.6-1.3-2.6c0-1,0.5-1.3,1.3-0.9
					C1066.4,351,1067.1,352.2,1067.1,353z"/>
				<path class="st18" d="M1085.7,368.2l-2.6-1.7c-0.4-0.2-0.7-1-0.7-1.6v-3.2c0-0.6,0.3-0.9,0.7-0.6l2.6,1.7c0.4,0.2,0.7,1,0.7,1.6
					v3.2C1086.5,368.2,1086.2,368.5,1085.7,368.2z"/>
			</g>
			<g>
				<path class="st14" d="M1089.5,398.8l-54.6-36.5c-1.2-0.9-2.2-3-2.2-4.9v-12c0-1.9,1-2.8,2.2-1.9l54.6,36.5
					c1.2,0.9,2.2,3,2.2,4.9v12C1091.7,398.6,1090.8,399.5,1089.5,398.8z"/>
				<path class="st20" d="M1087.9,394.5l-51.4-34.4c-0.6-0.4-1.2-1.5-1.2-2.5v-9.1c0-1,0.5-1.4,1.2-1l51.4,34.4
					c0.6,0.4,1.2,1.5,1.2,2.5v9.1C1089,394.5,1088.5,394.9,1087.9,394.5z"/>
				<path class="st16" d="M1047.1,362.7l-7.7-5.1c-0.6-0.4-1.1-1.5-1.1-2.5l0,0c0-1,0.5-1.4,1.1-1l7.7,5.1c0.6,0.4,1.1,1.5,1.1,2.5
					l0,0C1048.3,362.7,1047.8,363.1,1047.1,362.7z"/>
				<path class="st0" d="M1053.8,365.4c0,1-0.5,1.3-1.3,0.9c-0.7-0.4-1.3-1.6-1.3-2.6c0-1,0.5-1.3,1.3-0.9
					C1053.2,363.4,1053.8,364.4,1053.8,365.4z"/>
				<path class="st18" d="M1058.1,368.4c0,1-0.5,1.3-1.3,0.9c-0.7-0.4-1.3-1.6-1.3-2.6s0.5-1.3,1.3-0.9
					C1057.6,366.3,1058.1,367.4,1058.1,368.4z"/>
				<path class="st16" d="M1062.6,371.4c0,1-0.5,1.3-1.3,0.9s-1.3-1.6-1.3-2.6s0.5-1.3,1.3-0.9
					C1062.1,369.2,1062.6,370.4,1062.6,371.4z"/>
				<path class="st18" d="M1067.1,374.3c0,1-0.5,1.3-1.3,0.9c-0.7-0.4-1.3-1.6-1.3-2.6c0-1,0.5-1.3,1.3-0.9
					C1066.4,372.2,1067.1,373.4,1067.1,374.3z"/>
				<path class="st18" d="M1085.7,389.5l-2.6-1.7c-0.4-0.2-0.7-1-0.7-1.6V383c0-0.6,0.3-0.9,0.7-0.6l2.6,1.7c0.4,0.2,0.7,1,0.7,1.6
					v3.2C1086.5,389.5,1086.2,389.7,1085.7,389.5z"/>
			</g>
			<g>
				<path class="st14" d="M1089.5,420l-54.6-36.5c-1.2-0.9-2.2-3-2.2-4.9v-12c0-1.9,1-2.8,2.2-1.9l54.6,36.5c1.2,0.9,2.2,3,2.2,4.9
					v12C1091.7,419.9,1090.8,420.8,1089.5,420z"/>
				<path class="st20" d="M1087.9,415.7l-51.4-34.4c-0.6-0.4-1.2-1.5-1.2-2.5v-9.1c0-1,0.5-1.4,1.2-1l51.4,34.4
					c0.6,0.4,1.2,1.5,1.2,2.5v9.1C1089,415.7,1088.5,416.1,1087.9,415.7z"/>
				<path class="st16" d="M1047.1,383.9l-7.7-5.1c-0.6-0.4-1.1-1.5-1.1-2.5l0,0c0-1,0.5-1.4,1.1-1l7.7,5.1c0.6,0.4,1.1,1.5,1.1,2.5
					l0,0C1048.3,383.9,1047.8,384.4,1047.1,383.9z"/>
				<path class="st18" d="M1053.8,386.6c0,1-0.5,1.3-1.3,0.9c-0.7-0.4-1.3-1.6-1.3-2.6c0-1,0.5-1.3,1.3-0.9
					C1053.2,384.6,1053.8,385.7,1053.8,386.6z"/>
				<path class="st18" d="M1058.1,389.6c0,1-0.5,1.3-1.3,0.9c-0.7-0.4-1.3-1.6-1.3-2.6s0.5-1.3,1.3-0.9
					C1057.6,387.6,1058.1,388.6,1058.1,389.6z"/>
				<path class="st16" d="M1062.6,392.6c0,1-0.5,1.3-1.3,0.9c-0.7-0.4-1.3-1.6-1.3-2.6s0.5-1.3,1.3-0.9
					C1062.1,390.5,1062.6,391.6,1062.6,392.6z"/>
				<path class="st18" d="M1067.1,395.6c0,1-0.5,1.3-1.3,0.9c-0.7-0.4-1.3-1.6-1.3-2.6c0-1,0.5-1.3,1.3-0.9
					C1066.4,393.4,1067.1,394.6,1067.1,395.6z"/>
				<path class="st16" d="M1085.7,410.7l-2.6-1.7c-0.4-0.2-0.7-1-0.7-1.6v-3.2c0-0.6,0.3-0.9,0.7-0.6l2.6,1.7c0.4,0.2,0.7,1,0.7,1.6
					v3.2C1086.5,410.7,1086.2,410.9,1085.7,410.7z"/>
			</g>
			<g>
				<path class="st14" d="M1089.5,441.2l-54.6-36.5c-1.2-0.9-2.2-3-2.2-4.9v-12c0-1.9,1-2.8,2.2-1.9l54.6,36.5
					c1.2,0.9,2.2,3,2.2,4.9v12C1091.7,441.2,1090.8,442,1089.5,441.2z"/>
				<path class="st20" d="M1087.9,437l-51.4-34.4c-0.6-0.4-1.2-1.5-1.2-2.5v-9.1c0-1,0.5-1.4,1.2-1l51.4,34.4
					c0.6,0.4,1.2,1.5,1.2,2.5v9.1C1089,436.9,1088.5,437.5,1087.9,437z"/>
				<path class="st16" d="M1047.1,405.1l-7.7-5.1c-0.6-0.4-1.1-1.5-1.1-2.5l0,0c0-1,0.5-1.4,1.1-1l7.7,5.1c0.6,0.4,1.1,1.5,1.1,2.5
					l0,0C1048.3,405.1,1047.8,405.6,1047.1,405.1z"/>
				<path class="st18" d="M1053.8,407.9c0,1-0.5,1.3-1.3,0.9c-0.7-0.4-1.3-1.6-1.3-2.6c0-1,0.5-1.3,1.3-0.9
					C1053.2,405.8,1053.8,407,1053.8,407.9z"/>
				<path class="st0" d="M1058.1,410.8c0,1-0.5,1.3-1.3,0.9s-1.3-1.6-1.3-2.6s0.5-1.3,1.3-0.9
					C1057.6,408.8,1058.1,409.9,1058.1,410.8z"/>
				<path class="st16" d="M1062.6,413.8c0,1-0.5,1.3-1.3,0.9c-0.7-0.4-1.3-1.6-1.3-2.6c0-1,0.5-1.3,1.3-0.9
					C1062.1,411.8,1062.6,412.9,1062.6,413.8z"/>
				<path class="st0" d="M1067.1,416.8c0,1-0.5,1.3-1.3,0.9c-0.7-0.4-1.3-1.6-1.3-2.6c0-1,0.5-1.3,1.3-0.9
					C1066.4,414.7,1067.1,415.8,1067.1,416.8z"/>
				<path class="st16" d="M1085.7,431.9l-2.6-1.7c-0.4-0.2-0.7-1-0.7-1.6v-3.2c0-0.6,0.3-0.9,0.7-0.6l2.6,1.7c0.4,0.2,0.7,1,0.7,1.6
					v3.2C1086.5,431.9,1086.2,432.2,1085.7,431.9z"/>
			</g>
			<g>
				<path class="st14" d="M1089.5,462.5l-54.6-36.5c-1.2-0.9-2.2-3-2.2-4.9v-12c0-1.9,1-2.8,2.2-1.9l54.6,36.5
					c1.2,0.9,2.2,3,2.2,4.9v12C1091.7,462.4,1090.8,463.3,1089.5,462.5z"/>
				<path class="st20" d="M1087.9,458.2l-51.4-34.4c-0.6-0.4-1.2-1.5-1.2-2.5v-9.1c0-1,0.5-1.4,1.2-1l51.4,34.4
					c0.6,0.4,1.2,1.5,1.2,2.5v9.1C1089,458.2,1088.5,458.7,1087.9,458.2z"/>
				<path class="st16" d="M1047.1,426.5l-7.7-5.1c-0.6-0.4-1.1-1.5-1.1-2.5l0,0c0-1,0.5-1.4,1.1-1l7.7,5.1c0.6,0.4,1.1,1.5,1.1,2.5
					l0,0C1048.3,426.4,1047.8,426.8,1047.1,426.5z"/>
				<path class="st18" d="M1053.8,429.1c0,1-0.5,1.3-1.3,0.9c-0.7-0.4-1.3-1.6-1.3-2.6c0-1,0.5-1.3,1.3-0.9
					C1053.2,427.1,1053.8,428.2,1053.8,429.1z"/>
				<path class="st18" d="M1058.1,432.1c0,1-0.5,1.3-1.3,0.9c-0.7-0.4-1.3-1.6-1.3-2.6s0.5-1.3,1.3-0.9S1058.1,431.2,1058.1,432.1z"
					/>
				<path class="st16" d="M1062.6,435.1c0,1-0.5,1.3-1.3,0.9c-0.7-0.4-1.3-1.6-1.3-2.6s0.5-1.3,1.3-0.9
					C1062.1,433,1062.6,434.1,1062.6,435.1z"/>
				<path class="st18" d="M1067.1,438c0,1-0.5,1.3-1.3,0.9c-0.7-0.4-1.3-1.6-1.3-2.6s0.5-1.3,1.3-0.9
					C1066.4,436,1067.1,437.1,1067.1,438z"/>
				<path class="st18" d="M1085.7,453.2l-2.6-1.7c-0.4-0.2-0.7-1-0.7-1.6v-3.2c0-0.6,0.3-0.9,0.7-0.6l2.6,1.7c0.4,0.2,0.7,1,0.7,1.6
					v3.2C1086.5,453.1,1086.2,453.4,1085.7,453.2z"/>
			</g>
			<g>
				<path class="st14" d="M1089.5,483.7l-54.6-36.5c-1.2-0.9-2.2-3-2.2-4.9v-12c0-1.9,1-2.8,2.2-1.9l54.6,36.5
					c1.2,0.9,2.2,3,2.2,4.9v12C1091.7,483.6,1090.8,484.5,1089.5,483.7z"/>
				<path class="st20" d="M1087.9,479.5l-51.4-34.4c-0.6-0.4-1.2-1.5-1.2-2.5v-9.1c0-1,0.5-1.4,1.2-1l51.4,34.4
					c0.6,0.4,1.2,1.5,1.2,2.5v9.1C1089,479.5,1088.5,479.9,1087.9,479.5z"/>
				<path class="st16" d="M1047.1,447.7l-7.7-5.1c-0.6-0.4-1.1-1.5-1.1-2.5l0,0c0-1,0.5-1.4,1.1-1l7.7,5.1c0.6,0.4,1.1,1.5,1.1,2.5
					l0,0C1048.3,447.7,1047.8,448.1,1047.1,447.7z"/>
				<path class="st0" d="M1055.1,451.5c0,1.7-1.1,2.5-2.3,1.6c-1.3-0.9-2.3-3-2.3-4.8c0-1.7,1.1-2.5,2.3-1.6
					C1054.1,447.6,1055.1,449.7,1055.1,451.5z"/>
				<path class="st18" d="M1064.3,457.7c0,1-0.5,1.3-1.3,0.9s-1.3-1.6-1.3-2.6s0.5-1.3,1.3-0.9S1064.3,456.9,1064.3,457.7z"/>
				<path class="st16" d="M1068.8,460.7c0,1-0.5,1.3-1.3,0.9s-1.3-1.6-1.3-2.6c0-1,0.5-1.3,1.3-0.9
					C1068.3,458.7,1068.8,459.7,1068.8,460.7z"/>
				<path class="st18" d="M1073.2,463.7c0,1-0.5,1.3-1.3,0.9c-0.7-0.4-1.3-1.6-1.3-2.6s0.5-1.3,1.3-0.9
					C1072.6,461.7,1073.2,462.7,1073.2,463.7z"/>
				<path class="st16" d="M1085.7,474.4l-2.6-1.7c-0.4-0.2-0.7-1-0.7-1.6v-3.2c0-0.6,0.3-0.9,0.7-0.6l2.6,1.7c0.4,0.2,0.7,1,0.7,1.6
					v3.2C1086.5,474.4,1086.2,474.7,1085.7,474.4z"/>
			</g>
		</g>
		<g>
			<path class="st17" d="M901.6,595.8L780,514.4c-3.4-2.3-3-6.3,1-9l82.8-55.3c3.9-2.7,10-3,13.4-0.6l121.6,81.3c3.4,2.3,3,6.3-1,9
				l-82.8,55.3C911,597.8,905,598,901.6,595.8z"/>
			<path class="st18" d="M1027.3,386.7l-121.6-81.3c-1.4-1-2.9-1.1-4.2-0.5l0,0l-0.2,0.1c0,0,0,0-0.1,0l-4.4,1.9l3.9,2.2
				c0,0.1,0,0.2-0.1,0.2l-19.8,104.4c-1,5.2,1,11.3,4.5,13.6l118.7,79.3l-0.4,5.9l4.8-2.1c1.6-0.9,2.9-2.9,3.4-5.7l19.8-104.4
				C1032.8,395.1,1030.7,389,1027.3,386.7z"/>
			<path class="st15" d="M1027.3,386.7l-121.6-81.3c-1.4-1-2.9-1.1-4.2-0.5l0,0l-0.2,0.1c0,0,0,0-0.1,0l-4.4,1.9l3.9,2.2
				c0,0.1,0,0.2-0.1,0.2l-13,68.8l59.5,53.7l83.9-39.6C1030.3,389.9,1029,387.9,1027.3,386.7z"/>
			<path class="st21" d="M1022.7,402.8l9.3-4.6c0.2-4.2-1.3-8.4-3.7-10.8l-14.6,7.1L1022.7,402.8z"/>
			<path class="st16" d="M999.4,512.1l-121.5-81.3c-3.4-2.3-5.4-8.4-4.5-13.6l19.8-104.4c1-5.2,4.6-7.6,8-5.3l121.6,81.3
				c3.4,2.3,5.4,8.4,4.5,13.6l-19.8,104.4C1006.4,512,1002.9,514.3,999.4,512.1z"/>
			<path class="st0" d="M1024,388.2L902.4,307c-1.7-1.1-3.4-1.1-4.8-0.2c1.2-0.3,2.3-0.1,3.6,0.7l121.6,81.3
				c3.4,2.3,5.4,8.4,4.5,13.6l-19.8,104.4c-0.5,2.7-1.7,4.6-3.2,5.5c2-0.5,3.7-2.7,4.4-6.1l19.8-104.4
				C1029.5,396.6,1027.4,390.5,1024,388.2z"/>
			<path class="st0" d="M996.8,504.3l-114.4-76.4c-3.2-2.1-5-7.7-4.1-12.5l18.1-95.5c1-4.8,4.2-6.9,7.4-4.8l114.4,76.4
				c3.2,2.1,5,7.7,4.1,12.5l-18.1,95.5C1003.2,504.2,999.9,506.4,996.8,504.3z"/>
			<path class="st18" d="M996.8,504.3l-114.4-76.4c-3.2-2.1-5-7.7-4.1-12.5l18.1-95.5c1-4.8,4.2-6.9,7.4-4.8l114.4,76.4
				c3.2,2.1,5,7.7,4.1,12.5l-18.1,95.5C1003.2,504.2,999.9,506.4,996.8,504.3z"/>
			<path class="st14" d="M997.8,503.8l-114.4-76.4c-3.2-2.1-5-7.7-4.1-12.5l18.1-95.5c0.4-2.5,1.5-4.2,2.9-5
				c-1.8,0.5-3.3,2.6-3.8,5.5l-18.1,95.5c-1,4.8,1,10.3,4.1,12.5l114.4,76.4c1.6,1.1,3.1,1.1,4.5,0.2
				C1000.1,504.8,999,504.6,997.8,503.8z"/>
			<path class="st18" d="M1001.1,515.6l-16.6-2.6l-107.4-71.8c-3.4-2.3-9.5-2-13.4,0.6l-76,50.9l-10-1.5v6.6l0,0
				c-0.1,1.5,0.6,3,2.3,4.1l121.6,81.3c3.4,2.3,9.5,2,13.4-0.6l82.8-55.3c2.2-1.5,3.3-3.4,3.3-5.2l0,0v-6.5H1001.1z"/>
			<path class="st15" d="M920.5,470.3l-7.7-5.1H829l-41.4,27.6l-10-1.5v6.6l0,0c-0.1,1.5,0.6,3,2.3,4.1l121.6,81.3
				c1.8,1.2,4.4,1.7,6.9,1.5L920.5,470.3z"/>
			<path class="st14" d="M782.1,491.9l-4.5-0.6v6.6l0,0c-0.1,1.5,0.6,3,2.3,4.1l2.1,1.4V491.9z"/>
			<path class="st21" d="M902.8,583.8c3.3,1.4,7.9,1.2,11.4-0.9v-14.7h-11.4V583.8z"/>
			<path class="st16" d="M901.6,576.6L780,495.2c-3.4-2.3-3-6.3,1-9l82.8-55.3c3.9-2.7,10-3,13.4-0.6l121.6,81.3c3.4,2.3,3,6.3-1,9
				l-82.8,55.3C911,578.6,905,578.9,901.6,576.6z"/>
			<path class="st0" d="M997.8,518.3l-82.8,55.3c-3.9,2.7-10,3-13.4,0.6L780,492.9c-1.2-0.7-1.8-1.7-2.1-2.7
				c-0.5,1.9,0.1,3.8,2.1,5.1l121.6,81.3c3.4,2.3,9.5,2,13.4-0.6l82.8-55.3c2.7-1.8,3.7-4.2,3.1-6.3
				C1000.6,515.7,999.5,517.1,997.8,518.3z"/>
			<g>
				<path class="st14" d="M831.7,468.4l-5.5-3.7c-0.4-0.3-0.4-0.9,0.1-1.2l6.5-4.4c0.5-0.3,1.3-0.4,1.7-0.1l5.5,3.7
					c0.4,0.3,0.4,0.9-0.1,1.2l-6.5,4.4C832.9,468.7,832.1,468.7,831.7,468.4z"/>
				<path class="st14" d="M840.2,474.1l-5.5-3.7c-0.4-0.3-0.4-0.9,0.1-1.2l6.5-4.4c0.5-0.3,1.3-0.4,1.7-0.1l5.5,3.7
					c0.4,0.3,0.4,0.9-0.1,1.2l-6.5,4.4C841.4,474.3,840.6,474.3,840.2,474.1z"/>
				<path class="st14" d="M848.6,479.8l-5.5-3.7c-0.4-0.3-0.4-0.9,0.1-1.2l6.5-4.4c0.5-0.3,1.3-0.4,1.7-0.1l5.5,3.7
					c0.4,0.3,0.4,0.9-0.1,1.2l-6.5,4.4C849.9,480,849.2,480.1,848.6,479.8z"/>
				<path class="st14" d="M860.5,475.1l-5.5-3.7c-0.4-0.3-0.4-0.9,0.1-1.2l5.4-3.6c0.5-0.3,1.3-0.4,1.7-0.1l5.5,3.7
					c0.4,0.3,0.4,0.9-0.1,1.2l-5.4,3.6C861.6,475.3,860.9,475.4,860.5,475.1z"/>
				<path class="st14" d="M868.9,480.7l-5.5-3.7c-0.4-0.3-0.4-0.9,0.1-1.2l5.4-3.6c0.5-0.3,1.3-0.4,1.7-0.1l5.5,3.7
					c0.4,0.3,0.4,0.9-0.1,1.2l-5.4,3.6C870.2,481.1,869.3,481.1,868.9,480.7z"/>
				<path class="st14" d="M877.4,486.4l-5.5-3.7c-0.4-0.3-0.4-0.9,0.1-1.2l5.4-3.6c0.5-0.3,1.3-0.4,1.7-0.1l5.5,3.7
					c0.4,0.3,0.4,0.9-0.1,1.2l-5.4,3.6C878.6,486.7,877.8,486.7,877.4,486.4z"/>
				<path class="st14" d="M885.9,492.1l-5.5-3.7c-0.4-0.3-0.4-0.9,0.1-1.2l5.4-3.6c0.5-0.3,1.3-0.4,1.7-0.1l5.5,3.7
					c0.4,0.3,0.4,0.9-0.1,1.2l-5.4,3.6C887.1,492.4,886.4,492.4,885.9,492.1z"/>
				<path class="st14" d="M894.4,497.8l-5.5-3.7c-0.4-0.3-0.4-0.9,0.1-1.2l5.4-3.6c0.5-0.3,1.3-0.4,1.7-0.1l5.5,3.7
					c0.4,0.3,0.4,0.9-0.1,1.2l-5.4,3.6C895.7,498,894.9,498.1,894.4,497.8z"/>
				<path class="st14" d="M902.9,503.4l-5.5-3.7c-0.4-0.3-0.4-0.9,0.1-1.2l5.4-3.6c0.5-0.3,1.3-0.4,1.7-0.1l5.5,3.7
					c0.4,0.3,0.4,0.9-0.1,1.2l-5.4,3.6C904.2,503.8,903.3,503.8,902.9,503.4z"/>
				<path class="st14" d="M911.4,509.2l-5.5-3.7c-0.4-0.3-0.4-0.9,0.1-1.2l5.4-3.6c0.5-0.3,1.3-0.4,1.7-0.1l5.5,3.7
					c0.4,0.3,0.4,0.9-0.1,1.2l-5.4,3.6C912.6,509.4,911.9,509.4,911.4,509.2z"/>
				<path class="st14" d="M920,514.9l-5.5-3.7c-0.4-0.3-0.4-0.9,0.1-1.2l5.4-3.6c0.5-0.3,1.3-0.4,1.7-0.1l5.5,3.7
					c0.4,0.3,0.4,0.9-0.1,1.2l-5.4,3.6C921.1,515.1,920.4,515.2,920,514.9z"/>
				<path class="st14" d="M928.4,520.5l-5.5-3.7c-0.4-0.3-0.4-0.9,0.1-1.2l5.4-3.6c0.5-0.3,1.3-0.4,1.7-0.1l5.5,3.7
					c0.4,0.3,0.4,0.9-0.1,1.2l-5.4,3.6C929.7,520.8,928.9,520.8,928.4,520.5z"/>
				<path class="st14" d="M936.9,526.2l-5.5-3.7c-0.4-0.3-0.4-0.9,0.1-1.2l5.4-3.6c0.5-0.3,1.3-0.4,1.7-0.1l5.5,3.7
					c0.4,0.3,0.4,0.9-0.1,1.2l-5.4,3.6C938.1,526.5,937.3,526.5,936.9,526.2z"/>
				<path class="st14" d="M872.9,472.4l-5.5-3.7c-0.4-0.3-0.4-0.9,0.1-1.2l5.4-3.6c0.5-0.3,1.3-0.4,1.7-0.1l5.5,3.7
					c0.4,0.3,0.4,0.9-0.1,1.2l-5.4,3.6C874.1,472.6,873.4,472.6,872.9,472.4z"/>
				<path class="st14" d="M864.3,466.7l-5.5-3.7c-0.4-0.3-0.4-0.9,0.1-1.2l5.4-3.6c0.5-0.3,1.3-0.4,1.7-0.1l5.5,3.7
					c0.4,0.3,0.4,0.9-0.1,1.2l-5.4,3.6C865.6,466.9,864.7,466.9,864.3,466.7z"/>
				<path class="st14" d="M855.7,460.8l-11.8-7.9c-0.4-0.3-0.4-0.9,0.1-1.2l5.4-3.6c0.5-0.3,1.3-0.4,1.7-0.1l11.8,7.9
					c0.4,0.3,0.4,0.9-0.1,1.2l-5.4,3.6C857,461.1,856.1,461.1,855.7,460.8z"/>
				<path class="st14" d="M861.7,453.8l-9.6-6.4c-0.4-0.3-0.4-0.9,0.1-1.2l5.4-3.6c0.5-0.3,1.3-0.4,1.7-0.1l9.6,6.4
					c0.4,0.3,0.4,0.9-0.1,1.2l-5.4,3.6C862.9,454.1,862.2,454.1,861.7,453.8z"/>
				<path class="st14" d="M881.5,478.1l-5.5-3.7c-0.4-0.3-0.4-0.9,0.1-1.2l5.4-3.6c0.5-0.3,1.3-0.4,1.7-0.1l5.5,3.7
					c0.4,0.3,0.4,0.9-0.1,1.2l-5.4,3.6C882.6,478.3,881.9,478.4,881.5,478.1z"/>
				<path class="st14" d="M890,483.7l-5.5-3.7c-0.4-0.3-0.4-0.9,0.1-1.2l5.4-3.6c0.5-0.3,1.3-0.4,1.7-0.1l5.5,3.7
					c0.4,0.3,0.4,0.9-0.1,1.2l-5.4,3.6C891.2,484,890.4,484,890,483.7z"/>
				<path class="st14" d="M898.4,489.4l-5.5-3.7c-0.4-0.3-0.4-0.9,0.1-1.2l5.4-3.6c0.5-0.3,1.3-0.4,1.7-0.1l5.5,3.7
					c0.4,0.3,0.4,0.9-0.1,1.2l-5.4,3.6C899.7,489.7,898.8,489.7,898.4,489.4z"/>
				<path class="st14" d="M907,495.1l-5.5-3.7c-0.4-0.3-0.4-0.9,0.1-1.2l5.4-3.6c0.5-0.3,1.3-0.4,1.7-0.1l5.5,3.7
					c0.4,0.3,0.4,0.9-0.1,1.2l-5.4,3.6C908.1,495.3,907.4,495.4,907,495.1z"/>
				<path class="st14" d="M915.5,500.8l-5.5-3.7c-0.4-0.3-0.4-0.9,0.1-1.2l5.4-3.6c0.5-0.3,1.3-0.4,1.7-0.1l5.5,3.7
					c0.4,0.3,0.4,0.9-0.1,1.2l-5.4,3.6C916.7,501.1,915.9,501.1,915.5,500.8z"/>
				<path class="st14" d="M923.9,506.4l-5.5-3.7c-0.4-0.3-0.4-0.9,0.1-1.2l5.4-3.6c0.5-0.3,1.3-0.4,1.7-0.1l5.5,3.7
					c0.4,0.3,0.4,0.9-0.1,1.2l-5.4,3.6C925.2,506.7,924.4,506.7,923.9,506.4z"/>
				<path class="st14" d="M932.4,512.2l-5.5-3.7c-0.4-0.3-0.4-0.9,0.1-1.2l5.4-3.6c0.5-0.3,1.3-0.4,1.7-0.1l5.5,3.7
					c0.4,0.3,0.4,0.9-0.1,1.2l-5.4,3.6C933.6,512.4,932.9,512.4,932.4,512.2z"/>
				<path class="st14" d="M941,517.8l-5.5-3.7c-0.4-0.3-0.4-0.9,0.1-1.2l5.4-3.6c0.5-0.3,1.3-0.4,1.7-0.1l5.5,3.7
					c0.4,0.3,0.4,0.9-0.1,1.2l-5.4,3.6C942.1,518,941.4,518.2,941,517.8z"/>
				<path class="st14" d="M949.5,523.5l-5.5-3.7c-0.4-0.3-0.4-0.9,0.1-1.2l5.4-3.6c0.5-0.3,1.3-0.4,1.7-0.1l5.5,3.7
					c0.4,0.3,0.4,0.9-0.1,1.2l-5.4,3.6C950.7,523.8,949.9,523.8,949.5,523.5z"/>
				<path class="st14" d="M964.5,533.6l-12-8c-0.4-0.3-0.4-0.9,0.1-1.2l5.4-3.6c0.5-0.3,1.3-0.4,1.7-0.1l12,8
					c0.4,0.3,0.4,0.9-0.1,1.2l-5.4,3.6C965.8,533.8,964.9,533.9,964.5,533.6z"/>
				<path class="st14" d="M981,522.5l-10.1-6.8c-0.4-0.3-0.4-0.9,0.1-1.2l5.4-3.6c0.5-0.3,1.3-0.4,1.7-0.1l10.1,6.8
					c0.4,0.3,0.4,0.9-0.1,1.2l-5.4,3.6C982.3,522.8,981.6,522.8,981,522.5z"/>
				<path class="st14" d="M896.3,476.9l-5.5-3.7c-0.4-0.3-0.4-0.9,0.1-1.2l5.4-3.6c0.5-0.3,1.3-0.4,1.7-0.1l5.5,3.7
					c0.4,0.3,0.4,0.9-0.1,1.2l-5.3,3.7C897.6,477.2,896.8,477.2,896.3,476.9z"/>
				<path class="st14" d="M887.7,471.1l-5.5-3.7c-0.4-0.3-0.4-0.9,0.1-1.2l5.4-3.6c0.5-0.3,1.3-0.4,1.7-0.1l5.5,3.7
					c0.4,0.3,0.4,0.9-0.1,1.2l-5.4,3.6C888.8,471.4,888.1,471.5,887.7,471.1z"/>
				<path class="st14" d="M878.9,465.3l-5.5-3.7c-0.4-0.3-0.4-0.9,0.1-1.2l5.4-3.6c0.5-0.3,1.3-0.4,1.7-0.1l5.5,3.7
					c0.4,0.3,0.4,0.9-0.1,1.2l-5.4,3.6C880.1,465.6,879.3,465.6,878.9,465.3z"/>
				<path class="st14" d="M870.2,459.5l-5.5-3.7c-0.4-0.3-0.4-0.9,0.1-1.2l5.4-3.6c0.5-0.3,1.3-0.4,1.7-0.1l5.5,3.7
					c0.4,0.3,0.4,0.9-0.1,1.2l-5.4,3.6C871.4,459.7,870.6,459.7,870.2,459.5z"/>
				<path class="st14" d="M904.8,482.7l-5.5-3.7c-0.4-0.3-0.4-0.9,0.1-1.2l5.4-3.6c0.5-0.3,1.3-0.4,1.7-0.1l5.5,3.7
					c0.4,0.3,0.4,0.9-0.1,1.2l-5.4,3.6C906.1,482.9,905.2,483,904.8,482.7z"/>
				<path class="st14" d="M913.3,488.3l-5.5-3.7c-0.4-0.3-0.4-0.9,0.1-1.2l5.4-3.6c0.5-0.3,1.3-0.4,1.7-0.1l5.5,3.7
					c0.4,0.3,0.4,0.9-0.1,1.2l-5.4,3.6C914.5,488.5,913.8,488.6,913.3,488.3z"/>
				<path class="st14" d="M921.9,494l-5.5-3.7c-0.4-0.3-0.4-0.9,0.1-1.2l5.4-3.6c0.5-0.3,1.3-0.4,1.7-0.1l5.5,3.7
					c0.4,0.3,0.4,0.9-0.1,1.2l-5.4,3.6C923.1,494.3,922.3,494.3,921.9,494z"/>
				<path class="st14" d="M930.3,499.7l-5.5-3.7c-0.4-0.3-0.4-0.9,0.1-1.2l5.4-3.6c0.5-0.3,1.3-0.4,1.7-0.1l5.5,3.7
					c0.4,0.3,0.4,0.9-0.1,1.2l-5.4,3.6C931.6,499.9,930.7,499.9,930.3,499.7z"/>
				<path class="st14" d="M938.8,505.4l-5.5-3.7c-0.4-0.3-0.4-0.9,0.1-1.2l5.4-3.6c0.5-0.3,1.3-0.4,1.7-0.1l5.5,3.7
					c0.4,0.3,0.4,0.9-0.1,1.2l-5.4,3.6C940,505.6,939.3,505.7,938.8,505.4z"/>
				<path class="st14" d="M947.4,511l-5.5-3.7c-0.4-0.3-0.4-0.9,0.1-1.2l5.4-3.6c0.5-0.3,1.3-0.4,1.7-0.1l5.5,3.7
					c0.4,0.3,0.4,0.9-0.1,1.2l-5.4,3.6C948.5,511.3,947.8,511.3,947.4,511z"/>
				<path class="st14" d="M955.8,516.8l-5.5-3.7c-0.4-0.3-0.4-0.9,0.1-1.2l5.4-3.6c0.5-0.3,1.3-0.4,1.7-0.1l5.5,3.7
					c0.4,0.3,0.4,0.9-0.1,1.2l-5.4,3.6C957.1,517,956.3,517,955.8,516.8z"/>
				<path class="st14" d="M964.3,522.4l-5.5-3.7c-0.4-0.3-0.4-0.9,0.1-1.2l5.4-3.6c0.5-0.3,1.3-0.4,1.7-0.1l5.5,3.7
					c0.4,0.3,0.4,0.9-0.1,1.2l-5.4,3.6C965.6,522.6,964.7,522.7,964.3,522.4z"/>
				<path class="st14" d="M972.8,528.1l-5.5-3.7c-0.4-0.3-0.4-0.9,0.1-1.2l5.4-3.6c0.5-0.3,1.3-0.4,1.7-0.1l5.5,3.7
					c0.4,0.3,0.4,0.9-0.1,1.2l-5.4,3.6C974,528.4,973.3,528.4,972.8,528.1z"/>
				<path class="st14" d="M891.8,462.9l-5.5-3.7c-0.4-0.3-0.4-0.9,0.1-1.2l5.4-3.6c0.5-0.3,1.3-0.4,1.7-0.1l5.5,3.7
					c0.4,0.3,0.4,0.9-0.1,1.2l-5.4,3.6C893.1,463.1,892.3,463.1,891.8,462.9z"/>
				<path class="st14" d="M883.4,457.3l-5.5-3.7c-0.4-0.3-0.4-0.9,0.1-1.2l5.4-3.6c0.5-0.3,1.3-0.4,1.7-0.1l5.5,3.7
					c0.4,0.3,0.4,0.9-0.1,1.2l-5.4,3.6C884.6,457.5,883.8,457.5,883.4,457.3z"/>
				<path class="st14" d="M875,451.6l-5.5-3.7c-0.4-0.3-0.4-0.9,0.1-1.2l5.4-3.6c0.5-0.3,1.3-0.4,1.7-0.1l5.5,3.7
					c0.4,0.3,0.4,0.9-0.1,1.2l-5.4,3.6C876.1,451.8,875.4,451.8,875,451.6z"/>
				<path class="st14" d="M866.4,446l-5.5-3.7c-0.4-0.3-0.4-0.9,0.1-1.2l5.4-3.6c0.5-0.3,1.3-0.4,1.7-0.1l5.5,3.7
					c0.4,0.3,0.4,0.9-0.1,1.2l-5.4,3.6C867.7,446.2,867,446.2,866.4,446z"/>
				<path class="st14" d="M875.2,440.1l-5.5-3.7c-0.4-0.3-0.4-0.9,0.1-1.2l1.8-1.2c0.5-0.3,1.3-0.4,1.7-0.1l5.5,3.7
					c0.4,0.3,0.4,0.9-0.1,1.2l-1.8,1.2C876.4,440.4,875.6,440.4,875.2,440.1z"/>
				<path class="st14" d="M886.3,447.5l-5.5-3.7c-0.4-0.3-0.4-0.9,0.1-1.2l1.8-1.2c0.5-0.3,1.3-0.4,1.7-0.1l5.5,3.7
					c0.4,0.3,0.4,0.9-0.1,1.2l-1.8,1.2C887.4,447.8,886.7,447.8,886.3,447.5z"/>
				<path class="st14" d="M894.7,453.1l-5.5-3.7c-0.4-0.3-0.4-0.9,0.1-1.2l1.8-1.2c0.5-0.3,1.3-0.4,1.7-0.1l5.5,3.7
					c0.4,0.3,0.4,0.9-0.1,1.2l-1.8,1.2C895.9,453.4,895.1,453.4,894.7,453.1z"/>
				<path class="st14" d="M903.1,458.8l-5.5-3.7c-0.4-0.3-0.4-0.9,0.1-1.2l1.8-1.2c0.5-0.3,1.3-0.4,1.7-0.1l5.5,3.7
					c0.4,0.3,0.4,0.9-0.1,1.2l-1.8,1.2C904.3,459,903.5,459.1,903.1,458.8z"/>
				<path class="st14" d="M911.5,464.4l-5.5-3.7c-0.4-0.3-0.4-0.9,0.1-1.2l1.8-1.2c0.5-0.3,1.3-0.4,1.7-0.1l5.5,3.7
					c0.4,0.3,0.4,0.9-0.1,1.2l-1.8,1.2C912.7,464.6,912,464.6,911.5,464.4z"/>
				<path class="st14" d="M958.6,495.8L953,492c-0.4-0.3-0.4-0.9,0.1-1.2l1.8-1.2c0.5-0.3,1.3-0.4,1.7-0.1l5.5,3.7
					c0.4,0.3,0.4,0.9-0.1,1.2l-1.8,1.2C959.7,496.1,959,496.1,958.6,495.8z"/>
				<path class="st14" d="M967,501.4l-5.5-3.7c-0.4-0.3-0.4-0.9,0.1-1.2l1.8-1.2c0.5-0.3,1.3-0.4,1.7-0.1l5.5,3.7
					c0.4,0.3,0.4,0.9-0.1,1.2l-1.8,1.2C968.1,501.7,967.4,501.7,967,501.4z"/>
				<path class="st14" d="M975.3,507.1l-5.5-3.7c-0.4-0.3-0.4-0.9,0.1-1.2l1.8-1.2c0.5-0.3,1.3-0.4,1.7-0.1l5.5,3.7
					c0.4,0.3,0.4,0.9-0.1,1.2L977,507C976.6,507.4,975.8,507.4,975.3,507.1z"/>
				<path class="st14" d="M983.7,512.7l-5.5-3.7c-0.4-0.3-0.4-0.9,0.1-1.2l1.8-1.2c0.5-0.3,1.3-0.4,1.7-0.1l5.5,3.7
					c0.4,0.3,0.4,0.9-0.1,1.2l-1.8,1.2C985,512.9,984.2,513,983.7,512.7z"/>
				<path class="st14" d="M900.3,468.6l-5.5-3.7c-0.4-0.3-0.4-0.9,0.1-1.2l5.4-3.6c0.5-0.3,1.3-0.4,1.7-0.1l5.5,3.7
					c0.4,0.3,0.4,0.9-0.1,1.2l-5.4,3.6C901.6,468.8,900.8,468.9,900.3,468.6z"/>
				<path class="st14" d="M908.9,474.2l-5.5-3.7c-0.4-0.3-0.4-0.9,0.1-1.2l5.4-3.6c0.5-0.3,1.3-0.4,1.7-0.1l5.5,3.7
					c0.4,0.3,0.4,0.9-0.1,1.2l-5.4,3.6C910,474.6,909.3,474.6,908.9,474.2z"/>
				<path class="st14" d="M917.4,480l-5.5-3.7c-0.4-0.3-0.4-0.9,0.1-1.2l5.4-3.6c0.5-0.3,1.3-0.4,1.7-0.1l5.5,3.7
					c0.4,0.3,0.4,0.9-0.1,1.2l-5.4,3.6C918.6,480.2,917.8,480.2,917.4,480z"/>
				<path class="st14" d="M925.8,485.6l-5.5-3.7c-0.4-0.3-0.4-0.9,0.1-1.2l5.4-3.6c0.5-0.3,1.3-0.4,1.7-0.1l5.5,3.7
					c0.4,0.3,0.4,0.9-0.1,1.2l-5.4,3.6C927.1,485.9,926.2,486,925.8,485.6z"/>
				<path class="st14" d="M934.4,491.3l-5.5-3.7c-0.4-0.3-0.4-0.9,0.1-1.2l5.4-3.6c0.5-0.3,1.3-0.4,1.7-0.1l5.5,3.7
					c0.4,0.3,0.4,0.9-0.1,1.2l-5.4,3.6C935.5,491.6,934.8,491.6,934.4,491.3z"/>
				<path class="st14" d="M942.9,496.9l-5.5-3.7c-0.4-0.3-0.4-0.9,0.1-1.2l5.4-3.6c0.5-0.3,1.3-0.4,1.7-0.1l5.5,3.7
					c0.4,0.3,0.4,0.9-0.1,1.2l-5.4,3.6C944.1,497.3,943.3,497.3,942.9,496.9z"/>
				<path class="st14" d="M951.3,502.7l-5.5-3.7c-0.4-0.3-0.4-0.9,0.1-1.2l5.4-3.6c0.5-0.3,1.3-0.4,1.7-0.1l5.5,3.7
					c0.4,0.3,0.4,0.9-0.1,1.2l-5.4,3.6C952.6,502.9,951.8,502.9,951.3,502.7z"/>
				<path class="st14" d="M959.8,508.3l-5.5-3.7c-0.4-0.3-0.4-0.9,0.1-1.2l5.4-3.6c0.5-0.3,1.3-0.4,1.7-0.1l5.5,3.7
					c0.4,0.3,0.4,0.9-0.1,1.2l-5.4,3.6C961.1,508.6,960.3,508.7,959.8,508.3z"/>
				<path class="st14" d="M968.4,514l-5.5-3.7c-0.4-0.3-0.4-0.9,0.1-1.2l5.4-3.6c0.5-0.3,1.3-0.4,1.7-0.1l5.5,3.7
					c0.4,0.3,0.4,0.9-0.1,1.2l-5.4,3.6C969.5,514.3,968.8,514.3,968.4,514z"/>
				<path class="st14" d="M851.7,469.3l-16.2-10.9c-0.4-0.3-0.4-0.9,0.1-1.2l5.4-3.6c0.5-0.3,1.3-0.4,1.7-0.1l16.2,10.9
					c0.4,0.3,0.4,0.9-0.1,1.2l-5.4,3.6C853,469.5,852.3,469.5,851.7,469.3z"/>
				<path class="st14" d="M956.2,539.1L940,528.2c-0.4-0.3-0.4-0.9,0.1-1.2l5.4-3.6c0.5-0.3,1.3-0.4,1.7-0.1l16.2,10.9
					c0.4,0.3,0.4,0.9-0.1,1.2l-5.4,3.6C957.4,539.4,956.6,539.4,956.2,539.1z"/>
				<path class="st14" d="M922.2,528.9l-5.5-3.7c-0.4-0.3-0.4-0.9,0.1-1.2l6.5-4.4c0.5-0.3,1.3-0.4,1.7-0.1l5.5,3.7
					c0.4,0.3,0.4,0.9-0.1,1.2l-6.5,4.4C923.4,529.1,922.6,529.2,922.2,528.9z"/>
				<path class="st14" d="M860.5,487.7l-8.8-5.9c-0.4-0.3-0.4-0.9,0.1-1.2l6.5-4.4c0.5-0.3,1.3-0.4,1.7-0.1l8.8,5.9
					c0.4,0.3,0.4,0.9-0.1,1.2l-6.5,4.4C861.6,487.9,860.9,488,860.5,487.7z"/>
				<path class="st14" d="M914,523.4l-8.8-5.9c-0.4-0.3-0.4-0.9,0.1-1.2l6.5-4.4c0.5-0.3,1.3-0.4,1.7-0.1l8.8,5.9
					c0.4,0.3,0.4,0.9-0.1,1.2l-6.5,4.4C915.3,523.7,914.4,523.7,914,523.4z"/>
				<path class="st14" d="M872.7,495.9l-8.8-5.9c-0.4-0.3-0.4-0.9,0.1-1.2l6.5-4.4c0.5-0.3,1.3-0.4,1.7-0.1l8.8,5.9
					c0.4,0.3,0.4,0.9-0.1,1.2l-6.5,4.4C873.9,496.1,873.2,496.1,872.7,495.9z"/>
				<path class="st14" d="M872.3,484.5l38.3,25.6c0.4,0.3,0.4,0.9,0,1.2l-6.6,4.5c-0.4,0.3-1.3,0.3-1.7,0L864,490.1L872.3,484.5z"/>
				<path class="st14" d="M946,539.2l6.2,4.1c0.3,0.2,0.3,0.6-0.1,1l-2.7,1.8c-0.4,0.3-1.1,0.3-1.4,0.1l-6.2-4.1
					c-0.3-0.2-0.3-0.6,0.1-1l2.7-1.8C944.9,538.9,945.5,538.9,946,539.2z"/>
				<path class="st14" d="M937.3,533.5l6.2,4.1c0.3,0.2,0.3,0.6-0.1,1l-2.7,1.8c-0.4,0.3-1.1,0.3-1.4,0.1l-6.2-4.1
					c-0.3-0.2-0.3-0.6,0.1-1l2.7-1.8C936.4,533.3,937,533.2,937.3,533.5z"/>
				<path class="st14" d="M928.9,527.8l6.2,4.1c0.3,0.2,0.3,0.6-0.1,1l-2.7,1.8c-0.4,0.3-1.1,0.3-1.4,0.1l-6.2-4.1
					c-0.3-0.2-0.3-0.6,0.1-1l2.7-1.8C927.8,527.5,928.5,527.5,928.9,527.8z"/>
				<path class="st14" d="M942,530.3l6.2,4.1c0.3,0.2,0.3,0.6-0.1,1l-2.7,1.8c-0.4,0.3-1.1,0.3-1.4,0.1l-6.2-4.1
					c-0.3-0.2-0.3-0.6,0.1-1l2.7-1.8C941.1,530.1,941.7,530.1,942,530.3z"/>
			</g>
			<g>
				<polygon class="st0" points="975.6,419.4 929.9,388.8 930.4,385.4 976.3,416 				"/>
				<polygon class="st0" points="959.2,425.3 927.3,404 927.8,400.5 959.8,421.9 				"/>
				<polygon class="st22" points="956.2,414.8 928.6,396.4 929.1,393 956.8,411.4 				"/>
				<polygon class="st16" points="974.3,427 960.6,417.7 961.1,414.3 975,423.6 				"/>
			</g>
			<g>
				<path class="st16" d="M950.3,385.3c-0.4,1.1-1.6,1.5-2.5,0.9c-1-0.6-1.3-2-0.9-3.1s1.6-1.5,2.5-0.9
					C950.3,382.8,950.8,384.3,950.3,385.3z"/>
				<path class="st0" d="M956.3,389.3c-0.4,1.1-1.6,1.5-2.5,0.9c-1-0.6-1.3-2-0.9-3.1c0.4-1.1,1.6-1.5,2.5-0.9
					S956.7,388.2,956.3,389.3z"/>
				<path class="st16" d="M962.3,393.3c-0.4,1.1-1.6,1.5-2.5,0.9c-1-0.6-1.3-2-0.9-3.1c0.4-1.1,1.6-1.5,2.5-0.9
					C962.3,390.8,962.7,392.1,962.3,393.3z"/>
				<path class="st22" d="M968.3,397.3c-0.4,1.1-1.6,1.5-2.5,0.9c-1-0.6-1.3-2-0.9-3.1c0.4-1.1,1.6-1.5,2.5-0.9
					C968.3,394.7,968.7,396.2,968.3,397.3z"/>
			</g>
		</g>
		<g>
			<g>
				<path class="st16" d="M975.6,257l-2.3-1.6v-3.9c0-4.2-2.6-9.3-5.7-11.4l-17.8-11.8c-3.1-2.1-5.7-0.4-5.7,3.8v3.9l-2.3-1.6v-3.9
					c0-6,3.6-8.3,8.1-5.3l17.8,11.8c4.5,3,8.1,10.2,8.1,16.1v3.9H975.6z"/>
			</g>
			<path class="st16" d="M967.5,262.3l8-5.3l-1.6-6.5l-2.2-6.6c0,0-3.8-5-4.2-5.1c-0.3-0.1-10.9-7-10.9-7l-8.7-7.4l-4.2,0.2
				l-7.8,5.1l5.5,2.7c0,0,3.2,1.8,3.8,2c0.7,0.2,3.8,3.6,3.9,3.7c0.1,0,3.8,1.8,3.8,1.8l0.9-0.1l6.8,5.5l2.2,1.2l1.2,2.2l1.8,5.9
				L967.5,262.3z"/>
			<path class="st15" d="M943.9,235.8l-8,5.3c0,0-0.5-6-0.5-6.1c0-0.1,1.7-2.9,1.7-2.9l4.4-1l3.4,3l-1.1-0.5l-0.4,0.3l0.5,1
				L943.9,235.8L943.9,235.8z"/>
			<g>
				<path class="st14" d="M967.5,262.3l-2.3-1.6v-3.9c0-4.2-2.6-9.3-5.7-11.4l-17.8-11.8c-3.1-2.1-5.7-0.4-5.7,3.8v3.9l-2.3-1.6
					v-3.9c0-6,3.6-8.3,8.1-5.3l17.8,11.8c4.5,3,8.1,10.2,8.1,16.1v3.9H967.5z"/>
			</g>
		</g>
		<g>
			<g>
				<path class="st16" d="M1056.3,256.8l-1.7-1.2c-0.7,0.5-1.5,1.2-2.2,1.7l3.9,2.7c3.1,2.1,5.7,7.2,5.7,11.4v3.9l2.3,1.6v-3.9
					C1064.3,267.1,1060.7,259.8,1056.3,256.8z"/>
			</g>
			<path class="st16" d="M1060.5,263.9c0,0-3.8-5-4.2-5.1c-0.1,0-1.4-0.9-3.1-2c-2.6,1.9-5.1,3.6-7.7,5.2l4.2,3.3l2.2,1.2l1.2,2.2
				l1.8,5.9l1.5,7.7l8-5.3l-1.6-6.5L1060.5,263.9z"/>
			<g>
				<path class="st14" d="M1048.2,265.4c3.1,2.1,5.7,7.2,5.7,11.4v3.9l2.3,1.6v-3.9c0-6-3.6-13.2-8.1-16.1l-1.5-1.1
					c-0.9,0.5-1.6,1.1-2.5,1.5L1048.2,265.4z"/>
			</g>
		</g>
	</g>
	<g>
		<g>
			<path class="st23" d="M1202.3,191.7l-27-18c-0.5-0.3-1.1-0.3-1.4-0.1l0,0l-2.6,1.7c0,0,1.2,0.5,1.8,0.7v22.7c0,1.8,1,3.9,2.1,4.8
				l25.7,17.2v2.7l2.7-1.7l0,0c0.4-0.3,0.7-1,0.7-2v-23.1C1204.4,194.7,1203.4,192.5,1202.3,191.7z"/>
			<path class="st22" d="M1199.6,223.3l-26.9-18c-1.2-0.7-2.1-3-2.1-4.8v-23c0-1.8,1-2.7,2.1-1.9l26.9,18c1.2,0.7,2.1,3,2.1,4.8
				v23.1C1201.7,223.3,1200.8,224.1,1199.6,223.3z"/>
			<path class="st0" d="M1200.2,193.1l-26.9-17.9c-0.6-0.4-1.3-0.3-1.6,0.1c0.3,0,0.6,0,1,0.3l26.9,18c1.2,0.7,2.1,3,2.1,4.8v23.1
				c0,0.9-0.2,1.5-0.5,1.8c0.7-0.1,1.2-0.9,1.2-2.1v-23.1C1202.4,196.1,1201.4,193.9,1200.2,193.1z"/>
		</g>
		<g>
			<path class="st0" d="M1181.7,197.4c0,1.4-0.9,1.9-1.8,1.2c-1-0.6-1.8-2.3-1.8-3.6c0-1.4,0.9-1.9,1.8-1.2
				C1180.9,194.4,1181.7,196,1181.7,197.4z"/>
			<path class="st0" d="M1187.2,201c0,1.4-0.9,1.9-1.8,1.2c-1-0.6-1.8-2.3-1.8-3.6c0-1.4,0.9-1.9,1.8-1.2S1187.2,199.7,1187.2,201z"
				/>
			<path class="st0" d="M1192.7,204.7c0,1.4-0.9,1.9-1.8,1.2c-1-0.6-1.8-2.3-1.8-3.6c0-1.4,0.9-1.9,1.8-1.2
				C1191.9,201.7,1192.7,203.3,1192.7,204.7z"/>
		</g>
	</g>
	<g>
		<g>
			<path class="st14" d="M1186.9,162.6l-26.9-18c-0.5-0.3-1.1-0.3-1.4-0.1l0,0l-2.6,1.7c0,0,1.2,0.5,1.8,0.7v22.7
				c0,1.8,1,3.9,2.1,4.8l25.7,17.2v2.7l2.7-1.7l0,0c0.4-0.3,0.7-1,0.7-2v-23.1C1189,165.6,1188.1,163.3,1186.9,162.6z"/>
			<path class="st16" d="M1184.3,194.2l-26.9-17.9c-1.2-0.7-2.1-3-2.1-4.8v-23.1c0-1.8,1-2.7,2.1-1.9l26.9,18c1.2,0.7,2.1,3,2.1,4.8
				v23.1C1186.5,194.2,1185.4,195,1184.3,194.2z"/>
			<path class="st0" d="M1184.9,164l-26.9-18c-0.6-0.4-1.3-0.3-1.6,0.1c0.3,0,0.6,0,1,0.3l26.9,18c1.2,0.7,2.1,3,2.1,4.8v23.1
				c0,0.9-0.2,1.5-0.5,1.8c0.7-0.1,1.2-0.9,1.2-2.1v-23.2C1187.1,167,1186.2,164.8,1184.9,164z"/>
		</g>
		<g>
			<path class="st0" d="M1166.4,168.3c0,1.4-0.9,1.9-1.8,1.2c-1-0.6-1.8-2.3-1.8-3.6c0-1.4,0.9-1.9,1.8-1.2
				C1165.6,165.3,1166.4,166.9,1166.4,168.3z"/>
			<path class="st0" d="M1171.9,171.9c0,1.4-0.9,1.9-1.8,1.2c-1-0.6-1.8-2.3-1.8-3.6c0-1.4,0.9-1.9,1.8-1.2
				C1171.1,169,1171.9,170.6,1171.9,171.9z"/>
			<path class="st0" d="M1177.4,175.6c0,1.4-0.9,1.9-1.8,1.2c-1-0.6-1.8-2.3-1.8-3.6c0-1.4,0.9-1.9,1.8-1.2
				C1176.6,172.6,1177.4,174.2,1177.4,175.6z"/>
		</g>
	</g>
	<g>
		<g>
			<g>
				<g>
					<g>
						<polygon class="st14" points="1246.4,368.8 1250.7,362.7 1239.4,352.1 1235.1,358.1 						"/>
						<path class="st14" d="M1248.1,368.9c1.4-0.6,2.8-2.6,3-4.3c0.2-1.7-0.7-2.7-2.1-2c-1.4,0.6-2.8,2.6-3,4.3
							C1245.8,368.7,1246.7,369.5,1248.1,368.9z"/>
					</g>
					<g>
						<polygon class="st14" points="1235.7,361.9 1242.7,352.1 1231.1,341.1 1224.1,351 						"/>
						<path class="st15" d="M1241.2,353.8l3.8,3.6c-0.5,2.5-2.3,5-4.3,6.1l-3.8-3.6C1237.5,357.4,1239.3,354.9,1241.2,353.8z"/>
						<path class="st14" d="M1238.5,362.1c2.3-1.1,4.5-4.2,4.9-6.9c0.4-2.9-1.2-4.3-3.5-3.3c-2.3,1.1-4.5,4.2-4.9,6.9
							C1234.6,361.6,1236.2,363,1238.5,362.1z"/>
						<path class="st14" d="M1226.9,351.1c2.3-1.1,4.5-4.2,4.9-6.9c0.4-2.9-1.2-4.3-3.5-3.3s-4.5,4.2-4.9,6.9
							S1224.6,352.2,1226.9,351.1z"/>
						
							<ellipse transform="matrix(0.5231 -0.8523 0.8523 0.5231 290.618 1211.2921)" class="st16" cx="1227.6" cy="346" rx="3.4" ry="1.9"/>
					</g>
				</g>
			</g>
			<path class="st16" d="M1248.1,364c0.5,0.5,1.1,0.3,1.2-0.5c0.1-0.9-0.2-1.9-0.7-2.5c-0.5-0.5-1.1-0.3-1.2,0.5
				C1247.3,362.4,1247.6,363.5,1248.1,364z"/>
		</g>
		<path class="st14" d="M1141.8,483.6c-1.8,0-3.6-0.5-5.3-1.7l-12.9-8.8c-0.4-0.3-0.5-0.9-0.3-1.3c0.2-0.4,0.7-0.6,1.2-0.3l12.9,8.8
			c2.8,1.9,5.9,2,8.5,0.2c2.9-1.9,4.7-5.7,4.7-9.7c0-9.8-1-21.9-1.9-34.6c-3.1-40-6.5-85.4,15.2-91.8c9.6-2.9,17.1-5.9,22.9-8.3
			c17.1-7,23.5-9.6,41,9.4c0.3,0.3,0.3,1,0,1.4c-0.3,0.4-0.9,0.4-1.2,0c-16.8-18.1-22.5-15.9-39.3-9c-6,2.5-13.3,5.4-23,8.3
			c-20.5,6.1-17.1,50.5-14.1,89.9c1,12.9,1.9,25.1,1.9,34.9c0,4.8-2.1,9.1-5.5,11.3C1145.1,483.1,1143.5,483.6,1141.8,483.6z"/>
		<g>
			<ellipse class="st17" cx="1197.2" cy="481.2" rx="26.7" ry="17.8"/>
			<g>
				<path class="st18" d="M1209.8,473.6c1.5,0.7,2.5,2.7,2.3,4.8c-0.1,1-0.2,1.9-0.3,2.3c-0.4,1.2-2,2.8-4.6,1.6
					c-2.5-1.2-8-7.1-8.2-11.1C1198.6,463.8,1205.9,471.6,1209.8,473.6z"/>
				<path class="st18" d="M1195.1,485.6c0,0,0.6,4.3,0.3,5c-0.3,0.7-2,2.5-4.6,2c-2.6-0.3-9.9-3.3-11.6-9
					c-2.6-8.7,14.3,0.6,14.3,0.6L1195.1,485.6z"/>
				<path class="st18" d="M1188,418l-0.5,66c0.1,2.3,1.4,4.3,3.1,4.6c0.2,0,0.4,0.1,0.7,0.1c1.8,0.2,2.8-0.7,3.4-1.6
					c0.4-0.7,0.7-1.7,0.7-2.7l0.7-28.1l3.6-25.2l5,44.6c0.1,1.2,0.5,2.3,1.4,3c0.5,0.4,1.3,0.7,2.3,0.7c1.4,0,2.5-1,3.1-1.7
					c0.5-0.6,0.7-1.5,0.7-2.3l-2-26.9l-0.7-34.2L1188,418z"/>
				<path class="st24" d="M1195.3,359l0.9,6c0,0,0,2-1.9,2.7c-2,0.5-2.6-1-2.6-1l-0.9-6.8L1195.3,359z"/>
				
					<ellipse transform="matrix(0.9464 -0.3231 0.3231 0.9464 -50.2274 403.467)" class="st24" cx="1190.2" cy="353" rx="7.8" ry="9.4"/>
				<path class="st14" d="M1195.1,365.1c0.1-0.1,8.4-6.2,11.4,0.2c5,10.6,4.7,44.4,3.1,48.7c-1.5,4.1-5.1,7-7.7,8.7
					c-2.2,1.5-4.8,2.5-7.4,2.5c-2.6,0-7.6-2.7-7.4-6.5c0.9-18-0.5-33.2-1.8-47.8C1185.4,370.8,1187,368.9,1195.1,365.1z"/>
				<path class="st18" d="M1199.7,431.1l5,44.6c0.1,1.2,0.5,2.3,1.4,3c0.1,0.1,0.3,0.2,0.4,0.3c-1.1-0.9-4.1-38.4-4.7-42.5
					C1201.3,432.2,1199.7,431.1,1199.7,431.1z"/>
			</g>
			<polygon class="st24" points="1168.7,367.1 1164.2,350 1166.6,349 1171.9,362.3 			"/>
			<polygon class="st24" points="1213.9,353.7 1210.6,336 1207.9,336 1208.9,350.7 			"/>
			<path class="st14" d="M1185.4,370.8c0,0-8.1,1.8-13.2-9.1c-0.4-1-1.6-1.1-2.1-0.2c-0.9,1.5-1.9,3.6-1.4,6.1
				c2.5,10.7,16.1,13,18.4,19.1C1189.5,392.8,1185.4,370.8,1185.4,370.8z"/>
			<path class="st14" d="M1200.4,362.9c0,0,6.4,0.5,7.4-5.9c0.4-3.3,0.6-5.2,0.6-6.4c0-0.7,0.6-1.4,1.3-1.3c1.5,0.2,3.9,0.7,4.3,1.9
				c0.4,1.8,1.4,10.4-4.9,23.8C1204.7,383.9,1200.4,362.9,1200.4,362.9z"/>
			<path class="st24" d="M1210.6,336l-0.1-2c0-0.7-0.2-1.4-0.5-2l-1.8-3.4l-0.4-0.6c-0.4-0.6-1.2-0.7-1.8-0.3l-0.4,0.3
				c-0.5,0.4-0.9,1.1-0.7,1.8l1,2.9l-1.2-0.2c-0.2,0-0.4,0.1-0.5,0.4l0,0c0,0.2,0.1,0.4,0.2,0.5l1.9,0.9l1.7,2.8L1210.6,336z"/>
			<path class="st24" d="M1164.1,350.1l-0.5-1.9c-0.2-0.6-0.2-1.4-0.1-2.1l0.6-3.8l0.2-0.9c0.2-0.7,0.9-1.2,1.6-1.1l0.4,0.1
				c0.6,0.1,1.1,0.6,1.3,1.4v3.1l1-0.7c0.2-0.1,0.4-0.1,0.5,0.2l0,0c0.1,0.2,0.1,0.4-0.1,0.6l-1.5,1.6l-0.9,3.7L1164.1,350.1z"/>
			<path class="st15" d="M1189.3,383.7c0.7,3.8-1.3,34,5.4,41.5c-2.6,0-7.6-2.7-7.4-6.5c0.5-12,0.1-22.8-0.6-33
				c-2.7-3.9-9.9-6.5-14.4-11.5C1172.6,374.2,1188.5,379.9,1189.3,383.7z"/>
			<path class="st0" d="M1198.1,363.4l-1.2-1.4c0,0-1.9,2.2-3.4,2.7c0,0-1.8,0.6-2.7,0.6l-0.7,2.3
				C1190.1,367.6,1196.1,367.2,1198.1,363.4z"/>
			<path class="st22" d="M1189.6,356.4c-0.3,0.2-0.6,0.2-0.9,0c-0.5-0.3-1.3-2.6-2.3-2.3c-1.6,0.2-3.8,4.2-6.7-1.3
				c-1.5-2.8-0.6-4.3-1.4-5.9c0,0,0.2,0.9,6.5-3.5c6.2-4.4,11.3,1,12.9,4.1c1.6,3.1,2.6,9.1-1.5,12.5c-0.6,0.5-5-0.4-5.1-0.9
				c-0.1-0.4,1.1-1.1,0.4-2.1C1191,356,1190.3,356,1189.6,356.4z"/>
		</g>
	</g>
	<g>
		<polygon class="st17" points="817.3,593.4 804.1,584.6 817.3,575.7 830.5,584.6 		"/>
		<polygon class="st23" points="830.5,574.6 817.3,583.4 817.3,565.7 830.5,556.9 		"/>
		<polygon class="st22" points="817.3,565.7 804.1,556.9 817.3,547.9 830.5,556.9 		"/>
		<polygon class="st22" points="817.3,583.4 804.1,574.6 804.1,556.9 817.3,565.7 		"/>
	</g>
	<g>
		<polygon class="st17" points="817.3,308 804.1,299.2 817.3,290.3 830.5,299.2 		"/>
		<polygon class="st18" points="830.5,289.2 817.3,298 817.3,280.2 830.5,271.3 		"/>
		<polygon class="st16" points="817.3,280.2 804.1,271.3 817.3,262.5 830.5,271.3 		"/>
		<polygon class="st14" points="817.3,298 804.1,289.2 804.1,271.3 817.3,280.2 		"/>
	</g>
	<g>
		<polygon class="st17" points="1030.4,606.1 1017.1,597.3 1030.4,588.4 1043.6,597.3 		"/>
		<polygon class="st18" points="1043.6,587.2 1030.4,596.1 1030.4,578.4 1043.6,569.5 		"/>
		<polygon class="st16" points="1030.4,578.4 1017.1,569.5 1030.4,560.7 1043.6,569.5 		"/>
		<polygon class="st14" points="1030.4,596.1 1017.1,587.2 1017.1,569.5 1030.4,578.4 		"/>
	</g>
</g>
</svg>
