<?xml version="1.0" encoding="utf-8"?>
<!-- Generator: Adobe Illustrator 24.0.1, SVG Export Plug-In . SVG Version: 6.00 Build 0)  -->
<svg version="1.1" id="Layer_1" xmlns="http://www.w3.org/2000/svg" xmlns:xlink="http://www.w3.org/1999/xlink" x="0px" y="0px"
	 viewBox="0 0 200 162.5" style="enable-background:new 0 0 200 162.5;" xml:space="preserve">
<style type="text/css">
	.st0{fill:#FFFFFF;fill-opacity:0;}
	.st1{fill:#60AEE2;}
	.st2{fill:none;stroke:#F99775;stroke-width:10;stroke-miterlimit:10;}
</style>
<g id="Layer_1_1_">
	<rect class="st0" width="200" height="162.5"/>
</g>
<g id="Layer_2_1_">
	<ellipse class="st1" cx="41.9" cy="30.8" rx="8" ry="6.5"/>
	<path class="st1" d="M164.4,37.5h-85c-4.4,0-8-2.9-8-6.5l0,0c0-3.6,3.6-6.5,8-6.5h85c4.4,0,8,2.9,8,6.5l0,0
		C172.4,34.6,168.8,37.5,164.4,37.5z"/>
</g>
<g id="Layer_2_2_">
	<ellipse class="st1" cx="41.9" cy="81.2" rx="8" ry="6.5"/>
	<path class="st1" d="M164.4,87.8h-85c-4.4,0-8-2.9-8-6.5l0,0c0-3.6,3.6-6.5,8-6.5h85c4.4,0,8,2.9,8,6.5l0,0
		C172.4,84.9,168.8,87.8,164.4,87.8z"/>
</g>
<g id="Layer_2_3_">
	<ellipse class="st1" cx="41.9" cy="130.4" rx="8" ry="6.5"/>
	<path class="st1" d="M164.4,137.2h-85c-4.4,0-8-2.9-8-6.5l0,0c0-3.6,3.6-6.5,8-6.5h85c4.4,0,8,2.9,8,6.5l0,0
		C172.4,134.2,168.8,137.2,164.4,137.2z"/>
</g>
<path class="st2" d="M179,56.8H22.4c-8.1,0-14.7-5.4-14.7-11.9V18.6c0-6.6,6.6-11.9,14.7-11.9H179c8.1,0,14.7,5.4,14.7,11.9v26.2
	C193.7,51.4,187.1,56.8,179,56.8z"/>
<path class="st2" d="M179,106.9H22.4c-8.1,0-14.7-5.4-14.7-11.9V68.7c0-6.6,6.6-11.9,14.7-11.9H179c8.1,0,14.7,5.4,14.7,11.9v26.2
	C193.7,101.6,187.1,106.9,179,106.9z"/>
<path class="st2" d="M179,157.1H22.4c-8.1,0-14.7-5.4-14.7-11.9V119c0-6.6,6.6-11.9,14.7-11.9H179c8.1,0,14.7,5.4,14.7,11.9v26.2
	C193.7,151.7,187.1,157.1,179,157.1z"/>
</svg>
