<?xml version="1.0" encoding="utf-8"?>
<!-- Generator: Adobe Illustrator 24.0.1, SVG Export Plug-In . SVG Version: 6.00 Build 0)  -->
<svg version="1.1" id="Layer_1" xmlns="http://www.w3.org/2000/svg" xmlns:xlink="http://www.w3.org/1999/xlink" x="0px" y="0px"
	 viewBox="0 0 200 162.5" style="enable-background:new 0 0 200 162.5;" xml:space="preserve">
<style type="text/css">
	.st0{fill:#F99775;}
	.st1{fill:#60AEE2;}
	.st2{fill:#99AFBC;}
</style>
<g>
	<path class="st0" d="M100.1,133c-22.5,0-45,0-67.5,0c-15,0-23.6-7.7-23.7-21.6c-0.1-28.3-0.1-56.5,0-84.8c0-14.6,11.8-26,27.7-26.1
		c42.4-0.2,84.8-0.2,127.2,0c15.6,0.1,27.2,11.2,27.4,25.9c0.2,29,0.2,58,0,86.9c-0.1,11.6-9.4,19.6-22.5,19.6
		C145.7,133,122.9,133,100.1,133z M99.9,12.4c-20.7,0-41.3,0-62,0c-10.1,0-16.2,5.6-16.2,14.9c0,21,0,42,0,62.9
		c0,11.9,7.5,18.9,20.4,18.9c38.5,0,77.1,0,115.6,0c12.8,0,20.3-7,20.4-18.9c0-20.7,0-41.4,0-62.1c0-10.2-5.8-15.6-16.7-15.6
		C141,12.4,120.4,12.4,99.9,12.4z"/>
	<path class="st1" d="M99.9,162.4c-10.2,0-20.3,0-30.5,0c-5.5,0-8.3-2.1-8.4-6c-0.1-3.9,2.8-6,8.2-6c1.8,0,3.7-0.1,5.5,0
		c3.3,0.1,5.1-1.3,5.8-4.3c1.5-6.3,3.5-7.7,10.4-7.7c6.3,0,12.6,0,18.9,0c5.6,0,8.3,1.9,9.3,6.9c0.7,3.8,2.9,5.4,7,5.1
		c1.8-0.1,3.7-0.1,5.5,0c4.4,0.1,7,2.2,7.2,5.7c0.2,3.6-2.6,6.2-7.1,6.3c-9.2,0.1-18.5,0-27.7,0C102.7,162.4,101.3,162.4,99.9,162.4
		z"/>
	<path class="st2" d="M55.2,90.6c-2.6,0-5.2,0.1-7.9,0c-3.9-0.2-5.8-2.6-5.7-6c0.1-3.2,2.1-5.4,5.8-5.5c4-0.1,8,0,12-0.1
		c5-0.1,7.9-2.4,8-6c0.1-3.7-2.6-6-7.6-6.4c-10.9-1-18.3-8.3-18.4-17.9c0-9.3,7.6-16.9,18.1-17.8c4.6-0.4,9.2-0.3,13.9-0.1
		c4.3,0.1,6.8,2.5,6.8,6c0,3.6-2.5,5.7-7,5.8c-3.5,0.1-7.1,0-10.6,0c-4.9,0.1-8,2.2-8.3,5.7c-0.3,3.5,2.4,6.2,7.4,6.6
		c8.1,0.7,14,4.2,17.2,11.1c5.3,11.6-3.5,24.2-17.2,24.7C59.5,90.7,57.3,90.6,55.2,90.6C55.2,90.6,55.2,90.6,55.2,90.6z"/>
	<path class="st2" d="M100.8,90.6c-2.5,0-4.9,0.1-7.4,0c-4.1-0.2-6.3-2.4-6.2-6c0.2-3.6,2.4-5.4,6.2-5.5c3.8-0.1,7.7,0,11.6-0.1
		c4.9-0.1,8-2.5,8.2-6c0.2-3.5-2.8-6.1-7.6-6.5c-11.3-1-18.5-8.2-18.3-18.3c0.1-9.6,7.9-16.9,18.8-17.6c3.4-0.2,6.8-0.2,10.2,0
		c3.9,0.2,6.3,2.2,6.5,5.9c0.2,3.4-2.7,5.8-7,5.9c-2.9,0.1-5.9-0.1-8.8,0.1c-4.2,0.2-7.2,2.8-7,6c0.2,3.6,2.5,5.3,6.3,6.3
		c4.5,1.1,9.4,2.2,13,4.7c6.5,4.4,8.2,12.4,5.5,19.3c-2.7,7.1-9.3,11.5-17.5,11.8C105.1,90.7,102.9,90.6,100.8,90.6z"/>
	<path class="st2" d="M145.5,79c2.8,0,4.9-0.1,7.1,0c3.9,0.2,5.9,2.6,5.8,5.9c0,3.2-2,5.4-5.7,5.6c-4.6,0.2-9.2,0.2-13.9,0
		c-3.8-0.1-6-2.1-6.1-5.7c-0.1-16.1-0.1-32.2,0-48.3c0-3.6,2.9-6.1,6.4-5.9c4,0.3,6.2,2.5,6.2,6.2c0.1,7.8,0.1,15.7,0.1,23.5
		C145.5,66.4,145.5,72.3,145.5,79z"/>
</g>
</svg>
