<?xml version="1.0" encoding="utf-8"?>
<!-- Generator: Adobe Illustrator 24.0.1, SVG Export Plug-In . SVG Version: 6.00 Build 0)  -->
<svg version="1.1" id="Layer_1" xmlns="http://www.w3.org/2000/svg" xmlns:xlink="http://www.w3.org/1999/xlink" x="0px" y="0px"
	 viewBox="0 0 963.5 1074.3" style="enable-background:new 0 0 963.5 1074.3;" xml:space="preserve">
<style type="text/css">
	.st0{fill:#7EC1C2;}
	.st1{fill:none;stroke:#7EC1C2;stroke-width:3;stroke-miterlimit:10;}
	.st2{fill:none;stroke:#7DC1C2;stroke-width:3;stroke-miterlimit:10;}
	.st3{fill:none;stroke:#7DC1C2;stroke-width:2;stroke-miterlimit:10;}
	.st4{fill:#7DC1C2;}
	.st5{fill:#2D566C;}
	.st6{fill:#233D4E;}
	.st7{fill:#FFFFFF;}
	.st8{fill:#F1C28C;}
	.st9{fill:#C6C6C6;}
	.st10{fill:#E35713;}
	.st11{fill:#F65D13;}
	.st12{fill:#FFD2A1;}
	.st13{fill:#774D25;}
	.st14{fill:#575656;}
	.st15{fill:#3F8989;}
	.st16{fill:#284253;}
	.st17{fill:#F7F7F7;}
	.st18{fill:#F55F13;}
	.st19{fill:none;stroke:#0B3D53;stroke-miterlimit:10;}
	.st20{fill:#F6A329;}
	.st21{fill:#FFC062;}
	.st22{fill:#F45D15;}
	.st23{fill:#BCC64F;}
	.st24{fill:#FDBC55;}
	.st25{fill:#2C556B;}
	.st26{fill:#EBEBEB;}
	.st27{fill:none;stroke:#999999;stroke-width:0.5;stroke-miterlimit:10;}
	.st28{fill-rule:evenodd;clip-rule:evenodd;fill:#408A8B;}
	.st29{fill:#B7C956;}
	.st30{fill:#F35E1B;}
	.st31{font-family:'MyriadPro-Semibold';}
	.st32{font-size:39.5428px;}
	.st33{fill:#89C9CF;}
	.st34{fill:none;stroke:#91C8D1;stroke-miterlimit:10;}
	.st35{fill:#244251;}
	.st36{fill:#58788A;}
	.st37{fill:#2D5469;}
	.st38{fill:#587789;}
	.st39{fill:#2D566B;}
	.st40{fill:#DCDCDC;}
	.st41{fill:#E7E7E7;}
	.st42{fill:#C9CBC7;}
	.st43{fill:#9F9F9F;}
	.st44{fill:#C9C9C9;}
	.st45{fill:none;stroke:#9DC4C1;stroke-width:3;stroke-miterlimit:10;}
</style>
<title>Asset 3ldpi</title>
<g>
	<g>
		<g>
			<path class="st0" d="M123.4,348.3c0,7.5-5.7,13.5-12.9,13.5c-7.1,0-12.9-6.1-12.9-13.5c0-7.5,5.7-13.5,12.9-13.5
				C117.7,334.9,123.4,341,123.4,348.3z"/>
			<path class="st1" d="M108.3,355.6c0,0-38,76.2-18.1,193"/>
		</g>
		<g>
			<path class="st2" d="M185.3,285.5c0,0-38.6,38-60.4,127.2"/>
			<ellipse class="st3" cx="124.9" cy="428.2" rx="14.8" ry="15.5"/>
		</g>
		<g>
			<path class="st2" d="M151.2,504.1c0,0-7.4-103,65.9-204.9"/>
			<path class="st4" d="M163.4,505.3c0,7.3-5.6,13.2-12.6,13.2c-6.9,0-12.6-5.9-12.6-13.2s5.6-13.2,12.6-13.2
				C157.8,492.1,163.4,497.9,163.4,505.3z"/>
		</g>
		<g>
			<path class="st0" d="M181.3,745.8c4.6,1.6,7,6.8,5.5,11.6s-6.5,7.4-11,5.8c-4.6-1.6-7-6.8-5.5-11.6S176.7,744.2,181.3,745.8z"/>
			<path class="st1" d="M182.4,757.6c0,0,38.5,42.1,114.1,53.6"/>
		</g>
		<g>
			<path class="st2" d="M145.1,679.6c0,0,15,34.2,64.8,68.1"/>
			<path class="st3" d="M222.4,741c5.3,1.9,8.1,7.8,6.4,13.4c-1.8,5.5-7.4,8.5-12.7,6.7s-8.1-7.8-6.4-13.4
				C211.6,742.2,217.3,739.2,222.4,741z"/>
		</g>
		<g>
			<path class="st2" d="M241.6,735.4c0,0-62.6-23.8-102-99.8"/>
			<path class="st4" d="M245.7,727.7c4.3,2.1,6.2,7.3,4.2,11.8s-6.9,6.5-11.3,4.5c-4.3-2.1-6.2-7.3-4.2-11.8
				S241.4,725.7,245.7,727.7z"/>
		</g>
		<g>
			<path class="st0" d="M494.6,124c-8,3-16.7-1.3-19.6-9.6c-2.9-8.4,1.2-17.6,9.2-20.6s16.7,1.3,19.6,9.6S502.6,121,494.6,124z"/>
			<path class="st1" d="M480.8,109.1c0,0-96.7-13.8-212.8,57.3"/>
		</g>
		<g>
			<path class="st2" d="M586.8,171.3c0,0-56.2-29.9-160.1-19.4"/>
			<path class="st3" d="M416.2,175.6c-9.1,3.5-19.2-1.5-22.6-11.1c-3.3-9.6,1.4-20.2,10.5-23.8c9.1-3.5,19.2,1.5,22.6,11.1
				C430.1,161.4,425.4,172.2,416.2,175.6z"/>
		</g>
		<g>
			<path class="st2" d="M340.2,220c0,0,106.6-50.6,244.9-5.7"/>
			<path class="st4" d="M344,235c-7.8,2.9-16.3-1.3-19.1-9.4c-2.8-8.2,1.2-17.2,8.9-20.1c7.8-2.9,16.3,1.3,19.1,9.4
				C355.8,223.1,351.8,232.1,344,235z"/>
		</g>
		<g>
			<path class="st0" d="M829.5,445.7c-5-7.2-3.4-17.3,3.5-22.5s16.4-3.5,21.4,3.6c5,7.2,3.4,17.3-3.5,22.5
				C843.9,454.6,834.4,452.9,829.5,445.7z"/>
			<path class="st1" d="M839.3,427.6c0,0-13.8-101.6-110.4-199.8"/>
		</g>
		<g>
			<path class="st2" d="M811.4,551.9c0,0,12-65-25.9-167.3"/>
			<path class="st3" d="M760.9,380.4c-5.7-8.3-3.9-19.8,3.9-25.8c7.9-6,18.9-4.1,24.6,4.2c5.7,8.3,3.9,19.8-3.9,25.8
				C777.6,390.6,766.6,388.7,760.9,380.4z"/>
		</g>
		<g>
			<path class="st2" d="M699.6,315.6c0,0,75.3,94.1,72,246.3"/>
			<path class="st4" d="M686.8,323.6c-4.9-7.1-3.3-16.9,3.4-21.9c6.7-5.1,16-3.5,20.9,3.5c4.8,7.1,3.3,16.9-3.4,21.9
				S691.7,330.6,686.8,323.6z"/>
		</g>
		<g>
			<path class="st0" d="M729.4,797.3c3.8-4.9,10.6-5.7,15.3-1.8s5.4,11.1,1.7,16.1c-3.8,4.9-10.6,5.7-15.3,1.8
				C726.4,809.5,725.7,802.3,729.4,797.3z"/>
			<path class="st1" d="M743,801c0,0,63.6-29.3,109.1-117.7"/>
		</g>
		<g>
			<path class="st2" d="M602.7,814.3c0,0,44.6,4.2,110.7-31.4"/>
			<path class="st3" d="M714.4,764.3c5.2-4.8,13.1-4.3,17.7,1.1c4.6,5.4,4.1,13.8-1,18.6c-5.2,4.8-13.1,4.3-17.7-1.1
				C708.8,777.4,709.2,769.1,714.4,764.3z"/>
		</g>
		<g>
			<path class="st2" d="M753.5,713.9c0,0-57.9,62.9-160.5,71.4"/>
			<path class="st4" d="M747.2,705c4.4-4.1,11.1-3.7,15,0.9c3.9,4.6,3.5,11.7-0.8,15.8c-4.4,4.1-11.1,3.7-15-0.9
				C742.4,716.2,742.9,709.1,747.2,705z"/>
		</g>
	</g>
	<g>
		<path class="st5" d="M258.6,821.6v-91.5c0,0,3.1-45.7,55-59.3c51.9-13.7,107.6-25.6,140.3-51.4h51.9c0,0,41.2,32.1,116.7,48.1
			c58,10.4,64.8,61.8,64.8,61.8l0.5,92.3L258.6,821.6L258.6,821.6z"/>
		<polygon class="st6" points="405.8,634.6 352.1,660.8 361.7,713.4 392.5,713.4 369.3,729.5 423.6,821.6 473.9,821.6 474.4,634.6 
					"/>
		<path class="st6" d="M595.4,660.8l-55-26.2h-66l-0.6,187.1h46.9l53.7-92.9l-19.5-15.4h27.5C582.5,713.4,589.9,672.5,595.4,660.8z"
			/>
		<polygon class="st7" points="405.8,634.6 458.5,821.6 485.5,821.6 540.4,634.6 		"/>
		<polygon class="st8" points="528.6,671.4 473.3,678.8 418,671.4 418,579.3 528.6,579.3 		"/>
		<polygon class="st9" points="405.8,634.6 417.3,625.8 473.3,678.8 435.5,713.4 424.4,700.4 		"/>
		<polygon class="st9" points="473.3,678.8 527.8,625.8 540.4,634.6 521.4,699.5 509.6,713.4 		"/>
		<g>
			<polygon class="st10" points="490.7,695.4 473.3,678.8 455.1,695.4 458.4,720.5 486.7,720.5 			"/>
			<polygon class="st11" points="458.4,720.5 451.6,796.9 458.5,821.6 485.5,821.6 493.8,793.4 486.7,720.5 			"/>
		</g>
		<g>
			<path class="st12" d="M563.8,459.9v-65.2c0-34.1-35.1-38.8-35.1-38.8s-74.5-0.6-109.2,0s-39.1,38.8-39.1,38.8v65.2
				c-3.7-10.1-15.3-12.8-15.3-12.8c1.3,8.4,2.7,15.9,3.4,24.8c0,0,8.1,44.9,15.5,65.8c7.4,20.8,17.4,30.5,23.4,41.8
				c6.1,11.2,24.4,40.1,66,36.2c0,0,35.5,6.4,59.8-28.9c0,0,29.7-40.1,34.3-75.5c3.1-24.1,8-44.7,11.3-66.6
				C569.5,452.3,563.8,459.9,563.8,459.9z"/>
			<path class="st13" d="M582.1,412.4c1.5-35.3,0.8-61-29-87.5c-29.7-26.5-61.1-25.6-79.7-25.6s-83.5-6.4-109.5,68.2
				c-3.4,33.4-2.3,53.4-0.4,69.1c0.5,3.7,1,7.2,1.5,10.5c0,0,11.6,2.7,15.3,12.8v-65.2c0,0,4.5-38.2,39.1-38.8
				c34.7-0.6,109.2,0,109.2,0s35.1,4.7,35.1,38.8v65.2c0,0,5.7-7.6,15-15.3c0.3-2,0.6-3.9,0.8-6
				C580.7,430.1,581.7,421.5,582.1,412.4z"/>
		</g>
		<path class="st12" d="M567.7,509.7c0,0-8.8-28.3-9.5-39.3c-0.7-10.9,12.7-44.7,30.8-25.4C607,464.3,595.9,513.9,567.7,509.7z"/>
		<path class="st14" d="M606.3,474.6c0-8.1-4-14.7-9.6-16.9c-1.9-6.4-4.9-10.5-8.4-10.7c-6.3-0.2-11.8,12.4-12.3,28.2
			c-0.5,15.8,4.2,28.8,10.4,29c3.9,0.1,7.6-4.9,9.9-12.6C602,489.6,606.3,482.9,606.3,474.6z"/>
		<path class="st12" d="M377.8,509.7c0,0,5.5-28.8,6.2-39.7c0.7-10.9-9.4-44.2-27.4-25C338.5,464.3,349.5,513.9,377.8,509.7z"/>
		<path class="st14" d="M485.4,558h-27.7c-6.7,0-12.3,3.5-14.1,8.3c-16.6-0.6-65.2-7.5-78.6-66.9c2.9-5.2,4.7-14.1,4.4-24.1
			c-0.5-15.8-6-28.4-12.3-28.2c-3.6,0.1-6.6,4.3-8.4,10.7c-5.5,2.2-9.6,8.8-9.6,16.9c0,8.2,4.2,15,9.9,17c1.7,5.6,4,9.7,6.8,11.6
			c5.3,18.8,26.3,73.9,88.2,70.3c2.2,4.2,7.4,7.2,13.6,7.2h27.7c8.1,0,14.6-5.1,14.6-11.4C500.1,563.1,493.5,558,485.4,558z"/>
	</g>
	<g>
		<polygon class="st4" points="224.3,401.3 321.8,401.3 273.1,443.8 		"/>
		<polyline class="st4" points="300.3,459.4 286.9,447.1 273.1,458.5 258.9,447.1 224.3,479.2 321.8,479.2 300.3,459.4 		"/>
		<polygon class="st4" points="211.8,409 211.8,472.5 250.1,439.6 		"/>
		<polygon class="st4" points="334.1,409 334.1,472.5 295.9,439.6 		"/>
	</g>
	<g>
		<path class="st15" d="M228.8,624.8c0,54.4-42,98.7-93.8,98.7s-93.8-44.1-93.8-98.7c0-54.4,42-98.7,93.8-98.7
			C186.9,526.2,228.8,570.4,228.8,624.8z"/>
		<g>
			<path class="st16" d="M135,707.5c-43.3,0-78.5-37-78.5-82.6s35.3-82.6,78.5-82.6c43.3,0,78.5,37,78.5,82.6
				C213.6,670.4,178.4,707.5,135,707.5z"/>
			<path class="st17" d="M135,697.2c-37.9,0-68.8-32.4-68.8-72.3c0-39.9,30.9-72.3,68.8-72.3s68.8,32.4,68.8,72.3
				C203.8,664.7,172.9,697.2,135,697.2z"/>
			<path class="st18" d="M135,552.5c0,0,32.8-2.1,55.2,29.4L135,624.3V552.5z"/>
			<g>
				<g>
					<line class="st19" x1="135" y1="697.2" x2="135" y2="686.2"/>
					<line class="st19" x1="135" y1="563.8" x2="135" y2="552.5"/>
				</g>
				<g>
					<line class="st19" x1="100.7" y1="687.5" x2="105.9" y2="677.9"/>
					<line class="st19" x1="169.4" y1="562.2" x2="164.1" y2="572"/>
				</g>
				<g>
					<line class="st19" x1="75.6" y1="661" x2="84.6" y2="655.5"/>
					<line class="st19" x1="194.6" y1="588.7" x2="185.3" y2="594.4"/>
				</g>
				<g>
					<line class="st19" x1="66.4" y1="624.8" x2="76.8" y2="624.8"/>
					<line class="st19" x1="203.8" y1="624.8" x2="193.1" y2="624.8"/>
				</g>
				<g>
					<line class="st19" x1="75.6" y1="588.7" x2="84.6" y2="594.2"/>
					<line class="st19" x1="194.6" y1="661" x2="185.3" y2="655.4"/>
				</g>
				<g>
					<line class="st19" x1="100.7" y1="562.2" x2="105.9" y2="571.8"/>
					<line class="st19" x1="169.4" y1="687.5" x2="164.1" y2="677.7"/>
				</g>
			</g>
			<g>
				<path class="st20" d="M145.3,624.8c0,5.8-4.5,10.5-9.9,10.5c-5.5,0-9.9-4.7-9.9-10.5s9.9-48,9.9-48S145.3,619,145.3,624.8z"/>
				<path class="st21" d="M143.1,624.8c0,4.4-3.4,8.1-7.6,8.1c-4.2,0-7.6-3.6-7.6-8.1c0-4.4,3.4-8.1,7.6-8.1
					C139.7,616.8,143.1,620.4,143.1,624.8z"/>
			</g>
		</g>
	</g>
	<g>
		<path class="st22" d="M298,139.1c1,3.6-1,7.5-4.5,8.5l-4,1.2c-3.5,1.1-7.1-1.1-8.1-4.7l-6.7-24.5c-1-3.6,1-7.5,4.5-8.5l4-1.2
			c3.5-1.1,7.1,1.1,8.1,4.7L298,139.1z"/>
		<path class="st23" d="M308.4,178.4c1,3.6-1,7.5-4.5,8.5l-4,1.2c-3.5,1.1-7.1-1.1-8.1-4.7l-6.7-24.5c-1-3.6,1-7.5,4.5-8.5l4-1.2
			c3.5-1.1,7.1,1.1,8.1,4.7L308.4,178.4z"/>
		<path class="st24" d="M320.3,219c1,3.6-1,7.5-4.5,8.5l-4,1.2c-3.5,1.1-7.1-1.1-8.1-4.7l-6.7-24.5c-1-3.6,1-7.5,4.5-8.5l4-1.2
			c3.5-1.1,7.1,1.1,8.1,4.7L320.3,219z"/>
		<g>
			<path class="st25" d="M138.4,140.9c-3.5,1.1-5.4,4.9-4.4,8.5l48.8,172.4c1,3.6,4.7,5.7,8.2,4.6l26.3-8.3l-53.1-185.5L138.4,140.9
				z"/>
			<path class="st26" d="M324.9,277.5L276.1,105c-1-3.6-4.7-5.7-8.2-4.6L164,133l53.1,185.5l103.4-32.3
				C323.9,285,325.9,281.1,324.9,277.5z"/>
		</g>
		<path class="st27" d="M227.7,189l-3.8,5l-16.5-18.8l-1.5,1.5l5-6.7c2.7-3.7,5.3-1,8.9,1.9C219.9,171.9,231.9,183.3,227.7,189z
			 M222.7,195.7c-5.4,7.5-0.7,15.6,11.7,25.7s21.1,13,26.6,5.6l-0.9,1.9l21.4,12.1l-1.2,1.7c-0.4,0.6-2,2.8-2.4,3.3
			c-9.6,13-29.5,2.8-50.7-14.5s-35.5-35.2-26-48.1c0.5-0.7,2.1-2.8,2.4-3.3l1.2-1.7l16.5,18.8L222.7,195.7z M283.8,237.5l-21.4-12.1
			l3.7-5c4.9-6.6,17.7,3.7,17.7,3.7c3.6,2.8,6.7,4.9,3.9,8.5l-5,6.7L283.8,237.5z"/>
	</g>
	<g>
		<ellipse class="st28" cx="662.2" cy="174.1" rx="113.3" ry="119.2"/>
		<g>
			<path class="st29" d="M684.2,237.1c-5.5,9.6-12.3,16.9-19.9,21v-23.4C671.6,234.8,678.3,235.8,684.2,237.1z"/>
			<path class="st29" d="M659.9,258.2c-7.5-4-14.3-11.3-19.8-20.8c6.9-1.7,13.5-2.5,19.8-2.7V258.2z"/>
			<path class="st29" d="M695.9,205.5c-2.3,10.8-5.8,20.6-10.2,28.9c-7.7-1.5-14.8-2.2-21.4-2.3v-28.8
				C675.9,203.4,686.5,204.3,695.9,205.5z"/>
			<path class="st29" d="M623.8,202.9c-7.8,1-14.7,2.2-20.7,3.3c-3.1-9.3-4.9-19.5-5.1-30.1h23C621.2,185.5,622.2,194.5,623.8,202.9
				z"/>
			<path class="st29" d="M704.2,107.4c2.1-0.7,4.2-1.4,6.4-2.2c9.3,7.3,17.1,16.6,22.7,27.4c-2.9,1-6.5,2.1-10.6,3.1
				C718.2,124.8,712,115.1,704.2,107.4z"/>
			<path class="st29" d="M635,235.1c-4.9,1.2-9.1,2.7-12.4,3.9c-7.7-8-13.9-17.9-18.2-29.2c6.9-1.6,13.6-2.8,20.2-3.7
				C627,217.1,630.5,226.9,635,235.1z"/>
			<path class="st29" d="M672,89.6c-0.3-0.2-0.6-0.5-0.9-0.7c12.7,1.5,24.5,6,34.7,12.9c-1.5,0.7-3.2,1.5-5.2,2.3
				C692.4,96.9,682.6,91.8,672,89.6z"/>
			<path class="st29" d="M623.6,143.7c-1.7,8.7-2.6,18.1-2.6,27.8h-23c0.3-11,2.2-21.4,5.5-31C609.3,141.6,616.1,142.7,623.6,143.7z
				"/>
			<path class="st29" d="M724.3,140.1c3.8-0.9,7.4-1.8,11.2-2.8c4.7,10.4,7.4,21.9,7.8,34.2H730
				C729.7,160.4,727.7,149.8,724.3,140.1z"/>
			<path class="st29" d="M659.9,232.1c-8.2,0.1-15.3,1.1-21.5,2.4c-4.3-8.3-7.8-18-10.1-28.8c11.2-1.5,21.8-2.2,31.6-2.4V232.1z"/>
			<path class="st29" d="M664.3,114.5c6.8-0.2,14.1-0.9,21.9-2.5c4.2,8.4,7.6,18.1,9.8,28.9c-9.5,1.3-20.1,2.2-31.8,2.3L664.3,114.5
				L664.3,114.5z"/>
			<path class="st29" d="M664.3,146.4c10.4,0,21.3-0.5,32.5-1.7c1.5,8.5,2.4,17.4,2.4,26.7h-35L664.3,146.4L664.3,146.4z"/>
			<path class="st29" d="M659.9,200.3c-11.6,0.2-22.5,1.1-32.3,2.2c-1.6-8.3-2.5-17.1-2.7-26.2H660L659.9,200.3L659.9,200.3z"/>
			<path class="st29" d="M664.3,176.2h35c-0.2,8.9-1.1,17.6-2.6,25.6c-11.2-1.2-22-1.7-32.4-1.7V176.2z"/>
			<path class="st29" d="M594.2,171.5H581c0.3-12.2,3.1-23.8,7.8-34.2c3,0.8,6.8,1.6,11.2,2.5C596.4,149.5,594.4,160.2,594.2,171.5z
				"/>
			<path class="st29" d="M601.3,135.9c-3.5-0.8-7-1.7-10.6-2.8c6-11.6,14.4-21.5,24.7-29.2c1.3,0.7,3.2,1.6,5.4,2.6
				C612.6,114.5,606,124.5,601.3,135.9z"/>
			<path class="st29" d="M659.9,171.5h-35.1c0.1-9.5,0.9-18.8,2.5-27.3c9.8,1.2,20.7,2,32.5,2.2L659.9,171.5L659.9,171.5z"/>
			<path class="st29" d="M623.9,103.8c-1.6-0.7-3.3-1.5-4.9-2.3c10-6.7,21.6-11.1,34-12.5c-0.3,0.2-0.6,0.4-0.8,0.6
				C641.7,91.8,632.1,96.7,623.9,103.8z"/>
			<path class="st29" d="M659.9,114.5v28.7c-9.9-0.1-20.6-0.9-31.9-2.4c2.3-10.8,5.6-20.5,9.8-28.8
				C644.1,113.4,651.5,114.4,659.9,114.5z"/>
			<path class="st29" d="M687.6,238c4.3,1.1,8.2,2.5,11.4,3.7c-8.8,8.3-19.2,14.1-30.7,16.4C675.6,254.1,682.1,247.1,687.6,238z"/>
			<path class="st29" d="M674.1,91.2c8.8,2.8,16.9,7.6,23.9,14.1c-2.9,1.1-6.3,2.2-9.9,3.1C684.1,101.3,679.3,95.4,674.1,91.2z"/>
			<path class="st29" d="M639.5,109.1c4.7-8.4,10.2-14.9,16.4-19.4c1.3-0.3,2.6-0.5,3.9-0.7v22.8
				C653.4,111.6,646.6,110.7,639.5,109.1z"/>
			<path class="st29" d="M657.5,259c0.2,0.1,0.4,0.2,0.5,0.2c-14.7-0.8-28.4-5.7-40.1-13.7c1.7-0.9,3.4-1.7,5.1-2.4
				C632.8,251.9,644.6,257.6,657.5,259z"/>
			<path class="st29" d="M655.8,258.1c-11.3-2.4-21.5-8-30.2-16c3.8-1.6,7.5-2.8,11.2-3.8C642.1,247.2,648.6,254.1,655.8,258.1z"/>
			<path class="st29" d="M699.7,206.1c7.6,1.2,14.3,2.6,20.1,3.9c-4.1,10.9-10.1,20.6-17.5,28.5c-4.5-1.4-8.8-2.6-12.9-3.4
				C693.7,226.8,697.2,217,699.7,206.1z"/>
			<path class="st29" d="M703.1,176.2h23c-0.2,10.4-2,20.4-5,29.6c-7-1.5-14-2.6-20.8-3.4C702,194.1,703,185.3,703.1,176.2z"/>
			<path class="st29" d="M700.6,144.3c6.7-0.8,13.4-1.9,20.2-3.3c3.2,9.4,5.1,19.8,5.3,30.6h-23
				C703.1,161.9,702.2,152.8,700.6,144.3z"/>
			<path class="st29" d="M689.7,111.3c3.8-0.8,7.6-1.8,11.5-3c7.5,7.8,13.7,17.4,18,28.3c-5.6,1.4-12.1,2.8-19.4,3.8
				C697.5,129.6,694,119.7,689.7,111.3z"/>
			<path class="st29" d="M730,176.2h13.3c-0.3,11.8-2.9,23.1-7.3,33.2c-3.8-1.1-7.5-2-11.3-2.8C727.9,197.1,729.8,186.9,730,176.2z"
				/>
			<path class="st29" d="M723.2,210.9c4.1,1.1,7.7,2.2,10.6,3.1c-5.4,10.8-13,20.1-22.2,27.6c-2.2-0.8-4.3-1.6-6.5-2.3
				C712.7,231.6,718.9,222,723.2,210.9z"/>
			<path class="st29" d="M594.2,176.2c0.2,10.9,2.1,21.2,5.3,30.8c-4.4,0.9-8.3,1.8-11.2,2.6c-4.4-10.2-7-21.4-7.3-33.3h13.2V176.2z
				"/>
			<path class="st29" d="M624.3,140.3c-6.3-0.9-12.8-2.2-19.4-3.6c4.4-11.3,10.8-21.1,18.6-29c3.1,1.2,6.8,2.5,11,3.4
				C630.1,119.6,626.6,129.4,624.3,140.3z"/>
			<path class="st29" d="M619.9,240.3c-2.4,1.1-4.2,2.1-5.4,2.8c-10-7.8-18.4-17.8-24.2-29.5c3.7-1,7.2-1.9,10.7-2.8
				C605.3,222.3,611.9,232.3,619.9,240.3z"/>
			<path class="st29" d="M684.8,109.3c-6.1,1.4-12.9,2.5-20.4,2.6V89c1.3,0.2,2.6,0.4,3.9,0.7C674.4,94.1,680.1,100.8,684.8,109.3z"
				/>
			<path class="st29" d="M636.2,108.2c-3.2-0.9-6.4-2-9.7-3.2c6.9-6.3,14.9-10.9,23.5-13.7C644.9,95.4,640.2,101.1,636.2,108.2z"/>
			<path class="st29" d="M701.6,242.8c2,0.9,3.8,1.7,5.3,2.5c-11.8,8.3-25.8,13.3-40.8,14.1c0.2-0.1,0.4-0.2,0.5-0.2
				C679.7,257.6,691.7,251.7,701.6,242.8z"/>
		</g>
		<path class="st30" d="M738.2,111.7c0,18.2-14.1,33-31.3,33c-17.4,0-31.3-14.7-31.3-33c0-18.2,14.1-33,31.3-33
			C724.3,78.7,738.2,93.5,738.2,111.7z"/>
		<text transform="matrix(0.9507 0 0 1 686.4121 125.9893)" class="st7 st31 st32">24</text>
	</g>
	<g>
		<path class="st33" d="M701.9,404.5l6.6-10.7l-8.4-5.7l-6.2,10.1c-7.1-4.5-15.3-7.5-24-8.3v-7.8H681v-11.5h-32.5v11.5h11.1v7.8
			c-28.8,2.8-51.3,28.2-51.3,59.2c0,32.8,25.3,59.4,56.6,59.4c31.2,0,56.6-26.6,56.6-59.4C721.2,431.4,713.7,415.4,701.9,404.5z
			 M664.6,501c-27.2,0-49.3-23.3-49.3-51.9s22.1-51.9,49.3-51.9s49.3,23.3,49.3,51.9S691.8,501,664.6,501z"/>
		<g>
			<g>
				<line class="st34" x1="664.6" y1="501" x2="664.6" y2="493.5"/>
				<line class="st34" x1="664.6" y1="397.3" x2="664.6" y2="405.8"/>
			</g>
			<g>
				<line class="st34" x1="639.9" y1="494.2" x2="643.6" y2="487.6"/>
				<line class="st34" x1="689.3" y1="404.2" x2="685.2" y2="411.7"/>
			</g>
			<g>
				<line class="st34" x1="621.9" y1="475.1" x2="628.2" y2="471.4"/>
				<line class="st34" x1="707.4" y1="423.2" x2="700.3" y2="427.5"/>
			</g>
			<g>
				<line class="st34" x1="615.4" y1="449.2" x2="622.6" y2="449.2"/>
				<line class="st34" x1="713.9" y1="449.2" x2="705.8" y2="449.2"/>
			</g>
			<g>
				<line class="st34" x1="621.9" y1="423.2" x2="628.2" y2="427"/>
				<line class="st34" x1="707.4" y1="475.1" x2="700.3" y2="470.9"/>
			</g>
			<g>
				<line class="st34" x1="639.9" y1="404.2" x2="643.6" y2="410.8"/>
				<line class="st34" x1="689.3" y1="494.2" x2="685.2" y2="486.7"/>
			</g>
		</g>
		<path class="st33" d="M665.2,413.1c0,0-7.9,31.1-7.9,35.8c0,4.6,3.6,8.3,7.9,8.3s7.9-3.7,7.9-8.3
			C673,444.2,665.2,413.1,665.2,413.1z M665.2,454c-2.7,0-4.9-2.3-4.9-5.1c0-2.8,2.2-5.1,4.9-5.1s4.9,2.3,4.9,5.1
			S667.9,454,665.2,454z"/>
	</g>
	<g>
		<g>
			<polygon class="st35" points="774.2,527.3 736.2,597.6 728,675.5 736.2,684.7 859.7,709.3 872.3,703.1 890.7,628.6 878.7,545.5 
							"/>
			<path class="st5" d="M728,675.5c0,0,25-94.4,46.2-148.3l104.5,18.3c0,0-1.6,140.3-6.6,157.4L728,675.5z"/>
			<polygon class="st36" points="728,675.5 733.2,656.7 874.5,684.1 872.3,703.1 			"/>
		</g>
		<g>
			<polygon class="st37" points="715.4,550.9 725.8,565.5 750.8,565.5 759.3,547.5 			"/>
			<path class="st37" d="M925.3,590.5l-14.5,11.7c0,0-21.3-6.1-23.8-12l-1.9-18.2L925.3,590.5z"/>
			<g>
				<path class="st38" d="M718.1,508.6c-3.8,8.8-8.9,31.4-8.9,31.4l6.3,10.9c26.1,7.1,43.9-3.5,43.9-3.5L769,531l113.8,22.3
					l2.3,18.8c18.9,17.2,35.4,18,40.1,18.4c4.9,0.4,10-7.9,10-7.9c2.3-7.9,2.3-22.7,1.1-32.8C810.6,500.5,718.1,508.6,718.1,508.6z"
					/>
				<path class="st39" d="M936.4,549.9c-1.1-10.2-8.9-17.2-8.9-17.2c-97.1-42.3-196.8-37.1-196.8-37.1c-7,2.8-12.7,13.2-12.7,13.2
					S810.6,500.5,936.4,549.9z"/>
			</g>
		</g>
		<g>
			<ellipse class="st17" cx="814.1" cy="608.1" rx="50.6" ry="53.3"/>
			<ellipse class="st40" cx="814.1" cy="608.1" rx="27.8" ry="29.2"/>
			<path class="st41" d="M805.4,599c9-6.3,19.1-8.5,27.5-7c-4.4-5.7-11.2-9.3-18.8-9.3c-13.4,0-24.3,11.4-24.3,25.5
				c0,2.8,0.5,5.4,1.2,7.9C793.9,609.7,798.8,603.6,805.4,599z"/>
			<g>
				<path class="st42" d="M843.9,578.3c-1.7,4.2-6.4,6.3-10.4,4.5s-6-6.7-4.3-11c1.7-4.2,6.4-6.3,10.4-4.5
					C843.8,569.1,845.6,574,843.9,578.3z"/>
				<path class="st43" d="M830.7,573c1.7-4.2,6.4-6.3,10.4-4.5c0.4,0.2,0.7,0.4,0.9,0.6c-0.7-0.7-1.5-1.3-2.4-1.7
					c-4-1.8-8.7,0.2-10.4,4.5c-1.6,3.9-0.1,8.4,3.3,10.4C830.2,579.9,829.4,576.3,830.7,573z"/>
			</g>
			<g>
				<path class="st42" d="M828,571c-1.7,4.2-6.4,6.3-10.4,4.5s-6-6.7-4.3-11c1.7-4.2,6.4-6.3,10.4-4.5
					C827.8,561.9,829.8,566.8,828,571z"/>
				<path class="st43" d="M814.8,565.7c1.7-4.2,6.4-6.3,10.4-4.5c0.4,0.2,0.7,0.4,0.9,0.6c-0.7-0.7-1.5-1.3-2.4-1.7
					c-4-1.8-8.7,0.2-10.4,4.5c-1.6,3.9-0.1,8.4,3.3,10.4C814.3,572.7,813.5,568.9,814.8,565.7z"/>
			</g>
			<g>
				<path class="st42" d="M810.7,571.9c-1.7,4.2-6.4,6.3-10.4,4.5s-6-6.7-4.3-11c1.7-4.2,6.4-6.3,10.4-4.5
					C810.5,562.7,812.4,567.7,810.7,571.9z"/>
				<path class="st43" d="M797.4,566.6c1.7-4.2,6.4-6.3,10.4-4.5c0.4,0.2,0.7,0.4,0.9,0.6c-0.7-0.7-1.5-1.3-2.4-1.7
					c-4-1.8-8.7,0.2-10.4,4.5c-1.6,3.9-0.1,8.4,3.3,10.4C797,573.5,796.2,569.8,797.4,566.6z"/>
			</g>
			<g>
				<path class="st42" d="M794.8,580.3c-1.7,4.2-6.4,6.3-10.4,4.5s-6-6.7-4.3-11c1.7-4.2,6.4-6.3,10.4-4.5
					C794.6,571.1,796.5,576,794.8,580.3z"/>
				<path class="st43" d="M781.6,574.9c1.7-4.2,6.4-6.3,10.4-4.5c0.4,0.2,0.7,0.4,0.9,0.6c-0.7-0.7-1.5-1.3-2.4-1.7
					c-4-1.8-8.7,0.2-10.4,4.5c-1.6,3.9-0.1,8.4,3.3,10.4C781.1,581.9,780.2,578.3,781.6,574.9z"/>
			</g>
			<g>
				<path class="st42" d="M785.6,595.1c-1.7,4.2-6.4,6.3-10.4,4.5s-6-6.7-4.3-11c1.7-4.2,6.4-6.3,10.4-4.5
					C785.4,585.9,787.3,590.8,785.6,595.1z"/>
				<path class="st43" d="M772.3,589.8c1.7-4.2,6.4-6.3,10.4-4.5c0.4,0.2,0.7,0.4,0.9,0.6c-0.7-0.7-1.5-1.3-2.4-1.7
					c-4-1.8-8.7,0.2-10.4,4.5c-1.6,3.9-0.1,8.4,3.3,10.4C771.9,596.6,771,593,772.3,589.8z"/>
			</g>
			<g>
				<path class="st42" d="M783.1,613.1c-1.7,4.2-6.4,6.3-10.4,4.5s-6-6.7-4.3-11c1.7-4.2,6.4-6.3,10.4-4.5
					C782.9,603.9,784.8,608.8,783.1,613.1z"/>
				<path class="st43" d="M769.8,607.7c1.7-4.2,6.4-6.3,10.4-4.5c0.4,0.2,0.7,0.4,0.9,0.6c-0.7-0.7-1.5-1.3-2.4-1.7
					c-4-1.8-8.7,0.2-10.4,4.5c-1.6,3.9-0.1,8.4,3.3,10.4C769.4,614.7,768.5,611.1,769.8,607.7z"/>
			</g>
			<g>
				<path class="st42" d="M786.8,630.9c-1.7,4.2-6.4,6.3-10.4,4.5s-6-6.7-4.3-11c1.7-4.2,6.4-6.3,10.4-4.5
					C786.6,621.8,788.5,626.7,786.8,630.9z"/>
				<path class="st43" d="M773.6,625.6c1.7-4.2,6.4-6.3,10.4-4.5c0.4,0.2,0.7,0.4,0.9,0.6c-0.7-0.7-1.5-1.3-2.4-1.7
					c-4-1.8-8.7,0.2-10.4,4.5c-1.6,3.9-0.1,8.4,3.3,10.4C773.1,632.5,772.3,628.9,773.6,625.6z"/>
			</g>
			<g>
				<path class="st42" d="M798.2,644c-1.7,4.2-6.4,6.3-10.4,4.5s-6-6.7-4.3-11c1.7-4.2,6.4-6.3,10.4-4.5S799.9,639.7,798.2,644z"/>
				<path class="st43" d="M784.8,638.6c1.7-4.2,6.4-6.3,10.4-4.5c0.4,0.2,0.7,0.4,0.9,0.6c-0.7-0.7-1.5-1.3-2.4-1.7
					c-4-1.8-8.7,0.2-10.4,4.5c-1.6,3.9-0.1,8.4,3.3,10.4C784.5,645.6,783.5,641.9,784.8,638.6z"/>
			</g>
			<g>
				<path class="st42" d="M814.1,651.2c-1.7,4.2-6.4,6.3-10.4,4.5s-6-6.7-4.3-11c1.7-4.2,6.4-6.3,10.4-4.5
					C813.8,641.9,815.8,646.8,814.1,651.2z"/>
				<path class="st43" d="M800.8,645.8c1.7-4.2,6.4-6.3,10.4-4.5c0.4,0.2,0.7,0.4,0.9,0.6c-0.7-0.7-1.5-1.3-2.4-1.7
					c-4-1.8-8.7,0.2-10.4,4.5c-1.6,3.9-0.1,8.4,3.3,10.4C800.3,652.7,799.5,649.1,800.8,645.8z"/>
			</g>
			<g>
				<path class="st42" d="M831.4,651.2c-1.7,4.2-6.4,6.3-10.4,4.5s-6-6.7-4.3-11c1.7-4.2,6.4-6.3,10.4-4.5
					C831.1,641.9,833.1,646.8,831.4,651.2z"/>
				<path class="st43" d="M818,645.8c1.7-4.2,6.4-6.3,10.4-4.5c0.4,0.2,0.7,0.4,0.9,0.6c-0.7-0.7-1.5-1.3-2.4-1.7
					c-4-1.8-8.7,0.2-10.4,4.5c-1.6,3.9-0.1,8.4,3.3,10.4C817.7,652.7,816.7,649.1,818,645.8z"/>
			</g>
			<polygon class="st44" points="836.5,632.4 855.3,644.7 847.1,652.9 			"/>
		</g>
	</g>
</g>
<ellipse class="st7" cx="479.4" cy="902.4" rx="472.1" ry="103.7"/>
<ellipse class="st36" cx="480.5" cy="908.1" rx="472.1" ry="103.7"/>
<ellipse class="st45" cx="479.4" cy="911.5" rx="427.7" ry="84.8"/>
</svg>
