<?xml version="1.0" encoding="utf-8"?>
<!-- Generator: Adobe Illustrator 24.0.1, SVG Export Plug-In . SVG Version: 6.00 Build 0)  -->
<svg version="1.1" id="Layer_1" xmlns="http://www.w3.org/2000/svg" xmlns:xlink="http://www.w3.org/1999/xlink" x="0px" y="0px"
	 viewBox="0 0 200 162.5" style="enable-background:new 0 0 200 162.5;" xml:space="preserve">
<style type="text/css">
	.st0{fill:#F99775;}
	.st1{fill:#99AFBC;}
	.st2{fill:#A2C7E0;}
	.st3{fill:#60AEE2;}
</style>
<g>
	<path class="st0" d="M91.1,1.5c2.7,0.5,5.4,1,8.1,1.6c4.7,1.2,9.1,3.2,13,6c1.7,1.1,3.4,1.6,5.4,1.6c12.4-0.1,22.7,4.4,30.6,13.5
		c1.9,2.2,4.1,3.2,7,3.6c13.2,2,23.1,8.8,28.9,20.4c10.3,20.6-0.4,44.3-22.9,51.5c-1.1,0.4-2.3,0.6-3.7,0.9c0-1.7,0.1-3.3,0-4.8
		c-0.1-3.1-0.4-6.2-0.4-9.3c0-0.5,0.7-1.2,1.3-1.4c5.9-2.4,10.1-6.4,12.6-12c6.7-15.1-5.2-31.7-22.3-31.1c-2.7,0.1-5.3,0.1-7.3-1.9
		c-0.9-0.9-1.7-1.9-2.3-3c-3.7-6.4-9.3-10.4-16.8-11.6c-2.4-0.4-5-0.3-7.4,0c-3.4,0.5-6.2-0.2-8.8-2.4C90.6,9.7,66.6,16.3,60.5,35.7
		c-1.5,4.8-4,6.5-9.3,6.3C39.7,41.6,29.9,49,27.4,59.9C25,70.1,30.9,80.9,41.2,85c1.3,0.5,1.6,0.9,1.4,2.4
		c-0.4,3.5-0.3,7.1-0.3,10.7c0,0.7,0,1.5,0,2.4c-3.5-0.5-6.6-1.7-9.6-3.2C9.1,85.5,4.5,55.9,23.4,37.9c5.8-5.5,12.7-8.8,20.7-10.1
		c2.2-0.3,3.6-1.4,4.6-3.2C56,11.3,67.3,3.7,82.9,1.8c0.3,0,0.5-0.2,0.8-0.3C86.2,1.5,88.6,1.5,91.1,1.5z"/>
	<path class="st1" d="M100,132.6c-14.5,0-29,0-43.5,0c-4.8,0-6.6-1.7-6.6-6.4c0-5,0-10,0-15c0-3.6,2.1-5.6,5.8-5.6
		c29.5,0,59,0,88.6,0c3.7,0,5.8,2,5.8,5.5c0,5.3,0,10.7,0,16c0,3.5-2.1,5.5-5.7,5.5C129.6,132.6,114.8,132.6,100,132.6z
		 M113.8,126.2c7.6,0,15,0,22.4,0c0-2.4,0-4.7,0-7c-7.6,0-15,0-22.4,0C113.8,121.6,113.8,123.9,113.8,126.2z M62.4,114.3
		c0-1.7-1.5-3-3.2-2.9c-1.8,0-3.1,1.4-3.1,3.1c0.1,1.6,1.6,3,3.3,3C61.1,117.4,62.5,115.9,62.4,114.3z"/>
	<path class="st1" d="M100.1,46.1c14.5,0,29,0,43.5,0c4.8,0,6.5,1.7,6.5,6.3c0,4.9,0,9.8,0,14.7c0,4.3-1.9,6.1-6.4,6.1
		c-21.4,0-42.8,0-64.3,0c-7.7,0-15.4,0-23.1,0c-4.6,0-6.4-1.8-6.4-6.2c0-4.9,0-9.9,0-14.8c0-4.1,1.9-5.9,6.1-6
		C70.7,46.1,85.4,46.1,100.1,46.1z M113.8,66.7c7.6,0,15,0,22.4,0c0-2.4,0-4.7,0-7c-7.6,0-15,0-22.4,0
		C113.8,62.1,113.8,64.3,113.8,66.7z M62.4,54.8c0-1.7-1.4-3.1-3.2-3c-1.7,0-3.2,1.5-3.2,3.1c0,1.7,1.4,3,3.2,3
		C61.1,57.9,62.4,56.5,62.4,54.8z"/>
	<path class="st2" d="M100,75.9c14.6,0,29.1,0,43.7,0c4.6,0,6.4,1.8,6.4,6.2c0,5.1,0,10.1,0,15.2c0,3.6-2.1,5.6-5.8,5.6
		c-29.5,0-59,0-88.6,0c-3.8,0-5.8-2-5.8-5.6c0-5.3,0-10.6,0-15.9c0-3.5,2-5.5,5.7-5.5C70.4,75.8,85.2,75.9,100,75.9z M136.3,89.4
		c-7.6,0-15,0-22.5,0c0,2.4,0,4.7,0,7c7.5,0,14.9,0,22.5,0C136.3,94.1,136.3,91.8,136.3,89.4z M59.3,87.6c1.8,0,3.1-1.3,3.1-3
		c0-1.7-1.4-3-3.2-3c-1.7,0-3.2,1.4-3.2,3.1C56.1,86.3,57.6,87.6,59.3,87.6z"/>
	<path class="st3" d="M84.5,160.6c0-1.1,0-2.1,0-3.3c-11.2,0-22.2,0-33.3,0c0-3.9,0-7.6,0-11.5c11.1,0,22.1,0,33.2,0
		c0.1-1.2,0.1-2.3,0.2-3.5c3.1,0,6.2,0,9.5,0c0-4.5,0-2.2,0-6.6c4,0,7.9,0,11.9,0c0,4.4,0,2.1,0,6.6c3.3,0,6.3,0,9.6,0
		c0,1.2,0,2.3,0,3.5c11.2,0,22.3,0,33.4,0c0,3.9,0,7.6,0,11.5c-11.1,0-22.1,0-33.2,0c-0.1,1.2-0.1,2.3-0.2,3.4
		C105.1,160.6,94.9,160.6,84.5,160.6z"/>
</g>
</svg>
