<?xml version="1.0" encoding="utf-8"?>
<!-- Generator: Adobe Illustrator 24.0.1, SVG Export Plug-In . SVG Version: 6.00 Build 0)  -->
<svg version="1.1" id="Layer_1" xmlns="http://www.w3.org/2000/svg" xmlns:xlink="http://www.w3.org/1999/xlink" x="0px" y="0px"
	 viewBox="0 0 1283.3 737.1" style="enable-background:new 0 0 1283.3 737.1;" xml:space="preserve">
<style type="text/css">
	.st0{fill:#FFFFFF;}
	.st1{fill:url(#Path_151_2_);}
	.st2{fill:url(#Path_152_2_);}
	.st3{fill:#F1F3F9;}
	.st4{fill:url(#Path_878_1_);}
	.st5{fill:url(#Path_879_1_);}
	.st6{fill:#F2F4F9;}
	.st7{fill:url(#Path_151-2_2_);}
	.st8{fill:url(#Path_152-2_2_);}
	.st9{fill:url(#Path_151-3_2_);}
	.st10{fill:url(#Path_152-3_2_);}
	.st11{fill:url(#Path_151-3_3_);}
	.st12{fill:url(#Path_152-3_3_);}
	.st13{fill:url(#SVGID_1_);}
	.st14{fill:#5793CE;}
	.st15{fill:#396CAA;}
	.st16{fill:#D4ECFF;}
	.st17{fill:#EFEFEF;}
	.st18{fill:#173D7A;}
	.st19{fill:#FAFDFF;}
	.st20{opacity:0.4;fill:#D4ECFF;}
	.st21{fill:#274F89;}
	.st22{fill:#FF2C9C;}
	.st23{fill:#D3008D;}
	.st24{fill:#FFC2B0;}
</style>
<rect x="3" class="st0" width="1277.3" height="737.1"/>
<g id="Shadows">
</g>
<g>
	<g id="Group_30_1_" transform="translate(159.07 605.079)">
		
			<linearGradient id="Path_151_2_" gradientUnits="userSpaceOnUse" x1="67.1743" y1="-181.8486" x2="67.1743" y2="-182.8501" gradientTransform="matrix(38.4 0 0 125.0701 -2194.6531 22749.2422)">
			<stop  offset="0.247" style="stop-color:#FFFFFF"/>
			<stop  offset="0.516" style="stop-color:#F8F9FD"/>
			<stop  offset="0.905" style="stop-color:#E5E9F6"/>
			<stop  offset="1" style="stop-color:#DFE4F4"/>
		</linearGradient>
		<path id="Path_151_1_" class="st1" d="M362.2,5.4l45.2-22.1v-103.1l-45.2,22.1V5.4z"/>
		
			<linearGradient id="Path_152_2_" gradientUnits="userSpaceOnUse" x1="66.9946" y1="-181.8486" x2="66.9946" y2="-182.8501" gradientTransform="matrix(38.4 0 0 125.0701 -2233.0515 22749.2422)">
			<stop  offset="0.247" style="stop-color:#FFFFFF"/>
			<stop  offset="0.641" style="stop-color:#F6F7FC"/>
			<stop  offset="1" style="stop-color:#E9EDF7"/>
		</linearGradient>
		<path id="Path_152_1_" class="st2" d="M362.2,5.4l-45.4-22.1v-103.1l45.4,22.1V5.4z"/>
		<path id="Path_153_1_" class="st3" d="M362.2-97.7L317-120l45.2-22.2l45.2,22.1L362.2-97.7z"/>
	</g>
	<g id="Group_614">
		
			<linearGradient id="Path_878_1_" gradientUnits="userSpaceOnUse" x1="553.481" y1="-180.6081" x2="553.481" y2="-181.2743" gradientTransform="matrix(41.5601 0 0 135.37 -21762.8359 25056.4102)">
			<stop  offset="0.247" style="stop-color:#FFFFFF"/>
			<stop  offset="0.882" style="stop-color:#E6EAF6"/>
			<stop  offset="1" style="stop-color:#E1E5F4"/>
		</linearGradient>
		<path id="Path_878" class="st4" d="M1220.5,607.5l38.8-16v-74.2l-38.8,16V607.5z"/>
		
			<linearGradient id="Path_879_1_" gradientUnits="userSpaceOnUse" x1="553.5472" y1="-180.6081" x2="553.5472" y2="-181.2743" gradientTransform="matrix(41.5601 0 0 135.37 -21804.3965 25056.4102)">
			<stop  offset="0.247" style="stop-color:#FFFFFF"/>
			<stop  offset="1" style="stop-color:#EBEEF7"/>
		</linearGradient>
		<path id="Path_879" class="st5" d="M1220.5,607.5l-38.8-16v-74.2l38.8,16V607.5z"/>
		<path id="Path_880" class="st6" d="M1220.5,533.2l-38.8-16l38.8-16l38.8,16L1220.5,533.2z"/>
	</g>
	<g id="Group_660" transform="translate(376.07 643.129)">
		
			<linearGradient id="Path_151-2_2_" gradientUnits="userSpaceOnUse" x1="-942.6371" y1="-180.8464" x2="-942.6371" y2="-181.6644" gradientTransform="matrix(54.046 0 0 176.04 51278.0898 31763.9551)">
			<stop  offset="0.247" style="stop-color:#FFFFFF"/>
			<stop  offset="0.516" style="stop-color:#F8F9FD"/>
			<stop  offset="0.905" style="stop-color:#E5E9F6"/>
			<stop  offset="1" style="stop-color:#DFE4F4"/>
		</linearGradient>
		<path id="Path_151-2_1_" class="st7" d="M308.7-72.2l47.2-25.5v-118.5l-47.2,25.5V-72.2z"/>
		
			<linearGradient id="Path_152-2_2_" gradientUnits="userSpaceOnUse" x1="-942.5114" y1="-180.8464" x2="-942.5114" y2="-181.665" gradientTransform="matrix(54.046 0 0 176.04 51224.0469 31763.9551)">
			<stop  offset="0.247" style="stop-color:#FFFFFF"/>
			<stop  offset="0.641" style="stop-color:#F6F7FC"/>
			<stop  offset="1" style="stop-color:#E9EDF7"/>
		</linearGradient>
		<path id="Path_152-2_1_" class="st8" d="M308.7-72.2l-47.2-25.6v-118.5l47.2,25.5V-72.2z"/>
		<path id="Path_153-2_1_" class="st3" d="M308.7-190.7l-47.2-25.5l47.2-25.4l47.2,25.5L308.7-190.7z"/>
	</g>
	<g id="Group_98_1_" transform="translate(1097.07 620.079)">
		
			<linearGradient id="Path_151-3_2_" gradientUnits="userSpaceOnUse" x1="-3690.2036" y1="-180.3995" x2="-3690.2036" y2="-180.8088" gradientTransform="matrix(54.046 0 0 176.04 199401.2031 31749.0078)">
			<stop  offset="0.247" style="stop-color:#FFFFFF"/>
			<stop  offset="0.516" style="stop-color:#F8F9FD"/>
			<stop  offset="0.905" style="stop-color:#E5E9F6"/>
			<stop  offset="1" style="stop-color:#DFE4F4"/>
		</linearGradient>
		<path id="Path_151-3" class="st9" d="M-60-8.5l40.9-25.8v-46.2L-60-54.9V-8.5z"/>
		
			<linearGradient id="Path_152-3_2_" gradientUnits="userSpaceOnUse" x1="-3689.9597" y1="-180.3995" x2="-3689.9597" y2="-180.8088" gradientTransform="matrix(54.046 0 0 176.04 199347.1563 31749.0078)">
			<stop  offset="0.247" style="stop-color:#FFFFFF"/>
			<stop  offset="0.641" style="stop-color:#F6F7FC"/>
			<stop  offset="1" style="stop-color:#E9EDF7"/>
		</linearGradient>
		<path id="Path_152-3" class="st10" d="M-60-8.5l-40.9-25.8v-46.2L-60-54.9V-8.5z"/>
		<path id="Path_153-3" class="st3" d="M-60-54.9l-41-25.7l40.9-25.7l41,25.7L-60-54.9z"/>
	</g>
	<g id="Group_98_2_" transform="translate(1097.07 620.079)">
		
			<linearGradient id="Path_151-3_3_" gradientUnits="userSpaceOnUse" x1="-3693.9177" y1="-180.4581" x2="-3693.9177" y2="-181.0283" gradientTransform="matrix(54.046 0 0 176.04 199401.2031 31749.0078)">
			<stop  offset="0.247" style="stop-color:#FFFFFF"/>
			<stop  offset="0.516" style="stop-color:#F8F9FD"/>
			<stop  offset="0.905" style="stop-color:#E5E9F6"/>
			<stop  offset="1" style="stop-color:#DFE4F4"/>
		</linearGradient>
		<path id="Path_151-3_1_" class="st11" d="M-269.1-18.8l57.6-35.9v-64.5l-57.6,35.7V-18.8z"/>
		
			<linearGradient id="Path_152-3_3_" gradientUnits="userSpaceOnUse" x1="-3693.9834" y1="-180.4581" x2="-3693.9834" y2="-181.0283" gradientTransform="matrix(54.046 0 0 176.04 199347.1563 31749.0078)">
			<stop  offset="0.247" style="stop-color:#FFFFFF"/>
			<stop  offset="0.641" style="stop-color:#F6F7FC"/>
			<stop  offset="1" style="stop-color:#E9EDF7"/>
		</linearGradient>
		<path id="Path_152-3_1_" class="st12" d="M-269.1-18.8l-57.6-35.9v-64.5l57.6,35.7V-18.8z"/>
		<path id="Path_153-3_1_" class="st3" d="M-269.1-83.4l-57.7-35.7l57.6-35.7l57.7,35.7L-269.1-83.4z"/>
	</g>
</g>
<linearGradient id="SVGID_1_" gradientUnits="userSpaceOnUse" x1="81.0211" y1="780.0294" x2="652.163" y2="-29.7671" gradientTransform="matrix(1 0 0 -1 0 738)">
	<stop  offset="0.247" style="stop-color:#FFFFFF"/>
	<stop  offset="0.516" style="stop-color:#F8F9FD"/>
	<stop  offset="0.905" style="stop-color:#E5E9F6"/>
	<stop  offset="1" style="stop-color:#DFE4F4"/>
</linearGradient>
<path class="st13" d="M0,737.1V0h741.2c-2,12.9-2.9,255.3-364.6,299.8C73.2,337.2,0,737.1,0,737.1z"/>
<g>
	<g>
		<g>
			<path class="st14" d="M1118.9,174.1c-0.5,0-0.9-0.5-0.9-1.1v-43.4c0-0.6,0.4-1.1,0.9-1.1s0.9,0.5,0.9,1.1V173
				C1119.9,173.6,1119.4,174.1,1118.9,174.1z"/>
			<g>
				<g>
					<rect x="1115.7" y="126.9" class="st14" width="6.5" height="16.3"/>
					<path class="st14" d="M1121.2,144.7c-1.3,0.9-3.3,0.9-4.6,0c-1.3-0.9-1.3-2.2,0-3.1s3.3-0.9,4.6,0S1122.5,143.9,1121.2,144.7z"
						/>
				</g>
				<g>
					<rect x="1113.7" y="104.2" class="st14" width="10.6" height="25.5"/>
					<path class="st15" d="M1115.7,129.6v5.5c1.9,1,4.6,1,6.5,0v-5.5C1120.3,128.6,1117.6,128.6,1115.7,129.6z"/>
					<path class="st14" d="M1122.7,132.2c-2.1,1.4-5.4,1.4-7.5,0c-2.1-1.4-2.1-3.6,0-5c2.1-1.4,5.4-1.4,7.5,0
						C1124.7,128.6,1124.7,130.8,1122.7,132.2z"/>
				</g>
			</g>
		</g>
		<g>
			<path class="st14" d="M1155.5,197.9c-0.5,0-0.9-0.5-0.9-1.1v-43.4c0-0.6,0.4-1.1,0.9-1.1s0.9,0.5,0.9,1.1v43.4
				C1156.4,197.5,1156,197.9,1155.5,197.9z"/>
			<g>
				<g>
					<rect x="1152.3" y="150.7" class="st14" width="6.5" height="16.3"/>
					<path class="st14" d="M1157.8,168.5c-1.3,0.9-3.3,0.9-4.6,0c-1.3-0.9-1.3-2.2,0-3.1c1.3-0.9,3.3-0.9,4.6,0
						C1159.1,166.3,1159.1,167.7,1157.8,168.5z"/>
				</g>
				<g>
					<rect x="1150.2" y="128" class="st14" width="10.6" height="25.5"/>
					<path class="st15" d="M1152.3,153.4v5.5c1.9,1,4.6,1,6.5,0v-5.5C1156.9,152.4,1154.2,152.4,1152.3,153.4z"/>
					<path class="st14" d="M1159.3,156.1c-2.1,1.4-5.4,1.4-7.5,0c-2.1-1.4-2.1-3.6,0-5c2.1-1.4,5.4-1.4,7.5,0
						C1161.3,152.4,1161.3,154.7,1159.3,156.1z"/>
				</g>
			</g>
		</g>
		<g>
			<g>
				<polygon class="st14" points="1191.1,170.4 1205.2,160.7 1191.7,141.3 1188.2,148 				"/>
				<path class="st14" d="M1088.3,63.5l22.6-15.1c0,0-0.8,15-0.8,15.1c0,0-13,4.7-13,4.7L1088.3,63.5z"/>
				<path class="st14" d="M1195,121.4c-1.7-1.1-3.4-1.8-4.9-2.1c-2.3-13.9-10.6-28.6-20.5-35.2c-3-2-5.8-3.1-8.4-3.3
					c-1.4-16.8-11.4-35.9-23.7-44.1c-6.4-4.3-12.2-4.8-16.5-2.2l0,0l-0.2,0.1c-0.1,0.1-0.2,0.1-0.3,0.2l-13.3,9.1l4.4,4
					c-4,2-6.5,7.2-6.5,14.8c0,14.1,8.5,31.2,19.1,38.2l70.9,58.6c7.9,5.3,14.3,1,14.3-9.6C1209.3,139.5,1202.9,126.7,1195,121.4z"/>
				<path class="st14" d="M1105.7,56.6l30.6-20.7c-5.9-3.6-11.3-3.9-15.3-1.4l0,0l-0.2,0.1c-0.1,0.1-0.2,0.1-0.3,0.2l-13.3,9.1
					l4.4,4C1108.8,49.4,1106.7,52.4,1105.7,56.6z"/>
				<path class="st14" d="M1162.2,117.5l22.3-15.2c-3.8-7.7-9.1-14.4-14.9-18.3c-0.8-0.5-1.5-1-2.3-1.4l-28.4,19.2L1162.2,117.5z"/>
				<path class="st16" d="M1113.4,45.7l9.9,6.6l18.2-12.4c-1.3-1.2-2.7-2.3-4.1-3.2c-2.2-1.5-4.3-2.5-6.4-3.1L1113.4,45.7z"/>
				<path class="st16" d="M1182,97.9l-17.8,12.2l6.2,8l16.2-11.1C1185.3,103.8,1183.8,100.7,1182,97.9z"/>
				<path class="st16" d="M1181,130.9c-1.7-1.1-3.4-1.8-4.9-2.1c-2.3-13.9-10.6-28.6-20.5-35.2c-3-2-5.8-3.1-8.4-3.3
					c-1.4-16.8-11.4-35.9-23.7-44.1c-13.2-8.8-23.9-1.7-23.9,15.9c0,0.6,0,1.2,0,1.8c-9.6-5.2-17.2,0.7-17.2,13.9
					c0,14.1,8.5,31.2,19.1,38.2l79.5,53.1c7.9,5.3,14.3,1,14.3-9.6C1195.3,149.1,1188.9,136.2,1181,130.9z"/>
				<g>
					<path class="st0" d="M1099.7,64c0-0.6,0-1.2,0-1.8c0,0,0,0,0-0.1c-5.3-2.4-9.9-1.4-12.8,2.5C1090,61.6,1094.5,61.2,1099.7,64z"
						/>
					<path class="st0" d="M1182.2,129.6c-1.7-1.1-3.4-1.8-4.9-2.1c-2.3-13.9-10.6-28.6-20.5-35.2c-3-2-5.8-3.1-8.4-3.3
						c-1.4-16.8-11.4-35.9-23.7-44.1c-8.2-5.5-15.5-4.8-19.7,0.8c4.4-4.3,11.1-4.5,18.6,0.5c12.3,8.2,22.3,27.3,23.7,44.1
						c2.6,0.2,5.4,1.3,8.4,3.3c9.9,6.6,18.3,21.4,20.5,35.2c1.5,0.3,3.2,0.9,4.9,2.1c7.9,5.3,14.3,18.1,14.3,28.7
						c0,3.8-0.8,6.8-2.3,8.8c2.1-1.9,3.4-5.4,3.4-10.1C1196.5,147.8,1190.1,134.9,1182.2,129.6z"/>
				</g>
				<g>
					<path class="st15" d="M1098,68.2l6,3.2l-0.3-7.6c0-0.5,0-1.1,0-1.6c0-6.8,1.8-11.7,5-13.9c3.2-2.1,7.8-1.5,12.9,1.9
						c10.9,7.3,20.5,25.1,21.7,40.5l0.3,3.9l3.4,0.3c2.1,0.2,4.3,1.1,6.7,2.7c8.7,5.8,16.5,19.3,18.6,32.1l0.5,3.2l2.8,0.5
						c1.1,0.2,2.3,0.7,3.5,1.5c6.7,4.5,12.3,15.8,12.3,24.7c0,3.3-0.8,5.8-2.2,6.7c-1.4,0.9-3.6,0.5-6.1-1.2l-79.5-53.1
						c-9.2-6.2-17.1-21.8-17.1-34.2c0-4.9,1.2-8.5,3.4-10.1c0.9-0.7,2-1,3.2-1C1094.5,66.7,1096.2,67.2,1098,68.2z"/>
				</g>
			</g>
			<g>
				<polygon class="st14" points="1137.6,125.9 1139.7,124.6 1137.7,122.8 				"/>
				<polygon class="st14" points="1131.3,93.1 1133.4,91.9 1133.4,93.1 				"/>
				<polygon class="st14" points="1143.6,118.2 1145.7,117 1141.7,112.4 				"/>
				<g>
					<path class="st14" d="M1139.1,124.6l-9.9-6.8c-0.5-0.3-0.9-1.2-0.9-1.9l0-13.3l11.8,8l0,13.3
						C1140,124.6,1139.6,124.9,1139.1,124.6z"/>
					<path class="st14" d="M1133.4,91.9l-10.7,8c-0.5,0.3-0.1,1.6,0.6,2.1l10.9,7.5l10.9,7.5c0.7,0.5,1.1-0.3,0.6-1.2l-10.6-22.6
						C1134.6,92.1,1133.8,91.5,1133.4,91.9z"/>
				</g>
				<g>
					<path class="st16" d="M1137,125.8l-9.9-6.8c-0.5-0.3-0.9-1.2-0.9-1.9l0-13.3l11.8,8l0,13.3
						C1137.9,125.8,1137.5,126.1,1137,125.8z"/>
					<path class="st16" d="M1131.2,93.1l-10.7,8c-0.5,0.3-0.1,1.6,0.6,2.1l10.9,7.5l10.9,7.5c0.7,0.5,1.1-0.3,0.6-1.2L1133,94.3
						C1132.5,93.3,1131.7,92.8,1131.2,93.1z"/>
				</g>
			</g>
		</g>
		<path class="st16" d="M1117.9,140.3c0,0.7-0.5,1.1-1,0.7c-0.6-0.4-1-1.3-1-2c0-0.7,0.5-1.1,1-0.7S1117.9,139.6,1117.9,140.3z"/>
		<path class="st16" d="M1154.6,164.5c0,0.7-0.5,1.1-1,0.7c-0.6-0.4-1-1.3-1-2c0-0.7,0.5-1.1,1-0.7
			C1154.2,162.9,1154.6,163.8,1154.6,164.5z"/>
	</g>
	<g>
		<path class="st17" d="M868.1,349.3L845.2,334c-9.5-6.4-9.5-16.7,0-23.1L866,297c4.3-2.8,4.3-7.5,0-10.3l-18.1-12.1
			c-9.5-6.4-9.5-16.7,0-23.1l22.7-15.2c9.5-6.4,25-6.4,34.5,0l14.6,9.7l-9.5,6.4l-14.6-9.7c-4.3-2.8-11.2-2.8-15.4,0l-22.7,15.2
			c-4.3,2.8-4.3,7.5,0,10.3l18.1,12.1c9.5,6.4,9.5,16.7,0,23.1l-20.8,13.9c-4.3,2.8-4.3,7.5,0,10.3l22.8,15.3L868.1,349.3z"/>
	</g>
	<g>
		<g>
			<path class="st14" d="M838.3,310.3l-0.3-0.6v2.6l0,0c-0.1,4.3,2.3,8.5,7.1,11.8l22.8,15.3l9.5-6.4l-22.8-15.3
				c-1.3-0.9-2.2-1.9-2.7-3c-5.1-0.4-9.1-3.5-12.7-7.3C838.9,308.4,838.5,309.3,838.3,310.3z"/>
			<path class="st18" d="M905.1,226.4c-9.5-6.4-25-6.4-34.5,0l-22.7,15.2c-2.8,1.9-4.8,4.1-5.9,6.5c3.7,4,7.3,8.4,13,7.7
				c-1.5-2.6-0.7-5.7,2.4-7.8l22.7-15.2c4.3-2.8,11.2-2.8,15.4,0l14.6,9.7l9.5-6.4L905.1,226.4z"/>
			<path class="st14" d="M879.3,273.7c-1-1.1-2.2-2.2-3.7-3.2l-18.1-12.1c-1.1-0.7-1.9-1.6-2.4-2.5c-5.7,0.7-9.3-3.7-13-7.7
				c-0.4,0.8-0.7,1.7-0.9,2.6l-0.3-0.4v2.8l0,0c0,4.2,2.4,8.4,7.1,11.6l18.1,12.1c2.8,1.9,3.7,4.5,2.9,6.9
				C872.6,282.6,875.6,277.2,879.3,273.7z"/>
			<path class="st18" d="M882.4,279.6c-0.5-2.1-1.5-4.1-3.1-5.9c-3.7,3.6-6.6,8.9-10.4,10.1c-0.5,1.3-1.4,2.5-2.9,3.4L845.2,301
				c-2.8,1.9-4.7,4.1-5.9,6.4c3.6,3.8,7.6,6.9,12.7,7.3c-1.1-2.5-0.2-5.3,2.7-7.3l20.8-13.9c4.7-3.2,7.1-7.3,7.1-11.4l0,0V282v0
				v-2.8L882.4,279.6z"/>
			<g>
				<path class="st0" d="M847.9,261.8l18.1,12.1c1.9,1.3,3,2.9,3.2,4.6c0.2-2.1-0.8-4.2-3.2-5.7l-18.1-12.1c-4.5-3-6.9-7-7.1-11
					C840.5,254,842.9,258.5,847.9,261.8z"/>
				<path class="st0" d="M868.1,335.3L845.2,320c-4.5-3-6.9-7-7.1-11c-0.2,4.4,2.1,8.8,7.1,12.1l22.8,15.3l9.5-6.4l-0.9-0.6
					L868.1,335.3z"/>
				<path class="st0" d="M910.2,238.5l-14.6-9.7c-4.3-2.8-11.2-2.8-15.4,0l-22.7,15.2c-2.4,1.6-3.4,3.7-3.2,5.7
					c0.2-1.7,1.2-3.3,3.2-4.6l22.7-15.2c4.3-2.8,11.2-2.8,15.4,0l14.6,9.7l9.5-6.4l-0.9-0.6L910.2,238.5z"/>
				<path class="st0" d="M875.5,289.4l-20.8,13.9c-2.4,1.6-3.4,3.7-3.2,5.7c0.2-1.7,1.2-3.3,3.2-4.6l20.8-13.9
					c5-3.3,7.3-7.8,7.1-12.1C882.4,282.5,880.1,286.4,875.5,289.4z"/>
			</g>
			<g>
				<g>
					<path class="st16" d="M868.1,336.5l-22.8-15.3c-9.5-6.4-9.5-16.7,0-23.1l20.8-13.9c4.3-2.8,4.3-7.5,0-10.3l-18.1-12.1
						c-9.5-6.4-9.5-16.7,0-23.1l22.7-15.2c9.5-6.4,25-6.4,34.5,0l14.6,9.7l-9.5,6.4l-14.6-9.7c-4.3-2.8-11.2-2.8-15.4,0l-22.7,15.2
						c-4.3,2.8-4.3,7.5,0,10.3l18.1,12.1c9.5,6.4,9.5,16.7,0,23.1l-20.8,13.9c-4.3,2.8-4.3,7.5,0,10.3l22.8,15.3L868.1,336.5z"/>
				</g>
				<g>
					<path class="st14" d="M879.5,327.9L879.5,327.9c-0.4-0.3-1-0.3-1.6,0.1l-10.5,7c-1.2,0.8-2.2,2.8-2.2,4.4
						c0,0.8,0.2,1.3,0.6,1.6l11.3,7.6l13.6-13.3L879.5,327.9z"/>
					<path class="st14" d="M889.1,335.6l-10.5,7c-1.2,0.8-2.2,2.8-2.2,4.4c0,1.6,1,2.3,2.2,1.5l10.5-7c1.2-0.8,2.2-2.8,2.2-4.4
						C891.3,335.4,890.3,334.8,889.1,335.6z"/>
				</g>
			</g>
		</g>
		<path class="st14" d="M908.9,221.7L908.9,221.7c-0.4-0.3-1-0.3-1.6,0.1l-10.5,7c-1.2,0.8-2.2,2.8-2.2,4.4c0,0.8,0.2,1.3,0.6,1.6
			l11.3,7.6l13.6-13.3L908.9,221.7z"/>
		<g>
			<g>
				<g>
					<path class="st17" d="M959.5,317.9l-54.6-36.1c-2-1.3-1.7-3.7,0.6-5.2l31.4-21c2.3-1.5,5.8-1.7,7.8-0.4l54.6,36.1
						c2,1.3,1.7,3.7-0.6,5.2l-31.4,21C965,319.1,961.5,319.3,959.5,317.9z"/>
					<path class="st15" d="M1004.2,279.2L1004.2,279.2V131.5l-50.7-15.4l-9.3-6.2c-2.1-1.4-5.9-1.3-8.4,0.4l-8.7,5.8l-27,0l8,142.6
						c-0.1,1,0.4,1.9,1.4,2.6l50.6,44.2c2.1,1.4,5.9,1.3,8.4-0.4l33.7-22.5C1003.6,281.6,1004.3,280.3,1004.2,279.2z"/>
					<path class="st16" d="M940.2,108.9c-1.6,0-3.2,0.5-4.5,1.4l-8.7,5.8l-27,0v148.1c-0.1,1,0.4,1.9,1.4,2.6l58.6,38.7
						c1,0.7,2.4,1,3.9,1l0.6-149L940.2,108.9z"/>
					<path class="st14" d="M960.6,305.8c1.8,0.9,4.5,0.9,6.7-0.1v-150h-6.7V305.8z"/>
					<path class="st16" d="M960,157.4l-58.6-38.7c-2.1-1.4-1.9-3.9,0.6-5.6l33.7-22.5c2.5-1.7,6.2-1.8,8.4-0.4l58.6,38.7
						c2.1,1.4,1.9,3.9-0.6,5.6L968.4,157C965.9,158.7,962.2,158.9,960,157.4z"/>
					<path class="st19" d="M1002.1,131.7l-33.7,22.5c-2.5,1.7-6.2,1.8-8.4,0.4L901.4,116c-0.5-0.3-0.8-0.7-1.1-1.1
						c-0.7,1.4-0.4,2.9,1.1,3.8l58.6,38.7c2.1,1.4,5.9,1.3,8.4-0.4l33.7-22.5c1.9-1.3,2.5-3.1,1.7-4.5
						C1003.5,130.6,1002.9,131.2,1002.1,131.7z"/>
					<g>
						<path class="st18" d="M961.7,141.8l-39-26.2c-1-0.7-0.9-1.8,0.3-2.6l15.8-10.5c1.2-0.8,2.9-0.9,3.9-0.2l39,26.2
							c1,0.7,0.9,1.8-0.3,2.6l-15.8,10.5C964.5,142.3,962.7,142.4,961.7,141.8z"/>
						<g>
							<path class="st16" d="M940.6,116.7l-2.3-1.5c-0.1-0.1-0.1-0.3,0-0.4l2.2-1.5c0.2-0.1,0.4-0.1,0.5,0l2.3,1.5
								c0.1,0.1,0.1,0.3,0,0.4l-2.2,1.5C941,116.8,940.8,116.8,940.6,116.7z"/>
							<path class="st16" d="M948.2,121.8l-2.3-1.5c-0.1-0.1-0.1-0.3,0-0.4l2.2-1.5c0.2-0.1,0.4-0.1,0.5,0l2.3,1.5
								c0.1,0.1,0.1,0.3,0,0.4l-2.2,1.5C948.6,121.9,948.3,121.9,948.2,121.8z"/>
							<path class="st16" d="M955.7,126.8l-2.3-1.5c-0.1-0.1-0.1-0.3,0-0.4l2.2-1.5c0.2-0.1,0.4-0.1,0.5,0l2.3,1.5
								c0.1,0.1,0.1,0.3,0,0.4l-2.2,1.5C956.1,126.9,955.9,126.9,955.7,126.8z"/>
							<path class="st16" d="M963.3,131.8l-2.3-1.5c-0.1-0.1-0.1-0.3,0-0.4l2.2-1.5c0.2-0.1,0.4-0.1,0.5,0l2.3,1.5
								c0.1,0.1,0.1,0.3,0,0.4l-2.2,1.5C963.7,131.9,963.4,131.9,963.3,131.8z"/>
						</g>
						<path class="st14" d="M922.7,115.6L922.7,115.6c0.1,0,0.2-0.1,0.3-0.2l15.8-10.5c1.2-0.8,2.9-0.9,3.9-0.2l39,26.2
							c0.9-0.8,1-1.8,0-2.4l-39-26.2c-1-0.7-2.8-0.6-3.9,0.2L923,112.9C921.8,113.7,921.7,114.9,922.7,115.6z"/>
					</g>
				</g>
				<g>
					<path class="st18" d="M975,186.7l22.2-14.7c1.2-0.8,2.3-3.1,2.3-5v-9.2c0-1.9-1-2.8-2.3-2L975,170.5c-1.2,0.8-2.3,3.1-2.3,5
						v9.2C972.7,186.6,973.7,187.5,975,186.7z"/>
					<path class="st0" d="M998.3,155.5c0.3,0.4,0.6,1,0.6,1.9v9.2c0,1.9-1,4.2-2.3,5l-22.2,14.7c-0.4,0.3-0.8,0.3-1.1,0.3
						c0.4,0.5,1,0.5,1.7,0.1l22.2-14.7c1.2-0.8,2.3-3.1,2.3-5v-9.2C999.4,156.5,999,155.7,998.3,155.5z"/>
					<g>
						<path class="st15" d="M981.7,176.7l2-1.4c0.3-0.2,0.5-0.7,0.5-1.1v-2.5c0-0.4-0.2-0.6-0.5-0.4l-2,1.4
							c-0.3,0.2-0.5,0.7-0.5,1.1v2.5C981.2,176.7,981.4,176.9,981.7,176.7z"/>
						<path class="st0" d="M988.5,172.2l2-1.4c0.3-0.2,0.5-0.7,0.5-1.1v-2.5c0-0.4-0.2-0.6-0.5-0.4l-2,1.4c-0.3,0.2-0.5,0.7-0.5,1.1
							v2.5C988,172.2,988.2,172.4,988.5,172.2z"/>
					</g>
				</g>
				<g>
					<path class="st18" d="M975,253.1l22.2-14.7c1.2-0.8,2.3-3.1,2.3-5v-9.2c0-1.9-1-2.8-2.3-2L975,236.9c-1.2,0.8-2.3,3.1-2.3,5
						v9.2C972.7,253,973.7,253.9,975,253.1z"/>
					<path class="st0" d="M998.3,221.9c0.3,0.4,0.6,1,0.6,1.9v9.2c0,1.9-1,4.2-2.3,5l-22.2,14.7c-0.4,0.3-0.8,0.3-1.1,0.3
						c0.4,0.5,1,0.5,1.7,0.1l22.2-14.7c1.2-0.8,2.3-3.1,2.3-5v-9.2C999.4,222.9,999,222.1,998.3,221.9z"/>
					<g>
						<path class="st15" d="M981.7,243.1l2-1.4c0.3-0.2,0.5-0.7,0.5-1.1v-2.5c0-0.4-0.2-0.6-0.5-0.4l-2,1.4
							c-0.3,0.2-0.5,0.7-0.5,1.1v2.5C981.2,243.1,981.4,243.3,981.7,243.1z"/>
						<path class="st0" d="M988.5,238.6l2-1.4c0.3-0.2,0.5-0.7,0.5-1.1v-2.5c0-0.4-0.2-0.6-0.5-0.4l-2,1.4c-0.3,0.2-0.5,0.7-0.5,1.1
							v2.5C988,238.5,988.2,238.7,988.5,238.6z"/>
					</g>
				</g>
				<g>
					<path class="st18" d="M975,286.3l22.2-14.7c1.2-0.8,2.3-3.1,2.3-5v-9.2c0-1.9-1-2.8-2.3-2L975,270.1c-1.2,0.8-2.3,3.1-2.3,5
						v9.2C972.7,286.2,973.7,287.1,975,286.3z"/>
					<path class="st0" d="M998.3,255.1c0.3,0.4,0.6,1,0.6,1.9v9.2c0,1.9-1,4.2-2.3,5l-22.2,14.7c-0.4,0.3-0.8,0.3-1.1,0.3
						c0.4,0.5,1,0.5,1.7,0.1l22.2-14.7c1.2-0.8,2.3-3.1,2.3-5v-9.2C999.4,256.1,999,255.3,998.3,255.1z"/>
					<g>
						<path class="st15" d="M981.7,276.3l2-1.4c0.3-0.2,0.5-0.7,0.5-1.1v-2.5c0-0.4-0.2-0.6-0.5-0.4l-2,1.4
							c-0.3,0.2-0.5,0.7-0.5,1.1v2.5C981.2,276.3,981.4,276.5,981.7,276.3z"/>
						<path class="st0" d="M988.5,271.7l2-1.4c0.3-0.2,0.5-0.7,0.5-1.1v-2.5c0-0.4-0.2-0.6-0.5-0.4l-2,1.4c-0.3,0.2-0.5,0.7-0.5,1.1
							v2.5C988,271.7,988.2,271.9,988.5,271.7z"/>
					</g>
				</g>
				<g>
					<path class="st18" d="M975,219.9l22.2-14.7c1.2-0.8,2.3-3.1,2.3-5V191c0-1.9-1-2.8-2.3-2L975,203.7c-1.2,0.8-2.3,3.1-2.3,5v9.2
						C972.7,219.8,973.7,220.7,975,219.9z"/>
					<path class="st0" d="M998.3,188.7c0.3,0.4,0.6,1,0.6,1.9v9.2c0,1.9-1,4.2-2.3,5l-22.2,14.7c-0.4,0.3-0.8,0.3-1.1,0.3
						c0.4,0.5,1,0.5,1.7,0.1l22.2-14.7c1.2-0.8,2.3-3.1,2.3-5V191C999.4,189.7,999,188.9,998.3,188.7z"/>
					<g>
						<path class="st15" d="M981.7,209.9l2-1.4c0.3-0.2,0.5-0.7,0.5-1.1v-2.5c0-0.4-0.2-0.6-0.5-0.4l-2,1.4
							c-0.3,0.2-0.5,0.7-0.5,1.1v2.5C981.2,209.9,981.4,210.1,981.7,209.9z"/>
						<path class="st0" d="M988.5,205.4l2-1.4c0.3-0.2,0.5-0.7,0.5-1.1v-2.5c0-0.4-0.2-0.6-0.5-0.4l-2,1.4c-0.3,0.2-0.5,0.7-0.5,1.1
							v2.5C988,205.3,988.2,205.5,988.5,205.4z"/>
					</g>
				</g>
			</g>
			<g>
				<path class="st14" d="M955.8,177.3l-51.2-34.2c-1.1-0.8-2.1-2.8-2.1-4.6v-11.3c0-1.8,0.9-2.6,2.1-1.8l51.2,34.2
					c1.1,0.8,2.1,2.8,2.1,4.6v11.3C957.9,177.2,956.9,178.1,955.8,177.3z"/>
				<path class="st20" d="M954.3,173.3l-48.2-32.3c-0.6-0.4-1.1-1.4-1.1-2.3v-8.5c0-0.9,0.5-1.3,1.1-0.9l48.2,32.3
					c0.6,0.4,1.1,1.4,1.1,2.3v8.5C955.4,173.3,954.9,173.7,954.3,173.3z"/>
				<path class="st16" d="M916.1,143.5l-7.2-4.8c-0.6-0.4-1-1.4-1-2.3l0,0c0-0.9,0.5-1.3,1-0.9l7.2,4.8c0.6,0.4,1,1.4,1,2.3l0,0
					C917.1,143.5,916.7,143.9,916.1,143.5z"/>
				<path class="st18" d="M922.3,146c0,0.9-0.5,1.2-1.2,0.8c-0.7-0.4-1.2-1.5-1.2-2.4c0-0.9,0.5-1.2,1.2-0.8
					C921.7,144.1,922.3,145.2,922.3,146z"/>
				<path class="st18" d="M926.4,148.8c0,0.9-0.5,1.2-1.2,0.8c-0.7-0.4-1.2-1.5-1.2-2.4c0-0.9,0.5-1.2,1.2-0.8
					C925.9,146.9,926.4,147.9,926.4,148.8z"/>
				<path class="st16" d="M930.6,151.6c0,0.9-0.5,1.2-1.2,0.8c-0.7-0.4-1.2-1.5-1.2-2.4c0-0.9,0.5-1.2,1.2-0.8
					C930.1,149.7,930.6,150.7,930.6,151.6z"/>
				<path class="st18" d="M934.7,154.4c0,0.9-0.5,1.2-1.2,0.8c-0.7-0.4-1.2-1.5-1.2-2.4c0-0.9,0.5-1.2,1.2-0.8
					C934.2,152.4,934.7,153.5,934.7,154.4z"/>
				<path class="st18" d="M952.3,168.6l-2.4-1.6c-0.4-0.2-0.7-0.9-0.7-1.5v-3c0-0.6,0.3-0.8,0.7-0.6l2.4,1.6
					c0.4,0.2,0.7,0.9,0.7,1.5v3C952.9,168.6,952.6,168.8,952.3,168.6z"/>
			</g>
			<g>
				<path class="st14" d="M955.8,197.2L904.6,163c-1.1-0.8-2.1-2.8-2.1-4.6v-11.3c0-1.8,0.9-2.6,2.1-1.8l51.2,34.2
					c1.1,0.8,2.1,2.8,2.1,4.6v11.3C957.9,197.2,956.9,198,955.8,197.2z"/>
				<path class="st20" d="M954.3,193.3L906.1,161c-0.6-0.4-1.1-1.4-1.1-2.3v-8.5c0-0.9,0.5-1.3,1.1-0.9l48.2,32.3
					c0.6,0.4,1.1,1.4,1.1,2.3v8.5C955.4,193.2,954.9,193.6,954.3,193.3z"/>
				<path class="st16" d="M916.1,163.4l-7.2-4.8c-0.6-0.4-1-1.4-1-2.3l0,0c0-0.9,0.5-1.3,1-0.9l7.2,4.8c0.6,0.4,1,1.4,1,2.3l0,0
					C917.1,163.4,916.7,163.8,916.1,163.4z"/>
				<path class="st0" d="M922.3,166c0,0.9-0.5,1.2-1.2,0.8c-0.7-0.4-1.2-1.5-1.2-2.4s0.5-1.2,1.2-0.8
					C921.7,164,922.3,165.1,922.3,166z"/>
				<path class="st18" d="M926.4,168.7c0,0.9-0.5,1.2-1.2,0.8c-0.7-0.4-1.2-1.5-1.2-2.4c0-0.9,0.5-1.2,1.2-0.8
					C925.9,166.8,926.4,167.9,926.4,168.7z"/>
				<path class="st16" d="M930.6,171.5c0,0.9-0.5,1.2-1.2,0.8c-0.7-0.4-1.2-1.5-1.2-2.4c0-0.9,0.5-1.2,1.2-0.8
					C930.1,169.6,930.6,170.7,930.6,171.5z"/>
				<path class="st18" d="M934.7,174.3c0,0.9-0.5,1.2-1.2,0.8c-0.7-0.4-1.2-1.5-1.2-2.4c0-0.9,0.5-1.2,1.2-0.8
					C934.2,172.4,934.7,173.4,934.7,174.3z"/>
				<path class="st18" d="M952.3,188.5l-2.4-1.6c-0.4-0.2-0.7-0.9-0.7-1.5v-3c0-0.6,0.3-0.8,0.7-0.6l2.4,1.6
					c0.4,0.2,0.7,0.9,0.7,1.5v3C952.9,188.5,952.6,188.8,952.3,188.5z"/>
			</g>
			<g>
				<path class="st14" d="M955.8,217.2l-51.2-34.2c-1.1-0.8-2.1-2.8-2.1-4.6V167c0-1.8,0.9-2.6,2.1-1.8l51.2,34.2
					c1.1,0.8,2.1,2.8,2.1,4.6v11.3C957.9,217.1,956.9,217.9,955.8,217.2z"/>
				<path class="st20" d="M954.3,213.2l-48.2-32.3c-0.6-0.4-1.1-1.4-1.1-2.3v-8.5c0-0.9,0.5-1.3,1.1-0.9l48.2,32.3
					c0.6,0.4,1.1,1.4,1.1,2.3v8.5C955.4,213.2,954.9,213.6,954.3,213.2z"/>
				<path class="st16" d="M916.1,183.4l-7.2-4.8c-0.6-0.4-1-1.4-1-2.3l0,0c0-0.9,0.5-1.3,1-0.9l7.2,4.8c0.6,0.4,1,1.4,1,2.3l0,0
					C917.1,183.3,916.7,183.7,916.1,183.4z"/>
				<path class="st0" d="M922.3,185.9c0,0.9-0.5,1.2-1.2,0.8c-0.7-0.4-1.2-1.5-1.2-2.4c0-0.9,0.5-1.2,1.2-0.8
					C921.7,184,922.3,185,922.3,185.9z"/>
				<path class="st18" d="M926.4,188.7c0,0.9-0.5,1.2-1.2,0.8c-0.7-0.4-1.2-1.5-1.2-2.4s0.5-1.2,1.2-0.8
					C925.9,186.7,926.4,187.8,926.4,188.7z"/>
				<path class="st16" d="M930.6,191.5c0,0.9-0.5,1.2-1.2,0.8c-0.7-0.4-1.2-1.5-1.2-2.4c0-0.9,0.5-1.2,1.2-0.8
					C930.1,189.5,930.6,190.6,930.6,191.5z"/>
				<path class="st18" d="M934.7,194.2c0,0.9-0.5,1.2-1.2,0.8c-0.7-0.4-1.2-1.5-1.2-2.4c0-0.9,0.5-1.2,1.2-0.8
					C934.2,192.3,934.7,193.4,934.7,194.2z"/>
				<path class="st18" d="M952.3,208.5l-2.4-1.6c-0.4-0.2-0.7-0.9-0.7-1.5v-3c0-0.6,0.3-0.8,0.7-0.6l2.4,1.6
					c0.4,0.2,0.7,0.9,0.7,1.5v3C952.9,208.4,952.6,208.7,952.3,208.5z"/>
			</g>
			<g>
				<path class="st14" d="M955.8,237.1l-51.2-34.2c-1.1-0.8-2.1-2.8-2.1-4.6V187c0-1.8,0.9-2.6,2.1-1.8l51.2,34.2
					c1.1,0.8,2.1,2.8,2.1,4.6v11.3C957.9,237,956.9,237.8,955.8,237.1z"/>
				<path class="st20" d="M954.3,233.1l-48.2-32.3c-0.6-0.4-1.1-1.4-1.1-2.3V190c0-0.9,0.5-1.3,1.1-0.9l48.2,32.3
					c0.6,0.4,1.1,1.4,1.1,2.3v8.5C955.4,233.1,954.9,233.5,954.3,233.1z"/>
				<path class="st16" d="M916.1,203.3l-7.2-4.8c-0.6-0.4-1-1.4-1-2.3l0,0c0-0.9,0.5-1.3,1-0.9l7.2,4.8c0.6,0.4,1,1.4,1,2.3l0,0
					C917.1,203.3,916.7,203.7,916.1,203.3z"/>
				<path class="st18" d="M922.3,205.8c0,0.9-0.5,1.2-1.2,0.8c-0.7-0.4-1.2-1.5-1.2-2.4c0-0.9,0.5-1.2,1.2-0.8
					C921.7,203.9,922.3,204.9,922.3,205.8z"/>
				<path class="st18" d="M926.4,208.6c0,0.9-0.5,1.2-1.2,0.8c-0.7-0.4-1.2-1.5-1.2-2.4c0-0.9,0.5-1.2,1.2-0.8
					C925.9,206.7,926.4,207.7,926.4,208.6z"/>
				<path class="st16" d="M930.6,211.4c0,0.9-0.5,1.2-1.2,0.8c-0.7-0.4-1.2-1.5-1.2-2.4s0.5-1.2,1.2-0.8
					C930.1,209.4,930.6,210.5,930.6,211.4z"/>
				<path class="st18" d="M934.7,214.2c0,0.9-0.5,1.2-1.2,0.8c-0.7-0.4-1.2-1.5-1.2-2.4c0-0.9,0.5-1.2,1.2-0.8
					C934.2,212.2,934.7,213.3,934.7,214.2z"/>
				<path class="st16" d="M952.3,228.4l-2.4-1.6c-0.4-0.2-0.7-0.9-0.7-1.5v-3c0-0.6,0.3-0.8,0.7-0.6l2.4,1.6
					c0.4,0.2,0.7,0.9,0.7,1.5v3C952.9,228.4,952.6,228.6,952.3,228.4z"/>
			</g>
			<g>
				<path class="st14" d="M955.8,257l-51.2-34.2c-1.1-0.8-2.1-2.8-2.1-4.6v-11.3c0-1.8,0.9-2.6,2.1-1.8l51.2,34.2
					c1.1,0.8,2.1,2.8,2.1,4.6v11.3C957.9,257,956.9,257.8,955.8,257z"/>
				<path class="st20" d="M954.3,253l-48.2-32.3c-0.6-0.4-1.1-1.4-1.1-2.3V210c0-0.9,0.5-1.3,1.1-0.9l48.2,32.3
					c0.6,0.4,1.1,1.4,1.1,2.3v8.5C955.4,253,954.9,253.4,954.3,253z"/>
				<path class="st16" d="M916.1,223.2l-7.2-4.8c-0.6-0.4-1-1.4-1-2.3l0,0c0-0.9,0.5-1.3,1-0.9l7.2,4.8c0.6,0.4,1,1.4,1,2.3l0,0
					C917.1,223.2,916.7,223.6,916.1,223.2z"/>
				<path class="st18" d="M922.3,225.7c0,0.9-0.5,1.2-1.2,0.8c-0.7-0.4-1.2-1.5-1.2-2.4c0-0.9,0.5-1.2,1.2-0.8
					C921.7,223.8,922.3,224.9,922.3,225.7z"/>
				<path class="st0" d="M926.4,228.5c0,0.9-0.5,1.2-1.2,0.8c-0.7-0.4-1.2-1.5-1.2-2.4c0-0.9,0.5-1.2,1.2-0.8
					C925.9,226.6,926.4,227.7,926.4,228.5z"/>
				<path class="st16" d="M930.6,231.3c0,0.9-0.5,1.2-1.2,0.8c-0.7-0.4-1.2-1.5-1.2-2.4c0-0.9,0.5-1.2,1.2-0.8
					C930.1,229.4,930.6,230.4,930.6,231.3z"/>
				<path class="st0" d="M934.7,234.1c0,0.9-0.5,1.2-1.2,0.8c-0.7-0.4-1.2-1.5-1.2-2.4s0.5-1.2,1.2-0.8
					C934.2,232.2,934.7,233.2,934.7,234.1z"/>
				<path class="st16" d="M952.3,248.3l-2.4-1.6c-0.4-0.2-0.7-0.9-0.7-1.5v-3c0-0.6,0.3-0.8,0.7-0.6l2.4,1.6
					c0.4,0.2,0.7,0.9,0.7,1.5v3C952.9,248.3,952.6,248.6,952.3,248.3z"/>
			</g>
			<g>
				<path class="st14" d="M955.8,276.9l-51.2-34.2c-1.1-0.8-2.1-2.8-2.1-4.6v-11.3c0-1.8,0.9-2.6,2.1-1.8l51.2,34.2
					c1.1,0.8,2.1,2.8,2.1,4.6v11.3C957.9,276.9,956.9,277.7,955.8,276.9z"/>
				<path class="st20" d="M954.3,273l-48.2-32.3c-0.6-0.4-1.1-1.4-1.1-2.3v-8.5c0-0.9,0.5-1.3,1.1-0.9l48.2,32.3
					c0.6,0.4,1.1,1.4,1.1,2.3v8.5C955.4,272.9,954.9,273.4,954.3,273z"/>
				<path class="st16" d="M916.1,243.1l-7.2-4.8c-0.6-0.4-1-1.4-1-2.3l0,0c0-0.9,0.5-1.3,1-0.9l7.2,4.8c0.6,0.4,1,1.4,1,2.3l0,0
					C917.1,243.1,916.7,243.5,916.1,243.1z"/>
				<path class="st18" d="M922.3,245.7c0,0.9-0.5,1.2-1.2,0.8c-0.7-0.4-1.2-1.5-1.2-2.4c0-0.9,0.5-1.2,1.2-0.8
					C921.7,243.7,922.3,244.8,922.3,245.7z"/>
				<path class="st18" d="M926.4,248.5c0,0.9-0.5,1.2-1.2,0.8c-0.7-0.4-1.2-1.5-1.2-2.4c0-0.9,0.5-1.2,1.2-0.8
					C925.9,246.5,926.4,247.6,926.4,248.5z"/>
				<path class="st16" d="M930.6,251.2c0,0.9-0.5,1.2-1.2,0.8c-0.7-0.4-1.2-1.5-1.2-2.4c0-0.9,0.5-1.2,1.2-0.8
					C930.1,249.3,930.6,250.4,930.6,251.2z"/>
				<path class="st18" d="M934.7,254c0,0.9-0.5,1.2-1.2,0.8c-0.7-0.4-1.2-1.5-1.2-2.4c0-0.9,0.5-1.2,1.2-0.8
					C934.2,252.1,934.7,253.1,934.7,254z"/>
				<path class="st18" d="M952.3,268.2l-2.4-1.6c-0.4-0.2-0.7-0.9-0.7-1.5v-3c0-0.6,0.3-0.8,0.7-0.6l2.4,1.6
					c0.4,0.2,0.7,0.9,0.7,1.5v3C952.9,268.2,952.6,268.5,952.3,268.2z"/>
			</g>
			<g>
				<path class="st14" d="M955.8,296.9l-51.2-34.2c-1.1-0.8-2.1-2.8-2.1-4.6v-11.3c0-1.8,0.9-2.6,2.1-1.8l51.2,34.2
					c1.1,0.8,2.1,2.8,2.1,4.6V295C957.9,296.8,956.9,297.6,955.8,296.9z"/>
				<path class="st20" d="M954.3,292.9l-48.2-32.3c-0.6-0.4-1.1-1.4-1.1-2.3v-8.5c0-0.9,0.5-1.3,1.1-0.9l48.2,32.3
					c0.6,0.4,1.1,1.4,1.1,2.3v8.5C955.4,292.9,954.9,293.3,954.3,292.9z"/>
				<path class="st16" d="M916.1,263.1l-7.2-4.8c-0.6-0.4-1-1.4-1-2.3l0,0c0-0.9,0.5-1.3,1-0.9l7.2,4.8c0.6,0.4,1,1.4,1,2.3l0,0
					C917.1,263.1,916.7,263.5,916.1,263.1z"/>
				<path class="st0" d="M923.6,266.7c0,1.6-1,2.3-2.2,1.5c-1.2-0.8-2.2-2.8-2.2-4.5c0-1.6,1-2.3,2.2-1.5
					C922.6,263,923.6,265,923.6,266.7z"/>
				<path class="st18" d="M932.2,272.5c0,0.9-0.5,1.2-1.2,0.8c-0.7-0.4-1.2-1.5-1.2-2.4c0-0.9,0.5-1.2,1.2-0.8
					S932.2,271.6,932.2,272.5z"/>
				<path class="st16" d="M936.4,275.3c0,0.9-0.5,1.2-1.2,0.8c-0.7-0.4-1.2-1.5-1.2-2.4c0-0.9,0.5-1.2,1.2-0.8
					S936.4,274.4,936.4,275.3z"/>
				<path class="st18" d="M940.5,278.1c0,0.9-0.5,1.2-1.2,0.8c-0.7-0.4-1.2-1.5-1.2-2.4c0-0.9,0.5-1.2,1.2-0.8
					S940.5,277.2,940.5,278.1z"/>
				<path class="st16" d="M952.3,288.2l-2.4-1.6c-0.4-0.2-0.7-0.9-0.7-1.5v-3c0-0.6,0.3-0.8,0.7-0.6l2.4,1.6
					c0.4,0.2,0.7,0.9,0.7,1.5v3C952.9,288.2,952.6,288.4,952.3,288.2z"/>
			</g>
		</g>
		<g>
			<g>
				<g>
					<path class="st17" d="M1041.9,372.7l-54.6-36.1c-2-1.3-1.7-3.7,0.6-5.2l31.4-21c2.3-1.5,5.8-1.7,7.8-0.4l54.6,36.1
						c2,1.3,1.7,3.7-0.6,5.2l-31.4,21C1047.4,373.9,1043.9,374,1041.9,372.7z"/>
					<path class="st15" d="M1086.5,334L1086.5,334V186.3l-50.7-15.4l-9.3-6.2c-2.1-1.4-5.9-1.3-8.4,0.4l-8.7,5.8l-27,0l8,142.6
						c-0.1,1,0.4,1.9,1.4,2.6l50.6,44.2c2.1,1.4,5.9,1.3,8.4-0.4l33.7-22.5C1085.9,336.3,1086.6,335.1,1086.5,334z"/>
					<path class="st16" d="M1022.6,163.7c-1.6,0-3.2,0.5-4.5,1.4l-8.7,5.8l-27,0V319c-0.1,1,0.4,1.9,1.4,2.6l58.6,38.7
						c1,0.7,2.4,1,3.9,1l0.6-149L1022.6,163.7z"/>
					<path class="st14" d="M1043,360.5c1.8,0.9,4.5,0.9,6.7-0.1v-150h-6.7V360.5z"/>
					<path class="st16" d="M1042.4,212.2l-58.6-38.7c-2.1-1.4-1.9-3.9,0.6-5.6l33.7-22.5c2.5-1.7,6.2-1.8,8.4-0.4l58.6,38.7
						c2.1,1.4,1.9,3.9-0.6,5.6l-33.7,22.5C1048.3,213.5,1044.6,213.6,1042.4,212.2z"/>
					<path class="st19" d="M1084.5,186.5l-33.7,22.5c-2.5,1.7-6.2,1.8-8.4,0.4l-58.6-38.7c-0.5-0.3-0.8-0.7-1.1-1.1
						c-0.7,1.4-0.4,2.9,1.1,3.8l58.6,38.7c2.1,1.4,5.9,1.3,8.4-0.4l33.7-22.5c1.9-1.3,2.5-3.1,1.7-4.5
						C1085.8,185.4,1085.3,186,1084.5,186.5z"/>
					<g>
						<path class="st18" d="M1044.1,196.5l-39-26.2c-1-0.7-0.9-1.8,0.3-2.6l15.8-10.5c1.2-0.8,2.9-0.9,3.9-0.2l39,26.2
							c1,0.7,0.9,1.8-0.3,2.6l-15.8,10.5C1046.8,197.1,1045.1,197.2,1044.1,196.5z"/>
						<g>
							<path class="st16" d="M1023,171.5l-2.3-1.5c-0.1-0.1-0.1-0.3,0-0.4l2.2-1.5c0.2-0.1,0.4-0.1,0.5,0l2.3,1.5
								c0.1,0.1,0.1,0.3,0,0.4l-2.2,1.5C1023.4,171.6,1023.1,171.6,1023,171.5z"/>
							<path class="st16" d="M1030.6,176.5l-2.3-1.5c-0.1-0.1-0.1-0.3,0-0.4l2.2-1.5c0.2-0.1,0.4-0.1,0.5,0l2.3,1.5
								c0.1,0.1,0.1,0.3,0,0.4l-2.2,1.5C1030.9,176.6,1030.7,176.6,1030.6,176.5z"/>
							<path class="st16" d="M1038.1,181.6l-2.3-1.5c-0.1-0.1-0.1-0.3,0-0.4l2.2-1.5c0.2-0.1,0.4-0.1,0.5,0l2.3,1.5
								c0.1,0.1,0.1,0.3,0,0.4l-2.2,1.5C1038.5,181.7,1038.3,181.7,1038.1,181.6z"/>
							<path class="st16" d="M1045.7,186.6l-2.3-1.5c-0.1-0.1-0.1-0.3,0-0.4l2.2-1.5c0.2-0.1,0.4-0.1,0.5,0l2.3,1.5
								c0.1,0.1,0.1,0.3,0,0.4l-2.2,1.5C1046,186.7,1045.8,186.7,1045.7,186.6z"/>
						</g>
						<path class="st14" d="M1005,170.3L1005,170.3c0.1,0,0.2-0.1,0.3-0.2l15.8-10.5c1.2-0.8,2.9-0.9,3.9-0.2l39,26.2
							c0.9-0.8,1-1.8,0-2.4l-39-26.2c-1-0.7-2.8-0.6-3.9,0.2l-15.8,10.5C1004.2,168.5,1004,169.7,1005,170.3z"/>
					</g>
				</g>
				<g>
					<path class="st18" d="M1057.4,241.5l22.2-14.7c1.2-0.8,2.3-3.1,2.3-5v-9.2c0-1.9-1-2.8-2.3-2l-22.2,14.7
						c-1.2,0.8-2.3,3.1-2.3,5v9.2C1055.1,241.4,1056.1,242.3,1057.4,241.5z"/>
					<path class="st0" d="M1080.6,210.3c0.3,0.4,0.6,1,0.6,1.9v9.2c0,1.9-1,4.2-2.3,5l-22.2,14.7c-0.4,0.3-0.8,0.3-1.1,0.3
						c0.4,0.5,1,0.5,1.7,0.1l22.2-14.7c1.2-0.8,2.3-3.1,2.3-5v-9.2C1081.8,211.3,1081.3,210.5,1080.6,210.3z"/>
					<g>
						<path class="st15" d="M1064,231.5l2-1.4c0.3-0.2,0.5-0.7,0.5-1.1v-2.5c0-0.4-0.2-0.6-0.5-0.4l-2,1.4c-0.3,0.2-0.5,0.7-0.5,1.1
							v2.5C1063.5,231.5,1063.8,231.7,1064,231.5z"/>
						<path class="st0" d="M1070.8,226.9l2-1.4c0.3-0.2,0.5-0.7,0.5-1.1V222c0-0.4-0.2-0.6-0.5-0.4l-2,1.4c-0.3,0.2-0.5,0.7-0.5,1.1
							v2.5C1070.3,226.9,1070.6,227.1,1070.8,226.9z"/>
					</g>
				</g>
				<g>
					<path class="st18" d="M1057.4,307.9l22.2-14.7c1.2-0.8,2.3-3.1,2.3-5V279c0-1.9-1-2.8-2.3-2l-22.2,14.7c-1.2,0.8-2.3,3.1-2.3,5
						v9.2C1055.1,307.8,1056.1,308.7,1057.4,307.9z"/>
					<path class="st0" d="M1080.6,276.7c0.3,0.4,0.6,1,0.6,1.9v9.2c0,1.9-1,4.2-2.3,5l-22.2,14.7c-0.4,0.3-0.8,0.3-1.1,0.3
						c0.4,0.5,1,0.5,1.7,0.1l22.2-14.7c1.2-0.8,2.3-3.1,2.3-5V279C1081.8,277.7,1081.3,276.8,1080.6,276.7z"/>
					<g>
						<path class="st15" d="M1064,297.9l2-1.4c0.3-0.2,0.5-0.7,0.5-1.1v-2.5c0-0.4-0.2-0.6-0.5-0.4l-2,1.4c-0.3,0.2-0.5,0.7-0.5,1.1
							v2.5C1063.5,297.9,1063.8,298.1,1064,297.9z"/>
						<path class="st0" d="M1070.8,293.3l2-1.4c0.3-0.2,0.5-0.7,0.5-1.1v-2.5c0-0.4-0.2-0.6-0.5-0.4l-2,1.4
							c-0.3,0.2-0.5,0.7-0.5,1.1v2.5C1070.3,293.3,1070.6,293.5,1070.8,293.3z"/>
					</g>
				</g>
				<g>
					<path class="st18" d="M1057.4,341l22.2-14.7c1.2-0.8,2.3-3.1,2.3-5v-9.2c0-1.9-1-2.8-2.3-2l-22.2,14.7c-1.2,0.8-2.3,3.1-2.3,5
						v9.2C1055.1,341,1056.1,341.9,1057.4,341z"/>
					<path class="st0" d="M1080.6,309.9c0.3,0.4,0.6,1,0.6,1.9v9.2c0,1.9-1,4.2-2.3,5l-22.2,14.7c-0.4,0.3-0.8,0.3-1.1,0.3
						c0.4,0.5,1,0.5,1.7,0.1l22.2-14.7c1.2-0.8,2.3-3.1,2.3-5v-9.2C1081.8,310.8,1081.3,310,1080.6,309.9z"/>
					<g>
						<path class="st15" d="M1064,331.1l2-1.4c0.3-0.2,0.5-0.7,0.5-1.1v-2.5c0-0.4-0.2-0.6-0.5-0.4l-2,1.4c-0.3,0.2-0.5,0.7-0.5,1.1
							v2.5C1063.5,331.1,1063.8,331.3,1064,331.1z"/>
						<path class="st0" d="M1070.8,326.5l2-1.4c0.3-0.2,0.5-0.7,0.5-1.1v-2.5c0-0.4-0.2-0.6-0.5-0.4l-2,1.4
							c-0.3,0.2-0.5,0.7-0.5,1.1v2.5C1070.3,326.5,1070.6,326.7,1070.8,326.5z"/>
					</g>
				</g>
				<g>
					<path class="st18" d="M1057.4,274.7l22.2-14.7c1.2-0.8,2.3-3.1,2.3-5v-9.2c0-1.9-1-2.8-2.3-2l-22.2,14.7
						c-1.2,0.8-2.3,3.1-2.3,5v9.2C1055.1,274.6,1056.1,275.5,1057.4,274.7z"/>
					<path class="st0" d="M1080.6,243.5c0.3,0.4,0.6,1,0.6,1.9v9.2c0,1.9-1,4.2-2.3,5l-22.2,14.7c-0.4,0.3-0.8,0.3-1.1,0.3
						c0.4,0.5,1,0.5,1.7,0.1l22.2-14.7c1.2-0.8,2.3-3.1,2.3-5v-9.2C1081.8,244.5,1081.3,243.6,1080.6,243.5z"/>
					<g>
						<path class="st15" d="M1064,264.7l2-1.4c0.3-0.2,0.5-0.7,0.5-1.1v-2.5c0-0.4-0.2-0.6-0.5-0.4l-2,1.4c-0.3,0.2-0.5,0.7-0.5,1.1
							v2.5C1063.5,264.7,1063.8,264.9,1064,264.7z"/>
						<path class="st0" d="M1070.8,260.1l2-1.4c0.3-0.2,0.5-0.7,0.5-1.1v-2.5c0-0.4-0.2-0.6-0.5-0.4l-2,1.4
							c-0.3,0.2-0.5,0.7-0.5,1.1v2.5C1070.3,260.1,1070.6,260.3,1070.8,260.1z"/>
					</g>
				</g>
			</g>
			<g>
				<path class="st14" d="M1038.1,232.1L987,197.9c-1.1-0.8-2.1-2.8-2.1-4.6V182c0-1.8,0.9-2.6,2.1-1.8l51.2,34.2
					c1.1,0.8,2.1,2.8,2.1,4.6v11.3C1040.2,232,1039.3,232.8,1038.1,232.1z"/>
				<path class="st20" d="M1036.7,228.1l-48.2-32.3c-0.6-0.4-1.1-1.4-1.1-2.3V185c0-0.9,0.5-1.3,1.1-0.9l48.2,32.3
					c0.6,0.4,1.1,1.4,1.1,2.3v8.5C1037.7,228.1,1037.3,228.5,1036.7,228.1z"/>
				<path class="st16" d="M998.5,198.3l-7.2-4.8c-0.6-0.4-1-1.4-1-2.3l0,0c0-0.9,0.5-1.3,1-0.9l7.2,4.8c0.6,0.4,1,1.4,1,2.3l0,0
					C999.5,198.3,999,198.7,998.5,198.3z"/>
				<path class="st18" d="M1004.6,200.8c0,0.9-0.5,1.2-1.2,0.8c-0.7-0.4-1.2-1.5-1.2-2.4c0-0.9,0.5-1.2,1.2-0.8
					S1004.6,199.9,1004.6,200.8z"/>
				<path class="st18" d="M1008.8,203.6c0,0.9-0.5,1.2-1.2,0.8c-0.7-0.4-1.2-1.5-1.2-2.4c0-0.9,0.5-1.2,1.2-0.8
					C1008.3,201.7,1008.8,202.7,1008.8,203.6z"/>
				<path class="st16" d="M1012.9,206.4c0,0.9-0.5,1.2-1.2,0.8c-0.7-0.4-1.2-1.5-1.2-2.4c0-0.9,0.5-1.2,1.2-0.8
					C1012.4,204.4,1012.9,205.5,1012.9,206.4z"/>
				<path class="st18" d="M1017.1,209.2c0,0.9-0.5,1.2-1.2,0.8c-0.7-0.4-1.2-1.5-1.2-2.4c0-0.9,0.5-1.2,1.2-0.8
					S1017.1,208.3,1017.1,209.2z"/>
				<path class="st18" d="M1034.6,223.4l-2.4-1.6c-0.4-0.2-0.7-0.9-0.7-1.5v-3c0-0.6,0.3-0.8,0.7-0.6l2.4,1.6
					c0.4,0.2,0.7,0.9,0.7,1.5v3C1035.3,223.4,1035,223.6,1034.6,223.4z"/>
			</g>
			<g>
				<path class="st14" d="M1038.1,252L987,217.8c-1.1-0.8-2.1-2.8-2.1-4.6v-11.3c0-1.8,0.9-2.6,2.1-1.8l51.2,34.2
					c1.1,0.8,2.1,2.8,2.1,4.6v11.3C1040.2,252,1039.3,252.8,1038.1,252z"/>
				<path class="st20" d="M1036.7,248l-48.2-32.3c-0.6-0.4-1.1-1.4-1.1-2.3V205c0-0.9,0.5-1.3,1.1-0.9l48.2,32.3
					c0.6,0.4,1.1,1.4,1.1,2.3v8.5C1037.7,248,1037.3,248.4,1036.7,248z"/>
				<path class="st16" d="M998.5,218.2l-7.2-4.8c-0.6-0.4-1-1.4-1-2.3l0,0c0-0.9,0.5-1.3,1-0.9l7.2,4.8c0.6,0.4,1,1.4,1,2.3l0,0
					C999.5,218.2,999,218.6,998.5,218.2z"/>
				<path class="st0" d="M1004.6,220.7c0,0.9-0.5,1.2-1.2,0.8c-0.7-0.4-1.2-1.5-1.2-2.4c0-0.9,0.5-1.2,1.2-0.8
					S1004.6,219.9,1004.6,220.7z"/>
				<path class="st18" d="M1008.8,223.5c0,0.9-0.5,1.2-1.2,0.8c-0.7-0.4-1.2-1.5-1.2-2.4c0-0.9,0.5-1.2,1.2-0.8
					C1008.3,221.6,1008.8,222.6,1008.8,223.5z"/>
				<path class="st16" d="M1012.9,226.3c0,0.9-0.5,1.2-1.2,0.8c-0.7-0.4-1.2-1.5-1.2-2.4c0-0.9,0.5-1.2,1.2-0.8
					C1012.4,224.4,1012.9,225.4,1012.9,226.3z"/>
				<path class="st18" d="M1017.1,229.1c0,0.9-0.5,1.2-1.2,0.8c-0.7-0.4-1.2-1.5-1.2-2.4c0-0.9,0.5-1.2,1.2-0.8
					C1016.6,227.2,1017.1,228.2,1017.1,229.1z"/>
				<path class="st18" d="M1034.6,243.3l-2.4-1.6c-0.4-0.2-0.7-0.9-0.7-1.5v-3c0-0.6,0.3-0.8,0.7-0.6l2.4,1.6
					c0.4,0.2,0.7,0.9,0.7,1.5v3C1035.3,243.3,1035,243.5,1034.6,243.3z"/>
			</g>
			<g>
				<path class="st14" d="M1038.1,271.9L987,237.7c-1.1-0.8-2.1-2.8-2.1-4.6v-11.3c0-1.8,0.9-2.6,2.1-1.8l51.2,34.2
					c1.1,0.8,2.1,2.8,2.1,4.6v11.3C1040.2,271.9,1039.3,272.7,1038.1,271.9z"/>
				<path class="st20" d="M1036.7,268l-48.2-32.3c-0.6-0.4-1.1-1.4-1.1-2.3v-8.5c0-0.9,0.5-1.3,1.1-0.9l48.2,32.3
					c0.6,0.4,1.1,1.4,1.1,2.3v8.5C1037.7,267.9,1037.3,268.4,1036.7,268z"/>
				<path class="st16" d="M998.5,238.1l-7.2-4.8c-0.6-0.4-1-1.4-1-2.3l0,0c0-0.9,0.5-1.3,1-0.9l7.2,4.8c0.6,0.4,1,1.4,1,2.3l0,0
					C999.5,238.1,999,238.5,998.5,238.1z"/>
				<path class="st0" d="M1004.6,240.7c0,0.9-0.5,1.2-1.2,0.8s-1.2-1.5-1.2-2.4c0-0.9,0.5-1.2,1.2-0.8
					C1004.1,238.7,1004.6,239.8,1004.6,240.7z"/>
				<path class="st18" d="M1008.8,243.4c0,0.9-0.5,1.2-1.2,0.8c-0.7-0.4-1.2-1.5-1.2-2.4c0-0.9,0.5-1.2,1.2-0.8
					C1008.3,241.5,1008.8,242.6,1008.8,243.4z"/>
				<path class="st16" d="M1012.9,246.2c0,0.9-0.5,1.2-1.2,0.8c-0.7-0.4-1.2-1.5-1.2-2.4c0-0.9,0.5-1.2,1.2-0.8
					C1012.4,244.3,1012.9,245.4,1012.9,246.2z"/>
				<path class="st18" d="M1017.1,249c0,0.9-0.5,1.2-1.2,0.8c-0.7-0.4-1.2-1.5-1.2-2.4c0-0.9,0.5-1.2,1.2-0.8
					S1017.1,248.1,1017.1,249z"/>
				<path class="st18" d="M1034.6,263.2l-2.4-1.6c-0.4-0.2-0.7-0.9-0.7-1.5v-3c0-0.6,0.3-0.8,0.7-0.6l2.4,1.6
					c0.4,0.2,0.7,0.9,0.7,1.5v3C1035.3,263.2,1035,263.5,1034.6,263.2z"/>
			</g>
			<g>
				<path class="st14" d="M1038.1,291.9L987,257.6c-1.1-0.8-2.1-2.8-2.1-4.6v-11.3c0-1.8,0.9-2.6,2.1-1.8l51.2,34.2
					c1.1,0.8,2.1,2.8,2.1,4.6V290C1040.2,291.8,1039.3,292.6,1038.1,291.9z"/>
				<path class="st20" d="M1036.7,287.9l-48.2-32.3c-0.6-0.4-1.1-1.4-1.1-2.3v-8.5c0-0.9,0.5-1.3,1.1-0.9l48.2,32.3
					c0.6,0.4,1.1,1.4,1.1,2.3v8.5C1037.7,287.9,1037.3,288.3,1036.7,287.9z"/>
				<path class="st16" d="M998.5,258.1l-7.2-4.8c-0.6-0.4-1-1.4-1-2.3l0,0c0-0.9,0.5-1.3,1-0.9l7.2,4.8c0.6,0.4,1,1.4,1,2.3l0,0
					C999.5,258,999,258.4,998.5,258.1z"/>
				<path class="st18" d="M1004.6,260.6c0,0.9-0.5,1.2-1.2,0.8c-0.7-0.4-1.2-1.5-1.2-2.4c0-0.9,0.5-1.2,1.2-0.8
					C1004.1,258.7,1004.6,259.7,1004.6,260.6z"/>
				<path class="st18" d="M1008.8,263.4c0,0.9-0.5,1.2-1.2,0.8c-0.7-0.4-1.2-1.5-1.2-2.4c0-0.9,0.5-1.2,1.2-0.8
					C1008.3,261.4,1008.8,262.5,1008.8,263.4z"/>
				<path class="st16" d="M1012.9,266.2c0,0.9-0.5,1.2-1.2,0.8c-0.7-0.4-1.2-1.5-1.2-2.4s0.5-1.2,1.2-0.8
					C1012.4,264.2,1012.9,265.3,1012.9,266.2z"/>
				<path class="st18" d="M1017.1,268.9c0,0.9-0.5,1.2-1.2,0.8s-1.2-1.5-1.2-2.4c0-0.9,0.5-1.2,1.2-0.8
					C1016.6,267,1017.1,268.1,1017.1,268.9z"/>
				<path class="st16" d="M1034.6,283.2l-2.4-1.6c-0.4-0.2-0.7-0.9-0.7-1.5v-3c0-0.6,0.3-0.8,0.7-0.6l2.4,1.6
					c0.4,0.2,0.7,0.9,0.7,1.5v3C1035.3,283.1,1035,283.4,1034.6,283.2z"/>
			</g>
			<g>
				<path class="st14" d="M1038.1,311.8L987,277.6c-1.1-0.8-2.1-2.8-2.1-4.6v-11.3c0-1.8,0.9-2.6,2.1-1.8l51.2,34.2
					c1.1,0.8,2.1,2.8,2.1,4.6V310C1040.2,311.7,1039.3,312.5,1038.1,311.8z"/>
				<path class="st20" d="M1036.7,307.8l-48.2-32.3c-0.6-0.4-1.1-1.4-1.1-2.3v-8.5c0-0.9,0.5-1.3,1.1-0.9l48.2,32.3
					c0.6,0.4,1.1,1.4,1.1,2.3v8.5C1037.7,307.8,1037.3,308.2,1036.7,307.8z"/>
				<path class="st16" d="M998.5,278l-7.2-4.8c-0.6-0.4-1-1.4-1-2.3l0,0c0-0.9,0.5-1.3,1-0.9l7.2,4.8c0.6,0.4,1,1.4,1,2.3l0,0
					C999.5,278,999,278.4,998.5,278z"/>
				<path class="st18" d="M1004.6,280.5c0,0.9-0.5,1.2-1.2,0.8s-1.2-1.5-1.2-2.4c0-0.9,0.5-1.2,1.2-0.8S1004.6,279.6,1004.6,280.5z"
					/>
				<path class="st0" d="M1008.8,283.3c0,0.9-0.5,1.2-1.2,0.8c-0.7-0.4-1.2-1.5-1.2-2.4c0-0.9,0.5-1.2,1.2-0.8
					C1008.3,281.4,1008.8,282.4,1008.8,283.3z"/>
				<path class="st16" d="M1012.9,286.1c0,0.9-0.5,1.2-1.2,0.8c-0.7-0.4-1.2-1.5-1.2-2.4s0.5-1.2,1.2-0.8
					C1012.4,284.2,1012.9,285.2,1012.9,286.1z"/>
				<path class="st0" d="M1017.1,288.9c0,0.9-0.5,1.2-1.2,0.8s-1.2-1.5-1.2-2.4s0.5-1.2,1.2-0.8
					C1016.6,286.9,1017.1,288,1017.1,288.9z"/>
				<path class="st16" d="M1034.6,303.1l-2.4-1.6c-0.4-0.2-0.7-0.9-0.7-1.5v-3c0-0.6,0.3-0.8,0.7-0.6l2.4,1.6
					c0.4,0.2,0.7,0.9,0.7,1.5v3C1035.3,303.1,1035,303.3,1034.6,303.1z"/>
			</g>
			<g>
				<path class="st14" d="M1038.1,331.7L987,297.5c-1.1-0.8-2.1-2.8-2.1-4.6v-11.3c0-1.8,0.9-2.6,2.1-1.8l51.2,34.2
					c1.1,0.8,2.1,2.8,2.1,4.6v11.3C1040.2,331.7,1039.3,332.5,1038.1,331.7z"/>
				<path class="st20" d="M1036.7,327.7l-48.2-32.3c-0.6-0.4-1.1-1.4-1.1-2.3v-8.5c0-0.9,0.5-1.3,1.1-0.9l48.2,32.3
					c0.6,0.4,1.1,1.4,1.1,2.3v8.5C1037.7,327.7,1037.3,328.1,1036.7,327.7z"/>
				<path class="st16" d="M998.5,297.9l-7.2-4.8c-0.6-0.4-1-1.4-1-2.3l0,0c0-0.9,0.5-1.3,1-0.9l7.2,4.8c0.6,0.4,1,1.4,1,2.3v0
					C999.5,297.9,999,298.3,998.5,297.9z"/>
				<path class="st18" d="M1004.6,300.4c0,0.9-0.5,1.2-1.2,0.8c-0.7-0.4-1.2-1.5-1.2-2.4c0-0.9,0.5-1.2,1.2-0.8
					S1004.6,299.6,1004.6,300.4z"/>
				<path class="st18" d="M1008.8,303.2c0,0.9-0.5,1.2-1.2,0.8c-0.7-0.4-1.2-1.5-1.2-2.4c0-0.9,0.5-1.2,1.2-0.8
					C1008.3,301.3,1008.8,302.4,1008.8,303.2z"/>
				<path class="st16" d="M1012.9,306c0,0.9-0.5,1.2-1.2,0.8c-0.7-0.4-1.2-1.5-1.2-2.4c0-0.9,0.5-1.2,1.2-0.8
					C1012.4,304.1,1012.9,305.1,1012.9,306z"/>
				<path class="st18" d="M1017.1,308.8c0,0.9-0.5,1.2-1.2,0.8s-1.2-1.5-1.2-2.4s0.5-1.2,1.2-0.8
					C1016.6,306.9,1017.1,307.9,1017.1,308.8z"/>
				<path class="st18" d="M1034.6,323l-2.4-1.6c-0.4-0.2-0.7-0.9-0.7-1.5v-3c0-0.6,0.3-0.8,0.7-0.6l2.4,1.6c0.4,0.2,0.7,0.9,0.7,1.5
					v3C1035.3,323,1035,323.3,1034.6,323z"/>
			</g>
			<g>
				<path class="st14" d="M1038.1,351.6L987,317.4c-1.1-0.8-2.1-2.8-2.1-4.6v-11.3c0-1.8,0.9-2.6,2.1-1.8l51.2,34.2
					c1.1,0.8,2.1,2.8,2.1,4.6v11.3C1040.2,351.6,1039.3,352.4,1038.1,351.6z"/>
				<path class="st20" d="M1036.7,347.7l-48.2-32.3c-0.6-0.4-1.1-1.4-1.1-2.3v-8.5c0-0.9,0.5-1.3,1.1-0.9l48.2,32.3
					c0.6,0.4,1.1,1.4,1.1,2.3v8.5C1037.7,347.7,1037.3,348.1,1036.7,347.7z"/>
				<path class="st16" d="M998.5,317.9l-7.2-4.8c-0.6-0.4-1-1.4-1-2.3l0,0c0-0.9,0.5-1.3,1-0.9l7.2,4.8c0.6,0.4,1,1.4,1,2.3l0,0
					C999.5,317.8,999,318.2,998.5,317.9z"/>
				<path class="st0" d="M1005.9,321.5c0,1.6-1,2.3-2.2,1.5c-1.2-0.8-2.2-2.8-2.2-4.5c0-1.6,1-2.3,2.2-1.5
					S1005.9,319.8,1005.9,321.5z"/>
				<path class="st18" d="M1014.6,327.3c0,0.9-0.5,1.2-1.2,0.8c-0.7-0.4-1.2-1.5-1.2-2.4c0-0.9,0.5-1.2,1.2-0.8
					C1014,325.4,1014.6,326.4,1014.6,327.3z"/>
				<path class="st16" d="M1018.7,330.1c0,0.9-0.5,1.2-1.2,0.8c-0.7-0.4-1.2-1.5-1.2-2.4c0-0.9,0.5-1.2,1.2-0.8
					C1018.2,328.1,1018.7,329.2,1018.7,330.1z"/>
				<path class="st18" d="M1022.9,332.9c0,0.9-0.5,1.2-1.2,0.8c-0.7-0.4-1.2-1.5-1.2-2.4c0-0.9,0.5-1.2,1.2-0.8
					C1022.4,330.9,1022.9,332,1022.9,332.9z"/>
				<path class="st16" d="M1034.6,342.9l-2.4-1.6c-0.4-0.2-0.7-0.9-0.7-1.5v-3c0-0.6,0.3-0.8,0.7-0.6l2.4,1.6
					c0.4,0.2,0.7,0.9,0.7,1.5v3C1035.3,342.9,1035,343.2,1034.6,342.9z"/>
			</g>
		</g>
		<g>
			<g>
				<path class="st16" d="M1096.9,176.5l-2.2-1.5v-3.7c0-3.9-2.4-8.7-5.3-10.7l-16.7-11.1c-2.9-2-5.3-0.4-5.3,3.6v39.6l-2.2-37.4
					v-3.7c0-5.6,3.4-7.8,7.6-5l16.7,11.1c4.2,2.8,7.6,9.6,7.6,15.1V176.5z"/>
			</g>
			<path class="st16" d="M1089.4,181.5l7.5-5l-1.5-6.1l-2.1-6.2c0,0-3.6-4.7-3.9-4.8c-0.3-0.1-10.2-6.6-10.2-6.6l-8.2-6.9l-3.9,0.2
				l-7.3,4.8l5.2,2.5c0,0,3,1.7,3.6,1.9c0.7,0.2,3.6,3.4,3.7,3.5c0.1,0,3.6,1.7,3.6,1.7l0.8-0.1l6.4,5.2l2.1,1.1l1.1,2.1l1.7,5.5
				L1089.4,181.5z"/>
			<path class="st15" d="M1067.3,192.7l-7.5,5c0,0-0.5-41.6-0.5-41.6c0-0.1,1.6-2.7,1.6-2.7l4.1-0.9l3.2,2.8l-1-0.5l-0.4,0.3
				l0.5,0.9V192.7z"/>
			<g>
				<path class="st14" d="M1089.4,181.5l-2.2-1.5v-3.7c0-3.9-2.4-8.7-5.3-10.7l-16.7-11.1c-2.9-2-5.3-0.4-5.3,3.6v39.6l-2.2-1.5
					v-39.6c0-5.6,3.4-7.8,7.6-5l16.7,11.1c4.2,2.8,7.6,9.6,7.6,15.1V181.5z"/>
			</g>
		</g>
		<g>
			<g>
				<g>
					<path class="st17" d="M1122,417l-38.3-25.3c-1.4-0.9-1.2-2.6,0.4-3.7l22-14.7c1.6-1.1,4.1-1.2,5.5-0.3l38.3,25.3
						c1.4,0.9,1.2,2.6-0.4,3.7l-22,14.7C1125.9,417.8,1123.4,418,1122,417z"/>
					<path class="st15" d="M1168.9,352.7L1168.9,352.7V205l-50.7-15.4l-9.3-6.2c-2.1-1.4-5.9-1.3-8.4,0.4l-8.7,5.8l-27,0l8,142.6
						c-0.1,1,0.4,1.9,1.4,2.6l50.6,44.2c2.1,1.4,5.9,1.3,8.4-0.4l33.7-22.5C1168.3,355.1,1169,353.8,1168.9,352.7z"/>
					<path class="st16" d="M1105,182.4c-1.6,0-3.2,0.5-4.5,1.4l-8.7,5.8l-27,0v148.1c-0.1,1,0.4,1.9,1.4,2.6l58.6,38.7
						c1,0.7,2.4,1,3.9,1l0.6-149L1105,182.4z"/>
					<path class="st14" d="M1125.3,379.3c1.8,0.9,4.5,0.9,6.7-0.1v-150h-6.7V379.3z"/>
					<path class="st16" d="M1124.8,231l-58.6-38.7c-2.1-1.4-1.9-3.9,0.6-5.6l33.7-22.5c2.5-1.7,6.2-1.8,8.4-0.4l58.6,38.7
						c2.1,1.4,1.9,3.9-0.6,5.6l-33.7,22.5C1130.7,232.2,1126.9,232.4,1124.8,231z"/>
					<path class="st19" d="M1166.9,205.3l-33.7,22.5c-2.5,1.7-6.2,1.8-8.4,0.4l-58.6-38.7c-0.5-0.3-0.8-0.7-1.1-1.1
						c-0.7,1.4-0.4,2.9,1.1,3.8l58.6,38.7c2.1,1.4,5.9,1.3,8.4-0.4l33.7-22.5c1.9-1.3,2.5-3.1,1.7-4.5
						C1168.2,204.1,1167.6,204.7,1166.9,205.3z"/>
					<g>
						<path class="st18" d="M1126.4,215.3l-39-26.2c-1-0.7-0.9-1.8,0.3-2.6l15.8-10.5c1.2-0.8,2.9-0.9,3.9-0.2l39,26.2
							c1,0.7,0.9,1.8-0.3,2.6l-15.8,10.5C1129.2,215.9,1127.4,215.9,1126.4,215.3z"/>
						<g>
							<path class="st16" d="M1105.4,190.3l-2.3-1.5c-0.1-0.1-0.1-0.3,0-0.4l2.2-1.5c0.2-0.1,0.4-0.1,0.5,0l2.3,1.5
								c0.1,0.1,0.1,0.3,0,0.4l-2.2,1.5C1105.7,190.3,1105.5,190.4,1105.4,190.3z"/>
							<path class="st16" d="M1112.9,195.3l-2.3-1.5c-0.1-0.1-0.1-0.3,0-0.4l2.2-1.5c0.2-0.1,0.4-0.1,0.5,0l2.3,1.5
								c0.1,0.1,0.1,0.3,0,0.4l-2.2,1.5C1113.3,195.4,1113.1,195.4,1112.9,195.3z"/>
							<path class="st16" d="M1120.5,200.3l-2.3-1.5c-0.1-0.1-0.1-0.3,0-0.4l2.2-1.5c0.2-0.1,0.4-0.1,0.5,0l2.3,1.5
								c0.1,0.1,0.1,0.3,0,0.4l-2.2,1.5C1120.9,200.4,1120.6,200.4,1120.5,200.3z"/>
							<path class="st16" d="M1128,205.3l-2.3-1.5c-0.1-0.1-0.1-0.3,0-0.4l2.2-1.5c0.2-0.1,0.4-0.1,0.5,0l2.3,1.5
								c0.1,0.1,0.1,0.3,0,0.4l-2.2,1.5C1128.4,205.4,1128.2,205.4,1128,205.3z"/>
						</g>
						<path class="st14" d="M1087.4,189.1L1087.4,189.1c0.1,0,0.2-0.1,0.3-0.2l15.8-10.5c1.2-0.8,2.9-0.9,3.9-0.2l39,26.2
							c0.9-0.8,1-1.8,0-2.4l-39-26.2c-1-0.7-2.8-0.6-3.9,0.2l-15.8,10.5C1086.5,187.2,1086.4,188.4,1087.4,189.1z"/>
					</g>
				</g>
				<g>
					<path class="st18" d="M1139.7,260.2l22.2-14.7c1.2-0.8,2.3-3.1,2.3-5v-9.2c0-1.9-1-2.8-2.3-2l-22.2,14.7
						c-1.2,0.8-2.3,3.1-2.3,5v9.2C1137.5,260.2,1138.5,261.1,1139.7,260.2z"/>
					<path class="st0" d="M1163,229.1c0.3,0.4,0.6,1,0.6,1.9v9.2c0,1.9-1,4.2-2.3,5l-22.2,14.7c-0.4,0.3-0.8,0.3-1.1,0.3
						c0.4,0.5,1,0.5,1.7,0.1l22.2-14.7c1.2-0.8,2.3-3.1,2.3-5v-9.2C1164.2,230,1163.7,229.2,1163,229.1z"/>
					<g>
						<path class="st15" d="M1146.4,250.2l2-1.4c0.3-0.2,0.5-0.7,0.5-1.1v-2.5c0-0.4-0.2-0.6-0.5-0.4l-2,1.4
							c-0.3,0.2-0.5,0.7-0.5,1.1v2.5C1145.9,250.2,1146.1,250.4,1146.4,250.2z"/>
						<path class="st0" d="M1153.2,245.7l2-1.4c0.3-0.2,0.5-0.7,0.5-1.1v-2.5c0-0.4-0.2-0.6-0.5-0.4l-2,1.4
							c-0.3,0.2-0.5,0.7-0.5,1.1v2.5C1152.7,245.7,1152.9,245.9,1153.2,245.7z"/>
					</g>
				</g>
				<g>
					<path class="st18" d="M1139.7,326.6l22.2-14.7c1.2-0.8,2.3-3.1,2.3-5v-9.2c0-1.9-1-2.8-2.3-2l-22.2,14.7
						c-1.2,0.8-2.3,3.1-2.3,5v9.2C1137.5,326.5,1138.5,327.4,1139.7,326.6z"/>
					<path class="st0" d="M1163,295.4c0.3,0.4,0.6,1,0.6,1.9v9.2c0,1.9-1,4.2-2.3,5l-22.2,14.7c-0.4,0.3-0.8,0.3-1.1,0.3
						c0.4,0.5,1,0.5,1.7,0.1l22.2-14.7c1.2-0.8,2.3-3.1,2.3-5v-9.2C1164.2,296.4,1163.7,295.6,1163,295.4z"/>
					<g>
						<path class="st15" d="M1146.4,316.6l2-1.4c0.3-0.2,0.5-0.7,0.5-1.1v-2.5c0-0.4-0.2-0.6-0.5-0.4l-2,1.4
							c-0.3,0.2-0.5,0.7-0.5,1.1v2.5C1145.9,316.6,1146.1,316.8,1146.4,316.6z"/>
						<path class="st0" d="M1153.2,312.1l2-1.4c0.3-0.2,0.5-0.7,0.5-1.1v-2.5c0-0.4-0.2-0.6-0.5-0.4l-2,1.4
							c-0.3,0.2-0.5,0.7-0.5,1.1v2.5C1152.7,312.1,1152.9,312.3,1153.2,312.1z"/>
					</g>
				</g>
				<g>
					<path class="st18" d="M1139.7,359.8l22.2-14.7c1.2-0.8,2.3-3.1,2.3-5v-9.2c0-1.9-1-2.8-2.3-2l-22.2,14.7
						c-1.2,0.8-2.3,3.1-2.3,5v9.2C1137.5,359.7,1138.5,360.6,1139.7,359.8z"/>
					<path class="st0" d="M1163,328.6c0.3,0.4,0.6,1,0.6,1.9v9.2c0,1.9-1,4.2-2.3,5l-22.2,14.7c-0.4,0.3-0.8,0.3-1.1,0.3
						c0.4,0.5,1,0.5,1.7,0.1l22.2-14.7c1.2-0.8,2.3-3.1,2.3-5v-9.2C1164.2,329.6,1163.7,328.8,1163,328.6z"/>
					<g>
						<path class="st15" d="M1146.4,349.8l2-1.4c0.3-0.2,0.5-0.7,0.5-1.1v-2.5c0-0.4-0.2-0.6-0.5-0.4l-2,1.4
							c-0.3,0.2-0.5,0.7-0.5,1.1v2.5C1145.9,349.8,1146.1,350,1146.4,349.8z"/>
						<path class="st0" d="M1153.2,345.3l2-1.4c0.3-0.2,0.5-0.7,0.5-1.1v-2.5c0-0.4-0.2-0.6-0.5-0.4l-2,1.4
							c-0.3,0.2-0.5,0.7-0.5,1.1v2.5C1152.7,345.3,1152.9,345.4,1153.2,345.3z"/>
						<path class="st0" d="M1151.7,362.2l2-1.4c0.3-0.2,0.5-0.7,0.5-1.1v-2.5c0-0.4-0.2-0.6-0.5-0.4l-2,1.4
							c-0.3,0.2-0.5,0.7-0.5,1.1v2.5C1151.2,362.2,1151.4,362.4,1151.7,362.2z"/>
					</g>
				</g>
				<g>
					<path class="st18" d="M1139.7,293.4l22.2-14.7c1.2-0.8,2.3-3.1,2.3-5v-9.2c0-1.9-1-2.8-2.3-2l-22.2,14.7
						c-1.2,0.8-2.3,3.1-2.3,5v9.2C1137.5,293.4,1138.5,294.2,1139.7,293.4z"/>
					<path class="st0" d="M1163,262.3c0.3,0.4,0.6,1,0.6,1.9v9.2c0,1.9-1,4.2-2.3,5l-22.2,14.7c-0.4,0.3-0.8,0.3-1.1,0.3
						c0.4,0.5,1,0.5,1.7,0.1l22.2-14.7c1.2-0.8,2.3-3.1,2.3-5v-9.2C1164.2,263.2,1163.7,262.4,1163,262.3z"/>
					<g>
						<path class="st15" d="M1146.4,283.4l2-1.4c0.3-0.2,0.5-0.7,0.5-1.1v-2.5c0-0.4-0.2-0.6-0.5-0.4l-2,1.4
							c-0.3,0.2-0.5,0.7-0.5,1.1v2.5C1145.9,283.4,1146.1,283.6,1146.4,283.4z"/>
						<path class="st0" d="M1153.2,278.9l2-1.4c0.3-0.2,0.5-0.7,0.5-1.1v-2.5c0-0.4-0.2-0.6-0.5-0.4l-2,1.4
							c-0.3,0.2-0.5,0.7-0.5,1.1v2.5C1152.7,278.9,1152.9,279.1,1153.2,278.9z"/>
					</g>
				</g>
			</g>
			<g>
				<path class="st14" d="M1120.5,250.8l-51.2-34.2c-1.1-0.8-2.1-2.8-2.1-4.6v-11.3c0-1.8,0.9-2.6,2.1-1.8l51.2,34.2
					c1.1,0.8,2.1,2.8,2.1,4.6V249C1122.6,250.8,1121.7,251.6,1120.5,250.8z"/>
				<path class="st20" d="M1119,246.8l-48.2-32.3c-0.6-0.4-1.1-1.4-1.1-2.3v-8.5c0-0.9,0.5-1.3,1.1-0.9l48.2,32.3
					c0.6,0.4,1.1,1.4,1.1,2.3v8.5C1120.1,246.8,1119.6,247.2,1119,246.8z"/>
				<path class="st16" d="M1080.8,217l-7.2-4.8c-0.6-0.4-1-1.4-1-2.3l0,0c0-0.9,0.5-1.3,1-0.9l7.2,4.8c0.6,0.4,1,1.4,1,2.3l0,0
					C1081.9,217,1081.4,217.4,1080.8,217z"/>
				<path class="st18" d="M1087,219.5c0,0.9-0.5,1.2-1.2,0.8c-0.7-0.4-1.2-1.5-1.2-2.4c0-0.9,0.5-1.2,1.2-0.8
					C1086.5,217.6,1087,218.7,1087,219.5z"/>
				<path class="st18" d="M1091.1,222.3c0,0.9-0.5,1.2-1.2,0.8c-0.7-0.4-1.2-1.5-1.2-2.4c0-0.9,0.5-1.2,1.2-0.8
					C1090.6,220.4,1091.1,221.5,1091.1,222.3z"/>
				<path class="st16" d="M1095.3,225.1c0,0.9-0.5,1.2-1.2,0.8c-0.7-0.4-1.2-1.5-1.2-2.4s0.5-1.2,1.2-0.8
					C1094.8,223.2,1095.3,224.2,1095.3,225.1z"/>
				<path class="st18" d="M1099.5,227.9c0,0.9-0.5,1.2-1.2,0.8c-0.7-0.4-1.2-1.5-1.2-2.4s0.5-1.2,1.2-0.8
					C1098.9,226,1099.5,227,1099.5,227.9z"/>
				<path class="st18" d="M1117,242.1l-2.4-1.6c-0.4-0.2-0.7-0.9-0.7-1.5v-3c0-0.6,0.3-0.8,0.7-0.6l2.4,1.6c0.4,0.2,0.7,0.9,0.7,1.5
					v3C1117.7,242.1,1117.4,242.4,1117,242.1z"/>
			</g>
			<g>
				<path class="st14" d="M1120.5,270.7l-51.2-34.2c-1.1-0.8-2.1-2.8-2.1-4.6v-11.3c0-1.8,0.9-2.6,2.1-1.8l51.2,34.2
					c1.1,0.8,2.1,2.8,2.1,4.6v11.3C1122.6,270.7,1121.7,271.5,1120.5,270.7z"/>
				<path class="st20" d="M1119,266.8l-48.2-32.3c-0.6-0.4-1.1-1.4-1.1-2.3v-8.5c0-0.9,0.5-1.3,1.1-0.9L1119,255
					c0.6,0.4,1.1,1.4,1.1,2.3v8.5C1120.1,266.8,1119.6,267.2,1119,266.8z"/>
				<path class="st16" d="M1080.8,237l-7.2-4.8c-0.6-0.4-1-1.4-1-2.3l0,0c0-0.9,0.5-1.3,1-0.9l7.2,4.8c0.6,0.4,1,1.4,1,2.3l0,0
					C1081.9,236.9,1081.4,237.3,1080.8,237z"/>
				<path class="st0" d="M1087,239.5c0,0.9-0.5,1.2-1.2,0.8c-0.7-0.4-1.2-1.5-1.2-2.4c0-0.9,0.5-1.2,1.2-0.8
					C1086.5,237.5,1087,238.6,1087,239.5z"/>
				<path class="st18" d="M1091.1,242.3c0,0.9-0.5,1.2-1.2,0.8c-0.7-0.4-1.2-1.5-1.2-2.4c0-0.9,0.5-1.2,1.2-0.8
					C1090.6,240.3,1091.1,241.4,1091.1,242.3z"/>
				<path class="st16" d="M1095.3,245c0,0.9-0.5,1.2-1.2,0.8c-0.7-0.4-1.2-1.5-1.2-2.4c0-0.9,0.5-1.2,1.2-0.8
					C1094.8,243.1,1095.3,244.2,1095.3,245z"/>
				<path class="st18" d="M1099.5,247.8c0,0.9-0.5,1.2-1.2,0.8c-0.7-0.4-1.2-1.5-1.2-2.4s0.5-1.2,1.2-0.8
					C1098.9,245.9,1099.5,247,1099.5,247.8z"/>
				<path class="st18" d="M1117,262l-2.4-1.6c-0.4-0.2-0.7-0.9-0.7-1.5v-3c0-0.6,0.3-0.8,0.7-0.6l2.4,1.6c0.4,0.2,0.7,0.9,0.7,1.5v3
					C1117.7,262,1117.4,262.3,1117,262z"/>
			</g>
			<g>
				<path class="st14" d="M1120.5,290.7l-51.2-34.2c-1.1-0.8-2.1-2.8-2.1-4.6v-11.3c0-1.8,0.9-2.6,2.1-1.8l51.2,34.2
					c1.1,0.8,2.1,2.8,2.1,4.6v11.3C1122.6,290.6,1121.7,291.4,1120.5,290.7z"/>
				<path class="st20" d="M1119,286.7l-48.2-32.3c-0.6-0.4-1.1-1.4-1.1-2.3v-8.5c0-0.9,0.5-1.3,1.1-0.9L1119,275
					c0.6,0.4,1.1,1.4,1.1,2.3v8.5C1120.1,286.7,1119.6,287.1,1119,286.7z"/>
				<path class="st16" d="M1080.8,256.9l-7.2-4.8c-0.6-0.4-1-1.4-1-2.3l0,0c0-0.9,0.5-1.3,1-0.9l7.2,4.8c0.6,0.4,1,1.4,1,2.3l0,0
					C1081.9,256.9,1081.4,257.3,1080.8,256.9z"/>
				<path class="st0" d="M1087,259.4c0,0.9-0.5,1.2-1.2,0.8c-0.7-0.4-1.2-1.5-1.2-2.4c0-0.9,0.5-1.2,1.2-0.8
					C1086.5,257.5,1087,258.5,1087,259.4z"/>
				<path class="st18" d="M1091.1,262.2c0,0.9-0.5,1.2-1.2,0.8c-0.7-0.4-1.2-1.5-1.2-2.4c0-0.9,0.5-1.2,1.2-0.8
					C1090.6,260.3,1091.1,261.3,1091.1,262.2z"/>
				<path class="st16" d="M1095.3,265c0,0.9-0.5,1.2-1.2,0.8c-0.7-0.4-1.2-1.5-1.2-2.4c0-0.9,0.5-1.2,1.2-0.8
					C1094.8,263,1095.3,264.1,1095.3,265z"/>
				<path class="st18" d="M1099.5,267.8c0,0.9-0.5,1.2-1.2,0.8c-0.7-0.4-1.2-1.5-1.2-2.4c0-0.9,0.5-1.2,1.2-0.8
					C1098.9,265.8,1099.5,266.9,1099.5,267.8z"/>
				<path class="st18" d="M1117,282l-2.4-1.6c-0.4-0.2-0.7-0.9-0.7-1.5v-3c0-0.6,0.3-0.8,0.7-0.6l2.4,1.6c0.4,0.2,0.7,0.9,0.7,1.5v3
					C1117.7,282,1117.4,282.2,1117,282z"/>
			</g>
			<g>
				<path class="st14" d="M1120.5,310.6l-51.2-34.2c-1.1-0.8-2.1-2.8-2.1-4.6v-11.3c0-1.8,0.9-2.6,2.1-1.8l51.2,34.2
					c1.1,0.8,2.1,2.8,2.1,4.6v11.3C1122.6,310.5,1121.7,311.4,1120.5,310.6z"/>
				<path class="st20" d="M1119,306.6l-48.2-32.3c-0.6-0.4-1.1-1.4-1.1-2.3v-8.5c0-0.9,0.5-1.3,1.1-0.9l48.2,32.3
					c0.6,0.4,1.1,1.4,1.1,2.3v8.5C1120.1,306.6,1119.6,307,1119,306.6z"/>
				<path class="st16" d="M1080.8,276.8l-7.2-4.8c-0.6-0.4-1-1.4-1-2.3l0,0c0-0.9,0.5-1.3,1-0.9l7.2,4.8c0.6,0.4,1,1.4,1,2.3l0,0
					C1081.9,276.8,1081.4,277.2,1080.8,276.8z"/>
				<path class="st18" d="M1087,279.3c0,0.9-0.5,1.2-1.2,0.8c-0.7-0.4-1.2-1.5-1.2-2.4s0.5-1.2,1.2-0.8
					C1086.5,277.4,1087,278.5,1087,279.3z"/>
				<path class="st18" d="M1091.1,282.1c0,0.9-0.5,1.2-1.2,0.8c-0.7-0.4-1.2-1.5-1.2-2.4c0-0.9,0.5-1.2,1.2-0.8
					C1090.6,280.2,1091.1,281.2,1091.1,282.1z"/>
				<path class="st16" d="M1095.3,284.9c0,0.9-0.5,1.2-1.2,0.8c-0.7-0.4-1.2-1.5-1.2-2.4c0-0.9,0.5-1.2,1.2-0.8
					C1094.8,283,1095.3,284,1095.3,284.9z"/>
				<path class="st18" d="M1099.5,287.7c0,0.9-0.5,1.2-1.2,0.8c-0.7-0.4-1.2-1.5-1.2-2.4c0-0.9,0.5-1.2,1.2-0.8
					C1098.9,285.7,1099.5,286.8,1099.5,287.7z"/>
				<path class="st16" d="M1117,301.9l-2.4-1.6c-0.4-0.2-0.7-0.9-0.7-1.5v-3c0-0.6,0.3-0.8,0.7-0.6l2.4,1.6c0.4,0.2,0.7,0.9,0.7,1.5
					v3C1117.7,301.9,1117.4,302.1,1117,301.9z"/>
			</g>
			<g>
				<path class="st14" d="M1120.5,330.5l-51.2-34.2c-1.1-0.8-2.1-2.8-2.1-4.6v-11.3c0-1.8,0.9-2.6,2.1-1.8l51.2,34.2
					c1.1,0.8,2.1,2.8,2.1,4.6v11.3C1122.6,330.5,1121.7,331.3,1120.5,330.5z"/>
				<path class="st20" d="M1119,326.6l-48.2-32.3c-0.6-0.4-1.1-1.4-1.1-2.3v-8.5c0-0.9,0.5-1.3,1.1-0.9l48.2,32.3
					c0.6,0.4,1.1,1.4,1.1,2.3v8.5C1120.1,326.5,1119.6,327,1119,326.6z"/>
				<path class="st16" d="M1080.8,296.7l-7.2-4.8c-0.6-0.4-1-1.4-1-2.3l0,0c0-0.9,0.5-1.3,1-0.9l7.2,4.8c0.6,0.4,1,1.4,1,2.3l0,0
					C1081.9,296.7,1081.4,297.1,1080.8,296.7z"/>
				<path class="st18" d="M1087,299.3c0,0.9-0.5,1.2-1.2,0.8c-0.7-0.4-1.2-1.5-1.2-2.4s0.5-1.2,1.2-0.8
					C1086.5,297.3,1087,298.4,1087,299.3z"/>
				<path class="st0" d="M1091.1,302c0,0.9-0.5,1.2-1.2,0.8c-0.7-0.4-1.2-1.5-1.2-2.4s0.5-1.2,1.2-0.8
					C1090.6,300.1,1091.1,301.2,1091.1,302z"/>
				<path class="st16" d="M1095.3,304.8c0,0.9-0.5,1.2-1.2,0.8c-0.7-0.4-1.2-1.5-1.2-2.4c0-0.9,0.5-1.2,1.2-0.8
					C1094.8,302.9,1095.3,304,1095.3,304.8z"/>
				<path class="st0" d="M1099.5,307.6c0,0.9-0.5,1.2-1.2,0.8c-0.7-0.4-1.2-1.5-1.2-2.4c0-0.9,0.5-1.2,1.2-0.8
					C1098.9,305.7,1099.5,306.7,1099.5,307.6z"/>
				<path class="st16" d="M1117,321.8l-2.4-1.6c-0.4-0.2-0.7-0.9-0.7-1.5v-3c0-0.6,0.3-0.8,0.7-0.6l2.4,1.6c0.4,0.2,0.7,0.9,0.7,1.5
					v3C1117.7,321.8,1117.4,322.1,1117,321.8z"/>
			</g>
			<g>
				<path class="st14" d="M1120.5,350.5l-51.2-34.2c-1.1-0.8-2.1-2.8-2.1-4.6v-11.3c0-1.8,0.9-2.6,2.1-1.8l51.2,34.2
					c1.1,0.8,2.1,2.8,2.1,4.6v11.3C1122.6,350.4,1121.7,351.2,1120.5,350.5z"/>
				<path class="st20" d="M1119,346.5l-48.2-32.3c-0.6-0.4-1.1-1.4-1.1-2.3v-8.5c0-0.9,0.5-1.3,1.1-0.9l48.2,32.3
					c0.6,0.4,1.1,1.4,1.1,2.3v8.5C1120.1,346.5,1119.6,346.9,1119,346.5z"/>
				<path class="st16" d="M1080.8,316.7l-7.2-4.8c-0.6-0.4-1-1.4-1-2.3l0,0c0-0.9,0.5-1.3,1-0.9l7.2,4.8c0.6,0.4,1,1.4,1,2.3l0,0
					C1081.9,316.6,1081.4,317,1080.8,316.7z"/>
				<path class="st18" d="M1087,319.2c0,0.9-0.5,1.2-1.2,0.8c-0.7-0.4-1.2-1.5-1.2-2.4s0.5-1.2,1.2-0.8
					C1086.5,317.3,1087,318.3,1087,319.2z"/>
				<path class="st18" d="M1091.1,322c0,0.9-0.5,1.2-1.2,0.8c-0.7-0.4-1.2-1.5-1.2-2.4s0.5-1.2,1.2-0.8
					C1090.6,320,1091.1,321.1,1091.1,322z"/>
				<path class="st16" d="M1095.3,324.8c0,0.9-0.5,1.2-1.2,0.8c-0.7-0.4-1.2-1.5-1.2-2.4s0.5-1.2,1.2-0.8
					C1094.8,322.8,1095.3,323.9,1095.3,324.8z"/>
				<path class="st18" d="M1099.5,327.5c0,0.9-0.5,1.2-1.2,0.8c-0.7-0.4-1.2-1.5-1.2-2.4c0-0.9,0.5-1.2,1.2-0.8
					C1098.9,325.6,1099.5,326.7,1099.5,327.5z"/>
				<path class="st18" d="M1117,341.8l-2.4-1.6c-0.4-0.2-0.7-0.9-0.7-1.5v-3c0-0.6,0.3-0.8,0.7-0.6l2.4,1.6c0.4,0.2,0.7,0.9,0.7,1.5
					v3C1117.7,341.7,1117.4,342,1117,341.8z"/>
			</g>
			<g>
				<path class="st14" d="M1120.5,370.4l-51.2-34.2c-1.1-0.8-2.1-2.8-2.1-4.6v-11.3c0-1.8,0.9-2.6,2.1-1.8l51.2,34.2
					c1.1,0.8,2.1,2.8,2.1,4.6v11.3C1122.6,370.3,1121.7,371.1,1120.5,370.4z"/>
				<path class="st20" d="M1119,366.4l-48.2-32.3c-0.6-0.4-1.1-1.4-1.1-2.3v-8.5c0-0.9,0.5-1.3,1.1-0.9l48.2,32.3
					c0.6,0.4,1.1,1.4,1.1,2.3v8.5C1120.1,366.4,1119.6,366.8,1119,366.4z"/>
				<path class="st16" d="M1080.8,336.6l-7.2-4.8c-0.6-0.4-1-1.4-1-2.3l0,0c0-0.9,0.5-1.3,1-0.9l7.2,4.8c0.6,0.4,1,1.4,1,2.3l0,0
					C1081.9,336.6,1081.4,337,1080.8,336.6z"/>
				<path class="st0" d="M1088.3,340.2c0,1.6-1,2.3-2.2,1.5c-1.2-0.8-2.2-2.8-2.2-4.5c0-1.6,1-2.3,2.2-1.5
					C1087.3,336.5,1088.3,338.5,1088.3,340.2z"/>
				<path class="st18" d="M1096.9,346c0,0.9-0.5,1.2-1.2,0.8s-1.2-1.5-1.2-2.4s0.5-1.2,1.2-0.8S1096.9,345.2,1096.9,346z"/>
				<path class="st16" d="M1101.1,348.8c0,0.9-0.5,1.2-1.2,0.8s-1.2-1.5-1.2-2.4s0.5-1.2,1.2-0.8
					C1100.6,346.9,1101.1,347.9,1101.1,348.8z"/>
				<path class="st18" d="M1105.2,351.6c0,0.9-0.5,1.2-1.2,0.8s-1.2-1.5-1.2-2.4s0.5-1.2,1.2-0.8
					C1104.7,349.7,1105.2,350.7,1105.2,351.6z"/>
				<path class="st16" d="M1117,361.7l-2.4-1.6c-0.4-0.2-0.7-0.9-0.7-1.5v-3c0-0.6,0.3-0.8,0.7-0.6l2.4,1.6c0.4,0.2,0.7,0.9,0.7,1.5
					v3C1117.7,361.7,1117.4,361.9,1117,361.7z"/>
			</g>
		</g>
		<g>
			<path class="st17" d="M944.3,475.5l-114.1-76.3c-3.2-2.2-2.8-5.9,0.9-8.4l77.7-51.9c3.7-2.5,9.4-2.8,12.6-0.6l114.1,76.3
				c3.2,2.2,2.8,5.9-0.9,8.4l-77.7,51.9C953.1,477.4,947.5,477.6,944.3,475.5z"/>
			<path class="st18" d="M1062.2,279.4l-114.1-76.3c-1.3-0.9-2.7-1-3.9-0.5l0,0l-0.2,0.1c0,0,0,0-0.1,0l-4.1,1.8l3.7,2.1
				c0,0.1,0,0.2-0.1,0.2l-18.6,97.9c-0.9,4.9,0.9,10.6,4.2,12.8l111.3,74.4l-0.4,5.5l4.5-2c1.5-0.8,2.7-2.7,3.2-5.3l18.6-97.9
				C1067.3,287.3,1065.4,281.6,1062.2,279.4z"/>
			<path class="st15" d="M1062.2,279.4l-114.1-76.3c-1.3-0.9-2.7-1-3.9-0.5l0,0l-0.2,0.1c0,0,0,0-0.1,0l-4.1,1.8l3.7,2.1
				c0,0.1,0,0.2-0.1,0.2l-12.2,64.5l55.8,50.4l78.7-37.1C1065,282.4,1063.8,280.5,1062.2,279.4z"/>
			<path class="st21" d="M1057.9,294.5l8.7-4.3c0.2-3.9-1.2-7.9-3.5-10.1l-13.7,6.7L1057.9,294.5z"/>
			<path class="st16" d="M1036,397L922,320.7c-3.2-2.2-5.1-7.9-4.2-12.8l18.6-97.9c0.9-4.9,4.3-7.1,7.5-5l114.1,76.3
				c3.2,2.2,5.1,7.9,4.2,12.8l-18.6,97.9C1042.6,396.9,1039.3,399.1,1036,397z"/>
			<path class="st0" d="M1059.1,280.8L945,204.6c-1.6-1-3.2-1-4.5-0.2c1.1-0.3,2.2-0.1,3.4,0.7l114.1,76.3c3.2,2.2,5.1,7.9,4.2,12.8
				l-18.6,97.9c-0.5,2.5-1.6,4.3-3,5.2c1.9-0.5,3.5-2.5,4.1-5.7l18.6-97.9C1064.2,288.7,1062.3,283,1059.1,280.8z"/>
			<path class="st0" d="M1033.6,389.7L926.3,318c-3-2-4.7-7.2-3.8-11.7l17-89.6c0.9-4.5,3.9-6.5,6.9-4.5l107.3,71.7
				c3,2,4.7,7.2,3.8,11.7l-17,89.6C1039.6,389.6,1036.5,391.7,1033.6,389.7z"/>
			<path class="st18" d="M1033.6,389.7L926.3,318c-3-2-4.7-7.2-3.8-11.7l17-89.6c0.9-4.5,3.9-6.5,6.9-4.5l107.3,71.7
				c3,2,4.7,7.2,3.8,11.7l-17,89.6C1039.6,389.6,1036.5,391.7,1033.6,389.7z"/>
			<path class="st14" d="M1034.5,389.2l-107.3-71.7c-3-2-4.7-7.2-3.8-11.7l17-89.6c0.4-2.3,1.4-3.9,2.7-4.7
				c-1.7,0.5-3.1,2.4-3.6,5.2l-17,89.6c-0.9,4.5,0.9,9.7,3.8,11.7l107.3,71.7c1.5,1,2.9,1,4.2,0.2
				C1036.7,390.2,1035.6,390,1034.5,389.2z"/>
			<path class="st18" d="M1037.6,400.3l-15.6-2.4l-100.7-67.3c-3.2-2.2-8.9-1.9-12.6,0.6l-71.3,47.7l-9.4-1.4v6.2l0,0
				c-0.1,1.4,0.6,2.8,2.2,3.8l114.1,76.3c3.2,2.2,8.9,1.9,12.6-0.6l77.7-51.9c2.1-1.4,3.1-3.2,3.1-4.9l0,0V400.3z"/>
			<path class="st15" d="M962,357.8l-7.2-4.8h-78.6l-38.8,25.9l-9.4-1.4v6.2l0,0c-0.1,1.4,0.6,2.8,2.2,3.8l114.1,76.3
				c1.7,1.1,4.1,1.6,6.5,1.4L962,357.8z"/>
			<path class="st14" d="M832.2,378.1l-4.2-0.6v6.2l0,0c-0.1,1.4,0.6,2.8,2.2,3.8l2,1.3V378.1z"/>
			<path class="st21" d="M945.4,464.3c3.1,1.3,7.4,1.1,10.7-0.8v-13.8h-10.7V464.3z"/>
			<path class="st16" d="M944.3,457.5l-114.1-76.3c-3.2-2.2-2.8-5.9,0.9-8.4l77.7-51.9c3.7-2.5,9.4-2.8,12.6-0.6l114.1,76.3
				c3.2,2.2,2.8,5.9-0.9,8.4l-77.7,51.9C953.1,459.4,947.5,459.7,944.3,457.5z"/>
			<path class="st0" d="M1034.5,402.8l-77.7,51.9c-3.7,2.5-9.4,2.8-12.6,0.6L830.2,379c-1.1-0.7-1.7-1.6-2-2.5
				c-0.5,1.8,0.1,3.6,2,4.8l114.1,76.3c3.2,2.2,8.9,1.9,12.6-0.6l77.7-51.9c2.5-1.7,3.5-3.9,2.9-5.9
				C1037.1,400.4,1036.1,401.7,1034.5,402.8z"/>
			<g>
				<path class="st14" d="M878.7,356l-5.2-3.5c-0.4-0.3-0.4-0.8,0.1-1.1l6.1-4.1c0.5-0.3,1.2-0.4,1.6-0.1l5.2,3.5
					c0.4,0.3,0.4,0.8-0.1,1.1l-6.1,4.1C879.8,356.3,879.1,356.3,878.7,356z"/>
				<path class="st14" d="M886.7,361.4l-5.2-3.5c-0.4-0.3-0.4-0.8,0.1-1.1l6.1-4.1c0.5-0.3,1.2-0.4,1.6-0.1l5.2,3.5
					c0.4,0.3,0.4,0.8-0.1,1.1l-6.1,4.1C887.8,361.6,887.1,361.6,886.7,361.4z"/>
				<path class="st14" d="M894.6,366.7l-5.2-3.5c-0.4-0.3-0.4-0.8,0.1-1.1l6.1-4.1c0.5-0.3,1.2-0.4,1.6-0.1l5.2,3.5
					c0.4,0.3,0.4,0.8-0.1,1.1l-6.1,4.1C895.8,366.9,895.1,367,894.6,366.7z"/>
				<path class="st14" d="M905.7,362.3l-5.2-3.5c-0.4-0.3-0.4-0.8,0.1-1.1l5.1-3.4c0.5-0.3,1.2-0.4,1.6-0.1l5.2,3.5
					c0.4,0.3,0.4,0.8-0.1,1.1l-5.1,3.4C906.8,362.5,906.1,362.6,905.7,362.3z"/>
				<path class="st14" d="M913.6,367.6l-5.2-3.5c-0.4-0.3-0.4-0.8,0.1-1.1l5.1-3.4c0.5-0.3,1.2-0.4,1.6-0.1l5.2,3.5
					c0.4,0.3,0.4,0.8-0.1,1.1l-5.1,3.4C914.8,367.9,914,367.9,913.6,367.6z"/>
				<path class="st14" d="M921.6,372.9l-5.2-3.5c-0.4-0.3-0.4-0.8,0.1-1.1l5.1-3.4c0.5-0.3,1.2-0.4,1.6-0.1l5.2,3.5
					c0.4,0.3,0.4,0.8-0.1,1.1l-5.1,3.4C922.7,373.2,922,373.2,921.6,372.9z"/>
				<path class="st14" d="M929.6,378.3l-5.2-3.5c-0.4-0.3-0.4-0.8,0.1-1.1l5.1-3.4c0.5-0.3,1.2-0.4,1.6-0.1l5.2,3.5
					c0.4,0.3,0.4,0.8-0.1,1.1l-5.1,3.4C930.7,378.5,930,378.5,929.6,378.3z"/>
				<path class="st14" d="M937.5,383.6l-5.2-3.5c-0.4-0.3-0.4-0.8,0.1-1.1l5.1-3.4c0.5-0.3,1.2-0.4,1.6-0.1l5.2,3.5
					c0.4,0.3,0.4,0.8-0.1,1.1l-5.1,3.4C938.7,383.8,938,383.9,937.5,383.6z"/>
				<path class="st14" d="M945.5,388.9l-5.2-3.5c-0.4-0.3-0.4-0.8,0.1-1.1l5.1-3.4c0.5-0.3,1.2-0.4,1.6-0.1l5.2,3.5
					c0.4,0.3,0.4,0.8-0.1,1.1l-5.1,3.4C946.7,389.2,945.9,389.2,945.5,388.9z"/>
				<path class="st14" d="M953.5,394.3l-5.2-3.5c-0.4-0.3-0.4-0.8,0.1-1.1l5.1-3.4c0.5-0.3,1.2-0.4,1.6-0.1l5.2,3.5
					c0.4,0.3,0.4,0.8-0.1,1.1l-5.1,3.4C954.6,394.5,953.9,394.5,953.5,394.3z"/>
				<path class="st14" d="M961.5,399.6l-5.2-3.5c-0.4-0.3-0.4-0.8,0.1-1.1l5.1-3.4c0.5-0.3,1.2-0.4,1.6-0.1l5.2,3.5
					c0.4,0.3,0.4,0.8-0.1,1.1l-5.1,3.4C962.6,399.8,961.9,399.9,961.5,399.6z"/>
				<path class="st14" d="M969.4,404.9l-5.2-3.5c-0.4-0.3-0.4-0.8,0.1-1.1l5.1-3.4c0.5-0.3,1.2-0.4,1.6-0.1l5.2,3.5
					c0.4,0.3,0.4,0.8-0.1,1.1l-5.1,3.4C970.6,405.2,969.9,405.2,969.4,404.9z"/>
				<path class="st14" d="M977.4,410.2l-5.2-3.5c-0.4-0.3-0.4-0.8,0.1-1.1l5.1-3.4c0.5-0.3,1.2-0.4,1.6-0.1l5.2,3.5
					c0.4,0.3,0.4,0.8-0.1,1.1l-5.1,3.4C978.5,410.5,977.8,410.5,977.4,410.2z"/>
				<path class="st14" d="M917.4,359.8l-5.2-3.5c-0.4-0.3-0.4-0.8,0.1-1.1l5.1-3.4c0.5-0.3,1.2-0.4,1.6-0.1l5.2,3.5
					c0.4,0.3,0.4,0.8-0.1,1.1l-5.1,3.4C918.5,360,917.8,360,917.4,359.8z"/>
				<path class="st14" d="M909.3,354.4l-5.2-3.5c-0.4-0.3-0.4-0.8,0.1-1.1l5.1-3.4c0.5-0.3,1.2-0.4,1.6-0.1l5.2,3.5
					c0.4,0.3,0.4,0.8-0.1,1.1l-5.1,3.4C910.5,354.6,909.7,354.6,909.3,354.4z"/>
				<path class="st14" d="M901.2,348.9l-11.1-7.4c-0.4-0.3-0.4-0.8,0.1-1.1l5.1-3.4c0.5-0.3,1.2-0.4,1.6-0.1l11.1,7.4
					c0.4,0.3,0.4,0.8-0.1,1.1l-5.1,3.4C902.4,349.2,901.6,349.2,901.2,348.9z"/>
				<path class="st14" d="M906.9,342.3l-9-6c-0.4-0.3-0.4-0.8,0.1-1.1l5.1-3.4c0.5-0.3,1.2-0.4,1.6-0.1l9,6c0.4,0.3,0.4,0.8-0.1,1.1
					l-5.1,3.4C908,342.6,907.3,342.6,906.9,342.3z"/>
				<path class="st14" d="M925.4,365.1l-5.2-3.5c-0.4-0.3-0.4-0.8,0.1-1.1l5.1-3.4c0.5-0.3,1.2-0.4,1.6-0.1l5.2,3.5
					c0.4,0.3,0.4,0.8-0.1,1.1L927,365C926.5,365.3,925.8,365.4,925.4,365.1z"/>
				<path class="st14" d="M933.4,370.4l-5.2-3.5c-0.4-0.3-0.4-0.8,0.1-1.1l5.1-3.4c0.5-0.3,1.2-0.4,1.6-0.1l5.2,3.5
					c0.4,0.3,0.4,0.8-0.1,1.1l-5.1,3.4C934.5,370.7,933.8,370.7,933.4,370.4z"/>
				<path class="st14" d="M941.3,375.7l-5.2-3.5c-0.4-0.3-0.4-0.8,0.1-1.1l5.1-3.4c0.5-0.3,1.2-0.4,1.6-0.1l5.2,3.5
					c0.4,0.3,0.4,0.8-0.1,1.1l-5.1,3.4C942.5,376,941.7,376,941.3,375.7z"/>
				<path class="st14" d="M949.3,381.1l-5.2-3.5c-0.4-0.3-0.4-0.8,0.1-1.1l5.1-3.4c0.5-0.3,1.2-0.4,1.6-0.1l5.2,3.5
					c0.4,0.3,0.4,0.8-0.1,1.1l-5.1,3.4C950.4,381.3,949.7,381.4,949.3,381.1z"/>
				<path class="st14" d="M957.3,386.4l-5.2-3.5c-0.4-0.3-0.4-0.8,0.1-1.1l5.1-3.4c0.5-0.3,1.2-0.4,1.6-0.1l5.2,3.5
					c0.4,0.3,0.4,0.8-0.1,1.1l-5.1,3.4C958.4,386.7,957.7,386.7,957.3,386.4z"/>
				<path class="st14" d="M965.2,391.7l-5.2-3.5c-0.4-0.3-0.4-0.8,0.1-1.1l5.1-3.4c0.5-0.3,1.2-0.4,1.6-0.1l5.2,3.5
					c0.4,0.3,0.4,0.8-0.1,1.1l-5.1,3.4C966.4,392,965.7,392,965.2,391.7z"/>
				<path class="st14" d="M973.2,397.1l-5.2-3.5c-0.4-0.3-0.4-0.8,0.1-1.1l5.1-3.4c0.5-0.3,1.2-0.4,1.6-0.1l5.2,3.5
					c0.4,0.3,0.4,0.8-0.1,1.1l-5.1,3.4C974.3,397.3,973.6,397.3,973.2,397.1z"/>
				<path class="st14" d="M981.2,402.4l-5.2-3.5c-0.4-0.3-0.4-0.8,0.1-1.1l5.1-3.4c0.5-0.3,1.2-0.4,1.6-0.1l5.2,3.5
					c0.4,0.3,0.4,0.8-0.1,1.1l-5.1,3.4C982.3,402.6,981.6,402.7,981.2,402.4z"/>
				<path class="st14" d="M989.2,407.7l-5.2-3.5c-0.4-0.3-0.4-0.8,0.1-1.1l5.1-3.4c0.5-0.3,1.2-0.4,1.6-0.1l5.2,3.5
					c0.4,0.3,0.4,0.8-0.1,1.1l-5.1,3.4C990.3,408,989.6,408,989.2,407.7z"/>
				<path class="st14" d="M1003.3,417.2l-11.3-7.5c-0.4-0.3-0.4-0.8,0.1-1.1l5.1-3.4c0.5-0.3,1.2-0.4,1.6-0.1l11.3,7.5
					c0.4,0.3,0.4,0.8-0.1,1.1l-5.1,3.4C1004.5,417.4,1003.7,417.5,1003.3,417.2z"/>
				<path class="st14" d="M1018.8,406.8l-9.5-6.4c-0.4-0.3-0.4-0.8,0.1-1.1l5.1-3.4c0.5-0.3,1.2-0.4,1.6-0.1l9.5,6.4
					c0.4,0.3,0.4,0.8-0.1,1.1l-5.1,3.4C1020,407.1,1019.3,407.1,1018.8,406.8z"/>
				<path class="st14" d="M939.3,364l-5.2-3.5c-0.4-0.3-0.4-0.8,0.1-1.1l5.1-3.4c0.5-0.3,1.2-0.4,1.6-0.1l5.2,3.5
					c0.4,0.3,0.4,0.8-0.1,1.1L941,364C940.5,364.3,939.8,364.3,939.3,364z"/>
				<path class="st14" d="M931.2,358.6l-5.2-3.5c-0.4-0.3-0.4-0.8,0.1-1.1l5.1-3.4c0.5-0.3,1.2-0.4,1.6-0.1l5.2,3.5
					c0.4,0.3,0.4,0.8-0.1,1.1l-5.1,3.4C932.3,358.8,931.6,358.9,931.2,358.6z"/>
				<path class="st14" d="M923,353.1l-5.2-3.5c-0.4-0.3-0.4-0.8,0.1-1.1l5.1-3.4c0.5-0.3,1.2-0.4,1.6-0.1l5.2,3.5
					c0.4,0.3,0.4,0.8-0.1,1.1l-5.1,3.4C924.1,353.4,923.4,353.4,923,353.1z"/>
				<path class="st14" d="M914.8,347.7l-5.2-3.5c-0.4-0.3-0.4-0.8,0.1-1.1l5.1-3.4c0.5-0.3,1.2-0.4,1.6-0.1l5.2,3.5
					c0.4,0.3,0.4,0.8-0.1,1.1l-5.1,3.4C916,347.9,915.2,347.9,914.8,347.7z"/>
				<path class="st14" d="M947.3,369.4l-5.2-3.5c-0.4-0.3-0.4-0.8,0.1-1.1l5.1-3.4c0.5-0.3,1.2-0.4,1.6-0.1l5.2,3.5
					c0.4,0.3,0.4,0.8-0.1,1.1l-5.1,3.4C948.5,369.6,947.7,369.7,947.3,369.4z"/>
				<path class="st14" d="M955.3,374.7l-5.2-3.5c-0.4-0.3-0.4-0.8,0.1-1.1l5.1-3.4c0.5-0.3,1.2-0.4,1.6-0.1l5.2,3.5
					c0.4,0.3,0.4,0.8-0.1,1.1l-5.1,3.4C956.4,374.9,955.7,375,955.3,374.7z"/>
				<path class="st14" d="M963.3,380l-5.2-3.5c-0.4-0.3-0.4-0.8,0.1-1.1l5.1-3.4c0.5-0.3,1.2-0.4,1.6-0.1l5.2,3.5
					c0.4,0.3,0.4,0.8-0.1,1.1l-5.1,3.4C964.4,380.3,963.7,380.3,963.3,380z"/>
				<path class="st14" d="M971.2,385.4l-5.2-3.5c-0.4-0.3-0.4-0.8,0.1-1.1l5.1-3.4c0.5-0.3,1.2-0.4,1.6-0.1l5.2,3.5
					c0.4,0.3,0.4,0.8-0.1,1.1l-5.1,3.4C972.4,385.6,971.6,385.6,971.2,385.4z"/>
				<path class="st14" d="M979.2,390.7l-5.2-3.5c-0.4-0.3-0.4-0.8,0.1-1.1l5.1-3.4c0.5-0.3,1.2-0.4,1.6-0.1l5.2,3.5
					c0.4,0.3,0.4,0.8-0.1,1.1l-5.1,3.4C980.3,390.9,979.6,391,979.2,390.7z"/>
				<path class="st14" d="M987.2,396l-5.2-3.5c-0.4-0.3-0.4-0.8,0.1-1.1l5.1-3.4c0.5-0.3,1.2-0.4,1.6-0.1l5.2,3.5
					c0.4,0.3,0.4,0.8-0.1,1.1l-5.1,3.4C988.3,396.3,987.6,396.3,987.2,396z"/>
				<path class="st14" d="M995.1,401.4l-5.2-3.5c-0.4-0.3-0.4-0.8,0.1-1.1l5.1-3.4c0.5-0.3,1.2-0.4,1.6-0.1l5.2,3.5
					c0.4,0.3,0.4,0.8-0.1,1.1l-5.1,3.4C996.3,401.6,995.6,401.6,995.1,401.4z"/>
				<path class="st14" d="M1003.1,406.7l-5.2-3.5c-0.4-0.3-0.4-0.8,0.1-1.1l5.1-3.4c0.5-0.3,1.2-0.4,1.6-0.1l5.2,3.5
					c0.4,0.3,0.4,0.8-0.1,1.1l-5.1,3.4C1004.3,406.9,1003.5,407,1003.1,406.7z"/>
				<path class="st14" d="M1011.1,412l-5.2-3.5c-0.4-0.3-0.4-0.8,0.1-1.1l5.1-3.4c0.5-0.3,1.2-0.4,1.6-0.1l5.2,3.5
					c0.4,0.3,0.4,0.8-0.1,1.1l-5.1,3.4C1012.2,412.3,1011.5,412.3,1011.1,412z"/>
				<path class="st14" d="M935.1,350.9l-5.2-3.5c-0.4-0.3-0.4-0.8,0.1-1.1l5.1-3.4c0.5-0.3,1.2-0.4,1.6-0.1l5.2,3.5
					c0.4,0.3,0.4,0.8-0.1,1.1l-5.1,3.4C936.3,351.1,935.6,351.1,935.1,350.9z"/>
				<path class="st14" d="M927.2,345.6l-5.2-3.5c-0.4-0.3-0.4-0.8,0.1-1.1l5.1-3.4c0.5-0.3,1.2-0.4,1.6-0.1l5.2,3.5
					c0.4,0.3,0.4,0.8-0.1,1.1l-5.1,3.4C928.3,345.8,927.6,345.8,927.2,345.6z"/>
				<path class="st14" d="M919.3,340.3l-5.2-3.5c-0.4-0.3-0.4-0.8,0.1-1.1l5.1-3.4c0.5-0.3,1.2-0.4,1.6-0.1l5.2,3.5
					c0.4,0.3,0.4,0.8-0.1,1.1l-5.1,3.4C920.4,340.5,919.7,340.5,919.3,340.3z"/>
				<path class="st14" d="M911.3,335l-5.2-3.5c-0.4-0.3-0.4-0.8,0.1-1.1l5.1-3.4c0.5-0.3,1.2-0.4,1.6-0.1l5.2,3.5
					c0.4,0.3,0.4,0.8-0.1,1.1l-5.1,3.4C912.5,335.2,911.8,335.2,911.3,335z"/>
				<path class="st14" d="M919.5,329.5l-5.2-3.5c-0.4-0.3-0.4-0.8,0.1-1.1l1.7-1.1c0.5-0.3,1.2-0.4,1.6-0.1l5.2,3.5
					c0.4,0.3,0.4,0.8-0.1,1.1l-1.7,1.1C920.6,329.8,919.9,329.8,919.5,329.5z"/>
				<path class="st14" d="M929.9,336.4l-5.2-3.5c-0.4-0.3-0.4-0.8,0.1-1.1l1.7-1.1c0.5-0.3,1.2-0.4,1.6-0.1l5.2,3.5
					c0.4,0.3,0.4,0.8-0.1,1.1l-1.7,1.1C931,336.7,930.3,336.7,929.9,336.4z"/>
				<path class="st14" d="M937.8,341.7l-5.2-3.5c-0.4-0.3-0.4-0.8,0.1-1.1l1.7-1.1c0.5-0.3,1.2-0.4,1.6-0.1l5.2,3.5
					c0.4,0.3,0.4,0.8-0.1,1.1l-1.7,1.1C938.9,342,938.2,342,937.8,341.7z"/>
				<path class="st14" d="M945.7,347l-5.2-3.5c-0.4-0.3-0.4-0.8,0.1-1.1l1.7-1.1c0.5-0.3,1.2-0.4,1.6-0.1l5.2,3.5
					c0.4,0.3,0.4,0.8-0.1,1.1l-1.7,1.1C946.8,347.2,946.1,347.3,945.7,347z"/>
				<path class="st14" d="M953.6,352.3l-5.2-3.5c-0.4-0.3-0.4-0.8,0.1-1.1l1.7-1.1c0.5-0.3,1.2-0.4,1.6-0.1l5.2,3.5
					c0.4,0.3,0.4,0.8-0.1,1.1l-1.7,1.1C954.7,352.5,954,352.5,953.6,352.3z"/>
				<path class="st14" d="M997.7,381.7l-5.2-3.5c-0.4-0.3-0.4-0.8,0.1-1.1l1.7-1.1c0.5-0.3,1.2-0.4,1.6-0.1l5.2,3.5
					c0.4,0.3,0.4,0.8-0.1,1.1l-1.7,1.1C998.8,382,998.1,382,997.7,381.7z"/>
				<path class="st14" d="M1005.6,387l-5.2-3.5c-0.4-0.3-0.4-0.8,0.1-1.1l1.7-1.1c0.5-0.3,1.2-0.4,1.6-0.1l5.2,3.5
					c0.4,0.3,0.4,0.8-0.1,1.1l-1.7,1.1C1006.7,387.3,1006,387.3,1005.6,387z"/>
				<path class="st14" d="M1013.4,392.3l-5.2-3.5c-0.4-0.3-0.4-0.8,0.1-1.1l1.7-1.1c0.5-0.3,1.2-0.4,1.6-0.1l5.2,3.5
					c0.4,0.3,0.4,0.8-0.1,1.1l-1.7,1.1C1014.6,392.6,1013.9,392.6,1013.4,392.3z"/>
				<path class="st14" d="M1021.3,397.6l-5.2-3.5c-0.4-0.3-0.4-0.8,0.1-1.1l1.7-1.1c0.5-0.3,1.2-0.4,1.6-0.1l5.2,3.5
					c0.4,0.3,0.4,0.8-0.1,1.1l-1.7,1.1C1022.5,397.8,1021.8,397.9,1021.3,397.6z"/>
				<path class="st14" d="M943.1,356.2l-5.2-3.5c-0.4-0.3-0.4-0.8,0.1-1.1l5.1-3.4c0.5-0.3,1.2-0.4,1.6-0.1l5.2,3.5
					c0.4,0.3,0.4,0.8-0.1,1.1l-5.1,3.4C944.3,356.4,943.5,356.5,943.1,356.2z"/>
				<path class="st14" d="M951.1,361.5l-5.2-3.5c-0.4-0.3-0.4-0.8,0.1-1.1l5.1-3.4c0.5-0.3,1.2-0.4,1.6-0.1l5.2,3.5
					c0.4,0.3,0.4,0.8-0.1,1.1l-5.1,3.4C952.2,361.8,951.5,361.8,951.1,361.5z"/>
				<path class="st14" d="M959.1,366.9l-5.2-3.5c-0.4-0.3-0.4-0.8,0.1-1.1l5.1-3.4c0.5-0.3,1.2-0.4,1.6-0.1l5.2,3.5
					c0.4,0.3,0.4,0.8-0.1,1.1l-5.1,3.4C960.2,367.1,959.5,367.1,959.1,366.9z"/>
				<path class="st14" d="M967,372.2l-5.2-3.5c-0.4-0.3-0.4-0.8,0.1-1.1l5.1-3.4c0.5-0.3,1.2-0.4,1.6-0.1l5.2,3.5
					c0.4,0.3,0.4,0.8-0.1,1.1l-5.1,3.4C968.2,372.4,967.4,372.5,967,372.2z"/>
				<path class="st14" d="M975,377.5l-5.2-3.5c-0.4-0.3-0.4-0.8,0.1-1.1l5.1-3.4c0.5-0.3,1.2-0.4,1.6-0.1l5.2,3.5
					c0.4,0.3,0.4,0.8-0.1,1.1l-5.1,3.4C976.1,377.8,975.4,377.8,975,377.5z"/>
				<path class="st14" d="M983,382.8l-5.2-3.5c-0.4-0.3-0.4-0.8,0.1-1.1l5.1-3.4c0.5-0.3,1.2-0.4,1.6-0.1l5.2,3.5
					c0.4,0.3,0.4,0.8-0.1,1.1l-5.1,3.4C984.1,383.1,983.4,383.1,983,382.8z"/>
				<path class="st14" d="M990.9,388.2l-5.2-3.5c-0.4-0.3-0.4-0.8,0.1-1.1l5.1-3.4c0.5-0.3,1.2-0.4,1.6-0.1l5.2,3.5
					c0.4,0.3,0.4,0.8-0.1,1.1l-5.1,3.4C992.1,388.4,991.4,388.4,990.9,388.2z"/>
				<path class="st14" d="M998.9,393.5l-5.2-3.5c-0.4-0.3-0.4-0.8,0.1-1.1l5.1-3.4c0.5-0.3,1.2-0.4,1.6-0.1l5.2,3.5
					c0.4,0.3,0.4,0.8-0.1,1.1l-5.1,3.4C1000.1,393.7,999.3,393.8,998.9,393.5z"/>
				<path class="st14" d="M1006.9,398.8l-5.2-3.5c-0.4-0.3-0.4-0.8,0.1-1.1l5.1-3.4c0.5-0.3,1.2-0.4,1.6-0.1l5.2,3.5
					c0.4,0.3,0.4,0.8-0.1,1.1l-5.1,3.4C1008,399.1,1007.3,399.1,1006.9,398.8z"/>
				<path class="st14" d="M897.5,356.9l-15.2-10.2c-0.4-0.3-0.4-0.8,0.1-1.1l5.1-3.4c0.5-0.3,1.2-0.4,1.6-0.1l15.2,10.2
					c0.4,0.3,0.4,0.8-0.1,1.1l-5.1,3.4C898.7,357.1,898,357.1,897.5,356.9z"/>
				<path class="st14" d="M995.5,422.3l-15.2-10.2c-0.4-0.3-0.4-0.8,0.1-1.1l5.1-3.4c0.5-0.3,1.2-0.4,1.6-0.1l15.2,10.2
					c0.4,0.3,0.4,0.8-0.1,1.1l-5.1,3.4C996.6,422.6,995.9,422.6,995.5,422.3z"/>
				<path class="st14" d="M963.6,412.8l-5.2-3.5c-0.4-0.3-0.4-0.8,0.1-1.1l6.1-4.1c0.5-0.3,1.2-0.4,1.6-0.1l5.2,3.5
					c0.4,0.3,0.4,0.8-0.1,1.1l-6.1,4.1C964.7,413,964,413.1,963.6,412.8z"/>
				<path class="st14" d="M905.7,374.1l-8.3-5.5c-0.4-0.3-0.4-0.8,0.1-1.1l6.1-4.1c0.5-0.3,1.2-0.4,1.6-0.1l8.3,5.5
					c0.4,0.3,0.4,0.8-0.1,1.1l-6.1,4.1C906.8,374.3,906.1,374.4,905.7,374.1z"/>
				<path class="st14" d="M955.9,407.6l-8.3-5.5c-0.4-0.3-0.4-0.8,0.1-1.1l6.1-4.1c0.5-0.3,1.2-0.4,1.6-0.1l8.3,5.5
					c0.4,0.3,0.4,0.8-0.1,1.1l-6.1,4.1C957.1,407.9,956.3,407.9,955.9,407.6z"/>
				<path class="st14" d="M917.2,381.8l-8.3-5.5c-0.4-0.3-0.4-0.8,0.1-1.1l6.1-4.1c0.5-0.3,1.2-0.4,1.6-0.1l8.3,5.5
					c0.4,0.3,0.4,0.8-0.1,1.1l-6.1,4.1C918.3,382,917.6,382,917.2,381.8z"/>
				<path class="st14" d="M916.8,371.1l35.9,24c0.4,0.3,0.4,0.8,0,1.1l-6.2,4.2c-0.4,0.3-1.2,0.3-1.6,0l-35.9-24L916.8,371.1z"/>
				<path class="st14" d="M985.9,422.4l5.8,3.8c0.3,0.2,0.3,0.6-0.1,0.9l-2.5,1.7c-0.4,0.3-1,0.3-1.3,0.1l-5.8-3.8
					c-0.3-0.2-0.3-0.6,0.1-0.9l2.5-1.7C984.9,422.2,985.5,422.2,985.9,422.4z"/>
				<path class="st14" d="M977.8,417.1l5.8,3.8c0.3,0.2,0.3,0.6-0.1,0.9l-2.5,1.7c-0.4,0.3-1,0.3-1.3,0.1l-5.8-3.8
					c-0.3-0.2-0.3-0.6,0.1-0.9l2.5-1.7C976.9,416.9,977.5,416.8,977.8,417.1z"/>
				<path class="st14" d="M969.9,411.7l5.8,3.8c0.3,0.2,0.3,0.6-0.1,0.9l-2.5,1.7c-0.4,0.3-1,0.3-1.3,0.1l-5.8-3.8
					c-0.3-0.2-0.3-0.6,0.1-0.9l2.5-1.7C968.9,411.5,969.5,411.5,969.9,411.7z"/>
				<path class="st14" d="M982.2,414.1l5.8,3.8c0.3,0.2,0.3,0.6-0.1,0.9l-2.5,1.7c-0.4,0.3-1,0.3-1.3,0.1l-5.8-3.8
					c-0.3-0.2-0.3-0.6,0.1-0.9l2.5-1.7C981.3,413.9,981.9,413.9,982.2,414.1z"/>
			</g>
			<g>
				<polygon class="st0" points="1013.7,310.1 970.8,281.4 971.3,278.2 1014.3,306.9 				"/>
				<polygon class="st0" points="998.3,315.6 968.4,295.6 968.9,292.3 998.9,312.4 				"/>
				<polygon class="st22" points="995.5,305.8 969.6,288.5 970.1,285.3 996.1,302.6 				"/>
				<polygon class="st16" points="1012.5,317.2 999.6,308.5 1000.1,305.3 1013.1,314 				"/>
			</g>
			<g>
				<path class="st16" d="M990,278.1c-0.4,1-1.5,1.4-2.3,0.8c-0.9-0.6-1.2-1.9-0.8-2.9c0.4-1,1.5-1.4,2.3-0.8
					C990,275.7,990.4,277.1,990,278.1z"/>
				<path class="st0" d="M995.6,281.8c-0.4,1-1.5,1.4-2.3,0.8c-0.9-0.6-1.2-1.9-0.8-2.9s1.5-1.4,2.3-0.8
					C995.6,279.5,996,280.8,995.6,281.8z"/>
				<path class="st16" d="M1001.2,285.6c-0.4,1-1.5,1.4-2.3,0.8c-0.9-0.6-1.2-1.9-0.8-2.9c0.4-1,1.5-1.4,2.3-0.8
					C1001.2,283.2,1001.6,284.5,1001.2,285.6z"/>
				<path class="st22" d="M1006.8,289.3c-0.4,1-1.5,1.4-2.3,0.8c-0.9-0.6-1.2-1.9-0.8-2.9c0.4-1,1.5-1.4,2.3-0.8
					C1006.8,286.9,1007.2,288.3,1006.8,289.3z"/>
			</g>
		</g>
		<g>
			<g>
				<path class="st16" d="M1013.7,157.7l-2.2-1.5v-3.7c0-3.9-2.4-8.7-5.3-10.7l-16.7-11.1c-2.9-2-5.3-0.4-5.3,3.6v3.7l-2.2-1.5v-3.7
					c0-5.6,3.4-7.8,7.6-5l16.7,11.1c4.2,2.8,7.6,9.6,7.6,15.1V157.7z"/>
			</g>
			<path class="st16" d="M1006.1,162.7l7.5-5l-1.5-6.1l-2.1-6.2c0,0-3.6-4.7-3.9-4.8c-0.3-0.1-10.2-6.6-10.2-6.6l-8.2-6.9l-3.9,0.2
				l-7.3,4.8l5.2,2.5c0,0,3,1.7,3.6,1.9c0.7,0.2,3.6,3.4,3.7,3.5c0.1,0,3.6,1.7,3.6,1.7l0.8-0.1l6.4,5.2l2.1,1.1l1.1,2.1l1.7,5.5
				L1006.1,162.7z"/>
			<path class="st15" d="M984,137.9l-7.5,5c0,0-0.5-5.6-0.5-5.7c0-0.1,1.6-2.7,1.6-2.7l4.1-0.9l3.2,2.8l-1-0.5l-0.4,0.3l0.5,0.9
				V137.9z"/>
			<g>
				<path class="st14" d="M1006.1,162.7l-2.2-1.5v-3.7c0-3.9-2.4-8.7-5.3-10.7l-16.7-11.1c-2.9-2-5.3-0.4-5.3,3.6v3.7l-2.2-1.5v-3.7
					c0-5.6,3.4-7.8,7.6-5l16.7,11.1c4.2,2.8,7.6,9.6,7.6,15.1V162.7z"/>
			</g>
		</g>
		<g>
			<g>
				<path class="st16" d="M1089.4,157.6l-1.6-1.1c-0.7,0.5-1.4,1.1-2.1,1.6l3.7,2.5c2.9,2,5.3,6.8,5.3,10.7v3.7l2.2,1.5v-3.7
					C1096.9,167.2,1093.5,160.4,1089.4,157.6z"/>
			</g>
			<path class="st16" d="M1093.3,164.2c0,0-3.6-4.7-3.9-4.8c-0.1,0-1.3-0.8-2.9-1.9c-2.4,1.8-4.8,3.4-7.2,4.9l3.9,3.1l2.1,1.1
				l1.1,2.1l1.7,5.5l1.4,7.2l7.5-5l-1.5-6.1L1093.3,164.2z"/>
			<g>
				<path class="st14" d="M1081.8,165.6c2.9,2,5.3,6.8,5.3,10.7v3.7l2.2,1.5v-3.7c0-5.6-3.4-12.4-7.6-15.1l-1.4-1
					c-0.8,0.5-1.5,1-2.3,1.4L1081.8,165.6z"/>
			</g>
		</g>
	</g>
	<g>
		<g>
			<path class="st23" d="M1226.3,96.5L1201,79.6c-0.5-0.3-1-0.3-1.3-0.1c0,0,0,0,0,0l-2.4,1.6c0,0,1.1,0.5,1.7,0.7v21.3
				c0,1.7,0.9,3.7,2,4.5l24.1,16.1v2.5l2.5-1.6l0,0c0.4-0.3,0.7-0.9,0.7-1.9V101C1228.3,99.3,1227.4,97.2,1226.3,96.5z"/>
			<path class="st22" d="M1223.8,126.1l-25.2-16.9c-1.1-0.7-2-2.8-2-4.5V83.1c0-1.7,0.9-2.5,2-1.8l25.2,16.9c1.1,0.7,2,2.8,2,4.5
				v21.7C1225.8,126.1,1224.9,126.9,1223.8,126.1z"/>
			<path class="st0" d="M1224.4,97.8L1199.2,81c-0.6-0.4-1.2-0.3-1.5,0.1c0.3,0,0.6,0,0.9,0.3l25.2,16.9c1.1,0.7,2,2.8,2,4.5v21.7
				c0,0.8-0.2,1.4-0.5,1.7c0.7-0.1,1.1-0.8,1.1-2v-21.7C1226.4,100.6,1225.5,98.6,1224.4,97.8z"/>
		</g>
		<g>
			<path class="st0" d="M1207,101.8c0,1.3-0.8,1.8-1.7,1.1c-0.9-0.6-1.7-2.2-1.7-3.4c0-1.3,0.8-1.8,1.7-1.1
				C1206.3,99,1207,100.5,1207,101.8z"/>
			<path class="st0" d="M1212.2,105.2c0,1.3-0.8,1.8-1.7,1.1c-0.9-0.6-1.7-2.2-1.7-3.4c0-1.3,0.8-1.8,1.7-1.1
				C1211.4,102.5,1212.2,104,1212.2,105.2z"/>
			<path class="st0" d="M1217.3,108.7c0,1.3-0.8,1.8-1.7,1.1c-0.9-0.6-1.7-2.2-1.7-3.4c0-1.3,0.8-1.8,1.7-1.1
				C1216.6,105.9,1217.3,107.4,1217.3,108.7z"/>
		</g>
	</g>
	<g>
		<g>
			<path class="st14" d="M1211.9,69.2l-25.2-16.9c-0.5-0.3-1-0.3-1.3-0.1l0,0l-2.4,1.6c0,0,1.1,0.5,1.7,0.7v21.3
				c0,1.7,0.9,3.7,2,4.5l24.1,16.1v2.5l2.5-1.6l0,0c0.4-0.3,0.7-0.9,0.7-1.9V73.7C1213.9,72,1213,69.9,1211.9,69.2z"/>
			<path class="st16" d="M1209.4,98.8L1184.2,82c-1.1-0.7-2-2.8-2-4.5V55.8c0-1.7,0.9-2.5,2-1.8l25.2,16.9c1.1,0.7,2,2.8,2,4.5v21.7
				C1211.5,98.8,1210.5,99.6,1209.4,98.8z"/>
			<path class="st0" d="M1210,70.5l-25.2-16.9c-0.6-0.4-1.2-0.3-1.5,0.1c0.3,0,0.6,0,0.9,0.3l25.2,16.9c1.1,0.7,2,2.8,2,4.5v21.7
				c0,0.8-0.2,1.4-0.5,1.7c0.7-0.1,1.1-0.8,1.1-2V75C1212.1,73.3,1211.2,71.3,1210,70.5z"/>
		</g>
		<g>
			<path class="st0" d="M1192.7,74.5c0,1.3-0.8,1.8-1.7,1.1c-0.9-0.6-1.7-2.2-1.7-3.4c0-1.3,0.8-1.8,1.7-1.1
				C1191.9,71.7,1192.7,73.2,1192.7,74.5z"/>
			<path class="st0" d="M1197.8,77.9c0,1.3-0.8,1.8-1.7,1.1c-0.9-0.6-1.7-2.2-1.7-3.4c0-1.3,0.8-1.8,1.7-1.1
				C1197.1,75.2,1197.8,76.7,1197.8,77.9z"/>
			<path class="st0" d="M1203,81.4c0,1.3-0.8,1.8-1.7,1.1c-0.9-0.6-1.7-2.2-1.7-3.4c0-1.3,0.8-1.8,1.7-1.1
				C1202.2,78.6,1203,80.1,1203,81.4z"/>
		</g>
	</g>
	<g>
		<g>
			<g>
				<g>
					<g>
						<polygon class="st14" points="1267.7,262.6 1271.7,256.9 1261.1,246.9 1257.1,252.6 						"/>
						<path class="st14" d="M1269.3,262.7c1.3-0.6,2.6-2.4,2.8-4c0.2-1.6-0.7-2.5-2-1.9c-1.3,0.6-2.6,2.4-2.8,4
							C1267.1,262.5,1268,263.3,1269.3,262.7z"/>
					</g>
					<g>
						<polygon class="st14" points="1257.7,256.1 1264.2,246.9 1253.3,236.6 1246.8,245.9 						"/>
						<path class="st15" d="M1262.8,248.5l3.6,3.4c-0.5,2.3-2.2,4.7-4,5.7l-3.6-3.4C1259.3,251.9,1261,249.6,1262.8,248.5z"/>
						<path class="st14" d="M1260.3,256.3c2.2-1,4.2-3.9,4.6-6.5c0.4-2.7-1.1-4-3.3-3.1c-2.2,1-4.2,3.9-4.6,6.5
							C1256.6,255.9,1258.1,257.2,1260.3,256.3z"/>
						<path class="st14" d="M1249.4,246c2.2-1,4.2-3.9,4.6-6.5c0.4-2.7-1.1-4-3.3-3.1s-4.2,3.9-4.6,6.5S1247.2,247,1249.4,246z"/>
						
							<ellipse transform="matrix(0.5231 -0.8523 0.8523 0.5231 390.5988 1180.4802)" class="st16" cx="1250.1" cy="241.2" rx="3.2" ry="1.8"/>
					</g>
				</g>
			</g>
			<path class="st16" d="M1269.3,258.1c0.5,0.5,1,0.3,1.1-0.5c0.1-0.8-0.2-1.8-0.7-2.3c-0.5-0.5-1-0.3-1.1,0.5
				C1268.5,256.6,1268.8,257.6,1269.3,258.1z"/>
		</g>
		<path class="st14" d="M1169.6,370.3c-1.7,0-3.4-0.5-5-1.6l-12.1-8.3c-0.4-0.3-0.5-0.8-0.3-1.2c0.2-0.4,0.7-0.6,1.1-0.3l12.1,8.3
			c2.6,1.8,5.5,1.9,8,0.2c2.7-1.8,4.4-5.3,4.4-9.1c0-9.2-0.9-20.5-1.8-32.5c-2.9-37.5-6.1-80.1,14.3-86.1c9-2.7,16-5.5,21.5-7.8
			c16-6.6,22-9,38.5,8.8c0.3,0.3,0.3,0.9,0,1.3c-0.3,0.4-0.8,0.4-1.1,0c-15.8-17-21.1-14.9-36.9-8.4c-5.6,2.3-12.5,5.1-21.6,7.8
			c-19.2,5.7-16,47.4-13.2,84.3c0.9,12.1,1.8,23.5,1.8,32.7c0,4.5-2,8.5-5.2,10.6C1172.7,369.8,1171.2,370.3,1169.6,370.3z"/>
		<g>
			<ellipse class="st17" cx="1221.5" cy="368" rx="25" ry="16.7"/>
			<g>
				<path class="st18" d="M1233.4,360.9c1.4,0.7,2.3,2.5,2.2,4.5c-0.1,0.9-0.2,1.8-0.3,2.2c-0.4,1.1-1.9,2.6-4.3,1.5
					c-2.3-1.1-7.5-6.7-7.7-10.4C1222.9,351.7,1229.7,359,1233.4,360.9z"/>
				<path class="st18" d="M1219.6,372.2c0,0,0.6,4,0.3,4.7c-0.3,0.7-1.9,2.3-4.3,1.9c-2.4-0.3-9.3-3.1-10.9-8.4
					c-2.4-8.2,13.4,0.6,13.4,0.6L1219.6,372.2z"/>
				<path class="st18" d="M1212.9,308.8l-0.5,61.9c0.1,2.2,1.3,4,2.9,4.3c0.2,0,0.4,0.1,0.7,0.1c1.7,0.2,2.6-0.7,3.2-1.5
					c0.4-0.7,0.7-1.6,0.7-2.5l0.7-26.4l3.4-23.6l4.7,41.8c0.1,1.1,0.5,2.2,1.3,2.8c0.5,0.4,1.2,0.7,2.2,0.7c1.3,0,2.3-0.9,2.9-1.6
					c0.5-0.6,0.7-1.4,0.7-2.2l-1.9-25.2l-0.7-32.1L1212.9,308.8z"/>
				<path class="st24" d="M1219.8,253.4l0.8,5.6c0,0,0,1.9-1.8,2.5c-1.9,0.5-2.4-0.9-2.4-0.9l-0.8-6.4L1219.8,253.4z"/>
				
					<ellipse transform="matrix(0.9464 -0.3231 0.3231 0.9464 -14.8868 405.8271)" class="st24" cx="1214.9" cy="247.8" rx="7.3" ry="8.8"/>
				<path class="st14" d="M1219.6,259.1c0.1-0.1,7.9-5.8,10.7,0.2c4.7,9.9,4.4,41.6,2.9,45.7c-1.4,3.8-4.8,6.6-7.2,8.2
					c-2.1,1.4-4.5,2.3-6.9,2.3c-2.4,0-7.1-2.5-6.9-6.1c0.8-16.9-0.5-31.1-1.7-44.8C1210.5,264.5,1212,262.7,1219.6,259.1z"/>
				<path class="st18" d="M1223.9,321l4.7,41.8c0.1,1.1,0.5,2.2,1.3,2.8c0.1,0.1,0.3,0.2,0.4,0.3c-1-0.8-3.8-36-4.4-39.9
					C1225.4,322.1,1223.9,321,1223.9,321z"/>
			</g>
			<polygon class="st24" points="1194.8,261 1190.6,245 1192.8,244 1197.8,256.5 			"/>
			<polygon class="st24" points="1237.2,248.4 1234.1,231.8 1231.6,231.8 1232.5,245.6 			"/>
			<path class="st14" d="M1210.5,264.5c0,0-7.6,1.7-12.4-8.5c-0.4-0.9-1.5-1-2-0.2c-0.8,1.4-1.8,3.4-1.3,5.7
				c2.3,10,15.1,12.2,17.3,17.9S1210.5,264.5,1210.5,264.5z"/>
			<path class="st14" d="M1224.5,257.1c0,0,6,0.5,6.9-5.5c0.4-3.1,0.6-4.9,0.6-6c0-0.7,0.6-1.3,1.2-1.2c1.4,0.2,3.7,0.7,4,1.8
				c0.4,1.7,1.3,9.8-4.6,22.3C1228.6,276.8,1224.5,257.1,1224.5,257.1z"/>
			<path class="st24" d="M1234.1,231.8l-0.1-1.9c0-0.7-0.2-1.3-0.5-1.9l-1.7-3.2l-0.4-0.6c-0.4-0.6-1.1-0.7-1.7-0.3l-0.4,0.3
				c-0.5,0.4-0.8,1-0.7,1.7l0.9,2.7l-1.1-0.2c-0.2,0-0.4,0.1-0.5,0.4l0,0c0,0.2,0.1,0.4,0.2,0.5l1.8,0.8l1.6,2.6L1234.1,231.8z"/>
			<path class="st24" d="M1190.5,245.1l-0.5-1.8c-0.2-0.6-0.2-1.3-0.1-2l0.6-3.6l0.2-0.8c0.2-0.7,0.8-1.1,1.5-1l0.4,0.1
				c0.6,0.1,1,0.6,1.2,1.3l0,2.9l0.9-0.7c0.2-0.1,0.4-0.1,0.5,0.2l0,0c0.1,0.2,0.1,0.4-0.1,0.6l-1.4,1.5l-0.8,3.5L1190.5,245.1z"/>
			<path class="st15" d="M1214.1,276.6c0.7,3.6-1.2,31.9,5.1,38.9c-2.4,0-7.1-2.5-6.9-6.1c0.5-11.3,0.1-21.4-0.6-31
				c-2.5-3.7-9.3-6.1-13.5-10.8C1198.5,267.7,1213.4,273,1214.1,276.6z"/>
			<path class="st0" d="M1222.4,257.5l-1.1-1.3c0,0-1.8,2.1-3.2,2.5c0,0-1.7,0.6-2.5,0.6l-0.7,2.2
				C1214.9,261.5,1220.5,261.1,1222.4,257.5z"/>
			<path class="st22" d="M1214.4,251c-0.3,0.2-0.6,0.2-0.8,0c-0.5-0.3-1.2-2.4-2.2-2.2c-1.5,0.2-3.6,3.9-6.3-1.2
				c-1.4-2.6-0.6-4-1.3-5.5c0,0,0.2,0.8,6.1-3.3c5.8-4.1,10.6,0.9,12.1,3.8s2.4,8.5-1.4,11.7c-0.6,0.5-4.7-0.4-4.8-0.8
				c-0.1-0.4,1-1,0.4-2C1215.7,250.6,1215.1,250.6,1214.4,251z"/>
		</g>
	</g>
	<g>
		<polygon class="st17" points="865.2,473.3 852.8,465 865.2,456.7 877.6,465 		"/>
		<polygon class="st23" points="877.6,455.6 865.2,463.9 865.2,447.3 877.6,439 		"/>
		<polygon class="st22" points="865.2,447.3 852.8,439 865.2,430.6 877.6,439 		"/>
		<polygon class="st22" points="865.2,463.9 852.8,455.6 852.8,439 865.2,447.3 		"/>
	</g>
	<g>
		<polygon class="st17" points="865.2,205.6 852.8,197.3 865.2,189 877.6,197.3 		"/>
		<polygon class="st18" points="877.6,187.9 865.2,196.2 865.2,179.5 877.6,171.2 		"/>
		<polygon class="st16" points="865.2,179.5 852.8,171.2 865.2,162.9 877.6,171.2 		"/>
		<polygon class="st14" points="865.2,196.2 852.8,187.9 852.8,171.2 865.2,179.5 		"/>
	</g>
	<g>
		<polygon class="st17" points="1065.1,485.2 1052.6,476.9 1065.1,468.6 1077.5,476.9 		"/>
		<polygon class="st18" points="1077.5,467.5 1065.1,475.8 1065.1,459.2 1077.5,450.9 		"/>
		<polygon class="st16" points="1065.1,459.2 1052.6,450.9 1065.1,442.6 1077.5,450.9 		"/>
		<polygon class="st14" points="1065.1,475.8 1052.6,467.5 1052.6,450.9 1065.1,459.2 		"/>
	</g>
</g>
</svg>
