<?xml version="1.0" encoding="utf-8"?>
<!-- Generator: Adobe Illustrator 24.0.1, SVG Export Plug-In . SVG Version: 6.00 Build 0)  -->
<svg version="1.1" id="Layer_1" xmlns="http://www.w3.org/2000/svg" xmlns:xlink="http://www.w3.org/1999/xlink" x="0px" y="0px"
	 viewBox="0 0 500 430.4" style="enable-background:new 0 0 500 430.4;" xml:space="preserve">
<style type="text/css">
	.st0{fill:url(#SVGID_1_);}
	.st1{fill:url(#SVGID_2_);}
	.st2{fill:url(#SVGID_3_);}
	.st3{fill:url(#SVGID_4_);}
	.st4{fill:url(#SVGID_5_);}
	.st5{fill:url(#SVGID_6_);}
	.st6{fill:url(#SVGID_7_);}
	.st7{fill:url(#SVGID_8_);}
	.st8{fill:url(#SVGID_9_);}
	.st9{fill:url(#SVGID_10_);}
	.st10{fill:url(#SVGID_11_);}
	.st11{fill:url(#SVGID_12_);}
	.st12{fill:url(#SVGID_13_);}
	.st13{fill:url(#SVGID_14_);}
	.st14{fill:url(#SVGID_15_);}
	.st15{fill:url(#SVGID_16_);}
	.st16{fill:url(#SVGID_17_);}
	.st17{fill:url(#SVGID_18_);}
	.st18{fill:url(#SVGID_19_);}
	.st19{fill:url(#SVGID_20_);}
	.st20{fill:url(#SVGID_21_);}
	.st21{fill:url(#SVGID_22_);}
	.st22{fill:url(#SVGID_23_);}
	.st23{fill:url(#SVGID_24_);}
	.st24{fill:url(#SVGID_25_);}
	.st25{fill:url(#SVGID_26_);}
	.st26{fill:url(#SVGID_27_);}
	.st27{fill:url(#SVGID_28_);}
	.st28{opacity:0.44;fill:url(#SVGID_29_);}
	.st29{fill:url(#SVGID_30_);}
	.st30{fill:url(#SVGID_31_);}
	.st31{fill:url(#SVGID_32_);}
	.st32{fill:url(#SVGID_33_);}
	.st33{fill:#F4AE00;}
	.st34{font-family:'Masque';}
	.st35{font-size:33.1282px;}
	.st36{fill:#FFFFFF;}
	.st37{font-size:26.9182px;}
</style>
<g>
	<g>
		<radialGradient id="SVGID_1_" cx="249.5901" cy="193.2123" r="190.1337" gradientUnits="userSpaceOnUse">
			<stop  offset="0" style="stop-color:#FFFBCC"/>
			<stop  offset="0.1146" style="stop-color:#FBF2BB"/>
			<stop  offset="0.3413" style="stop-color:#F0D98E"/>
			<stop  offset="0.3708" style="stop-color:#EED688"/>
			<stop  offset="0.6854" style="stop-color:#EBBB10"/>
			<stop  offset="1" style="stop-color:#C3922E"/>
		</radialGradient>
		<path class="st0" d="M200.1,348.5c0.3-4,0.3-11.9-3.4-20.8c-4.3-10.3-17.2-14.7-17.2-14.7s-3.1,14.9,3,24.6c2,3.2,5.7,6.2,9.2,8.7
			c-5.6-1.6-11.8-3.7-18.4-6.6c1-3.8,2.4-11.5,0.3-20.7c-2.4-10.6-14.1-17.1-14.1-17.1s-5.5,13.8-1.3,24.3c1.4,3.4,4.5,7.1,7.5,10.1
			c-3.6-1.8-7.3-3.7-11.1-5.9c-2.1-1.1-4.2-2.4-6.3-3.7c1.6-3.4,4.3-10.7,3.9-20.2c-0.5-10.7-10.7-18.9-10.7-18.9
			s-7.7,12.4-5.4,23.2c0.8,3.8,3.5,8.2,6,11.7c-5.5-3.9-10.8-8.4-16.1-13.4c2.1-3,6-9.5,7.2-18.9c1.4-10.4-7.1-20.1-7.1-20.1
			s-9.5,10.6-9.2,21.5c0.1,3.7,1.9,8.4,3.7,12.1c-4.6-4.9-9.1-10.3-13.3-16c2.6-2.6,7.3-8.2,10-16.8c3.1-9.8-3.4-20.6-3.4-20.6
			s-11,8.6-12.5,19.2c-0.5,3.4,0.3,7.9,1.4,11.7c-3.7-5.5-7-11.3-10.1-17.3c2.9-2,8.5-6.7,12.7-14.6c4.6-8.9,0.2-20.4,0.2-20.4
			s-12.1,6.5-15.3,16.4c-1.1,3.4-1,8.2-0.6,12.2c-2.8-6.2-5.2-12.7-7.2-19.3c3.1-1.4,9.5-4.9,14.9-12c6-7.8,3.7-19.7,3.7-19.7
			s-12.8,4.2-17.6,13.2c-1.8,3.3-2.5,8.3-2.7,12.4c-1.8-6.9-3.1-14-3.8-21.2c3.2-0.8,10-3.1,16.6-9.1c7.1-6.5,6.9-18.4,6.9-18.4
			s-13,1.9-19.2,9.7c-2.3,2.9-3.8,7.7-4.8,11.6c-0.7-7.5-0.8-15-0.3-22.4c3-0.2,10.2-1.2,17.8-6c8-5.1,9.8-16.6,9.8-16.6
			s-12.9-0.4-20.2,6.1c-2.9,2.6-5.4,7.5-7,11.2c0.8-7.9,2.2-15.7,4.2-23.3c3,0.3,10.1,0.6,18.1-2.8c8.6-3.6,12.3-14.3,12.3-14.3
			s-12.4-2.6-20.5,2.5c-3.2,2-6.2,6-8.4,9.3c2.2-7.6,5-14.9,8.1-21.9c2.8,0.8,9.6,2.3,18,0.4c8.9-2,14.3-11.7,14.3-11.7
			s-11.5-4.6-20.2-1.1c-3.4,1.4-7.1,4.8-9.8,7.6c3.5-7.2,7.5-14,11.7-20.3c2.4,1.2,8.8,4,17.6,3.6c8.9-0.4,15.8-8.9,15.8-8.9
			s-10.3-6.4-19.3-4.5c-3.9,0.8-8.6,4-11.7,6.4c4.9-6.9,10.2-13.1,15.7-18.6c1.8,1.4,7.7,5.5,16.6,6.7c8.7,1.1,16.7-5.9,16.7-5.9
			s-8.9-7.9-17.9-7.7c-4.3,0.1-10,2.9-13.3,4.7c3-2.9,6.1-5.6,9.2-8c3.5-2.9,6.9-5.5,10.3-7.9c1.6,1.8,6.6,6.6,14.9,9.2
			c8.2,2.6,17.2-2.8,17.2-2.8s-7.2-9.2-16-10.4c-4.1-0.6-9.9,1-13.5,2.2c7.7-5.2,14.9-9.3,21.4-12.4c1,1.6,5,7.6,12.9,11.7
			c7.4,3.9,17,0.2,17,0.2s-5.4-10.1-13.6-12.8c-4.3-1.4-11.2-0.5-14.6,0.1c5.8-2.7,10.8-4.6,14.9-6c1.8,0.9,7.6,3.4,12.8,1.6
			c7.9-2.7,11.7-8,11.7-8s-8.1-3.1-12.9-2.3c-6,1-11,6.9-12,8.2c-3.4,1.1-7.4,2.5-11.9,4.3c2.9-2,8.2-6,10.3-9.9
			c4.1-7.7,0.9-18.7,0.9-18.7s-9.5,4-12.1,12c-2.9,8.6-1.6,15.8-1.2,17.5c-6.6,2.8-14.1,6.6-22.1,11.7c2.6-2.6,6.8-7.2,8.1-11.2
			c2.7-8.4-2.4-18.9-2.4-18.9s-8.8,5.7-10.1,14.2c-1.4,9,1.1,15.8,1.9,17.6c-4.3,2.8-8.7,6-13.2,9.6c-2,1.5-4,3.1-5.9,4.8
			c2.1-3.2,4.7-7.7,5.2-11.4c1.2-9-5.7-18.6-5.7-18.6s-7.8,7.3-7.6,16c0.2,8.7,3.4,14.8,4.8,17c-5.5,5.1-10.9,11-15.9,17.5
			c1.5-3.5,3.1-8.3,3-11.9c-0.3-9.2-9.1-17.7-9.1-17.7s-6.6,8.7-4.8,17.5c1.7,8.6,6.1,14.3,7.8,16.2c-4.6,6.3-8.9,13.2-12.7,20.5
			c0.9-3.8,1.8-9.1,1-12.8c-2-9.2-12.2-16.2-12.2-16.2s-5.1,9.9-1.8,18.4c3.3,8.4,8.7,13.3,10.8,15c-3.4,6.8-6.3,14-8.8,21.5
			c0.2-3.9,0-8.7-1.3-12c-3.6-8.9-15.2-14.1-15.2-14.1s-3.3,10.9,1.5,18.8c4.7,7.6,10.7,11.6,13.2,13c-2,6.9-3.6,14.1-4.7,21.4
			c-0.6-3.6-1.5-7.8-3.3-10.5c-5.2-8.3-17.7-11.5-17.7-11.5s-1.4,11.5,4.8,18.6c5.8,6.6,12.3,9.5,15.2,10.6
			c-0.7,7.1-0.9,14.2-0.6,21.5c-1.2-3.5-2.9-7.4-5.1-9.8c-6.7-7.4-19.8-8.4-19.8-8.4s0.6,11.8,8.2,17.9c7,5.6,14.1,7.4,17.3,8
			c0.4,6.8,1.4,13.6,2.7,20.2c-1.8-3.2-4.1-6.7-6.7-8.6c-8.1-6.3-21.4-4.9-21.4-4.9s2.7,11.8,11.4,16.5c8,4.3,15.3,4.9,18.6,4.9
			c1.7,6.6,3.9,13.1,6.5,19.3c-2.4-3-5.4-6.1-8.3-7.6c-9.2-4.9-22.4-1.1-22.4-1.1s4.8,11.3,14.3,14.6c8.8,3,16.3,2.2,19.6,1.7
			c2.9,6.3,6.2,12.3,9.8,18.1c-3-2.6-6.6-5.3-9.9-6.3c-10.1-3.3-22.7,2.8-22.7,2.8s6.8,10.6,17,12.1c9.4,1.4,16.8-0.7,20-1.8
			c3.8,5.5,7.8,10.7,12,15.6c-3.3-1.9-7-3.6-10.1-4.1c-10.7-1.5-22.3,6.9-22.3,6.9s8.7,9.4,19.2,9.1c9.3-0.2,16.2-3.4,19.5-5.2
			c4.5,4.6,9.1,8.9,13.8,12.7c-3.4-1.2-7-2.1-10-1.9c-11,0.4-21.2,10.9-21.2,10.9s10.4,7.9,20.9,5.8c9.2-1.8,15.5-6.1,18.5-8.5
			c3.3,2.3,6.7,4.4,10,6.2c2.1,1.3,4.2,2.4,6.3,3.6c-3.7-0.6-7.7-0.9-10.8-0.3c-11,2.4-19.4,14.7-19.4,14.7s11.9,6.1,22.1,2.1
			c9-3.5,14.6-9.1,17.2-12c6.1,2.9,11.9,5.1,17.2,6.9c-3.8,0-7.8,0.4-10.7,1.6c-10.7,4.3-16.9,18.2-16.9,18.2s13,4,22.5-1.8
			c8.4-5.1,13.1-11.6,15.1-15c15.3,4,24.7,4.6,24.7,4.6l0.3-2.7l0.3-2.7C219.8,351.8,212.4,351.3,200.1,348.5z M440.1,230.5
			c8.7-4.7,11.4-16.5,11.4-16.5s-13.4-1.4-21.4,4.9c-2.5,2-4.9,5.4-6.7,8.6c1.4-6.6,2.3-13.3,2.7-20.2c3.1-0.5,10.2-2.3,17.3-8
			c7.6-6,8.2-17.9,8.2-17.9s-13.1,1-19.8,8.4c-2.2,2.4-3.9,6.3-5.1,9.8c0.3-7.2,0.1-14.4-0.6-21.5c3-1.1,9.4-4,15.2-10.6
			c6.3-7.1,4.8-18.6,4.8-18.6s-12.5,3.2-17.7,11.5c-1.7,2.7-2.7,6.9-3.3,10.5c-1.1-7.3-2.7-14.5-4.7-21.4c2.5-1.4,8.6-5.4,13.2-13
			c4.8-7.9,1.5-18.8,1.5-18.8s-11.5,5.2-15.2,14.1c-1.3,3.3-1.5,8.2-1.3,12c-2.5-7.4-5.4-14.6-8.8-21.5c2.1-1.6,7.5-6.5,10.8-15
			c3.3-8.5-1.7-18.4-1.7-18.4s-10.3,7-12.2,16.2c-0.8,3.7,0.1,8.9,1,12.8c-3.8-7.3-8.1-14.2-12.7-20.5c1.7-2,6.1-7.6,7.8-16.2
			c1.8-8.7-4.8-17.5-4.8-17.5s-8.7,8.5-9.1,17.7c-0.1,3.6,1.5,8.4,3,11.9c-5-6.5-10.4-12.4-15.9-17.5c1.3-2.2,4.6-8.4,4.8-17
			c0.2-8.7-7.6-16-7.6-16s-7,9.7-5.7,18.6c0.5,3.7,3.1,8.3,5.2,11.4c-2-1.7-3.9-3.3-5.9-4.8c-4.5-3.6-8.9-6.8-13.2-9.6
			c0.8-1.9,3.2-8.7,1.9-17.6c-1.3-8.5-10.1-14.2-10.1-14.2s-5.1,10.5-2.4,18.9c1.3,4,5.4,8.6,8.1,11.2c-8-5.1-15.5-8.9-22.1-11.7
			c0.4-1.7,1.7-8.9-1.2-17.5c-2.7-8-12.1-12-12.1-12s-3.1,11,1,18.7c2.1,3.9,7.4,7.9,10.3,9.9c-4.5-1.9-8.5-3.3-11.9-4.3
			c-1-1.3-5.9-7.1-12-8.2c-4.8-0.8-12.9,2.3-12.9,2.3s3.9,5.3,11.7,8c5.3,1.8,11.1-0.7,12.8-1.6c4.1,1.4,9.1,3.3,14.9,6
			c-3.4-0.6-10.3-1.5-14.6-0.1c-8.2,2.7-13.6,12.8-13.6,12.8s9.6,3.7,17-0.2c8-4.1,11.9-10.1,12.9-11.7c6.5,3.1,13.7,7.1,21.4,12.4
			c-3.5-1.2-9.4-2.8-13.5-2.2c-8.8,1.3-16,10.4-16,10.4s9,5.4,17.2,2.8c8.3-2.6,13.3-7.5,14.9-9.2c3.4,2.4,6.8,5,10.3,7.9
			c3.1,2.4,6.2,5.1,9.2,8c-3.3-1.8-9-4.6-13.3-4.7c-9-0.3-17.9,7.7-17.9,7.7s8.1,7,16.7,5.9c8.9-1.2,14.8-5.2,16.6-6.7
			c5.5,5.5,10.8,11.8,15.7,18.7c-3.1-2.4-7.8-5.6-11.7-6.4c-9-1.9-19.3,4.5-19.3,4.5s6.9,8.5,15.8,8.9c8.7,0.4,15.2-2.4,17.6-3.6
			c4.3,6.3,8.2,13.1,11.7,20.3c-2.7-2.8-6.4-6.3-9.8-7.6c-8.7-3.5-20.2,1.1-20.2,1.1s5.4,9.7,14.3,11.7c8.3,1.9,15.1,0.4,18-0.4
			c3.2,7,5.9,14.3,8.1,21.9c-2.2-3.3-5.3-7.4-8.4-9.3c-8.1-5.1-20.5-2.5-20.5-2.5s3.7,10.8,12.3,14.3c8.1,3.4,15.1,3.1,18.1,2.8
			c2,7.6,3.4,15.4,4.2,23.3c-1.6-3.8-4-8.6-7-11.2c-7.3-6.5-20.2-6.1-20.2-6.1s1.8,11.5,9.8,16.6c7.6,4.8,14.8,5.8,17.8,6
			c0.5,7.4,0.4,14.9-0.3,22.4c-1-3.9-2.5-8.7-4.8-11.6c-6.2-7.9-19.2-9.7-19.2-9.7s-0.2,11.8,6.9,18.4c6.6,6,13.4,8.3,16.6,9.1
			c-0.7,7.2-2,14.3-3.8,21.2c-0.3-4.1-1-9.1-2.7-12.4c-4.8-9-17.6-13.2-17.6-13.2s-2.3,11.9,3.7,19.7c5.5,7.1,11.8,10.6,14.9,12
			c-2,6.6-4.4,13.1-7.2,19.3c0.4-4,0.5-8.8-0.6-12.2c-3.2-9.9-15.3-16.4-15.3-16.4s-4.4,11.5,0.2,20.4c4.1,7.9,9.7,12.6,12.7,14.6
			c-3,6-6.4,11.8-10.1,17.3c1-3.8,1.8-8.3,1.4-11.7c-1.5-10.5-12.5-19.2-12.5-19.2s-6.5,10.8-3.4,20.6c2.7,8.6,7.4,14.2,10,16.8
			c-4.2,5.7-8.6,11.1-13.3,16c1.8-3.8,3.6-8.4,3.7-12.1c0.3-10.8-9.2-21.5-9.2-21.5s-8.4,9.7-7.1,20.1c1.2,9.3,5.1,15.9,7.2,18.9
			c-5.2,5-10.6,9.5-16.1,13.4c2.5-3.5,5.2-7.9,6-11.7c2.3-10.8-5.4-23.2-5.4-23.2s-10.2,8.2-10.7,18.9c-0.4,9.5,2.3,16.8,3.9,20.2
			c-2.1,1.3-4.2,2.6-6.3,3.7c-3.8,2.2-7.5,4.2-11.1,5.9c3-3,6.1-6.6,7.5-10.1c4.2-10.5-1.3-24.3-1.3-24.3s-11.7,6.5-14.1,17.1
			c-2.1,9.3-0.7,16.9,0.3,20.7c-6.6,2.8-12.8,5-18.4,6.6c3.5-2.4,7.2-5.5,9.2-8.7c6.1-9.8,3-24.6,3-24.6s-12.9,4.4-17.2,14.7
			c-3.7,8.9-3.7,16.8-3.4,20.8c-12.3,2.8-19.7,3.3-19.7,3.3l0.3,2.7l0.3,2.7c0,0,9.4-0.6,24.7-4.6c2,3.4,6.7,9.9,15.1,15
			c9.5,5.8,22.5,1.8,22.5,1.8s-6.2-13.8-16.9-18.2c-3-1.2-6.9-1.6-10.7-1.6c5.4-1.8,11.1-4.1,17.3-6.9c2.5,2.9,8.1,8.4,17.2,12
			c10.2,4,22.1-2.1,22.1-2.1s-8.4-12.3-19.4-14.7c-3.1-0.7-7.1-0.4-10.8,0.3c2.1-1.1,4.2-2.3,6.3-3.6c3.3-1.8,6.7-3.9,10-6.2
			c3,2.4,9.3,6.7,18.5,8.5c10.5,2.1,20.9-5.8,20.9-5.8s-10.2-10.5-21.2-10.9c-3-0.1-6.6,0.8-10,1.9c4.7-3.8,9.4-8.1,13.8-12.7
			c3.2,1.8,10.1,5,19.5,5.2c10.5,0.3,19.2-9.1,19.2-9.1s-11.6-8.4-22.3-6.9c-3.2,0.4-6.9,2.2-10.1,4.1c4.2-4.9,8.2-10.1,12-15.6
			c3.2,1.2,10.6,3.2,20,1.8c10.2-1.5,17-12.1,17-12.1s-12.6-6.1-22.7-2.8c-3.3,1.1-6.9,3.7-9.9,6.3c3.6-5.8,6.8-11.8,9.8-18.1
			c3.3,0.6,10.8,1.3,19.6-1.7c9.5-3.2,14.3-14.6,14.3-14.6s-13.2-3.7-22.4,1.1c-2.9,1.6-5.9,4.7-8.3,7.6c2.5-6.2,4.7-12.7,6.5-19.3
			C424.8,235.4,432.1,234.8,440.1,230.5z"/>
	</g>
	<g>
		<radialGradient id="SVGID_2_" cx="249.5901" cy="198.8329" r="131.8259" gradientUnits="userSpaceOnUse">
			<stop  offset="0.8706" style="stop-color:#EBBB10"/>
			<stop  offset="0.9" style="stop-color:#FFFBCC"/>
			<stop  offset="0.9008" style="stop-color:#FDF6C3"/>
			<stop  offset="0.9033" style="stop-color:#F7EAAD"/>
			<stop  offset="0.9063" style="stop-color:#F3E19C"/>
			<stop  offset="0.91" style="stop-color:#F0DB91"/>
			<stop  offset="0.9151" style="stop-color:#EED78A"/>
			<stop  offset="0.9294" style="stop-color:#EED688"/>
			<stop  offset="0.9489" style="stop-color:#E0C16C"/>
			<stop  offset="0.9828" style="stop-color:#CB9F3F"/>
			<stop  offset="1" style="stop-color:#C3922E"/>
		</radialGradient>
		<path class="st1" d="M376,198.8c0,69.8-56.6,126.4-126.4,126.4c-69.8,0-126.4-56.6-126.4-126.4c0-69.8,56.6-126.4,126.4-126.4
			C319.4,72.5,376,129,376,198.8z"/>
		<radialGradient id="SVGID_3_" cx="249.0857" cy="197.7526" r="535.0554" gradientUnits="userSpaceOnUse">
			<stop  offset="0" style="stop-color:#FFFFFF"/>
			<stop  offset="0.253" style="stop-color:#EEF6FB"/>
			<stop  offset="0.7532" style="stop-color:#C1DEF1"/>
			<stop  offset="1" style="stop-color:#A9D1EB"/>
		</radialGradient>
		<circle class="st2" cx="249.1" cy="197.8" r="98.5"/>
	</g>
	<g>
		<g>
			
				<linearGradient id="SVGID_4_" gradientUnits="userSpaceOnUse" x1="2122.6653" y1="375.1177" x2="2220.0435" y2="360.7416" gradientTransform="matrix(-1 0 0 1 2609.8789 0)">
				<stop  offset="0" style="stop-color:#E1655A"/>
				<stop  offset="0.3457" style="stop-color:#E1655A"/>
				<stop  offset="0.4736" style="stop-color:#CD352F"/>
				<stop  offset="0.5918" style="stop-color:#BD0F0D"/>
				<stop  offset="0.6537" style="stop-color:#B70000"/>
				<stop  offset="0.7294" style="stop-color:#950000"/>
				<stop  offset="0.848" style="stop-color:#640000"/>
				<stop  offset="0.9386" style="stop-color:#460000"/>
				<stop  offset="0.9898" style="stop-color:#3B0000"/>
			</linearGradient>
			<path class="st3" d="M391.7,393.9c32.4,5.1,62.3,11.9,89,20.1L460,372.5l33.2-24.7c-27-10-56.7-18.3-88.4-24.8L391.7,393.9z"/>
			
				<linearGradient id="SVGID_5_" gradientUnits="userSpaceOnUse" x1="2253.271" y1="375.1173" x2="2350.6375" y2="360.7429" gradientTransform="matrix(1 0 0 1 -2241.3047 0)">
				<stop  offset="0" style="stop-color:#E1655A"/>
				<stop  offset="0.3457" style="stop-color:#E1655A"/>
				<stop  offset="0.4736" style="stop-color:#CD352F"/>
				<stop  offset="0.5918" style="stop-color:#BD0F0D"/>
				<stop  offset="0.6537" style="stop-color:#B70000"/>
				<stop  offset="0.7294" style="stop-color:#950000"/>
				<stop  offset="0.848" style="stop-color:#640000"/>
				<stop  offset="0.9386" style="stop-color:#460000"/>
				<stop  offset="0.9898" style="stop-color:#3B0000"/>
			</linearGradient>
			<path class="st4" d="M107.5,393.9c-32.4,5.1-62.3,11.9-89,20.1l20.7-41.6L6,347.8c27-10,56.7-18.3,88.4-24.8L107.5,393.9z"/>
			<linearGradient id="SVGID_6_" gradientUnits="userSpaceOnUse" x1="87.5308" y1="384.6661" x2="106.1144" y2="399.0603">
				<stop  offset="0" style="stop-color:#240000"/>
				<stop  offset="0.1655" style="stop-color:#330000"/>
				<stop  offset="0.4853" style="stop-color:#5B0000"/>
				<stop  offset="0.9237" style="stop-color:#9B0000"/>
				<stop  offset="1" style="stop-color:#A70000"/>
			</linearGradient>
			<path class="st5" d="M105.2,380.9l2.3,13l-37.3-5.2C70.2,388.7,93.6,383.2,105.2,380.9z"/>
			
				<linearGradient id="SVGID_7_" gradientUnits="userSpaceOnUse" x1="322.9618" y1="384.6672" x2="341.5453" y2="399.0614" gradientTransform="matrix(-1 0 0 1 734.5977 0)">
				<stop  offset="0" style="stop-color:#240000"/>
				<stop  offset="0.1655" style="stop-color:#330000"/>
				<stop  offset="0.4853" style="stop-color:#5B0000"/>
				<stop  offset="0.9237" style="stop-color:#9B0000"/>
				<stop  offset="1" style="stop-color:#A70000"/>
			</linearGradient>
			<path class="st6" d="M394,380.9l-2.3,13l37.3-5.2C429,388.7,405.6,383.2,394,380.9z"/>
			<linearGradient id="SVGID_8_" gradientUnits="userSpaceOnUse" x1="61.2198" y1="381.6099" x2="795.9502" y2="258.6582">
				<stop  offset="3.916850e-03" style="stop-color:#E16560"/>
				<stop  offset="8.222359e-02" style="stop-color:#E63B27"/>
				<stop  offset="0.1855" style="stop-color:#BB1111"/>
				<stop  offset="0.2283" style="stop-color:#BB1111"/>
				<stop  offset="0.2784" style="stop-color:#CB3131"/>
				<stop  offset="0.3614" style="stop-color:#E36262"/>
				<stop  offset="0.4249" style="stop-color:#F18080"/>
				<stop  offset="0.4607" style="stop-color:#F78B8B"/>
				<stop  offset="0.5513" style="stop-color:#F68888"/>
				<stop  offset="0.624" style="stop-color:#F5807E"/>
				<stop  offset="0.6906" style="stop-color:#F2736D"/>
				<stop  offset="0.7535" style="stop-color:#EE6055"/>
				<stop  offset="0.8132" style="stop-color:#E94837"/>
				<stop  offset="0.8391" style="stop-color:#E63B27"/>
				<stop  offset="1" style="stop-color:#F78B8B"/>
			</linearGradient>
			<path class="st7" d="M249.6,291.9c-69.5,0-134.8,9.3-191.5,25.7l12.1,71.1c52.6-12.2,113.9-19.3,179.4-19.3
				c65.5,0,126.9,7,179.4,19.3l12.1-71.1C384.4,301.2,319.1,291.9,249.6,291.9z"/>
		</g>
	</g>
	<g>
		<radialGradient id="SVGID_9_" cx="249.3099" cy="55.148" r="21.6869" gradientUnits="userSpaceOnUse">
			<stop  offset="0" style="stop-color:#FFFBCC"/>
			<stop  offset="0.1146" style="stop-color:#FBF2BB"/>
			<stop  offset="0.3413" style="stop-color:#F0D98E"/>
			<stop  offset="0.3708" style="stop-color:#EED688"/>
			<stop  offset="1" style="stop-color:#C3922E"/>
		</radialGradient>
		<polygon class="st8" points="279.8,58.6 218.8,58.6 218.8,51.7 279.8,52.2 		"/>
		<radialGradient id="SVGID_10_" cx="249.3099" cy="40.9367" r="22.3252" gradientUnits="userSpaceOnUse">
			<stop  offset="0" style="stop-color:#FFFBCC"/>
			<stop  offset="0.1146" style="stop-color:#FBF2BB"/>
			<stop  offset="0.3413" style="stop-color:#F0D98E"/>
			<stop  offset="0.3708" style="stop-color:#EED688"/>
			<stop  offset="1" style="stop-color:#C3922E"/>
		</radialGradient>
		<polygon class="st9" points="266.7,43.9 258.3,32.7 249.1,43.8 240,32.7 231.6,43.8 219.3,32.7 218.8,49.2 279.5,49.2 279.8,32.7 
					"/>
		<radialGradient id="SVGID_11_" cx="219.3915" cy="27.9896" r="2.4346" gradientUnits="userSpaceOnUse">
			<stop  offset="0" style="stop-color:#FFFBCC"/>
			<stop  offset="0.1146" style="stop-color:#FBF2BB"/>
			<stop  offset="0.3413" style="stop-color:#F0D98E"/>
			<stop  offset="0.3708" style="stop-color:#EED688"/>
			<stop  offset="1" style="stop-color:#C3922E"/>
		</radialGradient>
		<path class="st10" d="M222,28c0,1.2-1.2,2.3-2.6,2.3c-1.4,0-2.6-1-2.6-2.3c0-1.2,1.2-2.3,2.6-2.3C220.8,25.7,222,26.7,222,28z"/>
		<radialGradient id="SVGID_12_" cx="239.6112" cy="27.9896" r="2.4346" gradientUnits="userSpaceOnUse">
			<stop  offset="0" style="stop-color:#FFFBCC"/>
			<stop  offset="0.1146" style="stop-color:#FBF2BB"/>
			<stop  offset="0.3413" style="stop-color:#F0D98E"/>
			<stop  offset="0.3708" style="stop-color:#EED688"/>
			<stop  offset="1" style="stop-color:#C3922E"/>
		</radialGradient>
		<path class="st11" d="M242.2,28c0,1.2-1.2,2.3-2.6,2.3c-1.4,0-2.6-1-2.6-2.3c0-1.2,1.2-2.3,2.6-2.3C241,25.7,242.2,26.7,242.2,28z
			"/>
		<radialGradient id="SVGID_13_" cx="258.2295" cy="27.9896" r="2.4346" gradientUnits="userSpaceOnUse">
			<stop  offset="0" style="stop-color:#FFFBCC"/>
			<stop  offset="0.1146" style="stop-color:#FBF2BB"/>
			<stop  offset="0.3413" style="stop-color:#F0D98E"/>
			<stop  offset="0.3708" style="stop-color:#EED688"/>
			<stop  offset="1" style="stop-color:#C3922E"/>
		</radialGradient>
		<path class="st12" d="M260.8,28c0,1.2-1.2,2.3-2.6,2.3c-1.4,0-2.6-1-2.6-2.3c0-1.2,1.2-2.3,2.6-2.3
			C259.7,25.7,260.8,26.7,260.8,28z"/>
		<radialGradient id="SVGID_14_" cx="279.7886" cy="27.9896" r="2.4346" gradientUnits="userSpaceOnUse">
			<stop  offset="0" style="stop-color:#FFFBCC"/>
			<stop  offset="0.1146" style="stop-color:#FBF2BB"/>
			<stop  offset="0.3413" style="stop-color:#F0D98E"/>
			<stop  offset="0.3708" style="stop-color:#EED688"/>
			<stop  offset="1" style="stop-color:#C3922E"/>
		</radialGradient>
		<ellipse class="st13" cx="279.8" cy="28" rx="2.6" ry="2.3"/>
	</g>
	<g>
		<radialGradient id="SVGID_15_" cx="8.3277" cy="25.0771" r="474.2191" gradientUnits="userSpaceOnUse">
			<stop  offset="0" style="stop-color:#EBBB10"/>
			<stop  offset="1" style="stop-color:#C3922E"/>
		</radialGradient>
		<path class="st14" d="M234.6,258.5c-5.5-1.6-11-3.5-16.4-5.5c-2.6-1.1-5.3-1.8-8.1-2.3c-2.7-0.5-5.5-0.7-8.3-0.7
			c-1.4,0-2.7,0.1-4.1,0.4c-1.3,0.2-2.6,0.6-3.7,1.1c-0.5,0.3-1,0.6-1.5,1c-0.5,0.4-0.9,0.9-1.3,1.4c-0.7,1-1.3,2-1.1,2.9
			c0.1,0.9,0.9,1.8,2,2.5c0.6,0.3,1.2,0.6,1.8,0.9c0.6,0.2,1.2,0.4,1.9,0.4c2.6,0.2,5.3-1.2,7.1-3.2l0,0c0.2-0.2,0.4-0.2,0.6,0
			c0.2,0.1,0.2,0.4,0,0.6c-0.9,1.2-2.1,2.2-3.4,3c-1.3,0.8-2.9,1.3-4.5,1.3c-0.8,0-1.6-0.1-2.4-0.3c-0.7-0.2-1.5-0.5-2.2-0.8
			c-0.7-0.3-1.4-0.8-2.1-1.4c-0.6-0.6-1.2-1.4-1.5-2.4c-0.3-1-0.2-2,0.1-2.8c0.2-0.9,0.7-1.6,1.1-2.3c0.5-0.7,1-1.3,1.6-1.9
			c0.6-0.6,1.4-1.1,2.1-1.5c3-1.5,6.1-1.8,9.1-1.8c3,0,6,0.4,8.8,1.1c2.9,0.7,5.8,1.6,8.4,2.8c5.2,2.3,10.6,4.5,15.9,6.7
			c0.2,0.1,0.3,0.3,0.2,0.6C235,258.4,234.8,258.5,234.6,258.5z"/>
		<radialGradient id="SVGID_16_" cx="8.3275" cy="25.0779" r="474.2191" gradientUnits="userSpaceOnUse">
			<stop  offset="0" style="stop-color:#EBBB10"/>
			<stop  offset="1" style="stop-color:#C3922E"/>
		</radialGradient>
		<path class="st15" d="M244.2,258.2c-1.2,0.3-2.5,0.5-3.7,0.6c-1.3,0.1-2.6-0.1-3.8-0.8c-1.2-0.6-2.1-1.5-2.9-2.6
			c-0.8-1.1-1.1-2.6-0.9-4c0.2-1.4,1-2.7,2.2-3.5c1.3-0.9,3-0.7,4.2,0.1c0.3,0.2,0.6,0.4,0.8,0.7l0.2,0.2l0.1,0.2
			c0.1,0.2,0.2,0.3,0.2,0.5c0.3,0.7,0.2,1.4-0.1,2.1c-0.3,0.6-0.8,1.2-1.5,1.3c-0.7,0.2-1.4-0.1-1.9-0.7c-0.1-0.1,0-0.2,0-0.2
			c0.1,0,0.2,0,0.2,0c0.4,0.4,1,0.6,1.5,0.4c0.5-0.1,0.9-0.6,1.1-1.1c0.2-0.5,0.2-1.1-0.1-1.6c-0.1-0.1-0.1-0.2-0.2-0.3l-0.1-0.2
			l-0.1-0.1c-0.2-0.2-0.4-0.3-0.7-0.5c-1-0.5-2.2-0.3-2.9,0.2c-0.9,0.6-1.5,1.6-1.8,2.6c-0.3,1.1-0.1,2.2,0.5,3.2
			c0.6,1,1.5,1.9,2.5,2.5c1,0.6,2.2,0.9,3.4,0.9c1.2,0,2.5-0.1,3.7-0.3c0.1,0,0.2,0,0.2,0.1C244.4,258.2,244.3,258.2,244.2,258.2z"
			/>
		<radialGradient id="SVGID_17_" cx="8.3272" cy="25.0771" r="474.221" gradientUnits="userSpaceOnUse">
			<stop  offset="0" style="stop-color:#EBBB10"/>
			<stop  offset="1" style="stop-color:#C3922E"/>
		</radialGradient>
		<path class="st16" d="M264.3,258.5c5.5-1.6,11-3.5,16.4-5.5c2.6-1.1,5.3-1.8,8.1-2.3c2.8-0.5,5.5-0.7,8.3-0.7
			c1.4,0,2.7,0.1,4.1,0.4c1.3,0.2,2.6,0.6,3.7,1.1c0.5,0.3,1,0.6,1.4,1c0.5,0.4,0.9,0.9,1.3,1.4c0.7,1,1.3,2,1.1,2.9
			c-0.1,0.9-0.9,1.8-2,2.5c-0.6,0.3-1.2,0.6-1.8,0.9c-0.6,0.2-1.2,0.4-1.9,0.4c-2.6,0.2-5.3-1.2-7.1-3.2l0,0c-0.2-0.2-0.4-0.2-0.6,0
			c-0.2,0.1-0.2,0.4-0.1,0.6c0.9,1.2,2.1,2.2,3.4,3c1.3,0.8,2.9,1.3,4.5,1.3c0.8,0,1.6-0.1,2.4-0.3c0.7-0.2,1.5-0.5,2.2-0.8
			c0.7-0.3,1.4-0.8,2.1-1.4c0.6-0.6,1.2-1.4,1.5-2.4c0.3-1,0.2-2-0.1-2.8c-0.2-0.9-0.7-1.6-1.1-2.3c-0.5-0.7-1-1.3-1.6-1.9
			c-0.6-0.6-1.4-1.1-2.1-1.5c-3-1.5-6.1-1.8-9.1-1.8c-3,0-6,0.4-8.8,1.1c-2.9,0.7-5.8,1.6-8.4,2.8c-5.2,2.3-10.6,4.5-15.9,6.7
			c-0.2,0.1-0.3,0.3-0.2,0.6C263.8,258.4,264,258.5,264.3,258.5z"/>
		<radialGradient id="SVGID_18_" cx="8.3272" cy="25.0779" r="474.219" gradientUnits="userSpaceOnUse">
			<stop  offset="0" style="stop-color:#EBBB10"/>
			<stop  offset="1" style="stop-color:#C3922E"/>
		</radialGradient>
		<path class="st17" d="M254.6,258.2c1.2,0.3,2.5,0.5,3.7,0.6c1.3,0.1,2.6-0.1,3.8-0.8c1.2-0.6,2.1-1.5,2.9-2.6
			c0.8-1.1,1.1-2.6,0.9-4c-0.2-1.4-1-2.7-2.2-3.5c-1.3-0.9-3-0.7-4.2,0.1c-0.3,0.2-0.6,0.4-0.8,0.7l-0.2,0.2l-0.1,0.2
			c-0.1,0.2-0.2,0.3-0.3,0.5c-0.3,0.7-0.2,1.4,0.1,2.1c0.3,0.6,0.8,1.2,1.5,1.3c0.7,0.2,1.4-0.1,1.9-0.7c0-0.1,0-0.2,0-0.2
			c-0.1,0-0.2,0-0.2,0c-0.4,0.4-1,0.6-1.5,0.4c-0.5-0.1-0.9-0.6-1.1-1.1c-0.2-0.5-0.2-1.1,0.1-1.6c0.1-0.1,0.1-0.2,0.2-0.3l0.1-0.2
			l0.1-0.1c0.2-0.2,0.4-0.3,0.7-0.5c1-0.5,2.2-0.3,2.9,0.2c0.9,0.6,1.5,1.6,1.8,2.6c0.3,1.1,0.1,2.2-0.5,3.2c-0.6,1-1.5,1.9-2.5,2.5
			c-1,0.6-2.2,0.9-3.4,0.9c-1.2,0-2.5-0.1-3.7-0.3c-0.1,0-0.1,0-0.2,0.1C254.5,258.2,254.5,258.2,254.6,258.2z"/>
		<radialGradient id="SVGID_19_" cx="8.3275" cy="25.0822" r="474.2153" gradientUnits="userSpaceOnUse">
			<stop  offset="0" style="stop-color:#EBBB10"/>
			<stop  offset="1" style="stop-color:#C3922E"/>
		</radialGradient>
		<path class="st18" d="M249.4,248.8c0,0-1.7,1.1-2.6,2h5.2C251.1,249.9,249.4,248.8,249.4,248.8z"/>
		<radialGradient id="SVGID_20_" cx="8.3261" cy="25.0828" r="474.2164" gradientUnits="userSpaceOnUse">
			<stop  offset="0" style="stop-color:#EBBB10"/>
			<stop  offset="1" style="stop-color:#C3922E"/>
		</radialGradient>
		<path class="st19" d="M249.4,258.4c0,0,0.6-1.1,1.3-2.4h-2.5C248.8,257.3,249.4,258.4,249.4,258.4z"/>
		<radialGradient id="SVGID_21_" cx="8.3283" cy="25.0722" r="474.2232" gradientUnits="userSpaceOnUse">
			<stop  offset="0" style="stop-color:#EBBB10"/>
			<stop  offset="1" style="stop-color:#C3922E"/>
		</radialGradient>
		<path class="st20" d="M246.4,252.3c0.2,0.6,0.6,1.4,1,2.2h4c0.4-0.8,0.8-1.6,1-2.2H246.4z"/>
	</g>
	<g>
		
			<radialGradient id="SVGID_22_" cx="13.8456" cy="-21.1334" r="474.2194" gradientTransform="matrix(-1 0 0 -1 504.3196 236.2732)" gradientUnits="userSpaceOnUse">
			<stop  offset="0" style="stop-color:#EBBB10"/>
			<stop  offset="1" style="stop-color:#C3922E"/>
		</radialGradient>
		<path class="st21" d="M264.3,137.3c5.5,1.6,11,3.5,16.4,5.5c2.6,1.1,5.3,1.8,8.1,2.3c2.7,0.5,5.5,0.7,8.3,0.7
			c1.4,0,2.7-0.1,4.1-0.4c1.3-0.2,2.6-0.6,3.7-1.1c0.5-0.3,1-0.6,1.5-1c0.5-0.4,0.9-0.9,1.3-1.4c0.7-1,1.3-2,1.1-2.9
			c-0.1-0.9-0.9-1.8-2-2.5c-0.6-0.3-1.2-0.6-1.8-0.9c-0.6-0.2-1.2-0.4-1.9-0.4c-2.6-0.2-5.3,1.2-7.1,3.2l0,0c-0.2,0.2-0.4,0.2-0.6,0
			c-0.2-0.1-0.2-0.4,0-0.6c0.9-1.2,2.1-2.2,3.4-3c1.3-0.8,2.9-1.3,4.5-1.3c0.8,0,1.6,0.1,2.4,0.3c0.7,0.2,1.5,0.5,2.2,0.8
			c0.7,0.3,1.4,0.8,2.1,1.4c0.6,0.6,1.2,1.4,1.5,2.4c0.3,1,0.2,2-0.1,2.8c-0.2,0.9-0.7,1.6-1.1,2.3c-0.5,0.7-1,1.3-1.6,1.9
			c-0.6,0.6-1.4,1.1-2.1,1.5c-3,1.5-6.1,1.8-9.1,1.8c-3,0-6-0.4-8.8-1.1c-2.9-0.7-5.8-1.6-8.4-2.8c-5.2-2.3-10.6-4.5-15.9-6.7
			c-0.2-0.1-0.3-0.3-0.2-0.6C263.8,137.3,264,137.2,264.3,137.3z"/>
		
			<radialGradient id="SVGID_23_" cx="13.8457" cy="-21.1337" r="474.2194" gradientTransform="matrix(-1 0 0 -1 504.3196 236.2732)" gradientUnits="userSpaceOnUse">
			<stop  offset="0" style="stop-color:#EBBB10"/>
			<stop  offset="1" style="stop-color:#C3922E"/>
		</radialGradient>
		<path class="st22" d="M254.6,137.5c1.2-0.3,2.5-0.5,3.7-0.6c1.3-0.1,2.6,0.1,3.8,0.8c1.2,0.6,2.1,1.5,2.9,2.6
			c0.8,1.1,1.1,2.6,0.9,4c-0.2,1.4-1,2.7-2.2,3.5c-1.3,0.9-3,0.7-4.2-0.1c-0.3-0.2-0.6-0.4-0.8-0.7l-0.2-0.2l-0.1-0.2
			c-0.1-0.2-0.2-0.3-0.2-0.5c-0.3-0.7-0.2-1.4,0.1-2.1c0.3-0.6,0.8-1.2,1.5-1.3c0.7-0.2,1.4,0.1,1.9,0.7c0.1,0.1,0,0.2,0,0.2
			c-0.1,0-0.2,0-0.2,0c-0.4-0.4-1-0.6-1.5-0.4c-0.5,0.1-0.9,0.6-1.1,1.1c-0.2,0.5-0.2,1.1,0.1,1.6c0.1,0.1,0.1,0.2,0.2,0.3l0.1,0.2
			l0.1,0.1c0.2,0.2,0.4,0.3,0.7,0.5c1,0.5,2.2,0.3,2.9-0.2c0.9-0.6,1.5-1.6,1.8-2.6c0.3-1.1,0.1-2.2-0.5-3.2c-0.6-1-1.5-1.9-2.5-2.5
			c-1-0.6-2.2-0.9-3.4-0.9c-1.2,0-2.5,0.1-3.7,0.3c-0.1,0-0.2,0-0.2-0.1C254.4,137.6,254.5,137.5,254.6,137.5z"/>
		
			<radialGradient id="SVGID_24_" cx="13.8455" cy="-21.1334" r="474.2179" gradientTransform="matrix(-1 0 0 -1 504.3196 236.2732)" gradientUnits="userSpaceOnUse">
			<stop  offset="0" style="stop-color:#EBBB10"/>
			<stop  offset="1" style="stop-color:#C3922E"/>
		</radialGradient>
		<path class="st23" d="M234.5,137.3c-5.5,1.6-11,3.5-16.4,5.5c-2.6,1.1-5.3,1.8-8.1,2.3c-2.8,0.5-5.5,0.7-8.3,0.7
			c-1.4,0-2.7-0.1-4.1-0.4c-1.3-0.2-2.6-0.6-3.7-1.1c-0.5-0.3-1-0.6-1.4-1c-0.5-0.4-0.9-0.9-1.3-1.4c-0.7-1-1.3-2-1.1-2.9
			c0.1-0.9,0.9-1.8,2-2.5c0.6-0.3,1.2-0.6,1.8-0.9c0.6-0.2,1.2-0.4,1.9-0.4c2.6-0.2,5.3,1.2,7.1,3.2l0,0c0.2,0.2,0.4,0.2,0.6,0
			c0.2-0.1,0.2-0.4,0.1-0.6c-0.9-1.2-2.1-2.2-3.4-3c-1.3-0.8-2.9-1.3-4.5-1.3c-0.8,0-1.6,0.1-2.4,0.3c-0.7,0.2-1.5,0.5-2.2,0.8
			c-0.7,0.3-1.4,0.8-2.1,1.4c-0.6,0.6-1.2,1.4-1.5,2.4c-0.3,1-0.2,2,0.1,2.8c0.2,0.9,0.7,1.6,1.1,2.3c0.5,0.7,1,1.3,1.6,1.9
			c0.6,0.6,1.4,1.1,2.1,1.5c3,1.5,6.1,1.8,9.1,1.8c3,0,6-0.4,8.8-1.1c2.9-0.7,5.8-1.6,8.4-2.8c5.2-2.3,10.6-4.5,15.9-6.7
			c0.2-0.1,0.3-0.3,0.2-0.6C235,137.3,234.8,137.2,234.5,137.3z"/>
		
			<radialGradient id="SVGID_25_" cx="13.8455" cy="-21.1337" r="474.2195" gradientTransform="matrix(-1 0 0 -1 504.3196 236.2732)" gradientUnits="userSpaceOnUse">
			<stop  offset="0" style="stop-color:#EBBB10"/>
			<stop  offset="1" style="stop-color:#C3922E"/>
		</radialGradient>
		<path class="st24" d="M244.2,137.5c-1.2-0.3-2.5-0.5-3.7-0.6c-1.3-0.1-2.6,0.1-3.8,0.8c-1.2,0.6-2.1,1.5-2.9,2.6
			c-0.8,1.1-1.1,2.6-0.9,4c0.2,1.4,1,2.7,2.2,3.5c1.3,0.9,3,0.7,4.2-0.1c0.3-0.2,0.6-0.4,0.8-0.7l0.2-0.2l0.1-0.2
			c0.1-0.2,0.2-0.3,0.3-0.5c0.3-0.7,0.2-1.4-0.1-2.1c-0.3-0.6-0.8-1.2-1.5-1.3c-0.7-0.2-1.4,0.1-1.9,0.7c0,0.1,0,0.2,0,0.2
			c0.1,0,0.2,0,0.2,0c0.4-0.4,1-0.6,1.5-0.4c0.5,0.1,0.9,0.6,1.1,1.1c0.2,0.5,0.2,1.1-0.1,1.6c-0.1,0.1-0.1,0.2-0.2,0.3l-0.1,0.2
			l-0.1,0.1c-0.2,0.2-0.4,0.3-0.7,0.5c-1,0.5-2.2,0.3-2.9-0.2c-0.9-0.6-1.5-1.6-1.8-2.6c-0.3-1.1-0.1-2.2,0.5-3.2
			c0.6-1,1.5-1.9,2.5-2.5c1-0.6,2.2-0.9,3.4-0.9c1.2,0,2.5,0.1,3.7,0.3c0.1,0,0.1,0,0.2-0.1C244.3,137.6,244.3,137.5,244.2,137.5z"
			/>
		
			<radialGradient id="SVGID_26_" cx="13.8456" cy="-21.1398" r="474.2225" gradientTransform="matrix(-1 0 0 -1 504.3196 236.2732)" gradientUnits="userSpaceOnUse">
			<stop  offset="0" style="stop-color:#EBBB10"/>
			<stop  offset="1" style="stop-color:#C3922E"/>
		</radialGradient>
		<path class="st25" d="M249.4,146.9c0,0,1.7-1.1,2.6-2h-5.2C247.7,145.8,249.4,146.9,249.4,146.9z"/>
		
			<radialGradient id="SVGID_27_" cx="13.8434" cy="-21.1316" r="474.2196" gradientTransform="matrix(-1 0 0 -1 504.3196 236.2732)" gradientUnits="userSpaceOnUse">
			<stop  offset="0" style="stop-color:#EBBB10"/>
			<stop  offset="1" style="stop-color:#C3922E"/>
		</radialGradient>
		<path class="st26" d="M249.4,137.4c0,0-0.6,1.1-1.3,2.4h2.5C250,138.5,249.4,137.4,249.4,137.4z"/>
		
			<radialGradient id="SVGID_28_" cx="13.8469" cy="-21.1295" r="474.2137" gradientTransform="matrix(-1 0 0 -1 504.3196 236.2732)" gradientUnits="userSpaceOnUse">
			<stop  offset="0" style="stop-color:#EBBB10"/>
			<stop  offset="1" style="stop-color:#C3922E"/>
		</radialGradient>
		<path class="st27" d="M252.4,143.4c-0.2-0.6-0.6-1.4-1-2.2h-4c-0.4,0.8-0.8,1.6-1,2.2H252.4z"/>
	</g>
	
		<radialGradient id="SVGID_29_" cx="220.7139" cy="-764.7205" r="120.7748" gradientTransform="matrix(1.5011 0 0 8.620000e-02 -83.1663 468.7874)" gradientUnits="userSpaceOnUse">
		<stop  offset="0" style="stop-color:#6E6E6E"/>
		<stop  offset="9.521157e-02" style="stop-color:#929292"/>
		<stop  offset="0.2051" style="stop-color:#B3B3B3"/>
		<stop  offset="0.3232" style="stop-color:#CFCFCF"/>
		<stop  offset="0.4503" style="stop-color:#E4E4E4"/>
		<stop  offset="0.5907" style="stop-color:#F3F3F3"/>
		<stop  offset="0.7548" style="stop-color:#FCFCFC"/>
		<stop  offset="1" style="stop-color:#FFFFFF"/>
	</radialGradient>
	<path class="st28" d="M429.5,402.9c0,5.7-81.2,10.4-181.3,10.4c-100.2,0-181.3-4.7-181.3-10.4c0-5.7,81.2-10.4,181.3-10.4
		C348.3,392.5,429.5,397.1,429.5,402.9z"/>
	<g>
		
			<radialGradient id="SVGID_30_" cx="-30.1853" cy="268.568" r="15.4164" gradientTransform="matrix(0.8634 -0.5045 0.5045 0.8634 -9.3376 95.8007)" gradientUnits="userSpaceOnUse">
			<stop  offset="0" style="stop-color:#FFFBCC"/>
			<stop  offset="0.1146" style="stop-color:#FBF2BB"/>
			<stop  offset="0.3413" style="stop-color:#F0D98E"/>
			<stop  offset="0.3708" style="stop-color:#EED688"/>
			<stop  offset="0.6854" style="stop-color:#EBBB10"/>
			<stop  offset="1" style="stop-color:#C3922E"/>
		</radialGradient>
		<polygon class="st29" points="92.5,329.9 101.7,336 111.9,331.9 109,342.5 116.1,351 105.1,351.5 99.2,360.8 95.4,350.5 
			84.7,347.8 93.3,340.9 		"/>
		
			<radialGradient id="SVGID_31_" cx="-30.1853" cy="268.5681" r="13.263" gradientTransform="matrix(0.8634 -0.5045 0.5045 0.8634 -9.3376 95.8007)" gradientUnits="userSpaceOnUse">
			<stop  offset="0" style="stop-color:#FFFBCC"/>
			<stop  offset="0.1573" style="stop-color:#FBF2BB"/>
			<stop  offset="0.4685" style="stop-color:#F0D98E"/>
			<stop  offset="0.5091" style="stop-color:#EED688"/>
			<stop  offset="1" style="stop-color:#EBBB10"/>
		</radialGradient>
		<polygon class="st30" points="93.6,331.7 101.5,337 110.3,333.4 107.8,342.6 113.9,349.8 104.4,350.3 99.4,358.3 96,349.4 
			86.8,347.1 94.2,341.2 		"/>
	</g>
	<g>
		
			<radialGradient id="SVGID_32_" cx="154.8603" cy="376.6934" r="15.4164" gradientTransform="matrix(-0.8634 -0.5045 -0.5045 0.8634 718.6501 95.8007)" gradientUnits="userSpaceOnUse">
			<stop  offset="0" style="stop-color:#FFFBCC"/>
			<stop  offset="0.1146" style="stop-color:#FBF2BB"/>
			<stop  offset="0.3413" style="stop-color:#F0D98E"/>
			<stop  offset="0.3708" style="stop-color:#EED688"/>
			<stop  offset="0.6854" style="stop-color:#EBBB10"/>
			<stop  offset="1" style="stop-color:#C3922E"/>
		</radialGradient>
		<polygon class="st31" points="402.5,329.9 393.3,336 383.1,331.9 386,342.5 378.9,351 389.9,351.5 395.8,360.8 399.6,350.5 
			410.3,347.8 401.7,340.9 		"/>
		
			<radialGradient id="SVGID_33_" cx="154.8603" cy="376.6935" r="13.263" gradientTransform="matrix(-0.8634 -0.5045 -0.5045 0.8634 718.6501 95.8007)" gradientUnits="userSpaceOnUse">
			<stop  offset="0" style="stop-color:#FFFBCC"/>
			<stop  offset="0.1573" style="stop-color:#FBF2BB"/>
			<stop  offset="0.4685" style="stop-color:#F0D98E"/>
			<stop  offset="0.5091" style="stop-color:#EED688"/>
			<stop  offset="1" style="stop-color:#EBBB10"/>
		</radialGradient>
		<polygon class="st32" points="401.4,331.7 393.5,337 384.7,333.4 387.2,342.6 381.1,349.8 390.6,350.3 395.6,358.3 399,349.4 
			408.2,347.1 400.8,341.2 		"/>
	</g>
	<text transform="matrix(1 0 0 1 188.0176 207.3958)" class="st33 st34 st35">GREAT</text>
	<text transform="matrix(1 0 0 1 179.6973 345.9593)" class="st36 st34 st37">Support</text>
</g>
</svg>
