<?xml version="1.0" encoding="utf-8"?>
<!-- Generator: Adobe Illustrator 24.0.1, SVG Export Plug-In . SVG Version: 6.00 Build 0)  -->
<svg version="1.1" id="Layer_1" xmlns="http://www.w3.org/2000/svg" xmlns:xlink="http://www.w3.org/1999/xlink" x="0px" y="0px"
	 viewBox="0 0 1283.3 737.1" style="enable-background:new 0 0 1283.3 737.1;" xml:space="preserve">
<style type="text/css">
	.st0{fill:#FFFFFF;}
	.st1{fill:url(#Path_151_2_);}
	.st2{fill:url(#Path_152_2_);}
	.st3{fill:#F1F3F9;}
	.st4{fill:url(#Path_878_1_);}
	.st5{fill:url(#Path_879_1_);}
	.st6{fill:#F2F4F9;}
	.st7{fill:url(#Path_151-2_2_);}
	.st8{fill:url(#Path_152-2_2_);}
	.st9{fill:url(#Path_151-3_2_);}
	.st10{fill:url(#Path_152-3_2_);}
	.st11{fill:url(#Path_151-3_3_);}
	.st12{fill:url(#Path_152-3_3_);}
	.st13{fill:url(#SVGID_1_);}
	.st14{fill:#ECECEC;}
	.st15{fill:#E1E1E1;}
	.st16{fill:#F5F5F5;}
	.st17{fill:#FAFAFA;}
	.st18{fill:#C4C906;}
	.st19{fill:#1A2E35;}
	.st20{opacity:0.3;}
	.st21{fill:#375A64;}
	.st22{fill:#FF4F5B;}
	.st23{fill:#396CAA;}
	.st24{opacity:0.5;}
	.st25{opacity:0.5;fill:#FFFFFF;}
	.st26{fill:#FFBF9D;}
	.st27{fill:#FF9A6C;}
	.st28{opacity:0.2;}
	.st29{fill:#D4ECFF;}
</style>
<rect x="3" y="0.1" class="st0" width="1277.3" height="737.1"/>
<g id="Shadows">
</g>
<g>
	<g id="Group_30_1_" transform="translate(159.07 605.079)">
		
			<linearGradient id="Path_151_2_" gradientUnits="userSpaceOnUse" x1="458.1768" y1="-209.2333" x2="458.1768" y2="-210.7164" gradientTransform="matrix(38.4 0 0 125.0701 -17429.6777 26238.9941)">
			<stop  offset="0.247" style="stop-color:#FFFFFF"/>
			<stop  offset="0.516" style="stop-color:#F8F9FD"/>
			<stop  offset="0.905" style="stop-color:#E5E9F6"/>
			<stop  offset="1" style="stop-color:#DFE4F4"/>
		</linearGradient>
		<path id="Path_151_1_" class="st1" d="M136.3,70.2l56-32.8v-152.7l-56,32.8V70.2z"/>
		
			<linearGradient id="Path_152_2_" gradientUnits="userSpaceOnUse" x1="457.7146" y1="-209.2333" x2="457.7146" y2="-210.7164" gradientTransform="matrix(38.4 0 0 125.0701 -17468.0762 26238.9941)">
			<stop  offset="0.247" style="stop-color:#FFFFFF"/>
			<stop  offset="0.641" style="stop-color:#F6F7FC"/>
			<stop  offset="1" style="stop-color:#E9EDF7"/>
		</linearGradient>
		<path id="Path_152_1_" class="st2" d="M136.3,70.2L80,37.4v-152.7l56.3,32.8V70.2z"/>
		<path id="Path_153_1_" class="st3" d="M136.3-82.6l-56-33l56-32.9l56,32.8L136.3-82.6z"/>
	</g>
	<g id="Group_614">
		
			<linearGradient id="Path_878_1_" gradientUnits="userSpaceOnUse" x1="1264.6448" y1="-207.885" x2="1264.6448" y2="-208.5513" gradientTransform="matrix(41.5601 0 0 135.37 -51533.9492 28803.6602)">
			<stop  offset="0.247" style="stop-color:#FFFFFF"/>
			<stop  offset="0.882" style="stop-color:#E6EAF6"/>
			<stop  offset="1" style="stop-color:#E1E5F4"/>
		</linearGradient>
		<path id="Path_878" class="st4" d="M1005.4,662.3l38.8-16v-74.2l-38.8,16V662.3z"/>
		
			<linearGradient id="Path_879_1_" gradientUnits="userSpaceOnUse" x1="1264.7112" y1="-207.885" x2="1264.7112" y2="-208.5513" gradientTransform="matrix(41.5601 0 0 135.37 -51575.5078 28803.6602)">
			<stop  offset="0.247" style="stop-color:#FFFFFF"/>
			<stop  offset="1" style="stop-color:#EBEEF7"/>
		</linearGradient>
		<path id="Path_879" class="st5" d="M1005.4,662.3l-38.8-16v-74.2l38.8,16V662.3z"/>
		<path id="Path_880" class="st6" d="M1005.4,588l-38.8-16l38.8-16l38.8,16L1005.4,588z"/>
	</g>
	<g id="Group_660" transform="translate(376.07 643.129)">
		
			<linearGradient id="Path_151-2_2_" gradientUnits="userSpaceOnUse" x1="-978.2985" y1="-207.5403" x2="-978.2985" y2="-208.8712" gradientTransform="matrix(54.046 0 0 176.04 52992.4844 36527.9531)">
			<stop  offset="0.247" style="stop-color:#FFFFFF"/>
			<stop  offset="0.516" style="stop-color:#F8F9FD"/>
			<stop  offset="0.905" style="stop-color:#E5E9F6"/>
			<stop  offset="1" style="stop-color:#DFE4F4"/>
		</linearGradient>
		<path id="Path_151-2_1_" class="st7" d="M90.9-7.4l56.9-41.5v-192.8l-56.9,41.5V-7.4z"/>
		
			<linearGradient id="Path_152-2_2_" gradientUnits="userSpaceOnUse" x1="-978.3522" y1="-207.5403" x2="-978.3522" y2="-208.8718" gradientTransform="matrix(54.046 0 0 176.04 52938.4414 36527.9531)">
			<stop  offset="0.247" style="stop-color:#FFFFFF"/>
			<stop  offset="0.641" style="stop-color:#F6F7FC"/>
			<stop  offset="1" style="stop-color:#E9EDF7"/>
		</linearGradient>
		<path id="Path_152-2_1_" class="st8" d="M90.9-7.4L33.9-49v-192.8l56.9,41.5V-7.4H90.9z"/>
		<path id="Path_153-2_1_" class="st3" d="M90.9-200.2l-57-41.5L90.8-283l56.9,41.5L90.9-200.2z"/>
	</g>
	<g id="Group_98_1_" transform="translate(1097.07 620.079)">
		
			<linearGradient id="Path_151-3_2_" gradientUnits="userSpaceOnUse" x1="-5167.9043" y1="-207.1503" x2="-5167.9043" y2="-207.5593" gradientTransform="matrix(54.046 0 0 176.04 279049.9375 36513.0078)">
			<stop  offset="0.247" style="stop-color:#FFFFFF"/>
			<stop  offset="0.516" style="stop-color:#F8F9FD"/>
			<stop  offset="0.905" style="stop-color:#E5E9F6"/>
			<stop  offset="1" style="stop-color:#DFE4F4"/>
		</linearGradient>
		<path id="Path_151-3" class="st9" d="M-275.1,46.3l40.9-25.8v-46.2l-40.9,25.6V46.3z"/>
		
			<linearGradient id="Path_152-3_2_" gradientUnits="userSpaceOnUse" x1="-5167.6611" y1="-207.1503" x2="-5167.6611" y2="-207.5593" gradientTransform="matrix(54.046 0 0 176.04 278995.875 36513.0078)">
			<stop  offset="0.247" style="stop-color:#FFFFFF"/>
			<stop  offset="0.641" style="stop-color:#F6F7FC"/>
			<stop  offset="1" style="stop-color:#E9EDF7"/>
		</linearGradient>
		<path id="Path_152-3" class="st10" d="M-275.1,46.3L-316,20.5v-46.2l40.9,25.6C-275.1-0.1-275.1,46.3-275.1,46.3z"/>
		<path id="Path_153-3" class="st3" d="M-275.1-0.1l-41-25.7l40.9-25.7l41,25.7L-275.1-0.1z"/>
	</g>
	<g id="Group_98_2_" transform="translate(1097.07 620.079)">
		
			<linearGradient id="Path_151-3_3_" gradientUnits="userSpaceOnUse" x1="-5171.6187" y1="-207.2088" x2="-5171.6187" y2="-207.7791" gradientTransform="matrix(54.046 0 0 176.04 279049.9375 36513.0078)">
			<stop  offset="0.247" style="stop-color:#FFFFFF"/>
			<stop  offset="0.516" style="stop-color:#F8F9FD"/>
			<stop  offset="0.905" style="stop-color:#E5E9F6"/>
			<stop  offset="1" style="stop-color:#DFE4F4"/>
		</linearGradient>
		<path id="Path_151-3_1_" class="st11" d="M-484.2,36l57.6-35.9v-64.5l-57.6,35.7V36z"/>
		
			<linearGradient id="Path_152-3_3_" gradientUnits="userSpaceOnUse" x1="-5171.6846" y1="-207.2088" x2="-5171.6846" y2="-207.7791" gradientTransform="matrix(54.046 0 0 176.04 278995.875 36513.0078)">
			<stop  offset="0.247" style="stop-color:#FFFFFF"/>
			<stop  offset="0.641" style="stop-color:#F6F7FC"/>
			<stop  offset="1" style="stop-color:#E9EDF7"/>
		</linearGradient>
		<path id="Path_152-3_1_" class="st12" d="M-484.2,36l-57.6-35.9v-64.5l57.6,35.7V36z"/>
		<path id="Path_153-3_1_" class="st3" d="M-484.2-28.6l-57.7-35.7l57.6-35.7l57.7,35.7L-484.2-28.6z"/>
	</g>
</g>
<linearGradient id="SVGID_1_" gradientUnits="userSpaceOnUse" x1="81.0218" y1="1118.0299" x2="652.1637" y2="308.2334" gradientTransform="matrix(1 0 0 -1 0 1076)">
	<stop  offset="0.247" style="stop-color:#FFFFFF"/>
	<stop  offset="0.516" style="stop-color:#F8F9FD"/>
	<stop  offset="0.905" style="stop-color:#E5E9F6"/>
	<stop  offset="1" style="stop-color:#DFE4F4"/>
</linearGradient>
<path class="st13" d="M0,737.1V0h741.2c-2,12.9-2.9,255.3-364.6,299.8C73.2,337.2,0,737.1,0,737.1z"/>
<g>
	<g>
		<g>
			<g>
				<g>
					<path class="st14" d="M742,526.7c17-14.9,18.5-39.2,15.4-60.6c-0.5-3.6-0.5-7.4-2.6-10.3c-2.1-3-6.3-4.7-9.3-2.8
						c-2.5,1.5-3.3,4.8-4.5,7.5c-1.6,3.6-4.2,6.8-7.5,8.9c-2.2,1.4-4.9,2.5-7.3,1.5c-3.3-1.4-4.1-5.6-4.5-9.2
						c-0.7-6.6-1.4-13.3-2.1-19.9c-0.4-3.6-0.8-7.2-2.2-10.5c-1.5-3.3-4.3-6.1-7.8-6.7c-3.5-0.6-7.5,1.8-7.8,5.4
						c-0.1,1.5,0.3,3,0.4,4.4c0.1,1.5-0.4,3.2-1.8,3.8c-1.4,0.6-2.9-0.3-4.1-1.2c-4.1-3.2-7.1-7.5-9.9-11.9
						c-2.8-4.4-5.6-8.8-9.4-12.4c-3.8-3.6-8.7-6.2-13.9-5.9c-5.1,0.3-10.2,4-11,9.2c-0.7,5.2,2.8,9.9,6.4,13.6
						c5.4,5.5,11.6,10.2,18.3,14c1.2,0.7,2.5,1.4,3.1,2.7c1,2.3-1,4.9-3.2,5.9c-2.6,1.2-5.5,1.2-8.2,1.9c-2.7,0.6-5.6,2.2-6.4,4.9
						c-1.1,3.8,2.4,7.3,5.7,9.5c6.6,4.3,13.8,7.5,21.4,9.4c2.7,0.7,5.6,1.2,7.9,2.8c2.3,1.6,3.9,4.7,2.9,7.3c-1,2.7-4.2,3.8-7,3.6
						c-2.8-0.2-5.4-1.4-8.1-2.1c-5.1-1.3-11.4-0.3-14.1,4.3c-1.8,3-1.5,6.9-0.1,10.1c1.4,3.2,3.8,5.8,6.4,8.2
						c8.9,8.3,19.7,14.6,31.5,17.3C720.5,532.2,731.1,532.1,742,526.7"/>
				</g>
			</g>
		</g>
		<g>
			<g>
				<g>
					<g>
						<path class="st15" d="M744,542.6c-1.7-8.4-4.7-18.2-9.1-28.7c-4.4-10.5-10.1-21.6-16.5-33c-1.6-2.8-3.2-5.7-4.8-8.4
							c-1.6-2.8-3.1-5.5-4.8-8.1c-3.4-5.2-7-9.9-10.5-14.3c-3.6-4.4-7.1-8.4-10.5-12.2c-3.4-3.7-6.6-7.2-9.6-10.2
							c-6.1-6-11.5-10.3-15.4-13.1c-1.9-1.4-3.5-2.4-4.5-3.1c-0.5-0.3-0.9-0.6-1.2-0.8c-0.3-0.2-0.4-0.3-0.4-0.2
							c0,0,0.1,0.1,0.4,0.3c0.3,0.2,0.7,0.5,1.2,0.8c1,0.7,2.5,1.8,4.4,3.2c3.8,2.8,9.2,7.1,15.2,13.2c3,3,6.2,6.4,9.5,10.2
							c3.3,3.8,6.9,7.8,10.4,12.2c3.6,4.4,7.1,9.1,10.5,14.3c1.7,2.6,3.2,5.3,4.8,8.1c1.6,2.8,3.1,5.6,4.8,8.4
							c6.4,11.4,12.1,22.4,16.5,32.9c4.4,10.4,7.4,20.2,9.2,28.6"/>
					</g>
				</g>
			</g>
		</g>
		<g>
			<g>
				<g>
					<g>
						<path class="st15" d="M708.7,464.4c0,0,0.1-0.6,0.2-1.6c0.1-1,0.1-2.5,0.2-4.3c0.1-3.6,0.1-8.6,0.1-14.1c0-5.5,0-10.5,0.2-14
							c0.1-1.8,0.2-3.2,0.2-4.3c0.1-1,0.1-1.6,0-1.6c0,0-0.1,0.5-0.3,1.5c-0.1,1-0.3,2.4-0.4,4.2c-0.3,3.6-0.4,8.6-0.4,14.1
							c0,5.4,0.1,10.3,0.1,14.1c0,1.7,0,3.1,0,4.3C708.7,463.8,708.7,464.4,708.7,464.4z"/>
					</g>
				</g>
			</g>
		</g>
		<g>
			<g>
				<g>
					<g>
						<path class="st15" d="M662,460.9c0,0,0.7,0,1.9,0c1.2,0,2.9-0.1,5-0.1c4.2,0,10.1,0.2,16.6,0.7c6.5,0.5,12.3,1.2,16.5,1.8
							c2.1,0.3,3.8,0.6,5,0.8c1.2,0.2,1.8,0.3,1.8,0.2c0,0-0.6-0.2-1.8-0.5c-1.2-0.3-2.8-0.6-4.9-1c-4.2-0.8-10-1.5-16.5-2
							c-6.5-0.5-12.4-0.6-16.6-0.5c-2.1,0-3.8,0.2-5,0.3C662.6,460.8,662,460.8,662,460.9z"/>
					</g>
				</g>
			</g>
		</g>
		<g>
			<g>
				<g>
					<g>
						<path class="st15" d="M734.3,513.1c0,0,0.1-0.2,0.3-0.6c0.2-0.5,0.4-1,0.6-1.7c0.5-1.5,1.2-3.7,2-6.5
							c1.6-5.5,3.6-13.1,5.8-21.6c2.1-8.5,4.1-16.1,5.6-21.7c0.7-2.7,1.4-4.9,1.8-6.5c0.2-0.7,0.4-1.3,0.5-1.8
							c0.1-0.4,0.1-0.6,0.1-0.6c0,0-0.1,0.2-0.3,0.6c-0.2,0.5-0.4,1-0.6,1.7c-0.5,1.5-1.2,3.7-2,6.5c-1.6,5.5-3.6,13.1-5.8,21.6
							c-2.1,8.5-4,16.1-5.6,21.7c-0.7,2.7-1.4,4.9-1.8,6.5c-0.2,0.7-0.4,1.3-0.5,1.8C734.3,512.9,734.3,513.1,734.3,513.1z"/>
					</g>
				</g>
			</g>
		</g>
		<g>
			<g>
				<g>
					<g>
						<path class="st15" d="M671.3,500.2c0,0,0.2,0.1,0.6,0.2c0.5,0.1,1.1,0.2,1.8,0.4c1.7,0.3,4,0.8,6.8,1.4
							c5.7,1.2,13.6,2.9,22.2,4.8c8.7,1.9,16.6,3.6,22.3,4.6c2.9,0.5,5.2,0.9,6.8,1.2c0.7,0.1,1.4,0.2,1.9,0.3
							c0.4,0.1,0.7,0.1,0.7,0.1c0,0-0.2-0.1-0.6-0.2c-0.5-0.1-1.1-0.2-1.8-0.4c-1.7-0.3-4-0.8-6.7-1.4c-5.7-1.2-13.6-2.9-22.2-4.8
							c-8.7-1.9-16.6-3.6-22.3-4.6c-2.9-0.5-5.2-0.9-6.8-1.2c-0.7-0.1-1.4-0.2-1.9-0.3C671.5,500.2,671.3,500.2,671.3,500.2z"/>
					</g>
				</g>
			</g>
		</g>
	</g>
	<g>
		<rect x="743.4" y="291.2" class="st16" width="82" height="251.3"/>
		<rect x="825.2" y="291.2" class="st17" width="64.8" height="251.3"/>
		<g>
			<rect x="747.8" y="331.5" class="st15" width="69.6" height="19.6"/>
			<rect x="749.7" y="333.9" class="st16" width="3.9" height="15"/>
			<path class="st17" d="M758.2,337.1c0,0.7-0.6,1.2-1.2,1.2s-1.2-0.6-1.2-1.2c0-0.7,0.6-1.2,1.2-1.2S758.2,336.4,758.2,337.1z"/>
			<circle class="st17" cx="757" cy="342.4" r="1.2"/>
			<rect x="763.2" y="335.8" class="st16" width="3.8" height="11.5"/>
			<rect x="768.7" y="335.8" class="st16" width="3.8" height="11.5"/>
			<rect x="774.2" y="335.8" class="st16" width="3.8" height="11.5"/>
			<rect x="779.8" y="335.8" class="st16" width="3.8" height="11.5"/>
			<rect x="785.3" y="335.8" class="st16" width="3.8" height="11.5"/>
			<rect x="790.8" y="335.8" class="st16" width="3.8" height="11.5"/>
			<rect x="796.4" y="335.8" class="st16" width="3.8" height="11.5"/>
			<rect x="801.9" y="335.8" class="st16" width="3.8" height="11.5"/>
			<rect x="807.4" y="335.8" class="st16" width="3.8" height="11.5"/>
			<rect x="812.9" y="335.8" class="st16" width="3.8" height="11.5"/>
		</g>
		<g>
			<rect x="747.8" y="362.8" class="st15" width="69.6" height="19.6"/>
			<rect x="749.7" y="365.3" class="st16" width="3.9" height="15"/>
			<path class="st17" d="M758.2,368.5c0,0.7-0.6,1.2-1.2,1.2s-1.2-0.6-1.2-1.2c0-0.7,0.6-1.2,1.2-1.2S758.2,367.8,758.2,368.5z"/>
			<circle class="st17" cx="757" cy="373.8" r="1.2"/>
			<rect x="763.2" y="367.2" class="st16" width="3.8" height="11.5"/>
			<rect x="768.7" y="367.2" class="st16" width="3.8" height="11.5"/>
			<rect x="774.2" y="367.2" class="st16" width="3.8" height="11.5"/>
			<rect x="779.8" y="367.2" class="st16" width="3.8" height="11.5"/>
			<rect x="785.3" y="367.2" class="st16" width="3.8" height="11.5"/>
			<rect x="790.8" y="367.2" class="st16" width="3.8" height="11.5"/>
			<rect x="796.4" y="367.2" class="st16" width="3.8" height="11.5"/>
			<rect x="801.9" y="367.2" class="st16" width="3.8" height="11.5"/>
			<rect x="807.4" y="367.2" class="st16" width="3.8" height="11.5"/>
			<rect x="812.9" y="367.2" class="st16" width="3.8" height="11.5"/>
		</g>
		<g>
			<rect x="747.8" y="394.2" class="st15" width="69.6" height="19.6"/>
			<rect x="749.7" y="396.7" class="st16" width="3.9" height="15"/>
			<path class="st17" d="M758.2,399.8c0,0.7-0.6,1.2-1.2,1.2s-1.2-0.6-1.2-1.2c0-0.7,0.6-1.2,1.2-1.2S758.2,399.1,758.2,399.8z"/>
			<circle class="st17" cx="757" cy="405.1" r="1.2"/>
			<rect x="763.2" y="398.6" class="st16" width="3.8" height="11.5"/>
			<rect x="768.7" y="398.6" class="st16" width="3.8" height="11.5"/>
			<rect x="774.2" y="398.6" class="st16" width="3.8" height="11.5"/>
			<rect x="779.8" y="398.6" class="st16" width="3.8" height="11.5"/>
			<rect x="785.3" y="398.6" class="st16" width="3.8" height="11.5"/>
			<rect x="790.8" y="398.6" class="st16" width="3.8" height="11.5"/>
			<rect x="796.4" y="398.6" class="st16" width="3.8" height="11.5"/>
			<rect x="801.9" y="398.6" class="st16" width="3.8" height="11.5"/>
			<rect x="807.4" y="398.6" class="st16" width="3.8" height="11.5"/>
			<rect x="812.9" y="398.6" class="st16" width="3.8" height="11.5"/>
		</g>
		<g>
			<rect x="747.8" y="425.6" class="st15" width="69.6" height="19.6"/>
			<rect x="749.7" y="428.1" class="st16" width="3.9" height="15"/>
			<path class="st17" d="M758.2,431.2c0,0.7-0.6,1.2-1.2,1.2s-1.2-0.6-1.2-1.2c0-0.7,0.6-1.2,1.2-1.2S758.2,430.5,758.2,431.2z"/>
			<circle class="st17" cx="757" cy="436.5" r="1.2"/>
			<rect x="763.2" y="430" class="st16" width="3.8" height="11.5"/>
			<rect x="768.7" y="430" class="st16" width="3.8" height="11.5"/>
			<rect x="774.2" y="430" class="st16" width="3.8" height="11.5"/>
			<rect x="779.8" y="430" class="st16" width="3.8" height="11.5"/>
			<rect x="785.3" y="430" class="st16" width="3.8" height="11.5"/>
			<rect x="790.8" y="430" class="st16" width="3.8" height="11.5"/>
			<rect x="796.4" y="430" class="st16" width="3.8" height="11.5"/>
			<rect x="801.9" y="430" class="st16" width="3.8" height="11.5"/>
			<rect x="807.4" y="430" class="st16" width="3.8" height="11.5"/>
			<rect x="812.9" y="430" class="st16" width="3.8" height="11.5"/>
		</g>
		<g>
			<rect x="747.8" y="457" class="st15" width="69.6" height="19.6"/>
			<rect x="749.7" y="459.4" class="st16" width="3.9" height="15"/>
			<path class="st17" d="M758.2,462.6c0,0.7-0.6,1.2-1.2,1.2s-1.2-0.6-1.2-1.2c0-0.7,0.6-1.2,1.2-1.2S758.2,461.9,758.2,462.6z"/>
			<circle class="st17" cx="757" cy="467.9" r="1.2"/>
			<rect x="763.2" y="461.3" class="st16" width="3.8" height="11.5"/>
			<rect x="768.7" y="461.3" class="st16" width="3.8" height="11.5"/>
			<rect x="774.2" y="461.3" class="st16" width="3.8" height="11.5"/>
			<rect x="779.8" y="461.3" class="st16" width="3.8" height="11.5"/>
			<rect x="785.3" y="461.3" class="st16" width="3.8" height="11.5"/>
			<rect x="790.8" y="461.3" class="st16" width="3.8" height="11.5"/>
			<rect x="796.4" y="461.3" class="st16" width="3.8" height="11.5"/>
			<rect x="801.9" y="461.3" class="st16" width="3.8" height="11.5"/>
			<rect x="807.4" y="461.3" class="st16" width="3.8" height="11.5"/>
			<rect x="812.9" y="461.3" class="st16" width="3.8" height="11.5"/>
		</g>
		<g>
			<rect x="747.8" y="488.3" class="st15" width="69.6" height="19.6"/>
			<rect x="749.7" y="490.8" class="st16" width="3.9" height="15"/>
			<path class="st17" d="M758.2,494c0,0.7-0.6,1.2-1.2,1.2s-1.2-0.6-1.2-1.2c0-0.7,0.6-1.2,1.2-1.2S758.2,493.3,758.2,494z"/>
			<circle class="st17" cx="757" cy="499.3" r="1.2"/>
			<rect x="763.2" y="492.7" class="st16" width="3.8" height="11.5"/>
			<rect x="768.7" y="492.7" class="st16" width="3.8" height="11.5"/>
			<rect x="774.2" y="492.7" class="st16" width="3.8" height="11.5"/>
			<rect x="779.8" y="492.7" class="st16" width="3.8" height="11.5"/>
			<rect x="785.3" y="492.7" class="st16" width="3.8" height="11.5"/>
			<rect x="790.8" y="492.7" class="st16" width="3.8" height="11.5"/>
			<rect x="796.4" y="492.7" class="st16" width="3.8" height="11.5"/>
			<rect x="801.9" y="492.7" class="st16" width="3.8" height="11.5"/>
			<rect x="807.4" y="492.7" class="st16" width="3.8" height="11.5"/>
			<rect x="812.9" y="492.7" class="st16" width="3.8" height="11.5"/>
		</g>
		<g>
			<rect x="747.8" y="519.7" class="st15" width="69.6" height="19.6"/>
			<rect x="749.7" y="522.2" class="st16" width="3.9" height="15"/>
			<circle class="st17" cx="757" cy="525.3" r="1.2"/>
			<circle class="st17" cx="757" cy="530.6" r="1.2"/>
			<rect x="763.2" y="524.1" class="st16" width="3.8" height="11.5"/>
			<rect x="768.7" y="524.1" class="st16" width="3.8" height="11.5"/>
			<rect x="774.2" y="524.1" class="st16" width="3.8" height="11.5"/>
			<rect x="779.8" y="524.1" class="st16" width="3.8" height="11.5"/>
			<rect x="785.3" y="524.1" class="st16" width="3.8" height="11.5"/>
			<rect x="790.8" y="524.1" class="st16" width="3.8" height="11.5"/>
			<rect x="796.4" y="524.1" class="st16" width="3.8" height="11.5"/>
			<rect x="801.9" y="524.1" class="st16" width="3.8" height="11.5"/>
			<rect x="807.4" y="524.1" class="st16" width="3.8" height="11.5"/>
			<rect x="812.9" y="524.1" class="st16" width="3.8" height="11.5"/>
		</g>
		<g>
			<path class="st15" d="M790.8,331.5c0,0,0-0.2-0.1-0.6c0-0.4-0.1-1-0.1-1.7c0-0.8,0-1.7-0.1-2.7c-0.1-1.1-0.1-2.3-0.5-3.6
				c-0.4-1.3-0.9-2.6-1.9-3.9c-0.9-1.3-2.2-2.4-3.8-3.1c-1.6-0.7-3.5-0.9-5.4-1.1c-1.9-0.2-3.9-0.3-6-0.5
				c-8.2-0.7-15.7-1.2-21.1-1.3c-2.7-0.1-4.9,0-6.4,0c-0.7,0-1.3,0-1.7,0c-0.4,0-0.6,0-0.6,0c0,0,0.2,0,0.6-0.1c0.5,0,1-0.1,1.7-0.1
				c1.5-0.1,3.7-0.1,6.4-0.1c5.4,0,12.9,0.4,21.1,1.1c2.1,0.2,4.1,0.4,6,0.5c1.9,0.2,3.8,0.4,5.5,1.2c1.7,0.7,3.1,1.9,4,3.2
				c0.9,1.3,1.5,2.7,1.9,4.1c0.3,1.3,0.4,2.6,0.4,3.7c0,1.1,0,2,0,2.8c0,0.7,0,1.3,0,1.7C790.8,331.3,790.8,331.5,790.8,331.5z"/>
		</g>
		<g>
			<path class="st15" d="M769.7,331.5c0,0,0-0.2,0-0.6c0-0.4,0-1,0-1.6c0-0.7,0-1.6-0.1-2.6c-0.1-1-0.3-2.1-0.9-3.2
				c-0.6-1.1-1.8-1.9-3.1-2.4c-1.4-0.5-3-0.7-4.6-0.5c-0.8,0.1-1.6,0.4-2.4,0.8c-0.7,0.4-1.4,1-1.8,1.7c-0.4,0.7-0.4,1.7,0,2.4
				c0.4,0.8,1.2,1.4,2.1,1.6c0.9,0.2,1.8-0.1,2.4-0.7c0.6-0.6,1-1.5,1.1-2.3c0.1-0.9-0.2-1.7-0.7-2.4c-0.5-0.7-1.1-1.2-1.8-1.6
				c-0.7-0.4-1.5-0.5-2.3-0.6c-0.8-0.1-1.5-0.2-2.3-0.3c-1.5-0.2-2.9-0.3-4.1-0.3c-2.5-0.1-4.6-0.1-6-0.1c-0.7,0-1.2,0-1.6,0
				c-0.4,0-0.6,0-0.6,0c0,0,0.2,0,0.6-0.1c0.4,0,1-0.1,1.6-0.1c1.4-0.1,3.5-0.1,6-0.1c1.3,0,2.7,0.1,4.2,0.3
				c0.7,0.1,1.5,0.2,2.3,0.3c0.4,0.1,0.8,0.1,1.2,0.2c0.4,0.1,0.8,0.2,1.2,0.4c0.8,0.4,1.5,1,2,1.8c0.5,0.7,0.9,1.7,0.8,2.7
				c-0.1,1-0.5,1.9-1.2,2.6c-0.7,0.7-1.8,1.1-2.9,0.8c-1-0.2-1.9-0.9-2.4-1.8c-0.5-0.9-0.5-2.1,0-2.9c0.5-0.9,1.2-1.5,2-1.9
				c0.8-0.4,1.7-0.7,2.5-0.8c1.7-0.3,3.4,0,4.8,0.5c1.4,0.6,2.6,1.4,3.3,2.6c0.6,1.2,0.8,2.4,0.8,3.4c0.1,1,0,1.9,0,2.6
				c0,0.7-0.1,1.2-0.1,1.6C769.8,331.3,769.7,331.5,769.7,331.5z"/>
		</g>
		<g>
			<path class="st15" d="M796.5,331.5c0,0-0.1-0.2-0.1-0.6c-0.1-0.4-0.2-1.1-0.4-1.9c-0.4-1.6-0.9-3.9-2.1-6.6
				c-1.1-2.7-2.9-5.8-6.1-8.1c-1.5-1.2-3.5-1.8-5.5-2.1c-2.1-0.3-4.3-0.3-6.5-0.3c-9-0.2-17.1-0.1-23-0.4c-2.9-0.1-5.3-0.2-7-0.4
				c-0.8-0.1-1.4-0.1-1.9-0.2c-0.4,0-0.7-0.1-0.7-0.1c0,0,0.2,0,0.7,0c0.5,0,1.1,0,1.9,0.1c1.6,0.1,4,0.1,7,0.2
				c5.9,0.1,14,0.1,23,0.2c2.2,0.1,4.5,0.1,6.6,0.4c2.1,0.3,4.2,1,5.7,2.2c1.6,1.2,2.9,2.6,3.8,4.1c1,1.5,1.7,2.9,2.3,4.3
				c1.1,2.8,1.6,5.1,1.9,6.7c0.1,0.8,0.2,1.4,0.3,1.9C796.5,331.2,796.5,331.5,796.5,331.5z"/>
		</g>
		<rect x="748.8" y="294.4" class="st15" width="67.7" height="9.8"/>
		<rect x="763.6" y="299.3" class="st16" width="36.8" height="4.9"/>
	</g>
	<g>
		<path class="st18" d="M1218.1,421.7c0,0-5.6-3.6-12.2,9.7c-6.7,13.3-9.2,21-9.2,21s-1.8,2.8-3.7,1c-1.9-1.8-4.6-6.9-7.8-6
			c-3.4,1-4.4,4.8-3.7,10.3c0.7,5.5,1.8,17.7,1.8,18.8c0.1,1.1-0.5,2.7-2,1.7c-1.5-1-10.2-10.6-14.5-6.1c-4.3,4.4,0.2,19.5,0.6,21.1
			c0.5,1.7,0.1,2.4-0.6,2.8s-3.4-3.1-6-5.7c-2.6-2.6-6-5.2-8.3-2.4c-2.3,2.7-2.9,14.1,8,32.4l5.6,8.1l9.9-0.6
			c21.1-2.6,29.7-10.1,30.5-13.6c0.8-3.5-3.4-4.6-7-5c-3.6-0.4-8-0.4-8.2-1.2c-0.2-0.9,0.2-1.6,1.8-2.2c1.6-0.7,16.2-6.4,17-12.5
			c0.8-6.1-12-7.1-13.8-7.6c-1.7-0.6-0.8-2,0.1-2.6c0.9-0.6,11.1-7.2,15.9-10.1s7.1-6,5.8-9.3c-1.2-3.1-6.9-2.1-9.5-2.5
			c-2.6-0.4-1.5-3.5-1.5-3.5s4.5-6.7,10.9-20.1c6.4-13.4,0-15.6,0-15.6"/>
	</g>
	<g>
		<g>
			<path class="st19" d="M1212.1,433.7c0,0,0,0.1-0.1,0.3c-0.1,0.2-0.2,0.5-0.4,0.8c-0.3,0.7-0.8,1.8-1.5,3.2
				c-1.3,2.8-3.2,6.8-5.6,11.7c-4.7,9.9-11.4,23.4-18.8,38.4c-7.4,15-14.1,28.5-18.9,38.3c-2.4,4.9-4.3,8.9-5.7,11.6
				c-0.7,1.4-1.2,2.4-1.5,3.2c-0.2,0.4-0.3,0.6-0.4,0.8c-0.1,0.2-0.1,0.3-0.1,0.3s0-0.1,0.1-0.3c0.1-0.2,0.2-0.5,0.4-0.8
				c0.3-0.7,0.8-1.8,1.5-3.2c1.3-2.8,3.2-6.8,5.6-11.7c4.7-9.9,11.4-23.4,18.8-38.4c7.4-15,14.1-28.5,18.9-38.3
				c2.4-4.9,4.3-8.9,5.7-11.6c0.7-1.4,1.2-2.4,1.5-3.2c0.2-0.4,0.3-0.6,0.4-0.8C1212.1,433.8,1212.1,433.7,1212.1,433.7z"/>
		</g>
	</g>
	<g>
		<g>
			<path class="st19" d="M1188.6,454.8c0,0,0.1,0.2,0.3,0.7c0.1,0.4,0.3,1.1,0.6,1.9c0.5,1.6,1,3.8,1.6,6.2c0.6,2.4,1.1,4.6,1.5,6.2
				c0.2,0.7,0.3,1.4,0.5,1.9c0.1,0.4,0.2,0.7,0.1,0.7c0,0-0.1-0.2-0.3-0.7c-0.1-0.4-0.3-1.1-0.6-1.9c-0.4-1.6-1-3.8-1.6-6.2
				c-0.6-2.4-1.1-4.6-1.5-6.2c-0.2-0.7-0.3-1.4-0.5-1.9C1188.7,455,1188.6,454.8,1188.6,454.8z"/>
		</g>
	</g>
	<g>
		<g>
			<path class="st19" d="M1194.1,472.5c0-0.1,4.4-1.5,10-3.1c5.5-1.6,10.1-2.9,10.1-2.8c0,0.1-4.4,1.5-10,3.1
				C1198.7,471.4,1194.2,472.6,1194.1,472.5z"/>
		</g>
	</g>
	<g>
		<g>
			<path class="st19" d="M1181.7,495c0,0,0.3,0,0.7,0c0.5,0,1.2,0,2,0c1.7,0,4,0,6.5-0.2c2.6-0.1,4.9-0.3,6.5-0.4
				c0.8-0.1,1.4-0.1,2-0.2c0.5,0,0.7,0,0.7,0c0,0-0.3,0.1-0.7,0.2c-0.5,0.1-1.1,0.2-2,0.3c-1.7,0.2-4,0.4-6.5,0.5
				c-2.6,0.1-4.9,0.1-6.6,0.1c-0.8,0-1.5-0.1-2-0.1C1182,495,1181.7,495,1181.7,495z"/>
		</g>
	</g>
	<g>
		<g>
			<path class="st19" d="M1173.2,480c0,0,0.2,0.2,0.4,0.5c0.2,0.4,0.6,0.9,1,1.6c0.8,1.3,1.9,3.2,3.1,5.2c1.2,2,2.3,3.9,3,5.3
				c0.4,0.7,0.7,1.2,0.9,1.6c0.2,0.4,0.3,0.6,0.3,0.6c0,0-0.2-0.2-0.4-0.5c-0.2-0.4-0.6-0.9-1-1.6c-0.8-1.3-1.9-3.2-3.1-5.2
				c-1.2-2-2.3-3.9-3-5.2c-0.4-0.7-0.7-1.2-0.9-1.6C1173.3,480.3,1173.2,480,1173.2,480z"/>
		</g>
	</g>
	<g>
		<g>
			<path class="st19" d="M1159.7,498.5c0,0,0.2,0.2,0.5,0.7c0.3,0.5,0.8,1.2,1.3,2c1,1.7,2.5,4,4,6.6c1.6,2.6,3,5,3.9,6.7
				c0.5,0.8,0.9,1.5,1.2,2c0.3,0.5,0.4,0.8,0.4,0.8c0,0-0.2-0.2-0.5-0.7c-0.3-0.5-0.8-1.2-1.3-2c-1-1.7-2.5-4-4-6.6
				c-1.6-2.6-3-5-3.9-6.7c-0.5-0.8-0.9-1.5-1.2-2C1159.8,498.7,1159.7,498.5,1159.7,498.5z"/>
		</g>
	</g>
	<g>
		<g>
			<path class="st19" d="M1170.9,516.8c0,0,0.3-0.1,0.9-0.1c0.7,0,1.5-0.1,2.5-0.1c2.1-0.1,5.1-0.2,8.3-0.5c3.2-0.2,6.2-0.5,8.3-0.7
				c1-0.1,1.9-0.2,2.5-0.3c0.6-0.1,0.9-0.1,0.9-0.1c0,0-0.3,0.1-0.9,0.2c-0.6,0.1-1.4,0.2-2.5,0.4c-2.1,0.3-5,0.6-8.3,0.8
				c-3.2,0.2-6.2,0.3-8.3,0.4c-1.1,0-1.9,0-2.5,0C1171.2,516.8,1170.9,516.8,1170.9,516.8z"/>
		</g>
	</g>
	<g>
		<g>
			<path class="st18" d="M739,516c-3-1.6-6.6-1.8-9.9-1.3c-1.8,0.3-3.7,0.8-4.9,2.2c-1.2,1.3-1.5,3.7-0.1,4.9c0.8,0.7,2,0.8,3.1,0.8
				c2.6,0,5.6-0.5,7.6,1.1c1.2,0.9,2,2.4,3.4,2.9c1.4,0.4,3-0.4,3.7-1.6c0.8-1.3,0.8-2.8,0.5-4.3C742.4,520.7,742.1,517.6,739,516z"
				/>
		</g>
		<g class="st20">
			<path class="st18" d="M739,516c-3-1.6-6.6-1.8-9.9-1.3c-1.8,0.3-3.7,0.8-4.9,2.2c-1.2,1.3-1.5,3.7-0.1,4.9c0.8,0.7,2,0.8,3.1,0.8
				c2.6,0,5.6-0.5,7.6,1.1c1.2,0.9,2,2.4,3.4,2.9c1.4,0.4,3-0.4,3.7-1.6c0.8-1.3,0.8-2.8,0.5-4.3C742.4,520.7,742.1,517.6,739,516z"
				/>
		</g>
		<g>
			<path class="st18" d="M746,502.7c-1.9,2.6-5.5,1.7-7.1,0.1c-1.7-1.6-2.3-4-3-6.2c-1.4-5.1-2.9-10.5-1.7-15.6
				c0.3-1.5,0.9-3.1,2-4.2c1.1-1.1,2.8-1.8,4.3-1.4c1.8,0.5,2.9,2.3,3.7,4c2.4,5,3.6,10.5,3.6,16C747.8,497.8,747.5,500.5,746,502.7
				"/>
		</g>
		<g class="st20">
			<path class="st18" d="M746,502.7c-1.9,2.6-5.5,1.7-7.1,0.1c-1.7-1.6-2.3-4-3-6.2c-1.4-5.1-2.9-10.5-1.7-15.6
				c0.3-1.5,0.9-3.1,2-4.2c1.1-1.1,2.8-1.8,4.3-1.4c1.8,0.5,2.9,2.3,3.7,4c2.4,5,3.6,10.5,3.6,16C747.8,497.8,747.5,500.5,746,502.7
				"/>
		</g>
		<g>
			<path class="st18" d="M751.1,506.5c-2-2.4-2.3-5.9-1.4-8.9c0.9-3,3-5.5,5.3-7.6c2.7-2.4,6-4.3,9.4-5.5c1.4-0.5,2.8-0.8,4.2-0.7
				c1.4,0.1,2.9,0.9,3.5,2.2c1,1.9,0,4.2-1,6c-1.8,3.3-3.9,6.4-6.2,9.3c-1.9,2.4-4,4.7-6.8,5.8c-2.8,1.1-5.7,0.9-7.2-1.1"/>
		</g>
		<g>
			<g>
				<path class="st18" d="M745.9,542.5c0,0-0.1-0.4-0.2-1.2c-0.1-0.9-0.2-2-0.3-3.3c-0.1-1.4-0.3-3-0.7-4.8c-0.4-1.8-1-3.7-1.7-5.7
					c-0.8-2-1.7-3.7-2.9-5.2c-1.1-1.4-2.4-2.5-3.6-3.1c-1.2-0.6-2.3-0.9-3.1-1c-0.8-0.1-1.2-0.1-1.2-0.2c0,0,0.4,0,1.2,0
					c0.8,0.1,1.9,0.3,3.2,0.9c1.3,0.6,2.7,1.6,3.8,3.1c1.2,1.5,2.2,3.3,3,5.3c0.8,2,1.3,4,1.7,5.8c0.4,1.8,0.5,3.5,0.6,4.9
					c0.1,1.4,0.1,2.5,0.1,3.3C745.9,542.1,745.9,542.5,745.9,542.5z"/>
			</g>
		</g>
		<g>
			<g>
				<path class="st18" d="M745.7,540c0,0,0-0.2,0-0.6c0-0.4,0-0.9,0-1.6c0-1.4,0-3.4,0-5.9c-0.1-4.9-0.5-11.8-1.2-19.3
					c-0.8-7.5-1.8-14.3-2.8-19.1c-0.2-1.2-0.5-2.3-0.7-3.3c-0.2-1-0.4-1.8-0.6-2.5c-0.1-0.6-0.3-1.1-0.4-1.6
					c-0.1-0.4-0.1-0.5-0.1-0.6c0,0,0.1,0.2,0.2,0.5c0.1,0.4,0.3,0.9,0.5,1.5c0.2,0.7,0.4,1.5,0.6,2.4c0.2,1,0.5,2,0.7,3.3
					c1.1,4.8,2.2,11.6,2.9,19.1c0.8,7.5,1.1,14.4,1.1,19.3c0,2.5-0.1,4.5-0.1,5.9c0,0.6-0.1,1.2-0.1,1.6
					C745.7,539.8,745.7,540,745.7,540z"/>
			</g>
		</g>
		<g>
			<g>
				<path class="st18" d="M745.7,526.8c0,0,0-0.6,0-1.7c0.1-1.1,0.2-2.6,0.5-4.5c0.3-1.9,0.8-4.1,1.5-6.6c0.7-2.4,1.6-5.1,2.8-7.8
					c2.3-5.4,5.4-9.8,8.2-12.5c0.6-0.7,1.3-1.2,1.9-1.8c0.3-0.2,0.6-0.5,0.8-0.7c0.3-0.2,0.5-0.3,0.7-0.5c0.9-0.6,1.4-0.9,1.4-0.9
					c0.1,0.1-2,1.3-4.6,4.1c-2.6,2.8-5.7,7.1-8,12.5c-1.2,2.7-2.1,5.3-2.8,7.7c-0.7,2.4-1.2,4.6-1.6,6.5c-0.4,1.9-0.6,3.4-0.7,4.5
					C745.8,526.2,745.8,526.8,745.7,526.8z"/>
			</g>
		</g>
	</g>
	<g>
		<path class="st19" d="M904.6,254.4c-0.1,0-0.3-10.7-0.3-23.8c0-13.2,0.1-23.8,0.3-23.8s0.3,10.7,0.3,23.8
			C904.8,243.8,904.7,254.4,904.6,254.4z"/>
	</g>
	<g>
		<g>
			<g>
				<rect x="1040.4" y="416.2" class="st19" width="109.1" height="119.7"/>
				<rect x="1024.5" y="440.1" class="st21" width="119.2" height="29.6"/>
				<rect x="1029.8" y="446.2" class="st19" width="23.5" height="3.6"/>
				<rect x="1029.8" y="452.4" class="st19" width="23.5" height="3.6"/>
				<rect x="1029.8" y="458.8" class="st19" width="23.5" height="3.6"/>
				<g>
					<g>
						<path class="st19" d="M1062.6,448.4c0,0.7-0.6,1.3-1.3,1.3s-1.3-0.6-1.3-1.3c0-0.7,0.6-1.3,1.3-1.3S1062.6,447.6,1062.6,448.4
							z"/>
						<path class="st19" d="M1068.5,448.4c0,0.7-0.6,1.3-1.3,1.3c-0.7,0-1.3-0.6-1.3-1.3c0-0.7,0.6-1.3,1.3-1.3
							C1067.9,447,1068.5,447.6,1068.5,448.4z"/>
						<path class="st19" d="M1074.4,448.4c0,0.7-0.6,1.3-1.3,1.3c-0.7,0-1.3-0.6-1.3-1.3c0-0.7,0.6-1.3,1.3-1.3
							C1073.8,447,1074.4,447.6,1074.4,448.4z"/>
						<path class="st19" d="M1080.4,448.4c0,0.7-0.6,1.3-1.3,1.3c-0.7,0-1.3-0.6-1.3-1.3c0-0.7,0.6-1.3,1.3-1.3
							C1079.8,447,1080.4,447.6,1080.4,448.4z"/>
						<path class="st19" d="M1126.4,448.4c0,0.7-0.6,1.3-1.3,1.3s-1.3-0.6-1.3-1.3c0-0.7,0.6-1.3,1.3-1.3S1126.4,447.6,1126.4,448.4
							z"/>
						<path class="st19" d="M1132.5,448.4c0,0.7-0.6,1.3-1.3,1.3s-1.3-0.6-1.3-1.3c0-0.7,0.6-1.3,1.3-1.3S1132.5,447.6,1132.5,448.4
							z"/>
						<path class="st19" d="M1086.3,448.4c0,0.7-0.6,1.3-1.3,1.3s-1.3-0.6-1.3-1.3c0-0.7,0.6-1.3,1.3-1.3S1086.3,447.6,1086.3,448.4
							z"/>
						<path class="st19" d="M1115.5,448.4c0,0.7-0.6,1.3-1.3,1.3s-1.3-0.6-1.3-1.3c0-0.7,0.6-1.3,1.3-1.3S1115.5,447.6,1115.5,448.4
							z"/>
						<path class="st16" d="M1092.3,448.4c0,0.7-0.6,1.3-1.3,1.3s-1.3-0.6-1.3-1.3c0-0.7,0.6-1.3,1.3-1.3S1092.3,447.6,1092.3,448.4
							z"/>
						<path class="st16" d="M1098.2,448.4c0,0.7-0.6,1.3-1.3,1.3s-1.3-0.6-1.3-1.3c0-0.7,0.6-1.3,1.3-1.3S1098.2,447.6,1098.2,448.4
							z"/>
						<path class="st16" d="M1110.3,448.4c0,0.7-0.6,1.3-1.3,1.3c-0.7,0-1.3-0.6-1.3-1.3c0-0.7,0.6-1.3,1.3-1.3
							C1109.7,447,1110.3,447.6,1110.3,448.4z"/>
						<path class="st16" d="M1137.4,448.4c0,0.7-0.6,1.3-1.3,1.3s-1.3-0.6-1.3-1.3c0-0.7,0.6-1.3,1.3-1.3S1137.4,447.6,1137.4,448.4
							z"/>
						<path class="st22" d="M1104.2,448.4c0,0.7-0.6,1.3-1.3,1.3s-1.3-0.6-1.3-1.3c0-0.7,0.6-1.3,1.3-1.3S1104.2,447.6,1104.2,448.4
							z"/>
						<path class="st22" d="M1121.2,448.4c0,0.7-0.6,1.3-1.3,1.3c-0.7,0-1.3-0.6-1.3-1.3c0-0.7,0.6-1.3,1.3-1.3
							C1120.6,447,1121.2,447.6,1121.2,448.4z"/>
					</g>
					<g>
						<path class="st19" d="M1134.7,454.9c0-0.7,0.6-1.3,1.3-1.3s1.3,0.6,1.3,1.3c0,0.7-0.6,1.3-1.3,1.3S1134.7,455.6,1134.7,454.9z
							"/>
						<path class="st19" d="M1128.8,454.9c0-0.7,0.6-1.3,1.3-1.3s1.3,0.6,1.3,1.3c0,0.7-0.6,1.3-1.3,1.3S1128.8,455.6,1128.8,454.9z
							"/>
						<path class="st19" d="M1122.9,454.9c0-0.7,0.6-1.3,1.3-1.3s1.3,0.6,1.3,1.3c0,0.7-0.6,1.3-1.3,1.3S1122.9,455.6,1122.9,454.9z
							"/>
						<path class="st19" d="M1116.9,454.9c0-0.7,0.6-1.3,1.3-1.3s1.3,0.6,1.3,1.3c0,0.7-0.6,1.3-1.3,1.3S1116.9,455.6,1116.9,454.9z
							"/>
						<path class="st19" d="M1070.9,454.9c0-0.7,0.6-1.3,1.3-1.3c0.7,0,1.3,0.6,1.3,1.3c0,0.7-0.6,1.3-1.3,1.3
							C1071.5,456.2,1070.9,455.6,1070.9,454.9z"/>
						<path class="st19" d="M1064.8,454.9c0-0.7,0.6-1.3,1.3-1.3s1.3,0.6,1.3,1.3c0,0.7-0.6,1.3-1.3,1.3S1064.8,455.6,1064.8,454.9z
							"/>
						<path class="st19" d="M1111,454.9c0-0.7,0.6-1.3,1.3-1.3c0.7,0,1.3,0.6,1.3,1.3c0,0.7-0.6,1.3-1.3,1.3
							C1111.6,456.2,1111,455.6,1111,454.9z"/>
						<path class="st19" d="M1081.8,454.9c0-0.7,0.6-1.3,1.3-1.3c0.7,0,1.3,0.6,1.3,1.3c0,0.7-0.6,1.3-1.3,1.3
							C1082.4,456.2,1081.8,455.6,1081.8,454.9z"/>
						<path class="st16" d="M1105,454.9c0-0.7,0.6-1.3,1.3-1.3c0.7,0,1.3,0.6,1.3,1.3c0,0.7-0.6,1.3-1.3,1.3
							C1105.6,456.2,1105,455.6,1105,454.9z"/>
						<path class="st16" d="M1099.1,454.9c0-0.7,0.6-1.3,1.3-1.3c0.7,0,1.3,0.6,1.3,1.3c0,0.7-0.6,1.3-1.3,1.3
							C1099.7,456.2,1099.1,455.6,1099.1,454.9z"/>
						<path class="st16" d="M1087,454.9c0-0.7,0.6-1.3,1.3-1.3s1.3,0.6,1.3,1.3c0,0.7-0.6,1.3-1.3,1.3S1087,455.6,1087,454.9z"/>
						<path class="st16" d="M1059.9,454.9c0-0.7,0.6-1.3,1.3-1.3s1.3,0.6,1.3,1.3c0,0.7-0.6,1.3-1.3,1.3S1059.9,455.6,1059.9,454.9z
							"/>
						<path class="st22" d="M1093.1,454.9c0-0.7,0.6-1.3,1.3-1.3c0.7,0,1.3,0.6,1.3,1.3c0,0.7-0.6,1.3-1.3,1.3
							C1093.7,456.2,1093.1,455.6,1093.1,454.9z"/>
						<path class="st22" d="M1076.1,454.9c0-0.7,0.6-1.3,1.3-1.3s1.3,0.6,1.3,1.3c0,0.7-0.6,1.3-1.3,1.3S1076.1,455.6,1076.1,454.9z
							"/>
					</g>
					<g>
						<circle class="st19" cx="1061.2" cy="460.6" r="1.3"/>
						<circle class="st19" cx="1067.2" cy="460.6" r="1.3"/>
						<circle class="st19" cx="1073.1" cy="460.6" r="1.3"/>
						<circle class="st19" cx="1079" cy="460.6" r="1.3"/>
						<circle class="st19" cx="1125.1" cy="460.6" r="1.3"/>
						<circle class="st19" cx="1131.2" cy="460.6" r="1.3"/>
						<circle class="st19" cx="1085" cy="460.6" r="1.3"/>
						<path class="st19" d="M1115.5,460.6c0,0.7-0.6,1.3-1.3,1.3s-1.3-0.6-1.3-1.3s0.6-1.3,1.3-1.3S1115.5,459.9,1115.5,460.6z"/>
						<circle class="st16" cx="1090.9" cy="460.6" r="1.3"/>
						<path class="st16" d="M1098.2,460.6c0,0.7-0.6,1.3-1.3,1.3s-1.3-0.6-1.3-1.3s0.6-1.3,1.3-1.3S1098.2,459.9,1098.2,460.6z"/>
						<circle class="st16" cx="1108.9" cy="460.6" r="1.3"/>
						<path class="st16" d="M1137.4,460.6c0,0.7-0.6,1.3-1.3,1.3s-1.3-0.6-1.3-1.3s0.6-1.3,1.3-1.3S1137.4,459.9,1137.4,460.6z"/>
						<circle class="st22" cx="1102.8" cy="460.6" r="1.3"/>
						<circle class="st22" cx="1119.8" cy="460.6" r="1.3"/>
					</g>
				</g>
				<rect x="1024.5" y="476.6" class="st21" width="119.2" height="29.6"/>
				<g>
					<g>
						<path class="st19" d="M1062.3,484.6c0,0.7-0.6,1.3-1.3,1.3c-0.7,0-1.3-0.6-1.3-1.3s0.6-1.3,1.3-1.3
							C1061.7,483.2,1062.3,483.8,1062.3,484.6z"/>
						<path class="st19" d="M1068.2,484.6c0,0.7-0.6,1.3-1.3,1.3c-0.7,0-1.3-0.6-1.3-1.3s0.6-1.3,1.3-1.3
							C1067.6,483.2,1068.2,483.8,1068.2,484.6z"/>
						<path class="st19" d="M1074.2,484.6c0,0.7-0.6,1.3-1.3,1.3s-1.3-0.6-1.3-1.3s0.6-1.3,1.3-1.3S1074.2,483.8,1074.2,484.6z"/>
						<path class="st19" d="M1080.1,484.6c0,0.7-0.6,1.3-1.3,1.3s-1.3-0.6-1.3-1.3s0.6-1.3,1.3-1.3S1080.1,483.8,1080.1,484.6z"/>
						<path class="st19" d="M1126.1,484.6c0,0.7-0.6,1.3-1.3,1.3c-0.7,0-1.3-0.6-1.3-1.3s0.6-1.3,1.3-1.3
							C1125.5,483.2,1126.1,483.8,1126.1,484.6z"/>
						<path class="st19" d="M1132.2,484.6c0,0.7-0.6,1.3-1.3,1.3s-1.3-0.6-1.3-1.3s0.6-1.3,1.3-1.3S1132.2,483.8,1132.2,484.6z"/>
						<path class="st19" d="M1086,484.6c0,0.7-0.6,1.3-1.3,1.3s-1.3-0.6-1.3-1.3s0.6-1.3,1.3-1.3S1086,483.8,1086,484.6z"/>
						<path class="st19" d="M1115.2,484.6c0,0.7-0.6,1.3-1.3,1.3s-1.3-0.6-1.3-1.3s0.6-1.3,1.3-1.3S1115.2,483.8,1115.2,484.6z"/>
						<path class="st16" d="M1092,484.6c0,0.7-0.6,1.3-1.3,1.3s-1.3-0.6-1.3-1.3s0.6-1.3,1.3-1.3S1092,483.8,1092,484.6z"/>
						<path class="st16" d="M1097.9,484.6c0,0.7-0.6,1.3-1.3,1.3s-1.3-0.6-1.3-1.3s0.6-1.3,1.3-1.3S1097.9,483.8,1097.9,484.6z"/>
						<path class="st16" d="M1110,484.6c0,0.7-0.6,1.3-1.3,1.3s-1.3-0.6-1.3-1.3s0.6-1.3,1.3-1.3S1110,483.8,1110,484.6z"/>
						<path class="st16" d="M1137.1,484.6c0,0.7-0.6,1.3-1.3,1.3s-1.3-0.6-1.3-1.3s0.6-1.3,1.3-1.3S1137.1,483.8,1137.1,484.6z"/>
						<path class="st22" d="M1103.9,484.6c0,0.7-0.6,1.3-1.3,1.3s-1.3-0.6-1.3-1.3s0.6-1.3,1.3-1.3S1103.9,483.8,1103.9,484.6z"/>
						<path class="st22" d="M1120.9,484.6c0,0.7-0.6,1.3-1.3,1.3s-1.3-0.6-1.3-1.3s0.6-1.3,1.3-1.3S1120.9,483.8,1120.9,484.6z"/>
					</g>
					<g>
						<path class="st19" d="M1134.4,491.1c0-0.7,0.6-1.3,1.3-1.3s1.3,0.6,1.3,1.3c0,0.7-0.6,1.3-1.3,1.3S1134.4,491.8,1134.4,491.1z
							"/>
						<path class="st19" d="M1128.5,491.1c0-0.7,0.6-1.3,1.3-1.3s1.3,0.6,1.3,1.3c0,0.7-0.6,1.3-1.3,1.3S1128.5,491.8,1128.5,491.1z
							"/>
						<path class="st19" d="M1122.6,491.1c0-0.7,0.6-1.3,1.3-1.3c0.7,0,1.3,0.6,1.3,1.3c0,0.7-0.6,1.3-1.3,1.3
							C1123.2,492.4,1122.6,491.8,1122.6,491.1z"/>
						<path class="st19" d="M1116.6,491.1c0-0.7,0.6-1.3,1.3-1.3s1.3,0.6,1.3,1.3c0,0.7-0.6,1.3-1.3,1.3S1116.6,491.8,1116.6,491.1z
							"/>
						<path class="st19" d="M1070.6,491.1c0-0.7,0.6-1.3,1.3-1.3c0.7,0,1.3,0.6,1.3,1.3c0,0.7-0.6,1.3-1.3,1.3
							C1071.2,492.4,1070.6,491.8,1070.6,491.1z"/>
						<path class="st19" d="M1064.5,491.1c0-0.7,0.6-1.3,1.3-1.3s1.3,0.6,1.3,1.3c0,0.7-0.6,1.3-1.3,1.3S1064.5,491.8,1064.5,491.1z
							"/>
						<path class="st19" d="M1110.7,491.1c0-0.7,0.6-1.3,1.3-1.3s1.3,0.6,1.3,1.3c0,0.7-0.6,1.3-1.3,1.3S1110.7,491.8,1110.7,491.1z
							"/>
						<path class="st19" d="M1081.5,491.1c0-0.7,0.6-1.3,1.3-1.3s1.3,0.6,1.3,1.3c0,0.7-0.6,1.3-1.3,1.3S1081.5,491.8,1081.5,491.1z
							"/>
						<path class="st16" d="M1104.7,491.1c0-0.7,0.6-1.3,1.3-1.3s1.3,0.6,1.3,1.3c0,0.7-0.6,1.3-1.3,1.3S1104.7,491.8,1104.7,491.1z
							"/>
						<path class="st16" d="M1098.8,491.1c0-0.7,0.6-1.3,1.3-1.3s1.3,0.6,1.3,1.3c0,0.7-0.6,1.3-1.3,1.3S1098.8,491.8,1098.8,491.1z
							"/>
						<path class="st16" d="M1086.7,491.1c0-0.7,0.6-1.3,1.3-1.3c0.7,0,1.3,0.6,1.3,1.3c0,0.7-0.6,1.3-1.3,1.3
							C1087.3,492.4,1086.7,491.8,1086.7,491.1z"/>
						<path class="st16" d="M1059.6,491.1c0-0.7,0.6-1.3,1.3-1.3c0.7,0,1.3,0.6,1.3,1.3c0,0.7-0.6,1.3-1.3,1.3
							C1060.2,492.4,1059.6,491.8,1059.6,491.1z"/>
						<path class="st22" d="M1092.8,491.1c0-0.7,0.6-1.3,1.3-1.3s1.3,0.6,1.3,1.3c0,0.7-0.6,1.3-1.3,1.3S1092.8,491.8,1092.8,491.1z
							"/>
						<path class="st22" d="M1075.8,491.1c0-0.7,0.6-1.3,1.3-1.3s1.3,0.6,1.3,1.3c0,0.7-0.6,1.3-1.3,1.3S1075.8,491.8,1075.8,491.1z
							"/>
					</g>
					<g>
						<circle class="st19" cx="1060.9" cy="496.8" r="1.3"/>
						<circle class="st19" cx="1066.9" cy="496.8" r="1.3"/>
						<circle class="st19" cx="1072.8" cy="496.8" r="1.3"/>
						<circle class="st19" cx="1078.7" cy="496.8" r="1.3"/>
						<circle class="st19" cx="1124.8" cy="496.8" r="1.3"/>
						<circle class="st19" cx="1130.9" cy="496.8" r="1.3"/>
						<circle class="st19" cx="1084.7" cy="496.8" r="1.3"/>
						<circle class="st19" cx="1113.9" cy="496.8" r="1.3"/>
						<circle class="st16" cx="1090.6" cy="496.8" r="1.3"/>
						<circle class="st16" cx="1096.6" cy="496.8" r="1.3"/>
						<circle class="st16" cx="1108.6" cy="496.8" r="1.3"/>
						<path class="st16" d="M1137.1,496.8c0,0.7-0.6,1.3-1.3,1.3s-1.3-0.6-1.3-1.3c0-0.7,0.6-1.3,1.3-1.3S1137.1,496.1,1137.1,496.8
							z"/>
						<circle class="st22" cx="1102.5" cy="496.8" r="1.3"/>
						<circle class="st22" cx="1119.5" cy="496.8" r="1.3"/>
					</g>
				</g>
				<rect x="1029.8" y="482.7" class="st19" width="23.5" height="3.6"/>
				<rect x="1029.8" y="488.9" class="st19" width="23.5" height="3.6"/>
				<rect x="1029.8" y="495.3" class="st19" width="23.5" height="3.6"/>
				<rect x="1024.5" y="513.1" class="st21" width="119.2" height="29.6"/>
				<rect x="1029.8" y="519.2" class="st19" width="23.5" height="3.6"/>
				<rect x="1029.8" y="525.4" class="st19" width="23.5" height="3.6"/>
				<rect x="1029.8" y="531.8" class="st19" width="23.5" height="3.6"/>
				<g>
					<g>
						<path class="st19" d="M1061.8,521.1c0,0.7-0.6,1.3-1.3,1.3c-0.7,0-1.3-0.6-1.3-1.3c0-0.7,0.6-1.3,1.3-1.3
							C1061.2,519.7,1061.8,520.3,1061.8,521.1z"/>
						<path class="st19" d="M1067.8,521.1c0,0.7-0.6,1.3-1.3,1.3c-0.7,0-1.3-0.6-1.3-1.3c0-0.7,0.6-1.3,1.3-1.3
							C1067.2,519.7,1067.8,520.3,1067.8,521.1z"/>
						<path class="st19" d="M1073.7,521.1c0,0.7-0.6,1.3-1.3,1.3c-0.7,0-1.3-0.6-1.3-1.3c0-0.7,0.6-1.3,1.3-1.3
							C1073.1,519.7,1073.7,520.3,1073.7,521.1z"/>
						<path class="st19" d="M1079.7,521.1c0,0.7-0.6,1.3-1.3,1.3s-1.3-0.6-1.3-1.3c0-0.7,0.6-1.3,1.3-1.3S1079.7,520.3,1079.7,521.1
							z"/>
						<path class="st19" d="M1125.7,521.1c0,0.7-0.6,1.3-1.3,1.3c-0.7,0-1.3-0.6-1.3-1.3c0-0.7,0.6-1.3,1.3-1.3
							C1125.1,519.7,1125.7,520.3,1125.7,521.1z"/>
						<path class="st19" d="M1131.8,521.1c0,0.7-0.6,1.3-1.3,1.3s-1.3-0.6-1.3-1.3c0-0.7,0.6-1.3,1.3-1.3S1131.8,520.3,1131.8,521.1
							z"/>
						<path class="st19" d="M1085.6,521.1c0,0.7-0.6,1.3-1.3,1.3s-1.3-0.6-1.3-1.3c0-0.7,0.6-1.3,1.3-1.3S1085.6,520.3,1085.6,521.1
							z"/>
						<path class="st19" d="M1114.8,521.1c0,0.7-0.6,1.3-1.3,1.3s-1.3-0.6-1.3-1.3c0-0.7,0.6-1.3,1.3-1.3S1114.8,520.3,1114.8,521.1
							z"/>
						<path class="st16" d="M1091.5,521.1c0,0.7-0.6,1.3-1.3,1.3s-1.3-0.6-1.3-1.3c0-0.7,0.6-1.3,1.3-1.3S1091.5,520.3,1091.5,521.1
							z"/>
						<path class="st16" d="M1097.5,521.1c0,0.7-0.6,1.3-1.3,1.3s-1.3-0.6-1.3-1.3c0-0.7,0.6-1.3,1.3-1.3S1097.5,520.3,1097.5,521.1
							z"/>
						<path class="st16" d="M1109.5,521.1c0,0.7-0.6,1.3-1.3,1.3s-1.3-0.6-1.3-1.3c0-0.7,0.6-1.3,1.3-1.3S1109.5,520.3,1109.5,521.1
							z"/>
						<path class="st16" d="M1136.7,521.1c0,0.7-0.6,1.3-1.3,1.3s-1.3-0.6-1.3-1.3c0-0.7,0.6-1.3,1.3-1.3S1136.7,520.3,1136.7,521.1
							z"/>
						<path class="st22" d="M1103.4,521.1c0,0.7-0.6,1.3-1.3,1.3s-1.3-0.6-1.3-1.3c0-0.7,0.6-1.3,1.3-1.3S1103.4,520.3,1103.4,521.1
							z"/>
						<path class="st22" d="M1120.5,521.1c0,0.7-0.6,1.3-1.3,1.3s-1.3-0.6-1.3-1.3c0-0.7,0.6-1.3,1.3-1.3S1120.5,520.3,1120.5,521.1
							z"/>
					</g>
					<g>
						<path class="st19" d="M1134,527.6c0-0.7,0.6-1.3,1.3-1.3s1.3,0.6,1.3,1.3c0,0.7-0.6,1.3-1.3,1.3S1134,528.3,1134,527.6z"/>
						<path class="st19" d="M1128.1,527.6c0-0.7,0.6-1.3,1.3-1.3c0.7,0,1.3,0.6,1.3,1.3c0,0.7-0.6,1.3-1.3,1.3
							C1128.7,528.9,1128.1,528.3,1128.1,527.6z"/>
						<path class="st19" d="M1122.1,527.6c0-0.7,0.6-1.3,1.3-1.3s1.3,0.6,1.3,1.3c0,0.7-0.6,1.3-1.3,1.3S1122.1,528.3,1122.1,527.6z
							"/>
						<path class="st19" d="M1116.2,527.6c0-0.7,0.6-1.3,1.3-1.3s1.3,0.6,1.3,1.3c0,0.7-0.6,1.3-1.3,1.3S1116.2,528.3,1116.2,527.6z
							"/>
						<path class="st19" d="M1070.1,527.6c0-0.7,0.6-1.3,1.3-1.3c0.7,0,1.3,0.6,1.3,1.3c0,0.7-0.6,1.3-1.3,1.3
							C1070.7,528.9,1070.1,528.3,1070.1,527.6z"/>
						<path class="st19" d="M1064.1,527.6c0-0.7,0.6-1.3,1.3-1.3s1.3,0.6,1.3,1.3c0,0.7-0.6,1.3-1.3,1.3S1064.1,528.3,1064.1,527.6z
							"/>
						<path class="st19" d="M1110.2,527.6c0-0.7,0.6-1.3,1.3-1.3s1.3,0.6,1.3,1.3c0,0.7-0.6,1.3-1.3,1.3S1110.2,528.3,1110.2,527.6z
							"/>
						<path class="st19" d="M1081.1,527.6c0-0.7,0.6-1.3,1.3-1.3s1.3,0.6,1.3,1.3c0,0.7-0.6,1.3-1.3,1.3S1081.1,528.3,1081.1,527.6z
							"/>
						<path class="st16" d="M1104.3,527.6c0-0.7,0.6-1.3,1.3-1.3s1.3,0.6,1.3,1.3c0,0.7-0.6,1.3-1.3,1.3S1104.3,528.3,1104.3,527.6z
							"/>
						<path class="st16" d="M1098.4,527.6c0-0.7,0.6-1.3,1.3-1.3s1.3,0.6,1.3,1.3c0,0.7-0.6,1.3-1.3,1.3S1098.4,528.3,1098.4,527.6z
							"/>
						<path class="st16" d="M1086.3,527.6c0-0.7,0.6-1.3,1.3-1.3c0.7,0,1.3,0.6,1.3,1.3c0,0.7-0.6,1.3-1.3,1.3
							C1086.9,528.9,1086.3,528.3,1086.3,527.6z"/>
						<path class="st16" d="M1059.1,527.6c0-0.7,0.6-1.3,1.3-1.3c0.7,0,1.3,0.6,1.3,1.3c0,0.7-0.6,1.3-1.3,1.3
							C1059.7,528.9,1059.1,528.3,1059.1,527.6z"/>
						<path class="st22" d="M1092.4,527.6c0-0.7,0.6-1.3,1.3-1.3c0.7,0,1.3,0.6,1.3,1.3c0,0.7-0.6,1.3-1.3,1.3
							C1093,528.9,1092.4,528.3,1092.4,527.6z"/>
						<path class="st22" d="M1075.4,527.6c0-0.7,0.6-1.3,1.3-1.3s1.3,0.6,1.3,1.3c0,0.7-0.6,1.3-1.3,1.3S1075.4,528.3,1075.4,527.6z
							"/>
					</g>
					<g>
						<path class="st19" d="M1061.8,533.3c0,0.7-0.6,1.3-1.3,1.3c-0.7,0-1.3-0.6-1.3-1.3c0-0.7,0.6-1.3,1.3-1.3
							C1061.2,532,1061.8,532.6,1061.8,533.3z"/>
						<path class="st19" d="M1067.8,533.3c0,0.7-0.6,1.3-1.3,1.3c-0.7,0-1.3-0.6-1.3-1.3c0-0.7,0.6-1.3,1.3-1.3
							C1067.2,532,1067.8,532.6,1067.8,533.3z"/>
						<path class="st19" d="M1073.7,533.3c0,0.7-0.6,1.3-1.3,1.3c-0.7,0-1.3-0.6-1.3-1.3c0-0.7,0.6-1.3,1.3-1.3
							C1073.1,532,1073.7,532.6,1073.7,533.3z"/>
						<path class="st19" d="M1079.7,533.3c0,0.7-0.6,1.3-1.3,1.3s-1.3-0.6-1.3-1.3c0-0.7,0.6-1.3,1.3-1.3S1079.7,532.6,1079.7,533.3
							z"/>
						<path class="st19" d="M1125.7,533.3c0,0.7-0.6,1.3-1.3,1.3c-0.7,0-1.3-0.6-1.3-1.3c0-0.7,0.6-1.3,1.3-1.3
							C1125.1,532,1125.7,532.6,1125.7,533.3z"/>
						<path class="st19" d="M1131.8,533.3c0,0.7-0.6,1.3-1.3,1.3s-1.3-0.6-1.3-1.3c0-0.7,0.6-1.3,1.3-1.3S1131.8,532.6,1131.8,533.3
							z"/>
						<path class="st19" d="M1085.6,533.3c0,0.7-0.6,1.3-1.3,1.3s-1.3-0.6-1.3-1.3c0-0.7,0.6-1.3,1.3-1.3S1085.6,532.6,1085.6,533.3
							z"/>
						<path class="st19" d="M1114.8,533.3c0,0.7-0.6,1.3-1.3,1.3s-1.3-0.6-1.3-1.3c0-0.7,0.6-1.3,1.3-1.3S1114.8,532.6,1114.8,533.3
							z"/>
						<path class="st16" d="M1091.5,533.3c0,0.7-0.6,1.3-1.3,1.3s-1.3-0.6-1.3-1.3c0-0.7,0.6-1.3,1.3-1.3S1091.5,532.6,1091.5,533.3
							z"/>
						<path class="st16" d="M1097.5,533.3c0,0.7-0.6,1.3-1.3,1.3s-1.3-0.6-1.3-1.3c0-0.7,0.6-1.3,1.3-1.3S1097.5,532.6,1097.5,533.3
							z"/>
						<path class="st16" d="M1109.5,533.3c0,0.7-0.6,1.3-1.3,1.3s-1.3-0.6-1.3-1.3c0-0.7,0.6-1.3,1.3-1.3S1109.5,532.6,1109.5,533.3
							z"/>
						<path class="st16" d="M1136.7,533.3c0,0.7-0.6,1.3-1.3,1.3s-1.3-0.6-1.3-1.3c0-0.7,0.6-1.3,1.3-1.3S1136.7,532.6,1136.7,533.3
							z"/>
						<path class="st22" d="M1103.4,533.3c0,0.7-0.6,1.3-1.3,1.3s-1.3-0.6-1.3-1.3c0-0.7,0.6-1.3,1.3-1.3S1103.4,532.6,1103.4,533.3
							z"/>
						<path class="st22" d="M1120.5,533.3c0,0.7-0.6,1.3-1.3,1.3s-1.3-0.6-1.3-1.3c0-0.7,0.6-1.3,1.3-1.3S1120.5,532.6,1120.5,533.3
							z"/>
					</g>
				</g>
			</g>
			<polygon class="st19" points="1161.7,469.6 1143.7,469.7 1143.7,440.1 1161.7,440 			"/>
			<polygon class="st19" points="1161.7,433.7 1143.7,433.7 1143.7,404.1 1161.7,404.1 			"/>
			<polygon class="st19" points="1161.7,505.9 1143.7,505.9 1143.7,476.4 1161.7,476.3 			"/>
			<polygon class="st19" points="1161.7,542.6 1143.7,542.7 1143.7,513.1 1161.7,513.1 			"/>
		</g>
		<rect x="1025.4" y="403.9" class="st21" width="119.2" height="29.6"/>
		<rect x="1030.7" y="409.9" class="st19" width="23.5" height="3.6"/>
		<rect x="1030.7" y="416.2" class="st19" width="23.5" height="3.6"/>
		<rect x="1030.7" y="422.6" class="st19" width="23.5" height="3.6"/>
		<g>
			<g>
				<path class="st19" d="M1063.4,412.1c0,0.7-0.6,1.3-1.3,1.3s-1.3-0.6-1.3-1.3c0-0.7,0.6-1.3,1.3-1.3S1063.4,411.4,1063.4,412.1z"
					/>
				<path class="st19" d="M1069.4,412.1c0,0.7-0.6,1.3-1.3,1.3s-1.3-0.6-1.3-1.3c0-0.7,0.6-1.3,1.3-1.3S1069.4,411.4,1069.4,412.1z"
					/>
				<path class="st19" d="M1075.3,412.1c0,0.7-0.6,1.3-1.3,1.3s-1.3-0.6-1.3-1.3c0-0.7,0.6-1.3,1.3-1.3S1075.3,411.4,1075.3,412.1z"
					/>
				<path class="st19" d="M1081.3,412.1c0,0.7-0.6,1.3-1.3,1.3s-1.3-0.6-1.3-1.3c0-0.7,0.6-1.3,1.3-1.3S1081.3,411.4,1081.3,412.1z"
					/>
				<path class="st19" d="M1127.3,412.1c0,0.7-0.6,1.3-1.3,1.3c-0.7,0-1.3-0.6-1.3-1.3c0-0.7,0.6-1.3,1.3-1.3
					C1126.7,410.8,1127.3,411.4,1127.3,412.1z"/>
				<path class="st19" d="M1133.4,412.1c0,0.7-0.6,1.3-1.3,1.3c-0.7,0-1.3-0.6-1.3-1.3c0-0.7,0.6-1.3,1.3-1.3
					C1132.8,410.8,1133.4,411.4,1133.4,412.1z"/>
				<path class="st19" d="M1087.2,412.1c0,0.7-0.6,1.3-1.3,1.3c-0.7,0-1.3-0.6-1.3-1.3c0-0.7,0.6-1.3,1.3-1.3
					C1086.6,410.8,1087.2,411.4,1087.2,412.1z"/>
				<path class="st19" d="M1116.4,412.1c0,0.7-0.6,1.3-1.3,1.3c-0.7,0-1.3-0.6-1.3-1.3c0-0.7,0.6-1.3,1.3-1.3
					C1115.8,410.8,1116.4,411.4,1116.4,412.1z"/>
				<path class="st16" d="M1093.1,412.1c0,0.7-0.6,1.3-1.3,1.3c-0.7,0-1.3-0.6-1.3-1.3c0-0.7,0.6-1.3,1.3-1.3
					C1092.5,410.8,1093.1,411.4,1093.1,412.1z"/>
				<path class="st16" d="M1099.1,412.1c0,0.7-0.6,1.3-1.3,1.3c-0.7,0-1.3-0.6-1.3-1.3c0-0.7,0.6-1.3,1.3-1.3
					C1098.5,410.8,1099.1,411.4,1099.1,412.1z"/>
				<path class="st16" d="M1111.1,412.1c0,0.7-0.6,1.3-1.3,1.3s-1.3-0.6-1.3-1.3c0-0.7,0.6-1.3,1.3-1.3S1111.1,411.4,1111.1,412.1z"
					/>
				<path class="st16" d="M1138.3,412.1c0,0.7-0.6,1.3-1.3,1.3s-1.3-0.6-1.3-1.3c0-0.7,0.6-1.3,1.3-1.3S1138.3,411.4,1138.3,412.1z"
					/>
				<path class="st22" d="M1105,412.1c0,0.7-0.6,1.3-1.3,1.3c-0.7,0-1.3-0.6-1.3-1.3c0-0.7,0.6-1.3,1.3-1.3
					C1104.4,410.8,1105,411.4,1105,412.1z"/>
				<path class="st22" d="M1122,412.1c0,0.7-0.6,1.3-1.3,1.3s-1.3-0.6-1.3-1.3c0-0.7,0.6-1.3,1.3-1.3S1122,411.4,1122,412.1z"/>
			</g>
			<g>
				<path class="st19" d="M1135.6,418.6c0-0.7,0.6-1.3,1.3-1.3s1.3,0.6,1.3,1.3c0,0.7-0.6,1.3-1.3,1.3S1135.6,419.4,1135.6,418.6z"
					/>
				<path class="st19" d="M1129.7,418.6c0-0.7,0.6-1.3,1.3-1.3s1.3,0.6,1.3,1.3c0,0.7-0.6,1.3-1.3,1.3S1129.7,419.4,1129.7,418.6z"
					/>
				<path class="st19" d="M1123.7,418.6c0-0.7,0.6-1.3,1.3-1.3c0.7,0,1.3,0.6,1.3,1.3c0,0.7-0.6,1.3-1.3,1.3
					C1124.3,420,1123.7,419.4,1123.7,418.6z"/>
				<path class="st19" d="M1117.8,418.6c0-0.7,0.6-1.3,1.3-1.3c0.7,0,1.3,0.6,1.3,1.3c0,0.7-0.6,1.3-1.3,1.3
					C1118.4,420,1117.8,419.4,1117.8,418.6z"/>
				<path class="st19" d="M1071.7,418.6c0-0.7,0.6-1.3,1.3-1.3s1.3,0.6,1.3,1.3c0,0.7-0.6,1.3-1.3,1.3S1071.7,419.4,1071.7,418.6z"
					/>
				<path class="st19" d="M1065.7,418.6c0-0.7,0.6-1.3,1.3-1.3c0.7,0,1.3,0.6,1.3,1.3c0,0.7-0.6,1.3-1.3,1.3
					C1066.3,420,1065.7,419.4,1065.7,418.6z"/>
				<path class="st19" d="M1111.8,418.6c0-0.7,0.6-1.3,1.3-1.3c0.7,0,1.3,0.6,1.3,1.3c0,0.7-0.6,1.3-1.3,1.3
					C1112.4,420,1111.8,419.4,1111.8,418.6z"/>
				<path class="st19" d="M1082.6,418.6c0-0.7,0.6-1.3,1.3-1.3s1.3,0.6,1.3,1.3c0,0.7-0.6,1.3-1.3,1.3S1082.6,419.4,1082.6,418.6z"
					/>
				<path class="st16" d="M1105.9,418.6c0-0.7,0.6-1.3,1.3-1.3s1.3,0.6,1.3,1.3c0,0.7-0.6,1.3-1.3,1.3S1105.9,419.4,1105.9,418.6z"
					/>
				<path class="st16" d="M1099.9,418.6c0-0.7,0.6-1.3,1.3-1.3s1.3,0.6,1.3,1.3c0,0.7-0.6,1.3-1.3,1.3S1099.9,419.4,1099.9,418.6z"
					/>
				<path class="st16" d="M1087.9,418.6c0-0.7,0.6-1.3,1.3-1.3c0.7,0,1.3,0.6,1.3,1.3c0,0.7-0.6,1.3-1.3,1.3
					C1088.5,420,1087.9,419.4,1087.9,418.6z"/>
				<path class="st16" d="M1060.7,418.6c0-0.7,0.6-1.3,1.3-1.3s1.3,0.6,1.3,1.3c0,0.7-0.6,1.3-1.3,1.3S1060.7,419.4,1060.7,418.6z"
					/>
				<path class="st22" d="M1094,418.6c0-0.7,0.6-1.3,1.3-1.3s1.3,0.6,1.3,1.3c0,0.7-0.6,1.3-1.3,1.3S1094,419.4,1094,418.6z"/>
				<path class="st22" d="M1077,418.6c0-0.7,0.6-1.3,1.3-1.3c0.7,0,1.3,0.6,1.3,1.3c0,0.7-0.6,1.3-1.3,1.3
					C1077.6,420,1077,419.4,1077,418.6z"/>
			</g>
			<g>
				<path class="st19" d="M1063.4,424.4c0,0.7-0.6,1.3-1.3,1.3s-1.3-0.6-1.3-1.3c0-0.7,0.6-1.3,1.3-1.3S1063.4,423.6,1063.4,424.4z"
					/>
				<path class="st19" d="M1069.4,424.4c0,0.7-0.6,1.3-1.3,1.3s-1.3-0.6-1.3-1.3c0-0.7,0.6-1.3,1.3-1.3S1069.4,423.6,1069.4,424.4z"
					/>
				<path class="st19" d="M1075.3,424.4c0,0.7-0.6,1.3-1.3,1.3s-1.3-0.6-1.3-1.3c0-0.7,0.6-1.3,1.3-1.3S1075.3,423.6,1075.3,424.4z"
					/>
				<path class="st19" d="M1081.3,424.4c0,0.7-0.6,1.3-1.3,1.3s-1.3-0.6-1.3-1.3c0-0.7,0.6-1.3,1.3-1.3S1081.3,423.6,1081.3,424.4z"
					/>
				<path class="st19" d="M1127.3,424.4c0,0.7-0.6,1.3-1.3,1.3c-0.7,0-1.3-0.6-1.3-1.3c0-0.7,0.6-1.3,1.3-1.3
					C1126.7,423,1127.3,423.6,1127.3,424.4z"/>
				<path class="st19" d="M1133.4,424.4c0,0.7-0.6,1.3-1.3,1.3c-0.7,0-1.3-0.6-1.3-1.3c0-0.7,0.6-1.3,1.3-1.3
					C1132.8,423,1133.4,423.6,1133.4,424.4z"/>
				<path class="st19" d="M1087.2,424.4c0,0.7-0.6,1.3-1.3,1.3c-0.7,0-1.3-0.6-1.3-1.3c0-0.7,0.6-1.3,1.3-1.3
					C1086.6,423,1087.2,423.6,1087.2,424.4z"/>
				<path class="st19" d="M1116.4,424.4c0,0.7-0.6,1.3-1.3,1.3c-0.7,0-1.3-0.6-1.3-1.3c0-0.7,0.6-1.3,1.3-1.3
					C1115.8,423,1116.4,423.6,1116.4,424.4z"/>
				<path class="st16" d="M1093.1,424.4c0,0.7-0.6,1.3-1.3,1.3c-0.7,0-1.3-0.6-1.3-1.3c0-0.7,0.6-1.3,1.3-1.3
					C1092.5,423,1093.1,423.6,1093.1,424.4z"/>
				<path class="st16" d="M1099.1,424.4c0,0.7-0.6,1.3-1.3,1.3c-0.7,0-1.3-0.6-1.3-1.3c0-0.7,0.6-1.3,1.3-1.3
					C1098.5,423,1099.1,423.6,1099.1,424.4z"/>
				<path class="st16" d="M1111.1,424.4c0,0.7-0.6,1.3-1.3,1.3s-1.3-0.6-1.3-1.3c0-0.7,0.6-1.3,1.3-1.3S1111.1,423.6,1111.1,424.4z"
					/>
				<path class="st16" d="M1138.3,424.4c0,0.7-0.6,1.3-1.3,1.3s-1.3-0.6-1.3-1.3c0-0.7,0.6-1.3,1.3-1.3S1138.3,423.6,1138.3,424.4z"
					/>
				<path class="st22" d="M1105,424.4c0,0.7-0.6,1.3-1.3,1.3c-0.7,0-1.3-0.6-1.3-1.3c0-0.7,0.6-1.3,1.3-1.3
					C1104.4,423,1105,423.6,1105,424.4z"/>
				<path class="st22" d="M1122,424.4c0,0.7-0.6,1.3-1.3,1.3s-1.3-0.6-1.3-1.3c0-0.7,0.6-1.3,1.3-1.3S1122,423.6,1122,424.4z"/>
			</g>
		</g>
	</g>
	<g>
		<path class="st19" d="M948.3,191.8c0,0,0.3,0,1,0c0.7,0,1.6,0,2.9,0c2.6,0,6.4,0,11.2,0c9.8,0,23.9,0,41.3-0.1
			c34.9,0,83.1,0,136.4-0.1c3.3,0,6.7,0.4,9.8,1.5c3.1,1.1,6.1,2.7,8.6,4.7c5.1,4.1,8.6,10,9.8,16.2c0.6,3.1,0.5,6.3,0.6,9.3
			c0,3.1,0,6.1,0,9.2c0,6,0,12,0,17.7c0,23.1,0,43.9-0.1,61.3c0,4.4,0,8.5,0,12.4c0,2,0,3.9,0,5.7c0,1.9-0.3,3.7-1,5.3
			c-1.5,3.2-4.4,5.3-7.3,6c-1.5,0.4-2.9,0.3-4.3,0.3c-1.4,0-2.6,0-3.9,0c-4.9,0-8.7,0-11.2,0c-1.3,0-2.3,0-2.9,0c-0.7,0-1,0-1,0
			s0.3,0,1,0c0.7,0,1.6,0,2.9,0c2.6,0,6.4,0,11.2,0c1.2,0,2.5,0,3.9,0c1.4,0,2.8,0,4.2-0.3c2.8-0.7,5.7-2.7,7.1-5.9
			c0.8-1.5,1-3.3,1-5.2c0-1.9,0-3.8,0-5.7c0-3.9,0-8.1,0-12.4c0-17.5,0-38.2-0.1-61.3c0-5.8,0-11.7,0-17.7c0-3,0-6.1,0-9.2
			c0-3.1,0.1-6.2-0.5-9.2c-1.3-6.1-4.7-11.8-9.7-15.9c-2.5-2-5.4-3.6-8.5-4.7c-3.1-1.1-6.4-1.5-9.7-1.5c-53.2,0-101.5-0.1-136.4-0.1
			c-17.4,0-31.6-0.1-41.3-0.1c-4.9,0-8.7,0-11.2,0c-1.3,0-2.3,0-2.9,0C948.7,191.8,948.3,191.8,948.3,191.8z"/>
	</g>
	<g>
		<g>
			<rect x="850.7" y="255.8" class="st14" width="93.5" height="286.4"/>
			<polygon class="st15" points="1018,542.2 944.2,542.2 944.1,255.8 1018,255.8 			"/>
			<g>
				<rect x="855.9" y="301.6" class="st19" width="79.3" height="22.3"/>
				<rect x="858.1" y="304.4" class="st21" width="4.4" height="17.1"/>
				<path class="st0" d="M867.8,308c0,0.8-0.6,1.4-1.4,1.4c-0.8,0-1.4-0.6-1.4-1.4c0-0.8,0.6-1.4,1.4-1.4
					C867.1,306.6,867.8,307.2,867.8,308z"/>
				<path class="st0" d="M867.8,314c0,0.8-0.6,1.4-1.4,1.4c-0.8,0-1.4-0.6-1.4-1.4c0-0.8,0.6-1.4,1.4-1.4
					C867.1,312.6,867.8,313.3,867.8,314z"/>
				<rect x="873.4" y="306.6" class="st21" width="4.4" height="13.1"/>
				<rect x="879.7" y="306.6" class="st21" width="4.4" height="13.1"/>
				<rect x="886" y="306.6" class="st21" width="4.4" height="13.1"/>
				<rect x="892.3" y="306.6" class="st21" width="4.4" height="13.1"/>
				<rect x="898.6" y="306.6" class="st21" width="4.4" height="13.1"/>
				<rect x="904.9" y="306.6" class="st21" width="4.4" height="13.1"/>
				<rect x="911.2" y="306.6" class="st21" width="4.4" height="13.1"/>
				<rect x="917.5" y="306.6" class="st21" width="4.4" height="13.1"/>
				<rect x="923.8" y="306.6" class="st21" width="4.4" height="13.1"/>
				<rect x="930.2" y="306.6" class="st21" width="4.4" height="13.1"/>
			</g>
			<g>
				<rect x="855.9" y="333.7" class="st19" width="79.3" height="22.3"/>
				<rect x="858.1" y="336.5" class="st21" width="4.4" height="17.1"/>
				<path class="st0" d="M867.8,340.1c0,0.8-0.6,1.4-1.4,1.4c-0.8,0-1.4-0.6-1.4-1.4c0-0.8,0.6-1.4,1.4-1.4
					C867.1,338.7,867.8,339.3,867.8,340.1z"/>
				<path class="st0" d="M867.8,346.1c0,0.8-0.6,1.4-1.4,1.4c-0.8,0-1.4-0.6-1.4-1.4c0-0.8,0.6-1.4,1.4-1.4
					C867.1,344.7,867.8,345.3,867.8,346.1z"/>
				<rect x="873.4" y="338.7" class="st21" width="4.4" height="13.1"/>
				<rect x="879.7" y="338.7" class="st21" width="4.4" height="13.1"/>
				<rect x="886" y="338.7" class="st21" width="4.4" height="13.1"/>
				<rect x="892.3" y="338.7" class="st21" width="4.4" height="13.1"/>
				<rect x="898.6" y="338.7" class="st21" width="4.4" height="13.1"/>
				<rect x="904.9" y="338.7" class="st21" width="4.4" height="13.1"/>
				<rect x="911.2" y="338.7" class="st21" width="4.4" height="13.1"/>
				<rect x="917.5" y="338.7" class="st21" width="4.4" height="13.1"/>
				<rect x="923.8" y="338.7" class="st21" width="4.4" height="13.1"/>
				<rect x="930.2" y="338.7" class="st21" width="4.4" height="13.1"/>
			</g>
			<g>
				<rect x="855.9" y="366" class="st19" width="79.3" height="22.3"/>
				<rect x="858.1" y="368.8" class="st21" width="4.4" height="17.1"/>
				<path class="st0" d="M867.8,372.4c0,0.8-0.6,1.4-1.4,1.4c-0.8,0-1.4-0.6-1.4-1.4c0-0.8,0.6-1.4,1.4-1.4
					C867.1,371,867.8,371.6,867.8,372.4z"/>
				<path class="st0" d="M867.8,378.4c0,0.8-0.6,1.4-1.4,1.4c-0.8,0-1.4-0.6-1.4-1.4c0-0.8,0.6-1.4,1.4-1.4
					C867.1,377,867.8,377.7,867.8,378.4z"/>
				<rect x="873.4" y="371" class="st21" width="4.4" height="13.1"/>
				<rect x="879.7" y="371" class="st21" width="4.4" height="13.1"/>
				<rect x="886" y="371" class="st21" width="4.4" height="13.1"/>
				<rect x="892.3" y="371" class="st21" width="4.4" height="13.1"/>
				<rect x="898.6" y="371" class="st21" width="4.4" height="13.1"/>
				<rect x="904.9" y="371" class="st21" width="4.4" height="13.1"/>
				<rect x="911.2" y="371" class="st21" width="4.4" height="13.1"/>
				<rect x="917.5" y="371" class="st21" width="4.4" height="13.1"/>
				<rect x="923.8" y="371" class="st21" width="4.4" height="13.1"/>
				<rect x="930.2" y="371" class="st21" width="4.4" height="13.1"/>
			</g>
			<g>
				<rect x="855.9" y="400.9" class="st19" width="79.3" height="22.3"/>
				<rect x="858.1" y="403.7" class="st21" width="4.4" height="17.1"/>
				<path class="st0" d="M867.8,407.3c0,0.8-0.6,1.4-1.4,1.4c-0.8,0-1.4-0.6-1.4-1.4c0-0.8,0.6-1.4,1.4-1.4
					C867.1,405.9,867.8,406.5,867.8,407.3z"/>
				<path class="st0" d="M867.8,413.4c0,0.8-0.6,1.4-1.4,1.4c-0.8,0-1.4-0.6-1.4-1.4s0.6-1.4,1.4-1.4
					C867.1,412,867.8,412.6,867.8,413.4z"/>
				<rect x="873.4" y="405.9" class="st21" width="4.4" height="13.1"/>
				<rect x="879.7" y="405.9" class="st21" width="4.4" height="13.1"/>
				<rect x="886" y="405.9" class="st21" width="4.4" height="13.1"/>
				<rect x="892.3" y="405.9" class="st21" width="4.4" height="13.1"/>
				<rect x="898.6" y="405.9" class="st21" width="4.4" height="13.1"/>
				<rect x="904.9" y="405.9" class="st21" width="4.4" height="13.1"/>
				<rect x="911.2" y="405.9" class="st21" width="4.4" height="13.1"/>
				<rect x="917.5" y="405.9" class="st21" width="4.4" height="13.1"/>
				<rect x="923.8" y="405.9" class="st21" width="4.4" height="13.1"/>
				<rect x="930.2" y="405.9" class="st21" width="4.4" height="13.1"/>
			</g>
			<g>
				<rect x="855.9" y="436.2" class="st19" width="79.3" height="22.3"/>
				<rect x="858.1" y="439" class="st21" width="4.4" height="17.1"/>
				<path class="st0" d="M867.8,442.6c0,0.8-0.6,1.4-1.4,1.4c-0.8,0-1.4-0.6-1.4-1.4c0-0.8,0.6-1.4,1.4-1.4
					C867.1,441.2,867.8,441.8,867.8,442.6z"/>
				<path class="st0" d="M867.8,448.6c0,0.8-0.6,1.4-1.4,1.4c-0.8,0-1.4-0.6-1.4-1.4c0-0.8,0.6-1.4,1.4-1.4
					C867.1,447.2,867.8,447.9,867.8,448.6z"/>
				<rect x="873.4" y="441.2" class="st21" width="4.4" height="13.1"/>
				<rect x="879.7" y="441.2" class="st21" width="4.4" height="13.1"/>
				<rect x="886" y="441.2" class="st21" width="4.4" height="13.1"/>
				<rect x="892.3" y="441.2" class="st21" width="4.4" height="13.1"/>
				<rect x="898.6" y="441.2" class="st21" width="4.4" height="13.1"/>
				<rect x="904.9" y="441.2" class="st21" width="4.4" height="13.1"/>
				<rect x="911.2" y="441.2" class="st21" width="4.4" height="13.1"/>
				<rect x="917.5" y="441.2" class="st21" width="4.4" height="13.1"/>
				<rect x="923.8" y="441.2" class="st21" width="4.4" height="13.1"/>
				<rect x="930.2" y="441.2" class="st21" width="4.4" height="13.1"/>
			</g>
			<g>
				<rect x="855.9" y="506.4" class="st19" width="79.3" height="22.3"/>
				<rect x="858.1" y="509.2" class="st21" width="4.4" height="17.1"/>
				<path class="st0" d="M867.8,512.8c0,0.8-0.6,1.4-1.4,1.4c-0.8,0-1.4-0.6-1.4-1.4c0-0.8,0.6-1.4,1.4-1.4
					C867.1,511.4,867.8,512,867.8,512.8z"/>
				<path class="st0" d="M867.8,518.8c0,0.8-0.6,1.4-1.4,1.4c-0.8,0-1.4-0.6-1.4-1.4c0-0.8,0.6-1.4,1.4-1.4
					C867.1,517.4,867.8,518.1,867.8,518.8z"/>
				<rect x="873.4" y="511.4" class="st21" width="4.4" height="13.1"/>
				<rect x="879.7" y="511.4" class="st21" width="4.4" height="13.1"/>
				<rect x="886" y="511.4" class="st21" width="4.4" height="13.1"/>
				<rect x="892.3" y="511.4" class="st21" width="4.4" height="13.1"/>
				<rect x="898.6" y="511.4" class="st21" width="4.4" height="13.1"/>
				<rect x="904.9" y="511.4" class="st21" width="4.4" height="13.1"/>
				<rect x="911.2" y="511.4" class="st21" width="4.4" height="13.1"/>
				<rect x="917.5" y="511.4" class="st21" width="4.4" height="13.1"/>
				<rect x="923.8" y="511.4" class="st21" width="4.4" height="13.1"/>
				<rect x="930.2" y="511.4" class="st21" width="4.4" height="13.1"/>
			</g>
			<g>
				<rect x="855.9" y="471.3" class="st19" width="79.3" height="22.3"/>
				<rect x="858.1" y="474.1" class="st21" width="4.4" height="17.1"/>
				<path class="st0" d="M867.8,477.7c0,0.8-0.6,1.4-1.4,1.4c-0.8,0-1.4-0.6-1.4-1.4c0-0.8,0.6-1.4,1.4-1.4
					C867.1,476.3,867.8,477,867.8,477.7z"/>
				<path class="st0" d="M867.8,483.8c0,0.8-0.6,1.4-1.4,1.4c-0.8,0-1.4-0.6-1.4-1.4c0-0.8,0.6-1.4,1.4-1.4
					C867.1,482.4,867.8,483,867.8,483.8z"/>
				<rect x="873.4" y="476.3" class="st21" width="4.4" height="13.1"/>
				<rect x="879.7" y="476.3" class="st21" width="4.4" height="13.1"/>
				<rect x="886" y="476.3" class="st21" width="4.4" height="13.1"/>
				<rect x="892.3" y="476.3" class="st21" width="4.4" height="13.1"/>
				<rect x="898.6" y="476.3" class="st21" width="4.4" height="13.1"/>
				<rect x="904.9" y="476.3" class="st21" width="4.4" height="13.1"/>
				<rect x="911.2" y="476.3" class="st21" width="4.4" height="13.1"/>
				<rect x="917.5" y="476.3" class="st21" width="4.4" height="13.1"/>
				<rect x="923.8" y="476.3" class="st21" width="4.4" height="13.1"/>
				<rect x="930.2" y="476.3" class="st21" width="4.4" height="13.1"/>
			</g>
			<g>
				<path class="st19" d="M904.9,301.6c0,0,0-0.2-0.1-0.7c0-0.5-0.1-1.1-0.1-2c0-0.9,0-1.9-0.1-3.1c-0.1-1.2-0.2-2.6-0.5-4.1
					c-0.4-1.5-1.1-3-2.1-4.5c-1-1.5-2.5-2.8-4.3-3.5c-1.8-0.8-4-1.1-6.2-1.3c-2.2-0.2-4.5-0.4-6.8-0.6c-9.4-0.8-17.9-1.3-24-1.4
					c-3.1-0.1-5.6,0-7.3,0c-0.8,0-1.5,0-2,0c-0.5,0-0.7,0-0.7,0c0,0,0.2,0,0.7-0.1c0.5,0,1.2-0.1,2-0.1c1.7-0.1,4.2-0.1,7.3-0.1
					c6.2,0,14.7,0.5,24,1.3c2.3,0.2,4.6,0.4,6.8,0.6c2.2,0.2,4.4,0.5,6.3,1.3c1.9,0.8,3.5,2.2,4.5,3.7c1.1,1.5,1.7,3.1,2.1,4.6
					c0.4,1.5,0.4,2.9,0.5,4.2c0,1.2,0,2.3,0,3.1c0,0.8,0,1.5,0,2C905,301.4,905,301.6,904.9,301.6z"/>
			</g>
			<g>
				<path class="st19" d="M880.9,301.6c0,0,0-0.2,0-0.7c0-0.5,0-1.1,0-1.9c0-0.8,0-1.8-0.1-2.9c-0.1-1.1-0.3-2.4-1-3.7
					c-0.7-1.2-2-2.1-3.6-2.8c-1.5-0.6-3.4-0.8-5.2-0.5c-0.9,0.2-1.8,0.5-2.7,0.9c-0.8,0.5-1.6,1.1-2.1,2c-0.5,0.9-0.5,1.9,0,2.8
					c0.5,0.9,1.4,1.6,2.4,1.8c1,0.2,2.1-0.1,2.8-0.8c0.7-0.7,1.2-1.7,1.2-2.7c0.1-1-0.3-1.9-0.8-2.7c-0.6-0.8-1.3-1.4-2.1-1.9
					c-0.8-0.5-1.7-0.5-2.6-0.7c-0.9-0.1-1.8-0.2-2.6-0.3c-1.7-0.2-3.3-0.3-4.7-0.4c-2.9-0.1-5.2-0.1-6.9-0.1c-0.8,0-1.4,0-1.9,0
					c-0.4,0-0.7,0-0.7,0c0,0,0.2,0,0.6-0.1c0.5,0,1.1-0.1,1.9-0.1c1.6-0.1,4-0.2,6.9-0.1c1.5,0,3,0.1,4.7,0.3
					c0.9,0.1,1.7,0.2,2.6,0.3c0.5,0.1,0.9,0.1,1.4,0.2c0.5,0.1,1,0.3,1.4,0.5c0.9,0.5,1.7,1.1,2.3,2c0.6,0.8,1,1.9,0.9,3
					c-0.1,1.1-0.6,2.2-1.4,3c-0.8,0.8-2.1,1.2-3.2,0.9c-1.2-0.3-2.1-1-2.7-2c-0.6-1-0.6-2.3,0-3.3c0.5-1,1.4-1.7,2.3-2.2
					c0.9-0.5,1.9-0.8,2.9-1c1.9-0.3,3.8,0,5.5,0.6c1.6,0.7,3,1.6,3.7,3c0.7,1.3,0.9,2.7,0.9,3.8c0.1,1.2,0,2.2,0,3
					c0,0.8-0.1,1.4-0.1,1.9C880.9,301.4,880.9,301.6,880.9,301.6z"/>
			</g>
			<g>
				<path class="st19" d="M911.4,301.6c0,0-0.1-0.3-0.2-0.7c-0.1-0.5-0.2-1.2-0.4-2.1c-0.4-1.8-1-4.5-2.3-7.6
					c-1.3-3.1-3.4-6.6-6.9-9.3c-1.7-1.4-4-2.1-6.3-2.4c-2.4-0.3-4.9-0.3-7.4-0.4c-10.2-0.2-19.5-0.2-26.3-0.4
					c-3.4-0.1-6.1-0.3-8-0.4c-0.9-0.1-1.6-0.1-2.2-0.2c-0.5,0-0.8-0.1-0.7-0.1c0,0,0.3,0,0.8,0c0.5,0,1.3,0,2.2,0.1
					c1.9,0.1,4.6,0.2,8,0.2c6.7,0.2,16,0.1,26.3,0.3c2.6,0.1,5.1,0.1,7.5,0.4c2.4,0.3,4.8,1.1,6.5,2.5c1.8,1.4,3.3,3,4.4,4.6
					c1.1,1.7,1.9,3.3,2.6,4.9c1.3,3.1,1.9,5.8,2.2,7.7c0.2,0.9,0.3,1.7,0.3,2.1C911.4,301.3,911.4,301.6,911.4,301.6z"/>
			</g>
			<rect x="857" y="259.3" class="st19" width="77.1" height="11.2"/>
			<rect x="873.9" y="264.9" class="st21" width="42" height="5.6"/>
			<g>
				<g>
					<path class="st19" d="M965.6,491.5c0,0.1-0.9,0.1-2.3,0.6c-1.5,0.4-3.6,1.3-5.8,2.9c-1.1,0.8-2.3,1.8-3.3,3
						c-0.5,0.6-1,1.3-1.3,2.1c-0.4,0.8-0.6,1.6-0.8,2.5c-0.9,3.5-0.6,7.6-0.4,11.8c0.2,4.2-0.1,8.4-1.8,11.8
						c-0.8,1.7-1.9,3.1-3.1,4.2c-1.2,1.1-2.6,1.9-3.9,2.5c-1.3,0.6-2.5,0.9-3.6,1.1c-1.1,0.2-2.1,0.2-2.8,0.1
						c-0.8-0.1-1.4-0.2-1.8-0.3c-0.4-0.1-0.6-0.2-0.6-0.2c0-0.1,0.8,0.2,2.4,0.3c0.8,0,1.7,0,2.8-0.2c1.1-0.2,2.3-0.6,3.5-1.1
						c1.2-0.6,2.5-1.4,3.7-2.4c1.2-1.1,2.2-2.5,3-4.1c1.6-3.3,1.9-7.4,1.7-11.6c-0.2-4.2-0.4-8.3,0.5-11.9c0.2-0.9,0.5-1.8,0.9-2.6
						c0.4-0.8,0.9-1.5,1.4-2.1c1.1-1.3,2.2-2.3,3.4-3.1c2.3-1.6,4.5-2.4,6-2.8c0.8-0.2,1.4-0.3,1.8-0.3
						C965.4,491.5,965.6,491.5,965.6,491.5z"/>
				</g>
				<rect x="930" y="530.1" class="st19" width="6.3" height="7.7"/>
				<g>
					<rect x="965.6" y="472.1" class="st21" width="35.5" height="38.9"/>
					
						<ellipse transform="matrix(0.2158 -0.9764 0.9764 0.2158 291.0021 1345.7039)" class="st19" cx="983.3" cy="491.7" rx="11.7" ry="11.7"/>
					<path class="st21" d="M989.2,491.7c0,3.2-2.6,5.8-5.8,5.8s-5.8-2.6-5.8-5.8s2.6-5.8,5.8-5.8S989.2,488.4,989.2,491.7z"/>
					<circle class="st19" cx="970.4" cy="478.1" r="1.1"/>
					<circle class="st19" cx="995.6" cy="478.1" r="1.1"/>
					<path class="st19" d="M997,506.8c0,0.6-0.5,1.1-1.1,1.1c-0.6,0-1.1-0.5-1.1-1.1c0-0.6,0.5-1.1,1.1-1.1
						C996.5,505.8,997,506.2,997,506.8z"/>
					<circle class="st19" cx="970.4" cy="507.3" r="1.1"/>
					<rect x="1001.1" y="472.1" class="st19" width="2.9" height="38.9"/>
				</g>
			</g>
		</g>
	</g>
	<g>
		<path class="st23" d="M957.9,212.6c3.5-8.2,1.4-16.7-4.4-23.5c-5.8-6.8-15.5-9.9-24.1-7.8c-1.5-8.6-7.5-16.3-15.5-19.9
			c-8-3.6-17.7-2.9-25.2,1.6c-7.5,4.6-12.4,13-12.8,21.7c-5.9,1-11.3,4.8-14.3,10c-2.9,5.2-3.4,11.8-1.2,17.4L957.9,212.6z"/>
	</g>
	<g>
		<path class="st19" d="M1159.6,421.5c0,0,0.1,0,0.3,0c0.3,0,0.6,0,1,0c0.9,0,2.2,0,3.9,0c1.7,0,3.8-0.1,6.1-0.7
			c2.3-0.6,4.8-1.8,7.1-3.7c2.3-2,4.4-4.6,5.5-7.9c0.3-0.8,0.5-1.7,0.7-2.6c0.1-0.9,0.3-1.8,0.3-2.7c0.1-1.9,0-3.8,0-5.8
			c0-8,0-16.8,0-26c0-2.3,0-4.6,0-6.8c0-1.1,0-2.2-0.1-3.3c-0.1-1.1-0.4-2.1-0.7-3.1c-1.4-4.1-4.6-7.2-8.2-8.8
			c-3.6-1.7-7.6-1.1-11.1-1.3c-3.6,0-6.9-0.1-9.9-0.1c-6-0.1-10.9-0.1-14.3-0.2c-1.7,0-3-0.1-3.9-0.1c-0.4,0-0.8,0-1,0
			c-0.2,0-0.3,0-0.3,0c0,0,0.1,0,0.3,0c0.3,0,0.6,0,1,0c0.9,0,2.2,0,3.9,0c3.4,0,8.3,0,14.3,0c3,0,6.3,0,9.9,0c1.8,0,3.6,0,5.5,0
			c1.9,0,3.9,0.4,5.8,1.2c3.7,1.6,7,4.8,8.5,9c0.4,1,0.6,2.1,0.8,3.2c0.1,1.1,0.1,2.3,0.1,3.4c0,2.2,0,4.5,0,6.8c0,9.2,0,18,0,26
			c0,2,0,3.9-0.1,5.9c0,1-0.2,1.9-0.4,2.8c-0.2,0.9-0.4,1.8-0.8,2.6c-1.2,3.4-3.4,6.1-5.7,8.1c-2.4,2-4.9,3.1-7.3,3.7
			c-2.3,0.6-4.5,0.7-6.1,0.6c-1.7,0-3,0-3.9,0c-0.4,0-0.8,0-1,0C1159.7,421.5,1159.6,421.5,1159.6,421.5z"/>
	</g>
	<polygon class="st0" points="901.5,212.3 901.5,198.6 894.6,198.6 904.9,184 915.3,198.5 908.5,198.5 908.5,212.3 	"/>
	<g>
		<g>
			<polygon class="st15" points="1136.8,390.1 1144.1,399.7 1158,393.5 1149.1,379.3 			"/>
			<polygon class="st21" points="1141.1,391.3 1141.3,396 1145.9,398.2 1145.7,393.3 			"/>
			<polygon class="st21" points="1145.5,388.6 1145.7,393.4 1150.3,395.5 1150,390.7 			"/>
			<polygon class="st21" points="1149.9,386 1150.1,390.7 1154.7,392.9 1154.5,388 			"/>
			<g>
				<g>
					<g>
						<g>
							<g>
								<g>
									<g>
										<path class="st22" d="M1158.5,393.3l-1.6-2.4l-13.6,8.6l3.2,5.4l0.9-0.4c4-2,20-10.5,22.1-12.8
											C1171.9,389.1,1158.5,393.3,1158.5,393.3z"/>
									</g>
								</g>
							</g>
							<g class="st24">
								<g>
									<g>
										<path class="st0" d="M1151.5,401.9c-0.9-1-2.1-1.9-3.5-2.1c-1.4-0.2-2.4-0.1-4,1l2.3,3.9L1151.5,401.9z"/>
									</g>
								</g>
							</g>
						</g>
						<g>
							<g>
								<g>
									<path class="st25" d="M1165.2,391.5c0,0,4.8-1.2,4.7-0.2c-0.1,1-16,10.2-23.4,13.7l-0.2-0.3L1165,394
										C1165,394,1164.4,392,1165.2,391.5z"/>
								</g>
							</g>
						</g>
						<g>
							<g>
								<g>
									<g>
										<path class="st19" d="M1146.1,404.7c0,0,0.1,0,0.3-0.1c0.2-0.1,0.4-0.2,0.7-0.4c0.7-0.4,1.6-0.8,2.6-1.4
											c2.2-1.2,5.2-2.8,8.4-4.7c3.3-1.9,6.2-3.7,8.3-5c1-0.6,1.8-1.1,2.5-1.6c0.2-0.2,0.5-0.3,0.7-0.4c0.2-0.1,0.2-0.2,0.2-0.2
											c0,0-0.1,0-0.2,0.1c-0.2,0.1-0.4,0.3-0.7,0.4c-0.7,0.4-1.5,0.9-2.5,1.5c-2.1,1.3-5,3-8.3,4.9c-3.3,1.9-6.2,3.6-8.4,4.7
											c-1,0.6-1.9,1-2.6,1.4c-0.3,0.1-0.5,0.3-0.7,0.4C1146.2,404.7,1146.1,404.7,1146.1,404.7z"/>
									</g>
								</g>
							</g>
						</g>
						<g>
							<g>
								<g>
									<g>
										<path class="st19" d="M1165.1,394.2c0.1,0-0.3-0.7-0.2-1.5c0-0.8,0.4-1.4,0.3-1.5c0,0-0.5,0.6-0.5,1.5
											C1164.7,393.6,1165.1,394.3,1165.1,394.2z"/>
									</g>
								</g>
							</g>
						</g>
						<g>
							<g>
								<g>
									<g>
										<path class="st19" d="M1159.8,394.5c0.1,0,0.1-0.4,0.1-0.8c0-0.4,0-0.8-0.1-0.8c-0.1,0-0.1,0.4-0.1,0.8
											C1159.7,394.2,1159.7,394.5,1159.8,394.5z"/>
									</g>
								</g>
							</g>
						</g>
						<g>
							<g>
								<g>
									<g>
										<path class="st19" d="M1158.3,394.6c0.1,0,0.2-0.3,0.3-0.6c0.1-0.4,0.2-0.7,0.1-0.7c-0.1,0-0.2,0.3-0.3,0.6
											C1158.3,394.3,1158.3,394.6,1158.3,394.6z"/>
									</g>
								</g>
							</g>
						</g>
						<g>
							<g>
								<g>
									<g>
										<path class="st19" d="M1156.8,393.7c0,0,0.4-0.1,0.8-0.3s0.7-0.5,0.7-0.5c0,0-0.4,0.1-0.8,0.3
											C1157.1,393.4,1156.8,393.6,1156.8,393.7z"/>
									</g>
								</g>
							</g>
						</g>
						<g>
							<g>
								<g>
									<g>
										<path class="st19" d="M1156.1,392.9c0,0.1,0.5,0,0.9-0.2c0.5-0.2,0.8-0.6,0.8-0.6c0,0-0.4,0.2-0.9,0.4
											C1156.5,392.7,1156.1,392.8,1156.1,392.9z"/>
									</g>
								</g>
							</g>
						</g>
						<g>
							<g>
								<g>
									<g>
										<path class="st19" d="M1159.6,393c0,0,0.4-0.1,0.9-0.5c0.3-0.2,0.5-0.4,0.8-0.8c0.1-0.2,0.3-0.3,0.4-0.5
											c0.1-0.1,0.1-0.3,0.1-0.4c0-0.2-0.2-0.3-0.3-0.3c-1.1,0.1-1.7,1-1.7,1.7c0,0.3,0,0.6,0.1,0.8c0.1,0.2,0.1,0.3,0.1,0.3
											c0,0-0.1-0.4,0-1c0.1-0.3,0.2-0.6,0.5-0.9c0.3-0.3,0.7-0.6,1.1-0.5c0.2,0,0.2,0.2,0.1,0.4c-0.1,0.2-0.2,0.3-0.4,0.5
											c-0.3,0.3-0.5,0.6-0.8,0.8C1159.9,392.8,1159.5,393,1159.6,393z"/>
									</g>
								</g>
							</g>
						</g>
						<g>
							<g>
								<g>
									<g>
										<path class="st19" d="M1159.8,392.9c0,0,0-0.3-0.3-0.7c-0.1-0.2-0.3-0.4-0.6-0.5c-0.3-0.1-0.6-0.3-1,0
											c-0.2,0.1-0.2,0.4,0,0.6c0.1,0.1,0.3,0.2,0.4,0.3c0.3,0.1,0.5,0.2,0.7,0.3C1159.5,393,1159.7,393,1159.8,392.9
											c-0.1,0-0.4,0-0.8-0.2c-0.2-0.1-0.4-0.2-0.7-0.3c-0.2-0.1-0.5-0.4-0.3-0.6c0.2-0.2,0.6-0.1,0.8,0c0.3,0.1,0.5,0.3,0.6,0.4
											C1159.7,392.7,1159.8,393,1159.8,392.9z"/>
									</g>
								</g>
							</g>
						</g>
						<g>
							<g>
								<g>
									<g>
										<path class="st19" d="M1144.2,400.8c0,0,0.4-0.3,1-0.6c0.7-0.3,1.7-0.5,2.8-0.4c1.1,0.2,2,0.7,2.6,1.2
											c0.6,0.5,0.8,0.9,0.8,0.8c0,0,0-0.1-0.2-0.3c-0.1-0.2-0.3-0.4-0.6-0.7c-0.5-0.5-1.5-1.1-2.6-1.3c-1.1-0.2-2.2,0.1-2.9,0.4
											c-0.3,0.2-0.6,0.3-0.8,0.5C1144.3,400.7,1144.2,400.7,1144.2,400.8z"/>
									</g>
								</g>
							</g>
						</g>
						<g>
							<g>
								<g>
									<g>
										<path class="st19" d="M1152.5,399.5c0,0,1-0.3,2.1-1c1.1-0.6,2-1.3,1.9-1.3c0,0-0.9,0.5-2,1.2
											C1153.4,399,1152.4,399.5,1152.5,399.5z"/>
									</g>
								</g>
							</g>
						</g>
						<g>
							<g>
								<g>
									<g>
										<path class="st19" d="M1149.7,401.1c0,0.1,0.2,0.1,0.4,0.3c0.2,0.2,0.4,0.3,0.4,0.3c0,0-0.1-0.3-0.3-0.4
											C1150,401.1,1149.7,401,1149.7,401.1z"/>
									</g>
								</g>
							</g>
						</g>
						<g>
							<g>
								<g>
									<g>
										<path class="st19" d="M1148,400.4c0,0.1,0.2,0.1,0.4,0.2c0.2,0.1,0.4,0.1,0.4,0c0-0.1-0.2-0.1-0.4-0.2
											C1148.2,400.4,1148,400.4,1148,400.4z"/>
									</g>
								</g>
							</g>
						</g>
						<g>
							<g>
								<g>
									<g>
										<path class="st19" d="M1146.2,400.7c0,0,0.2-0.1,0.5-0.1c0.2-0.1,0.5,0,0.5-0.1c0,0-0.2-0.2-0.5-0.1
											C1146.3,400.4,1146.1,400.6,1146.2,400.7z"/>
									</g>
								</g>
							</g>
						</g>
						<g>
							<g>
								<g>
									<g>
										<path class="st19" d="M1144.9,401c0,0.1,0.1,0.1,0.3,0.1c0.1,0,0.2-0.1,0.2-0.1c0-0.1-0.1-0.1-0.3-0.1
											C1145,400.9,1144.9,401,1144.9,401z"/>
									</g>
								</g>
							</g>
						</g>
					</g>
				</g>
			</g>
		</g>
		<g>
			<path class="st19" d="M1044.4,383.1l54.4-51.3c3.4-3.4,8-5.4,12.8-5.4l0,0c6.4,0,12.3,3.4,15.5,9l27.8,47.8l-17.7,10.2
				l-26.8-34.1l-26.9,24.3L1044.4,383.1z"/>
			<path class="st19" d="M1028.4,385.7c-0.2,0.7-1.8,18.2,21.7,18.2h62.9c8,0,14.4-6.5,14.4-14.4l0,0c0-8-6.5-14.4-14.4-14.4h-58.5
				c-2.1,0-4.2,0.5-6.1,1.3L1028.4,385.7z"/>
			<g>
				<path class="st21" d="M1118.5,375.1c0,0.1-13,0.3-29,0.3c-16,0-29-0.1-29-0.3c0-0.1,13-0.3,29-0.3
					C1105.6,374.8,1118.5,374.9,1118.5,375.1z"/>
			</g>
			<g>
				<path class="st21" d="M1108.8,347.3c0.2,0,0.2,2.7,0.7,6c0.5,3.3,1.3,5.9,1.1,6c-0.1,0-1.1-2.5-1.6-5.9
					C1108.5,350.1,1108.7,347.3,1108.8,347.3z"/>
			</g>
			<g>
				<path class="st21" d="M1111.5,346.9c0.1,0,0.3,2.8,0,6.2c-0.3,3.4-0.9,6.1-1,6.1c-0.1,0,0.2-2.8,0.5-6.1
					C1111.3,349.7,1111.4,346.9,1111.5,346.9z"/>
			</g>
		</g>
		<g>
			<g>
				<g>
					<g>
						<path class="st19" d="M1062.8,269.8c0.1,0.7-0.3,1.4-0.9,1.8c-0.6,0.3-1.5,0.3-2-0.2c-1.1-0.8-0.9-2.5-0.4-3.8
							c0.5-1.3,1.2-2.6,0.9-3.9c-0.2-1-1-1.8-1.6-2.6c-1-1.5-1.3-3.5-0.6-5.2c0.6-1.7,2.3-3,4.1-3.2c1.8-0.1,3.9,0.8,5.4-0.2
							c1.1-0.7,1.5-2.2,2.4-3.2c1.5-1.5,3.9-1.3,5.9-0.6c2,0.7,3.9,1.7,6,1.6c1.7-0.1,3.3-1,5-1.4c3.7-0.9,7.8,0.8,9.8,4
							c2,3.2,1.8,7.6-0.6,10.6c-0.8,1.1-2.7,4.2-6.5,3.4"/>
					</g>
					<g>
						<g>
							<g>
								<g>
									<path class="st26" d="M1064.9,255.4l-0.5,2.7l-7.9,40.8c-0.9,4.7,2.4,9.3,7.5,10.2v0c5.1,1,10.1-2.1,11.1-6.9
										c1.1-5,2.3-10.2,2.3-10.2s6.7,0.3,9.8-7.9c1.5-4,2.7-10.9,3.6-16.6c0.7-5.1-2.9-9.8-8.1-10.3L1064.9,255.4z"/>
								</g>
								<g>
									<g>
										<path class="st19" d="M1086.9,271.6c-0.1,0.6-0.7,1-1.3,0.9c-0.6-0.1-1-0.6-0.9-1.2c0.1-0.6,0.7-1,1.3-0.9
											C1086.5,270.4,1087,271,1086.9,271.6z"/>
									</g>
									<g>
										<g>
											<path class="st19" d="M1088.4,270.8c-0.2,0.1-0.9-0.7-2-0.9c-1.2-0.3-2.1,0.2-2.2,0c0-0.1,0.1-0.3,0.6-0.5
												c0.4-0.2,1.1-0.3,1.8-0.2c0.7,0.2,1.3,0.5,1.6,0.9C1088.5,270.4,1088.5,270.7,1088.4,270.8z"/>
										</g>
									</g>
								</g>
								<g>
									<g>
										<path class="st19" d="M1075.8,269.3c-0.1,0.6-0.7,1-1.3,0.9c-0.6-0.1-1-0.6-0.9-1.2c0.1-0.6,0.7-1,1.3-0.9
											C1075.4,268.2,1075.9,268.7,1075.8,269.3z"/>
									</g>
									<g>
										<g>
											<path class="st19" d="M1077,268.6c-0.2,0.1-0.9-0.7-2-0.9c-1.2-0.3-2.1,0.2-2.2,0c0-0.1,0.1-0.3,0.6-0.5
												c0.4-0.2,1.1-0.3,1.8-0.2c0.7,0.2,1.3,0.5,1.6,0.9C1077,268.3,1077.1,268.6,1077,268.6z"/>
										</g>
									</g>
								</g>
								<g>
									<g>
										<path class="st19" d="M1079.4,278.1c0-0.1,0.8,0,2,0.1c0.3,0,0.6,0,0.7-0.2c0.1-0.2,0.1-0.5,0-0.9
											c-0.1-0.8-0.3-1.6-0.4-2.4c-0.5-3.5-0.9-6.3-0.7-6.3c0.1,0,0.7,2.8,1.2,6.2c0.1,0.9,0.3,1.7,0.4,2.4
											c0,0.4,0.2,0.8-0.1,1.2c-0.1,0.2-0.4,0.3-0.6,0.3c-0.2,0-0.4,0-0.5,0C1080.1,278.3,1079.4,278.2,1079.4,278.1z"/>
									</g>
								</g>
								<g>
									<path class="st27" d="M1077.4,292c0,0-5.7-0.8-10.6-5.3c0,0,1.5,6.3,10.1,7.3L1077.4,292z"/>
								</g>
								<g>
									<g>
										<path class="st19" d="M1075.8,278.2c0.2,0-0.1,1.3,0.8,2.4c0.9,1.1,2.3,1.3,2.2,1.4c0,0.1-0.4,0.2-0.9,0.1
											c-0.6-0.1-1.3-0.4-1.9-1.1c-0.5-0.7-0.7-1.5-0.6-2C1075.5,278.5,1075.7,278.2,1075.8,278.2z"/>
									</g>
								</g>
							</g>
						</g>
					</g>
					<g>
						<path class="st19" d="M1078.2,264.1c-0.2,0.3-1.3-0.1-2.7-0.2c-1.4-0.1-2.6,0-2.7-0.3c-0.1-0.2,0.2-0.4,0.7-0.6
							c0.5-0.2,1.3-0.4,2.1-0.3c0.8,0.1,1.6,0.4,2,0.7C1078.1,263.7,1078.3,264,1078.2,264.1z"/>
					</g>
					<g>
						<path class="st19" d="M1088.7,267.3c-0.3,0.2-1-0.2-2-0.4c-1-0.2-1.8-0.2-1.9-0.5c-0.1-0.2,0.1-0.4,0.5-0.6
							c0.4-0.2,1-0.3,1.7-0.1c0.7,0.2,1.2,0.5,1.5,0.9C1088.8,266.9,1088.8,267.2,1088.7,267.3z"/>
					</g>
					<g>
						<path class="st19" d="M1091.7,263.8c0,0-4.8,1.4-10-2.5c-3.4-2.5-7.6-4.2-8.7-3.6c-1.1,0.6-2,4.4-5.9,4.9c0,0-1,7.4-3.9,6.6
							c-2.9-0.8,0.6-15.4,0.6-15.4l8.1,1.2l8.1-0.1l7.2,2.3l5.4,2.6L1091.7,263.8z"/>
					</g>
					<g>
						<g>
							<path class="st19" d="M1064,251.8c0-0.1,0.7-0.2,1.5,0.2c0.8,0.5,1,1.2,0.9,1.2c-0.1,0.1-0.5-0.4-1.1-0.8
								C1064.7,252,1064,251.9,1064,251.8z"/>
						</g>
					</g>
					<g>
						<g>
							<path class="st19" d="M1067,249.8c0.1,0-0.1,0.9-0.1,1.9c-0.1,1,0.2,1.8,0.1,1.9c-0.1,0.1-0.6-0.8-0.6-1.9
								C1066.4,250.5,1066.9,249.7,1067,249.8z"/>
						</g>
					</g>
				</g>
				<g>
					<g>
						<g>
							<path class="st26" d="M1064,266.3c-0.1-0.1-4.5-2.7-5.6,2.2c-1.1,4.9,4.1,5,4.1,4.8C1062.6,273.2,1064,266.3,1064,266.3z"/>
						</g>
					</g>
					<g>
						<g>
							<g>
								<path class="st27" d="M1061.4,271.1c0,0-0.1,0-0.3,0.1c-0.2,0-0.4,0-0.6-0.1c-0.5-0.3-0.7-1.2-0.6-2.1
									c0.1-0.4,0.3-0.9,0.5-1.2c0.2-0.3,0.5-0.5,0.8-0.5c0.3,0,0.4,0.2,0.5,0.3c0,0.2,0,0.2,0,0.3c0,0,0.1-0.1,0.1-0.3
									c0-0.1,0-0.2-0.1-0.3c-0.1-0.1-0.3-0.2-0.4-0.2c-0.4-0.1-0.8,0.2-1.1,0.6c-0.3,0.3-0.5,0.8-0.6,1.3c-0.2,1,0.1,2,0.8,2.4
									c0.3,0.2,0.6,0.1,0.8,0C1061.4,271.3,1061.4,271.1,1061.4,271.1z"/>
							</g>
						</g>
					</g>
				</g>
			</g>
			<g>
				<g>
					<path class="st21" d="M1080.2,269.1c-0.1,0,0-0.5-0.3-1.2c-0.2-0.8-0.7-1.9-1.9-2.7c-1.1-0.9-3-1.3-4.7-0.7
						c-1.8,0.6-3.3,2.5-3.3,4.7c0,2.2,1.5,4.1,3.3,4.7c1.8,0.7,3.6,0.2,4.7-0.7c1.2-0.9,1.7-2,1.9-2.7
						C1080.2,269.6,1080.2,269.1,1080.2,269.1c0,0,0,0.1,0,0.3c0,0.2,0,0.5-0.1,1c-0.2,0.8-0.7,2-1.9,3c-1.2,1-3.2,1.5-5.1,0.8
						c-1-0.3-1.9-1-2.5-1.9c-0.7-0.9-1.1-2-1.1-3.2c0-1.2,0.4-2.3,1.1-3.2c0.7-0.9,1.6-1.5,2.5-1.9c2-0.7,3.9-0.1,5.1,0.8
						c1.2,1,1.7,2.2,1.9,3c0.1,0.4,0.1,0.7,0.1,1C1080.3,269,1080.2,269.1,1080.2,269.1z"/>
				</g>
				<g>
					<path class="st21" d="M1092.7,271.4c-0.1,0,0-0.5-0.3-1.2c-0.2-0.8-0.7-1.9-1.9-2.7c-1.1-0.9-3-1.3-4.7-0.7
						c-1.8,0.6-3.3,2.5-3.3,4.7c0,2.2,1.5,4.1,3.3,4.7c1.8,0.7,3.6,0.2,4.7-0.7c1.2-0.9,1.7-2,1.9-2.7
						C1092.7,271.9,1092.7,271.4,1092.7,271.4c0,0,0,0.1,0,0.3c0,0.2,0,0.5-0.1,1c-0.2,0.8-0.7,2-1.9,3c-1.2,1-3.2,1.5-5.1,0.8
						c-1-0.3-1.9-1-2.5-1.9c-0.7-0.9-1.1-2-1.1-3.2c0-1.2,0.4-2.3,1.1-3.2c0.7-0.9,1.6-1.5,2.5-1.9c2-0.7,3.9-0.1,5.1,0.8
						c1.2,1,1.7,2.2,1.9,3c0.1,0.4,0.1,0.7,0.1,1C1092.7,271.3,1092.7,271.4,1092.7,271.4z"/>
				</g>
				<g>
					<path class="st21" d="M1070.4,266.3c0,0.1-1.4,0.3-3.1,0.3c-1.7,0-3.1-0.1-3.1-0.2c0-0.1,1.4-0.3,3.1-0.3
						C1069,266,1070.4,266.1,1070.4,266.3z"/>
				</g>
			</g>
			<g>
				<path class="st21" d="M1082.3,270.4c-0.1,0.1-0.4-0.4-1-0.6c-0.6-0.2-1.1,0.1-1.2-0.1c0-0.1,0-0.2,0.3-0.3
					c0.2-0.1,0.6-0.2,1-0.1c0.4,0.1,0.7,0.4,0.8,0.6C1082.4,270.2,1082.4,270.4,1082.3,270.4z"/>
			</g>
		</g>
		<polygon class="st15" points="1070.8,374.7 1070.8,371.4 1116.8,372.4 1143.2,330.1 1145.7,331.8 1118.5,375.1 		"/>
		<path class="st26" d="M1102.6,360.6l2.3,3.4v7.1c0,0-1.2,0.3-1.7-0.7c-0.5-1-1.1-4.2-1.1-4.2l-1.1,2.9c-0.5,1.2-1.7,1.8-2.9,1.5
			l-8.5-2.1l3.5-10L1102.6,360.6z"/>
		<g>
			<path class="st22" d="M1055.5,292.3c0,0-12.7,3.2-16.5,8.9c-3.8,5.7-8.2,15.2-12.8,33.7c-4.1,16.1-7.2,41.8-2.8,47.8
				c3,4.1,5,5.2,5,5.2l9.8-3.5c9.5-3.4,18.1-8.6,25.6-15.4l15.1-13.7l-8-6.3c0,0,6.1-32.8,4.5-44.2
				C1073.8,294.7,1055.5,292.3,1055.5,292.3z"/>
			<path class="st22" d="M1058.8,302.2c-4.9,1.2-9.6,3.2-16.3,3.8c-1.6,0.1-3.2-0.2-4.5-1c-4.2-2.6-2.8-7.4-0.5-10.7
				c2.4-3.4,6.3-6.4,10.5-6c-0.8-2.1,0.4-4.6,2.4-5.7c2-1.1,4.4-0.9,6.5-0.1c2.1,0.8,3.9,2.2,5.7,3.5c2.4,1.8,4.8,3.6,7.2,5.4
				c1.6,1.2,3.3,2.5,4.2,4.3c0.9,1.8,4.4,8.8,2.8,10.2c0,0-2,0.6-2.9,0c-0.1,0-0.1-0.1-0.2-0.1
				C1069.6,302.4,1064.1,300.9,1058.8,302.2z"/>
			<path class="st22" d="M1051.6,308.2l-8.4,39.3c-1.5,6.9,2.3,13.8,8.9,16.2l36.5,7l4.6-13.6l0,0l-29.7-9.3l8.7-38L1051.6,308.2z"
				/>
			<g>
				<path class="st19" d="M1042.9,355c0,0,0,0.1,0.1,0.2c0,0.2,0.1,0.4,0.1,0.7c0,0.2,0.1,0.3,0.1,0.5c0.1,0.2,0.1,0.4,0.2,0.6
					c0.1,0.2,0.2,0.4,0.2,0.7c0.1,0.2,0.3,0.5,0.4,0.7c0.6,1,1.5,2.2,3,3.1c1.4,1,3.2,1.8,5.4,2.3c8.7,1.6,21.2,3.9,36.2,6.6
					l-0.2,0.1c1.5-4.3,3.1-8.9,4.8-13.6l0.2,0.3c-9.2-2.8-19.2-6-29.7-9.2l-0.2-0.1l0.1-0.2c0.5-2,1.1-4.2,1.6-6.4
					c1.7-6.9,3.3-13.6,4.7-20.2c0.7-3.3,1.3-6.5,1.8-9.7c0.1-0.8,0.1-1.6,0.2-2.4c0-0.8-0.1-1.6-0.3-2.3c-0.3-1.5-1.1-2.9-2-4
					c-1.9-2.3-4.9-3.5-7.7-3.5c-2.9,0.1-5.4,1.6-7.2,3.6c-1.8,2-2.9,4.4-3.7,6.8c-0.8,2.4-1.2,4.8-1.7,7.1
					c-1.8,9.1-3.3,16.5-4.3,21.6c-0.5,2.5-0.9,4.5-1.2,5.9c-0.1,0.7-0.2,1.2-0.3,1.5c-0.1,0.3-0.1,0.5-0.1,0.5s0-0.2,0.1-0.5
					c0.1-0.4,0.2-0.9,0.3-1.5c0.3-1.4,0.6-3.3,1.1-5.9c1-5.1,2.4-12.5,4.1-21.6c0.4-2.3,0.9-4.7,1.7-7.1c0.8-2.4,1.9-4.9,3.8-7
					c1.8-2.1,4.5-3.7,7.5-3.8c3-0.1,6.1,1.2,8.1,3.6c1,1.2,1.8,2.7,2.1,4.2c0.2,0.8,0.2,1.6,0.3,2.4c-0.1,0.8-0.1,1.6-0.2,2.4
					c-0.4,3.2-1.1,6.4-1.8,9.7c-1.4,6.6-3,13.3-4.7,20.2c-0.6,2.2-1.1,4.4-1.6,6.4l-0.2-0.3c10.5,3.3,20.5,6.4,29.7,9.3l0.2,0.1
					l-0.1,0.2c-1.7,4.7-3.3,9.3-4.8,13.6l-0.1,0.2l-0.2,0c-15-2.8-27.4-5.1-36.1-6.8c-2.2-0.6-4-1.4-5.4-2.4c-1.4-1-2.4-2.2-3-3.2
					c-0.1-0.3-0.3-0.5-0.4-0.7c-0.1-0.2-0.2-0.5-0.2-0.7c-0.1-0.2-0.1-0.4-0.2-0.6c0-0.2-0.1-0.4-0.1-0.5c0-0.3-0.1-0.5-0.1-0.7
					C1042.9,355,1042.9,355,1042.9,355z"/>
			</g>
			<g>
				<path class="st19" d="M1058.5,352.9c-0.1,0-0.1-0.5,0.1-1.2c0.2-0.7,0.7-1.7,1.5-2.4c0.8-0.8,1.8-1.2,2.5-1.4
					c0.7-0.2,1.2-0.1,1.2,0c0,0.1-0.4,0.1-1.1,0.4c-0.6,0.2-1.5,0.7-2.2,1.4c-0.7,0.7-1.2,1.6-1.5,2.2
					C1058.6,352.5,1058.6,353,1058.5,352.9z"/>
			</g>
			<g class="st28">
				<path d="M1050.7,307.7c-4.4,13.6-7.1,27.8-8.8,42c-0.4,3.3-0.8,6.6-0.2,9.9c0.6,3.3,2.2,6.5,4.9,8.3c2.6,1.7,5.9,1.9,8.9,1.4
					c3-0.6,7.9-1.2,10.7-2.6l-16.4-3.4c0,0-10.5-0.7-6-20.8C1048.5,322.2,1050.7,307.7,1050.7,307.7z"/>
			</g>
			<g class="st28">
				<path d="M1036.8,304.3c-0.1,1.6,0.1,3.6,1.6,4.3c1.5,0.7,3.1-0.6,4.4-1.7c5-4.6,10.6-8.4,16.6-11.4c-8.2,0.5-16.2,3.8-22.5,9.1"
					/>
			</g>
			<g>
				<path class="st19" d="M1068.8,299.4c-0.1,0.1-1.6-1.3-4.5-2.4c-1.5-0.6-3.3-1.1-5.4-1.2c-2.1-0.2-4.4,0-6.7,0.7
					c-2.3,0.7-4.4,1.7-6.2,2.7c-1.8,1-3.5,2-4.9,2.7c-1.4,0.7-2.6,1.3-3.4,1.6c-0.8,0.3-1.3,0.5-1.3,0.4c0,0,0.4-0.2,1.2-0.6
					c0.8-0.4,1.9-1,3.3-1.8c1.4-0.8,3-1.8,4.8-2.8c1.8-1,3.9-2.1,6.3-2.8c2.4-0.7,4.7-0.9,6.9-0.7c2.1,0.2,4,0.7,5.5,1.4
					c1.5,0.6,2.6,1.3,3.3,1.8c0.4,0.3,0.6,0.5,0.8,0.6C1068.7,299.3,1068.8,299.4,1068.8,299.4z"/>
			</g>
			<g>
				<path class="st19" d="M1073.9,301.4c-0.1,0.1-1.2-1.1-3.3-2.7c-2-1.6-5-3.7-8.6-5.5c-3.6-1.8-7-2.9-9.6-3.5
					c-2.5-0.6-4.2-0.9-4.1-1c0,0,0.4,0,1.1,0.1c0.7,0.1,1.8,0.3,3.1,0.5c2.6,0.6,6.1,1.6,9.7,3.4c3.6,1.8,6.6,4,8.6,5.7
					c1,0.9,1.8,1.6,2.3,2.1C1073.7,301.1,1074,301.4,1073.9,301.4z"/>
			</g>
			<g>
				<path class="st15" d="M1076.4,333.2c0,0-0.1-0.3-0.2-0.8c-0.1-0.5-0.2-1.3-0.3-2.3c-0.1-1-0.2-2.2,0.2-3.6
					c0.2-0.7,0.7-1.5,1.6-1.6c0.4-0.1,1,0.1,1.2,0.5c0.3,0.4,0.4,1-0.1,1.4l0,0l-0.1,0c-0.5,0.1-1.1-0.2-1.4-0.5
					c-0.4-0.4-0.5-0.9-0.6-1.4c-0.1-1-0.1-1.9-0.2-2.9c-0.2-4.6-0.4-8.8-0.5-11.9c0-1.4-0.1-2.7-0.1-3.6c0-0.9,0-1.3,0-1.3
					c0,0,0.1,0.5,0.2,1.3c0.1,0.9,0.2,2.2,0.3,3.6c0.2,3,0.4,7.2,0.7,11.9c0.1,1,0.1,2,0.2,2.8c0.1,0.4,0.2,0.8,0.5,1.1
					c0.3,0.3,0.6,0.5,0.9,0.4l-0.1,0.1c0.2-0.2,0.2-0.6,0-0.8c-0.2-0.3-0.5-0.4-0.8-0.3c-0.7,0.1-1.1,0.7-1.3,1.3
					c-0.3,1.3-0.3,2.5-0.3,3.5C1076.3,332,1076.4,333.2,1076.4,333.2z"/>
			</g>
			<g>
				<path class="st19" d="M1060.5,365.2c0,0-0.4,0.4-1.2,1.1c-0.8,0.7-1.9,1.7-3.4,2.8c-2.9,2.3-7.1,5.3-12,8.2
					c-4.9,2.9-9.6,5.1-13.1,6.5c-1.7,0.7-3.1,1.2-4.1,1.6c-1,0.3-1.5,0.5-1.6,0.5c0,0,0.5-0.3,1.5-0.7c1-0.4,2.4-1,4.1-1.7
					c3.4-1.5,8.1-3.7,13-6.6c4.9-2.9,9.1-5.8,12.1-8.1c1.5-1.1,2.7-2,3.5-2.7C1060,365.5,1060.5,365.2,1060.5,365.2z"/>
			</g>
			<g>
				<path class="st19" d="M1031,387.2c-0.1,0.1-0.7-0.5-1.3-1.3c-0.6-0.8-1-1.5-0.9-1.6c0.1-0.1,0.7,0.5,1.3,1.3
					C1030.7,386.4,1031.1,387.1,1031,387.2z"/>
			</g>
			<g>
				<path class="st19" d="M1036.9,384.8c-0.1,0.1-0.9-0.3-1.6-1.2c-0.8-0.8-1.1-1.7-1-1.7c0.1-0.1,0.7,0.6,1.4,1.4
					C1036.3,384,1036.9,384.6,1036.9,384.8z"/>
			</g>
			<g>
				<path class="st19" d="M1044.2,382.3c-0.1,0.1-0.9-0.7-1.8-1.7c-0.9-1-1.5-1.9-1.4-2c0.1-0.1,0.9,0.7,1.8,1.7
					C1043.7,381.3,1044.3,382.2,1044.2,382.3z"/>
			</g>
			<g>
				<path class="st19" d="M1052.1,378.2c-0.1,0.1-1-0.8-1.9-1.9c-1-1.2-1.6-2.2-1.5-2.3c0.1-0.1,1,0.8,1.9,1.9
					C1051.5,377.1,1052.2,378.1,1052.1,378.2z"/>
			</g>
			<g>
				<path class="st19" d="M1059.4,372.7c-0.1,0.1-1-0.6-2.1-1.5c-1-0.9-1.8-1.8-1.7-1.9c0.1-0.1,1,0.6,2.1,1.5
					C1058.7,371.7,1059.5,372.6,1059.4,372.7z"/>
			</g>
		</g>
	</g>
	<g>
		<g>
			<g>
				
					<ellipse transform="matrix(0.2301 -0.9732 0.9732 0.2301 581.7279 1323.5743)" class="st21" cx="1127.3" cy="294.1" rx="2.2" ry="2.2"/>
				<g>
					<path class="st21" d="M1122.8,291.3c2.5-2.6,6.5-2.7,9-0.1c1.1,1.2,2.9-0.6,1.8-1.8c-3.5-3.5-9.2-3.5-12.6,0.1
						C1119.9,290.7,1121.7,292.5,1122.8,291.3L1122.8,291.3z"/>
				</g>
				<g>
					<path class="st21" d="M1115.2,280.8c3.4-3,7.5-4.8,12.1-4.8c4.5,0,9,1.6,12.3,4.7c1.2,1.1,3-0.7,1.8-1.8
						c-3.8-3.6-8.9-5.5-14.1-5.5c-5.3,0-9.9,2.2-13.9,5.6C1112.2,280.1,1114,281.9,1115.2,280.8L1115.2,280.8z"/>
				</g>
				<g>
					<path class="st21" d="M1118.2,286.6c2.3-2.5,5.5-4,8.9-4.1c3.5-0.1,6.8,1.4,9.3,3.8c1.1,1.2,2.9-0.6,1.8-1.8
						c-2.9-2.9-6.9-4.7-11.1-4.6c-4,0.1-7.9,1.9-10.7,4.8C1115.3,286,1117.1,287.8,1118.2,286.6L1118.2,286.6z"/>
				</g>
			</g>
		</g>
	</g>
	<path class="st29" d="M1191.6,568.4H676.2c-5.7,0-10.4-4.7-10.4-10.4v-2.1c0-5.7,4.7-10.4,10.4-10.4h515.4
		c5.7,0,10.4,4.7,10.4,10.4v2.1C1202,563.7,1197.3,568.4,1191.6,568.4z"/>
</g>
</svg>
