<?xml version="1.0" encoding="utf-8"?>
<!-- Generator: Adobe Illustrator 24.0.1, SVG Export Plug-In . SVG Version: 6.00 Build 0)  -->
<svg version="1.1" id="Layer_1" xmlns="http://www.w3.org/2000/svg" xmlns:xlink="http://www.w3.org/1999/xlink" x="0px" y="0px"
	 viewBox="0 0 200 162.5" style="enable-background:new 0 0 200 162.5;" xml:space="preserve">
<style type="text/css">
	.st0{fill:#3696DD;}
	.st1{fill:#60AEE2;}
	.st2{fill:#F99775;}
</style>
<g>
	<g>
		<path class="st0" d="M107.2,105.3c0.7-3.1,1.3-6.2,2.3-9.3c6-19.5,24.8-32,45.6-30.6c19.8,1.4,36.8,17.2,39.7,37.1
			c3.9,26.2-15.9,49.7-42.6,50.4c-22,0.6-41.3-15.9-44.3-37.8c-0.1-0.9-0.5-1.8-0.7-2.7C107.2,110,107.2,107.6,107.2,105.3z
			 M192.7,109.1c0-22.6-18.5-41.1-41.2-41.1c-22.8,0-41.5,18.4-41.5,40.8c0,22.6,18.7,41.4,41.4,41.4
			C174,150.2,192.8,131.5,192.7,109.1z"/>
		<path class="st0" d="M170.2,130.7c-4.5-13.4-8.8-26.2-13.2-39.1c1.1-0.2,2-0.2,2.7-0.5c0.9-0.4,1.8-1.1,2.6-1.7
			c-1-0.6-2.1-1.6-3.1-1.7c-3.9,0-7.9,0.4-11.8,0.5c-2.1,0-4.3-0.3-6.4-0.3c-0.7,0-1.4,0.8-2.2,1.3c0.6,0.6,1.1,1.9,1.7,1.8
			c3.7-0.2,4.2,2.6,5.4,5c4,7.6,4.1,14.9,0.3,22.6c-1.8,3.6-2.7,7.6-4.2,12.2c-4.6-13.5-8.9-26.2-13.4-39.3c1.5-0.2,2.5-0.2,3.3-0.5
			c0.8-0.4,1.4-1.2,2.1-1.8c-0.8-0.5-1.6-1.4-2.5-1.4c-3.3,0-6.7,0.3-10.2,0.5c7.6-15.7,36.2-23.7,54-7.6c-6.1,3.6-7.7,7-3.6,13
			c5.8,8.5,5.4,16.7,1.9,25.6C172.2,122.9,171.4,126.6,170.2,130.7z"/>
		<path class="st0" d="M163.6,144.1c-7.6,2.7-14.8,2.7-22.5,0.7c3.6-10.4,7.2-20.7,11-31.6C156,123.7,159.7,133.7,163.6,144.1z"/>
		<path class="st0" d="M134.5,141.9c-16.9-7.4-25.1-29.6-17.5-47c3,8,5.9,15.6,8.7,23.3C128.6,125.9,131.4,133.6,134.5,141.9z"/>
		<path class="st0" d="M169.1,143.2c4.6-16.9,12.7-32.5,15.3-49.4C193.2,107.3,187,133.7,169.1,143.2z"/>
	</g>
	<path class="st1" d="M82.7,51.3c-17.8,0-35.6,0.1-53.4,0c-8-0.1-15.2-2.2-19.8-9.5C-0.5,26.1,8.9,7.5,27.3,6.4
		c2.1-0.1,4.2-0.1,6.3-0.1c32.7,0,65.4,0,98.1,0c7.4,0,14.3,1.5,20.4,5.8c4,2.7,6,6.5,6.3,11.3c0.1,2.7,0.3,5.4,0.3,8.1
		c0,11.5-9,19.6-22.1,19.7C118.6,51.3,100.6,51.3,82.7,51.3C82.7,51.3,82.7,51.3,82.7,51.3z M39.6,28.8c0-3.8-3.6-7.2-7.6-7.1
		c-4,0-6.9,2.9-6.9,6.9c-0.1,4.1,3,7.3,7.1,7.4C36,36.1,39.6,32.6,39.6,28.8z"/>
	<path class="st2" d="M139.8,60.5c-2.4,1-4.8,2-7.1,3c-15.9,6.8-25.7,18.7-29.2,35.5c-0.8,3.9-2.4,5.2-6.4,5.2
		C74.1,104,51,104,28,104c-8.9,0-16.4-2.8-20-11.3c-3.7-8.6-3.5-17.6,2-25.6c4.2-6.1,11.1-7.8,17.8-7.8c36.1-0.2,72.2-0.1,108.3-0.1
		C137.3,59.2,138.6,59.2,139.8,60.5z M39.6,81.4c-0.1-3.8-3.8-7.2-7.7-7c-3.9,0.1-6.8,3.2-6.8,7.2c0,4.3,3,7.3,7.2,7.2
		C36.4,88.7,39.7,85.3,39.6,81.4z"/>
	<path class="st1" d="M136.9,156.9c-1.2,0-2.5,0-3.7,0c-34.8,0-69.6,0-104.4,0c-8.9,0-17-2.3-20.8-11c-5.9-13.4-1.9-33.3,18.2-33.6
		c24.2-0.4,48.4-0.2,72.7-0.3c2.3,0,3.8,0.8,4.1,3.1C106,135.6,118.1,148.6,136.9,156.9z M32.1,141.6c4.1,0,7.4-3.3,7.5-7.2
		c0-3.7-3.7-7.3-7.5-7.2c-4,0-7.1,3.4-7,7.6C25.2,138.9,28,141.6,32.1,141.6z"/>
</g>
</svg>
